<svg width="280" height="247" viewBox="0 0 280 247" fill="none" xmlns="http://www.w3.org/2000/svg">
<path d="M233.163 225.038C219.375 233.187 201.55 229.71 185.371 231.489C171.699 232.992 158.917 238.381 145.829 242.39C132.742 246.399 118.401 249.032 105.335 244.96C96.3602 242.163 88.7904 236.445 80.344 232.451C70.1515 227.631 58.8247 225.384 48.1882 221.502C37.5517 217.62 27.0504 211.537 22.1123 201.873C16.1741 190.251 19.587 176.445 17.3425 163.728C14.8093 149.375 5.17634 136.982 1.14444 122.935C-1.70414 113.01 1.25144 101.299 4.69373 91.6693C8.3311 81.4936 18.4424 70.0612 28.1857 64.1401C31.3645 62.2083 34.5039 60.2731 37.5062 58.0877C38.8216 57.1302 45.7438 52.9416 45.7438 51.4253C53.5158 44.3875 58.1808 35.4127 64.9344 27.6189C71.9419 19.5322 82.1987 14.2928 92.956 11.7231C102.697 9.36457 112.662 8.06047 122.68 7.83324C133.44 7.66542 143.875 8.60676 154.257 5.13034C156.436 4.40047 158.55 3.50724 160.724 2.75907C175.402 -2.29149 195.058 -0.0794547 208.779 6.72047C214.015 9.31518 218.396 13.1786 222.618 17.0768C227.776 21.8395 232.603 26.9751 236.223 32.8872C239.69 38.5511 240.788 45.3115 245.205 50.6277C248.172 54.1979 251.09 58.1197 254.031 61.5632C258.574 66.8842 265.572 69.4413 269.892 75.2394C274.241 81.0759 276.31 88.2022 277.742 95.109C279.575 103.952 280.602 113.017 279.62 121.979C278.048 136.318 270.026 146.978 261.826 158.646C259.094 162.533 256.348 166.556 255.299 171.109C254.879 173.292 254.621 175.503 254.528 177.724C254.023 184.196 252.289 190.159 250.983 196.43C248.69 207.445 243.672 218.826 233.163 225.038Z" fill="#EFF2FD"/>
<path d="M248.932 222.43C213.682 221.939 178.43 221.629 143.178 221.5C141.364 221.473 139.635 220.725 138.372 219.421C137.108 218.116 136.413 216.363 136.439 214.545C136.396 160.691 136.259 106.837 136.03 52.9838C136.045 52.0499 136.244 51.1281 136.616 50.2716C136.987 49.415 137.524 48.6405 138.196 47.9926C138.867 47.3447 139.66 46.8362 140.528 46.4963C141.396 46.1563 142.322 45.9917 143.254 46.0119C181.201 46.2633 219.065 48.0403 256.846 51.3429C260.833 51.7066 263.737 55.0334 263.357 58.7518C258.179 110.955 255.819 163.295 255.685 215.749C255.69 216.635 255.518 217.513 255.18 218.332C254.841 219.15 254.342 219.893 253.713 220.515C253.084 221.138 252.336 221.628 251.515 221.957C250.694 222.285 249.816 222.446 248.932 222.43Z" fill="#FFEBDD"/>
<path d="M244.468 142.45C244.297 146.813 236.088 149.225 234.368 153.073C232.647 156.927 236.342 164.667 233.353 167.772C230.48 170.758 222.571 167.385 218.767 169.488C215.155 171.485 213.885 180.065 209.66 181.083C205.671 182.044 200.602 175.013 196.232 174.93C191.861 174.848 186.65 181.715 182.683 180.609C178.482 179.437 177.405 170.746 173.85 168.585C170.105 166.309 162.12 169.406 159.332 166.256C156.432 162.98 160.359 155.276 158.778 151.279C157.199 147.287 149.097 144.421 149.109 139.96C149.121 135.499 157.279 132.72 158.924 128.755C160.572 124.784 156.683 117.014 159.687 113.788C162.575 110.687 170.675 113.971 174.559 111.816C178.247 109.769 179.606 101.12 183.976 100.12C188.101 99.1767 193.207 106.281 197.693 106.434C202.179 106.587 207.736 99.8785 211.79 101.104C216.082 102.403 216.89 111.054 220.451 113.315C224.202 115.696 232.478 112.984 235.184 116.21C237.999 119.565 233.703 126.953 235.158 130.944C236.61 134.929 244.639 138.087 244.468 142.45Z" fill="#FFF7F2"/>
<path d="M191.916 70.2539C215.253 71.2292 238.558 72.669 261.831 74.5734C261.23 81.1457 260.68 87.7232 260.181 94.3059C237.207 92.6567 214.216 91.3912 191.208 90.5093C191.422 83.7569 191.658 77.0051 191.916 70.2539Z" fill="#FFE0CC"/>
<path d="M191.775 74.0249C215.048 74.9791 238.291 76.386 261.503 78.2457C261.067 83.1977 260.86 85.6747 260.468 90.6304C237.442 88.9322 214.396 87.6346 191.331 86.7379C191.499 81.6524 191.588 79.1098 191.775 74.0249Z" fill="#FFF7F2"/>
<path d="M136.408 184.454C176.263 184.514 216.106 185.164 255.938 186.403C255.82 193.021 255.745 199.641 255.713 206.262C215.955 205.414 176.195 204.935 136.431 204.822C136.425 198.033 136.417 191.244 136.408 184.454Z" fill="#FFE0CC"/>
<path d="M136.412 188.247C176.244 188.307 216.066 188.924 255.877 190.099C255.803 195.083 255.775 197.575 255.736 202.563C215.97 201.654 176.2 201.143 136.426 201.03C136.421 195.917 136.418 193.36 136.412 188.247Z" fill="#FFF7F2"/>
<path d="M136.092 67.4246C159.491 67.4415 182.875 67.9547 206.244 68.964C206.087 72.1585 206.01 73.7558 205.862 76.9508C182.623 75.9959 159.377 75.5075 136.124 75.4855C136.112 72.2611 136.105 70.649 136.092 67.4246Z" fill="white"/>
<path d="M136.124 75.4861C159.383 75.5036 182.629 75.992 205.862 76.9513C205.714 80.1463 205.642 81.7438 205.503 84.9392C182.393 84.0337 159.277 83.5696 136.155 83.547C136.143 80.3226 136.136 78.7104 136.124 75.4861Z" fill="#49B3F7"/>
<path d="M136.155 83.5469C159.283 83.5649 182.4 84.029 205.504 84.9391C205.365 88.1345 205.298 89.7322 205.169 92.928C182.177 92.0774 159.183 91.6373 136.184 91.6078C136.173 88.3834 136.167 86.7712 136.155 83.5469Z" fill="#FF6551"/>
<path d="M187.087 65.9565C186.793 74.5827 186.518 83.2093 186.262 91.8363C186.249 92.4726 186.487 93.0883 186.926 93.5486C187.365 94.0088 187.967 94.2759 188.602 94.2914C191.386 94.3767 192.777 94.4225 195.56 94.5203C196.123 94.5395 196.656 94.78 197.044 95.1898C197.457 95.6275 197.663 95.8464 198.075 96.2842C198.517 95.8775 198.738 95.6743 199.181 95.2681C199.597 94.8879 200.145 94.6872 200.708 94.7096C203.455 94.8152 204.828 94.8709 207.574 94.9884C208.206 95.0212 208.826 94.8011 209.296 94.3765C209.767 93.952 210.05 93.3576 210.083 92.724C210.473 84.1477 210.892 75.5734 211.339 67.0011C203.256 66.6049 195.171 66.2567 187.087 65.9565Z" fill="#FF2C4B"/>
<path fill-rule="evenodd" clip-rule="evenodd" d="M200.82 73.743C200.541 73.7401 200.265 73.6929 200 73.6033C199.995 73.6098 200.5 74.0145 200.503 74.0265C200.071 74.1942 199.627 74.3303 199.175 74.4338C199.169 74.4458 199.739 74.6759 199.739 74.6759C199.776 74.7454 198.737 77.0027 198.737 77.0027C198.733 77.0026 197.939 74.6017 197.939 74.6017C197.95 74.5854 198.513 74.4065 198.513 74.4065C198.497 74.3695 197.229 73.9044 197.233 73.8912C197.404 73.7542 197.583 73.6272 197.769 73.5107C197.763 73.5029 196.94 73.5822 196.94 73.5822C196.94 73.5775 197.925 72.9927 197.925 72.9927C197.918 72.9889 196.664 73.0816 196.664 73.0816C196.664 73.078 198.221 72.3665 198.485 72.2728C198.787 72.224 199.096 72.2399 199.391 72.3193C199.643 72.435 201.129 73.2672 201.129 73.2672L199.888 73.0743C200.151 73.3578 200.468 73.5852 200.82 73.743H200.82ZM200.301 88.9915C200.383 89.1609 200.233 89.5694 200.148 89.5098C200.012 89.4136 199.839 88.8411 199.617 88.5367C199.435 88.2868 199.034 87.7365 199.034 87.7365C199.499 88.1099 199.923 88.5305 200.301 88.9917V88.9916L200.301 88.9915ZM198.913 90.956C198.96 90.3331 198.912 89.7065 198.77 89.0982C198.678 88.7014 198.527 87.2802 198.527 87.2802C198.647 87.925 198.806 88.5615 199.006 89.1858C199.193 89.6466 199.455 90.7057 198.913 90.956ZM197.741 89.0591C197.604 89.6659 197.511 90.2815 197.461 90.9015C197.333 90.3158 197.346 89.7082 197.499 89.1286C197.753 88.5244 197.961 87.9011 198.119 87.2645C198.024 87.869 197.898 88.468 197.741 89.0591V89.0591ZM196.947 88.4349C196.695 88.749 196.468 89.2864 196.336 89.3654C196.239 89.4231 196.126 88.9965 196.222 88.8366C196.633 88.405 197.087 88.0176 197.579 87.6807C197.58 87.6817 197.16 88.1982 196.947 88.4349H196.947ZM200.799 89.8935C200.948 90.1701 200.459 90.3973 200.409 90.3411C200.388 90.2522 200.383 90.1604 200.393 90.0697C200.414 90.0422 200.705 90.0208 200.799 89.8935ZM196.023 90.1757C195.713 90.1644 195.652 89.6993 195.667 89.6994C195.798 89.7573 195.923 89.8262 196.041 89.9053C196.062 89.9326 196.027 90.0708 196.023 90.1757ZM194.277 84.0263C194.286 84.0935 194.305 84.159 194.333 84.2208C194.304 84.2901 193.621 84.4684 193.432 84.7656C193.171 85.1757 193.419 85.7264 193.338 85.9345C193.284 86.0703 192.852 86.0662 192.852 86.0662C193.183 86.1614 193.519 86.2345 193.859 86.2852C193.821 86.5074 193.772 86.7275 193.712 86.9448C193.716 86.9615 194.228 86.7179 194.235 86.7186C194.244 86.7195 194.259 86.8998 194.264 86.9031C194.288 86.9176 194.52 86.7198 194.52 86.7198C194.527 86.7219 194.567 86.9814 194.517 87.0434C194.406 87.1228 194.284 87.1861 194.155 87.2316C193.828 87.3779 193.484 87.4832 193.131 87.5453C192.984 87.5596 192.837 87.5268 192.71 87.4517C192.583 87.3765 192.483 87.2629 192.425 87.1272C192.342 86.836 191.996 86.8938 191.899 86.8993C191.874 86.9007 191.706 86.8313 191.65 86.917C191.599 86.8495 191.553 86.7777 191.515 86.7023C191.489 86.5668 191.452 86.4339 191.403 86.3051C191.332 86.1925 191.209 86.0097 191.15 85.9026C191.116 85.8404 191.207 85.7583 191.208 85.7559C191.213 85.7464 191.087 85.6828 191.086 85.6817C191.071 85.6597 191.078 85.4014 190.91 85.3432C190.424 84.2701 190.181 83.7335 189.693 82.6602L189.681 82.6585L189.632 82.5343L189.629 82.5203C189.574 82.3981 189.546 82.337 189.491 82.2147C189.512 82.1937 189.527 82.1679 189.537 82.1394C189.546 82.1109 189.548 82.0807 189.542 82.0513C189.537 82.0219 189.525 81.9941 189.507 81.9705C189.489 81.9468 189.465 81.9278 189.438 81.9153L189.439 81.8891C189.444 81.869 189.447 81.8488 189.45 81.8283C189.494 81.8165 189.539 81.8091 189.585 81.8064C190.014 81.6099 190.417 81.3621 190.787 81.0682C190.788 81.0692 190.033 81.6111 189.762 81.8473C189.51 82.0661 189.599 82.3125 189.63 82.5203C189.655 82.5764 189.668 82.6044 189.693 82.6605C189.915 82.6888 190.262 82.8255 190.493 82.6337C190.566 82.5731 191.865 81.141 191.865 81.141C191.867 81.1427 191.065 82.0949 190.745 82.5724C190.509 82.9253 190.837 83.3862 190.868 83.4078C190.923 83.4464 191.453 83.4947 191.641 83.207C191.826 82.9253 192.605 81.6572 192.605 81.6572C192.607 81.6585 191.916 82.9977 191.877 83.1014C191.844 83.2416 191.857 83.3888 191.913 83.5213C191.969 83.6538 192.066 83.7649 192.19 83.8384C192.335 83.8499 192.481 83.8208 192.611 83.7543C192.74 83.6878 192.849 83.5866 192.925 83.4618C193.025 83.2176 193.401 82.1142 193.401 82.1142C193.405 82.1158 193.29 82.7137 193.223 83.0963C193.156 83.479 193.632 83.7002 193.709 83.7087C193.786 83.7172 194.235 83.6094 194.304 83.2667C194.365 82.9656 194.405 82.2121 194.405 82.2121C194.457 82.2576 194.518 82.322 194.535 82.3218C194.588 82.321 194.965 82.0434 195.028 82.0164C195.041 82.0107 195.091 82.0534 195.115 82.0809C195.398 82.416 194.963 83.7804 194.963 83.7804C194.965 83.7866 195.321 83.7411 195.321 83.7411C195.181 83.8668 195.014 83.9581 194.833 84.0075C194.651 84.057 194.461 84.0634 194.277 84.0261L194.277 84.0264V84.0263ZM209.886 78.5376C209.504 78.3981 209.103 78.3201 208.697 78.3065C208.697 78.3013 210.088 77.2504 210.009 77.1226C209.93 76.9957 208.89 77.0947 208.89 77.0947C208.887 77.0862 209.98 75.9314 209.818 75.7182C209.724 75.5938 208.571 75.9194 208.571 75.9194C208.57 75.9182 209.594 73.8562 209.375 73.7955C208.773 74.2288 208.196 74.6961 207.646 75.1949C208.071 74.6939 208.457 74.1614 208.802 73.6019C209.023 73.1024 208.622 71.8365 208.455 71.893C208.248 71.9631 206.537 74.9304 206.34 74.933C206.316 74.9334 206.173 74.7612 206.149 74.7758C206.004 74.8647 205.228 76.0624 205.149 76.0389C205.14 76.0362 205.042 75.7899 205.035 75.7893C204.346 76.325 203.715 76.9319 203.152 77.5999C203.083 77.6707 203.029 77.7552 202.995 77.8479C202.96 77.9407 202.945 78.0398 202.951 78.1387C202.957 78.2376 202.983 78.3342 203.028 78.4223C203.073 78.5104 203.137 78.5881 203.214 78.6502C203.357 78.7963 203.625 79.0769 203.368 79.4166C202.952 79.9642 201.82 79.4231 201.83 79.4029C202 79.0449 202.141 78.6742 202.254 78.2943C202.196 78.2992 201.763 78.6553 201.457 78.5136C201.296 78.4303 201.144 78.3302 201.004 78.2151C201.011 78.2032 201.833 77.6736 201.833 77.6736C201.778 77.6473 201.094 77.6511 201.023 77.5693C200.911 77.4272 200.838 77.2589 200.809 77.0804C200.781 76.9019 200.798 76.719 200.86 76.5492C201.026 76.088 201.31 75.6785 201.683 75.3615C201.705 75.3642 201.795 75.4885 201.92 75.4765C201.996 75.4692 202.132 75.3941 202.229 75.3677C202.351 75.3375 202.478 75.3325 202.602 75.353C202.726 75.3734 202.845 75.4189 202.95 75.4866C203.039 75.5491 203.109 75.634 203.153 75.7327C203.198 75.8314 203.215 75.9402 203.203 76.0479C203.132 75.7497 203.04 75.4568 202.929 75.1713C202.929 75.168 203.704 75.5885 203.786 75.6459C203.902 75.7166 204.032 75.7597 204.167 75.7718C204.301 75.7839 204.437 75.7647 204.563 75.7156C204.684 75.6467 204.784 75.5462 204.853 75.4249C204.922 75.3035 204.957 75.1658 204.954 75.0263C204.93 75.0338 204.777 75.3169 204.563 75.3315C204.251 75.3241 203.947 75.2384 203.677 75.0822C203.423 74.999 203.161 74.9406 202.896 74.9078C202.893 74.8956 204.141 75.0966 204.232 75.1157C204.282 75.1262 204.47 74.9105 204.521 74.6836C204.658 74.0732 203.723 73.7809 203.651 73.6928C203.626 73.6623 203.427 73.5157 203.417 73.5076C203.398 73.4614 203.383 73.414 203.37 73.3659C203.384 73.3626 203.399 73.3603 203.415 73.3591C203.899 73.3822 204.377 73.2339 204.764 72.9401C205.271 72.467 204.673 71.3496 204.832 71.3021C205.123 71.3609 205.398 71.4776 205.643 71.6453C205.682 71.7439 205.704 71.8481 205.709 71.9539C205.769 72.4923 205.226 72.5899 205.345 73.1851C205.397 73.4466 205.597 73.5546 205.653 73.8803C205.577 74.0443 205.539 74.1263 205.464 74.2903C205.474 74.3232 206.191 73.9439 206.063 73.585C206.009 73.435 205.86 73.1218 205.86 73.1218C206.095 73.2872 206.381 73.3654 206.667 73.3429C206.84 73.2987 206.731 73.7036 206.731 73.7036C206.87 73.5668 206.984 73.4069 207.068 73.2309C207.072 73.1816 207.065 73.1321 207.046 73.0862C207.028 73.0402 207 72.9992 206.963 72.9662C206.926 72.9332 206.882 72.9091 206.835 72.8959C206.787 72.8827 206.737 72.8807 206.689 72.8901C206.591 72.9021 206.358 73.0221 206.351 72.8218C206.338 72.4772 206.916 72.4833 206.817 71.919C206.766 71.6337 206.244 71.5421 205.926 71.3707C205.832 71.2905 205.751 71.1953 205.687 71.089C205.419 70.6363 205.13 70.4924 204.956 70.5747C204.751 70.6722 204.632 70.7515 204.458 70.831C204.321 70.8705 204.193 70.9357 204.08 71.0232C203.843 71.279 204.036 71.7175 204.143 71.9777C204.273 72.2073 204.324 72.4736 204.287 72.7352C204.182 73.033 203.619 73.2445 203.329 73.2594C203.311 73.2625 203.293 73.2646 203.275 73.2658L203.28 73.1438C203.378 72.9823 203.464 72.8139 203.537 72.64C203.776 72.0928 203.37 71.8986 203.004 71.7255C202.945 71.6892 202.875 71.6767 202.808 71.6905L202.799 71.6901L202.785 71.7856L202.723 71.7654C202.729 71.7201 202.732 71.6976 202.738 71.6524L202.71 71.6513C202.736 71.6327 202.758 71.6085 202.773 71.5804C202.788 71.5524 202.797 71.5213 202.799 71.4894C202.802 71.4326 202.785 71.3764 202.752 71.3301L202.815 71.333L202.789 71.3055C202.767 71.273 202.741 71.2427 202.713 71.2149C202.7 71.1992 202.692 71.1809 202.688 71.1614C202.706 71.1728 202.724 71.1852 202.74 71.1986C202.773 71.219 202.799 71.2472 202.818 71.2807L202.852 71.3084C202.862 71.1027 202.866 70.9999 202.876 70.7942L202.838 70.8275C202.808 70.8428 202.78 70.8622 202.755 70.8849C202.739 70.8994 202.72 70.9104 202.699 70.9172C202.707 70.899 202.716 70.8818 202.729 70.8662C202.751 70.8406 202.803 70.8085 202.813 70.7914L202.842 70.7578C202.63 70.7483 202.523 70.7436 202.311 70.7341L202.337 70.7701C202.367 70.7928 202.393 70.8206 202.414 70.8522C202.424 70.8703 202.447 70.9061 202.447 70.9061C202.428 70.8961 202.411 70.8836 202.395 70.8688C202.369 70.8398 202.336 70.8174 202.299 70.8034L202.274 70.7673L202.25 71.2816L202.278 71.2567C202.309 71.227 202.343 71.202 202.381 71.1826C202.398 71.1743 202.436 71.1502 202.436 71.1502C202.436 71.1503 202.406 71.1925 202.398 71.2009C202.369 71.2308 202.341 71.2593 202.313 71.2844L202.285 71.3094L202.366 71.3129C202.344 71.3319 202.327 71.3558 202.317 71.3827C202.306 71.4096 202.302 71.4386 202.305 71.4674C202.303 71.4985 202.308 71.5296 202.319 71.5586C202.33 71.5877 202.347 71.6141 202.369 71.6361L202.36 71.6357L202.364 71.7494L202.291 71.7636L202.287 71.6673L202.278 71.6669C202.212 71.647 202.141 71.6532 202.079 71.6844C201.694 71.8296 201.259 72.0041 201.456 72.5479C201.515 72.7286 201.588 72.9042 201.676 73.0729L201.672 73.1514C201.092 72.9262 200.57 72.5721 200.145 72.1158C200.128 72.0851 200.103 72.0528 200.095 72.035C200.104 71.9026 200.109 71.8364 200.118 71.704C200.299 71.4212 200.457 71.1241 200.589 70.8155C200.929 70.0355 200.345 69.757 199.791 69.5141C199.708 69.466 199.609 69.4494 199.515 69.4673L199.482 69.5882L199.33 69.573C199.336 69.5069 199.34 69.4738 199.346 69.4077C199.319 69.4126 199.292 69.4143 199.264 69.413C199.264 69.4099 199.443 69.2458 199.448 69.1237C199.45 69.0759 199.441 69.0284 199.421 68.985C199.401 68.9416 199.371 68.9036 199.333 68.8741L199.459 68.8795C199.383 68.7894 199.315 68.6929 199.256 68.591C199.356 68.6551 199.449 68.7294 199.534 68.8127C199.546 68.551 199.552 68.4202 199.563 68.1585C199.498 68.2082 199.268 68.3397 199.267 68.3381C199.332 68.2449 199.408 68.1601 199.494 68.0857C199.224 68.0741 199.089 68.0684 198.819 68.0569C198.887 68.143 198.949 68.2332 199.006 68.327C198.91 68.2667 198.82 68.1985 198.735 68.1232C198.724 68.385 198.718 68.5159 198.707 68.7776C198.781 68.7195 198.994 68.5796 198.995 68.58C198.933 68.6766 198.863 68.7672 198.785 68.8508L198.902 68.8557C198.863 68.8825 198.831 68.9182 198.809 68.9598C198.786 69.0015 198.775 69.0479 198.774 69.0951C198.768 69.226 198.932 69.3989 198.932 69.3989C198.902 69.398 198.872 69.3938 198.842 69.3865L198.844 69.5525L198.691 69.5548L198.687 69.4322C198.64 69.4166 198.59 69.4106 198.54 69.4145C198.491 69.4184 198.442 69.4322 198.398 69.4551C197.847 69.6487 197.257 69.8939 197.5 70.6853C197.594 71.0081 197.726 71.3186 197.892 71.6106L197.878 71.9598C197.86 71.9678 197.845 71.9934 197.821 72.0187C197.345 72.4169 196.799 72.7239 196.212 72.9242L196.215 72.8456C196.318 72.6856 196.406 72.5164 196.478 72.3401C196.714 71.7909 196.298 71.5978 195.931 71.4265C195.872 71.3906 195.802 71.3784 195.735 71.3925L195.726 71.3921L195.713 71.4879L195.651 71.4679L195.664 71.3548L195.655 71.3544C195.696 71.3094 195.721 71.2519 195.725 71.1912C195.728 71.1628 195.726 71.134 195.718 71.1066C195.709 71.0792 195.696 71.0537 195.677 71.0318L195.758 71.0351C195.706 70.9811 195.657 70.9236 195.612 70.8631C195.671 70.9074 195.726 70.9564 195.777 71.0095C195.786 70.8035 195.79 70.7005 195.798 70.4944C195.743 70.54 195.684 70.5815 195.622 70.6186C195.672 70.5621 195.725 70.5087 195.782 70.4588C195.57 70.4504 195.464 70.4462 195.252 70.4379C195.299 70.4928 195.38 70.609 195.38 70.609C195.319 70.5696 195.264 70.5234 195.214 70.4713L195.193 70.9865C195.249 70.9385 195.308 70.8941 195.37 70.8536C195.329 70.9122 195.281 70.9661 195.228 71.0142L195.3 71.017C195.263 71.0605 195.242 71.1151 195.24 71.1721C195.238 71.2041 195.244 71.2362 195.257 71.2656C195.269 71.295 195.289 71.3209 195.314 71.341L195.287 71.3399L195.292 71.4538L195.219 71.4684L195.214 71.372L195.205 71.3717C195.139 71.352 195.068 71.3586 195.006 71.3901C194.622 71.5375 194.188 71.7136 194.388 72.2583C194.448 72.4389 194.522 72.6143 194.61 72.7828L194.605 72.9051C194.587 72.9027 194.569 72.8991 194.552 72.8944C194.264 72.8552 193.725 72.5889 193.641 72.2909C193.625 72.0264 193.699 71.7642 193.85 71.5465C193.981 71.3049 194.202 70.8571 193.995 70.5986C193.886 70.5021 193.761 70.4261 193.626 70.3744C193.459 70.2803 193.353 70.1925 193.151 70.0765C192.987 69.982 192.677 70.0773 192.378 70.5286C192.307 70.6305 192.218 70.719 192.116 70.79C191.788 70.9335 191.253 70.984 191.181 71.2633C191.04 71.8142 191.616 71.858 191.578 72.2053C191.556 72.4079 191.335 72.2637 191.235 72.2455C191.187 72.2315 191.136 72.2288 191.087 72.2376C191.038 72.2465 190.991 72.2667 190.951 72.2966C190.911 72.3265 190.878 72.3653 190.855 72.41C190.832 72.4548 190.82 72.5042 190.819 72.5544C190.893 72.735 190.993 72.9037 191.115 73.0551C191.12 73.0506 191.041 72.6411 191.209 72.6997C191.493 72.7533 191.787 72.6984 192.032 72.5458C192.041 72.5497 191.86 72.849 191.791 72.992C191.627 73.3328 192.329 73.7468 192.329 73.7468C192.335 73.729 192.174 73.3212 192.174 73.3212C192.248 73.0088 192.462 72.9183 192.54 72.652C192.711 72.0717 192.136 71.9457 192.282 71.3912C192.299 71.2864 192.33 71.1845 192.375 71.0884C192.635 70.9453 192.919 70.8521 193.213 70.8135C193.384 70.8829 192.675 71.9406 193.141 72.4557C193.5 72.782 193.964 72.9701 194.449 72.9864C194.464 72.9884 194.479 72.9919 194.494 72.9968C194.494 72.9988 194.438 73.1318 194.434 73.1345C194.411 73.1509 194.212 73.2811 194.195 73.3003C194.099 73.4064 193.15 73.5971 193.235 74.2177C193.259 74.398 193.353 74.5617 193.496 74.6736C193.613 74.6559 194.845 74.576 194.845 74.576C194.575 74.5888 194.306 74.6254 194.042 74.6854C193.764 74.8191 193.456 74.8799 193.148 74.8619C192.926 74.8288 192.785 74.5281 192.775 74.5243C192.759 74.6634 192.781 74.8044 192.839 74.9317C192.898 75.0589 192.99 75.1675 193.107 75.2453C193.227 75.3034 193.359 75.3331 193.493 75.332C193.627 75.3309 193.759 75.2991 193.878 75.2391C193.965 75.1885 194.772 74.8356 194.772 74.8356C194.772 74.8403 194.425 75.6883 194.425 75.6883C194.423 75.5808 194.448 75.4746 194.499 75.3799C194.55 75.2852 194.624 75.2054 194.715 75.1482C194.826 75.0898 194.948 75.0544 195.073 75.0442C195.199 75.034 195.324 75.0491 195.444 75.0888C195.539 75.1238 195.671 75.206 195.743 75.2229C195.859 75.2498 195.973 75.1282 195.989 75.1276C196.335 75.4742 196.584 75.9062 196.71 76.3799C196.76 76.5542 196.764 76.7387 196.721 76.915C196.678 77.0912 196.589 77.2531 196.465 77.3844C196.195 77.4334 195.921 77.4463 195.648 77.4228C195.894 77.644 196.155 77.847 196.43 78.0301C196.282 78.135 196.123 78.2227 195.955 78.2915C195.638 78.4082 195.208 78.0132 195.178 78.0083C195.076 77.9912 195.499 79.1231 195.511 79.149C195.547 79.2304 194.358 79.6196 193.986 79.0394C193.751 78.6723 194.045 78.4194 194.193 78.2861C194.274 78.2296 194.343 78.1569 194.394 78.0726C194.446 77.9883 194.48 77.8942 194.494 77.7962C194.508 77.6982 194.501 77.5984 194.474 77.503C194.448 77.4077 194.402 77.3189 194.34 77.2421C193.808 76.5504 193.231 75.8948 192.613 75.2795C192.564 75.3559 192.522 75.4363 192.487 75.5201C192.407 75.5474 191.693 74.2423 191.586 74.1747C191.565 74.1614 191.404 74.3189 191.384 74.3162C191.108 74.2785 189.696 71.1699 189.533 71.0994C189.339 71.0152 188.869 72.2698 189.042 72.7807C189.335 73.3709 189.675 73.9361 190.06 74.4705C189.551 73.9289 189.015 73.4137 188.454 72.9268C188.2 72.9784 189.078 75.1195 189.078 75.1195C189.078 75.1197 187.945 74.7126 187.851 74.8154C187.66 75.0247 188.662 76.2699 188.662 76.2699C188.659 76.2765 187.623 76.1001 187.545 76.2065C187.444 76.3439 188.737 77.4981 188.737 77.4981C188.736 77.501 187.619 77.5068 187.551 77.634C187.447 77.8301 188.813 78.6913 188.813 78.6913C188.813 78.6952 187.728 79.0598 187.725 79.1719C187.72 79.3193 188.885 79.7617 188.885 79.7617C188.885 79.7633 188.495 80.0061 188.475 80.002C188.471 80.0012 188.432 79.9688 188.413 79.9738C188.391 79.9796 188.376 80.025 188.384 80.0515L188.383 80.0689C188.342 80.103 188.31 80.1472 188.29 80.1973C188.258 80.2668 188.142 80.3945 188.149 80.429C188.15 80.4346 188.182 80.4503 188.183 80.4563C188.196 80.5027 188.207 80.5498 188.215 80.5974C188.214 80.6093 188.168 80.6659 188.158 80.7006L187.832 80.5674C187.812 80.6881 187.817 80.8114 187.847 80.9298C187.877 81.0483 187.931 81.1593 188.006 81.2561C188.118 81.3821 188.252 81.3779 188.215 81.4205C188.355 81.509 188.425 81.5534 188.564 81.642C188.588 81.6931 188.631 81.7327 188.684 81.7524C188.737 81.7722 188.795 81.7704 188.846 81.7475L188.846 81.7737C188.841 81.9138 189.042 82.045 189.058 82.0786C189.065 82.1311 189.085 82.1811 189.116 82.2235C189.147 82.266 189.189 82.2995 189.238 82.3207C189.73 83.608 189.977 84.2517 190.468 85.5388C190.41 85.6856 190.57 85.8604 190.573 85.8747C190.574 85.8837 190.514 86.0217 190.514 86.0217C190.521 86.0251 190.648 85.9763 190.682 86.0798C190.704 86.1497 190.724 86.4461 190.764 86.5637C190.821 86.6889 190.885 86.8108 190.956 86.9289C190.996 87.0633 191.018 87.2023 191.022 87.3424C190.994 87.4419 190.702 87.6652 190.72 87.8836C190.733 88.0409 190.907 88.1029 190.925 88.1354C190.97 88.2149 191.226 88.5198 191.267 88.5669C191.359 88.6833 191.466 88.7869 191.585 88.8752C191.695 88.9292 191.797 88.9973 191.889 89.0778C191.924 89.2266 191.986 89.368 192.07 89.4952C192.139 89.5655 192.211 89.6322 192.286 89.6948C192.359 89.752 192.506 89.8258 192.584 89.7925C192.638 89.7699 192.652 89.5525 192.656 89.4976C192.659 89.4614 192.653 89.2818 192.656 89.2351C192.645 89.1111 192.616 88.9893 192.571 88.8734C192.545 88.7847 192.53 88.6932 192.526 88.6008C192.556 88.5252 192.954 88.3622 193.034 88.3121C193.494 87.9799 194.035 87.7783 194.6 87.7286C194.792 87.7223 194.985 87.7264 195.177 87.7408C195.41 87.7688 195.738 87.8582 195.933 87.7158C195.96 87.6984 195.982 87.6742 195.997 87.6457C196.012 87.6172 196.02 87.5852 196.019 87.5529C196.001 87.4149 195.845 87.2675 195.794 87.1425C195.779 87.1077 195.737 86.9917 195.737 86.9917C195.877 86.9939 196.017 86.9874 196.156 86.9722C196.303 86.837 196.423 86.6754 196.511 86.4958C196.48 86.4735 195.831 86.6846 195.792 86.2069C195.758 85.789 196.15 85.444 196.73 85.6211C197.125 85.7417 197.68 86.6041 197.135 86.9476C196.882 87.1734 196.666 87.4364 196.493 87.7276C196.514 87.7354 197.204 87.4746 197.204 87.4746C197.211 87.5068 196.394 87.7974 195.94 88.0306C195.536 88.2372 195.21 88.6186 194.906 88.6228C194.662 88.6262 194.781 88.1287 194.781 88.1287C194.776 88.1027 194.223 88.2417 194.129 88.4815C194.102 88.6052 194.102 88.7333 194.13 88.8567C194.158 88.9802 194.213 89.0959 194.291 89.1957C194.288 89.2355 193.766 89.6298 193.862 90.0464C193.935 90.3193 194.03 90.5858 194.146 90.8433C194.318 90.7817 194.459 90.6547 194.539 90.4898C194.575 90.3781 194.617 90.2686 194.666 90.1619C194.679 90.1697 194.77 90.8204 195.124 91.0088C195.367 91.1381 196.047 90.8972 196.068 90.9029C196.124 90.9185 196.59 91.5554 197.011 91.5666C197.194 91.5358 197.374 91.4869 197.548 91.4206C197.613 91.4464 197.982 92.0745 198.154 92.0809C198.328 92.0874 198.768 91.4822 198.814 91.468C198.984 91.5449 199.159 91.607 199.339 91.6537C199.751 91.6737 200.314 91.0659 200.328 91.0629C200.393 91.0491 201.01 91.3496 201.261 91.2391C201.629 91.078 201.781 90.4302 201.781 90.4302C201.83 90.5377 201.868 90.6505 201.892 90.7665C201.925 90.9484 202.249 91.1476 202.249 91.1476C202.396 90.9062 202.511 90.6467 202.59 90.3757C202.707 89.9666 202.234 89.497 202.234 89.497C202.234 89.4658 202.549 89.1332 202.44 88.7981C202.361 88.552 201.816 88.3973 201.816 88.3973C201.806 88.4308 201.902 88.8976 201.655 88.8797C201.346 88.8575 201.055 88.4479 200.669 88.2114C200.233 87.9443 199.449 87.5607 199.449 87.5607C199.455 87.5429 200.14 87.8673 200.14 87.8673C200.007 87.5535 199.809 87.2717 199.559 87.0408C199.041 86.6638 199.662 85.8415 200.072 85.7507C200.652 85.622 201.027 85.9951 200.953 86.4062C200.869 86.8787 200.207 86.6313 200.197 86.638C200.264 86.8317 200.38 87.0048 200.533 87.1405C200.712 87.171 200.894 87.1783 201.074 87.1622C201.069 87.2001 201.061 87.2377 201.052 87.2749C201.019 87.6666 200.76 87.7471 200.842 87.8866C200.917 88.0159 201.657 88.0297 201.847 88.0668C202.174 88.1306 202.467 88.2629 202.787 88.3409C203.152 88.3927 203.512 88.4777 203.861 88.595C204.06 88.6869 204.312 88.9103 204.494 88.9794C204.746 89.0752 204.753 89.1649 204.947 89.1731C205.125 89.1806 205.206 89.0295 205.435 88.9844C205.592 88.9535 205.777 89.0155 205.933 88.9795C206.043 88.9541 206.111 88.84 206.217 88.7825C206.365 88.7376 206.51 88.6827 206.65 88.6182C206.715 88.5719 206.717 88.4319 206.732 88.4026C206.893 88.158 207.082 87.9326 207.293 87.7306C207.319 87.7117 207.411 87.666 207.414 87.6053L207.415 87.5792C207.449 87.5585 207.477 87.5299 207.497 87.4958C207.517 87.4617 207.529 87.4232 207.531 87.3837C207.532 87.3393 207.524 87.2951 207.507 87.254C207.491 87.2128 207.466 87.1754 207.434 87.1441L207.435 87.1179C207.438 87.0658 207.4 87.025 207.387 86.9937C207.309 86.7381 207.179 86.5018 207.003 86.3002C206.828 86.0986 206.613 85.9361 206.371 85.8234L206.372 85.7972L206.363 85.7969C206.364 85.7708 206.339 85.7653 206.329 85.7605C206.258 85.6786 206.201 85.5845 206.163 85.4827C206.267 85.5546 206.368 85.6318 206.465 85.714C206.477 85.4249 206.484 85.2803 206.496 84.9912C206.423 85.0403 206.18 85.1995 206.176 85.1952C206.239 85.0857 206.319 84.9863 206.411 84.9002C206.112 84.887 205.963 84.8804 205.664 84.8673C205.745 84.9642 205.815 85.0697 205.873 85.1819C205.769 85.1102 205.668 85.0329 205.572 84.9505C205.559 85.2397 205.553 85.3842 205.54 85.6734C205.614 85.6243 205.856 85.4651 205.861 85.4692C205.797 85.5788 205.718 85.6782 205.625 85.7643L205.652 85.7742C205.087 85.8718 204.689 86.5239 204.493 86.8587C204.475 86.8889 204.428 86.9257 204.426 86.978L204.425 87.004C204.398 87.0325 204.38 87.0678 204.372 87.1059C204.364 87.1441 204.367 87.1836 204.38 87.2203C204.395 87.2959 204.429 87.3663 204.478 87.4251L204.477 87.4513C204.474 87.5295 204.564 87.5665 204.587 87.5869C204.618 87.6533 204.644 87.7214 204.667 87.7909L204.676 87.7826C204.645 87.8614 204.596 87.9314 204.531 87.9865C204.467 88.0416 204.39 88.0801 204.308 88.0986C203.82 88.0721 203.342 87.9514 202.9 87.743C202.668 87.6765 202.46 87.5435 202.302 87.3604C202.247 87.2486 202.225 87.1237 202.237 86.9998C202.249 86.9979 202.466 87.2071 202.478 87.2017C202.495 87.1421 202.51 87.0815 202.521 87.0203C202.551 87.0193 203.034 87.2861 203.034 87.2861C203.038 87.2754 202.929 86.6181 202.929 86.6181C202.955 86.6149 203.948 86.4777 203.948 86.4777C203.926 86.4559 203.521 86.4503 203.475 86.3094C203.403 86.0905 203.687 85.557 203.47 85.1395C203.305 84.8201 202.61 84.5389 202.605 84.5268C202.602 84.5179 202.678 84.34 202.676 84.3375C202.618 84.2844 201.657 83.9722 201.657 83.9722C201.66 83.9687 202.011 84.0391 202.011 84.0391C202.02 84.0129 201.684 82.6477 201.992 82.3356C202.018 82.3101 202.072 82.2722 202.084 82.2783C202.149 82.313 202.522 82.6205 202.56 82.6215C202.578 82.622 202.634 82.5634 202.689 82.5222C202.689 82.5222 202.675 83.2788 202.707 83.5795C202.744 83.9205 203.19 84.0661 203.248 84.065C203.342 84.0632 203.827 83.88 203.789 83.4944C203.752 83.1087 203.689 82.5035 203.689 82.5035C203.695 82.5021 203.976 83.6343 204.058 83.8811C204.181 84.2471 204.717 84.3225 204.762 84.3131C204.892 84.252 204.999 84.1496 205.066 84.0216C205.133 83.8936 205.156 83.7472 205.131 83.6048C205.102 83.5086 204.518 82.1117 204.518 82.1117C204.521 82.1102 205.202 83.4425 205.357 83.7282C205.523 84.031 206.068 84.0127 206.113 83.9884C206.221 83.8847 206.295 83.7508 206.325 83.6041C206.355 83.4575 206.341 83.3051 206.283 83.167C206.007 82.6824 205.306 81.6576 205.306 81.6576C205.312 81.6537 206.479 83.173 206.556 83.249C206.681 83.3251 206.821 83.3727 206.967 83.3883C207.113 83.4039 207.26 83.3872 207.399 83.3393C207.47 83.2148 207.503 83.0721 207.493 82.929C207.484 82.7859 207.433 82.6487 207.346 82.5346C207.099 82.2787 206.385 81.6799 206.385 81.6799C206.729 81.9945 207.106 82.2718 207.508 82.5071C207.651 82.5608 207.805 82.579 207.957 82.5602C208.108 82.5413 208.253 82.486 208.379 82.3989C208.443 82.2672 207.422 81.2645 207.422 81.2645C207.971 81.3295 208.527 81.326 209.075 81.2541C209.114 81.1288 208.385 80.5415 208.385 80.5415C208.386 80.5362 209.582 80.1893 209.588 80.0491C209.594 79.9182 208.524 79.4842 208.524 79.4842C208.525 79.4786 209.799 79.0217 209.886 78.5376L209.886 78.5376Z" fill="#FFC652"/>
<path d="M161.941 139.004C160.164 138.987 159.275 138.979 157.499 138.966C157.183 139.7 157.025 140.067 156.71 140.801C156.552 141.118 156.453 141.462 156.416 141.814C156.418 141.907 156.442 141.997 156.484 142.079C156.527 142.16 156.589 142.231 156.664 142.285C156.993 142.467 157.363 142.56 157.739 142.555L157.737 142.873C156.295 142.862 155.573 142.858 154.13 142.849L154.132 142.531C154.465 142.504 154.786 142.39 155.062 142.201C155.483 141.708 155.81 141.141 156.027 140.53C157.66 136.7 158.481 134.787 160.131 130.962C160.25 130.964 160.309 130.964 160.428 130.965C161.999 134.861 162.782 136.809 164.346 140.706C164.529 141.267 164.822 141.786 165.207 142.233C165.515 142.486 165.9 142.629 166.298 142.636C166.297 142.763 166.297 142.827 166.295 142.954C164.487 142.934 163.583 142.924 161.776 142.907C161.777 142.78 161.777 142.716 161.778 142.589C162.102 142.606 162.424 142.529 162.705 142.365C162.78 142.31 162.841 142.238 162.884 142.155C162.926 142.072 162.949 141.98 162.949 141.886C162.91 141.471 162.799 141.065 162.621 140.688C162.349 140.014 162.213 139.678 161.941 139.004ZM161.708 138.366C160.945 136.473 160.562 135.527 159.796 133.634C158.982 135.512 158.576 136.452 157.765 138.331C159.342 138.344 160.131 138.35 161.708 138.366Z" fill="#2435A1"/>
<path d="M175.135 131.43C175.17 132.523 175.188 133.07 175.223 134.163L174.901 134.157C174.877 133.802 174.795 133.452 174.661 133.122C174.511 132.81 174.271 132.55 173.971 132.377C173.615 132.199 173.222 132.111 172.824 132.122C172.176 132.111 171.852 132.106 171.204 132.096C171.159 135.657 171.138 137.437 171.098 140.997C171.039 141.456 171.113 141.922 171.311 142.34C171.439 142.47 171.593 142.571 171.763 142.636C171.933 142.701 172.115 142.728 172.296 142.715L172.693 142.721C172.692 142.848 172.691 142.911 172.689 143.039C170.746 143.01 169.775 142.997 167.832 142.974C167.833 142.846 167.834 142.783 167.835 142.655L168.241 142.66C168.436 142.682 168.633 142.654 168.815 142.578C168.996 142.502 169.154 142.381 169.276 142.227C169.443 141.832 169.511 141.402 169.475 140.975C169.513 137.414 169.532 135.633 169.575 132.073C169.021 132.065 168.745 132.061 168.191 132.053C167.806 132.029 167.419 132.065 167.045 132.158C166.731 132.277 166.464 132.493 166.283 132.776C166.048 133.152 165.915 133.583 165.897 134.027C165.768 134.025 165.704 134.025 165.575 134.023C165.64 132.93 165.673 132.384 165.738 131.291C169.497 131.337 171.376 131.365 175.135 131.43Z" fill="#2435A1"/>
<path d="M185.753 131.641C185.783 132.732 185.798 133.278 185.829 134.369L185.507 134.362C185.484 134.007 185.405 133.658 185.271 133.328C185.123 133.015 184.884 132.754 184.585 132.58C184.23 132.4 183.837 132.311 183.439 132.319C182.791 132.305 182.467 132.298 181.819 132.285C181.758 135.839 181.729 137.617 181.675 141.171C181.614 141.63 181.686 142.096 181.883 142.514C182.01 142.644 182.163 142.746 182.333 142.811C182.503 142.877 182.685 142.905 182.866 142.893C183.025 142.896 183.104 142.897 183.263 142.901C183.261 143.028 183.26 143.091 183.258 143.218C181.315 143.18 180.344 143.162 178.401 143.129C178.402 143.002 178.403 142.938 178.405 142.811L178.811 142.818C179.006 142.841 179.203 142.814 179.385 142.739C179.566 142.664 179.725 142.544 179.848 142.39C180.016 141.997 180.086 141.568 180.052 141.141C180.104 137.585 180.131 135.808 180.19 132.252C179.636 132.241 179.36 132.236 178.806 132.225C178.421 132.199 178.034 132.233 177.659 132.324C177.345 132.44 177.077 132.655 176.895 132.937C176.658 133.311 176.523 133.741 176.503 134.184L176.181 134.178C176.251 133.087 176.286 132.542 176.357 131.451C180.115 131.518 181.994 131.556 185.753 131.641Z" fill="#2435A1"/>
<path d="M189.933 132.374C189.895 134.21 189.876 135.129 189.841 136.965C190.85 136.989 191.355 137.001 192.364 137.026C192.821 137.089 193.286 136.995 193.683 136.76C194.03 136.388 194.217 135.895 194.204 135.386L194.518 135.395C194.482 137.01 194.465 137.818 194.432 139.434L194.119 139.426C194.093 139.054 194.022 138.686 193.905 138.332C193.799 138.122 193.627 137.952 193.415 137.849C193.079 137.707 192.716 137.64 192.352 137.651C191.342 137.626 190.838 137.614 189.828 137.59C189.799 139.121 189.785 139.887 189.756 141.419C189.732 141.733 189.749 142.048 189.807 142.358C189.851 142.472 189.933 142.568 190.039 142.629C190.241 142.716 190.46 142.754 190.679 142.742C191.457 142.76 191.845 142.769 192.623 142.788C193.096 142.818 193.572 142.784 194.037 142.686C194.36 142.585 194.653 142.407 194.892 142.167C195.337 141.701 195.71 141.171 195.999 140.595L196.337 140.604C195.917 141.757 195.708 142.333 195.289 143.487C191.758 143.398 189.992 143.357 186.46 143.283C186.463 143.156 186.464 143.093 186.466 142.966L186.871 142.975C187.139 142.978 187.405 142.917 187.644 142.794C187.816 142.714 187.951 142.569 188.018 142.391C188.109 142.025 188.148 141.647 188.135 141.27C188.188 138.251 188.217 136.742 188.276 133.723C188.34 133.258 188.273 132.784 188.082 132.355C187.949 132.226 187.79 132.126 187.616 132.063C187.441 131.999 187.255 131.974 187.07 131.988C186.908 131.985 186.826 131.983 186.663 131.979C186.666 131.852 186.667 131.789 186.67 131.662C190.217 131.744 191.991 131.789 195.539 131.887C195.566 132.905 195.58 133.414 195.608 134.431C195.476 134.428 195.409 134.426 195.277 134.422C195.225 133.982 195.101 133.554 194.911 133.154C194.764 132.912 194.544 132.723 194.282 132.615C193.896 132.496 193.493 132.442 193.089 132.455C191.826 132.421 191.195 132.405 189.933 132.374Z" fill="#2435A1"/>
<path d="M207.402 131.985C207.463 133.561 207.493 134.349 207.556 135.925L207.293 135.916C207.089 134.928 206.59 134.024 205.862 133.326C205.21 132.781 204.39 132.48 203.541 132.474C202.81 132.442 202.086 132.623 201.456 132.995C200.776 133.429 200.251 134.067 199.955 134.818C199.548 135.826 199.343 136.904 199.35 137.99C199.307 138.924 199.456 139.857 199.787 140.731C200.073 141.472 200.584 142.106 201.248 142.541C201.927 142.976 202.714 143.212 203.52 143.221C204.206 143.256 204.888 143.109 205.5 142.797C206.263 142.319 206.919 141.686 207.424 140.94C207.528 141.011 207.579 141.047 207.682 141.118C207.19 142.015 206.479 142.772 205.615 143.317C204.778 143.786 203.826 144.007 202.869 143.955C202.012 143.968 201.165 143.769 200.404 143.375C199.643 142.981 198.99 142.404 198.505 141.696C197.743 140.59 197.362 139.264 197.42 137.92C197.433 136.81 197.723 135.721 198.264 134.752C198.769 133.83 199.525 133.071 200.443 132.563C201.353 132.059 202.383 131.814 203.421 131.855C204.28 131.889 205.118 132.127 205.866 132.549C206.018 132.651 206.19 132.72 206.37 132.753C206.444 132.757 206.517 132.745 206.587 132.72C206.656 132.694 206.719 132.655 206.773 132.604C206.94 132.43 207.055 132.212 207.105 131.975L207.402 131.985Z" fill="#2435A1"/>
<path d="M218.58 132.656C218.595 133.739 218.603 134.28 218.619 135.363L218.296 135.351C218.278 134.998 218.203 134.65 218.075 134.321C217.93 134.008 217.694 133.745 217.398 133.568C217.046 133.384 216.654 133.288 216.256 133.29C215.608 133.266 215.284 133.254 214.636 133.23C214.526 136.756 214.474 138.52 214.376 142.047C214.31 142.501 214.377 142.965 214.568 143.382C214.694 143.514 214.846 143.617 215.015 143.684C215.184 143.752 215.366 143.782 215.547 143.773L215.944 143.787L215.936 144.102C213.993 144.035 213.021 144.003 211.078 143.94C211.081 143.814 211.083 143.751 211.086 143.625L211.492 143.638C211.686 143.664 211.883 143.64 212.066 143.568C212.248 143.497 212.409 143.38 212.534 143.229C212.707 142.841 212.783 142.416 212.754 141.992C212.849 138.463 212.9 136.699 213.007 133.17C212.454 133.15 212.177 133.14 211.624 133.121C211.239 133.089 210.852 133.115 210.476 133.2C210.16 133.31 209.889 133.519 209.702 133.796C209.461 134.163 209.32 134.588 209.294 135.028C209.165 135.023 209.101 135.021 208.972 135.017C209.056 133.934 209.099 133.393 209.185 132.311C212.943 132.44 214.822 132.509 218.58 132.656Z" fill="#2435A1"/>
<path d="M225.962 140.614C224.185 140.543 223.297 140.508 221.52 140.441C221.186 141.156 221.019 141.514 220.686 142.229C220.521 142.538 220.413 142.874 220.369 143.221C220.368 143.313 220.39 143.403 220.431 143.485C220.472 143.567 220.531 143.638 220.605 143.693C220.93 143.883 221.298 143.986 221.674 143.992C221.671 144.117 221.669 144.18 221.665 144.306C220.222 144.253 219.5 144.227 218.057 144.176L218.066 143.861C218.4 143.845 218.723 143.742 219.005 143.563C219.437 143.089 219.778 142.539 220.009 141.941C221.736 138.208 222.606 136.344 224.36 132.626L224.657 132.638C226.122 136.532 226.856 138.477 228.326 142.364C228.497 142.924 228.778 143.445 229.152 143.895C229.455 144.154 229.836 144.305 230.234 144.324C230.23 144.45 230.228 144.512 230.224 144.638C228.416 144.564 227.512 144.528 225.704 144.459C225.707 144.333 225.709 144.27 225.713 144.145C226.036 144.172 226.36 144.105 226.646 143.952C226.722 143.9 226.785 143.831 226.829 143.75C226.874 143.669 226.899 143.579 226.902 143.487C226.872 143.075 226.77 142.672 226.601 142.295C226.346 141.623 226.218 141.287 225.962 140.614ZM225.745 139.978C225.028 138.088 224.67 137.142 223.954 135.251C223.09 137.078 222.659 137.992 221.802 139.823C223.379 139.883 224.168 139.914 225.745 139.978Z" fill="#2435A1"/>
<path d="M239.353 133.569C239.359 134.644 239.362 135.181 239.37 136.257L239.047 136.241C239.032 135.89 238.96 135.544 238.834 135.217C238.691 134.903 238.458 134.64 238.164 134.462C237.812 134.276 237.421 134.177 237.024 134.175C236.376 134.144 236.051 134.129 235.403 134.099C235.264 137.599 235.198 139.35 235.074 142.852C235.004 143.302 235.068 143.764 235.256 144.179C235.381 144.311 235.533 144.415 235.702 144.484C235.87 144.552 236.051 144.584 236.232 144.577C236.391 144.584 236.471 144.587 236.63 144.594C236.625 144.719 236.623 144.781 236.619 144.906C234.676 144.822 233.704 144.781 231.761 144.701C231.765 144.576 231.767 144.513 231.771 144.388L232.177 144.405C232.37 144.433 232.568 144.411 232.751 144.341C232.934 144.272 233.096 144.157 233.222 144.008C233.399 143.624 233.477 143.203 233.451 142.782C233.573 139.278 233.638 137.526 233.775 134.023C233.222 133.998 232.945 133.985 232.392 133.96C232.007 133.924 231.62 133.947 231.242 134.027C230.927 134.133 230.654 134.337 230.464 134.611C230.219 134.973 230.075 135.394 230.045 135.831L229.723 135.817C229.817 134.742 229.864 134.205 229.959 133.131C233.717 133.298 235.595 133.385 239.353 133.569Z" fill="#2435A1"/>
<path d="M166.595 152.288C186.575 152.577 206.549 153.049 226.517 153.701" stroke="#2435A1" stroke-width="3.69351" stroke-miterlimit="10"/>
<path d="M183.855 164.163C192.198 164.313 200.541 164.489 208.882 164.691" stroke="#2435A1" stroke-width="3.69351" stroke-miterlimit="10"/>
<g style="mix-blend-mode:multiply">
<path d="M143.254 46.0119C142.323 45.9917 141.396 46.1563 140.528 46.4963C139.66 46.8362 138.867 47.3447 138.196 47.9926C137.524 48.6405 136.987 49.415 136.616 50.2716C136.244 51.1281 136.045 52.0499 136.03 52.9838C136.235 99.2402 136.364 145.497 136.417 191.753C140.75 191.745 142.916 191.744 147.249 191.75C149.064 191.727 150.796 190.982 152.063 189.68C153.33 188.378 154.029 186.625 154.006 184.806C154.094 138.564 154.394 92.3227 154.905 46.0831C150.245 46.0325 147.915 46.0183 143.254 46.0119Z" fill="#C4C4DA"/>
</g>
<path d="M256.475 55.0614C256.887 55.085 257.289 55.1901 257.66 55.3705C258.03 55.5509 258.361 55.803 258.634 56.1124C258.906 56.4218 259.115 56.7823 259.248 57.173C259.381 57.5637 259.435 57.9769 259.408 58.3888C254.389 110.696 252.098 163.132 251.963 215.675C251.965 216.074 251.887 216.469 251.735 216.837C251.582 217.205 251.358 217.539 251.074 217.819C250.791 218.099 250.455 218.319 250.086 218.467C249.716 218.615 249.321 218.687 248.923 218.68C213.676 218.139 178.426 217.802 143.175 217.669C142.36 217.656 141.583 217.319 141.015 216.733C140.447 216.146 140.134 215.358 140.145 214.541C140.111 160.685 140.062 106.829 140 52.9725C140.017 52.1258 140.368 51.3204 140.977 50.7334C141.587 50.1465 142.403 49.826 143.248 49.8425C181.07 50.0898 218.813 51.8294 256.475 55.0614L256.475 55.0614ZM256.845 51.3429C219.038 48.0822 181.175 46.3052 143.254 46.0119C142.322 45.9917 141.396 46.1563 140.528 46.4963C139.66 46.8362 138.867 47.3447 138.196 47.9926C137.524 48.6405 136.987 49.415 136.616 50.2716C136.244 51.1281 136.045 52.0499 136.03 52.9838C136.269 106.837 136.405 160.691 136.439 214.545C136.413 216.363 137.108 218.116 138.372 219.421C139.635 220.725 141.364 221.473 143.178 221.5C178.431 221.595 213.683 221.904 248.932 222.43C249.816 222.446 250.694 222.285 251.515 221.957C252.336 221.628 253.084 221.138 253.713 220.515C254.342 219.893 254.841 219.15 255.18 218.332C255.518 217.513 255.69 216.635 255.685 215.749C255.819 163.295 258.179 110.955 263.357 58.7518C263.737 55.0335 260.833 51.7066 256.846 51.343L256.845 51.3429Z" fill="#FFC652"/>
<path d="M143.873 188.383C108.555 188.495 73.2443 189.036 37.9411 190.006C37.0552 190.033 36.1727 189.884 35.345 189.566C34.5173 189.248 33.761 188.769 33.1201 188.155C32.4793 187.541 31.9667 186.806 31.6122 185.992C31.2578 185.178 31.0686 184.301 31.0556 183.413C29.9194 130.868 26.5328 78.4823 20.3368 26.2875C19.8836 22.5652 22.8267 19.1877 26.9349 18.7705C65.9175 15.024 104.973 13.0662 144.101 12.897C148.237 12.9067 151.556 16.0557 151.517 19.899C150.989 73.7424 150.693 127.587 150.631 181.433C150.654 183.252 149.955 185.007 148.688 186.31C147.421 187.613 145.689 188.359 143.873 188.383Z" fill="#0E2663"/>
<path d="M140.665 185.63C105.33 185.778 70.0028 186.37 34.6844 187.408C33.799 187.438 32.9165 187.291 32.0882 186.976C31.26 186.661 30.5027 186.183 29.8604 185.572C29.218 184.961 28.7035 184.227 28.3468 183.414C27.9901 182.602 27.7983 181.726 27.7827 180.838C26.6357 128.403 22.8682 76.0571 16.4944 23.9991C16.0212 20.2846 18.9549 16.8987 23.0725 16.4636C62.1489 12.5479 101.305 10.4401 140.542 10.1404C144.689 10.1368 148.03 13.2757 148.004 17.1196C147.654 70.97 147.46 124.821 147.423 178.673C147.446 180.493 146.748 182.248 145.481 183.552C144.214 184.857 142.482 185.604 140.665 185.63Z" fill="#2435A1"/>
<path d="M140.543 10.1404C139.725 10.1411 139.317 10.1418 138.499 10.144C146.172 54.9953 151.721 109.59 129.419 151.253C112.128 183.553 56.6883 187.546 27.5605 171.561C27.6599 175.271 27.7045 177.126 27.7835 180.838C27.7991 181.726 27.9909 182.602 28.3476 183.414C28.7043 184.227 29.2188 184.961 29.8611 185.572C30.5035 186.183 31.2608 186.661 32.089 186.976C32.9172 187.291 33.7997 187.438 34.6851 187.408C70.0067 186.407 105.334 185.814 140.666 185.63C142.483 185.604 144.214 184.857 145.481 183.552C146.748 182.248 147.447 180.493 147.424 178.673C147.47 124.821 147.664 70.97 148.005 17.1195C148.031 13.2757 144.69 10.1368 140.543 10.1404Z" fill="#182E89"/>
<path d="M97.11 11.0352C72.3748 12.1682 47.6956 13.9775 23.0724 16.4631C18.9549 16.8982 16.0212 20.284 16.4944 23.9985C19.6943 49.78 22.2475 75.6195 24.1541 101.517C23.6497 79.4933 21.7504 51.3616 36.9742 33.4315C51.1476 16.7385 76.2376 11.4339 97.11 11.0352Z" fill="#3847A9"/>
<path d="M60.4473 40.8293C75.6808 39.8799 90.9218 39.1426 106.17 38.6174" stroke="#FFC652" stroke-width="3.41827" stroke-miterlimit="10"/>
<path d="M56.9897 143.605C77.0303 142.884 97.0741 142.36 117.121 142.035" stroke="#FFC652" stroke-width="3.41827" stroke-miterlimit="10"/>
<path d="M74.7329 154.538C83.099 154.321 91.4652 154.123 99.8317 153.943" stroke="#FFC652" stroke-width="3.41827" stroke-miterlimit="10"/>
<path fill-rule="evenodd" clip-rule="evenodd" d="M87.7117 59.4473C87.2153 59.484 86.7161 59.4425 86.2324 59.3244C86.2239 59.3368 87.1847 59.9743 87.1911 59.9943C86.4484 60.3541 85.6811 60.6603 84.8949 60.9106C84.8855 60.9326 85.9344 61.252 85.9344 61.252C86.0087 61.3686 84.5096 65.4965 84.5096 65.4965C84.5034 65.4967 82.7252 61.3927 82.7252 61.3927C82.7409 61.3623 83.7133 60.9625 83.7133 60.9625C83.6801 60.9 81.3536 60.2736 81.3582 60.2515C81.6413 59.9843 81.9394 59.7336 82.2512 59.5005C82.2403 59.4875 80.7892 59.7535 80.7892 59.7535C80.7884 59.7453 82.4467 58.5661 82.4467 58.5661C82.4337 58.5603 80.219 58.9167 80.219 58.9167C80.2181 58.9104 82.8734 57.4198 83.3286 57.2141C83.8583 57.0812 84.41 57.0618 84.9477 57.157C85.4135 57.3227 88.1868 58.5629 88.1868 58.5629C88.1866 58.5665 85.9511 58.4103 85.9511 58.4103C86.463 58.8704 87.0616 59.223 87.7118 59.4474L87.7117 59.4473ZM88.962 86.3936C89.1289 86.6813 88.9165 87.4218 88.7597 87.3278C88.5068 87.1762 88.1276 86.1899 87.696 85.6832C87.3417 85.2674 86.5623 84.3519 86.5623 84.3519C87.4308 84.9472 88.235 85.6316 88.962 86.3939V86.3936ZM86.7707 90.04C86.774 88.9364 86.6073 87.8389 86.2763 86.7863C86.0634 86.1002 85.6071 83.6173 85.6071 83.6173C85.9036 84.7365 86.2701 85.8359 86.7046 86.9089C87.0947 87.6959 87.692 89.5275 86.7707 90.04H86.7707ZM84.4577 86.856C84.297 87.9423 84.2127 89.0385 84.2053 90.1366C83.9041 89.1225 83.8474 88.0514 84.0396 87.0111C84.4086 85.9131 84.6909 84.7878 84.8839 83.6456C84.7985 84.7225 84.6562 85.7942 84.4577 86.8561V86.856ZM82.9744 85.8653C82.5735 86.4524 82.2434 87.4285 82.0219 87.5853C81.8596 87.7001 81.6037 86.9651 81.7502 86.6709C82.4169 85.8554 83.1668 85.1117 83.9875 84.4521C83.9895 84.4535 83.3182 85.4198 82.9744 85.8653ZM89.9563 87.9184C90.2548 88.3866 89.4211 88.8517 89.327 88.759C89.2787 88.605 89.2571 88.4439 89.2632 88.2826C89.2969 88.2314 89.8074 88.1554 89.9563 87.9184ZM81.5783 89.0525C81.0305 89.0746 80.8621 88.2652 80.8883 88.2635C81.1256 88.3476 81.3553 88.4517 81.575 88.5747C81.6156 88.6199 81.571 88.8677 81.5783 89.0525ZM77.6517 78.4921C77.6772 78.6088 77.7196 78.7211 77.7774 78.8255C77.7334 78.9527 76.5554 79.3628 76.2643 79.9114C75.8627 80.6682 76.379 81.599 76.2642 81.9755C76.1892 82.2215 75.4268 82.2759 75.4268 82.2759C76.0232 82.3959 76.6267 82.4764 77.2336 82.517C77.1976 82.9124 77.1416 83.3058 77.0656 83.6956C77.076 83.7243 77.9457 83.2243 77.9578 83.2247C77.9732 83.2252 78.0248 83.5395 78.0348 83.5445C78.0788 83.5668 78.4599 83.1868 78.4599 83.1868C78.474 83.1895 78.5791 83.6399 78.5003 83.7554C78.3147 83.9105 78.1084 84.0389 77.8874 84.1367C77.3303 84.4394 76.7384 84.6727 76.1248 84.8312C75.8687 84.8773 75.6046 84.8407 75.3705 84.7268C75.1364 84.6129 74.9444 84.4276 74.8221 84.1975C74.6342 83.6986 74.0325 83.8493 73.8629 83.8726C73.8186 83.8786 73.5123 83.781 73.4253 83.9392C73.3255 83.8284 73.2355 83.709 73.1564 83.5824C73.0928 83.3485 73.0083 83.1208 72.9038 82.9021C72.762 82.7154 72.5171 82.4124 72.3993 82.2334C72.3311 82.13 72.4793 81.9723 72.481 81.9681C72.4883 81.9508 72.2563 81.8574 72.2549 81.8558C72.2247 81.8195 72.1997 81.3659 71.8965 81.2883C70.883 79.4793 70.374 78.5759 69.3511 76.7712C69.3444 76.7708 69.3364 76.77 69.3298 76.7701L69.2238 76.56L69.218 76.5359C69.1015 76.3303 69.0432 76.2276 68.9265 76.0222C68.9606 75.9823 68.9846 75.9346 68.9962 75.8833C69.0078 75.832 69.0068 75.7786 68.9932 75.7278C68.9796 75.677 68.9538 75.6303 68.9182 75.5917C68.8825 75.5531 68.838 75.5238 68.7884 75.5063L68.786 75.4603C68.7914 75.4246 68.7947 75.3885 68.796 75.3524C68.872 75.3251 68.9506 75.3054 69.0306 75.2938C69.7588 74.8857 70.4352 74.3911 71.0451 73.8206C71.0464 73.8221 69.7938 74.8845 69.3499 75.3387C68.9388 75.7592 69.1322 76.1769 69.2183 76.5359C69.2716 76.6301 69.2981 76.6773 69.3514 76.7716C69.748 76.788 70.3819 76.9755 70.7615 76.605C70.8812 76.4882 72.9621 73.786 72.9621 73.786C72.9657 73.7888 71.6906 75.5768 71.1972 76.4603C70.8325 77.1132 71.4814 77.8715 71.539 77.9048C71.6423 77.9645 72.5845 77.9707 72.8756 77.4389C73.1606 76.9183 74.349 74.5803 74.349 74.5803C74.3531 74.5823 73.3296 77.0318 73.2756 77.2193C73.0733 77.9219 73.8399 78.4438 73.937 78.4651C74.0495 78.4898 74.9728 78.3477 75.1803 77.6975C75.3217 77.2546 75.8237 75.2643 75.8237 75.2643C75.8322 75.2664 75.7164 76.3321 75.654 77.0129C75.5913 77.694 76.4631 78.0126 76.602 78.0165C76.7394 78.0203 77.5175 77.7661 77.5896 77.1546C77.6529 76.6173 77.6138 75.2886 77.6138 75.2886C77.6888 75.3556 77.7711 75.4139 77.8592 75.4623C77.9539 75.4531 78.5799 74.9107 78.6862 74.8544C78.709 74.8424 78.8042 74.91 78.8493 74.9549C79.3986 75.5021 78.8275 77.9615 78.8275 77.9615C78.8314 77.972 79.4542 77.8411 79.4542 77.8411C79.4854 77.8752 78.4686 78.7473 77.6512 78.4915L77.6518 78.492L77.6517 78.4921ZM104.51 66.629C103.814 66.4334 103.092 66.3496 102.37 66.3808C102.368 66.3718 104.691 64.3201 104.533 64.1051C104.375 63.8902 102.542 64.2088 102.542 64.2088C102.536 64.1942 104.314 61.9978 103.997 61.6432C103.812 61.4349 101.809 62.1722 101.809 62.1722C101.808 62.1703 103.336 58.3774 102.936 58.2997C102.753 58.2643 100.062 61.0195 100.062 61.0195C100.745 60.0734 101.355 59.0765 101.886 58.0376C102.207 57.1223 101.31 54.9367 101.018 55.0626C100.659 55.2175 98.0556 60.7081 97.7019 60.7413C97.6592 60.7453 97.3814 60.4611 97.3409 60.4905C97.0952 60.669 95.8934 62.8961 95.7476 62.8653C95.731 62.8618 95.5223 62.4406 95.5087 62.4407C95.2971 62.4411 93.0046 65.0175 92.4314 65.9064C92.319 66.0411 92.236 66.198 92.1879 66.367C92.1399 66.5359 92.1277 66.713 92.1523 66.8869C92.1769 67.0608 92.2376 67.2276 92.3306 67.3765C92.4235 67.5254 92.5467 67.6531 92.692 67.7513C92.9667 67.9887 93.4827 68.4462 93.0747 69.082C92.4166 70.1073 90.3329 69.3115 90.3485 69.2754C90.5976 68.6202 90.7949 67.9463 90.9386 67.26C90.8376 67.2768 90.1213 67.9668 89.5581 67.7609C89.2607 67.6372 88.9771 67.4826 88.7119 67.2998C88.7225 67.2778 90.1016 66.2259 90.1016 66.2259C90.0003 66.1869 88.7884 66.2928 88.6491 66.1592C88.4306 65.9258 88.2755 65.6402 88.1985 65.3296C88.1215 65.019 88.1253 64.6939 88.2094 64.3852C88.3123 63.6921 89.2871 62.1639 89.4913 62.1714C89.5321 62.1729 89.7101 62.3788 89.9296 62.3394C90.0638 62.3154 90.2934 62.1631 90.4632 62.1022C90.6756 62.0311 90.9 62.0038 91.1231 62.0218C91.3462 62.0397 91.5634 62.1027 91.7617 62.2068C91.9275 62.3034 92.0644 62.4429 92.158 62.6106C92.2517 62.7784 92.2988 62.9682 92.2942 63.1604C92.1229 62.6446 91.9163 62.1412 91.6761 61.6537C91.6766 61.6479 93.1156 62.2773 93.2702 62.3667C93.4856 62.475 93.7229 62.5323 93.9639 62.5343C94.2049 62.5362 94.4432 62.4828 94.6603 62.378C94.865 62.2395 95.0282 62.0479 95.1326 61.8235C95.2369 61.5992 95.2783 61.3507 95.2525 61.1045C95.2116 61.1215 94.9824 61.6431 94.6028 61.6998C94.0486 61.7314 93.4953 61.6241 92.9929 61.3876C92.5285 61.2776 92.0546 61.2127 91.5778 61.1937C91.5716 61.1726 93.8173 61.3456 93.9832 61.3665C94.0739 61.3779 94.3762 60.9695 94.4328 60.5617C94.585 59.4645 92.8784 59.0851 92.7375 58.9394C92.6891 58.8892 92.3119 58.6603 92.2929 58.6472C92.253 58.5682 92.2178 58.4871 92.1875 58.404C92.2134 58.3959 92.2398 58.3898 92.2665 58.3855C93.131 58.357 93.958 58.0251 94.603 57.4478C95.434 56.5384 94.1988 54.654 94.475 54.5456C95.0016 54.6056 95.5109 54.7711 95.9724 55.0324C96.0559 55.2007 96.1113 55.3816 96.1364 55.5679C96.3244 56.51 95.3738 56.7616 95.674 57.7959C95.8059 58.2502 96.1781 58.412 96.3268 58.9792L96.05 59.7311C96.0727 59.7876 97.2926 59.0138 97.0108 58.3985C96.8929 58.1412 96.5818 57.6092 96.5818 57.6092C97.0253 57.8674 97.5442 57.9643 98.0507 57.8834C98.3512 57.7805 98.2169 58.5119 98.2169 58.5119C98.4437 58.2505 98.623 57.9513 98.7468 57.6279C98.7463 57.5398 98.7256 57.4531 98.6861 57.3744C98.6467 57.2957 98.5897 57.2271 98.5196 57.1741C98.4494 57.1211 98.368 57.085 98.2817 57.0687C98.1953 57.0523 98.1064 57.0562 98.0218 57.0799C97.8484 57.1156 97.4524 57.361 97.4095 57.0081C97.3355 56.4008 98.3657 56.3278 98.1041 55.3447C97.9719 54.8476 97.0295 54.7632 96.4345 54.5057C96.2545 54.3779 96.0964 54.2217 95.9665 54.0431C95.4186 53.2834 94.8806 53.0718 94.584 53.2431C94.2333 53.4457 94.0341 53.6034 93.736 53.7696C93.4984 53.8594 93.28 53.9936 93.0925 54.1651C92.7095 54.6521 93.1222 55.3964 93.3519 55.8403C93.6186 56.2251 93.7498 56.688 93.7247 57.1559C93.583 57.6969 92.6128 58.1534 92.0994 58.2222C92.0703 58.2261 92.0359 58.2402 92.004 58.2414L91.9953 58.0253C92.1444 57.7261 92.2714 57.4164 92.3751 57.0986C92.7168 56.0977 91.9656 55.8157 91.2847 55.5647C91.1748 55.5095 91.0481 55.498 90.9301 55.5324L90.914 55.533L90.9047 55.7034L90.7917 55.677L90.7993 55.4758L90.7509 55.4777C90.794 55.4413 90.8283 55.3955 90.8512 55.3437C90.874 55.292 90.8848 55.2358 90.8827 55.1792C90.8789 55.0783 90.8408 54.9817 90.7748 54.9054L90.8876 54.9009L90.8372 54.8564C90.7916 54.8024 90.7411 54.7528 90.6865 54.708C90.6624 54.6822 90.6445 54.6512 90.6342 54.6175C90.6684 54.6348 90.7016 54.6541 90.7337 54.6752C90.7941 54.7062 90.8457 54.752 90.8837 54.8084L90.9496 54.852C90.9343 54.4879 90.9266 54.3059 90.9113 53.9418L90.8499 54.0061C90.7986 54.0377 90.7516 54.0759 90.7102 54.1198C90.6836 54.1479 90.6515 54.1703 90.6159 54.1854C90.6264 54.152 90.6414 54.1203 90.6604 54.091C90.6974 54.042 90.7842 53.9778 90.7989 53.9463L90.8447 53.8826C90.4654 53.8978 90.2758 53.9055 89.8965 53.9209L89.9472 53.9807C90.0047 54.0159 90.0558 54.0609 90.0979 54.1137C90.1191 54.1439 90.1658 54.2035 90.1658 54.2035C90.1304 54.1889 90.0971 54.1695 90.0668 54.1458C90.015 54.0985 89.9528 54.064 89.8854 54.045L89.8347 53.9853C89.8504 54.3493 89.8582 54.5313 89.8738 54.8953L89.9198 54.8472C89.969 54.7901 90.0266 54.7408 90.0906 54.7011C90.1204 54.6839 90.1843 54.6356 90.1843 54.6356C90.1847 54.6358 90.1374 54.7146 90.1243 54.7306C90.0779 54.7875 90.0326 54.8424 89.9861 54.8906L89.9402 54.939L90.0844 54.9331C90.0486 54.9696 90.0221 55.0144 90.0074 55.0634C89.9927 55.1125 89.9901 55.1644 90 55.2147C90.0018 55.2699 90.0152 55.324 90.0395 55.3736C90.0637 55.4232 90.0982 55.467 90.1406 55.5022L90.1247 55.5029L90.1491 55.7028L90.0223 55.7388L89.9991 55.5698L89.9831 55.5704C89.8628 55.545 89.7373 55.5667 89.6324 55.631C88.9683 55.9456 88.2227 56.3178 88.6576 57.2466C88.7903 57.5564 88.9482 57.8548 89.1295 58.1388L89.1354 58.2777C88.0693 57.9685 87.0858 57.4239 86.2573 56.6838C86.2211 56.6324 86.1726 56.5794 86.1547 56.5493C86.1505 56.3148 86.1483 56.1975 86.144 55.963C86.4213 55.4378 86.6546 54.8905 86.8414 54.3266C87.3215 52.9015 86.238 52.5015 85.2104 52.1592C85.0531 52.0875 84.8757 52.0737 84.7092 52.1201L84.671 52.3379C84.5615 52.3366 84.5067 52.336 84.3971 52.3348L84.3991 52.0416C84.3519 52.0542 84.3035 52.0616 84.2547 52.0635C84.2532 52.0582 84.5456 51.7416 84.5352 51.5259C84.5305 51.4412 84.5058 51.3588 84.463 51.2855C84.4201 51.2123 84.3605 51.1504 84.289 51.1049L84.5143 51.0947C84.3642 50.9483 84.227 50.7892 84.1042 50.6192C84.2933 50.716 84.472 50.832 84.6376 50.9653C84.6152 50.5032 84.604 50.2722 84.5815 49.8101C84.4732 49.9077 84.0843 50.1753 84.0823 50.1727C84.1832 49.9982 84.3054 49.837 84.4461 49.6929C83.9626 49.715 83.7209 49.7262 83.2375 49.7488C83.3722 49.8894 83.4983 50.0382 83.6149 50.1943C83.4345 50.1035 83.2618 49.9979 83.0986 49.8788C83.1217 50.3407 83.1332 50.5717 83.1562 51.0337C83.2795 50.9199 83.6363 50.6404 83.6369 50.6409C83.543 50.8206 83.4325 50.9911 83.3071 51.1502L83.5161 51.1405C83.4515 51.1933 83.4007 51.261 83.368 51.3378C83.3353 51.4146 83.3217 51.4982 83.3284 51.5814C83.3398 51.8125 83.6596 52.0909 83.6596 52.0909C83.6056 52.094 83.5514 52.0913 83.498 52.083C83.5102 52.1997 83.5162 52.258 83.5284 52.3747C83.4193 52.3859 83.3648 52.3915 83.2557 52.4028L83.2291 52.1878C83.1423 52.1677 83.0525 52.1649 82.9646 52.1796C82.8768 52.1943 82.7927 52.2262 82.7172 52.2735C81.7658 52.7018 80.7562 53.2241 81.3183 54.5768C81.5395 55.1298 81.8246 55.655 82.1677 56.1416C82.1797 56.388 82.1857 56.5112 82.1978 56.7576C82.1666 56.7745 82.1453 56.8218 82.1069 56.8698C81.3211 57.6447 80.4002 58.2685 79.3898 58.7105L79.3828 58.5719C79.5404 58.2752 79.6697 57.9643 79.7689 57.6433C80.0992 56.6422 79.3295 56.3687 78.647 56.125C78.5365 56.0711 78.4097 56.0608 78.292 56.0962L78.2759 56.097L78.2687 56.2671L78.1551 56.2418C78.1574 56.1615 78.1585 56.1214 78.1608 56.0411L78.1447 56.042C78.2097 55.9567 78.2438 55.8518 78.2414 55.7445C78.2426 55.6939 78.2334 55.6437 78.2144 55.5968C78.1953 55.55 78.1669 55.5076 78.1308 55.4723L78.2751 55.4651C78.173 55.3788 78.0767 55.2857 77.987 55.1865C78.0989 55.2548 78.2052 55.332 78.3048 55.4174C78.2858 55.0544 78.2762 54.8729 78.2571 54.51C78.1655 54.5989 78.0676 54.6811 77.9642 54.7559C78.0435 54.6486 78.1295 54.5465 78.2217 54.4501C77.8428 54.469 77.6533 54.4785 77.2744 54.4977C77.3672 54.5865 77.5308 54.7776 77.5308 54.7776C77.4173 54.718 77.3108 54.6458 77.2134 54.5624C77.2329 54.9252 77.2426 55.1067 77.262 55.4695C77.3535 55.3762 77.4509 55.2889 77.5537 55.2082C77.4903 55.3177 77.4148 55.4197 77.3287 55.5124L77.457 55.5059C77.3987 55.5879 77.37 55.6872 77.3755 55.7876C77.3773 55.8445 77.3928 55.9 77.4206 55.9495C77.4484 55.9991 77.4878 56.0412 77.5353 56.0723L77.4872 56.0747L77.5138 56.2737L77.3871 56.3109L77.362 56.1426L77.3461 56.1434C77.2255 56.1193 77.1002 56.1421 76.9958 56.2073C76.3354 56.5274 75.5938 56.9048 76.0383 57.8278C76.1741 58.1354 76.3347 58.4314 76.5186 58.7128L76.53 58.928C76.4976 58.9267 76.4653 58.9232 76.4333 58.9176C75.9161 58.894 74.9137 58.5123 74.7154 58.0035C74.6441 57.5423 74.7316 57.0704 74.9636 56.6657C75.1568 56.2217 75.475 55.4002 75.0638 54.9808C74.8539 54.8288 74.6186 54.7159 74.3689 54.6474C74.0567 54.5094 73.8538 54.3725 73.4741 54.2021C73.165 54.0633 72.63 54.2808 72.1742 55.1194C72.0643 55.3098 71.9215 55.4792 71.7525 55.6196C71.1899 55.9256 70.2495 56.0996 70.1692 56.6C70.0111 57.5864 71.0419 57.5701 71.033 58.1841C71.0277 58.542 70.6109 58.3253 70.4302 58.3095C70.3432 58.292 70.2533 58.2948 70.1676 58.3179C70.0819 58.3409 70.0027 58.3836 69.9362 58.4424C69.8696 58.5012 69.8176 58.5747 69.7841 58.6571C69.7506 58.7394 69.7366 58.8284 69.7432 58.9171C69.7541 59.1009 70.3527 59.7453 70.3527 59.7453C70.3598 59.7368 70.1514 59.0331 70.4601 59.1085C70.9723 59.1569 71.4842 59.0138 71.8975 58.7069C71.9145 58.7123 71.6416 59.2652 71.5431 59.5267C71.3084 60.1492 72.6221 60.7626 72.6221 60.7626C72.631 60.7305 72.2776 60.0419 72.2776 60.0419C72.3585 59.483 72.7233 59.2902 72.8181 58.8117C73.025 57.7684 71.9813 57.6399 72.1496 56.6452C72.1616 56.459 72.1998 56.2755 72.263 56.1C72.702 55.8061 73.192 55.5969 73.7077 55.4834C74.0255 55.5782 72.9406 57.5437 73.8528 58.372C74.5488 58.8871 75.4023 59.1428 76.2663 59.0953C76.2935 59.0964 76.3205 59.1002 76.347 59.1065C76.3482 59.11 76.2707 59.3518 76.2639 59.3574C76.2246 59.3899 75.8921 59.6494 75.8646 59.6857C75.7116 59.888 74.0575 60.3702 74.3087 61.4446C74.381 61.7583 74.5738 62.0307 74.8453 62.2028C75.0515 62.1532 77.225 61.8219 77.225 61.8219C76.7476 61.8862 76.2767 61.9921 75.8176 62.1384C75.3434 62.4165 74.807 62.5709 74.2577 62.5872C73.8589 62.5639 73.5604 62.0595 73.5413 62.0542C73.535 62.3018 73.5976 62.5463 73.7221 62.7602C73.8466 62.9742 74.0281 63.1492 74.2462 63.2656C74.4693 63.3487 74.7083 63.3801 74.9452 63.3574C75.1821 63.3348 75.4109 63.2587 75.6142 63.1348C75.7602 63.0326 77.1374 62.2887 77.1374 62.2887C77.1387 62.2966 76.6572 63.8381 76.6572 63.8381C76.6358 63.6496 76.6641 63.4588 76.7393 63.2847C76.8145 63.1106 76.934 62.9593 77.0858 62.8459C77.2747 62.726 77.4855 62.6451 77.706 62.608C77.9265 62.5708 78.1522 62.5781 78.3699 62.6294C78.5449 62.6762 78.7914 62.8003 78.9231 62.8189C79.1328 62.8484 79.3149 62.6175 79.3444 62.6139C79.5697 62.5861 80.6319 64.0216 80.8192 64.704C80.9351 65.0026 80.9701 65.3265 80.9206 65.643C80.8712 65.9595 80.7391 66.2572 80.5377 66.506C80.0678 66.6326 79.5833 66.6965 79.0967 66.696C79.5659 67.0482 80.0602 67.3655 80.5755 67.6456C80.3287 67.8522 80.0593 68.0301 79.7724 68.1758C79.2289 68.428 78.4077 67.7991 78.3533 67.7947C78.1693 67.7799 79.0915 69.705 79.1151 69.748C79.1905 69.8852 77.1457 70.7454 76.398 69.7835C75.925 69.175 76.4078 68.687 76.6496 68.4309C76.7845 68.3202 76.8949 68.1826 76.9738 68.0267C77.0526 67.8709 77.0981 67.7002 77.1074 67.5258C77.1167 67.3513 77.0895 67.1768 77.0277 67.0134C76.9658 66.85 76.8707 66.7014 76.7482 66.577C75.6964 65.444 74.5693 64.3834 73.3748 63.4027C73.3004 63.5438 73.2389 63.6913 73.1908 63.8435C73.051 63.9045 71.5742 61.7314 71.3738 61.6295C71.3344 61.6094 71.0737 61.911 71.0373 61.9093C70.5387 61.8864 67.5124 56.681 67.2098 56.5833C66.848 56.4664 66.2295 58.7369 66.6233 59.6011C67.2424 60.5863 67.9408 61.5191 68.7117 62.3902C67.7174 61.5249 66.6795 60.7113 65.6021 59.9525C65.1595 60.085 67.0758 63.6816 67.0758 63.6816C67.0756 63.682 64.9981 63.1524 64.849 63.3479C64.5473 63.7433 66.5268 65.758 66.5268 65.758C66.5226 65.77 64.6562 65.6269 64.5353 65.8254C64.38 66.0809 66.8581 67.8921 66.8581 67.8921C66.8574 67.8972 64.8789 68.0836 64.7795 68.3164C64.6268 68.6742 67.1832 69.9654 67.1832 69.9654C67.1835 69.9722 65.321 70.7793 65.3324 70.9747C65.3475 71.232 67.4783 71.8252 67.4783 71.8252C67.4789 71.828 66.8275 72.3125 66.7905 72.3083C66.7836 72.3075 66.7098 72.257 66.6773 72.2685C66.6389 72.2822 66.6192 72.3638 66.6375 72.4088L66.6392 72.4394C66.571 72.5051 66.5209 72.5873 66.4938 72.6781C66.4481 72.8044 66.2622 73.0455 66.2797 73.1046C66.2826 73.1143 66.3417 73.1368 66.3455 73.147C66.3756 73.2262 66.4014 73.3069 66.4226 73.3889C66.4227 73.4096 66.3503 73.5157 66.3379 73.578C66.099 73.5049 65.9795 73.4684 65.7406 73.3954C65.725 73.6095 65.7539 73.8246 65.8252 74.027C65.8966 74.2294 66.009 74.4149 66.1553 74.5717C66.3727 74.7747 66.609 74.7471 66.5499 74.827C66.8109 74.9604 66.9414 75.0272 67.2022 75.1608C67.253 75.2467 67.335 75.3094 67.4311 75.3358C67.5271 75.3622 67.6297 75.3502 67.7171 75.3024L67.7196 75.3484C67.7329 75.594 68.1088 75.7931 68.1422 75.8493C68.1614 75.9406 68.2042 76.0252 68.2663 76.0947C68.3283 76.1643 68.4075 76.2163 68.4959 76.2456C69.5614 78.4228 70.091 79.5127 71.1443 81.695C71.0629 81.9605 71.3699 82.2432 71.3772 82.2681C71.3816 82.2835 71.2955 82.5339 71.2955 82.5339C71.3068 82.539 71.5251 82.4352 71.5989 82.6115C71.6487 82.7306 71.7263 83.2469 71.8123 83.4473C71.9312 83.6584 72.0618 83.8627 72.2035 84.0592C72.2928 84.2889 72.3518 84.5293 72.3791 84.7743C72.3434 84.9525 71.8594 85.3855 71.9225 85.7654C71.9679 86.0389 72.2824 86.1231 72.3192 86.1773C72.4095 86.3102 72.903 86.8083 72.9806 86.8853C73.1591 87.0764 73.3621 87.2429 73.5842 87.3807C73.7847 87.4599 73.9741 87.565 74.1475 87.6934C74.23 87.9495 74.3577 88.1888 74.5244 88.3999C74.6542 88.5137 74.7899 88.6206 74.9309 88.7201C75.067 88.8103 75.3359 88.9193 75.4699 88.85C75.5608 88.8029 75.5575 88.4196 75.5566 88.3226C75.556 88.259 75.5225 87.9445 75.5206 87.8623C75.4839 87.6463 75.4166 87.4367 75.3207 87.2398C75.2631 87.0878 75.2244 86.9292 75.2056 86.7677C75.2465 86.631 75.9255 86.2894 76.0596 86.1903C76.8256 85.5421 77.7516 85.1128 78.7404 84.9475C79.0789 84.9093 79.4192 84.8897 79.7599 84.8887C80.1756 84.9055 80.7662 85.0171 81.0902 84.7398C81.1356 84.7056 81.1714 84.6601 81.194 84.6079C81.2166 84.5556 81.2253 84.4984 81.2192 84.4417C81.1684 84.2015 80.8744 83.9643 80.7661 83.7515C80.736 83.6922 80.6452 83.4942 80.6452 83.4942C80.8922 83.4787 81.138 83.4479 81.3811 83.4018C81.6219 83.1439 81.8124 82.843 81.9427 82.5148C81.8853 82.4797 80.7699 82.9412 80.6342 82.1073C80.5155 81.3776 81.1603 80.7156 82.2086 80.946C82.9221 81.1028 84.0207 82.5433 83.1049 83.2229C82.6907 83.6547 82.3446 84.1472 82.0785 84.6835C82.1169 84.6944 83.299 84.1405 83.299 84.1405C83.3155 84.1963 81.9147 84.8197 81.1443 85.2925C80.4617 85.7114 79.9386 86.4265 79.4023 86.4758C78.9724 86.5154 79.1152 85.625 79.1152 85.625C79.102 85.58 78.146 85.9009 78.0138 86.3351C77.9827 86.5559 78.0009 86.7809 78.067 86.9939C78.133 87.2069 78.2454 87.4025 78.3959 87.5668C78.3962 87.6371 77.5306 88.4012 77.7553 89.1196C77.9197 89.5889 78.1221 90.044 78.3605 90.4803C78.6556 90.3489 78.8875 90.1067 79.0064 89.8058C79.0546 89.6047 79.1144 89.4067 79.1858 89.2126C79.211 89.2245 79.4565 90.3553 80.1052 90.6386C80.5506 90.8331 81.7159 90.318 81.753 90.3253C81.8541 90.3453 82.7568 91.4031 83.4995 91.3669C83.8186 91.2884 84.1292 91.1784 84.4267 91.0386C84.5439 91.0755 85.2745 92.1326 85.577 92.1214C85.884 92.11 86.5826 90.9861 86.6623 90.955C86.9703 91.0684 87.2875 91.1549 87.6104 91.2133C88.338 91.1948 89.2522 90.0495 89.2765 90.0425C89.3892 90.0097 90.513 90.4594 90.9427 90.2318C91.569 89.8998 91.7548 88.7368 91.7548 88.7368C91.8561 88.92 91.936 89.1144 91.993 89.3159C92.0742 89.6326 92.6713 89.9424 92.6713 89.9424C92.8993 89.4972 93.0684 89.0242 93.1746 88.5353C93.3289 87.7979 92.4358 87.0301 92.4358 87.0301C92.4317 86.9751 92.9436 86.3467 92.7087 85.7694C92.5362 85.3454 91.5565 85.1443 91.5565 85.1443C91.5432 85.2046 91.7731 86.0158 91.3344 86.017C90.7873 86.0185 90.2203 85.3343 89.5083 84.9688C88.7042 84.5561 87.2717 83.9859 87.2717 83.9859C87.2785 83.9539 88.5301 84.433 88.5301 84.433C88.254 83.8978 87.8668 83.428 87.3946 83.0551C86.4317 82.461 87.4149 80.9277 88.126 80.7116C89.1338 80.4053 89.8453 81.0123 89.7707 81.7474C89.6851 82.592 88.4841 82.2453 88.4665 82.2585C88.6109 82.5909 88.8384 82.8804 89.1271 83.0989C89.4467 83.1286 89.7688 83.1169 90.0855 83.0643C90.0808 83.1319 90.0725 83.1992 90.0608 83.2659C90.0556 83.961 89.6088 84.1379 89.7703 84.373C89.92 84.591 91.2281 84.5166 91.5683 84.5569C92.1525 84.6262 92.6867 84.821 93.2616 84.9166C93.9118 84.9599 94.5568 85.063 95.1882 85.2246C95.5508 85.3612 96.0236 85.7233 96.3529 85.8218C96.8097 85.9585 96.8329 86.1161 97.1778 86.1057C97.4914 86.0961 97.6157 85.8183 98.0142 85.7091C98.287 85.6343 98.6198 85.7205 98.891 85.6367C99.0822 85.5776 99.1877 85.3669 99.3668 85.2516C99.5807 85.1139 99.8977 85.0837 100.111 84.9054C100.219 84.8151 100.206 84.5671 100.228 84.5132C100.482 84.0599 100.785 83.6368 101.134 83.2518C101.176 83.215 101.334 83.1222 101.331 83.0145L101.33 82.9681C101.387 82.9271 101.433 82.8728 101.464 82.8099C101.495 82.747 101.51 82.6775 101.509 82.6073C101.505 82.5286 101.485 82.4514 101.451 82.3806C101.417 82.3098 101.368 82.2468 101.308 82.1954L101.307 82.1488C101.304 82.0562 101.232 81.989 101.207 81.9351C100.891 81.2646 100.229 80.2147 99.2609 79.9962L99.2595 79.9498L99.2438 79.9502C99.2425 79.9039 99.1963 79.8976 99.1788 79.8904C99.0419 79.7548 98.9304 79.5957 98.8495 79.4206C99.0432 79.5342 99.231 79.6576 99.4122 79.7903C99.3969 79.2772 99.3893 79.0205 99.3739 78.5074C99.2507 78.6039 98.8422 78.9174 98.8341 78.9105C98.9319 78.7085 99.0591 78.5222 99.2114 78.3576C98.6817 78.3736 98.4168 78.3817 97.887 78.3982C98.0429 78.5587 98.1807 78.736 98.2979 78.9269C98.1037 78.8139 97.9156 78.6906 97.7344 78.5576C97.7504 79.0706 97.7583 79.3271 97.7741 79.8401C97.8972 79.7434 98.3053 79.4299 98.3134 79.4367C98.2156 79.6387 98.0885 79.8251 97.9361 79.9897L97.9841 80.0036C96.9984 80.2507 96.3814 81.4553 96.0789 82.0736C96.0517 82.1293 95.9733 82.2005 95.9762 82.2932L95.9777 82.3393C95.9347 82.3933 95.9073 82.4579 95.8983 82.5264C95.8893 82.5948 95.8992 82.6643 95.9268 82.7276C95.9627 82.859 96.0314 82.9791 96.1266 83.0765L96.128 83.1229C96.1323 83.2617 96.2965 83.3151 96.3394 83.3482C96.3901 83.3873 96.4409 83.5924 96.5073 83.6983L96.5224 83.6825C96.4779 83.8258 96.399 83.9561 96.2927 84.0618C96.1864 84.1676 96.0559 84.2457 95.9125 84.2892C95.0488 84.3062 94.19 84.1557 93.3833 83.846C92.9649 83.7591 92.5808 83.5519 92.278 83.2498C92.1667 83.0597 92.1103 82.8423 92.1153 82.6219C92.1358 82.6171 92.5477 82.9574 92.5668 82.9462C92.5902 82.8387 92.6076 82.7299 92.6189 82.6203C92.6719 82.6145 93.5606 83.0213 93.5606 83.0213C93.566 83.002 93.286 81.8558 93.286 81.8558C93.3323 81.8467 95.0682 81.4722 95.0682 81.4722C95.0254 81.4367 94.3104 81.4806 94.2102 81.2377C94.0546 80.8605 94.4852 79.8801 94.0468 79.1722C93.7112 78.6304 92.4445 78.2269 92.4359 78.2074C92.4291 78.1921 92.5395 77.8678 92.5344 77.8637C92.4257 77.7773 90.6841 77.3584 90.6841 77.3584C90.6898 77.3515 91.3184 77.4279 91.3184 77.4279C91.3318 77.3805 90.5493 75.0182 91.0512 74.4251C91.0923 74.3765 91.1835 74.3021 91.205 74.3113C91.326 74.3633 92.0268 74.8545 92.095 74.851C92.1265 74.8494 92.2174 74.7382 92.3101 74.6578C92.3101 74.6578 92.3885 75.9953 92.4872 76.5213C92.5991 77.1182 93.4062 77.3148 93.5096 77.3048C93.6759 77.2888 94.5071 76.8996 94.3891 76.2236C94.2712 75.5474 94.0767 74.4872 94.0767 74.4872C94.0871 74.484 94.7377 76.4455 94.9167 76.8703C95.1822 77.5002 96.1395 77.5616 96.2181 77.5388C96.4408 77.4134 96.6162 77.218 96.7172 76.9827C96.8182 76.7475 96.8391 76.4856 96.7769 76.2372C96.7115 76.0712 95.4898 73.6817 95.4898 73.6817C95.4947 73.6787 96.8793 75.9407 97.1933 76.4249C97.5262 76.9381 98.4882 76.8332 98.5634 76.7841C98.7404 76.5863 98.8534 76.3394 98.8875 76.076C98.9216 75.8126 98.8753 75.545 98.7547 75.3085C98.2022 74.4884 96.8212 72.7718 96.8212 72.7718C96.8318 72.764 99.1031 75.2929 99.2484 75.4169C99.4801 75.5351 99.7349 75.6006 99.9948 75.6089C100.255 75.6172 100.513 75.5679 100.752 75.4647C100.861 75.2349 100.9 74.9779 100.865 74.7259C100.829 74.4739 100.72 74.2379 100.552 74.0475C100.079 73.6275 98.7353 72.6644 98.7353 72.6644C99.3871 73.1747 100.091 73.6148 100.835 73.9773C101.095 74.0533 101.37 74.065 101.636 74.0115C101.901 73.9579 102.15 73.8407 102.361 73.6699C102.457 73.429 100.515 71.7896 100.515 71.7896C100.515 71.7891 103.384 71.7985 103.441 71.5498C103.492 71.3235 102.122 70.3803 102.122 70.3803C102.124 70.3708 104.196 69.5948 104.188 69.3466C104.181 69.1147 102.225 68.4894 102.225 68.4894C102.225 68.4795 104.423 67.4982 104.51 66.6288L104.51 66.629Z" fill="#FFC652"/>
<path fill-rule="evenodd" clip-rule="evenodd" d="M85.2043 80.7622C85.1002 80.4034 84.8815 80.0888 84.5818 79.8666C84.2821 79.6443 83.9178 79.5268 83.545 79.5321C82.9209 79.5577 82.6088 79.5706 81.9847 79.5969C80.9601 79.64 80.448 79.107 80.3982 77.9676C80.2288 74.2412 80.1411 72.3781 79.9597 68.6523C81.8472 68.566 82.791 68.5244 84.6788 68.4446C86.5666 68.3648 87.5106 68.3265 89.3987 68.2532C89.5472 71.988 89.619 73.8556 89.7574 77.5908C89.7997 78.7331 89.3153 79.3067 88.2905 79.3453C87.6663 79.3688 87.3542 79.3808 86.73 79.405C86.3616 79.43 86.0119 79.5768 85.7358 79.8224C85.4597 80.0681 85.2727 80.3986 85.2043 80.7622V80.7622Z" fill="#2435A1"/>
<path d="M51.7421 130.768C49.9583 130.851 49.0664 130.893 47.2827 130.98C47.0006 131.718 46.8595 132.088 46.5772 132.826C46.4338 133.145 46.3498 133.487 46.3295 133.837C46.3357 133.927 46.3634 134.015 46.4103 134.093C46.4572 134.171 46.5218 134.237 46.599 134.285C46.9392 134.446 47.3152 134.517 47.6908 134.491C47.6959 134.616 47.6983 134.679 47.7034 134.804C46.2548 134.872 45.5306 134.907 44.0821 134.977C44.077 134.852 44.0743 134.79 44.0691 134.665C44.4022 134.62 44.7186 134.491 44.9881 134.29C45.3869 133.786 45.6889 133.212 45.8789 132.597C47.3404 128.749 48.0694 126.822 49.526 122.966L49.8242 122.951C51.6043 126.686 52.4861 128.557 54.2352 132.308C54.446 132.852 54.764 133.348 55.1701 133.765C55.493 133.999 55.8848 134.118 56.2829 134.103L56.2944 134.417C54.4795 134.495 53.572 134.535 51.7571 134.617L51.7451 134.304C52.0712 134.303 52.3905 134.209 52.6653 134.033C52.7378 133.975 52.7958 133.901 52.8345 133.817C52.8733 133.733 52.8918 133.641 52.8886 133.548C52.8298 133.141 52.6995 132.748 52.5037 132.386C52.1996 131.739 52.0472 131.415 51.7421 130.768ZM51.4787 130.153C50.6218 128.334 50.1916 127.426 49.3273 125.611C48.6048 127.504 48.2433 128.451 47.5197 130.342C49.1032 130.265 49.8951 130.227 51.4787 130.153Z" fill="#FFC652"/>
<path d="M64.6073 122.531C64.6991 123.61 64.7446 124.149 64.835 125.229L64.5113 125.242C64.4692 124.892 64.3702 124.551 64.2183 124.233C64.0514 123.931 63.7967 123.688 63.4883 123.536C63.1211 123.381 62.7217 123.318 62.3246 123.352C61.6736 123.38 61.3481 123.394 60.697 123.423C60.8349 126.942 60.9004 128.701 61.0248 132.221C60.9865 132.676 61.0823 133.134 61.3004 133.536C61.4353 133.658 61.5949 133.749 61.7682 133.804C61.9416 133.859 62.1247 133.875 62.3051 133.852L62.7038 133.836L62.7144 134.151C60.7638 134.229 59.7885 134.269 57.8379 134.351L57.8266 134.037L58.234 134.02C58.4308 134.031 58.6272 133.993 58.8052 133.908C58.9832 133.823 59.1372 133.695 59.253 133.535C59.4022 133.138 59.4512 132.71 59.3955 132.289C59.2687 128.771 59.202 127.013 59.0615 123.496C58.5057 123.521 58.2279 123.534 57.6722 123.559C57.2841 123.558 56.8981 123.616 56.5272 123.731C56.2197 123.865 55.963 124.094 55.7944 124.385C55.5783 124.767 55.4667 125.2 55.4707 125.64C55.3412 125.646 55.2764 125.649 55.147 125.655C55.1573 124.574 55.1623 124.034 55.1714 122.954C58.9455 122.775 60.8326 122.691 64.6073 122.531Z" fill="#FFC652"/>
<path d="M75.2716 122.108C75.358 123.191 75.4009 123.733 75.4861 124.816L75.1623 124.827C75.1219 124.476 75.0246 124.133 74.8743 123.813C74.709 123.51 74.4556 123.265 74.1478 123.11C73.7815 122.952 73.3824 122.887 72.9851 122.919C72.334 122.943 72.0085 122.956 71.3573 122.981C71.4777 126.512 71.535 128.277 71.6437 131.808C71.6034 132.265 71.6971 132.724 71.9135 133.129C72.0475 133.252 72.2066 133.345 72.3797 133.4C72.5529 133.456 72.736 133.474 72.9165 133.452L73.3153 133.438C73.319 133.564 73.3209 133.627 73.3246 133.753C71.3739 133.821 70.3985 133.857 68.4479 133.929C68.4439 133.803 68.4419 133.74 68.438 133.614L68.8453 133.599C69.0421 133.611 69.2388 133.573 69.4172 133.489C69.5956 133.405 69.7501 133.278 69.8663 133.118C70.0173 132.72 70.0681 132.29 70.0143 131.868C69.9031 128.338 69.8446 126.574 69.7215 123.045C69.1657 123.067 68.8878 123.078 68.3321 123.1C67.944 123.098 67.5578 123.153 67.1864 123.266C66.878 123.399 66.6201 123.628 66.4504 123.918C66.2324 124.301 66.1187 124.735 66.1206 125.176C65.9911 125.181 65.9264 125.184 65.7969 125.189C65.8125 124.105 65.82 123.563 65.8345 122.479C69.6092 122.321 71.4966 122.247 75.2716 122.108Z" fill="#FFC652"/>
<path d="M79.5015 122.59C79.5569 124.42 79.5839 125.336 79.6364 127.167C80.6502 127.133 81.1571 127.117 82.1709 127.084C82.6334 127.12 83.0946 127 83.4813 126.743C83.8105 126.355 83.974 125.852 83.9368 125.343L84.2519 125.333C84.2956 126.947 84.317 127.754 84.3588 129.369C84.233 129.373 84.1701 129.375 84.0443 129.378C84.0017 129.009 83.9123 128.646 83.7781 128.3C83.6621 128.095 83.481 127.935 83.2637 127.845C82.9192 127.723 82.5523 127.676 82.1881 127.708C81.1745 127.74 80.6678 127.757 79.6543 127.79C79.6978 129.317 79.7191 130.081 79.7607 131.608C79.7505 131.921 79.7817 132.235 79.8537 132.541C79.9038 132.652 79.9902 132.743 80.0986 132.798C80.3056 132.873 80.527 132.9 80.7459 132.875C81.5263 132.851 81.9165 132.839 82.697 132.815C83.1742 132.82 83.6497 132.759 84.1108 132.636C84.4303 132.518 84.7168 132.325 84.9456 132.072C85.3704 131.583 85.7205 131.033 85.9845 130.441L86.3241 130.431C85.9554 131.606 85.771 132.193 85.4023 133.368C81.8568 133.471 80.084 133.526 76.5386 133.644L76.5298 133.328C76.6925 133.323 76.7739 133.32 76.9365 133.315C77.2063 133.304 77.4694 133.228 77.7035 133.093C77.8728 133.004 78.0009 132.853 78.0609 132.671C78.1353 132.302 78.1577 131.925 78.1275 131.549C78.0433 128.541 77.9993 127.037 77.9074 124.03C77.9486 123.564 77.8573 123.096 77.644 122.681C77.5031 122.559 77.3381 122.469 77.1599 122.416C76.9817 122.364 76.7943 122.35 76.6102 122.375C76.4467 122.381 76.365 122.384 76.2015 122.39C76.1975 122.264 76.1954 122.201 76.1914 122.075C79.755 121.945 81.537 121.885 85.101 121.773C85.1803 122.787 85.2197 123.294 85.2981 124.308C85.1651 124.312 85.0986 124.314 84.9656 124.318C84.8919 123.883 84.7464 123.462 84.5351 123.074C84.3748 122.841 84.1443 122.665 83.8774 122.573C83.483 122.478 83.0758 122.447 82.6717 122.483C81.4036 122.525 80.7696 122.546 79.5015 122.59Z" fill="#FFC652"/>
<path d="M97.0082 121.169C97.1487 122.747 97.2185 123.536 97.3572 125.114C97.2517 125.117 97.1988 125.118 97.0933 125.121C96.8414 124.142 96.296 123.263 95.5306 122.604C94.8478 122.096 94.0092 121.842 93.1596 121.887C92.4237 121.898 91.7066 122.121 91.0942 122.53C90.4349 123.004 89.9401 123.673 89.6791 124.443C89.3212 125.472 89.1671 126.562 89.2253 127.65C89.2261 128.585 89.4188 129.51 89.7915 130.367C90.112 131.093 90.6533 131.699 91.3381 132.099C92.0403 132.498 92.8404 132.691 93.647 132.657C94.3375 132.654 95.0154 132.47 95.6136 132.125C96.3579 131.603 96.9865 130.933 97.4599 130.156L97.7266 130.321C97.2736 131.248 96.5941 132.046 95.7512 132.64C94.9353 133.155 93.9904 133.428 93.0261 133.427C92.1711 133.488 91.3144 133.335 90.5331 132.981C89.7517 132.628 89.0702 132.086 88.5498 131.404C87.7349 130.337 87.2912 129.032 87.2866 127.689C87.2474 126.576 87.4857 125.472 87.98 124.475C88.442 123.523 89.1616 122.72 90.0569 122.158C90.9424 121.6 91.9627 121.295 93.0084 121.274C93.8695 121.256 94.7223 121.445 95.4957 121.825C95.6539 121.918 95.8293 121.978 96.0113 122C96.0857 121.999 96.1592 121.984 96.2274 121.954C96.2956 121.924 96.3572 121.881 96.4084 121.827C96.5672 121.643 96.6715 121.417 96.7098 121.177L97.0082 121.169Z" fill="#FFC652"/>
<path d="M108.252 121.188C108.321 122.28 108.355 122.826 108.424 123.917L108.1 123.923C108.065 123.569 107.973 123.222 107.828 122.897C107.668 122.59 107.418 122.338 107.112 122.177C106.749 122.011 106.351 121.938 105.953 121.963C105.302 121.976 104.976 121.983 104.325 121.996C104.39 125.553 104.42 127.332 104.479 130.889C104.432 131.348 104.52 131.812 104.73 132.223C104.862 132.349 105.02 132.445 105.192 132.504C105.364 132.563 105.548 132.584 105.729 132.565L106.128 132.557L106.132 132.875C104.181 132.911 103.206 132.93 101.255 132.971L101.249 132.654C101.412 132.65 101.494 132.649 101.657 132.645C101.854 132.661 102.051 132.626 102.231 132.544C102.41 132.462 102.566 132.336 102.684 132.178C102.841 131.779 102.897 131.347 102.85 130.921C102.788 127.365 102.756 125.587 102.688 122.031C102.132 122.043 101.854 122.05 101.298 122.062C100.911 122.052 100.523 122.101 100.15 122.208C99.8396 122.338 99.5781 122.563 99.4045 122.852C99.1805 123.235 99.0602 123.67 99.0556 124.113L98.7317 124.121C98.7638 123.029 98.7798 122.483 98.8114 121.391C102.587 121.3 104.475 121.26 108.252 121.188Z" fill="#FFC652"/>
<path d="M116.03 128.814C114.246 128.838 113.353 128.852 111.569 128.881C111.266 129.621 111.115 129.992 110.813 130.732C110.661 131.052 110.567 131.397 110.538 131.751C110.541 131.843 110.566 131.933 110.611 132.013C110.656 132.094 110.719 132.163 110.795 132.215C111.129 132.39 111.503 132.474 111.88 132.459L111.884 132.777C110.435 132.8 109.711 132.812 108.262 132.837L108.257 132.519C108.592 132.485 108.911 132.364 109.185 132.169C109.598 131.667 109.916 131.094 110.121 130.477C111.687 126.616 112.472 124.684 114.047 120.822L114.345 120.818C116.008 124.671 116.834 126.599 118.478 130.458C118.673 131.016 118.977 131.528 119.372 131.966C119.686 132.213 120.075 132.346 120.474 132.344C120.475 132.472 120.476 132.535 120.477 132.663C118.662 132.683 117.754 132.694 115.939 132.719L115.935 132.4C116.261 132.41 116.583 132.325 116.862 132.156C116.936 132.099 116.996 132.026 117.037 131.942C117.078 131.857 117.099 131.765 117.098 131.671C117.051 131.257 116.931 130.854 116.746 130.481C116.46 129.814 116.317 129.48 116.03 128.814ZM115.784 128.181C114.98 126.308 114.577 125.372 113.768 123.5C112.989 125.396 112.6 126.345 111.824 128.241C113.408 128.215 114.2 128.204 115.784 128.181Z" fill="#FFC652"/>
<path d="M129.128 120.917C129.186 122.011 129.215 122.558 129.273 123.652C129.143 123.653 129.079 123.653 128.949 123.654C128.917 123.299 128.829 122.951 128.687 122.623C128.53 122.314 128.283 122.059 127.979 121.893C127.618 121.723 127.22 121.645 126.822 121.666C126.171 121.671 125.845 121.674 125.193 121.68C125.223 125.245 125.236 127.028 125.263 130.593C125.212 131.053 125.295 131.519 125.502 131.933C125.632 132.06 125.789 132.158 125.961 132.219C126.133 132.28 126.316 132.303 126.497 132.286L126.896 132.283L126.898 132.601C124.947 132.617 123.971 132.625 122.02 132.646L122.018 132.327C122.181 132.326 122.262 132.325 122.425 132.323C122.622 132.341 122.819 132.308 123 132.228C123.18 132.148 123.337 132.023 123.456 131.865C123.616 131.467 123.677 131.035 123.633 130.608C123.604 127.043 123.589 125.261 123.557 121.696C123.001 121.702 122.723 121.705 122.167 121.711C121.779 121.697 121.392 121.742 121.018 121.844C120.705 121.97 120.442 122.194 120.265 122.481C120.037 122.863 119.913 123.297 119.904 123.742L119.58 123.745C119.623 122.651 119.644 122.104 119.687 121.009C123.463 120.962 125.352 120.944 129.128 120.917Z" fill="#FFC652"/>
</svg>
