<svg width="84" height="128" viewBox="0 0 84 128" fill="none" xmlns="http://www.w3.org/2000/svg">
<g id="boy">
<path id="Vector" d="M43.4298 128C65.8361 128 84 124.498 84 120.179C84 115.859 65.8361 112.357 43.4298 112.357C21.0235 112.357 2.85962 115.859 2.85962 120.179C2.85962 124.498 21.0235 128 43.4298 128Z" fill="#DEE1F3"/>
<path id="Vector_2" d="M69.8597 98.2017C62.3614 97.0965 54.7496 96.9774 47.22 97.8476C35.0011 99.3089 48.352 114.334 48.352 114.334L69.8597 98.2017Z" fill="#12296B"/>
<path id="Vector_3" d="M41.587 67.3603C38.5615 67.3736 35.5767 68.0552 32.8481 69.3558C28.566 71.4866 18.0159 81.3164 16.8645 90.2643C15.7131 99.2122 30.7264 100.68 30.7264 100.68L33.5079 97.9119C33.5079 97.9119 25.4352 95.5107 25.9268 89.2408C26.4184 82.9708 38.1263 77.8917 38.1263 77.8917L41.587 67.3603Z" fill="#FF6551"/>
<path id="Vector_4" d="M43.9863 65.4483C39.9487 65.7396 36.1491 67.459 33.2746 70.2957C28.6561 74.9949 28.8243 91.7127 29.6458 100.905C29.6458 100.905 39.3485 109.917 55.1444 105.495C55.1444 105.495 57.997 82.4107 59.3166 78.6191C60.6362 74.8275 59.239 70.3407 59.239 70.3407C59.239 70.3407 57.0074 63.942 43.9863 65.4483Z" fill="#FFC652"/>
<path id="Vector_5" d="M55.7588 66.9033C54.0382 68.6864 53.5401 70.6627 52.8803 72.9351C52.0514 75.356 51.6979 77.913 51.8389 80.4668C52.1106 84.6703 51.7678 88.7001 48.0743 91.4102C44.7818 93.8178 38.7209 91.7321 36.0559 89.1701C34.4905 87.6702 33.6237 85.6038 32.8928 83.5696C32.1572 81.5845 31.7212 79.502 31.5991 77.3897C31.515 75.7933 31.6573 72.4201 32.6341 71.0811C28.643 76.585 28.8306 92.1827 29.6133 100.95C29.6133 100.95 39.316 109.963 55.112 105.54C55.112 105.54 57.9645 82.4559 59.2841 78.6643C60.6037 74.8727 59.2065 70.3859 59.2065 70.3859C59.2065 70.3859 58.5532 68.3968 55.7588 66.9033Z" fill="#F7A845"/>
<path id="Vector_6" d="M21.2425 99.4376C21.2425 99.4376 16.126 105.766 19.5866 110.381C23.0472 114.997 34.3994 119.232 40.1822 118.183C45.965 117.134 56.3533 106.19 56.3533 106.19L55.5318 98.6394L21.2425 99.4376Z" fill="#12296B"/>
<path id="Vector_7" d="M28.094 48.9236C27.7771 49.2584 27.4472 49.5674 27.0979 49.9214C26.1082 50.8484 24.9827 51.6144 23.6631 51.6273C22.6645 51.6129 21.6854 51.3496 20.8153 50.8616C19.9453 50.3735 19.2119 49.6763 18.6824 48.8335C18.2403 47.9358 18.0867 46.9244 18.2426 45.9367C18.3065 45.4738 18.4104 45.0172 18.553 44.572C18.7469 43.9224 19.051 43.3106 19.4522 42.7631C21.2051 40.4521 23.9801 41.0315 26.3669 41.7524L28.094 48.9236Z" fill="#FFBF94"/>
<g id="Vector_8" style="mix-blend-mode:multiply" opacity="0.31">
<path d="M24.1602 46.5484C22.8148 45.9047 22.1808 44.5464 21.9027 43.1431C21.8958 43.1115 21.8783 43.0831 21.853 43.0628C21.8277 43.0425 21.7961 43.0315 21.7636 43.0315C21.7311 43.0315 21.6996 43.0425 21.6743 43.0628C21.649 43.0831 21.6315 43.1115 21.6246 43.1431C21.327 44.6752 22.2714 46.0978 23.5069 46.9218C23.1495 47.301 22.8229 47.7078 22.5301 48.1384C22.1605 48.5814 21.917 49.1149 21.8251 49.6834C21.8129 49.7678 21.8287 49.8539 21.87 49.9286C21.9114 50.0032 21.976 50.0625 22.0542 50.0974C22.1323 50.1323 22.2198 50.1409 22.3033 50.122C22.3869 50.103 22.4619 50.0576 22.5172 49.9924C22.8171 49.5545 23.0605 49.0809 23.2417 48.5826C23.5253 48.0354 23.8726 47.5233 24.2766 47.057C24.3078 47.0177 24.3298 46.972 24.3409 46.9232C24.352 46.8744 24.3519 46.8237 24.3408 46.775C24.3296 46.7262 24.3076 46.6805 24.2763 46.6413C24.2451 46.6021 24.2054 46.5703 24.1602 46.5484Z" fill="#DD664A"/>
</g>
<g id="Vector_9" style="mix-blend-mode:multiply" opacity="0.12">
<path d="M27.0979 49.9279C26.1082 50.8549 24.9827 51.621 23.6631 51.6338C22.6645 51.6194 21.6854 51.3561 20.8153 50.8681C19.9453 50.38 19.2119 49.6828 18.6824 48.84C18.2403 47.9423 18.0867 46.9309 18.2426 45.9432C18.3065 45.4803 18.4104 45.0237 18.553 44.5785C18.76 45.6664 20.0537 49.9601 27.0979 49.9279Z" fill="#DD664A"/>
</g>
<path id="Vector_10" d="M50.9981 65.7251C51.3215 67.8817 49.4069 69.2464 47.4534 69.7614C45.8283 70.1568 44.114 69.9461 42.6344 69.1691C41.1143 68.3387 39.6524 66.3624 41.6577 65.1458C42.3762 64.767 43.1734 64.5598 43.9863 64.5407C45.9672 64.3795 47.9602 64.4508 49.9244 64.7531C50.2377 64.7637 50.5366 64.8873 50.7653 65.1007C50.8966 65.2849 50.9769 65.5003 50.9981 65.7251Z" fill="#FF6551"/>
<path id="Vector_11" d="M50.2996 60.3628V64.7338C50.2996 64.7338 50.0344 67.4374 46.7419 68.2292C43.4495 69.021 41.9682 66.7551 41.9682 66.7551L41.8712 66.2401L41.399 64.3733L40.7521 62.0429C38.7598 53.198 48.2426 61.0773 48.2426 61.0773L48.8895 60.7555L49.0382 61.1997L50.2996 60.3628Z" fill="#EA9573"/>
<g id="Vector_12" style="mix-blend-mode:multiply" opacity="0.31">
<path d="M50.2938 62.5774V64.5665C49.3309 65.5758 48.1028 66.2962 46.7491 66.6458C45.1123 66.9078 43.4359 66.7686 41.8654 66.2402L41.3997 64.3734L48.2562 61.0775L49.0777 61.1998L50.2938 62.5774Z" fill="#DD664A"/>
</g>
<path id="Vector_13" d="M64.1622 48.5826L64.1169 48.853C63.8764 50.323 63.3933 51.7433 62.6874 53.0566C61.6913 54.7753 60.1388 56.1079 58.6187 57.4018C56.0209 59.7303 53.2487 61.8587 50.3262 63.7683C48.7608 64.7339 47.0402 65.5965 45.1967 65.6544C43.6966 65.6206 42.2186 65.2879 40.8499 64.676C36.6343 63.0415 32.6455 60.8782 28.9803 58.2386C27.7385 57.4432 26.6678 56.4105 25.8301 55.2002C25.1041 53.8522 24.6493 52.3763 24.4911 50.855C24.4265 50.4688 24.3682 50.089 24.31 49.7092C23.1678 42.2931 22.8036 34.7789 23.2233 27.2879L23.3074 26.6442C22.6412 23.3289 25.3256 20.2583 28.1523 18.3464C31.3916 16.1786 35.0305 14.6711 38.8586 13.9109C42.6867 13.1508 46.6283 13.153 50.4555 13.9175C53.7933 14.5999 57.0857 15.926 59.5631 18.2563C62.3381 20.8699 63.8776 24.5649 64.5439 28.2986C65.2101 32.0322 65.0613 35.8689 64.9126 39.6669C64.8733 42.6527 64.6226 45.632 64.1622 48.5826Z" fill="#FFBF94"/>
<g id="Vector_14" style="mix-blend-mode:multiply" opacity="0.09">
<path d="M64.1158 48.8529C63.8752 50.3229 63.3922 51.7433 62.6862 53.0565C61.6901 54.7753 60.1376 56.1078 58.6176 57.4017C56.0197 59.7303 53.2475 61.8586 50.325 63.7683C48.7596 64.7339 47.039 65.5965 45.1955 65.6544C43.6954 65.6205 42.2174 65.2878 40.8487 64.6759C36.6331 63.0414 32.6443 60.8782 28.9791 58.2386C27.7373 57.4432 26.6666 56.4104 25.8289 55.2002C25.103 53.8522 24.6481 52.3762 24.49 50.855C24.4253 50.4687 24.3671 50.0889 24.3088 49.7091C24.5094 49.825 25.2338 49.516 25.499 49.9344C28.5845 54.8139 37.8991 61.2899 45.3896 61.4508C52.88 61.6118 63.1196 48.5761 63.1196 48.5761L64.1158 48.8529Z" fill="#DD664A"/>
</g>
<g id="Vector_15" style="mix-blend-mode:multiply" opacity="0.31">
<path d="M24.8206 38.624L24.9759 40.4844C24.9759 40.4844 29.148 33.8218 28.4624 28.511C28.4624 28.511 32.4469 32.2704 39.8663 32.8304C47.2856 33.3905 51.102 30.5774 51.102 30.5774C51.102 30.5774 48.7927 29.174 47.9842 27.6806C47.9842 27.6806 54.4979 29.3478 57.9715 26.5798C57.9715 26.5798 57.3246 30.5259 60.8305 34.723C64.3364 38.9202 64.7569 40.5552 64.7569 40.5552L64.4529 27.6806L58.1267 17.8894L46.0178 18.5331L29.6267 22.4728L25.6292 22.6659C25.6292 22.6659 24.2449 26.7021 24.219 27.5261C24.1932 28.35 24.8206 38.624 24.8206 38.624Z" fill="#DD664A"/>
</g>
<path id="Vector_16" d="M23.5846 43.3489C22.955 41.9156 22.3427 40.4736 21.7476 39.0231L21.5535 38.5467C19.9429 34.5234 18.5651 30.2554 19.0826 25.9746C19.3295 23.9956 20.0529 22.1053 21.1913 20.4642C21.5391 19.9551 21.9332 19.4789 22.3685 19.0415C23.6634 17.6563 25.3918 16.7487 27.2716 16.4666L27.3104 16.6469C26.1461 19.4793 26.1914 22.5241 26.4049 25.6076C26.6658 28.0535 26.7824 30.5125 26.7542 32.972C26.5845 36.64 25.4949 40.2074 23.5846 43.3489Z" fill="#661E08"/>
<path id="Vector_17" d="M68.1653 48.7307C66.5193 49.2562 64.7444 49.2222 63.1199 48.6341C62.7171 48.4944 62.3239 48.3288 61.9426 48.1384L63.5856 42.1903C64.4783 40.2591 66.6775 38.8365 68.7604 39.2807C69.8013 39.5282 70.7054 40.1673 71.2831 41.0638C71.885 41.9555 72.1613 43.0258 72.0658 44.0958C71.9074 45.1508 71.4594 46.1419 70.7712 46.9597C70.0829 47.7775 69.1812 48.3904 68.1653 48.7307Z" fill="#FFBF94"/>
<path id="Vector_18" d="M67.648 35.7467C66.9837 37.752 66.048 39.6578 64.8665 41.4115C64.6595 38.7014 62.9842 36.3711 61.794 33.9249C61.4319 33.1958 61.1144 32.4455 60.8431 31.6783C59.9052 29.0479 59.4665 26.267 59.5494 23.4771L64.6078 18.8422L65.0412 18.4496L65.3581 18.5719C67.0076 19.2928 67.842 21.2305 68.2625 23.0072C69.2324 27.2297 69.0199 31.6361 67.648 35.7467Z" fill="#661E08"/>
<g id="Vector_19" style="mix-blend-mode:multiply" opacity="0.32">
<path d="M67.648 35.7466C68.0555 31.5237 68.2948 24.8031 65.1835 25.8781C62.0721 26.9532 61.1666 29.9208 60.8431 31.6717C59.9052 29.0414 59.4665 26.2604 59.5494 23.4706L64.6078 18.8357L65.3581 18.5653C67.0076 19.2863 67.842 21.2239 68.2625 23.0006C69.2336 27.2252 69.0211 31.634 67.648 35.7466Z" fill="#661E08"/>
</g>
<g id="Vector_20" style="mix-blend-mode:multiply" opacity="0.31">
<path d="M66.6262 44.2567C67.9199 43.4713 69.0324 42.0422 68.8319 40.4973C68.8319 40.4136 68.6896 40.3814 68.6573 40.4973C68.088 41.9457 67.4606 43.2331 65.9664 43.9284C65.9157 43.9498 65.8713 43.9837 65.8375 44.0269C65.8037 44.0702 65.7815 44.1213 65.7731 44.1754C65.7647 44.2296 65.7703 44.285 65.7894 44.3364C65.8085 44.3878 65.8405 44.4334 65.8823 44.4691C66.3245 44.8426 66.6686 45.3176 66.8849 45.8531C66.9798 46.2972 67.1552 46.7204 67.4024 47.102C67.4169 47.1195 67.4352 47.1336 67.4559 47.1433C67.4766 47.153 67.4992 47.158 67.5221 47.158C67.5449 47.158 67.5675 47.153 67.5882 47.1433C67.6089 47.1336 67.6272 47.1195 67.6417 47.102C68.2109 46.1943 67.3506 44.9712 66.6262 44.2567Z" fill="#DD664A"/>
</g>
<path id="Vector_21" d="M67.5571 20.7347C65.1897 22.5758 62.4858 24.1271 59.5103 24.5327C56.5349 24.9383 53.2489 23.9984 51.4118 21.6359C51.8118 23.6666 53.0023 25.4576 54.7237 26.6184C52.9047 27.2739 50.9277 27.36 49.0581 26.8652C47.1885 26.3705 45.5157 25.3184 44.2642 23.8503C44.5 25.2019 45.0268 26.4868 45.8083 27.6168C46.5899 28.7468 47.6077 29.6952 48.7921 30.3971C46.3178 31.3306 43.6672 31.7102 41.0287 31.5088C38.3903 31.3074 35.8289 30.53 33.5265 29.232C31.0168 27.79 28.6105 25.6592 25.7126 25.7365L24.5224 23.5735L22.2908 19.5309C22.2257 18.7254 22.2257 17.916 22.2908 17.1104C23.1317 7.89862 32.5757 4.41602 39.0377 4.23577C50.9138 3.92678 54.6137 6.93301 58.443 6.03822C59.6029 5.77844 60.7371 5.41652 61.8325 4.95675C64.4272 3.91572 66.6959 2.20464 68.4045 0C68.6506 2.93802 67.9817 5.88019 66.4888 8.42666C64.9959 10.9731 62.7513 13.0004 60.0602 14.233C63.074 14.9868 66.2523 14.745 69.116 13.5442C71.0135 12.7733 72.7181 11.5977 74.1097 10.1002C74.0256 14.4003 70.966 18.0954 67.5571 20.7347Z" fill="#661E08"/>
<path id="Vector_22" d="M23.585 43.349C22.9554 41.9156 22.343 40.4737 21.7479 39.0231L21.5539 38.5468C27.078 33.8539 21.1917 20.4643 21.1917 20.4643C21.5395 19.9552 21.9336 19.479 22.3689 19.0416C24.0801 20.9953 25.445 23.2244 26.4052 25.6335C26.6662 28.0793 26.7828 30.5383 26.7545 32.9978C26.5806 36.657 25.4911 40.2151 23.585 43.349Z" fill="#551107"/>
<path id="Vector_23" d="M67.5576 20.7346C65.1901 22.5757 62.4863 24.1271 59.5108 24.5327C56.5353 24.9382 53.2493 23.9984 51.4123 21.6359C51.8123 23.6666 53.0027 25.4576 54.7241 26.6184C52.9051 27.2739 50.9282 27.36 49.0586 26.8652C47.189 26.3704 45.5162 25.3184 44.2646 23.8503C44.5005 25.2019 45.0272 26.4867 45.8088 27.6168C46.5903 28.7468 47.6082 29.6952 48.7925 30.3971C46.3182 31.3306 43.6676 31.7101 41.0292 31.5088C38.3908 31.3074 35.8293 30.53 33.527 29.2319C31.2242 27.9445 28.9991 26.0133 26.4117 25.7622C26.4117 25.7171 26.4117 25.6785 26.4117 25.6335C25.9524 24.4839 25.4008 23.3731 24.7622 22.3118C28.827 23.5452 32.756 25.1843 36.4895 27.2042C41.8389 30.2426 43.1003 25.6656 39.2645 20.9986C35.4287 16.3315 44.7433 21.9835 47.6735 22.3504C50.6037 22.7173 49.0513 17.6898 47.0267 16.1191C45.002 14.5484 55.9919 23.2645 63.2754 19.5502C65.8906 18.3266 67.9625 16.189 69.097 13.5441C70.9946 12.7733 72.6992 11.5977 74.0907 10.1002C74.026 14.4003 70.9664 18.0953 67.5576 20.7346Z" fill="#551107"/>
<g id="Vector_24" style="mix-blend-mode:screen" opacity="0.28">
<path d="M61.8325 4.95668C61.7872 5.07899 61.7419 5.2013 61.6902 5.31717C61.0201 6.88113 59.9615 8.2499 58.6139 9.29488C57.2663 10.3399 55.6739 11.0268 53.9862 11.291C51.3342 11.6837 48.6239 10.9949 45.9718 11.291C45.3232 11.3217 44.6988 11.546 44.18 11.9348C43.4426 12.5785 43.3197 13.7694 42.5565 14.4067C42.1678 14.6685 41.7185 14.8272 41.251 14.8678C40.7834 14.9083 40.3133 14.8294 39.885 14.6384C38.9988 14.323 38.2096 13.7951 37.2976 13.5055C36.8628 13.327 36.3873 13.2698 35.9223 13.3402C35.4573 13.4105 35.0204 13.6056 34.6585 13.9046C33.6106 14.9667 34.3156 16.8143 33.7593 18.1983C33.2807 19.3892 31.9417 20.0201 30.661 20.2196C27.582 20.7217 24.4706 19.3248 22.252 17.0589C23.0929 7.84704 32.5368 4.36444 38.9988 4.1842C50.8749 3.8752 54.5749 6.88144 58.4042 5.98665C59.5755 5.74577 60.7229 5.40107 61.8325 4.95668Z" fill="#661E08"/>
</g>
<g id="Vector_25" style="mix-blend-mode:multiply" opacity="0.12">
<path d="M68.1655 48.7307C66.5195 49.2562 64.7446 49.2222 63.1201 48.6341C70.4748 47.9904 71.2963 41.0638 71.2963 41.0638C71.8982 41.9555 72.1744 43.0258 72.0789 44.0958C71.9195 45.1523 71.4696 46.1444 70.7789 46.9624C70.0883 47.7804 69.1838 48.3923 68.1655 48.7307Z" fill="#DD664A"/>
</g>
<path id="Vector_26" d="M31.9486 34.9805C31.8971 34.8693 31.8167 34.7737 31.7157 34.7037C31.5901 34.6373 31.4504 34.602 31.3082 34.6007C30.422 34.5621 29.51 35.1543 28.7661 35.5727C27.8267 36.0619 27.0208 36.7711 26.418 37.6391C26.0752 38.1863 25.6483 39.1777 26.4698 39.5317C27.3948 39.9115 28.4621 39.1004 29.1736 38.624C30.1504 37.9159 32.3367 36.6928 32.0262 35.2444C32.0087 35.1542 31.9827 35.0659 31.9486 34.9805Z" fill="#661E08"/>
<path id="Vector_27" d="M57.0656 36.2744C56.6193 35.2895 55.1703 34.7294 54.2065 34.4784C52.7453 34.0265 51.1662 34.1438 49.7886 34.8067C49.6004 34.8909 49.4425 35.0301 49.3358 35.2058C49.2827 35.3383 49.2685 35.483 49.2949 35.6232C49.3212 35.7633 49.387 35.8932 49.4846 35.9976C49.6841 36.2014 49.9243 36.3615 50.1896 36.4675C51.0525 36.846 51.9409 37.1644 52.8482 37.4202C53.6812 37.7141 54.5528 37.8854 55.4355 37.9288C56.3541 37.9352 57.5701 37.3366 57.0656 36.2744Z" fill="#661E08"/>
<path id="Vector_28" d="M47.5562 56.7451C47.168 57.4125 46.6317 57.9827 45.9882 58.4123C45.3447 58.8418 44.611 59.1193 43.8433 59.2235C43.0442 59.3652 42.2234 59.3283 41.4404 59.1157C40.6573 58.9031 39.9315 58.5199 39.3154 57.994C38.3867 57.1919 37.6281 56.2137 37.0838 55.1165C36.8982 54.7803 36.7361 54.4319 36.5986 54.0736C36.7668 54.0736 44.1085 55.2195 48.6558 52.0394C48.6774 52.603 48.6492 53.1673 48.5718 53.726C48.436 54.789 48.0909 55.815 47.5562 56.7451Z" fill="#AA2626"/>
<path id="Vector_29" d="M48.5718 53.7003C47.0459 54.8974 45.2167 55.6505 43.287 55.8761C41.1839 56.0927 39.0588 55.833 37.0708 55.1165C36.8897 54.78 36.7319 54.4316 36.5986 54.0736C36.7668 54.0736 44.1085 55.2195 48.6558 52.0394C48.6759 52.5944 48.6477 53.1501 48.5718 53.7003Z" fill="white"/>
<path id="Vector_30" d="M47.5565 56.7452C47.1683 57.4126 46.632 57.9828 45.9885 58.4123C45.345 58.8419 44.6113 59.1194 43.8436 59.2236C43.0445 59.3652 42.2237 59.3284 41.4406 59.1158C40.6576 58.9031 39.9318 58.52 39.3157 57.9941C39.9173 57.6543 40.583 57.4423 41.2711 57.3714C41.9591 57.3005 42.6544 57.3722 43.3132 57.5821C43.3132 57.5821 43.9083 56.3397 47.5565 56.7452Z" fill="#FF6551"/>
<path id="Vector_31" d="M41.147 60.7363C41.5594 61.1282 42.0596 61.4166 42.6063 61.5778C43.153 61.739 43.7304 61.7683 44.2907 61.6633C44.8858 61.541 46.2894 60.923 46.1212 60.1377C46.118 60.1149 46.1062 60.0942 46.0881 60.0799C46.0701 60.0655 46.0472 60.0586 46.0242 60.0604C45.7202 60.1312 45.6426 60.3243 45.3774 60.5303C45.0045 60.8351 44.5589 61.0391 44.0837 61.1226C43.1001 61.2608 42.1 61.0315 41.2764 60.4788C41.1082 60.3694 40.9594 60.6398 41.0952 60.7621L41.147 60.7363Z" fill="#DD664A"/>
<g id="Vector_32" style="mix-blend-mode:multiply" opacity="0.12">
<path d="M44.9375 47.1986C44.7495 46.9017 44.5009 46.6473 44.2079 46.4522C43.9148 46.257 43.5838 46.1253 43.2363 46.0656C42.5401 45.9474 41.8256 45.9982 41.1534 46.2137C40.2284 46.484 39.3228 46.9604 39.0382 47.9453C38.9658 48.1538 38.9658 48.3805 39.0382 48.5891C39.0832 48.7314 39.1815 48.851 39.3129 48.923C39.4442 48.9949 39.5984 49.0137 39.7433 48.9753C39.8844 48.9091 40.0134 48.8199 40.1249 48.7114C40.7816 48.2585 41.5835 48.0636 42.376 48.1642C43.1622 48.2656 43.9599 48.2374 44.7369 48.0805C44.8066 48.0624 44.8723 48.0319 44.931 47.9904C45.1509 47.7973 45.0798 47.4432 44.9375 47.1986Z" fill="#DD664A"/>
</g>
<path id="Vector_33" d="M44.7626 49.1236C44.4069 48.306 42.7057 48.5699 42.0006 48.6923C41.5046 48.7306 41.0222 48.8718 40.5844 49.1069C40.1466 49.3419 39.7631 49.6655 39.4585 50.057C39.4585 50.057 39.4585 50.1407 39.5167 50.1342C40.4288 49.9797 41.2567 49.5484 42.1947 49.4454C42.7097 49.3928 43.2295 49.4079 43.7406 49.4905C44.1223 49.5613 44.3357 49.6772 44.6591 49.4197C44.7076 49.3893 44.7442 49.3435 44.763 49.2897C44.7819 49.2359 44.7817 49.1773 44.7626 49.1236Z" fill="#DD664A"/>
<path id="Vector_34" d="M33.0056 49.926C35.2586 49.4285 36.6798 47.2076 36.1799 44.9654C35.68 42.7233 33.4484 41.309 31.1954 41.8064C28.9424 42.3039 27.5212 44.5248 28.0211 46.767C28.521 49.0092 30.7526 50.4235 33.0056 49.926Z" fill="white"/>
<path id="Vector_35" d="M32.4341 49.8392C34.1605 49.458 35.2495 47.7562 34.8664 46.0382C34.4834 44.3201 32.7734 43.2364 31.047 43.6176C29.3206 43.9988 28.2317 45.7006 28.6147 47.4186C28.9977 49.1367 30.7078 50.2204 32.4341 49.8392Z" fill="#191818"/>
<path id="Vector_36" d="M30.6933 46.9347C31.1756 46.9347 31.5666 46.5456 31.5666 46.0657C31.5666 45.5857 31.1756 45.1966 30.6933 45.1966C30.211 45.1966 29.8201 45.5857 29.8201 46.0657C29.8201 46.5456 30.211 46.9347 30.6933 46.9347Z" fill="white"/>
<path id="Vector_37" d="M52.8409 47.7606C55.0974 47.2624 56.5208 45.038 56.0201 42.7924C55.5195 40.5467 53.2844 39.1302 51.0279 39.6285C48.7714 40.1267 47.348 42.3511 47.8487 44.5967C48.3493 46.8423 50.5845 48.2589 52.8409 47.7606Z" fill="white"/>
<path id="Vector_38" d="M54.6352 44.4404C54.6598 42.6416 53.2145 41.1635 51.407 41.139C49.5995 41.1145 48.1143 42.5529 48.0897 44.3517C48.0651 46.1505 49.5104 47.6285 51.3179 47.653C53.1254 47.6775 54.6106 46.2391 54.6352 44.4404Z" fill="#191818"/>
<path id="Vector_39" d="M53.0415 43.3683C53.0819 43.5499 53.0673 43.7392 52.9995 43.9125C52.9318 44.0857 52.8139 44.2351 52.6608 44.3417C52.5077 44.4482 52.3263 44.5072 52.1396 44.5112C51.9528 44.5152 51.769 44.4639 51.6115 44.3639C51.454 44.2639 51.3299 44.1197 51.2548 43.9495C51.1796 43.7792 51.1569 43.5907 51.1895 43.4076C51.2221 43.2245 51.3085 43.0552 51.4378 42.921C51.5672 42.7868 51.7336 42.6938 51.916 42.6538C52.1604 42.6001 52.4163 42.6452 52.6274 42.7792C52.8384 42.9132 52.9874 43.1251 53.0415 43.3683Z" fill="white"/>
<path id="Vector_40" d="M40.1708 115.08C40.1708 115.08 32.4862 117.655 29.4267 118.157C26.3671 118.659 21.9944 120.777 24.0902 122.953C26.186 125.129 28.7281 125.901 32.5574 124.814C36.3867 123.726 43.1527 118.132 43.1527 118.132L40.1708 115.08Z" fill="#FF6551"/>
<path id="Vector_41" d="M40.1697 115.08C40.1697 115.08 36.1463 116.439 32.7633 117.372C32.4787 117.449 32.0195 119.342 31.903 119.651C31.7261 120.269 31.4097 120.84 30.978 121.318C30.4659 121.847 29.8384 122.251 29.1442 122.5C28.4499 122.749 27.7074 122.836 26.9741 122.754C26.3174 122.641 25.7093 122.336 25.2276 121.878C25.0465 121.691 24.1473 120.456 24.4578 120.192C23.5005 121.003 23.1318 121.962 24.0697 122.927C26.159 125.084 28.7076 125.876 32.5369 124.788C36.3663 123.7 43.1323 118.106 43.1323 118.106L40.1697 115.08Z" fill="#E1574C"/>
<path id="Vector_42" d="M37.699 115.042C37.699 115.042 55.0927 102.444 64.5302 99.0705C73.9676 95.6974 75.9729 102.444 73.4954 107.375C71.018 112.306 61.587 115.544 58.2169 116.31C54.8469 117.076 43.5271 120.475 43.5271 120.475C43.5271 120.475 39.3096 120.121 37.699 115.042Z" fill="#243976"/>
<path id="Vector_43" d="M73.0169 99.5793C75.6819 114.327 51.4964 112.525 39.1416 117.848C40.1943 119.254 41.7558 120.196 43.4949 120.475C43.4949 120.475 54.7823 117.082 58.1848 116.31C61.5872 115.537 71.0247 112.312 73.4956 107.375C74.854 104.665 74.8605 101.407 73.0169 99.5793Z" fill="#12296B"/>
<path id="Vector_44" d="M39.0119 115.08C39.4777 115.389 45.1958 116.162 50.4547 117.7C55.7135 119.239 56.4833 120.919 55.403 122.625C54.8045 123.637 53.9433 124.469 52.9098 125.036C51.8764 125.602 50.7088 125.881 49.5297 125.844C46.7418 125.689 39.0896 121.84 37.0391 119.535L39.0119 115.08Z" fill="#FF6551"/>
<path id="Vector_45" d="M52.2205 118.28C53.2038 120.121 53.4431 122.058 51.108 122.837C45.8556 124.402 41.457 121.305 37.563 118.331L37.0391 119.522C39.0896 121.827 46.7418 125.676 49.5297 125.831C50.7088 125.868 51.8764 125.589 52.9098 125.023C53.9433 124.456 54.8045 123.624 55.403 122.612C56.3474 121.144 55.8752 119.657 52.2205 118.28Z" fill="#E1574C"/>
<path id="Vector_46" d="M12.8795 98.1565C12.8795 98.1565 8.08637 99.3796 7.15491 101.929C6.22345 104.478 7.80176 108.019 12.2585 111.707C16.7153 115.396 34.2513 121.119 38.2359 121.872C39.3761 121.002 40.2539 119.837 40.773 118.504C41.2921 117.171 41.4326 115.721 41.179 114.314C41.179 114.314 30.5061 107.542 25.5577 104.015C20.6093 100.487 16.3595 97.7059 12.8795 98.1565Z" fill="#243976"/>
<path id="Vector_47" d="M21.3459 109.319C25.1428 108.778 28.4612 108.25 32.1288 108.469C29.7031 106.866 27.2774 105.25 25.5504 104.001C20.602 100.461 16.3522 97.7057 12.8722 98.1563C12.8722 98.1563 8.07905 99.3794 7.14759 101.929C6.21613 104.478 7.79443 108.018 12.2512 111.707C16.708 115.395 34.244 121.118 38.2285 121.871C39.1512 121.167 39.9028 120.264 40.4279 119.231C40.953 118.198 41.2382 117.061 41.2623 115.904C34.438 117.9 23.6874 115.704 21.3459 109.319Z" fill="#12296B"/>
<path id="Vector_48" d="M56.2175 98.6394H17.4068L10.6084 104.999L47.705 106.57L56.2175 98.6394Z" fill="#49A4F7"/>
<path id="Vector_49" d="M41.8194 97.2811C41.3399 97.5413 40.9036 97.8735 40.5257 98.266C40.4486 98.3337 40.4001 98.428 40.3899 98.5299C40.3899 98.7874 40.7586 98.8454 41.0367 98.8067L43.0743 98.4913C42.6024 98.5653 42.1516 98.7378 41.7514 98.9974C41.3512 99.257 41.0107 99.5979 40.7521 99.9976C41.249 100.147 41.7741 100.177 42.2852 100.088C41.9828 100.326 41.6628 100.541 41.3278 100.731C44.1545 102.624 49.8727 100.538 52.363 98.8003C53.0361 98.406 53.554 97.7952 53.8314 97.0686C54.7758 93.747 47.8222 95.1374 46.3926 95.5366C44.8083 95.9487 43.2746 96.5338 41.8194 97.2811Z" fill="#FFBF94"/>
<path id="Vector_50" d="M53.1326 68.8216C53.1326 68.8216 50.8234 71.3965 53.1326 76.8812C55.4419 82.3658 57.3371 83.37 57.3371 87.1809C57.3371 90.9918 50.293 94.4358 50.293 94.4358C50.293 94.4358 53.0679 97.2232 51.4573 99.4054C51.4573 99.4054 61.16 98.3111 64.3425 91.6034C68.9804 81.9473 59.4006 69.034 59.4006 69.034C59.4006 69.034 56.2763 65.1073 53.1326 68.8216Z" fill="#FF6551"/>
<path id="Vector_51" d="M53.1322 68.8216C53.0044 68.9826 52.8918 69.155 52.7959 69.3366C54.0896 69.092 56.0301 69.2916 57.9707 71.5639C61.3601 75.5422 64.5038 84.4 61.9617 89.4018C59.8983 93.4638 53.9731 96.1288 51.8321 96.9785C51.9741 97.387 52.0159 97.8233 51.954 98.251C51.8921 98.6788 51.7283 99.0857 51.4763 99.4376C51.4763 99.4376 61.179 98.3433 64.3615 91.6356C68.9994 81.9796 59.4196 69.0663 59.4196 69.0663C59.4196 69.0663 56.2759 65.1073 53.1322 68.8216Z" fill="#E1574C"/>
<path id="Vector_52" d="M0.000803412 80.0225L8.45508 107.574C8.61889 108.234 9.00063 108.82 9.53903 109.238C10.0774 109.656 10.7413 109.881 11.4241 109.879L46.4379 109.621L56.3735 102.882L56.1988 98.6393L47.2853 104.999L41.7677 77.7694C41.6255 77.0758 41.2435 76.4536 40.688 76.0114C40.1325 75.5691 39.4387 75.3347 38.7275 75.349L3.79779 76.115C1.83138 76.1601 -0.0444758 78.6642 0.000803412 80.0225Z" fill="#3E8CE1"/>
<path id="Vector_53" d="M0.091697 81.0461L6.17205 108.083C6.33142 108.744 6.71107 109.331 7.24909 109.75C7.78711 110.168 8.45175 110.393 9.13461 110.388L44.5624 110.149C44.8091 110.147 45.0522 110.09 45.2742 109.983C45.4961 109.876 45.6912 109.721 45.8455 109.529C45.9997 109.337 46.1091 109.114 46.1657 108.875C46.2224 108.636 46.2249 108.387 46.173 108.147L40.1638 78.9926C40.0217 78.2989 39.6396 77.6768 39.0841 77.2346C38.5286 76.7923 37.8349 76.5579 37.1236 76.5722L2.96369 77.3189C2.51091 77.3291 2.06619 77.4403 1.66233 77.6443C1.25846 77.8483 0.90573 78.1399 0.63013 78.4975C0.35453 78.8552 0.163084 79.2699 0.0698976 79.7109C-0.0232885 80.152 -0.015839 80.6083 0.091697 81.0461Z" fill="#49A4F7"/>
<path id="Vector_54" d="M37.1236 76.5528L2.96369 77.3188C2.51091 77.329 2.0662 77.4402 1.66233 77.6442C1.25846 77.8482 0.905731 78.1398 0.630131 78.4974C0.35453 78.8551 0.163084 79.2698 0.0698976 79.7108C-0.0232885 80.1519 -0.015839 80.6082 0.091697 81.046L2.4915 91.7384L39.1612 77.2866C38.5947 76.8028 37.8701 76.5418 37.1236 76.5528Z" fill="#49B3F7"/>
<path id="Vector_55" d="M41.8717 87.2839L5.00146 102.849L6.17873 108.077C6.33809 108.737 6.71774 109.325 7.25576 109.743C7.79378 110.162 8.45842 110.387 9.14128 110.381H11.8128L43.3788 94.5774L41.8717 87.2839Z" fill="#49B3F7"/>
<path id="Vector_56" d="M22.2387 98.1245C25.2967 98.1245 27.7757 95.6574 27.7757 92.6141C27.7757 89.5708 25.2967 87.1038 22.2387 87.1038C19.1807 87.1038 16.7017 89.5708 16.7017 92.6141C16.7017 95.6574 19.1807 98.1245 22.2387 98.1245Z" fill="#6CBFF3"/>
</g>
</svg>
