<svg width="88" height="192" viewBox="0 0 88 192" fill="none" xmlns="http://www.w3.org/2000/svg">
<g id="girl">
<g id="Group">
<g id="Group_2">
<path id="Vector" d="M46.7592 96.5225C10.0746 96.1107 2.15766 78.4255 0.280031 66.6258C-0.677582 60.6044 0.97804 55.8571 2.86792 50.9694C4.68137 46.2796 6.70975 41.4625 6.85129 35.2674C6.90101 33.0782 6.97966 30.4822 7.23731 27.7291C8.46258 14.5688 13.7477 -2.187 39.3379 4.70902C39.3379 4.70902 44.0757 -0.979352 55.3348 0.967228C65.7644 2.76992 75.0227 12.5285 77.2389 27.4405C77.4153 28.6253 77.5462 29.8428 77.6318 31.0929C78.4359 43.018 81.8548 47.0932 84.6345 53.1693C86.0333 56.1946 87.0203 59.3946 87.5692 62.6834C89.9288 76.2327 83.4438 96.9342 46.7592 96.5225Z" fill="#672410"/>
<g id="Vector_2" style="mix-blend-mode:multiply" opacity="0.28">
<path d="M46.7592 96.5224C10.0746 96.1106 2.15766 78.4255 0.280031 66.6257C-0.677582 60.6043 0.97804 55.857 2.86792 50.9694C2.85507 54.7107 3.92181 62.7984 12.9509 65.894C24.8714 69.981 26.5316 56.6892 43.8841 56.7664C61.2367 56.8424 62.6851 60.0606 73.3031 61.7259C79.7654 62.74 83.0518 57.4588 84.6345 53.1692C86.0332 56.1945 87.0203 59.3945 87.5692 62.6834C89.9288 76.2326 83.4438 96.9342 46.7592 96.5224Z" fill="#772F1E"/>
</g>
<g id="Group_3">
<path id="Vector_3" d="M17.0901 86.7234C16.4862 86.7272 15.8827 86.6964 15.2824 86.631C14.7381 86.5462 14.1989 86.4312 13.6673 86.2864C12.5938 85.9893 11.5699 85.5348 10.6289 84.9376C9.10455 84.01 7.88061 82.6599 7.10485 81.0502C6.42438 79.4189 6.21912 77.6277 6.51287 75.8842C6.82588 74.0928 7.2735 72.3277 7.8519 70.604C8.35721 68.8836 8.91741 67.0653 8.78874 65.2499C8.78858 65.1867 8.81105 65.1256 8.85206 65.0777C8.89307 65.0298 8.94989 64.9983 9.01215 64.9889C9.07441 64.9795 9.13797 64.9928 9.19124 65.0265C9.24451 65.0601 9.28394 65.1119 9.30235 65.1722C9.64751 66.9929 9.61096 68.8657 9.19502 70.6714C8.54735 73.7439 7.10248 77.2844 8.61959 80.3236C9.35903 81.7613 10.5111 82.9439 11.9273 83.7189C12.7371 84.1676 13.5853 84.543 14.4617 84.8407C14.95 85.0117 15.4437 85.1603 15.9397 85.309C16.3736 85.4398 16.7649 85.6414 17.2044 85.7651C17.7118 85.9065 17.6383 86.7507 17.0901 86.7234Z" fill="#772F1E"/>
<path id="Vector_4" d="M79.6148 60.3958C79.2775 63.4061 78.2756 66.3032 76.682 68.8768C75.4041 70.9847 73.8935 72.9416 72.1788 74.7105C71.3456 75.572 70.4624 76.3835 69.5338 77.1406C69.0256 77.5532 68.4967 77.9395 67.9492 78.298C67.4974 78.6469 66.992 78.9198 66.4528 79.1063C66.3597 79.1288 66.2618 79.1207 66.1736 79.0833C66.0854 79.0459 66.0115 78.981 65.9628 78.8984C65.9141 78.8157 65.8931 78.7195 65.903 78.624C65.9129 78.5285 65.9531 78.4387 66.0176 78.3678C66.4871 77.8612 67.0045 77.4017 67.5627 76.9956C68.0837 76.535 68.6211 76.0917 69.141 75.6287C70.1354 74.7441 71.082 73.8069 71.9769 72.8212C74.9148 69.5813 77.4836 65.5738 78.2519 61.1565C78.3125 60.8056 78.3617 60.4524 78.3993 60.0971C78.6997 57.6551 78.3098 55.1776 77.2741 52.9469C76.3785 51.126 74.7857 49.1055 75.6453 46.9668C75.7197 46.783 75.9554 46.9249 75.9346 47.0868C75.7348 48.5931 76.5519 49.866 77.3052 51.0812C78.0527 52.2256 78.6481 53.463 79.0763 54.7619C79.6226 56.5863 79.8056 58.5006 79.6148 60.3958Z" fill="#772F1E"/>
<path id="Vector_5" d="M73.3019 61.7261C73.1166 63.4787 72.3926 65.1304 71.2299 66.4524C70.0976 67.6293 68.8456 68.6841 67.4942 69.5995C66.1659 70.4928 65.0186 71.6305 64.1131 72.9523C63.1283 74.5929 62.7203 76.517 62.9542 78.4174C62.9891 78.7131 62.5778 78.7213 62.4864 78.4884C62.105 77.5128 61.9372 76.4664 61.9943 75.4201C62.0515 74.3738 62.3323 73.352 62.8177 72.424C64.3708 69.437 67.6565 68.1159 69.9345 65.8422C71.1076 64.6751 71.8873 63.1696 72.1646 61.5363C72.1839 61.4329 72.2008 61.3285 72.2154 61.2229C72.3312 60.2692 72.3639 59.3073 72.3133 58.348C72.283 57.3754 72.2593 56.3757 72.1626 55.4075C72.1623 55.3528 72.1816 55.2997 72.2171 55.2581C72.2525 55.2164 72.3017 55.1889 72.3557 55.1806C72.4096 55.1723 72.4648 55.1838 72.5111 55.2129C72.5573 55.2419 72.5916 55.2867 72.6077 55.3391C72.8849 56.3912 73.1081 57.457 73.2763 58.5321C73.4149 59.5917 73.4235 60.6643 73.3019 61.7261Z" fill="#772F1E"/>
<path id="Vector_6" d="M69.1926 59.7289C69.1046 60.1058 68.9901 60.4761 68.8498 60.8368C68.3293 62.1228 67.5263 63.2745 66.5005 64.2064C65.0178 65.6094 63.2586 66.6521 61.7362 68.0053C60.4031 69.193 59.1359 70.6877 58.842 72.5303C58.7339 73.2943 58.8002 74.0729 59.036 74.8075C59.2718 75.5421 59.671 76.2133 60.2033 76.7707C60.4196 77.003 60.2187 77.493 59.8765 77.362C58.2716 76.7492 57.4954 75.0261 57.4785 73.3402C57.5496 71.4459 58.319 69.6454 59.6378 68.2871C61.0674 66.6788 62.9205 65.548 64.6333 64.2894C66.0658 63.3355 67.3021 62.1145 68.2748 60.6928C68.4823 60.3539 68.6575 59.9962 68.798 59.6244C68.8129 59.5731 68.8472 59.5297 68.8935 59.5035C68.9399 59.4772 68.9946 59.4701 69.0461 59.4837C69.0976 59.4973 69.1417 59.5306 69.1691 59.5764C69.1965 59.6222 69.2049 59.6769 69.1926 59.7289Z" fill="#772F1E"/>
<path id="Vector_7" d="M56.6644 68.3624C53.858 70.091 53.7988 74.1317 55.3546 76.7475C55.3884 76.806 55.4003 76.8747 55.388 76.9411C55.3758 77.0076 55.3403 77.0675 55.288 77.1101C55.2356 77.1526 55.1698 77.175 55.1024 77.1732C55.035 77.1715 54.9705 77.1456 54.9204 77.1004C54.2171 76.4011 53.682 75.5501 53.356 74.6122C53.0557 73.68 53.0127 72.6836 53.2314 71.7288C53.4225 70.8742 53.8144 70.0778 54.3745 69.4058C54.9345 68.7338 55.6466 68.2057 56.4514 67.8654C56.7385 67.7407 56.9155 68.2077 56.6644 68.3624Z" fill="#772F1E"/>
<path id="Vector_8" d="M85.1196 70.633C85.1178 74.0399 83.9623 77.3452 81.8422 80.0078C80.7544 81.4376 79.5319 82.7593 78.1917 83.9546C77.4953 84.584 76.7801 85.1891 76.058 85.7849C75.4452 86.4308 74.65 86.8732 73.7791 87.0528C73.7068 87.0525 73.6356 87.0356 73.5708 87.0034C73.506 86.9712 73.4494 86.9247 73.4053 86.8673C73.3612 86.8098 73.3307 86.7431 73.3163 86.6721C73.3018 86.6011 73.3037 86.5277 73.3218 86.4575C73.6762 85.677 74.2507 85.0175 74.9744 84.5604C75.6219 84.0358 76.2623 83.5044 76.89 82.9545C78.183 81.8509 79.3897 80.6494 80.4993 79.3607C82.5322 76.9323 84.2312 73.8753 84.5374 70.6414C84.5375 70.5648 84.5677 70.4913 84.6214 70.4368C84.6751 70.3823 84.748 70.3511 84.8244 70.35C84.9008 70.3489 84.9746 70.378 85.0298 70.4309C85.085 70.4839 85.1173 70.5565 85.1196 70.633Z" fill="#772F1E"/>
<g id="Vector_9" style="mix-blend-mode:multiply" opacity="0.28">
<path d="M17.0901 86.7234C16.4862 86.7272 15.8827 86.6964 15.2824 86.631C14.7381 86.5462 14.1989 86.4312 13.6673 86.2864C12.5938 85.9893 11.5699 85.5348 10.6289 84.9376C9.10455 84.01 7.88061 82.6599 7.10485 81.0502C6.42438 79.4189 6.21912 77.6277 6.51287 75.8842C6.82588 74.0928 7.2735 72.3277 7.8519 70.604C8.35721 68.8836 8.91741 67.0653 8.78874 65.2499C8.78858 65.1867 8.81105 65.1256 8.85206 65.0777C8.89307 65.0298 8.94989 64.9983 9.01215 64.9889C9.07441 64.9795 9.13797 64.9928 9.19124 65.0265C9.24451 65.0601 9.28394 65.1119 9.30235 65.1722C9.64751 66.9929 9.61096 68.8657 9.19502 70.6714C8.54735 73.7439 7.10248 77.2844 8.61959 80.3236C9.35903 81.7613 10.5111 82.9439 11.9273 83.7189C12.7371 84.1676 13.5853 84.543 14.4617 84.8407C14.95 85.0117 15.4437 85.1603 15.9397 85.309C16.3736 85.4398 16.7649 85.6414 17.2044 85.7651C17.7118 85.9065 17.6383 86.7507 17.0901 86.7234Z" fill="#772F1E"/>
</g>
<g id="Vector_10" style="mix-blend-mode:multiply" opacity="0.28">
<path d="M56.6644 68.3624C53.858 70.091 53.7988 74.1317 55.3546 76.7475C55.3884 76.806 55.4003 76.8747 55.388 76.9411C55.3758 77.0076 55.3403 77.0675 55.288 77.1101C55.2356 77.1526 55.1698 77.175 55.1024 77.1732C55.035 77.1715 54.9705 77.1456 54.9204 77.1004C54.2171 76.4011 53.682 75.5501 53.356 74.6122C53.0557 73.68 53.0127 72.6836 53.2314 71.7288C53.4225 70.8742 53.8144 70.0778 54.3745 69.4058C54.9345 68.7338 55.6466 68.2057 56.4514 67.8654C56.7385 67.7407 56.9155 68.2077 56.6644 68.3624Z" fill="#772F1E"/>
</g>
<g id="Vector_11" style="mix-blend-mode:multiply" opacity="0.28">
<path d="M66.5005 64.2063C65.0178 65.6092 63.2586 66.6519 61.7362 68.0051C60.4031 69.1928 59.1359 70.6875 58.842 72.5301C58.7339 73.2941 58.8002 74.0728 59.036 74.8073C59.2718 75.5419 59.671 76.2132 60.2033 76.7705C60.4196 77.0028 60.2187 77.4928 59.8765 77.3619C58.2716 76.749 57.4954 75.0259 57.4785 73.34C57.5496 71.4457 58.319 69.6452 59.6378 68.2869C61.0674 66.6786 62.9206 65.5479 64.6333 64.2892C66.0658 63.3354 67.3021 62.1143 68.2748 60.6926C68.4634 60.7414 68.6551 60.7894 68.8498 60.8366C68.3293 62.1226 67.5263 63.2744 66.5005 64.2063Z" fill="#772F1E"/>
</g>
<g id="Vector_12" style="mix-blend-mode:multiply" opacity="0.28">
<path d="M67.4942 69.5996C66.1659 70.4929 65.0186 71.6306 64.1131 72.9524C63.1283 74.593 62.7203 76.5171 62.9542 78.4175C62.9891 78.7132 62.5778 78.7214 62.4864 78.4886C62.105 77.5129 61.9372 76.4665 61.9943 75.4202C62.0515 74.3739 62.3323 73.3522 62.8177 72.4241C64.3708 69.4371 67.6565 68.1161 69.9345 65.8423C71.1076 64.6753 71.8873 63.1697 72.1646 61.5364C72.5323 61.6014 72.9102 61.665 73.3019 61.7262C73.1166 63.4789 72.3926 65.1305 71.2299 66.4525C70.0976 67.6294 68.8456 68.6842 67.4942 69.5996Z" fill="#772F1E"/>
</g>
<g id="Vector_13" style="mix-blend-mode:multiply" opacity="0.28">
<path d="M76.682 68.8766C75.4041 70.9845 73.8935 72.9414 72.1788 74.7103C71.3456 75.5718 70.4624 76.3833 69.5338 77.1404C69.0256 77.553 68.4967 77.9393 67.9492 78.2978C67.4974 78.6467 66.992 78.9196 66.4528 79.1061C66.3597 79.1286 66.2618 79.1205 66.1736 79.0831C66.0854 79.0456 66.0115 78.9808 65.9628 78.8982C65.9141 78.8155 65.8931 78.7193 65.903 78.6238C65.9129 78.5283 65.9531 78.4385 66.0176 78.3676C66.4871 77.861 67.0045 77.4015 67.5627 76.9954C68.0837 76.5347 68.6211 76.0915 69.141 75.6285C70.1354 74.7438 71.082 73.8067 71.9769 72.821C74.9148 69.5811 77.4836 65.5736 78.2519 61.1563C78.7287 60.9456 79.185 60.6909 79.6149 60.3956C79.2775 63.4059 78.2756 66.303 76.682 68.8766Z" fill="#772F1E"/>
</g>
<g id="Vector_14" style="mix-blend-mode:multiply" opacity="0.28">
<path d="M85.1196 70.633C85.1178 74.0399 83.9623 77.3452 81.8422 80.0078C80.7544 81.4376 79.5319 82.7593 78.1917 83.9546C77.4953 84.584 76.7801 85.1891 76.058 85.7849C75.4452 86.4308 74.65 86.8732 73.7791 87.0528C73.7068 87.0525 73.6356 87.0356 73.5708 87.0034C73.506 86.9712 73.4494 86.9247 73.4053 86.8673C73.3612 86.8098 73.3307 86.7431 73.3163 86.6721C73.3018 86.6011 73.3037 86.5277 73.3218 86.4575C73.6762 85.677 74.2507 85.0175 74.9744 84.5604C75.6219 84.0358 76.2623 83.5044 76.89 82.9545C78.183 81.8509 79.3897 80.6494 80.4993 79.3607C82.5322 76.9323 84.2312 73.8753 84.5374 70.6414C84.5375 70.5648 84.5677 70.4913 84.6214 70.4368C84.6751 70.3823 84.748 70.3511 84.8244 70.35C84.9008 70.3489 84.9746 70.378 85.0298 70.4309C85.085 70.4839 85.1173 70.5565 85.1196 70.633Z" fill="#772F1E"/>
</g>
</g>
</g>
<g id="Group_4">
<path id="Vector_15" d="M33.7279 128.24C33.7279 128.24 35.323 157.307 36.9798 171.426C36.9798 171.426 34.6179 179.565 33.7279 182.721C32.8378 185.877 33.2392 187.538 37.7603 187.538C42.2814 187.538 42.5526 181.226 42.1685 175.745C42.1685 175.745 41.3084 166.775 41.3807 162.623C41.453 158.47 41.9967 137.035 41.3807 129.984L33.7279 128.24Z" fill="#FFBF94"/>
<g id="Vector_16" style="mix-blend-mode:multiply" opacity="0.21">
<path d="M39.6301 150.58C40.4296 153.454 41.0364 156.378 41.4464 159.333C41.5994 151.841 41.8954 135.882 41.3802 129.984L33.7273 128.24C33.7273 128.24 34.5979 142.114 35.0276 148.839C37.211 149.208 39.6301 150.083 39.6301 150.58Z" fill="#DA8966"/>
</g>
<path id="Vector_17" d="M35.5402 176.4C35.5402 176.4 32.5892 183.468 31.3466 186.873C30.1041 190.279 32.3407 191.69 35.1572 191.94C37.9737 192.189 41.5566 191.69 42.2917 190.029C43.0269 188.368 43.2962 181.042 42.2917 176.4C42.2917 176.4 42.1985 183.302 39.7133 183.801C37.2282 184.299 34.8259 184.631 34.743 182.887C34.6602 181.143 35.5402 176.4 35.5402 176.4Z" fill="#FF6551"/>
<path id="Vector_18" d="M42.2917 176.4C42.2576 178.208 41.977 180.004 41.4577 181.736C41.6257 184.158 41.5223 186.651 39.7547 188.866C39.0506 189.572 36.9382 190.278 34.8258 189.572C34.0848 189.323 33.4044 188.921 32.829 188.39C32.2536 187.86 31.796 187.214 31.4862 186.495C31.4379 186.625 31.3909 186.752 31.3466 186.873C30.1041 190.278 32.3407 191.69 35.1572 191.939C37.9737 192.188 41.5566 191.69 42.2917 190.029C43.0269 188.368 43.2962 181.042 42.2917 176.4Z" fill="#DF4C4B"/>
</g>
<g id="Group_5">
<path id="Vector_19" d="M53.6982 128.24C53.6982 128.24 52.1031 157.307 50.4464 171.426C50.4464 171.426 52.8082 179.565 53.6982 182.721C54.5883 185.877 54.1869 187.538 49.6658 187.538C45.1447 187.538 44.8735 181.226 45.2576 175.745C45.2576 175.745 46.1177 166.775 46.0454 162.623C45.9731 158.47 45.4295 137.035 46.0454 129.984L53.6982 128.24Z" fill="#FFBF94"/>
<g id="Vector_20" style="mix-blend-mode:multiply" opacity="0.21">
<path d="M48.218 149.867C46.6581 156.123 45.9797 159.333 45.9797 159.333C45.8268 151.841 45.5307 135.882 46.0459 129.984L53.6989 128.24C53.6989 128.24 52.8749 141.449 52.4452 148.175C50.2618 148.543 48.218 149.37 48.218 149.867Z" fill="#DA8966"/>
</g>
<path id="Vector_21" d="M51.8863 176.4C51.8863 176.4 54.8373 183.468 56.0798 186.873C57.3224 190.278 55.0858 191.69 52.2693 191.939C49.4527 192.189 45.8699 191.69 45.1347 190.029C44.3996 188.368 44.1303 181.042 45.1347 176.4C45.1347 176.4 45.228 183.302 47.7131 183.8C50.1983 184.299 52.6006 184.631 52.6834 182.887C52.7663 181.143 51.8863 176.4 51.8863 176.4Z" fill="#FF6551"/>
<path id="Vector_22" d="M45.1347 176.4C45.1688 178.208 45.4494 180.004 45.9687 181.736C45.8008 184.158 45.9042 186.651 47.6717 188.866C48.3758 189.572 50.4882 190.278 52.6006 189.572C53.3417 189.323 54.022 188.921 54.5975 188.39C55.1729 187.86 55.6304 187.214 55.9402 186.495C55.9885 186.625 56.0356 186.752 56.0798 186.873C57.3224 190.278 55.0858 191.69 52.2693 191.939C49.4528 192.188 45.8699 191.69 45.1347 190.029C44.3996 188.368 44.1303 181.042 45.1347 176.4Z" fill="#DF4C4B"/>
</g>
<g id="Group_6">
<g id="Group_7">
<path id="Vector_23" d="M22.5019 126.661C21.922 125 20.1824 120.682 20.895 118.439C21.6075 116.197 22.7504 114.951 23.0818 112.875C23.4131 110.799 25.7326 94.5776 25.7326 94.5776L30.0233 95.4277C30.0233 95.4277 28.2178 105.733 27.555 108.473C26.8923 111.214 26.3125 112.294 26.561 114.121C26.8095 115.948 28.3834 121.346 27.555 121.845C26.7267 122.343 26.2937 121.18 25.8795 120.931C25.4653 120.682 25.4012 122.509 25.8154 124.585C26.2296 126.661 25.325 127.16 24.8247 126.661C24.3243 126.163 23.6453 122.841 23.6453 122.841C23.6453 122.841 24.5729 126.52 24.0758 126.84C23.5788 127.16 22.5019 126.661 22.5019 126.661Z" fill="#FFBF94"/>
<g id="Group_8">
<path id="Vector_24" d="M35.1159 75.5561C35.1159 75.5561 31.1396 75.2825 29.4828 77.3024C27.8261 79.3223 24.4955 91.8086 23.4685 93.829C23.4685 93.829 25.0096 97.5104 30.9739 96.3477C30.9739 96.3477 34.4761 82.8142 35.1159 79.5139C35.7556 76.2136 35.1159 75.5561 35.1159 75.5561Z" fill="#FFC652"/>
<path id="Vector_25" d="M24.4624 91.1252C24.1837 92.045 23.8518 92.9477 23.4685 93.8288C23.4685 93.8288 25.0096 97.5099 30.9739 96.3473C30.9739 96.3473 31.3464 94.9082 31.8693 92.8587C29.2163 93.2352 26.5443 92.8613 24.4624 91.1252Z" fill="#F7A845"/>
</g>
</g>
<g id="Group_9">
<path id="Vector_26" d="M62.6476 126.661C63.2275 125 64.9671 120.682 64.2545 118.439C63.542 116.197 62.3991 114.951 62.0677 112.875C61.7364 110.799 59.4169 94.5776 59.4169 94.5776L55.1262 95.4277C55.1262 95.4277 56.9318 105.733 57.5945 108.473C58.2572 111.214 58.837 112.294 58.5885 114.121C58.34 115.948 56.7661 121.346 57.5945 121.845C58.4228 122.343 59.0027 120.1 59.4169 119.851C59.8311 119.602 59.7483 122.509 59.3341 124.585C58.9199 126.661 59.8245 127.16 60.3248 126.661C60.8252 126.163 61.5042 122.841 61.5042 122.841C61.5042 122.841 60.5767 126.52 61.0737 126.84C61.5707 127.16 62.6476 126.661 62.6476 126.661Z" fill="#FFBF94"/>
<g id="Group_10">
<path id="Vector_27" d="M50.1101 75.5563C50.1101 75.5563 53.8798 75.1998 55.3539 76.5286C56.8281 77.8575 58.5056 82.9402 59.4709 86.7023C60.332 90.0589 62.0389 95.2589 62.0389 95.2589C62.0389 95.2589 57.8219 97.2614 54.4216 96.8462L50.7728 78.5216L50.1101 75.5563Z" fill="#FFC652"/>
<path id="Vector_28" d="M53.7747 93.5959L54.4219 96.8459C57.8222 97.2611 62.039 95.2588 62.039 95.2588C62.039 95.2588 61.6419 94.0483 61.1353 92.423C58.9655 93.6233 56.3275 93.6437 53.7747 93.5959Z" fill="#F7A845"/>
</g>
</g>
<g id="Group_11">
<g id="Group_12">
<path id="Vector_29" d="M31.599 110.762C28.3681 117.127 25.0474 123.53 21.312 129.616C21.4774 132.312 22.5785 134.866 24.4245 136.834C28.2859 129.412 31.5745 121.704 34.2614 113.778C33.4339 112.721 32.5449 111.714 31.599 110.762Z" fill="#6640D0"/>
<path id="Vector_30" d="M23.4541 128.06C23.4541 128.06 28.1873 118.14 30.3878 116.47C32.5884 114.8 32.3202 117.069 32.0067 118.215C31.6931 119.361 26.6052 130.346 25.747 132.58C25.747 132.58 23.4954 131.842 23.4541 128.06Z" fill="#864FF1"/>
</g>
<g id="Group_13">
<path id="Vector_31" d="M33.4185 112.156C29.9925 120.018 26.3864 127.44 22.2417 134.945C22.2558 136.3 22.7016 137.615 23.514 138.699C24.3265 139.782 25.463 140.577 26.7578 140.967C31.6945 132.831 34.7276 123.65 36.5018 114.33C35.2961 113.414 34.6844 112.975 33.4185 112.156Z" fill="#6640D0"/>
<path id="Vector_32" d="M24.6289 133.147C24.6289 133.147 30.3143 120.112 32.4005 117.948C34.487 115.784 34.3888 118.178 34.1166 119.327C32.6894 125.352 29.8553 131.525 27.5603 137.401C27.5604 137.401 24.8486 136.935 24.6289 133.147Z" fill="#864FF1"/>
</g>
<g id="Group_14">
<path id="Vector_33" d="M35.6987 110.654C33.0634 120.754 29.6107 130.622 25.375 140.159C25.375 140.159 27.7109 143.797 33.1207 143.989C35.6448 133.415 37.5979 122.712 38.9714 111.927C37.676 111.375 37.0216 111.116 35.6987 110.654Z" fill="#6640D0"/>
<path id="Vector_34" d="M28.1012 137.295C29.9144 130.659 32.4254 124.233 35.5921 118.128C36.9669 115.533 37.7821 117.838 37.4558 119.014C35.5565 125.86 33.6985 133.143 32.9042 140.275C32.9042 140.275 27.665 138.868 28.1012 137.295Z" fill="#864FF1"/>
</g>
<g id="Group_15">
<path id="Vector_35" d="M38.4393 112.271C36.9134 123.205 35.0525 134.038 32.9609 144.877C32.9609 144.877 37.8505 148.105 43.0483 145.703C43.0382 134.583 43.032 123.463 43.0295 112.343C41.196 112.252 40.2786 112.237 38.4393 112.271Z" fill="#6640D0"/>
<path id="Vector_36" d="M35.8239 141.407C35.9955 133.717 37.195 126.085 39.3903 118.714C40.3531 115.563 41.3092 117.641 41.3511 118.859C41.6189 126.626 41.4066 134.461 41.5934 142.262C41.5935 142.262 35.7852 142.924 35.8239 141.407Z" fill="#864FF1"/>
</g>
<g id="Group_16">
<path id="Vector_37" d="M54.7737 110.762C58.0053 117.126 61.3259 123.53 65.0614 129.615C64.8962 132.312 63.7953 134.866 61.9492 136.835C58.0877 129.412 54.799 121.704 52.1121 113.778C52.9393 112.721 53.828 111.714 54.7737 110.762Z" fill="#6640D0"/>
<path id="Vector_38" d="M62.9198 128.06C62.9198 128.06 58.1865 118.139 55.9859 116.47C53.7855 114.8 54.0537 117.069 54.3674 118.215C54.6809 119.361 59.769 130.346 60.6273 132.58C60.6273 132.58 62.8787 131.842 62.9198 128.06Z" fill="#864FF1"/>
</g>
<g id="Group_17">
<path id="Vector_39" d="M52.5396 112.156C55.9712 120.011 59.5805 127.44 63.7168 134.945C63.7027 136.3 63.2568 137.616 62.4443 138.699C61.6317 139.783 60.4951 140.577 59.2002 140.968C54.2641 132.831 51.2301 123.65 49.4568 114.33C50.6624 113.413 51.274 112.975 52.5396 112.156Z" fill="#6640D0"/>
<path id="Vector_40" d="M61.3288 133.147C61.3288 133.147 55.6432 120.112 53.557 117.948C51.4707 115.784 51.5708 118.175 51.841 119.327C53.2573 125.369 56.0978 131.533 58.3973 137.401C58.3972 137.401 61.109 136.935 61.3288 133.147Z" fill="#864FF1"/>
</g>
<g id="Group_18">
<path id="Vector_41" d="M49.3124 111.253C52.1342 121.321 55.6175 131.191 59.7396 140.798C58.7583 142.034 57.5165 143.037 56.1033 143.735C54.69 144.434 53.1402 144.811 51.5648 144.838C49.2117 134.129 47.3966 123.465 46.0466 112.583C47.3386 112.011 47.9901 111.742 49.3124 111.253Z" fill="#6640D0"/>
<path id="Vector_42" d="M56.7109 137.407C54.8737 130.75 52.4377 124.275 49.4329 118.06C48.1317 115.458 47.1986 117.805 47.5681 118.969C49.7873 125.923 51.2259 133.104 51.8569 140.378C51.8569 140.378 57.1695 139.005 56.7109 137.407Z" fill="#864FF1"/>
</g>
<g id="Group_19">
<path id="Vector_43" d="M46.2615 110.996C48.0335 122.244 49.9707 133.459 51.9417 144.673C51.9417 144.673 47.64 148.322 42.3887 145.977C42.5854 134.401 42.7397 122.825 42.8515 111.249C44.2126 111.111 44.8944 111.06 46.2615 110.996Z" fill="#6640D0"/>
<path id="Vector_44" d="M49.9889 141.385C49.4654 133.371 48.0976 125.435 45.9086 117.71C44.9713 114.509 43.9585 116.707 43.9162 117.951C43.6408 126.053 43.9542 134.349 44.1847 142.585C44.1847 142.585 50.1015 142.943 49.9889 141.385Z" fill="#864FF1"/>
</g>
</g>
<g id="Group_20">
<path id="Vector_45" d="M40.2103 73.8071C40.2103 73.8071 34.18 75.0292 33.5917 75.5564C33.0033 76.0836 29.9886 92.3616 29.6321 95.1023C29.2756 97.843 28.7786 109.553 28.7786 111.048C28.7786 112.543 32.2578 116.446 41.1215 116.695C49.9852 116.945 54.9555 114.121 55.8668 113.706C56.778 113.29 57.4526 112.377 57.4881 109.304C57.5235 106.231 55.204 88.4581 54.2928 84.6378C53.3816 80.8175 52.5532 76.0258 51.3935 75.5564C47.7781 74.3983 44.0057 73.8082 40.2103 73.8071Z" fill="#F7A845"/>
<path id="Vector_46" d="M38.7271 75.5563C38.7271 75.5563 35.8198 74.9449 34.5773 76.7184C33.3347 78.4919 31.9273 85.0421 32.2996 89.6361C32.672 94.2301 35.4885 100.376 35.4885 100.376C34.9086 101.843 32.449 97.8823 31.8692 98.3806C31.2893 98.8789 30.8504 106.279 32.2996 109.618C33.7489 112.958 38.196 114.868 44.0078 114.453C49.8195 114.038 51.5874 110.633 53.1058 108.058C54.6242 105.484 55.0708 99.4603 54.4961 99.6264C53.9215 99.7925 54.8005 99.0471 50.8136 100.625C50.8136 100.625 48.8666 101.372 50.4405 99.5453C52.0145 97.7182 52.9674 98.5072 53.5473 92.4445C54.1272 86.3818 51.9734 77.6025 51.0622 76.7184C50.1509 75.8344 47.5829 75.9174 46.7546 76.1666C45.9262 76.4157 39.4584 76.1102 38.0543 75.3534" fill="#FFC652"/>
<path id="Vector_47" d="M40.21 73.8071C40.21 73.8071 38.8098 74.0913 37.2939 74.4441C37.6959 75.5285 38.4113 76.4682 39.3489 77.1427C40.2864 77.8173 41.4033 78.1962 42.5569 78.2309C43.804 78.4145 45.0766 78.1727 46.1702 77.5443C47.2639 76.916 48.1152 75.9375 48.5877 74.7659C45.8351 74.16 43.0279 73.8387 40.21 73.8071Z" fill="#F7A845"/>
</g>
</g>
<g id="Group_21">
<path id="Vector_48" d="M46.7837 74.8149C46.7837 74.8149 45.7455 77.0137 42.547 76.6838C39.3475 76.3538 38.6787 74.689 38.6787 74.689L38.7284 72.9463L38.7274 72.9462L38.7986 70.4489L46.4369 68.956L47.1543 68.8156L47.1152 69.4564L46.9093 72.7763L46.7837 74.8149Z" fill="#EA9573"/>
<g id="Vector_49" style="mix-blend-mode:multiply" opacity="0.31">
<path d="M46.91 72.7763C45.8613 73.8353 44.5255 74.8981 43.3667 74.9279C41.0705 74.9876 38.7865 72.9967 38.729 72.9463L38.728 72.9462L38.7992 70.4489L46.4376 68.9561L47.1158 69.4564L46.91 72.7763Z" fill="#DD7258"/>
</g>
</g>
<g id="Group_22">
<path id="Vector_50" d="M66.2276 43.2705C66.2276 43.2705 69.9485 41.2925 72.078 44.1429C74.2076 46.9934 70.9961 54.3686 68.4717 55.1274C65.9473 55.8862 64.9468 55.1806 64.9468 55.1806L66.2276 43.2705Z" fill="#FFBF94"/>
<path id="Vector_51" d="M19.305 43.9795C19.305 43.9795 15.5353 42.1147 13.4791 45.0284C11.4228 47.942 14.8206 55.2174 17.3633 55.8996C19.906 56.5818 20.8882 55.8463 20.8882 55.8463L19.305 43.9795Z" fill="#FFBF94"/>
<path id="Vector_52" d="M67.8515 32.2969C67.8515 32.2969 67.3018 43.0478 66.3333 51.709L66.3322 51.7127L66.3323 51.7151L66.3283 51.7511C66.1829 53.0505 66.028 54.3032 65.8643 55.4647L65.8613 55.4876C65.3689 58.9614 64.7966 61.6137 64.1562 62.2791C61.8726 64.6497 48.7527 72.6094 43.5708 72.319C38.3888 72.0286 24.6389 65.0982 22.403 62.5497C21.6875 61.7341 20.8893 58.8359 20.1345 55.2717C18.53 47.6991 17.1218 37.1207 17.1218 37.1207C17.4507 19.6567 26.2982 13.6209 43.5846 12.7447C60.871 11.8685 67.8515 32.2969 67.8515 32.2969Z" fill="#FFBF94"/>
<g id="Group_23" style="mix-blend-mode:multiply" opacity="0.28">
<g id="Vector_53" style="mix-blend-mode:multiply" opacity="0.28">
<path d="M16.123 32.9227C15.7405 31.0463 17.0601 29.2605 18.3971 27.8209C23.0246 22.8705 28.613 18.9213 34.8189 16.2161C39.8418 14.0173 45.5682 12.6167 50.9053 13.9771C53.4252 14.7282 55.8439 15.786 58.1072 17.1268C59.1875 17.6568 60.204 18.3086 61.137 19.0694C61.9207 19.8041 62.6113 20.6326 63.1931 21.5364C65.7205 25.2106 67.7412 29.2103 69.2006 33.4268C69.5843 34.3203 69.7365 35.2966 69.6431 36.2649C69.4362 37.1424 68.9997 37.9487 68.3784 38.6007C67.1082 40.073 65.53 41.2465 63.756 42.0377C63.0147 39.2786 62.2735 36.5195 61.5322 33.7604C60.978 34.5472 60.244 35.1896 59.3916 35.6339C58.5392 36.0783 57.5931 36.3118 56.6324 36.3148C56.0031 33.7798 54.6999 31.4634 52.8616 29.6121C51.6007 31.8391 49.2069 33.3249 46.6985 34.2035C46.4889 31.5883 45.804 29.0335 44.6774 26.6654L42.4612 33.6414C41.3873 33.49 40.3622 33.0942 39.4644 32.4843C38.5667 31.8744 37.8201 31.0665 37.2818 30.1227C36.5565 30.9766 36.014 31.9707 35.6878 33.0436C35.3617 34.1164 35.2589 35.2449 35.3858 36.3592C33.844 36.5897 32.2686 36.3601 30.856 35.699C29.4435 35.0379 28.2562 33.9746 27.4423 32.6417C26.9021 35.195 26.3618 37.7483 25.8216 40.3016C23.6076 39.9337 21.6231 38.7172 20.2874 36.9091C19.5629 38.8469 19.4162 40.9542 19.8653 42.9741C19.8653 42.9741 18.2389 42.5996 17.8791 41.4153C17.5194 40.2311 16.123 32.9227 16.123 32.9227Z" fill="#DA8966"/>
</g>
</g>
<path id="Vector_54" d="M48.7852 16.9298C48.7852 16.9298 40.1312 21.1972 41.538 32.0685C41.538 32.0685 37.3901 30.4704 37.1005 25.976C37.1005 25.976 32.6835 29.9459 33.5588 35.3791C33.5588 35.3791 28.031 33.4457 28.6233 26.3341C28.6233 26.3341 23.8641 30.4273 25.6991 39.0431C25.6991 39.0431 21.1868 35.9113 21.0166 31.7703C21.0166 31.7703 17.7838 38.5645 19.6936 44.2197C18.4334 44.0458 17.2511 43.5073 16.2915 42.6701C14.6794 41.2261 13.3788 38.455 12.8959 33.0704C11.9524 22.5476 24.6144 9.4624 41.1279 10.0547C57.6414 10.647 69.5961 21.7224 71.205 30.5783C71.6893 33.1214 71.5699 35.7431 70.8566 38.2315C70.1433 40.7199 68.8561 43.0051 67.0989 44.9025C68.4662 43.1447 66.406 16.8776 48.7852 16.9298Z" fill="#672410"/>
<path id="Vector_55" d="M44.8948 17.4591C44.8948 17.4591 48.4297 24.6299 48.1875 32.2101C48.1875 32.2101 52.9483 28.2352 53.3749 25.8614C53.3749 25.8614 57.8952 29.585 58.32 35.6166C58.32 35.6166 61.723 32.9634 61.3379 29.8909C61.3379 29.8909 65.3982 33.5027 65.0478 41.5579C65.0478 41.5579 68.4241 39.4902 68.5601 35.5258C68.5601 35.5258 65.9065 11.5942 44.8948 17.4591Z" fill="#672410"/>
<path id="Vector_56" d="M52.4375 38.7911C52.6408 39.1074 52.9853 39.0679 53.3214 39.0988C53.7114 39.1345 54.0973 39.1296 54.4883 39.1334C55.2472 39.1216 56.0016 39.2536 56.7117 39.5223C57.3553 39.8174 57.9617 40.1879 58.5183 40.626C58.7916 40.8417 59.0775 41.0409 59.3743 41.2227C59.5427 41.3238 59.721 41.4073 59.9064 41.4718C60.0835 41.5226 60.2591 41.4879 60.4325 41.5505C60.6404 41.6257 60.7644 41.3666 60.6867 41.1991C60.6013 41.015 60.6195 40.8013 60.5252 40.6163C60.4155 40.4141 60.2843 40.2243 60.1338 40.0504C59.8533 39.7283 59.5398 39.4367 59.1983 39.1804C58.5131 38.64 57.7358 38.2286 56.9041 37.9662C56.0323 37.7159 55.1165 37.6589 54.2205 37.7994C53.94 37.8363 52.0284 38.1545 52.4375 38.7911H52.4375Z" fill="#5F130F"/>
<path id="Vector_57" d="M30.2734 39.6464C29.7323 39.0687 28.6792 39.3017 27.9943 39.4113C27.2143 39.5457 26.4585 39.795 25.7513 40.151C25.0605 40.4909 24.4157 40.9176 23.8323 41.4206C23.3261 41.8512 22.4831 42.6335 22.7059 43.3923C22.7368 43.4951 22.7993 43.5856 22.8846 43.6507C22.9698 43.7158 23.0734 43.7522 23.1805 43.7548C23.8036 43.8164 24.4177 43.0132 24.8692 42.6544C25.3791 42.2442 25.9359 41.8964 26.5279 41.6183C27.0997 41.3636 27.6949 41.1654 28.3051 41.0267C28.9376 40.8747 29.7949 40.971 30.2845 40.4836C30.3885 40.3684 30.4452 40.2181 30.4431 40.0628C30.441 39.9074 30.3803 39.7587 30.2733 39.6464H30.2734Z" fill="#5F130F"/>
<g id="Vector_58" style="mix-blend-mode:multiply" opacity="0.44">
<path d="M19.1963 53.0998C17.7244 52.3236 16.5956 51.0232 16.0319 49.4547C15.8008 48.7507 15.8419 47.6119 16.7051 47.4744C17.4181 47.3609 17.7235 48.3676 18.0503 48.8806C18.087 48.9401 18.1443 48.9839 18.2112 49.0037C18.2781 49.0234 18.35 49.0177 18.413 48.9876C18.4759 48.9576 18.5256 48.9052 18.5525 48.8407C18.5794 48.7762 18.5815 48.7039 18.5585 48.6379C18.2544 47.7183 17.9597 46.558 16.8991 46.4352C15.8118 46.3093 15.0085 47.3651 14.9084 48.4568C14.7859 49.7915 15.5426 51.0269 16.252 52.0389C16.9832 53.0821 17.875 53.9342 19.139 53.6357C19.1901 53.6148 19.2345 53.5805 19.2677 53.5363C19.3008 53.4922 19.3214 53.4398 19.3273 53.3849C19.3332 53.3299 19.3241 53.2744 19.301 53.2242C19.278 53.174 19.2418 53.131 19.1963 53.0998Z" fill="#DA8966"/>
</g>
<g id="Vector_59" style="mix-blend-mode:multiply" opacity="0.44">
<path d="M71.0966 47.5019C71.0196 46.4931 70.2418 45.6041 69.2765 46.0416C68.6236 46.3374 67.5852 47.7421 68.3117 48.4442C68.3299 48.4629 68.3523 48.477 68.377 48.4853C68.4017 48.4936 68.428 48.4958 68.4538 48.4918C68.4795 48.4878 68.504 48.4777 68.525 48.4622C68.546 48.4468 68.5631 48.4266 68.5747 48.4032C68.9266 47.8758 68.9611 47.0222 69.6556 46.8148C70.6068 46.5307 70.3172 48.2966 70.2176 48.8025C70.1149 49.4243 69.885 50.0181 69.5424 50.5466C69.1496 51.0187 68.649 51.389 68.0832 51.6261C68.0568 51.6454 68.0347 51.6699 68.0183 51.6983C68.002 51.7266 67.9918 51.7581 67.9883 51.7907C67.9849 51.8233 67.9884 51.8562 67.9984 51.8873C68.0085 51.9185 68.025 51.9471 68.0469 51.9715C68.8181 52.8687 69.9081 51.6307 70.3236 50.8928C70.8847 49.8543 71.152 48.6817 71.0966 47.5019Z" fill="#DA8966"/>
</g>
<g id="Group_24">
<path id="Vector_60" d="M49.0225 59.662C48.7252 60.9368 48.1636 62.1346 47.3744 63.1777C46.8324 63.8784 46.1397 64.4476 45.3479 64.8428C44.556 65.238 43.6854 65.449 42.801 65.4601C41.8116 65.5188 40.8241 65.3169 39.9367 64.8744C39.0493 64.4319 38.2929 63.7643 37.7426 62.938C37.0696 61.9602 36.5719 60.8722 36.2719 59.7228C36.2272 59.5656 36.2387 59.3977 36.3044 59.248C36.3685 59.0911 36.4888 58.9639 36.6417 58.8913C36.7946 58.8187 36.969 58.8061 37.1308 58.8559L37.3594 58.9273C40.8507 60.028 44.604 59.9631 48.0554 58.7423C48.1484 58.7087 48.2472 58.6943 48.346 58.6999C48.4447 58.7056 48.5412 58.7313 48.6298 58.7754C48.7184 58.8194 48.7971 58.8811 48.8613 58.9565C48.9254 59.0319 48.9737 59.1196 49.0031 59.2142C49.054 59.3582 49.0607 59.5142 49.0225 59.662Z" fill="#831532"/>
<path id="Vector_61" d="M49.0027 59.2142C47.1858 60.6231 44.976 61.4292 42.6807 61.5203C40.3677 61.4642 38.1333 60.668 36.304 59.248C36.3681 59.0911 36.4884 58.9639 36.6413 58.8913C36.7942 58.8187 36.9686 58.8061 37.1303 58.8559L37.3589 58.9273C40.8502 60.028 44.6036 59.9631 48.055 58.7423C48.148 58.7087 48.2468 58.6943 48.3455 58.6999C48.4442 58.7056 48.5408 58.7313 48.6294 58.7754C48.7179 58.8194 48.7967 58.8811 48.8608 58.9565C48.925 59.0319 48.9733 59.1196 49.0027 59.2142L49.0027 59.2142Z" fill="white"/>
<path id="Vector_62" d="M47.3739 63.1779C46.832 63.8787 46.1393 64.4479 45.3474 64.843C44.5556 65.2382 43.685 65.4492 42.8006 65.4603C41.8112 65.519 40.8237 65.3171 39.9363 64.8746C39.0489 64.4322 38.2924 63.7646 37.7422 62.9382C40.9096 62.0937 44.2522 62.1769 47.3739 63.1779Z" fill="#FF6551"/>
</g>
<path id="Vector_63" d="M31.9647 57.6503C32.2497 56.4435 30.7055 55.0438 28.5157 54.5238C26.3258 54.0039 24.3195 54.5608 24.0344 55.7675C23.7494 56.9743 25.2935 58.3741 27.4834 58.894C29.6733 59.4139 31.6796 58.8571 31.9647 57.6503Z" fill="#F2786B"/>
<path id="Vector_64" d="M58.1599 58.499C60.3785 58.1315 62.0136 56.841 61.8118 55.6165C61.61 54.392 59.6478 53.6972 57.4291 54.0647C55.2105 54.4322 53.5754 55.7228 53.7772 56.9472C53.979 58.1717 55.9412 58.8665 58.1599 58.499Z" fill="#F2786B"/>
<g id="Vector_65" style="mix-blend-mode:multiply" opacity="0.21">
<path d="M66.6113 48.137L66.329 51.751L65.865 55.4646L65.8619 55.4874C65.3696 58.9612 64.7973 61.6135 64.1568 62.2789C61.8733 64.6496 48.7534 72.6092 43.5715 72.3188C38.3895 72.0284 24.6396 65.0981 22.4037 62.5495C21.6882 61.734 20.89 58.8358 20.1352 55.2715C19.3085 51.6228 18.6809 47.4398 18.6809 47.4398C18.9865 49.7281 20.9075 57.335 23.0281 61.3162C24.4595 64.0034 39.0726 70.1191 44.1595 70.2993C49.2464 70.4807 56.7045 65.0484 60.696 62.6964C64.6252 60.3814 66.5607 48.3995 66.6113 48.137Z" fill="#DA8966"/>
</g>
<g id="Vector_66" style="mix-blend-mode:screen" opacity="0.27">
<path d="M77.2323 27.7407C64.5613 8.87373 49.9027 8.70509 43.1612 9.88268C40.4032 10.3664 37.6015 10.5534 34.8038 10.4404C17.579 9.73384 10.2803 20.1355 7.23071 28.0218C8.45398 14.7167 13.7365 -2.22282 39.3278 4.75305C39.3278 4.75305 44.0648 -0.997234 55.3242 0.972515C65.754 2.79667 75.0137 12.6641 77.2323 27.7407Z" fill="#772F1E"/>
</g>
<g id="Group_25" style="mix-blend-mode:multiply" opacity="0.21">
<g id="Vector_67" style="mix-blend-mode:multiply" opacity="0.21">
<path d="M42.2459 53.5929C41.5064 53.6231 40.7851 53.8315 40.1429 54.2003C40.0936 54.2244 40.0503 54.2591 40.0158 54.3019C39.8929 54.4778 40.0974 54.7009 40.2846 54.7993C41.5176 55.3317 42.9023 55.393 44.1773 54.9715C44.4955 54.9164 44.792 54.7732 45.0333 54.5581C45.1727 54.4117 45.2553 54.1515 45.1084 54.0131C45.0429 53.9615 44.9642 53.9292 44.8813 53.9199C43.6719 53.679 42.4252 53.6991 41.2242 53.9787L42.2459 53.5929Z" fill="#DA8966"/>
</g>
</g>
<path id="Vector_68" d="M40.0764 54.485C40.4038 54.3543 40.6722 54.1173 41.0164 54.0033C41.4152 53.8864 41.8294 53.831 42.2449 53.8389C42.6371 53.8222 43.03 53.8398 43.4192 53.8917C43.8181 53.9565 44.1886 54.1391 44.4835 54.4161C44.5558 54.4811 44.649 54.5181 44.7462 54.5203C44.8434 54.5225 44.9381 54.4898 45.0134 54.4281C45.0886 54.3664 45.1394 54.2798 45.1565 54.1839C45.1736 54.088 45.1559 53.9891 45.1067 53.9051C44.5591 52.9757 43.218 52.9885 42.2983 53.0178C41.5143 53.0427 39.9761 53.1577 39.7726 54.1799C39.7384 54.3518 39.8919 54.5586 40.0764 54.485H40.0764Z" fill="#D88261"/>
<g id="Group_26" style="mix-blend-mode:screen" opacity="0.11">
<g id="Vector_69" style="mix-blend-mode:screen" opacity="0.11">
<path d="M48.4027 40.512C48.502 37.0675 44.4978 36.4264 41.9641 36.7908C40.4623 37.0068 38.0357 36.9486 36.7673 37.7734C36.1587 38.1856 35.6995 38.7843 35.4585 39.4799C35.2175 40.1754 35.2077 40.9305 35.4303 41.6322C35.6953 42.2852 36.0536 42.896 36.494 43.4455C37.6809 45.1143 38.7314 46.8766 39.6351 48.7151C40.0387 49.536 40.4981 50.4521 41.3449 50.7396C41.6426 50.8207 41.9537 50.8393 42.2588 50.7943C42.564 50.7493 42.8566 50.6418 43.1184 50.4783C44.1837 49.7904 45.0024 48.7797 45.4552 47.5932C45.9747 46.4354 46.3296 45.2004 46.9126 44.0753C47.5103 42.9219 48.365 41.8197 48.4027 40.512Z" fill="#F8A37A"/>
</g>
</g>
<g id="Group_27" style="mix-blend-mode:screen" opacity="0.27">
<g id="Vector_70" style="mix-blend-mode:screen" opacity="0.27">
<path d="M40.1081 7.65401C38.2701 8.27335 36.7268 9.95983 35.4392 11.3841C34.0801 12.8674 32.8689 14.4802 31.8226 16.1996C29.8213 19.5381 28.5955 23.4647 29.1722 27.4144C29.4575 29.3682 30.1039 31.7344 31.8734 32.7918C31.9032 32.8073 31.937 32.8138 31.9704 32.8104C32.0039 32.8069 32.0357 32.7938 32.0618 32.7724C32.0878 32.7511 32.1071 32.7226 32.1172 32.6904C32.1274 32.6583 32.1279 32.6238 32.1187 32.5914C31.7371 30.9188 30.9629 29.3797 30.7328 27.6607C30.5045 25.9482 30.5858 24.2085 30.973 22.525C31.8113 18.8996 33.8122 15.7384 36.1057 12.9145C36.7691 12.0976 37.4684 11.316 38.2034 10.5695C38.9518 9.80672 39.8037 9.15636 40.5197 8.36152C40.7914 8.05989 40.5124 7.51777 40.1081 7.65401Z" fill="#772F1E"/>
</g>
<g id="Vector_71" style="mix-blend-mode:screen" opacity="0.27">
<path d="M40.7605 12.6337C41.0589 12.2041 40.4494 11.6015 40.042 11.912C37.5421 13.8177 36.6344 17.3669 36.6663 20.4414C36.6958 22.2367 37.0082 24.016 37.5922 25.7134C38.1239 27.2775 38.7823 29.2415 40.0837 30.3089C40.1429 30.3574 40.2621 30.3314 40.2516 30.2342C40.0799 28.6321 39.191 27.123 38.7391 25.5912C38.2459 24.007 37.9811 22.3603 37.9528 20.7009C37.9449 19.2453 38.1879 17.7992 38.6711 16.4264C39.1959 15.0745 39.8986 13.799 40.7605 12.6337Z" fill="#772F1E"/>
</g>
<g id="Vector_72" style="mix-blend-mode:screen" opacity="0.27">
<path d="M36.8967 7.38272C34.8869 7.79337 33.0442 9.0271 31.3917 10.2347C29.7015 11.4669 28.1285 12.853 26.6927 14.3754C23.7218 17.5316 21.0448 21.1971 20.6562 25.7148C20.4732 28.1395 21.0296 30.5628 22.2516 32.6632C22.2931 32.729 22.357 32.7776 22.4314 32.8C22.5058 32.8224 22.5857 32.8171 22.6565 32.7851C22.7273 32.753 22.7842 32.6965 22.8167 32.6257C22.8492 32.555 22.855 32.4748 22.8333 32.4001C22.1881 30.468 21.9479 28.4231 22.1277 26.3936C22.3074 24.3641 22.9033 22.3936 23.8779 20.6057C25.9396 17.1611 28.6196 14.129 31.7824 11.6627C33.4997 10.279 35.4478 9.18121 37.0764 7.69163C37.2234 7.55711 37.0567 7.35002 36.8967 7.38272Z" fill="#772F1E"/>
</g>
<g id="Vector_73" style="mix-blend-mode:screen" opacity="0.27">
<path d="M37.2427 5.70547C34.6591 5.43536 31.9109 6.5856 29.6406 7.75785C27.2945 8.97669 25.1533 10.5564 23.2948 12.4395C19.0061 16.772 16.7515 22.6131 15.3779 28.5519C14.9311 30.3676 14.6814 32.2265 14.6333 34.096C14.6098 35.0488 14.6813 36.0016 14.8466 36.9401C14.9327 37.3885 15.0495 37.8305 15.1962 38.2628C15.3781 38.6904 15.5866 39.1061 15.8205 39.5075C16.011 39.9054 16.5133 39.5888 16.455 39.2205C16.3848 38.7769 16.4255 38.3225 16.3757 37.8691C16.3375 37.5218 16.3112 37.1726 16.2855 36.8242C16.2284 36.0504 16.1728 35.2759 16.1773 34.4994C16.1948 32.9212 16.3628 31.3483 16.6792 29.8022C17.3046 26.6249 18.265 23.5233 19.5441 20.5495C20.8558 17.5821 22.7496 14.9097 25.1127 12.6913C27.4759 10.4728 30.26 8.75373 33.2995 7.63631C34.634 7.14992 36.0114 6.81319 37.3229 6.25934C37.3849 6.23727 37.4374 6.19433 37.4714 6.13782C37.5054 6.08132 37.5188 6.01475 37.5094 5.94944C37.4999 5.88413 37.4682 5.82413 37.4196 5.77964C37.371 5.73516 37.3085 5.70895 37.2427 5.70547Z" fill="#772F1E"/>
</g>
<g id="Vector_74" style="mix-blend-mode:screen" opacity="0.27">
<path d="M33.4485 4.7855C32.8337 4.75216 32.2172 4.76411 31.6042 4.82126C30.9848 4.90498 30.3678 5.00136 29.7532 5.11663C28.4983 5.35486 27.2562 5.6562 26.0316 6.01952C23.6316 6.69399 21.3685 7.78606 19.3456 9.2459C15.6551 11.9711 13.1888 16.0706 11.7565 20.4638C11.0515 22.6711 10.5919 24.9498 10.3863 27.2583C10.1229 30.0209 10.3475 32.8161 10.022 35.5718C9.66359 38.2949 8.81872 40.931 7.52785 43.3538C6.37189 45.6166 5.05912 47.8785 4.5585 50.4158C3.61626 55.1911 5.92584 60.6603 10.4869 62.4057C10.6247 62.4584 10.7497 62.2356 10.6306 62.1424C7.47599 59.6736 5.24572 55.4785 5.83034 51.3151C6.17044 48.8933 7.36781 46.728 8.49567 44.6186C9.76021 42.3882 10.7187 39.9969 11.3452 37.5094C11.965 34.7814 11.8949 32.0382 11.9859 29.2598C12.0589 27.0286 12.3601 24.8107 12.8846 22.641C13.8225 18.416 15.9232 14.5393 18.948 11.4509C20.8598 9.63368 23.1112 8.2133 25.5725 7.27152C26.8519 6.7679 28.1668 6.3602 29.5064 6.05179C30.1432 5.89977 30.7839 5.76377 31.4253 5.63433C32.1303 5.492 32.7978 5.27588 33.4911 5.0801C33.5243 5.06847 33.5523 5.04567 33.5705 5.01558C33.5887 4.98549 33.5959 4.95 33.5908 4.91519C33.5858 4.88037 33.5688 4.8484 33.5429 4.82474C33.5169 4.80108 33.4835 4.78721 33.4485 4.7855Z" fill="#772F1E"/>
</g>
<g id="Vector_75" style="mix-blend-mode:screen" opacity="0.27">
<path d="M14.6089 77.4308C14.4813 77.4594 14.3477 77.4422 14.2313 77.3823C14.115 77.3224 14.0233 77.2235 13.9721 77.1028C13.9209 76.9822 13.9134 76.8473 13.9511 76.7217C13.9887 76.5962 14.069 76.4878 14.1781 76.4154C15.7328 75.4974 16.9232 74.0688 17.5476 72.3716C18.0888 70.7586 18.1027 69.0145 17.5874 67.393C17.012 65.5854 16.0217 63.9384 14.6962 62.5841C12.1492 59.925 7.96138 57.9961 8.21245 53.643C8.21225 53.6091 8.22544 53.5764 8.24913 53.5522C8.27283 53.5279 8.30512 53.514 8.33898 53.5136C8.37283 53.5131 8.40551 53.526 8.42989 53.5496C8.45427 53.5731 8.46838 53.6054 8.46914 53.6393C8.77559 56.1459 11.0654 57.9114 12.9015 59.2725C14.615 60.4442 16.1323 61.881 17.3968 63.5292C18.2006 64.643 18.8046 65.8886 19.1816 67.2103C19.3479 67.7984 19.4644 68.3995 19.5301 69.0072C19.8977 72.4043 18.1329 76.6973 14.6089 77.4308Z" fill="#772F1E"/>
</g>
<g id="Vector_76" style="mix-blend-mode:screen" opacity="0.27">
<path d="M25.1134 71.2843C25.1086 73.1489 24.3427 75.4411 22.2306 75.5554C21.5938 75.5894 21.5868 74.7252 22.079 74.5063C23.8075 73.7358 23.8276 71.3879 23.6017 69.7598C23.4331 68.4599 22.9715 67.2155 22.2519 66.121C22.0195 65.7765 21.757 65.4534 21.4675 65.1556C20.296 63.9554 18.8133 63.1372 17.6078 61.9706C16.4635 60.9436 15.7319 59.5336 15.5499 58.0046C15.5235 57.7469 15.9047 57.7083 15.972 57.9393C16.4912 59.729 18.0911 60.9953 19.5215 62.0107C20.9576 63.0308 22.4239 63.9876 23.4409 65.4659C23.5157 65.5749 23.5883 65.6876 23.6586 65.8026C24.632 67.4631 25.1349 69.3584 25.1134 71.2843Z" fill="#772F1E"/>
</g>
<g id="Vector_77" style="mix-blend-mode:screen" opacity="0.27">
<path d="M29.6079 71.6244C29.4789 72.6017 28.6271 74.0296 27.4938 73.7771C27.4336 73.7586 27.379 73.725 27.3352 73.6796C27.2914 73.6342 27.2597 73.5784 27.2432 73.5174C27.2267 73.4564 27.2259 73.3922 27.2408 73.3309C27.2558 73.2695 27.286 73.2129 27.3286 73.1663C27.6248 72.8626 27.9666 72.7145 28.2067 72.3323C28.4146 72.0027 28.5448 71.6301 28.5875 71.2425C28.6643 70.2378 28.3572 69.2413 27.7284 68.4552C27.5637 68.2303 27.922 67.9435 28.0979 68.1516C28.9118 69.1095 29.788 70.2689 29.6079 71.6244Z" fill="#772F1E"/>
</g>
<g id="Vector_78" style="mix-blend-mode:screen" opacity="0.27">
<path d="M4.95927 74.118C4.61853 73.8695 4.30973 73.5796 4.03988 73.2551C3.77815 72.8964 3.54067 72.5205 3.32903 72.13C2.9212 71.371 2.57518 70.5802 2.29435 69.7653C1.11819 66.4672 0.761891 62.9313 1.25631 59.4641C1.40492 57.7726 1.9175 56.1335 2.75874 54.6598C2.79732 54.6076 2.85374 54.5715 2.91721 54.5583C2.98068 54.5452 3.04676 54.5559 3.10281 54.5886C3.13264 54.6079 3.15616 54.6356 3.17045 54.6683C3.18474 54.7009 3.18917 54.737 3.18321 54.7721C3.17713 54.8314 3.16993 54.8919 3.1627 54.9512C2.98196 56.5164 2.58175 58.0399 2.4642 59.6149C2.34177 61.2441 2.38294 62.8815 2.58708 64.5024C2.79397 66.1172 3.16951 67.7058 3.70753 69.2419C3.98047 70.0217 4.30138 70.7866 4.63243 71.5419C4.78618 71.8949 4.94446 72.2442 5.09364 72.5996C5.23632 72.9978 5.35244 73.4051 5.44125 73.8187C5.45907 73.8806 5.45623 73.9466 5.43315 74.0067C5.41007 74.0668 5.36803 74.1177 5.31343 74.1516C5.25883 74.1855 5.19466 74.2005 5.13072 74.1945C5.06678 74.1884 5.00657 74.1616 4.95927 74.118Z" fill="#772F1E"/>
</g>
<g id="Vector_79" style="mix-blend-mode:screen" opacity="0.27">
<path d="M51.713 20.4043C50.9294 18.6395 49.8379 17.0291 48.4897 15.6489C47.811 14.8994 47.1177 14.164 46.4346 13.4188C46.1013 13.0552 45.7785 12.6842 45.4722 12.296C45.2252 11.9076 44.9377 11.5467 44.6145 11.2194C44.6035 11.2088 44.5898 11.2014 44.575 11.1977C44.5601 11.1941 44.5446 11.1944 44.5299 11.1986C44.5152 11.2028 44.5019 11.2108 44.4912 11.2218C44.4806 11.2328 44.473 11.2464 44.4692 11.2612C44.2394 12.017 44.8998 12.8733 45.31 13.4289C45.8772 14.1972 46.4905 14.92 47.1112 15.6419C48.4093 17.0181 49.502 18.5754 50.3554 20.2653C51.1504 21.9219 51.2889 23.8192 50.7429 25.5742C50.4648 26.408 50.0957 27.2085 49.6424 27.9611C49.1396 28.629 48.7779 29.3926 48.5795 30.2054C48.5694 30.3059 48.6998 30.3365 48.7594 30.2793C49.0785 29.9152 49.3672 29.5253 49.6223 29.1136C49.8787 28.767 50.1466 28.4293 50.4137 28.0916C51.0165 27.4234 51.5259 26.6761 51.9278 25.8702C52.5684 24.0897 52.4913 22.1289 51.713 20.4043Z" fill="#772F1E"/>
</g>
<g id="Vector_80" style="mix-blend-mode:screen" opacity="0.27">
<path d="M58.6802 21.2079C56.3367 17.8753 52.8664 15.8107 49.7156 13.4112C48.8075 12.7314 47.936 12.0036 47.1051 11.2309C46.2582 10.4298 45.4882 9.55851 44.6706 8.73007C44.6489 8.70996 44.6212 8.69754 44.5917 8.69471C44.5623 8.69188 44.5327 8.6988 44.5075 8.71441C44.4824 8.73002 44.463 8.75345 44.4524 8.78114C44.4418 8.80883 44.4405 8.83924 44.4487 8.86773C45.2024 10.5806 46.3647 12.0814 47.8332 13.2378C49.2852 14.5177 50.8805 15.6201 52.4223 16.7785C55.3961 19.013 58.5481 21.6701 59.4625 25.5357C59.9258 27.8226 59.7386 30.194 58.9225 32.3795C58.8297 32.6483 59.2025 32.7542 59.3398 32.5542C61.7048 29.1077 60.9803 24.4789 58.6802 21.2079Z" fill="#772F1E"/>
</g>
<g id="Vector_81" style="mix-blend-mode:screen" opacity="0.27">
<path d="M66.8469 29.1611C66.6045 26.2993 65.8387 23.5067 64.5879 20.9229C63.3143 18.439 61.4564 16.3036 59.1749 14.7013C57.0147 13.2507 54.7008 12.0448 52.2755 11.1056C50.9637 10.5871 49.6849 9.98833 48.4463 9.31282C47.2675 8.56809 46.1519 7.72737 45.1107 6.79914C44.987 6.69703 44.7358 6.79362 44.8116 6.98473C45.6903 9.20105 48.0535 10.5228 50.0302 11.5249C52.3116 12.6815 54.7135 13.5339 56.9088 14.8764C59.1969 16.2095 61.139 18.0651 62.5772 20.2923C64.016 22.7383 64.9214 25.4622 65.2337 28.2845C65.453 30.0546 65.5748 31.8354 65.5984 33.619C65.6152 34.5581 65.6308 35.4905 65.6838 36.4286C65.6941 37.3054 65.7979 38.1786 65.9936 39.0333C66.0015 39.0602 66.018 39.0837 66.0405 39.1004C66.0631 39.117 66.0904 39.1258 66.1184 39.1254C66.1463 39.125 66.1734 39.1154 66.1955 39.0981C66.2175 39.0809 66.2333 39.0569 66.2405 39.0297C66.7407 37.4643 66.9874 35.8286 66.9713 34.1849C67.037 32.5093 66.9955 30.8313 66.8469 29.1611Z" fill="#772F1E"/>
</g>
<g id="Vector_82" style="mix-blend-mode:screen" opacity="0.27">
<path d="M71.3717 27.7114C71.2023 24.2605 70.2608 20.892 68.617 17.8552C67.0197 15.0169 64.8778 12.5237 62.3147 10.5194C59.7517 8.51515 56.8182 7.03941 53.6834 6.17734C51.872 5.65911 50.0109 5.33506 48.1313 5.21063C46.2221 5.08506 44.2618 5.3402 42.3962 4.81397C42.3659 4.80777 42.3345 4.81145 42.3064 4.82449C42.2784 4.83752 42.2552 4.85922 42.2404 4.88641C42.2256 4.91359 42.2198 4.94482 42.224 4.97552C42.2281 5.00623 42.242 5.03479 42.2635 5.05701C43.452 6.05458 45.0203 6.05586 46.4796 6.12778C48.1348 6.2114 49.7802 6.43452 51.3981 6.79475C54.629 7.49726 57.6932 8.82197 60.4205 10.6954C63.0062 12.4782 65.1889 14.7866 66.8264 17.4705C68.464 20.1544 69.52 23.1538 69.9256 26.2737C70.1543 28.3694 70.1708 30.483 69.9748 32.582C69.7962 34.6589 69.3463 36.7626 69.4033 38.8517C69.4036 38.8915 69.417 38.9301 69.4413 38.9615C69.4656 38.9929 69.4996 39.0154 69.538 39.0256C69.5764 39.0357 69.617 39.0329 69.6536 39.0176C69.6903 39.0023 69.7209 38.9754 69.7407 38.9409C70.4921 37.1833 70.9575 35.3163 71.1194 33.4109C71.3696 31.5222 71.4541 29.615 71.3717 27.7114Z" fill="#772F1E"/>
</g>
<g id="Vector_83" style="mix-blend-mode:screen" opacity="0.27">
<path d="M84.526 65.5691C84.039 68.6894 82.7859 71.6392 80.8793 74.1533C79.042 76.6706 76.4577 78.5408 73.496 79.4964C73.4025 79.5177 73.3046 79.5054 73.2193 79.4616C73.1339 79.4179 73.0666 79.3455 73.0291 79.257C72.9916 79.1686 72.9863 79.0698 73.0141 78.9778C73.0419 78.8858 73.101 78.8066 73.1812 78.7539C73.8251 78.4151 74.4461 78.0341 75.0399 77.6133C79.8904 74.1699 83.3445 68.6652 83.151 62.4398C83.0977 60.9568 82.8819 59.4842 82.5075 58.0486C81.3339 53.446 78.8057 49.2026 76.8162 44.9609C75.4002 42.1371 74.3661 39.1365 73.7415 36.0385C73.0821 32.2525 73.6393 28.4183 73.2272 24.6158C72.8215 20.8629 70.8204 17.72 68.9716 14.5619C67.2471 11.6175 65.3647 8.68359 62.7269 6.52179C57.442 2.18876 50.3782 2.55982 44.1088 3.69962C44.0342 3.71573 43.9562 3.70274 43.8909 3.66329C43.8255 3.62384 43.7776 3.56088 43.7569 3.48725C43.7362 3.41362 43.7442 3.33484 43.7794 3.26696C43.8146 3.19908 43.8743 3.14719 43.9463 3.12187C44.7263 2.82631 45.5243 2.58079 46.3355 2.38681C52.9443 0.914234 60.1456 1.82686 65.1873 6.82512C67.6802 9.29683 69.5406 12.3778 71.3304 15.4041C72.3497 17.0431 73.2221 18.7693 73.9373 20.5627C74.6007 22.4657 74.9542 24.4633 74.9841 26.4788C75.0587 28.5353 74.9488 30.5944 75.0314 32.6508C75.0997 34.4011 75.3699 36.1377 75.8367 37.8257C76.802 40.9469 78.0551 43.9712 79.58 46.8593C81.1537 49.8621 82.4954 52.9814 83.5932 56.1898C84.6116 59.2044 84.9306 62.4123 84.526 65.5691Z" fill="#772F1E"/>
</g>
<g id="Vector_84" style="mix-blend-mode:multiply" opacity="0.28">
<path d="M5.44125 73.8187C5.45907 73.8806 5.45624 73.9466 5.43316 74.0067C5.41009 74.0668 5.36804 74.1177 5.31344 74.1516C5.25884 74.1855 5.19468 74.2006 5.13073 74.1945C5.06679 74.1885 5.00658 74.1616 4.95927 74.118C4.61853 73.8695 4.30973 73.5797 4.03989 73.2552C3.77816 72.8965 3.54067 72.5206 3.32903 72.13C2.9212 71.371 2.57518 70.5802 2.29435 69.7653C1.11819 66.4672 0.761889 62.9314 1.25632 59.4641C1.40493 57.7726 1.91751 56.1335 2.75875 54.6598C2.79732 54.6076 2.85374 54.5715 2.91721 54.5583C2.98069 54.5452 3.04676 54.5559 3.10281 54.5886C3.1216 54.7079 3.14158 54.8295 3.16266 54.9512C2.98193 56.5164 2.58172 58.0399 2.46417 59.6149C2.34174 61.2441 2.38291 62.8815 2.58705 64.5024C2.79393 66.1172 3.16948 67.7058 3.7075 69.2419C3.98044 70.0217 4.30135 70.7866 4.6324 71.5419C4.78615 71.8949 4.94443 72.2442 5.09361 72.5996C5.23629 72.9978 5.35243 73.4051 5.44125 73.8187Z" fill="#772F1E"/>
</g>
<g id="Vector_85" style="mix-blend-mode:multiply" opacity="0.28">
<path d="M19.5314 69.0073C19.899 72.4044 18.1342 76.6974 14.6102 77.431C14.4826 77.4595 14.349 77.4423 14.2326 77.3824C14.1163 77.3225 14.0246 77.2236 13.9734 77.103C13.9222 76.9823 13.9147 76.8475 13.9524 76.7219C13.99 76.5963 14.0703 76.4879 14.1794 76.4155C15.7341 75.4975 16.9245 74.0689 17.5489 72.3718C18.0901 70.7587 18.104 69.0146 17.5887 67.3931C18.124 67.3745 18.6571 67.3134 19.1829 67.2104C19.3492 67.7985 19.4657 68.3996 19.5314 69.0073Z" fill="#772F1E"/>
</g>
<g id="Vector_86" style="mix-blend-mode:multiply" opacity="0.28">
<path d="M23.658 65.8026C24.6311 67.4631 25.134 69.3584 25.1124 71.2843C25.1077 73.1489 24.3419 75.4412 22.2302 75.5554C21.5935 75.5894 21.5865 74.7253 22.0786 74.5064C23.8068 73.7358 23.8269 71.3879 23.601 69.7598C23.4325 68.4599 22.971 67.2155 22.2515 66.121C22.651 65.9211 23.0458 65.7012 23.4403 65.4659C23.5151 65.5749 23.5877 65.6876 23.658 65.8026Z" fill="#772F1E"/>
</g>
<g id="Vector_87" style="mix-blend-mode:multiply" opacity="0.28">
<path d="M28.0979 68.1517C28.9118 69.1095 29.788 70.2688 29.6079 71.6244C29.4789 72.6017 28.6271 74.0296 27.4938 73.7771C27.4336 73.7586 27.379 73.725 27.3352 73.6796C27.2914 73.6342 27.2597 73.5784 27.2432 73.5174C27.2267 73.4564 27.2259 73.3922 27.2408 73.3308C27.2558 73.2694 27.286 73.2128 27.3286 73.1663C27.6248 72.8626 27.9666 72.7145 28.2067 72.3322C28.4146 72.0027 28.5448 71.63 28.5875 71.2425C28.6643 70.2377 28.3571 69.2413 27.7283 68.4552C27.5637 68.2303 27.922 67.9435 28.0979 68.1517Z" fill="#772F1E"/>
</g>
<g id="Vector_88" style="mix-blend-mode:multiply" opacity="0.28">
<path d="M84.5256 65.5691C84.0386 68.6894 82.7854 71.6393 80.8789 74.1533C79.0416 76.6706 76.4572 78.5408 73.4956 79.4964C73.4021 79.5177 73.3042 79.5054 73.2188 79.4616C73.1335 79.4179 73.0662 79.3455 73.0287 79.257C72.9912 79.1686 72.9859 79.0698 73.0137 78.9778C73.0414 78.8858 73.1006 78.8066 73.1807 78.7539C73.8247 78.4152 74.4456 78.0341 75.0395 77.6133C79.8899 74.1699 83.3441 68.6652 83.1505 62.4398C83.0972 60.9568 82.8814 59.4843 82.507 58.0486C82.9074 57.4524 83.27 56.8316 83.5928 56.1898C84.6112 59.2044 84.9302 62.4123 84.5256 65.5691Z" fill="#772F1E"/>
</g>
</g>
<g id="Group_28">
<path id="Vector_89" d="M30.8444 52.8437C33.4889 52.8437 35.6326 50.6295 35.6326 47.8982C35.6326 45.1669 33.4889 42.9528 30.8444 42.9528C28.1999 42.9528 26.0562 45.1669 26.0562 47.8982C26.0562 50.6295 28.1999 52.8437 30.8444 52.8437Z" fill="white"/>
<path id="Vector_90" d="M34.8925 48.8031C34.7674 49.2823 34.5481 49.7316 34.2474 50.1247C33.9467 50.5178 33.5708 50.8467 33.1416 51.0922C32.7124 51.3376 32.2386 51.4946 31.748 51.554C31.2574 51.6134 30.76 51.574 30.2848 51.438C29.3237 51.1363 28.5185 50.4694 28.0416 49.5801C27.5648 48.6908 27.4541 47.6496 27.7334 46.6795C27.8585 46.2003 28.0778 45.751 28.3785 45.3579C28.6791 44.9648 29.0551 44.6359 29.4843 44.3904C29.9135 44.145 30.3873 43.988 30.8779 43.9286C31.3684 43.8692 31.8659 43.9086 32.341 44.0446C33.3022 44.3463 34.1074 45.0132 34.5842 45.9025C35.0611 46.7919 35.1717 47.833 34.8925 48.8031Z" fill="black"/>
<path id="Vector_91" d="M33.2727 49.589C33.2363 49.7283 33.1726 49.8588 33.0853 49.9731C32.9979 50.0873 32.8887 50.1829 32.764 50.2542C32.6393 50.3255 32.5016 50.3711 32.3591 50.3884C32.2166 50.4056 32.0721 50.3942 31.934 50.3547C31.6548 50.267 31.4209 50.0732 31.2824 49.8148C31.1438 49.5564 31.1117 49.2539 31.1928 48.972C31.2292 48.8328 31.2929 48.7022 31.3802 48.588C31.4676 48.4737 31.5768 48.3781 31.7015 48.3068C31.8262 48.2355 31.9638 48.1899 32.1064 48.1726C32.2489 48.1553 32.3934 48.1668 32.5315 48.2063C32.8107 48.294 33.0446 48.4878 33.1831 48.7462C33.3217 49.0046 33.3538 49.3071 33.2727 49.589Z" fill="white"/>
</g>
<g id="Group_29">
<path id="Vector_92" d="M50.4974 48.0904C50.5687 48.7249 50.7648 49.3389 51.0743 49.8969C51.3839 50.4548 51.8007 50.9457 52.3007 51.3412C52.8007 51.7366 53.3739 52.0287 53.9872 52.2005C54.6006 52.3724 55.2418 52.4206 55.8738 52.3424C57.151 52.1464 58.2995 51.4535 59.0702 50.4139C59.8409 49.3743 60.1716 48.0719 59.9906 46.7894C59.9193 46.1549 59.7232 45.541 59.4137 44.983C59.1041 44.425 58.6873 43.9341 58.1873 43.5387C57.6873 43.1433 57.1141 42.8512 56.5008 42.6793C55.8874 42.5075 55.2462 42.4593 54.6142 42.5375C53.3371 42.7335 52.1886 43.4264 51.4178 44.466C50.6471 45.5056 50.3164 46.8079 50.4974 48.0904Z" fill="white"/>
<path id="Vector_93" d="M51.2342 47.7275C51.2897 48.2209 51.4422 48.6984 51.6829 49.1323C51.9237 49.5663 52.2479 49.9481 52.6368 50.2556C53.0257 50.5631 53.4716 50.7903 53.9486 50.9239C54.4257 51.0576 54.9244 51.0951 55.416 51.0342C56.4093 50.8818 57.3026 50.3429 57.9021 49.5344C58.5015 48.7259 58.7588 47.713 58.618 46.7156C58.5625 46.2221 58.41 45.7446 58.1692 45.3107C57.9285 44.8767 57.6043 44.495 57.2154 44.1874C56.8265 43.8799 56.3806 43.6527 55.9036 43.5191C55.4265 43.3854 54.9278 43.348 54.4362 43.4088C53.4428 43.5612 52.5495 44.1002 51.9501 44.9087C51.3507 45.7172 51.0934 46.73 51.2342 47.7275Z" fill="black"/>
<path id="Vector_94" d="M52.3229 48.179C52.3391 48.3224 52.3834 48.4611 52.4533 48.5872C52.5233 48.7133 52.6175 48.8242 52.7305 48.9136C52.8434 49.0029 52.973 49.069 53.1116 49.1078C53.2502 49.1466 53.3951 49.1575 53.5379 49.1399C53.8265 49.0956 54.086 48.939 54.2601 48.704C54.4343 48.4691 54.509 48.1748 54.4681 47.885C54.452 47.7416 54.4077 47.6028 54.3377 47.4767C54.2678 47.3506 54.1736 47.2397 54.0606 47.1504C53.9477 47.061 53.8181 46.995 53.6795 46.9562C53.5409 46.9173 53.396 46.9064 53.2532 46.9241C52.9646 46.9684 52.7051 47.125 52.531 47.3599C52.3568 47.5949 52.2821 47.8892 52.3229 48.179Z" fill="white"/>
</g>
</g>
</g>
</g>
</svg>
