<svg width="88" height="134" viewBox="0 0 88 134" fill="none" xmlns="http://www.w3.org/2000/svg">
<g id="girl">
<g id="Group">
<g id="Group_2">
<path id="Vector" d="M56.378 111.556C56.2296 112.221 56.0571 112.881 55.8605 113.537C55.2204 115.573 54.4434 117.562 53.5348 119.492C52.4875 121.794 49.57 128.622 48.6113 129.372C48.1955 129.723 47.6724 129.921 47.1291 129.932C46.5858 129.943 46.0553 129.767 45.6258 129.432C45.5454 124.5 44.7764 118.25 44.8176 113.317C44.8218 112.863 44.7702 111.794 44.6878 110.411C44.6217 109.331 44.5393 108.059 44.4506 106.74C44.4425 106.618 44.3882 106.504 44.2988 106.421C44.2095 106.339 44.092 106.294 43.9706 106.296C43.8492 106.297 43.7331 106.346 43.6464 106.431C43.5596 106.517 43.5087 106.632 43.5043 106.754C43.463 107.925 43.4259 109.103 43.3991 110.208C43.3558 111.979 43.3373 113.555 43.3661 114.591C43.4589 117.941 42.7847 122.714 42.7847 126.068C42.7847 126.756 42.8507 127.4 42.8878 128.081C42.8919 128.164 42.9187 128.344 42.9373 128.547V128.552C42.9699 128.796 42.963 129.043 42.9167 129.285C42.9042 129.343 42.8722 129.395 42.826 129.432C42.3961 129.767 41.8652 129.943 41.3216 129.932C40.778 129.921 40.2546 129.724 39.8384 129.372C38.8818 128.622 35.9643 121.794 34.917 119.492C34.0345 117.617 33.2755 115.686 32.6449 113.711C32.6263 113.653 32.6078 113.595 32.5913 113.537C31.2972 109.031 30.967 104.302 31.6222 99.659C31.7686 98.5155 31.9631 97.3775 32.2057 96.245C32.2573 96.0026 32.3109 95.7603 32.3686 95.5179C32.4903 94.9896 32.6202 94.4634 32.7624 93.9394C32.9253 93.3344 33.0985 92.7316 33.2861 92.1329C33.4428 91.6274 33.6098 91.124 33.783 90.6227L40.9972 89.5372L48.5598 89.705L54.6688 90.6227C55.0523 91.731 55.3973 92.8531 55.7038 93.989C55.8894 94.6872 56.0592 95.3894 56.2131 96.0959C56.4625 97.2456 56.6646 98.4057 56.8172 99.5678C57.3776 103.559 57.2289 107.618 56.378 111.556Z" fill="#2435A1"/>
<g id="Vector_2" style="mix-blend-mode:multiply" opacity="0.4">
<path d="M42.7854 126.068C42.7854 126.755 42.8513 127.4 42.8884 128.081C42.8925 128.164 42.9194 128.344 42.9379 128.547V128.551C42.9296 128.8 42.9214 129.045 42.9173 129.285C42.9048 129.343 42.8728 129.395 42.8266 129.432C42.3968 129.766 41.8659 129.943 41.3223 129.932C40.7787 129.921 40.2552 129.723 39.839 129.372C38.8824 128.622 35.965 121.794 34.9176 119.492C34.0351 117.617 33.2761 115.686 32.6455 113.711C33.3569 114.57 34.2526 115.257 35.2656 115.719C36.2785 116.182 37.3825 116.408 38.4948 116.381C41.1297 116.325 42.639 112.83 43.3998 110.208C43.3564 111.979 43.3379 113.555 43.3668 114.591C43.4595 117.941 42.7854 122.714 42.7854 126.068Z" fill="#30A2BE"/>
</g>
<path id="Vector_3" d="M42.9647 125.323C42.9859 125.096 42.9324 124.695 42.3073 125.143C41.6823 125.591 38.4798 125.972 37.405 125.099C36.7319 124.552 37.5451 126.408 38.247 127.871L38.2483 127.874L38.2528 127.883C38.3499 128.085 39.6839 130.966 37.1879 131.587C34.9642 132.14 40.946 132.39 40.946 132.39L42.2145 132.012L42.7246 130.589L42.4607 129.738C42.4939 129.632 42.5203 129.523 42.5399 129.414C42.7658 128.157 42.9436 125.55 42.9647 125.323Z" fill="#FF6551"/>
<path id="Vector_4" d="M42.5418 132.608C42.4272 132.955 42.2119 133.259 41.9236 133.482C41.6353 133.705 41.2872 133.835 40.9242 133.858C39.1491 133.967 35.4214 134.143 34.0933 133.792C32.3244 133.324 32.6008 130.518 34.8118 129.717C37.0229 128.915 40.3003 130.018 41.1688 130.652C41.239 130.711 41.3252 130.749 41.4165 130.759C41.5077 130.769 41.6 130.752 41.6815 130.709C41.8697 130.58 42.0163 130.398 42.1032 130.186C42.2442 129.889 42.3551 129.579 42.4343 129.261C42.5337 128.883 42.614 128.5 42.6751 128.114C42.7395 127.72 42.7897 127.324 42.8258 126.926C42.8579 126.577 42.8807 126.227 42.8868 125.876C42.8894 125.728 42.8879 125.581 42.8814 125.433C42.8793 125.383 42.8266 125.055 42.8907 125.047C42.9447 125.041 42.9712 125.17 42.9725 125.197C42.988 125.525 43.0023 125.853 43.0123 126.181C43.0233 126.546 43.0303 126.911 43.0333 127.275C43.0368 127.709 43.0339 128.143 43.0246 128.577C43.0141 129.037 42.9954 129.497 42.964 129.956C42.9338 130.399 42.8922 130.841 42.8297 131.28C42.7789 131.664 42.702 132.045 42.5997 132.419C42.5816 132.482 42.5623 132.545 42.5418 132.608Z" fill="#F37A7C"/>
<g id="Vector_5" style="mix-blend-mode:multiply" opacity="0.4">
<path d="M56.3785 111.556C56.2301 112.221 56.0576 112.881 55.861 113.536C55.2209 115.572 54.4439 117.562 53.5353 119.492C52.4879 121.794 49.5705 128.622 48.6118 129.372C48.196 129.723 47.6729 129.921 47.1296 129.932C46.5863 129.943 46.0557 129.766 45.6263 129.432C45.5459 124.499 44.7769 118.249 44.8181 113.317C44.8222 112.863 44.7707 111.794 44.6882 110.41C45.416 113.168 46.952 116.959 49.9004 117.242C52.5559 117.499 54.8714 114.336 56.3785 111.556Z" fill="#30A2BE"/>
</g>
<path id="Vector_6" d="M45.4968 125.323C45.4756 125.096 45.5291 124.695 46.1542 125.143C46.7793 125.591 49.9817 125.972 51.0565 125.099C51.7297 124.552 50.9164 126.408 50.2145 127.871L50.2131 127.874L50.2087 127.883C50.1115 128.085 48.7776 130.966 51.2736 131.587C53.4973 132.14 47.5154 132.39 47.5154 132.39L46.247 132.012L45.7369 130.589L46.0008 129.738C45.9675 129.632 45.9411 129.523 45.9216 129.414C45.6957 128.157 45.5179 125.55 45.4968 125.323Z" fill="#FF6551"/>
<path id="Vector_7" d="M45.9196 132.608C46.0342 132.955 46.2496 133.259 46.5379 133.482C46.8262 133.705 47.1742 133.835 47.5372 133.858C49.3124 133.967 53.0401 134.143 54.3682 133.792C56.1371 133.324 55.8608 130.518 53.6496 129.717C51.4385 128.915 48.1612 130.018 47.2927 130.652C47.2225 130.711 47.1363 130.749 47.045 130.759C46.9537 130.769 46.8615 130.752 46.78 130.709C46.5918 130.58 46.4452 130.398 46.3583 130.186C46.2173 129.889 46.1064 129.579 46.0271 129.261C45.9278 128.883 45.8475 128.5 45.7864 128.114C45.722 127.72 45.6717 127.324 45.6357 126.926C45.6035 126.577 45.5808 126.227 45.5747 125.876C45.5721 125.728 45.5736 125.581 45.5801 125.433C45.5823 125.383 45.6349 125.055 45.5708 125.047C45.5168 125.041 45.4903 125.17 45.489 125.197C45.4735 125.525 45.4591 125.853 45.4492 126.181C45.4382 126.546 45.4312 126.911 45.4282 127.275C45.4247 127.709 45.4276 128.143 45.437 128.577C45.4474 129.037 45.4662 129.497 45.4975 129.956C45.5277 130.399 45.5692 130.841 45.6318 131.28C45.6826 131.664 45.7595 132.045 45.8618 132.419C45.8798 132.482 45.8991 132.545 45.9196 132.608Z" fill="#F37A7C"/>
</g>
<g id="Group_3">
<path id="Vector_8" d="M58.4774 69.005C58.7865 71.3965 58.7878 73.8181 58.4816 76.2099L58.4795 76.2183C58.4712 76.297 58.4609 76.3757 58.4527 76.4565C57.8577 81.2157 56.952 85.9304 55.7415 90.5703C55.6404 90.9473 55.5387 91.3091 55.4363 91.6558L55.4342 91.6641C55.3538 91.9417 55.2734 92.2089 55.1931 92.4638C53.2016 93.0003 51.1802 93.4181 49.1397 93.715C38.7091 95.219 33.1589 92.4783 33.1589 92.4783C32.6207 89.8783 31.5156 80.3594 31.0703 76.4088C30.9486 75.3482 30.8765 74.6874 30.8744 74.6728C30.462 69.5829 32.0813 64.9768 36.3595 64.6206C36.7492 64.5873 49.8513 64.2382 51.0354 64.4221C58.2997 65.5504 58.4774 69.005 58.4774 69.005Z" fill="#FF6551"/>
<path id="Vector_9" d="M51.7754 66.7777L51.2703 64.4526C51.2703 64.4526 63.1879 65.5054 68.1209 80.1682C68.2814 80.7681 68.2524 81.4033 68.038 81.9859C67.8236 82.5685 67.4343 83.0698 66.924 83.4205C66.4137 83.7712 65.8076 83.9539 65.1895 83.9434C64.5714 83.9329 63.9717 83.7297 63.4735 83.362C61.9058 82.372 59.7375 78.5926 58.1301 77.19C54.4899 74.0137 51.7097 70.9228 51.7754 66.7777Z" fill="#FF6551"/>
<path id="Vector_10" d="M68.041 79.9962C68.5069 80.4114 68.3725 88.3008 58.3907 93.6783C57.2863 92.8298 56.5124 91.6197 56.2034 90.2578C56.2034 90.2578 60.8392 82.5647 62.7693 81.7096C64.4886 81.0269 66.2494 80.4546 68.041 79.9962Z" fill="#FF6551"/>
<path id="Vector_11" d="M38.4343 64.5776C39.1676 65.5761 40.1358 66.3762 41.2523 66.9066C42.3688 67.4369 43.5987 67.6809 44.832 67.6167C46.0366 67.577 47.2175 67.27 48.2901 66.7177C49.3627 66.1655 50.3004 65.3816 51.0359 64.4222C50.6452 64.2109 50.2381 64.0316 49.8187 63.886C48.4435 63.7679 41.3282 63.5986 39.7633 63.754C39.4066 63.7891 38.5601 64.5589 38.4343 64.5776Z" fill="#DF4C4B"/>
<path id="Vector_12" d="M58.4772 76.1619C58.471 76.2364 58.4628 76.3131 58.4525 76.3897C57.8588 81.171 56.9531 85.9079 55.7412 90.5698C55.6381 90.9448 55.5364 91.3066 55.4361 91.6553L55.434 91.6636C55.3536 91.9391 55.2732 92.2023 55.1929 92.4571C53.2006 92.9919 51.1795 93.4117 49.1394 93.7145C38.7089 95.2185 33.1586 92.4778 33.1586 92.4778C32.6205 89.8778 31.5154 80.3589 31.0701 76.4084C31.9979 79.1056 35.7379 88.0549 44.6695 88.494C54.9537 88.9996 58.3288 76.7253 58.4772 76.1619Z" fill="#DF4C4B"/>
<path id="Vector_13" d="M56.6152 90.5909C56.4669 90.4126 56.2742 90.2771 56.0567 90.1981C55.9073 90.1518 55.1088 90.0545 53.1938 90.6076C52.856 90.7052 51.5719 91.3497 51.7271 92.1308C51.8391 92.6953 53.2871 92.2521 53.8073 92.2057C53.3649 92.2804 51.1143 92.832 51.2699 93.6779C51.4251 94.5215 53.921 93.7446 53.921 93.7446C53.921 93.7446 51.9214 94.2745 51.9426 95.0478C51.9638 95.8212 54.8293 95.1304 54.8293 95.1304C54.8293 95.1304 53.1483 95.5355 53.4054 96.3021C53.5272 96.665 54.7558 96.5685 55.0219 96.5347C55.4442 96.4878 55.8569 96.3762 56.2457 96.204C57.0706 95.8054 57.7175 95.1116 58.0595 94.2586C58.1359 94.0575 58.2416 93.8689 58.3732 93.699L58.39 93.678C58.6189 93.3933 58.083 92.6448 57.9506 92.4304C57.6198 91.9054 57.2619 91.3982 56.8783 90.9108C56.7954 90.8036 56.7089 90.6931 56.6152 90.5909Z" fill="#FFBF94"/>
<path id="Vector_14" d="M22.1332 68.3589L22.6952 68.0289C23.0783 67.6327 23.332 67.1286 23.4225 66.5838C23.5131 66.039 23.4362 65.4795 23.2021 64.9797C22.3879 63.1911 23.429 62.7096 23.5482 62.1112C23.6674 61.5129 22.7825 61.1046 22.0541 61.827C21.7539 62.1519 21.5728 62.5699 21.5408 63.012C21.5209 63.1888 21.2092 63.2643 21.0913 62.8555C20.6456 61.3109 20.6015 58.4124 19.6037 58.3529C18.5752 58.2915 19.1474 59.5686 19.8547 62.8304C19.6239 63.0514 17.808 57.6508 16.9089 58.1168C15.9772 58.5995 18.7393 63.6822 18.4937 63.6814C18.4142 63.7356 15.9596 59.394 15.405 59.8318C14.87 60.2541 16.0759 62.1148 17.3029 64.8064C17.1421 64.8771 14.7034 62.3097 14.3916 63.3636C14.2533 63.8314 16.4083 65.3379 17.4772 67.1479C18.5032 68.8855 19.4277 69.5043 20.1934 69.2333C20.8546 68.9757 21.5021 68.6838 22.1332 68.3589Z" fill="#FFBF94"/>
<path id="Vector_15" d="M34.1535 65.7069C34.3539 65.7448 34.5501 65.8023 34.7394 65.8787C35.1666 66.0536 35.5491 66.3232 35.8582 66.6673C36.1674 67.0114 36.3953 67.4211 36.5249 67.866C36.9846 69.4902 36.0575 71.151 35.1672 72.5832C32.3562 77.1056 28.6071 82.2912 23.207 83.9505C21.165 84.5797 18.5719 82.9036 20.0044 79.6902C20.7612 77.9923 24.1833 75.3075 25.3412 73.5124C26.5969 71.5295 28.0543 69.6831 29.69 68.003C30.8808 66.8018 32.3773 65.375 34.1535 65.7069Z" fill="#FF6551"/>
<path id="Vector_16" d="M21.9646 83.942C19.1758 84.0039 18.4646 79.9962 18.267 78.5617C17.7827 75.045 18.3159 68.2412 18.3159 68.2412C18.9724 68.5339 19.6836 68.6821 20.4019 68.6759C21.1201 68.6697 21.8287 68.5092 22.4801 68.2052C22.9922 69.982 23.4399 71.783 23.8164 73.5935C24.0745 74.8349 24.3389 76.1299 24.51 77.3743C24.7619 79.4402 24.3062 81.5306 23.218 83.3016C23.091 83.4971 22.9182 83.6583 22.7148 83.7713C22.5115 83.8842 22.2837 83.9454 22.0514 83.9495C22.0223 83.9481 21.9936 83.9414 21.9646 83.942Z" fill="#FF6551"/>
</g>
<g id="Group_4">
<path id="Vector_17" d="M49.7944 64.4178C49.7944 64.4178 48.5897 66.2566 44.6211 65.751C40.6512 65.2453 39.7637 63.7535 39.7637 63.7535L39.7621 62.2433L39.7609 62.2431L39.7585 60.0789L49.1534 59.3052L50.0358 59.2323L50.0106 59.7862L49.8761 62.6558L49.7944 64.4178Z" fill="#EA9573"/>
<g id="Vector_18" style="mix-blend-mode:multiply" opacity="0.31">
<path d="M49.8761 62.6559C48.6171 63.5039 47.0032 64.3355 45.5708 64.2821C42.7325 64.1767 39.835 62.2911 39.7621 62.2434L39.7609 62.2432L39.7585 60.079L49.1534 59.3053L50.0106 59.7863L49.8761 62.6559Z" fill="#DD7258"/>
</g>
</g>
<g id="Group_5">
<path id="Vector_19" d="M67.9216 35.7418C67.9216 35.7418 71.6643 33.978 73.7511 36.6336C75.838 39.2892 72.5289 46.0277 69.9977 46.6877C67.4666 47.3476 66.4773 46.6831 66.4773 46.6831L67.9216 35.7418Z" fill="#FFBF94"/>
<path id="Vector_20" d="M21.0583 35.6809C21.0583 35.6809 17.3201 33.9075 15.2264 36.5577C13.1328 39.2079 16.4245 45.9549 18.9539 46.6214C21.4834 47.2879 22.4744 46.626 22.4744 46.626L21.0583 35.6809Z" fill="#FFBF94"/>
<path id="Vector_21" d="M69.6935 25.6676C69.6935 25.6676 68.9954 35.5531 67.9082 43.5093L67.9071 43.5126V43.5148L67.9026 43.548C67.7394 44.7416 67.5674 45.8921 67.3878 46.9585L67.3844 46.9794C66.8446 50.1689 66.2364 52.601 65.5876 53.2037C63.2746 55.3506 50.0638 62.4764 44.8936 62.1303C39.7235 61.7842 26.0903 55.1973 23.8931 52.8179C23.19 52.0565 22.4332 49.3773 21.729 46.0856C20.2319 39.0922 18.9727 29.3357 18.9727 29.3357C19.5434 13.2687 28.4614 7.8485 45.7342 7.30496C63.007 6.76141 69.6935 25.6676 69.6935 25.6676Z" fill="#FFBF94"/>
<g id="Group_6" opacity="0.27">
<path id="Vector_22" opacity="0.27" d="M56.9233 12.8858C56.9233 12.8858 54.8606 1.93072 43.2207 2.07876C38.3273 2.1719 33.5156 3.3557 29.133 5.54466C24.7504 7.73362 20.9062 10.8731 17.8781 14.7365C14.9526 18.546 13.6353 23.3585 14.2105 28.1354C14.7857 32.9123 17.2073 37.2704 20.9526 40.2689C20.9526 40.2689 23.6269 35.2888 26.279 31.3875C26.279 31.3875 41.1579 37.916 55.1553 25.697C55.1553 25.697 58.9861 19.7004 56.9233 12.8858Z" fill="#DA8966"/>
<path id="Vector_23" opacity="0.27" d="M54.4189 19.4351C54.4189 19.4351 53.9768 26.4106 58.5444 30.6034C63.112 34.7961 66.6481 35.2402 66.6481 35.2402C66.6481 35.2402 69.1529 39.981 67.3848 45.0105C67.3848 45.0105 73.7641 38.9899 72.7328 26.5018C71.7014 14.0137 65.7408 9.92503 54.4072 10.0731L54.4189 19.4351Z" fill="#DA8966"/>
</g>
<path id="Vector_24" d="M53.9885 31.7559C54.1792 32.0543 54.5103 32.0224 54.8325 32.0561C55.2063 32.0952 55.5767 32.0963 55.9519 32.1055C56.6795 32.1054 57.401 32.2396 58.0804 32.5012C58.6922 32.7851 59.2689 33.1398 59.7988 33.5582C60.0585 33.7638 60.3301 33.954 60.6119 34.1278C60.7725 34.2249 60.9425 34.3054 61.1192 34.3682C61.2884 34.4183 61.4575 34.3884 61.623 34.4494C61.8215 34.5226 61.9441 34.2825 61.8719 34.125C61.7926 33.9518 61.813 33.7525 61.7251 33.5784C61.6222 33.3874 61.499 33.2083 61.3575 33.0442C61.0918 32.7385 60.795 32.4617 60.4718 32.2182C59.8184 31.7018 59.0785 31.3065 58.287 31.0509C57.4525 30.8043 56.5755 30.7378 55.7137 30.8559C55.444 30.8862 53.6047 31.1554 53.9885 31.7558V31.7559Z" fill="#5F130F"/>
<g id="Vector_25" style="mix-blend-mode:multiply" opacity="0.44">
<path d="M20.8229 44.0733C19.3972 43.3726 18.2869 42.1574 17.7138 40.6703C17.4928 40.0189 17.5497 38.9713 18.4135 38.858C19.127 38.7644 19.4179 39.6955 19.7372 40.1726C19.9037 40.4215 20.3568 40.2752 20.248 39.957C19.957 39.106 19.6789 38.0336 18.6216 37.9044C18.1135 37.8816 17.6169 38.0609 17.2395 38.4036C16.8621 38.7463 16.6344 39.2246 16.6058 39.7349C16.465 40.9614 17.2034 42.11 17.8976 43.0521C18.6134 44.0233 19.492 44.8212 20.7582 44.5657C20.8083 44.5507 20.853 44.5215 20.8869 44.4815C20.9208 44.4416 20.9425 44.3926 20.9494 44.3406C20.9562 44.2885 20.9479 44.2356 20.9255 44.1882C20.903 44.1407 20.8674 44.1008 20.8229 44.0733Z" fill="#DA8966"/>
</g>
<g id="Vector_26" style="mix-blend-mode:multiply" opacity="0.44">
<path d="M72.7243 39.7101C72.6614 38.7804 71.8969 37.9505 70.9268 38.3384C70.2707 38.6007 69.2141 39.8778 69.93 40.535C69.9483 40.5527 69.9704 40.566 69.9946 40.574C70.0187 40.582 70.0444 40.5844 70.0696 40.5812C70.0948 40.578 70.119 40.5691 70.1404 40.5553C70.1618 40.5415 70.1798 40.523 70.1932 40.5013C70.5519 40.0212 70.5983 39.2362 71.2947 39.0558C72.2486 38.8088 71.9348 40.4296 71.8283 40.8938C71.7146 41.4704 71.4761 42.0148 71.1299 42.4887C70.7214 42.9236 70.2172 43.2563 69.6576 43.4601C69.6314 43.4759 69.609 43.4975 69.5923 43.5233C69.5755 43.549 69.5647 43.5783 69.5608 43.6088C69.5568 43.6393 69.5598 43.6703 69.5694 43.6995C69.5791 43.7287 69.5952 43.7553 69.6165 43.7774C70.3743 44.6149 71.4801 43.4921 71.9053 42.8193C72.4763 41.8862 72.7611 40.8048 72.7243 39.7101Z" fill="#DA8966"/>
</g>
<g id="Group_7">
<path id="Vector_27" d="M32.7027 32.2303C32.1915 31.683 31.1775 31.8852 30.5186 31.9775C29.7698 32.0911 29.0413 32.3127 28.3555 32.6354C27.6898 32.9414 27.065 33.3303 26.4958 33.7929C26.0039 34.1876 25.1838 34.9058 25.387 35.6175C25.4166 35.7152 25.4761 35.8011 25.5569 35.8631C25.6377 35.925 25.7358 35.96 25.8374 35.963C26.4345 36.0296 27.0353 35.2886 27.4736 34.9602C27.9705 34.5836 28.5097 34.267 29.0801 34.0169C29.6336 33.7871 30.2075 33.6108 30.7942 33.4904C31.4034 33.3578 32.2249 33.4602 32.7017 33.0122C32.8029 32.9076 32.8597 32.7674 32.8598 32.6215C32.86 32.4755 32.8037 32.3352 32.7027 32.2303V32.2303Z" fill="#5F130F"/>
<path id="Vector_28" d="M51.2377 51.3262C50.8908 52.6774 50.2597 53.9382 49.3867 55.0235C48.775 55.7624 48.0078 56.3557 47.1403 56.7608C46.2728 57.1658 45.3267 57.3724 44.3701 57.3657C43.3 57.4165 42.2348 57.1897 41.2771 56.707C40.3195 56.2244 39.5016 55.5021 38.9022 54.6099C38.1871 53.5678 37.6622 52.4061 37.3521 51.1792C37.3059 51.012 37.3212 50.8336 37.3951 50.6767C37.4708 50.5098 37.605 50.3767 37.772 50.3026C37.9391 50.2285 38.1274 50.2187 38.3012 50.275L38.549 50.3544C42.3378 51.5784 46.4142 51.572 50.1992 50.3359C50.2821 50.3086 50.3687 50.2943 50.4559 50.2937C50.6257 50.295 50.7909 50.3494 50.9285 50.4494C51.0661 50.5493 51.1693 50.6899 51.2237 50.8515C51.2767 51.0045 51.2816 51.1703 51.2377 51.3262Z" fill="#831532"/>
<path id="Vector_29" d="M51.2243 50.8515C49.2078 52.3203 46.7933 53.136 44.3033 53.1898C41.7962 53.0968 39.3809 52.2181 37.3958 50.6767C37.4715 50.5098 37.6057 50.3767 37.7727 50.3026C37.9398 50.2285 38.1281 50.2187 38.3019 50.275L38.5497 50.3544C42.3385 51.5784 46.4149 51.572 50.1998 50.3359C50.2827 50.3086 50.3693 50.2944 50.4565 50.2937C50.6263 50.295 50.7915 50.3494 50.9291 50.4494C51.0667 50.5493 51.1699 50.6899 51.2243 50.8515Z" fill="white"/>
<path id="Vector_30" d="M49.3866 55.0236C48.7749 55.7625 48.0076 56.3558 47.1401 56.7608C46.2727 57.1659 45.3266 57.3725 44.37 57.3658C43.2998 57.4166 42.2346 57.1898 41.277 56.7071C40.3193 56.2244 39.5015 55.5022 38.9021 54.6099C42.3675 53.7679 45.9976 53.9111 49.3866 55.0236Z" fill="#FF6551"/>
<path id="Vector_31" d="M34.077 49.0445C34.3466 47.9166 32.865 46.592 30.7678 46.0858C28.6705 45.5797 26.7517 46.0836 26.4821 47.2114C26.2125 48.3393 27.6941 49.6639 29.7913 50.1701C31.8886 50.6762 33.8074 50.1723 34.077 49.0445Z" fill="#F2786B"/>
<path id="Vector_32" d="M59.1748 50.2449C61.3106 49.9425 62.9115 48.7662 62.7503 47.6176C62.5892 46.4691 60.7272 45.7832 58.5914 46.0856C56.4555 46.3881 54.8547 47.5644 55.0158 48.7129C55.177 49.8615 57.039 50.5474 59.1748 50.2449Z" fill="#F2786B"/>
<g id="Group_8" style="mix-blend-mode:multiply" opacity="0.21">
<g id="Vector_33" style="mix-blend-mode:multiply" opacity="0.21">
<path d="M43.9973 45.4274C43.2892 45.4443 42.595 45.628 41.9705 45.9638C41.9231 45.9854 41.8809 46.0172 41.8471 46.0569C41.7266 46.2193 41.9197 46.4306 42.098 46.5252C43.2774 47.0406 44.6008 47.1178 45.8316 46.7429C46.1363 46.6969 46.4225 46.5677 46.659 46.3694C46.795 46.2347 46.8779 45.993 46.7389 45.8616C46.6762 45.8123 46.6013 45.781 46.5222 45.7713C45.3643 45.5287 44.169 45.5292 43.0113 45.7727L43.9973 45.4274Z" fill="#DA8966"/>
</g>
</g>
<path id="Vector_34" d="M41.9026 46.2285C42.2187 46.1112 42.4797 45.8939 42.8116 45.7924C43.1966 45.689 43.5947 45.6433 43.993 45.6568C44.3697 45.6469 44.7465 45.6692 45.1194 45.7233C45.4992 45.7886 45.8518 45.9642 46.1334 46.2285C46.4534 46.4971 46.9736 46.1618 46.7388 45.7605C46.2263 44.8846 44.939 44.877 44.0559 44.8909C43.3031 44.9027 41.8251 44.9876 41.6154 45.9391C41.5802 46.0992 41.7246 46.2945 41.9027 46.2285H41.9026Z" fill="#D88261"/>
</g>
<g id="Group_9">
<path id="Vector_35" d="M36.1379 42.4276C37.3059 40.1631 36.4259 37.376 34.1722 36.2024C31.9185 35.0288 29.1446 35.9131 27.9765 38.1775C26.8085 40.4419 27.6886 43.229 29.9422 44.4026C32.1959 45.5763 34.9698 44.692 36.1379 42.4276Z" fill="white"/>
<path id="Vector_36" d="M35.942 41.1479C35.7468 41.8307 35.3545 42.4401 34.8146 42.8988C34.2748 43.3576 33.6117 43.6452 32.9091 43.7253C32.2066 43.8054 31.4962 43.6744 30.8678 43.3489C30.2394 43.0233 29.7211 42.5178 29.3786 41.8964C29.0361 41.2749 28.8847 40.5653 28.9436 39.8574C29.0024 39.1494 29.2689 38.4749 29.7093 37.9191C30.1496 37.3633 30.7442 36.9513 31.4176 36.735C32.0911 36.5187 32.8133 36.5079 33.4929 36.704C33.9441 36.8342 34.3654 37.0525 34.7326 37.3463C35.0999 37.6401 35.406 38.0037 35.6334 38.4163C35.8608 38.829 36.0051 39.2826 36.0581 39.7513C36.111 40.22 36.0716 40.6946 35.942 41.1479Z" fill="black"/>
<path id="Vector_37" d="M34.3887 41.8819C34.332 42.0803 34.218 42.2573 34.0611 42.3907C33.9043 42.524 33.7116 42.6075 33.5074 42.6308C33.3033 42.6541 33.0969 42.616 32.9143 42.5214C32.7317 42.4268 32.5811 42.2799 32.4816 42.0993C32.3821 41.9187 32.3381 41.7126 32.3552 41.5069C32.3723 41.3011 32.4497 41.1052 32.5777 40.9437C32.7056 40.7822 32.8784 40.6624 33.0741 40.5996C33.2698 40.5367 33.4796 40.5336 33.6771 40.5906C33.8082 40.6284 33.9306 40.6919 34.0373 40.7772C34.1441 40.8626 34.233 40.9683 34.2991 41.0882C34.3651 41.2081 34.4071 41.3399 34.4225 41.4761C34.4378 41.6123 34.4264 41.7502 34.3887 41.8819Z" fill="white"/>
</g>
<g id="Group_10">
<path id="Vector_38" d="M52.2646 41.1569C52.3841 42.0623 52.7682 42.9118 53.3683 43.5979C53.9684 44.2839 54.7574 44.7758 55.6357 45.0113C56.514 45.2468 57.4421 45.2153 58.3026 44.9209C59.1631 44.6264 59.9173 44.0821 60.47 43.357C61.0226 42.6318 61.3488 41.7582 61.4074 40.8467C61.4659 39.9353 61.2541 39.0268 60.7988 38.2363C60.3435 37.4458 59.6651 36.8087 58.8494 36.4056C58.0337 36.0024 57.1173 35.8514 56.2162 35.9715C55.0078 36.1326 53.9126 36.7695 53.1715 37.7419C52.4305 38.7143 52.1042 39.9428 52.2646 41.1569Z" fill="white"/>
<path id="Vector_39" d="M52.9715 40.8184C53.0645 41.5226 53.3633 42.1833 53.83 42.717C54.2967 43.2506 54.9105 43.6332 55.5936 43.8163C56.2767 43.9995 56.9986 43.975 57.6679 43.746C58.3371 43.5169 58.9238 43.0936 59.3536 42.5296C59.7835 41.9655 60.0372 41.2861 60.0827 40.5771C60.1282 39.8682 59.9635 39.1616 59.6093 38.5468C59.2552 37.9319 58.7275 37.4364 58.0931 37.1228C57.4587 36.8093 56.7459 36.6918 56.045 36.7852C55.5796 36.8473 55.131 37.0008 54.7247 37.2371C54.3183 37.4734 53.9623 37.7877 53.6769 38.1622C53.3915 38.5367 53.1823 38.9641 53.0613 39.4198C52.9402 39.8756 52.9097 40.3508 52.9715 40.8184Z" fill="black"/>
<path id="Vector_40" d="M54.0173 41.2398C54.0443 41.4444 54.1311 41.6364 54.2668 41.7915C54.4024 41.9466 54.5807 42.0577 54.7792 42.111C54.9777 42.1642 55.1875 42.1571 55.3819 42.0905C55.5764 42.024 55.7469 41.901 55.8718 41.7371C55.9967 41.5732 56.0704 41.3758 56.0837 41.1698C56.0969 40.9638 56.049 40.7585 55.9461 40.5798C55.8432 40.4011 55.6899 40.2571 55.5056 40.166C55.3212 40.0749 55.1141 40.0408 54.9104 40.0679C54.6373 40.1043 54.3898 40.2483 54.2223 40.468C54.0549 40.6878 53.9811 40.9654 54.0173 41.2398Z" fill="white"/>
</g>
</g>
<g id="Group_11">
<g id="Group_12">
<path id="Vector_41" d="M19.6457 34.0509L16.6989 27.6851C16.6989 27.6851 -0.392571 30.8255 0.0494436 55.3107C1.20641 55.8878 2.40579 56.3747 3.637 56.7671C3.51426 54.6413 3.94069 52.5197 4.87488 50.6084C5.08302 52.9063 5.46224 55.1853 6.00935 57.4263C7.46545 57.7673 8.95201 57.9601 10.4465 58.002C10.0761 55.5527 10.1381 53.057 10.6297 50.6293C11.1821 53.1015 11.9159 55.5293 12.825 57.8926C14.1592 57.7443 15.4644 57.3998 16.6989 56.8703C16.6989 56.8703 13.0154 42.3412 19.6457 34.0509Z" fill="#672410"/>
<path id="Vector_42" d="M72.0989 24.7242L69.5941 32.9406C71.6184 36.1123 72.6533 39.8194 72.5661 43.5862C72.479 47.353 71.2737 51.0078 69.1049 54.0816C68.8361 54.5571 68.5913 55.0459 68.3713 55.5461C68.2413 55.7872 68.1137 56.0284 67.9734 56.2694C69.3265 57.2048 70.8014 57.9484 72.3565 58.4792C73.395 56.49 74.1333 54.3566 74.5471 52.1491C74.5471 52.1491 75.0151 56.1088 74.1681 59.0123C75.8832 59.4321 77.6551 59.5674 79.4137 59.413C80.5992 57.3632 81.3213 55.0764 81.5287 52.7148C81.7933 54.7992 81.8733 56.9031 81.7678 59.0018C82.9652 58.6914 84.1215 58.2388 85.2122 57.6535C85.2122 57.6535 96.9994 29.9057 72.0989 24.7242Z" fill="#672410"/>
<path id="Vector_43" d="M12.7622 31.3867C8.28162 34.4157 4.24119 40.0592 3.94922 45.5995" stroke="#772F1E" stroke-width="1.86439" stroke-linecap="round" stroke-linejoin="round"/>
<path id="Vector_44" d="M14.157 33.0886C10.1425 37.1598 7.90025 42.1008 8.00602 49.8174" stroke="#772F1E" stroke-width="1.86439" stroke-linecap="round" stroke-linejoin="round"/>
<path id="Vector_45" d="M16.1841 35.9473C16.1841 35.9473 11.9112 40.8612 13.3109 50.706" stroke="#772F1E" stroke-width="1.86439" stroke-linecap="round" stroke-linejoin="round"/>
<path id="Vector_46" d="M73.6206 35.9473C77.0291 39.0613 76.9801 45.0132 76.3094 49.1654" stroke="#772F1E" stroke-width="1.86439" stroke-linecap="round" stroke-linejoin="round"/>
<path id="Vector_47" d="M75.4839 31.6866C80.7403 37.3743 81.6476 44.115 80.3414 51.5283" stroke="#772F1E" stroke-width="1.86439" stroke-linecap="round" stroke-linejoin="round"/>
<path id="Vector_48" d="M75.6492 28.6803C83.5038 30.9063 85.6489 41.542 84.8737 48.5536" stroke="#772F1E" stroke-width="1.86439" stroke-linecap="round" stroke-linejoin="round"/>
</g>
<g id="Group_13">
<path id="Vector_49" d="M17.9208 40.2662C17.7039 40.2647 17.4903 40.2125 17.2971 40.1135C17.1038 40.0146 16.9362 39.8717 16.8076 39.6962C16.6789 39.5208 16.5928 39.3176 16.5561 39.1028C16.5193 38.888 16.533 38.6675 16.5959 38.459C16.3001 38.6602 15.9401 38.7432 15.5866 38.6918C15.233 38.6404 14.9112 38.4583 14.6842 38.1812C14.4691 37.8941 14.3224 37.5613 14.2552 37.2084C14.188 36.8554 14.2022 36.4917 14.2967 36.1452C14.4912 35.4544 14.791 34.798 15.1853 34.1993C14.0761 34.3081 12.7647 34.3358 12.0753 33.4561C11.3289 32.5037 11.8413 31.02 12.7768 30.2547C12.0896 30.0792 11.4696 29.703 10.995 29.1736C10.1574 28.0861 10.8749 26.0977 11.9863 25.4749C13.8103 24.4528 16.5922 25.775 17.677 27.3613C18.0815 28.0067 18.4078 28.6983 18.6489 29.4215C19.4163 31.4515 20.6021 34.0851 20.2285 36.3154C20.0261 37.5242 19.4332 40.1647 17.9208 40.2662Z" fill="#FF6551"/>
<path id="Vector_50" d="M77.9022 26.0231C77.9867 26.3579 78.0045 26.7063 77.9547 27.0481C77.9048 27.3899 77.7882 27.7184 77.6116 28.0148C77.435 28.3112 77.2019 28.5696 76.9256 28.7752C76.6493 28.9808 76.3353 29.1295 76.0016 29.2128C76.4457 29.9286 77.3332 30.3244 77.6393 31.1098C77.759 31.538 77.7386 31.9936 77.581 32.4092C77.4234 32.8249 77.137 33.1786 76.7641 33.4183C76.007 33.8805 75.1579 34.1696 74.2771 34.2653C74.594 35.334 74.7325 36.4481 74.687 37.5623C74.66 38.1196 74.5102 38.664 74.2486 39.1561C73.9869 39.6482 73.6198 40.0759 73.1737 40.4083C72.7157 40.7235 72.1612 40.8653 71.6089 40.8084C71.0566 40.7515 70.5423 40.4996 70.1574 40.0975C69.7714 39.5209 69.5481 38.8499 69.5114 38.1559C69.1576 36.2874 69.0649 34.3785 69.2357 32.4843C69.3798 31.585 69.5836 30.6963 69.8458 29.8243C70.4007 27.818 71.1479 26.1108 73.0357 25.1318C74.6525 24.2934 77.1806 23.6095 77.9022 26.0231Z" fill="#FF6551"/>
<path id="Vector_51" d="M56.923 10.8086C56.923 10.8086 54.8602 -0.146555 43.2203 0.00148702C38.3269 0.0946343 33.5152 1.27843 29.1326 3.4674C24.75 5.65637 20.9059 8.79587 17.8778 12.6592C12.8682 18.9509 11.9842 33.311 21.1193 40.8611C21.1193 40.8611 23.0347 32.231 25.6868 28.3297C25.6868 28.3297 41.1575 35.8388 55.1549 23.6198C55.1549 23.6197 58.9857 17.6231 56.923 10.8086Z" fill="#672410"/>
<path id="Vector_52" d="M54.4189 17.3577C54.4189 17.3577 53.9768 24.3332 58.5444 28.5259C63.1119 32.7187 66.6481 33.1628 66.6481 33.1628C66.6481 33.1628 69.1529 39.9805 67.3848 45.0101C69.9358 42.4965 71.8948 39.4414 73.1186 36.0685C74.3423 32.6957 74.7996 29.0906 74.4571 25.5172C73.4258 13.0291 65.7408 7.8476 54.4072 7.99563L54.4189 17.3577Z" fill="#672410"/>
</g>
<path id="Vector_53" d="M20.8077 39.5506C16.5984 36.4836 15.9763 29.6145 16.8539 24.9005" stroke="#772F1E" stroke-width="1.86439" stroke-linecap="round" stroke-linejoin="round"/>
<path id="Vector_54" d="M20.5605 36.7395C18.9518 28.9873 19.7339 18.6679 25.5804 12.7745C27.3208 11.0203 29.1906 9.19086 31.5885 8.61609" stroke="#772F1E" stroke-width="1.86439" stroke-linecap="round" stroke-linejoin="round"/>
<path id="Vector_55" d="M23.1572 31.8633C24.2241 27.361 26.7989 23.2324 29.1373 21.1548C31.9518 18.588 35.4749 16.9392 39.2414 16.426" stroke="#772F1E" stroke-width="1.86439" stroke-linecap="round" stroke-linejoin="round"/>
<path id="Vector_56" d="M28.1707 27.3614C31.054 25.2741 34.3058 23.7561 37.7529 22.8882" stroke="#772F1E" stroke-width="1.86439" stroke-linecap="round" stroke-linejoin="round"/>
<path id="Vector_57" d="M34.1011 27.5943C36.4572 27.5133 38.8019 27.2268 41.1087 26.7383C44.0861 26.0309 46.8641 24.6517 49.2322 22.7052C51.6002 20.7587 53.4961 18.296 54.7761 15.5039" stroke="#772F1E" stroke-width="1.86439" stroke-linecap="round" stroke-linejoin="round"/>
<path id="Vector_58" d="M59.8374 24.582C59.9021 26.3279 61.1716 27.7979 62.5685 28.8384C64.8532 30.5401 66.8325 31.3555 68.0604 34.0785" stroke="#772F1E" stroke-width="1.86439" stroke-linecap="round" stroke-linejoin="round"/>
<path id="Vector_59" d="M66.123 23.4841C70.6317 27.5257 71.5626 34.3818 70.5571 40.1092" stroke="#772F1E" stroke-width="1.86439" stroke-linecap="round" stroke-linejoin="round"/>
<g id="Vector_60" style="mix-blend-mode:screen" opacity="0.27">
<path d="M74.4561 25.5173C73.4731 13.6146 66.443 8.35354 55.973 8.01425C54.5112 4.77927 51.0144 -0.097674 43.22 0.00148868C38.3266 0.0946369 33.5149 1.27843 29.1323 3.46739C24.7497 5.65635 20.9055 8.79585 17.8774 12.6592C13.5204 18.1314 12.2879 29.7049 18.0499 37.595C16.3283 32.6984 15.6896 27.1546 17.1272 22.2855C19.1192 15.5386 24.4128 9.88938 30.6663 6.87043C37.5484 3.54794 45.8687 5.17911 51.6824 10.0495C51.3597 8.35767 50.7349 6.73843 49.8384 5.27007C51.9723 7.132 53.6569 9.45715 54.7648 12.0696C55.0353 11.3144 55.3058 10.5592 55.5764 9.80398C55.7462 10.4607 55.916 11.1175 56.0859 11.7742C58.7149 11.2459 61.4317 11.3589 64.0083 12.1038C62.3731 12.647 60.7379 13.1903 59.1027 13.7336C61.2605 13.0167 64.7813 14.2136 66.5578 15.3812C68.7785 16.9612 70.5781 19.0659 71.798 21.5098C73.0502 23.7992 73.9674 26.2581 74.5214 28.8105C74.5688 27.7124 74.547 26.6125 74.4561 25.5173Z" fill="#772F1E"/>
</g>
</g>
</g>
</g>
</svg>
