<svg width="85" height="241" viewBox="0 0 85 241" fill="none" xmlns="http://www.w3.org/2000/svg">
<g id="girl">
<g id="Group">
<g id="Group_2">
<path id="Vector" d="M16.9696 79.6493C16.0467 79.0372 15.1643 78.3651 14.3281 77.6373C9.04864 73.0163 6.18292 66.1869 4.44711 59.3615C2.01817 49.8105 0.754938 38.4583 4.13139 28.9784C5.28961 25.7266 6.85213 22.6511 7.84523 19.3314C9.1957 14.6414 11.4932 10.283 14.5938 6.52951C17.0791 3.58326 20.4046 1.18468 24.1953 0.581155C27.8881 0.0909323 31.6245 1.07674 34.6048 3.32753C37.0584 0.955744 40.5916 -0.00694531 43.992 3.76952e-05C50.2335 0.0129051 54.6433 1.74116 58.7443 6.38437C61.5981 9.61544 64.3064 12.9694 66.8693 16.4462C71.2567 22.399 75.5656 29.4997 75.9602 37.0851C76.3922 45.391 74.2738 53.6258 71.3046 61.3095C69.4329 66.153 67.1785 70.9086 63.929 74.9456C58.9083 81.1899 51.7374 85.2999 43.8443 86.4572C36.3078 87.4902 28.594 85.6034 21.7256 82.3118C20.0802 81.5379 18.4909 80.6482 16.9696 79.6493Z" fill="#662920"/>
<path id="Vector_2" d="M11.585 60.5461C11.6672 62.9016 11.975 65.2435 12.5042 67.5393C13.8724 72.7106 18.1523 76.2534 21.8667 79.7868" stroke="#5B1F17" stroke-width="3" stroke-linecap="round" stroke-linejoin="round"/>
<path id="Vector_3" d="M19.7012 64.1021C21.3262 70.6303 23.7622 77.6916 31.4798 78.5353" stroke="#5B1F17" stroke-width="3" stroke-linecap="round" stroke-linejoin="round"/>
<path id="Vector_4" d="M24.7556 65.9231C24.8052 70.5035 28.9751 73.7537 32.6466 75.6232" stroke="#5B1F17" stroke-width="3" stroke-linecap="round" stroke-linejoin="round"/>
<path id="Vector_5" d="M51.5042 67.1152C51.894 72.4914 48.832 76.7683 45.4856 80.6163" stroke="#5B1F17" stroke-width="3" stroke-linecap="round" stroke-linejoin="round"/>
</g>
<g id="Group_3">
<path id="Vector_6" d="M50.4798 154.688C50.4798 154.688 47.8256 173.703 47.6781 176.526C47.5307 179.349 49.1527 186.331 49.0789 189.451C49.0052 192.57 46.351 209.655 46.2036 212.774C46.0561 215.894 45.6137 219.608 46.2036 221.836C46.7934 224.065 49.0737 229.413 49.2606 231.493C49.4476 233.573 42.8121 234.167 41.6324 233.127C40.4528 232.087 38.1987 221.948 38.2409 221.452C38.2832 220.955 37.4565 208.81 37.314 205.096C37.1715 201.382 37.2036 189.82 37.1053 185.773C37.0071 181.726 35.3672 153.154 35.3672 153.154L50.4798 154.688Z" fill="#FFBF94"/>
<g id="Group_4" style="mix-blend-mode:multiply" opacity="0.39">
<g id="Vector_7" style="mix-blend-mode:multiply" opacity="0.39">
<path d="M39.273 182.32C38.6095 181.206 37.8722 178.309 37.7333 174.298C37.5945 170.287 37.7333 156.619 37.7333 156.619L35.5203 155.838C35.9298 163.043 37.0255 182.488 37.1053 185.773C37.2036 189.82 37.1714 201.382 37.3139 205.096C37.322 205.307 37.3325 205.548 37.3448 205.809L39.9366 207.225C39.9366 207.225 37.4147 194.049 38.2409 190.119C39.0671 186.19 39.3994 184.377 39.3994 184.377C39.3994 184.377 41.3375 184.4 42.2222 184.377C43.1069 184.354 43.5492 183.137 43.5492 183.137C41.4849 184.029 39.9366 183.434 39.273 182.32Z" fill="#E6A07A"/>
</g>
<g id="Vector_8" style="mix-blend-mode:multiply" opacity="0.39">
<path d="M47.6782 176.527C47.6951 176.203 47.7463 175.657 47.8215 174.96C48.2844 170.665 49.7015 160.315 50.2547 156.312C48.6929 156.787 42.3676 155.946 40.121 156.009C37.4668 156.083 38.9953 158.272 38.9953 158.272C38.9953 158.272 41.7061 161.769 47.6044 160.717C47.6044 160.717 48.4892 160.779 48.4154 162.488C48.3417 164.196 47.3832 170.807 47.3832 170.807C46.8539 172.833 46.4598 174.893 46.2036 176.972C46.0972 179.15 45.5975 181.289 44.729 183.286C45.4091 182.269 46.0107 181.2 46.5287 180.09C47.2612 183.401 47.8172 186.749 48.1943 190.12C48.3428 191.852 48.4309 193.582 48.4839 195.037C48.817 192.453 49.0575 190.359 49.079 189.451C49.1527 186.332 47.5307 179.349 47.6782 176.527Z" fill="#E6A07A"/>
</g>
</g>
<path id="Vector_9" d="M37.3142 205.096C37.3142 205.096 43.1809 206.034 47.236 205.096C47.236 205.096 45.7757 217.602 45.9061 218.865C46.1397 220.221 46.4596 221.562 46.8637 222.877L49.7427 230.683C49.7427 230.683 43.9182 234.093 41.5589 233.573C39.1996 233.053 38.2412 227.185 38.2412 227.185L37.7938 221.02C37.7938 221.02 37.9363 212.032 37.7938 211.066C37.6513 210.1 37.3142 205.096 37.3142 205.096Z" fill="#FF6551"/>
<path id="Vector_10" d="M37.7942 221.019C37.3788 222.72 37.1207 224.456 37.0231 226.204C36.9144 228.818 37.7991 237.726 39.4212 239.215C41.0432 240.703 45.7565 240.555 49.2612 239.737C52.7659 238.92 53.1346 236.793 53.0608 236.111C52.9871 235.429 49.5956 230.007 49.5956 230.007C49.5956 230.007 46.7939 232.311 43.6236 232.162C42.5827 232.154 41.5697 231.822 40.7245 231.209C39.8793 230.597 39.2436 229.736 38.905 228.744C38.6101 227.778 37.7942 221.019 37.7942 221.019Z" fill="#2435A1"/>
<path id="Vector_11" d="M52.3395 234.603C49.7818 238.364 44.0175 239.128 41.2267 236.878C39.2482 235.284 38.0206 232.933 37.2256 230.305C37.5711 233.849 38.3283 238.213 39.4204 239.215C41.0423 240.704 45.7556 240.555 49.2604 239.738C52.7652 238.921 53.1337 236.794 53.06 236.112C52.8775 235.583 52.6358 235.077 52.3395 234.603Z" fill="#243976"/>
<path id="Vector_12" d="M37.7927 223.99C39.2052 222.533 41.0914 221.636 43.1061 221.465C46.2764 221.316 46.7964 221.578 46.7964 221.578L47.3139 223.967C45.7089 223.653 44.0532 223.72 42.4782 224.162C40.9032 224.604 39.4521 225.41 38.2401 226.516L37.7927 223.99Z" fill="#2435A1"/>
</g>
<g id="Group_5">
<g id="Group_6">
<path id="Vector_13" d="M17.7349 141.823C17.7349 141.823 25.9176 170.346 26.0177 174.505C26.1177 178.663 25.4245 183.733 25.18 189.831C24.9355 195.93 30.3011 221.359 30.3011 221.359L36.8297 221.199C36.8297 221.199 36.2002 201.896 36.3901 196.542C36.58 191.188 37.8004 185.659 37.6342 180.462C37.4681 175.265 36.7023 141.69 36.7023 141.69L17.7349 141.823Z" fill="#FFBF94"/>
<g id="Group_7">
<g id="Vector_14" style="mix-blend-mode:multiply" opacity="0.39">
<path d="M36.3421 178.645C36.8706 177.096 37.1079 175.461 37.0418 173.824C36.742 175.405 36.2072 176.932 35.4555 178.352C35.3036 178.586 35.1802 178.838 35.0878 179.102C35.0364 179.306 35.0074 179.516 35.0014 179.726C34.9582 180.392 34.915 181.057 34.8719 181.722C34.8726 182.177 34.7812 182.627 34.6034 183.045C33.8745 184.486 31.6641 184.967 30.1736 185.305C31.1818 185.41 32.1994 185.379 33.1993 185.212C33.8217 185.159 34.4096 184.902 34.8721 184.479C35.1716 184.091 35.354 183.625 35.3972 183.136C35.6424 181.639 35.7054 180.227 36.2711 178.827C36.2954 178.767 36.3191 178.706 36.3421 178.645Z" fill="#E6A07A"/>
</g>
<g id="Vector_15" style="mix-blend-mode:multiply" opacity="0.39">
<path d="M36.3906 196.542C36.5806 191.188 37.8009 185.66 37.6347 180.463C37.5283 177.13 37.1752 162.132 36.9355 151.798L21.5305 153.334L22.2785 158.245C22.3317 158.445 22.3847 158.644 22.4376 158.843C24.965 159.718 27.635 160.097 30.3039 159.961C34.3482 159.64 34.7897 158.984 35.8458 161.076C36.9019 163.168 37.0754 175.164 37.0754 175.164C37.0754 175.164 36.1112 182.878 35.9834 186.001C35.8555 189.125 35.132 203.632 35.5456 205.962L36.3964 203.872C36.3495 200.8 36.3358 198.088 36.3906 196.542Z" fill="#E6A07A"/>
</g>
<g id="Vector_16" style="mix-blend-mode:multiply" opacity="0.39">
<path d="M27.2561 174.648C27.0432 177.224 27.6133 179.711 28.0128 182.243C28.0234 182.452 28.1034 182.652 28.24 182.811C28.3716 182.914 28.5253 182.986 28.689 183.019C29.0333 183.118 29.4638 183.197 29.708 182.948C29.6377 181.484 28.4438 180.281 28.0827 178.856C27.7628 177.593 27.1476 175.962 27.2561 174.648Z" fill="#E6A07A"/>
</g>
</g>
</g>
<path id="Vector_17" d="M26.9639 204.064C30.08 204.81 33.3349 204.73 36.4116 203.833C36.4116 203.833 36.8725 218.97 37.6045 221.775C38.3365 224.581 39.8411 230.785 38.907 233.334C37.9729 235.883 28.4129 234.334 27.6747 233.609C26.9366 232.884 29.52 221.378 29.52 221.378C29.52 221.378 27.6315 208.049 26.9639 204.064Z" fill="#FF6551"/>
<path id="Vector_18" d="M27.4752 230.121C29.8449 230.505 32.2542 230.578 34.6424 230.336C38.3266 229.911 37.9691 229.707 38.2094 227.518C38.4498 225.329 37.4844 221.183 37.4844 221.183L37.2932 219.756C37.8206 221.861 41.0708 237.266 37.7921 239.687C34.5134 242.108 26.9671 240.721 25.5003 239.197C24.0335 237.672 27.4752 230.121 27.4752 230.121Z" fill="#2435A1"/>
<path id="Vector_19" d="M38.9311 229.082C38.8097 231.34 39.0465 233.7 38.6652 234.631C37.2914 238.002 28.4693 238.4 25.4111 235.944C25.0762 237.379 24.9841 238.661 25.4998 239.197C26.9666 240.721 34.5129 242.108 37.7916 239.687C40.6393 237.585 39.6527 231.784 38.9311 229.082Z" fill="#243976"/>
<path id="Vector_20" d="M28.5952 224.942C31.7687 223.904 35.1576 223.725 38.4214 224.424L37.547 221.518C37.547 221.518 32.3591 220.593 29.1514 222.064L28.5952 224.942Z" fill="#2435A1"/>
</g>
<g id="Group_8">
<path id="Vector_21" d="M24.9766 121.216C24.9766 121.216 23.1392 121.98 21.8099 126.225C20.4806 130.47 13.2065 159.751 13.2065 159.751C13.2065 159.751 14.6835 164.504 22.5115 162.603L29.4532 123.464L24.9766 121.216Z" fill="#243976"/>
<path id="Vector_22" d="M29.675 121.216L21.8962 164.694C21.8962 164.694 26.2309 168.117 31.0176 167.356C35.8044 166.596 38.4629 162.93 39.9399 163.052L38.6488 122.254L29.675 121.216Z" fill="#243976"/>
<path id="Vector_23" d="M37.6975 120.821L39.0225 163.318V165.455C39.0225 165.455 46.9893 169.068 53.2864 163.744L46.5493 120.013L37.6975 120.821Z" fill="#243976"/>
<path id="Vector_24" d="M52.6323 119.041L63.3188 158.23C63.3188 158.23 57.6398 163.241 55.4017 163.052C53.1636 162.862 49.1205 163.057 49.1205 163.057L44.8142 122.675L52.6323 119.041Z" fill="#243976"/>
<path id="Vector_25" d="M18.6185 157.972C20.0321 157.349 20.7632 155.389 21.3292 153.609C23.6912 146.18 25.7808 138.621 27.5979 130.93L26.3074 138.475C25.5231 143.059 24.7334 147.659 24.3521 152.334C24.0532 155.998 23.3758 160.948 26.5858 162.781C28.9281 164.119 31.7314 163.401 33.9417 161.732C34.8936 161.056 35.6626 160.152 36.1787 159.1C36.8293 157.689 36.9249 155.982 37.0044 154.344L38.1472 130.814C38.1997 139.246 38.2576 147.745 39.6039 155.997C39.9882 158.353 40.6206 160.931 42.2553 162.1C43.2414 162.709 44.4074 162.952 45.5524 162.788C47.4214 162.67 49.6881 161.775 50.0225 159.405C50.0854 158.754 50.0642 158.097 49.9595 157.451L46.7153 130.175C47.2838 138.226 49.2729 145.983 51.2483 153.657C51.4961 154.981 51.9975 156.244 52.7245 157.374C53.0599 157.811 53.4999 158.154 54.0032 158.371C54.5065 158.589 55.0565 158.673 55.6013 158.617C56.1461 158.562 56.6679 158.367 57.1174 158.052C57.5669 157.737 57.9293 157.311 58.1706 156.816C58.3169 156.57 58.4146 156.299 58.4583 156.016C58.4817 155.65 58.4402 155.283 58.3357 154.933C56.4806 147.089 53.9979 139.245 52.1428 131.401C51.3583 128.084 52.6168 124.687 47.6442 126.197C40.8228 128.267 34.796 129.341 28.1504 126.476C23.0001 124.255 21.3641 132.042 20.2824 136.626C18.7224 143.237 16.7117 149.918 15.509 156.651C16.1645 157.818 17.5681 158.435 18.6185 157.972Z" fill="#2435A1"/>
<path id="Vector_26" d="M47.9782 130.199C48.5677 130.179 54.8046 129.274 54.7866 129.233L53.6502 126.65C53.592 126.893 53.2485 126.873 53.0133 126.955C52.8504 127.028 52.7037 127.134 52.5821 127.265C51.6221 128.14 50.5336 128.238 49.3714 128.587C48.154 129.015 46.9039 129.343 45.6337 129.566C43.5263 129.845 41.4671 130.243 39.3358 130.353C35.0473 130.633 30.7464 130.05 26.6845 128.636C26.0416 128.407 25.3842 128.222 24.7168 128.082C25.2651 128.257 25.7694 128.549 26.195 128.939C26.6206 129.328 26.9575 129.806 27.1825 130.339C27.4075 130.873 27.5152 131.449 27.4984 132.028C27.4816 132.607 27.3405 133.176 27.085 133.695C27.7523 132.447 28.5667 131.08 29.9299 130.731C30.68 130.6 31.4498 130.638 32.1833 130.844L36.3038 131.679C36.882 131.725 37.4227 131.985 37.8211 132.41C38.4683 133.314 37.6499 134.764 38.3443 135.631C38.7168 134.452 38.9759 133.24 39.118 132.011C40.085 131.583 41.112 131.309 42.1624 131.197C42.6886 131.146 43.2194 131.217 43.7142 131.405C44.2089 131.592 44.6544 131.892 45.0164 132.28C45.233 132.562 45.4199 132.866 45.574 133.187L47.3248 136.532C47.0235 134.982 46.8225 133.413 46.7232 131.836C46.6891 131.295 46.7198 130.645 47.1784 130.361C47.4268 130.239 47.7022 130.183 47.9782 130.199Z" fill="#243976"/>
</g>
<g id="Group_9">
<path id="Vector_27" d="M59.2298 118.232L59.231 118.233C59.4771 118.536 59.798 118.768 60.1613 118.907C60.5247 119.046 60.9179 119.086 61.3015 119.024C61.8289 118.82 62.2814 118.459 62.5978 117.988C64.5875 115.493 65.0088 114.514 66.81 110.863C68.6546 107.123 73.3331 96.0992 74.4883 92.8654C74.7818 92.0446 75.8876 91.892 77.724 91.4335C79.5598 90.9744 80.9965 86.6475 82.0702 85.607C83.1439 84.5658 87.1339 82.1077 86.3035 80.9376C85.4725 79.7674 81.1795 83.5716 80.9397 82.9156C80.6999 82.2596 85.4778 75.5852 84.2943 74.5876C83.1108 73.5893 79.1335 80.5696 78.7386 80.2474C78.3436 79.9253 81.8393 72.6504 80.5462 71.4638C79.2526 70.2772 76.293 78.9274 75.8443 79.4046C75.3955 79.8818 77.5892 70.7725 76.5105 70.1179C75.4324 69.4627 74.7546 72.7067 74.7546 72.7067C74.1205 74.8203 73.4151 79.2307 72.7809 81.3444C72.7536 81.5127 72.6934 81.6738 72.604 81.8185C72.5145 81.9633 72.3975 82.0888 72.2597 82.1877C71.8806 81.4124 72.0135 80.4809 71.9382 79.6107C71.8714 78.8327 71.6295 78.0803 71.2308 77.4106C70.9609 76.9244 70.5656 76.5205 70.0866 76.2419C69.852 76.1087 69.5888 76.0344 69.3196 76.0254C69.0504 76.0164 68.783 76.0728 68.54 76.19C68.353 76.2797 68.2048 76.4348 68.123 76.6264C67.9451 77.1051 68.356 77.5741 68.6348 77.9952C69.1661 78.9367 69.3448 80.0389 69.1385 81.1018C68.9933 82.1672 68.6609 83.1966 68.5185 84.2628C68.3146 85.3262 68.4987 86.428 69.037 87.3655C69.4744 87.8541 69.8808 88.37 70.2538 88.91C70.5692 89.7152 70.6138 90.6025 70.3806 91.4357C70.3344 91.6759 70.2832 91.9147 70.2269 92.1521C65.704 101.073 59.5109 107.891 57.7775 112.803C57.1285 114.642 57.9171 116.869 59.2298 118.232Z" fill="#FFBF94"/>
<path id="Vector_28" d="M53.0228 98.8622C53.0617 100.017 53.1709 101.169 53.35 102.311C53.3735 102.458 53.3987 102.603 53.4255 102.747C53.5637 103.499 53.708 101.108 53.8574 101.88L53.8579 101.882C55.4729 110.228 57.6919 117.46 59.2295 118.232L59.2306 118.233C59.7351 118.484 60.3057 117.225 60.8564 115.341C62.1392 110.951 63.3172 105.06 63.3172 105.06C63.3172 105.06 63.1835 104.141 62.9589 102.683C62.6061 100.392 62.03 99.9261 61.3961 96.4424C61.0861 94.7332 60.7604 93.0574 60.4429 91.5886C60.2645 90.7673 60.0877 90.0117 59.9166 89.3512C58.4204 83.5638 56.4991 80.2894 55.2929 80.0002C55.2929 80.0003 52.6883 90.328 53.0228 98.8622Z" fill="#FFBF94"/>
<g id="Vector_29" style="mix-blend-mode:multiply" opacity="0.39">
<path d="M53.0232 98.8624C53.0624 100.018 53.1717 101.169 53.3505 102.311C56.6272 101.576 59.8311 98.2718 61.3968 96.4427C61.0865 94.7334 60.7611 93.0576 60.4433 91.5884L60.4424 91.5884L56.9963 94.612C55.5899 95.9486 54.2632 97.3679 53.0232 98.8624Z" fill="#E6A07A"/>
</g>
<path id="Vector_30" d="M1.24536 103.237L2.81416 107.966C5.57896 108.523 8.66147 108.081 10.1381 106.922C11.9333 105.513 22.5764 95.4446 22.5764 95.4446C21.6527 90.7126 20.9055 83.7352 20.2822 83.9655C19.5212 84.2472 16.8706 86.9925 16.8706 86.9925L1.24536 103.237Z" fill="#FFBF94"/>
<g id="Vector_31" style="mix-blend-mode:multiply" opacity="0.39">
<path d="M13.8699 98.8194C14.9558 99.7367 22.9848 102.595 23.1486 102.558C23.3856 101.798 23.5845 101.027 23.7443 100.246C23.7443 100.246 23.6233 99.6099 23.42 98.5687C23.1492 98.1529 22.8538 97.7539 22.5353 97.374L17.2111 94.3081L14.6397 95.6916C14.3913 96.6897 14.132 97.7386 13.8699 98.8194Z" fill="#E6A07A"/>
</g>
<path id="Vector_32" d="M29.4829 74.9518C29.4829 74.9518 30.6707 79.4948 30.7874 79.4579C30.9042 79.4211 48.6303 78.5301 48.6303 78.5301L47.2899 77.0026L47.0258 76.1916C47.0258 76.1916 43.3818 74.007 44.805 66.574C44.9641 65.7549 45.1642 64.9443 45.4045 64.1455C45.5989 63.5347 45.716 62.9016 45.7528 62.2612C45.9638 56.1157 33.3493 63.8052 33.2433 63.8014C33.0481 64.1183 32.8946 64.4594 32.7867 64.8162C32.5545 65.4201 32.3245 66.0713 32.3245 66.0713C32.5567 66.863 32.7179 67.6742 32.8061 68.4951C33.0652 70.8479 32.8013 74.175 29.4829 74.9518Z" fill="#E6A07A"/>
<g id="Vector_33" style="mix-blend-mode:multiply" opacity="0.39">
<path d="M32.3254 66.0713C32.5576 66.8631 32.7188 67.6743 32.807 68.4951C34.5519 69.1984 37.6459 70.3394 38.9444 70.1702C40.2222 70.0031 43.1203 67.8828 44.8059 66.5741C44.965 65.7549 45.1651 64.9444 45.4054 64.1456C45.5999 63.5348 45.7169 62.9016 45.7538 62.2612L39.7134 64.0936L32.7876 64.8163C32.5554 65.4202 32.3254 66.0713 32.3254 66.0713Z" fill="#E6A07A"/>
</g>
<path id="Vector_34" d="M51.9171 89.9309C51.9114 90.1156 54.9078 94.1683 54.7383 97.7385C54.5688 101.309 52.1212 105.6 51.6994 107.989C51.2777 110.379 54.3539 124.097 54.3539 124.097C54.3539 124.097 41.9935 130.475 21.9214 125.013C21.9214 125.013 24.8143 113.092 23.0797 106.685C22.4162 104.234 19.7147 96.9253 24.1536 89.9923C28.5925 83.0592 49.2867 88.9692 49.2867 88.9692L51.9171 89.9309Z" fill="#864FF1"/>
<path id="Vector_35" d="M23.2977 103.085C23.8762 103.546 24.4881 103.963 25.1284 104.332C25.8535 104.661 26.6057 104.925 27.3766 105.122C29.1865 105.622 31.0228 106.072 32.8689 106.391C36.5487 107.104 40.3101 107.29 44.0415 106.943C45.0477 106.828 46.0449 106.644 47.0265 106.393C47.9805 106.11 48.9656 105.947 49.9593 105.908C50.1072 105.907 50.1486 106.098 50.0623 106.2C48.8056 107.69 46.7228 108.244 44.9538 108.693C43.0354 109.16 41.0698 109.402 39.0963 109.414C37.0006 109.406 34.9133 109.148 32.8782 108.644C30.9056 108.212 28.9683 107.63 27.0829 106.903C26.1936 106.582 25.3546 106.134 24.5913 105.573C23.8026 105.053 23.2113 104.28 22.9131 103.379C22.9002 103.329 22.9023 103.276 22.9193 103.226C22.9362 103.177 22.9671 103.134 23.0082 103.103C23.0493 103.071 23.0987 103.053 23.1502 103.05C23.2017 103.047 23.253 103.059 23.2977 103.085Z" fill="#6640D0"/>
<path id="Vector_36" d="M10.7773 90.5028C10.7773 90.5028 13.2721 99.084 21.7665 100.915C21.9616 100.958 22.1606 100.996 22.3625 101.031C31.3367 102.579 53.2029 100.334 53.2029 100.334C53.5709 100.297 53.9345 100.224 54.2886 100.116C55.4673 99.7323 56.5464 99.0893 57.448 98.2335C58.6233 97.0832 59.6795 95.8155 60.6002 94.4499C61.3437 93.4243 62.0873 92.3983 62.8308 91.372C63.1825 90.8876 63.5338 90.4031 63.8847 89.9186C63.7138 90.155 60.6018 85.4714 60.3216 84.9665C59.2612 83.0501 57.4758 79.2554 55.9082 78.8299C49.9392 77.21 46.4421 75.4635 46.3041 75.5498C46.3041 75.5498 43.8404 78.1745 37.4856 77.9487C31.1309 77.7228 29.4826 74.9519 29.4826 74.9519C29.4826 74.9519 24.1598 76.8588 21.8778 77.7025C19.6396 78.5297 15.0109 88.1714 11.0104 90.3818C10.9329 90.4251 10.8547 90.4654 10.7773 90.5028Z" fill="#864FF1"/>
<g id="Vector_37" style="mix-blend-mode:screen" opacity="0.14">
<path d="M25.3964 96.2264C25.0652 96.5593 24.8214 96.97 24.6872 97.4215C24.553 97.873 24.5326 98.3511 24.6277 98.8126C24.9055 99.8482 25.8688 100.474 26.768 100.966C29.8359 102.711 33.1807 103.908 36.6542 104.503C40.1268 105.087 43.6919 104.692 46.9559 103.363C48.0287 102.967 48.9801 102.295 49.7156 101.414C50.935 99.7951 50.9012 97.4665 50.4062 95.4582C49.8516 93.2077 49.154 90.8509 48.4042 88.6701C48.1806 88.0825 47.9237 87.5083 47.6347 86.9504C47.6062 86.8961 47.5606 86.8531 47.505 86.8281C47.4494 86.8031 47.3872 86.7975 47.3281 86.8123C47.269 86.8272 47.2166 86.8615 47.1792 86.9099C47.1418 86.9582 47.1215 87.0178 47.1216 87.0791C47.1172 88.6436 47.0289 90.2556 46.8801 91.8114C46.8342 92.9898 46.4168 94.1227 45.6884 95.0458C44.9063 95.8099 43.9034 96.3039 42.8244 96.4563C38.3215 97.3715 34.3169 95.5421 29.9431 94.9564C28.3591 94.7443 26.6014 94.9922 25.4538 96.1665C25.4345 96.1862 25.4154 96.2062 25.3964 96.2264Z" fill="#FFC652"/>
</g>
<path id="Vector_38" d="M52.8759 91.98C53.5809 94.4363 54.0299 96.9601 54.2156 99.5102C54.2278 99.7135 54.2522 99.9158 54.2888 100.116C55.4674 99.7322 56.5466 99.0892 57.4482 98.2334C58.6235 97.0831 59.6796 95.8154 60.6003 94.4498C61.3438 93.4242 62.0874 92.3982 62.831 91.3719C61.8148 92.431 60.5412 93.2037 59.1368 93.6133C58.2939 93.8535 57.406 93.8857 56.5482 93.7071C55.6903 93.5286 54.8878 93.1445 54.2084 92.5874C53.5861 92.0031 53.057 91.3256 52.6396 90.5789C52.6346 91.0564 52.7146 91.5309 52.8759 91.98Z" fill="#6640D0"/>
<path id="Vector_39" d="M10.7773 90.5026C10.7773 90.5026 13.2721 99.0838 21.7665 100.915C21.8045 98.6787 21.8888 96.794 22.5758 95.4448C23.3068 94.0059 24.0792 92.2709 24.2389 91.9079C23.6783 93.1831 22.7517 94.2602 21.5784 95.0005C20.9973 95.3611 20.3506 95.6011 19.6763 95.7065C19.0019 95.812 18.3134 95.7806 17.6513 95.6144C17.0091 95.4228 16.3974 95.1399 15.8345 94.7743C13.9992 93.5853 12.3696 92.1014 11.0104 90.3816C10.9329 90.4249 10.8547 90.4652 10.7773 90.5026Z" fill="#6640D0"/>
<path id="Vector_40" d="M22.4134 95.058C22.7375 94.2648 23.0959 93.4882 23.4583 92.7144C23.7268 91.9385 24.1578 91.2298 24.7219 90.6364C24.734 90.6256 24.749 90.6186 24.765 90.6163C24.7811 90.614 24.7974 90.6166 24.812 90.6236C24.8266 90.6307 24.8388 90.6419 24.847 90.6559C24.8553 90.67 24.8592 90.6861 24.8584 90.7024C24.8198 91.5341 24.5874 92.345 24.1797 93.0693C23.8381 93.8733 23.4996 94.6796 23.2032 95.5041C22.5591 97.1102 22.2347 98.8282 22.2486 100.56C22.3976 104.046 25.1731 108.152 23.5554 111.531C23.5554 111.531 23.4167 110.316 23.4027 110.139C23.0803 106.058 21.2481 103.604 21.2961 99.9677C21.3578 98.2747 21.7369 96.6089 22.4134 95.058Z" fill="#6640D0"/>
<path id="Vector_41" d="M28.499 76.159C28.858 76.2946 29.1829 76.5081 29.4509 76.7843C29.8189 77.08 30.202 77.356 30.5987 77.6111C31.1575 77.9756 31.7364 78.3076 32.3327 78.6055C32.5579 78.3219 32.8245 78.0744 33.1233 77.8714C33.2858 77.776 33.5173 77.9535 33.4468 78.1295C33.3188 78.4075 33.1483 78.6636 32.9417 78.8886C33.3266 79.056 33.7187 79.2062 34.118 79.3391C34.3565 78.9158 34.6703 78.5404 35.0436 78.2315C35.0687 78.2183 35.0967 78.2118 35.1249 78.2127C35.1532 78.2135 35.1807 78.2215 35.205 78.2361C35.2292 78.2507 35.2494 78.2713 35.2635 78.296C35.2777 78.3206 35.2853 78.3485 35.2857 78.377C35.2528 78.6354 35.1679 78.8845 35.0364 79.1089C34.962 79.2527 34.8924 79.4064 34.8141 79.5539C35.6491 79.79 36.5016 79.9578 37.3634 80.0555C37.3925 79.7858 37.4669 79.5231 37.5834 79.2786C37.6452 78.9547 37.8128 78.6608 38.0594 78.4438C38.0866 78.4301 38.1181 78.4272 38.1473 78.4357C38.1766 78.4442 38.2016 78.4636 38.2174 78.4899C38.3286 78.8156 38.3266 79.1696 38.2119 79.494C38.1893 79.7065 38.146 79.9164 38.0824 80.1203C39.0079 80.1811 39.9372 80.1489 40.8564 80.0242C40.8121 79.7971 40.8137 79.5633 40.861 79.3369C40.8644 79.0823 40.9485 78.8355 41.1008 78.6325C41.1245 78.6119 41.1524 78.5968 41.1825 78.5882C41.2126 78.5796 41.2442 78.5778 41.275 78.5827C41.3059 78.5877 41.3353 78.5994 41.3613 78.617C41.3872 78.6346 41.409 78.6577 41.4252 78.6847C41.5254 78.8956 41.5727 79.1281 41.5629 79.3618C41.5923 79.5406 41.6081 79.7214 41.6103 79.9027C42.1375 79.8036 42.6592 79.6765 43.1731 79.5221C43.3045 79.4827 43.435 79.4406 43.5649 79.3974C43.4918 79.1934 43.4333 78.9844 43.3897 78.7721C43.3069 78.525 43.2835 78.2617 43.3212 78.0038C43.332 77.9743 43.3501 77.948 43.3737 77.9273C43.3973 77.9067 43.4257 77.8924 43.4562 77.8857C43.4867 77.879 43.5185 77.8802 43.5484 77.8892C43.5784 77.8982 43.6056 77.9146 43.6276 77.937C43.7783 78.1417 43.8925 78.3712 43.965 78.6154C44.0385 78.798 44.1401 78.9788 44.2099 79.1656C44.6956 78.9784 45.1709 78.7681 45.6356 78.5347C45.5679 78.3789 45.5098 78.2181 45.4486 78.0605C45.3541 77.8628 45.2874 77.6528 45.2503 77.4366C45.2363 77.2846 45.476 77.203 45.5709 77.321C45.687 77.4901 45.7824 77.6726 45.8552 77.8646C45.9228 78.0089 45.9966 78.1514 46.0635 78.2964C46.6255 77.8939 47.2313 77.5573 47.8691 77.2933C47.8738 77.2921 47.8788 77.2924 47.8835 77.2941C47.8881 77.2957 47.8921 77.2987 47.8951 77.3027C47.898 77.3067 47.8997 77.3114 47.9 77.3163C47.9003 77.3213 47.8991 77.3262 47.8967 77.3305C47.509 77.8441 47.0117 78.2634 46.4415 78.5574C45.8205 78.9585 45.1679 79.3078 44.4904 79.6016C42.4839 80.4776 40.3115 80.9005 38.1256 80.8407C35.9397 80.7808 33.7933 80.2397 31.837 79.2552C31.1087 78.8917 30.4155 78.4608 29.7663 77.9681C29.2357 77.5647 28.409 77.0611 28.2317 76.4009C28.2245 76.3651 28.2267 76.3279 28.2381 76.2932C28.2495 76.2585 28.2697 76.2274 28.2967 76.2029C28.3237 76.1785 28.3566 76.1616 28.392 76.1539C28.4275 76.1462 28.4644 76.1479 28.499 76.159Z" fill="#6640D0"/>
<g id="Vector_42" style="mix-blend-mode:multiply" opacity="0.39">
<path d="M53.8586 101.883C55.4736 110.229 57.6926 117.461 59.2302 118.233L59.2313 118.233C59.4775 118.536 59.7983 118.769 60.1617 118.908C60.5251 119.046 60.9182 119.086 61.3018 119.024C61.8399 118.84 62.298 118.474 62.5982 117.988C67.6214 110.566 71.7658 99.4128 71.7658 99.4128C71.6518 99.6857 63.6062 115.223 60.8571 115.342H60.8565C59.9807 115.379 58.959 113.857 57.9712 111.758C55.8592 107.271 53.9028 102.044 53.8586 101.883Z" fill="#E6A07A"/>
</g>
<path id="Vector_43" d="M51.3184 108.574C51.3435 107.831 51.4439 107.092 51.6178 106.37C51.8114 105.704 52.0888 105.066 52.4431 104.471C52.7826 103.908 53.0886 103.324 53.3597 102.725C53.6323 102.027 53.7544 101.279 53.7179 100.53C53.6406 98.8964 53.4397 97.2715 53.117 95.6691C52.794 93.8422 52.385 92.0372 52.1593 90.1929C52.1446 90.0729 52.3089 89.9781 52.3625 90.11C53.577 93.142 54.3528 96.3342 54.666 99.5885C54.7708 100.356 54.7738 101.134 54.6751 101.903C54.55 102.573 54.3223 103.22 54.0001 103.82C53.3289 105.143 52.5465 106.317 52.2491 107.818C51.874 109.711 51.79 111.682 51.5046 113.594C51.5043 113.611 51.5007 113.628 51.4938 113.644C51.4869 113.66 51.477 113.674 51.4646 113.686C51.4521 113.698 51.4375 113.707 51.4215 113.714C51.4054 113.72 51.3884 113.723 51.3712 113.722C51.3541 113.721 51.3373 113.717 51.3217 113.71C51.3062 113.703 51.2922 113.692 51.2807 113.68C51.2691 113.667 51.2602 113.652 51.2544 113.636C51.2487 113.62 51.2462 113.602 51.2472 113.585C51.2228 111.915 51.234 110.242 51.3184 108.574Z" fill="#6640D0"/>
<path id="Vector_44" d="M23.5334 123.316C23.5334 123.316 38.523 127.467 52.4885 123.007" stroke="#6640D0" stroke-linecap="round" stroke-linejoin="round"/>
</g>
<g id="Group_10">
<path id="Vector_45" d="M21.074 84.0662L31.7346 82.1721C31.7346 82.1721 33.3487 81.1693 33.6322 83.1192C33.9156 85.069 36.1275 123.954 36.1275 123.954C36.1275 123.954 35.0216 125.291 34.2474 125.291C33.4733 125.291 18.7791 124.511 18.7791 124.511L21.074 84.0662Z" fill="#CE4831"/>
<path id="Vector_46" d="M24.6267 81.7354C26.8372 82.8134 29.2831 83.3087 31.7354 83.1748L34.2482 123.843C34.2482 123.843 31.7324 123.048 27.6308 124.511L24.6267 81.7354Z" fill="#FFEBDD"/>
<g id="Group_11">
<g id="Vector_47" style="mix-blend-mode:multiply" opacity="0.41">
<path d="M30.3015 83.0139L31.4734 94.4096L31.1864 83.2021L30.3015 83.0139Z" fill="#E79E82"/>
</g>
<g id="Vector_48" style="mix-blend-mode:multiply" opacity="0.41">
<path d="M32.4526 123.493L32.0835 109.859L33.6552 123.72L32.4526 123.493Z" fill="#E79E82"/>
</g>
<g id="Vector_49" style="mix-blend-mode:multiply" opacity="0.41">
<path d="M30.887 123.721V114.02L31.7869 123.644L30.887 123.721Z" fill="#E79E82"/>
</g>
<g id="Vector_50" style="mix-blend-mode:multiply" opacity="0.41">
<path d="M29.436 83.0137L29.7982 90.5561L28.5774 83.0137H29.436Z" fill="#E79E82"/>
</g>
</g>
<path id="Vector_51" d="M11.3101 85.7876C11.3101 85.7876 13.9643 123.224 14.0749 124.339C14.0749 124.339 14.1689 125.453 16.0572 125.676C17.9456 125.898 28.8016 126.121 28.8016 126.121C28.8016 126.121 30.3729 126.233 30.5183 124.004C30.6636 121.776 28.0094 81.7855 28.0094 81.7855C28.0094 81.7855 27.6489 80.2234 25.1542 80.7805C22.6596 81.3376 11.3101 85.7876 11.3101 85.7876Z" fill="#CE4831"/>
<path id="Vector_52" d="M10.1379 85.7377C10.1379 85.7377 12.7921 123.174 12.9027 124.289C12.9027 124.289 12.9967 125.403 14.8851 125.626C16.7734 125.849 27.6295 126.071 27.6295 126.071C27.6295 126.071 29.2007 126.183 29.3461 123.954C29.4915 121.726 26.8373 81.7356 26.8373 81.7356C26.8373 81.7356 26.9456 80.1242 25.0061 80.4454C22.4847 80.863 10.1379 85.7377 10.1379 85.7377Z" fill="#FF6551"/>
<path id="Vector_53" d="M13.7256 90.5564V93.1469L23.9738 90.1858V87.2246L13.7256 90.5564Z" fill="#FF998C"/>
</g>
<path id="Vector_54" d="M2.24714 102.424C2.24714 102.424 6.32301 100.668 8.75603 101.893C11.189 103.119 12.8479 104.768 14.1197 104.835C15.3915 104.902 15.9445 105.013 16.3869 104.345C16.8292 103.676 17.4928 101.726 19.1517 100.445C20.6193 99.3924 22.0273 98.2579 23.3691 97.0467C24.2942 96.0996 24.626 97.4367 24.1836 98.2723C23.5567 99.4878 22.7448 100.597 21.7772 101.559C20.8105 102.395 21.0741 103.008 21.0741 103.008C22.4028 102.654 23.6872 102.15 24.9025 101.503C26.3955 100.612 30.7702 98.718 31.7347 98.9965C32.6992 99.2751 32.2079 99.7765 31.7347 100.111C31.2615 100.445 29.3814 101.225 28.1096 101.893C26.8378 102.562 24.4048 104.345 25.2342 104.066C26.0637 103.788 31.9803 100.891 33.031 101.281C34.0816 101.671 32.6992 102.729 32.0356 103.119C31.3721 103.509 26.119 106.239 26.119 106.239C26.119 106.239 32.9091 102.618 33.4124 103.008C33.9157 103.398 33.6392 104.099 32.5886 104.835C31.538 105.57 26.7825 107.743 26.3954 108.356C26.0084 108.969 32.3121 105.96 32.9204 106.462C33.5286 106.963 29.7132 109.191 28.3861 109.804C27.059 110.417 24.9025 111.587 23.133 111.587C21.3635 111.587 15.8892 111.141 15.8892 111.141C15.8892 111.141 7.99794 112.088 5.01195 111.587C2.02597 111.086 0.422388 108.467 0.311796 107.074C0.201204 105.682 0.429118 103.333 2.24714 102.424Z" fill="#FFBF94"/>
<g id="Vector_55" style="mix-blend-mode:multiply" opacity="0.39">
<path d="M23.9737 110.298C21.3596 109.943 18.7218 109.797 16.0848 109.86C13.5781 109.971 9.00696 110.788 4.95192 109.86C3.86898 109.594 2.87474 109.045 2.0693 108.268C1.26386 107.492 0.675637 106.515 0.363838 105.437C0.286265 105.979 0.268587 106.528 0.311128 107.074C0.421675 108.467 2.02526 111.085 5.01128 111.587C7.99731 112.088 15.8885 111.141 15.8885 111.141C15.8885 111.141 21.3628 111.587 23.1323 111.587C24.9017 111.587 27.0583 110.417 28.3854 109.804C29.5711 109.256 32.7343 107.422 32.9627 106.68C31.1299 107.76 26.1401 110.555 23.9737 110.298Z" fill="#E6A07A"/>
</g>
<g id="Vector_56" style="mix-blend-mode:multiply" opacity="0.39">
<path d="M12.5541 104.226C10.8251 103.419 8.99312 102.857 7.11075 102.558C5.50004 102.323 3.86767 102.278 2.24658 102.423C2.24658 102.423 5.31593 101.126 7.82505 101.575C10.3342 102.023 12.5541 104.226 12.5541 104.226Z" fill="#E6A07A"/>
</g>
<g id="Group_12">
<path id="Vector_57" d="M36.5355 9.02759C22.5641 10.2295 16.9189 19.5135 16.2985 29.9733C15.6781 40.4332 19.2713 56.528 20.9405 58.537C22.6096 60.546 33.2017 68.1078 38.3358 68.2723C43.4698 68.4368 55.6554 59.4223 58.3145 54.2905C60.9735 49.1588 64.3339 20.3243 55.1188 14.6369C49.4973 11.2084 43.1021 9.27805 36.5355 9.02759Z" fill="#FFBF94"/>
<g id="Vector_58" style="mix-blend-mode:multiply" opacity="0.39">
<path d="M54.7102 47.7979C54.7102 47.7979 57.3409 34.3649 51.1901 31.319C45.0392 28.2731 39.2953 25.162 36.9822 22.2523C36.9822 22.2523 36.5008 29.7131 27.3273 32.1675C18.1537 34.6219 20.0062 44.3417 20.2097 47.7929C20.4133 51.2441 18.3882 55.4848 17.3381 56.0372C16.2879 56.5895 18.4719 52.6702 18.4359 50.7573C18.3999 48.8443 16.8945 37.7348 16.8945 37.7348L33.0271 16.1643L40.4263 17.4792C40.4263 17.4792 53.1771 24.3831 53.3377 24.5603C53.4984 24.7376 57.8685 32.1992 57.727 32.4281C57.5856 32.6571 58.1272 42.0886 58.1032 42.2613C58.0792 42.4341 54.6865 48.0572 54.6865 48.0572L54.7102 47.7979Z" fill="#E6A07A"/>
</g>
<path id="Vector_59" d="M60.0679 38.9395C60.0679 38.9395 61.9653 36.8427 63.7791 40.0855C65.593 43.3284 62.7449 45.7474 61.7787 48.8468C60.8125 51.9462 58.7061 51.4001 58.7061 51.4001C58.7061 51.4001 58.9676 42.934 60.0679 38.9395Z" fill="#FFBF94"/>
<g id="Vector_60" style="mix-blend-mode:multiply" opacity="0.2">
<path d="M59.3796 43.1053C59.4637 42.5453 59.666 42.01 59.9729 41.5355C59.9168 41.5416 59.8612 41.5514 59.8064 41.5651C59.5875 41.6213 59.5298 41.3199 59.6582 41.1995C59.9374 40.9703 60.2942 40.8596 60.6531 40.8906C61.012 40.9217 61.3448 41.0922 61.5812 41.366C61.8617 41.688 62.0535 42.0786 62.1373 42.4986C62.2211 42.9187 62.194 43.3536 62.0588 43.7598C61.807 44.7439 61.1968 45.5874 60.8419 46.5329C60.5368 47.5804 60.1287 48.5946 59.6239 49.5606C59.5682 49.6287 59.4941 49.6791 59.4105 49.7057C59.327 49.7323 59.2376 49.734 59.1531 49.7105C59.0686 49.6871 58.9927 49.6395 58.9345 49.5735C58.8763 49.5075 58.8384 49.4259 58.8252 49.3386C58.7135 47.9304 58.7546 46.5141 58.9476 45.1149C59.0497 44.4366 59.194 43.7654 59.3796 43.1053Z" fill="#E6A07A"/>
</g>
<path id="Vector_61" d="M16.5827 39.1347C16.5827 39.1347 14.451 36.9929 12.6778 40.5482C10.9045 44.1035 14.0675 46.5407 15.2554 49.8006C16.4433 53.0606 18.9733 52.2651 18.9733 52.2651C18.9733 52.2651 17.9588 43.3434 16.5827 39.1347Z" fill="#FFBF94"/>
<g id="Vector_62" style="mix-blend-mode:multiply" opacity="0.2">
<path d="M13.339 42.3019C13.3428 43.7946 14.5676 45.0025 15.3968 46.1197C15.8721 46.7182 16.2624 47.3803 16.5565 48.0871C16.7272 48.5383 16.7639 49.3436 17.3654 49.4441C17.9466 49.5412 18.2091 48.8881 18.2472 48.4207C18.2752 47.85 18.2092 47.2785 18.0518 46.7296C17.9955 46.1017 17.8742 45.4815 17.69 44.8791C17.2794 43.5799 16.6786 42.333 16.184 41.0643C16.1141 40.9612 16.0607 40.8477 16.0259 40.7279C15.7933 40.5109 15.498 40.3743 15.183 40.3379C14.8681 40.3015 14.5498 40.3673 14.2744 40.5256C13.9758 40.7111 13.7317 40.9735 13.5672 41.2857C13.4028 41.598 13.324 41.9487 13.339 42.3019Z" fill="#E6A07A"/>
</g>
<path id="Vector_63" d="M54.5402 39.1649C54.6979 39.3614 54.4329 39.5998 54.1969 39.4736C53.2026 38.9421 51.8826 38.9824 49.8177 38.7235C47.9032 38.4835 44.0831 39.1527 44.1598 36.7904C44.2181 34.9954 47.611 34.795 50.7609 36.253C52.2255 36.919 53.5186 37.9152 54.5402 39.1649Z" fill="#662920"/>
<path id="Vector_64" d="M20.7212 41.1877C20.7044 41.2351 20.7043 41.2868 20.7208 41.3343C20.7373 41.3817 20.7695 41.422 20.8119 41.4485C20.8544 41.4749 20.9046 41.4858 20.9541 41.4795C21.0036 41.4731 21.0495 41.4498 21.084 41.4135C21.7673 40.6908 23.566 40.0122 25.2029 39.3273C26.7205 38.6923 31.0414 38.7685 30.5059 36.4661C30.0901 34.6788 25.3117 35.5093 23.0888 37.5804C22.0256 38.5757 21.2139 39.8124 20.7212 41.1877Z" fill="#662920"/>
<g id="Vector_65" style="mix-blend-mode:multiply" opacity="0.39">
<path d="M35.9405 50.5729C36.4861 50.2734 37.0925 50.1035 37.7132 50.0762C38.3681 50.0613 39.0196 50.1754 39.631 50.412C40.2712 50.5843 40.8363 50.9662 41.2372 51.4978C41.2672 51.5491 41.2802 51.6088 41.2742 51.6681C41.2682 51.7274 41.2436 51.7832 41.204 51.8274C40.9123 52.1316 40.5624 52.0533 40.1944 51.9217C39.5716 51.6535 38.9121 51.4816 38.2384 51.4118C37.7256 51.3782 37.2124 51.4705 36.7429 51.681C36.2538 51.9166 35.9854 52.4249 35.4164 52.4484C35.2768 52.4506 35.1418 52.3986 35.0392 52.3031C34.9367 52.2077 34.8747 52.0761 34.8659 51.9357C34.7884 51.2943 35.4411 50.8496 35.9405 50.5729Z" fill="#E6A07A"/>
</g>
<path id="Vector_66" d="M32.8135 55.802C32.8135 55.802 32.8595 56.236 33.0013 56.8879C33.2816 58.303 33.84 59.6472 34.6436 60.8416C35.0662 61.4872 35.6513 62.0082 36.3391 62.3513C37.0269 62.6945 37.7929 62.8476 38.5587 62.7949C39.3625 62.7317 40.1347 62.4523 40.7949 61.9861C41.4551 61.5198 41.9791 60.8837 42.3122 60.144C42.9532 58.8361 43.3537 57.4221 43.4945 55.9703C43.5766 55.2461 43.5795 54.7671 43.5795 54.7671C40.222 56.372 36.4117 56.7382 32.8135 55.802Z" fill="#9F2236"/>
<path id="Vector_67" d="M34.7513 13.2367C35.4961 14.4854 35.9495 15.8882 36.0774 17.3393C36.2053 18.7904 36.0042 20.2517 35.4894 21.613C34.4261 24.3383 32.5298 26.652 30.0749 28.2196C27.369 30.0293 24.152 31.0905 21.7911 33.3375C19.7094 35.3387 18.4915 38.0838 18.3999 40.9812C18.3328 43.4927 19.1237 45.9512 19.2415 48.4608C19.4109 52.0703 18.191 55.5754 17.3645 59.0916C16.5379 62.6079 16.1407 66.4893 17.8195 69.6825C16.7051 68.3511 15.8988 66.7864 15.4592 65.102C15.0196 63.4176 14.9577 61.6557 15.278 59.9442C15.6775 58.3352 16.1748 56.7525 16.767 55.205C18.1691 50.8963 18.4159 45.9779 16.2883 41.9822C15.3342 40.1905 13.9507 38.6641 12.9488 36.8991C11.0815 33.4484 10.5773 29.4144 11.5371 25.605C12.516 21.8197 14.5409 18.3919 17.3766 15.7198C21.3566 11.8634 27.0422 9.38796 32.4395 10.5634L34.7513 13.2367Z" fill="#662920"/>
<path id="Vector_68" d="M26.6814 8.38379C27.719 11.5591 37.2857 20.4465 39.9843 22.3917C42.7406 24.3623 45.6028 26.178 48.5579 27.8306C50.0564 28.5716 51.4427 29.5236 52.6751 30.6579C55.2248 33.2789 55.7506 37.2896 55.4965 40.9506C55.2424 44.6116 54.3503 48.2475 54.6154 51.9078C54.8864 55.6506 56.3538 59.2041 56.8839 62.9187C57.6854 68.5361 57.1702 70.1405 53.8512 74.7259C57.5781 70.9543 58.8941 70.1859 59.8746 64.9564C60.2253 63.1994 60.377 61.408 60.3269 59.6166C60.2461 57.5927 59.8279 55.6 59.5716 53.591C59.1168 50.2528 59.1986 46.8625 59.8138 43.5504C60.6305 39.3685 62.4327 35.3863 62.7867 31.1391C63.1425 26.8698 62.0088 22.6196 60.6246 18.5686C59.8977 16.4411 59.0439 14.2553 57.3931 12.7399C55.9719 11.4354 54.1045 10.7625 52.2903 10.1209C49.4287 9.10899 46.4342 8.08179 43.4284 8.48831L26.6814 8.38379Z" fill="#662920"/>
<path id="Vector_69" d="M32.8135 55.802C32.8135 55.802 32.8595 56.236 33.0013 56.8879C34.4472 57.7996 36.1061 58.3111 37.8108 58.3709C40.4062 58.4345 42.5755 56.7918 43.4945 55.9703C43.5766 55.2461 43.5795 54.7671 43.5795 54.7671C40.222 56.372 36.4117 56.7382 32.8135 55.802Z" fill="white"/>
<path id="Vector_70" d="M34.6453 60.8409C35.0678 61.4865 35.6529 62.0075 36.3407 62.3507C37.0286 62.6939 37.7945 62.8469 38.5603 62.7943C39.3641 62.731 40.1363 62.4517 40.7965 61.9854C41.4567 61.5192 41.9807 60.8831 42.3139 60.1434C41.6742 59.9176 40.9933 59.8356 40.3189 59.903C39.6444 59.9704 38.9928 60.1857 38.4096 60.5337C38.4096 60.5337 36.8383 59.7209 34.6453 60.8409Z" fill="#FF6551"/>
<path id="Vector_71" d="M15.922 32.0226C16.3507 30.7144 17.0818 29.5276 18.055 28.5597C20.049 26.5174 22.6078 25.2212 24.9479 23.6433C25.608 23.1981 26.2433 22.7155 26.865 22.2179C27.5296 21.7416 28.1273 21.1772 28.6421 20.54C28.7331 20.413 28.9606 20.5427 28.8808 20.6835C28.5034 21.4309 28.0568 22.1407 27.5469 22.8035C27.0101 23.4144 26.4131 23.9688 25.765 24.458C24.4006 25.5305 22.8976 26.3954 21.4845 27.3978C20.0394 28.3396 18.7986 29.5667 17.8372 31.005C16.9174 32.4108 16.5265 34.1014 16.735 35.7719C16.7435 35.8567 16.7218 35.9417 16.6737 36.0118C16.6256 36.0819 16.5543 36.1324 16.4725 36.1543C16.3908 36.1762 16.304 36.168 16.2277 36.1313C16.1514 36.0945 16.0906 36.0316 16.0562 35.9537C15.8088 35.3581 15.6658 34.7237 15.6335 34.0788C15.6221 33.3824 15.7194 32.6886 15.922 32.0226Z" fill="#7A332D"/>
<path id="Vector_72" d="M13.1653 35.6867C13.1683 35.6693 13.1773 35.6535 13.1907 35.6422C13.2042 35.6308 13.2211 35.6247 13.2387 35.6248C13.2562 35.6248 13.2731 35.6312 13.2864 35.6426C13.2998 35.6541 13.3087 35.6699 13.3115 35.6873C13.6301 36.6898 14.1539 37.6138 14.849 38.3996C15.5238 39.2148 16.1444 40.0741 16.7068 40.9718C17.8107 43.1144 18.36 45.5031 18.3038 47.9165C18.3255 50.5232 17.8471 53.1094 16.8949 55.5332C16.0278 57.7795 15.1654 59.9554 15.2798 62.4114C15.4603 64.9004 16.3067 67.2936 17.729 69.3368C17.9161 69.6195 17.5508 70.049 17.2792 69.7802C15.7288 68.192 14.7068 66.1576 14.3546 63.9585C13.9574 61.6442 14.1673 59.2656 14.9635 57.0582C15.3933 55.7756 15.9055 54.5223 16.282 53.2215C16.6382 51.9723 16.8604 50.6883 16.9449 49.3914C17.1748 46.84 16.7484 44.2719 15.7068 41.9346C15.176 40.8424 14.3977 39.8824 13.7902 38.8327C13.2073 37.8962 12.985 36.7771 13.1653 35.6867Z" fill="#7A332D"/>
<path id="Vector_73" d="M7.51734 30.8232C8.83523 27.7393 10.867 25.0182 13.4426 22.8875C14.753 21.8174 16.2217 20.9605 17.7951 20.348C19.5508 19.6739 21.3703 19.2236 23.0311 18.3133C24.6259 17.4203 26.069 16.2766 27.3059 14.9253C28.596 13.5431 29.712 12.0058 30.6287 10.3484C30.7266 10.1707 31.0361 10.2215 30.9947 10.452C30.8724 11.2598 30.6603 12.0512 30.3622 12.8112C30.0489 13.5708 29.6694 14.3009 29.228 14.9929C28.3045 16.3955 27.1585 17.6358 25.8358 18.6639C24.5 19.7152 23.0062 20.5449 21.4108 21.1218C19.677 21.662 17.9904 22.3455 16.3682 23.1654C10.4317 26.5336 7.3697 33.3388 6.95427 39.9652C6.67462 44.4257 7.45682 48.9134 8.48937 53.2359C8.58808 53.649 7.92974 53.8119 7.78228 53.4252C5.05738 46.2809 4.39972 37.9612 7.51734 30.8232Z" fill="#7A332D"/>
<path id="Vector_74" d="M14.1275 13.6755C14.8241 12.2804 15.8537 11.0815 17.1237 10.1863C19.6074 8.36707 22.5345 7.70119 25.3776 6.69719C26.6796 6.23743 28.3336 5.629 29.1414 4.42731C29.3544 4.11041 29.9022 4.43181 29.7193 4.77489C29.4536 5.34141 29.1153 5.87037 28.713 6.34821C28.2874 6.8053 27.8015 7.20136 27.269 7.52529C26.0922 8.20153 24.8476 8.75029 23.556 9.1624C20.8433 10.1363 18.1551 11.37 16.3054 13.6741C15.7945 14.2682 15.3802 14.9401 15.0781 15.6649C14.9213 16.0185 14.7868 16.3816 14.6754 16.7523C14.6175 17.1637 14.5293 17.5702 14.4114 17.9684C14.3726 18.0522 14.3107 18.123 14.2331 18.1723C14.1555 18.2217 14.0654 18.2474 13.9736 18.2466C13.8819 18.2457 13.7923 18.2183 13.7156 18.1675C13.6389 18.1168 13.5783 18.0449 13.5411 17.9604C13.3205 17.2532 13.2909 16.4996 13.4552 15.7771C13.5601 15.0434 13.7874 14.3328 14.1275 13.6755Z" fill="#7A332D"/>
<path id="Vector_75" d="M51.2996 29.0897C52.5845 29.6429 53.6846 30.5563 54.4692 31.7211C55.3732 32.907 56.0228 34.2692 56.3765 35.7214C56.7771 37.3489 56.8952 39.0338 56.7254 40.7018C56.5554 42.4749 56.0031 44.1581 55.7059 45.9064C55.4553 47.7607 55.4125 49.6376 55.5785 51.5015C55.6295 53.2302 55.8025 54.9531 56.096 56.6571C56.4337 58.3612 57.1972 59.9172 57.6518 61.5853C58.0504 63.0564 58.2197 64.581 58.1538 66.1046C58.0893 67.5566 57.8071 68.9904 57.3168 70.3574C57.7851 69.4856 58.1943 68.5829 58.5413 67.6553C59.47 65.1566 59.9601 62.5142 59.9898 59.8463C60.0026 59.0669 59.9465 58.2934 59.8877 57.5171C59.779 56.81 59.7433 56.0936 59.7811 55.3791C59.7824 55.3712 59.786 55.3638 59.7914 55.3579C59.7968 55.3519 59.8037 55.3477 59.8115 55.3457C59.8192 55.3437 59.8273 55.344 59.8349 55.3465C59.8424 55.3491 59.8491 55.3538 59.8541 55.3601C60.5768 56.3759 60.6834 57.9405 60.7817 59.1448C60.8934 60.5465 60.8483 61.9564 60.6472 63.3479C60.2623 66.0917 59.323 68.7269 57.8874 71.0907C57.0915 72.3983 56.1696 73.8068 54.8359 74.6047C54.8132 74.6168 54.7873 74.6216 54.7618 74.6184C54.7363 74.6152 54.7123 74.6041 54.6933 74.5868C54.5306 74.7521 54.3626 74.9143 54.1892 75.0734C53.9745 75.2699 53.7026 74.9427 53.8514 74.7257C55.4963 72.3522 56.5148 69.5962 56.8112 66.7169C56.941 65.2665 56.8358 63.8045 56.4997 62.3882C56.1289 60.8224 55.3958 59.3714 54.9878 57.8151C54.6006 56.2 54.3697 54.5509 54.2983 52.8909C54.1522 51.1517 54.0997 49.4059 54.1412 47.661C54.2998 45.9357 54.5981 44.2263 55.0332 42.5499C55.3764 40.9417 55.4909 39.2925 55.3732 37.6517C55.2376 36.003 54.8022 34.3934 54.0888 32.9033C53.334 31.5224 52.3589 30.276 51.2025 29.214C51.1411 29.1501 51.2317 29.0654 51.2996 29.0897Z" fill="#7A332D"/>
<path id="Vector_76" d="M37.1272 10.6418C37.3608 11.1634 37.6827 11.6248 37.9413 12.1298C38.2231 12.6801 38.5172 13.2234 38.8473 13.7461C39.4788 14.742 40.1954 15.6805 40.989 16.5508C42.6699 18.343 44.599 19.8813 46.7164 21.118C49.1616 22.5294 51.6811 23.8058 54.2637 24.9418C56.5889 25.9431 58.8391 27.1125 60.997 28.4406C63.2053 29.8793 65.1519 31.7391 66.0669 34.2738C66.1924 34.6217 65.7054 34.944 65.4847 34.608C62.7296 30.416 58.0228 28.3777 53.6481 26.3759C48.7872 24.1517 43.8232 21.8174 40.2232 17.7137C39.3377 16.7172 38.5736 15.6176 37.9472 14.4384C37.65 13.8761 37.3958 13.2918 37.1869 12.6906C37.0002 12.0481 36.8829 11.3873 36.8369 10.7195C36.8333 10.6833 36.8427 10.6469 36.8633 10.617C36.8838 10.5871 36.9143 10.5655 36.9492 10.5562C36.9841 10.5468 37.0212 10.5503 37.0538 10.566C37.0864 10.5817 37.1124 10.6085 37.1272 10.6418Z" fill="#7A332D"/>
<path id="Vector_77" d="M40.6839 6.61284C41.369 7.31665 41.9706 8.09644 42.6668 8.79164C43.3746 9.50843 44.1539 10.1498 44.9922 10.7057C46.7387 11.7978 48.5664 12.7521 50.4591 13.5601C52.6014 14.5188 54.7947 15.3513 56.899 16.3956C58.8621 17.3421 60.7179 18.4994 62.4341 19.8476C65.5702 22.416 68.1126 25.6425 69.884 29.3023C71.6555 32.9621 72.6133 36.9671 72.6909 41.0381C72.7557 43.5782 72.4424 46.1137 71.7613 48.5602C71.0174 50.9886 69.9705 53.3122 68.6459 55.4751C68.5893 55.5716 68.4343 55.5132 68.4819 55.4037C68.9591 54.3549 69.3369 53.263 69.6102 52.1426C69.8496 51.0869 70.1107 50.0359 70.3071 48.9706C70.7039 46.8293 70.9157 44.6573 70.94 42.4792C70.9768 38.3811 70.0805 34.329 68.32 30.6345C66.7184 27.2786 64.4227 24.3067 61.5869 21.9185C58.2586 19.1178 54.2179 17.5617 50.356 15.6776C48.2216 14.7081 46.2221 13.4615 44.4085 11.9695C42.8211 10.5904 40.9466 8.98205 40.3114 6.89595C40.2499 6.69373 40.496 6.41985 40.6839 6.61284Z" fill="#7A332D"/>
<path id="Vector_78" d="M41.6963 2.73674C42.132 3.05591 42.6303 3.18685 43.0666 3.50379C43.4866 3.80885 43.9176 4.09782 44.3598 4.37072C45.2131 4.89607 46.1004 5.36306 47.0158 5.76851C48.9026 6.56166 50.8564 7.18217 52.8536 7.62255C54.9679 8.09557 56.9608 9.00867 58.7043 10.3033C60.2653 11.4972 61.7122 12.8356 63.026 14.3009C63.7696 15.0683 64.4134 15.9277 64.9422 16.8585C65.409 17.7791 65.7513 18.7586 65.9601 19.7707C66.0124 20.0085 65.6599 20.08 65.5663 19.8761C65.1543 19.0153 64.6437 18.206 64.045 17.4646C63.482 16.7448 62.943 16.0146 62.321 15.3432C60.989 13.9408 59.5126 12.6853 57.9167 11.5979C56.192 10.4704 54.2703 9.68335 52.2539 9.27876C50.2447 8.86928 48.2958 8.20212 46.4548 7.29357C45.4834 6.77866 44.5542 6.18644 43.6763 5.52254C43.219 5.1736 42.7761 4.80654 42.3478 4.42137C41.9782 4.00485 41.6378 3.56289 41.3291 3.0987C41.1319 2.86625 41.4661 2.56801 41.6963 2.73674Z" fill="#7A332D"/>
<g id="Group_13">
<path id="Vector_79" d="M29.5547 50.1052C31.3434 48.7459 31.6997 46.1832 30.3505 44.3812C29.0014 42.5792 26.4577 42.2202 24.6691 43.5794C22.8804 44.9387 22.5241 47.5014 23.8732 49.3034C25.2224 51.1054 27.7661 51.4644 29.5547 50.1052Z" fill="white"/>
<path id="Vector_80" d="M30.2852 47.9535C30.9377 46.2636 30.1069 44.3607 28.4295 43.7033C26.7521 43.0459 24.8633 43.8829 24.2108 45.5729C23.5583 47.2628 24.3891 49.1657 26.0665 49.8231C27.7439 50.4805 29.6327 49.6435 30.2852 47.9535Z" fill="black"/>
<path id="Vector_81" d="M29.272 46.1782C29.4088 46.3413 29.4945 46.5415 29.5184 46.7536C29.5422 46.9657 29.503 47.1802 29.4059 47.3699C29.3087 47.5596 29.1579 47.716 28.9725 47.8193C28.7871 47.9227 28.5755 47.9683 28.3643 47.9505C28.1532 47.9326 27.952 47.8521 27.7863 47.7191C27.6206 47.5861 27.4978 47.4066 27.4333 47.2032C27.3689 46.9999 27.3657 46.7818 27.4243 46.5767C27.4829 46.3715 27.6005 46.1885 27.7623 46.0507C27.8697 45.9592 27.994 45.8899 28.128 45.8468C28.2621 45.8037 28.4032 45.7876 28.5434 45.7994C28.6836 45.8113 28.8201 45.8508 28.9451 45.9158C29.0701 45.9808 29.1812 46.07 29.272 46.1782Z" fill="white"/>
</g>
<g id="Group_14">
<path id="Vector_82" d="M49.9606 50.6332C52.1777 50.3081 53.7134 48.2338 53.3907 46.0002C53.0681 43.7666 51.0092 42.2194 48.7922 42.5445C46.5751 42.8695 45.0394 44.9438 45.3621 47.1774C45.6847 49.411 47.7436 50.9582 49.9606 50.6332Z" fill="white"/>
<path id="Vector_83" d="M51.1032 49.1469C52.6009 48.1413 53.0058 46.1028 52.0076 44.5939C51.0094 43.085 48.9861 42.6771 47.4884 43.6828C45.9907 44.6884 45.5858 46.7269 46.584 48.2357C47.5822 49.7446 49.6055 50.1526 51.1032 49.1469Z" fill="black"/>
<path id="Vector_84" d="M47.1134 46.8254C47.1663 47.0122 47.273 47.1789 47.42 47.3046C47.567 47.4303 47.7477 47.5092 47.9392 47.5314C48.1308 47.5536 48.3245 47.5181 48.496 47.4294C48.6675 47.3406 48.809 47.2027 48.9027 47.0329C48.9964 46.8631 49.038 46.6692 49.0222 46.4756C49.0065 46.282 48.9341 46.0975 48.8142 45.9453C48.6944 45.7932 48.5325 45.6802 48.3489 45.6208C48.1654 45.5614 47.9685 45.5581 47.7831 45.6115C47.5345 45.683 47.3243 45.851 47.1987 46.0787C47.0731 46.3064 47.0424 46.575 47.1134 46.8254Z" fill="white"/>
</g>
</g>
</g>
</g>
</svg>
