<svg width="100" height="100" viewBox="0 0 100 100" fill="none" xmlns="http://www.w3.org/2000/svg">
<g id="book (1) 1" clip-path="url(#clip0_320_58209)">
<g id="Group">
<g id="Group_2">
<g id="Group_3">
<g id="Group_4">
<path id="Vector" fill-rule="evenodd" clip-rule="evenodd" d="M28.6978 8.10713C31.9866 7.78779 35.8654 8.92412 38.6226 9.61357C44.8642 11.1726 50.7675 12.6058 56.7902 14.3103C59.6884 15.1302 62.6982 16.0478 65.6519 16.8798C71.7046 18.5872 77.131 19.8954 83.4646 21.9313C86.1825 22.8048 89.2337 23.6161 92.1478 24.6792C94.5896 25.5677 97.7226 26.7847 99.0609 29.1101C99.3652 29.6388 99.845 30.6954 99.9474 31.503C100.215 33.6198 99.4074 35.9714 98.8833 37.8835C97.2972 43.6827 95.1222 49.1099 93.3894 54.7214C91.5111 60.8052 90.2218 66.0905 88.781 72.4448C87.8427 76.5845 87.4079 81.4888 81.9572 80.8624C81.1439 80.7704 80.447 80.5206 79.6535 80.3317C77.9865 79.9345 76.1702 79.9241 74.6909 79.6227C71.498 78.9727 68.2888 78.106 65.4743 77.4073C59.105 75.8259 53.3753 74.3118 47.3968 72.7106C38.3913 70.2989 30.3974 67.1886 21.1648 64.6462C18.1013 63.8019 13.737 63.3567 12.3031 61.3677C11.9904 60.9329 11.4767 59.896 11.239 59.1522C10.8267 57.8601 11.2447 56.4024 11.5058 54.8106C12.6628 47.7192 14.6181 40.4165 16.379 34.0726C18.0677 27.9897 20.0933 23.3964 21.874 17.5888C22.4271 15.7837 22.8601 13.8313 23.646 12.0938C24.5993 9.98818 26.6177 8.30908 28.6978 8.10713Z" fill="#FF5000"/>
<g id="Group_5">
<path id="Vector_2" fill-rule="evenodd" clip-rule="evenodd" d="M62.8379 21.0138C63.9865 20.2925 65.0938 19.5167 66.9119 19.3308C70.0477 19.0087 73.5488 19.7056 76.1295 20.3056C78.7225 20.9085 81.1971 21.9013 83.7957 22.6976C86.2037 23.4368 88.7385 24.1909 91.5576 25.0033C93.7881 25.6447 97.7936 26.6017 98.3485 28.1925C98.6828 29.1495 98.2602 30.5581 97.8639 31.5603C96.7293 34.4245 95.6522 37.6103 94.759 40.5995C93.5719 44.5759 92.0072 48.4921 90.6832 52.6515C89.4295 56.5921 88.1899 60.6972 86.7051 64.7927C86.0326 66.6523 85.2494 68.5324 84.4746 70.6417C83.7196 72.6929 83.2594 75.2154 81.1764 75.6943C79.9612 75.9704 79.0248 75.4408 77.7785 74.8068C76.7098 74.2613 75.5313 73.7888 74.7725 73.3886C72.7815 72.3423 70.844 71.1685 69.0465 70.3759C64.7574 68.4845 58.5358 67.8177 54.1039 69.3118C51.418 70.2201 49.8741 71.407 47.4088 73.123C43.4241 67.829 39.1698 64.4585 32.4662 62.0449C30.2959 61.2634 27.9508 60.6015 25.2865 60.4501C22.0662 60.2669 16.7104 61.4851 15.1965 59.3861C14.8649 58.9288 14.6096 57.7304 14.711 56.5507C14.8942 54.4226 15.6135 52.2701 16.069 50.1712C16.5207 48.0909 17.0043 45.9939 17.5256 43.9663C18.5033 40.1534 19.9768 36.6128 21.2127 32.2693C22.8674 26.4484 24.5006 20.531 26.2569 14.279C26.6776 12.7859 27.5951 9.0509 29.3625 9.0509C30.7309 9.0509 32.3199 9.53372 33.7305 9.93743C37.7848 11.0964 41.3797 12.2974 45.76 13.3052C49.8819 14.2519 54.0639 15.2277 57.5002 16.9388C59.7078 18.0349 61.6678 18.9806 62.8379 21.0138Z" fill="#C0B7E4"/>
<path id="Vector_3" fill-rule="evenodd" clip-rule="evenodd" d="M63.613 17.0581C64.663 16.335 65.6743 15.5593 67.3358 15.3743C70.1993 15.0522 73.397 15.7489 75.7542 16.3471C78.1208 16.951 80.3823 17.9446 82.7554 18.7411C84.954 19.4792 87.2708 20.2333 89.844 21.0458C91.8819 21.6882 95.5389 22.6452 96.0479 24.235C96.3532 25.193 95.9673 26.6016 95.6048 27.6028C94.5679 30.4673 93.5846 33.6528 92.7684 36.643C91.6847 40.6184 90.2554 44.5346 89.0468 48.695C87.9011 52.6356 86.7694 56.7407 85.4132 60.8362C84.7979 62.6948 84.0833 64.5759 83.3753 66.6842C82.6868 68.7352 82.2671 71.2579 80.3626 71.7358C79.2544 72.0147 78.3979 71.4823 77.2597 70.8493C76.2829 70.3036 75.2087 69.8313 74.5128 69.4311C72.6966 68.385 70.9272 67.211 69.2854 66.4194C65.3673 64.528 59.6837 63.8612 55.6378 65.3553C53.1839 66.2616 51.7741 67.4497 49.5231 69.1655C45.8821 63.8716 41.997 60.502 35.8755 58.0893C33.8938 57.3069 31.7509 56.645 29.3175 56.4936C26.377 56.3104 21.4841 57.5276 20.1016 55.4296C19.7983 54.9714 19.5645 53.7729 19.6585 52.5942C19.8257 50.4651 20.4821 48.3126 20.8991 46.2137C21.3114 44.1335 21.7528 42.0364 22.229 40.0098C23.1222 36.196 24.4661 32.6555 25.5958 28.312C27.1087 22.4913 28.6001 16.5727 30.2042 10.3227C30.5874 8.82859 31.4261 5.0946 33.0386 5.09363C34.2886 5.09363 35.7415 5.57722 37.027 5.98015C40.7309 7.13894 44.0151 8.33933 48.0169 9.34792C51.78 10.2964 55.5995 11.2714 58.7389 12.9815C60.7552 14.0782 62.5462 15.0239 63.613 17.0581Z" fill="#E2DFF2"/>
<g id="Group_6">
<g id="Group_7">
<g id="Group_8">
<path id="Vector_4" fill-rule="evenodd" clip-rule="evenodd" d="M84.6141 57.8186C84.386 58.1257 84.0356 57.8618 83.8252 57.7868C83.1059 57.5313 82.3922 57.0776 81.6614 56.7632C80.6518 56.3284 79.585 55.9724 78.5086 55.5798C76.4473 54.8284 74.2948 54.0198 72.085 53.3616C68.1229 52.1792 63.7981 51.3989 59.7231 50.2962C59.2225 50.1601 58.6225 50.069 58.2581 49.6632C58.3342 49.2829 58.7229 49.328 59.0338 49.3241C59.6143 49.3157 60.2829 49.5073 60.9573 49.6351C62.7333 49.9694 64.5588 50.47 66.1649 50.8776C68.5278 51.4778 70.8268 52.0825 73.0629 52.6198C76.626 53.4743 80.051 54.2698 82.5981 55.9104C82.9954 56.1669 83.3936 56.4823 83.7748 56.7763C84.1041 57.0325 84.6639 57.3171 84.6141 57.8186Z" fill="white"/>
<path id="Vector_5" fill-rule="evenodd" clip-rule="evenodd" d="M80.6698 66.7987C80.4398 67.1058 80.0913 66.8419 79.88 66.7667C79.1607 66.5102 78.447 66.0577 77.7163 65.7421C76.7077 65.3081 75.6407 64.9522 74.5646 64.5597C72.5023 63.8083 70.3507 62.9997 68.1399 62.3405C64.1778 61.1591 59.853 60.3786 55.778 59.2761C55.2784 59.1399 54.6774 59.0489 54.313 58.644C54.3899 58.2628 54.7788 58.3077 55.0896 58.303C55.669 58.2954 56.3376 58.4872 57.013 58.614C58.789 58.9483 60.6136 59.4497 62.2187 59.8583C64.5825 60.4575 66.8815 61.0622 69.1185 61.5995C72.6806 62.4542 76.1056 63.2505 78.6536 64.8911C79.0509 65.1466 79.4482 65.462 79.8294 65.7561C80.1599 66.0116 80.7187 66.2972 80.6698 66.7987Z" fill="white"/>
<path id="Vector_6" fill-rule="evenodd" clip-rule="evenodd" d="M81.7128 64.5918C81.4847 64.8998 81.1343 64.6359 80.9239 64.5597C80.2046 64.3052 79.4909 63.8515 78.7593 63.5361C77.7507 63.1013 76.6847 62.7462 75.6075 62.3537C73.5462 61.6013 71.3946 60.7937 69.1839 60.1345C65.2218 58.9531 60.897 58.1726 56.822 57.0701C56.3214 56.9339 55.7204 56.8427 55.3569 56.4371C55.4329 56.0568 55.8218 56.1017 56.1337 56.097C56.7132 56.0896 57.3808 56.281 58.0571 56.4087C59.8321 56.7421 61.6579 57.2445 63.2638 57.6521C65.6267 58.2513 67.9257 58.856 70.1628 59.3931C73.7249 60.2478 77.1499 61.0433 79.697 62.6839C80.0942 62.9404 80.4925 63.2558 80.8737 63.5507C81.2028 63.8056 81.7626 64.0902 81.7128 64.5918Z" fill="white"/>
<path id="Vector_7" fill-rule="evenodd" clip-rule="evenodd" d="M82.8243 59.7411C82.2589 59.8922 81.6635 59.604 81.1667 59.4057C77.6702 58.0122 73.877 56.5799 69.9637 55.4079C66.6561 54.4171 63.0593 53.5917 59.6407 52.5604C59.126 52.4046 58.5204 52.2139 58.0075 52.0157C57.5587 51.8428 56.9284 51.6739 56.9462 51.0569C57.5622 50.7526 58.5803 51.0522 59.5184 51.2258C63.7296 52.0063 67.8495 53.1764 71.4503 54.3505C74.693 55.4069 77.611 56.6278 80.4708 58.0102C80.9028 58.2186 81.376 58.4731 81.8214 58.7362C82.1923 58.9549 82.8366 59.1653 82.8243 59.7411Z" fill="white"/>
<path id="Vector_8" fill-rule="evenodd" clip-rule="evenodd" d="M82.8243 62.3501C82.2589 62.5013 81.6635 62.213 81.1667 62.0148C77.6702 60.621 73.877 59.189 69.9637 58.0169C66.6561 57.0251 63.0593 56.2005 59.6407 55.1694C59.126 55.0146 58.5204 54.8237 58.0075 54.6247C57.5587 54.4519 56.9284 54.2829 56.9462 53.6657C57.5622 53.3614 58.5803 53.6601 59.5184 53.8349C63.7296 54.6153 67.8495 55.7855 71.4503 56.9593C74.693 58.0159 77.611 59.2368 80.4708 60.619C80.9028 60.8276 81.376 61.0812 81.8214 61.345C82.1923 61.564 82.8366 61.7743 82.8243 62.3501Z" fill="white"/>
</g>
<g id="Group_9">
<path id="Vector_9" fill-rule="evenodd" clip-rule="evenodd" d="M71.2233 18.3118C70.9866 19.6878 70.6702 20.9978 70.3358 22.2909C68.929 21.9454 67.5597 21.564 65.9839 21.3847C66.1942 20.8249 66.3858 20.1986 66.661 19.589C66.8817 19.1034 67.2517 18.3587 67.7054 18.1408C68.1204 17.9408 68.7487 17.9201 69.2015 17.9425C69.8878 17.9775 70.5593 18.2771 71.2233 18.3118Z" fill="#8F7ECE"/>
<path id="Vector_10" fill-rule="evenodd" clip-rule="evenodd" d="M72.1834 18.4988C73.5301 18.8068 74.6881 19.3027 75.9447 19.7019C75.5061 20.9228 75.0459 22.1287 74.6947 23.4238C73.5066 23.2105 72.5057 22.8125 71.3486 22.5664C71.6576 21.2365 71.9328 19.8775 72.1834 18.4988Z" fill="#8F7ECE"/>
<path id="Vector_11" fill-rule="evenodd" clip-rule="evenodd" d="M76.8107 20.0277C77.8287 20.3601 78.8018 20.7404 79.8141 21.0814C79.598 22.3435 79.1502 23.4125 78.8561 24.6107C77.7826 24.314 76.7439 23.9853 75.6592 23.7008C76.0275 22.4638 76.4295 21.2552 76.8107 20.0277Z" fill="#8F7ECE"/>
<path id="Vector_12" fill-rule="evenodd" clip-rule="evenodd" d="M84.3983 22.7474C84.1071 23.8894 83.8075 25.0238 83.538 26.1827C82.3114 25.7544 81.053 25.3581 79.8247 24.9327C80.1411 23.7833 80.4728 22.6468 80.7329 21.4503C81.9921 21.8458 83.1698 22.321 84.3983 22.7474Z" fill="#8F7ECE"/>
<path id="Vector_13" fill-rule="evenodd" clip-rule="evenodd" d="M70.1219 23.2067C69.8825 24.0848 69.627 24.9506 69.4307 25.8635C67.8379 25.717 66.5147 25.3047 64.7434 25.3338C65.0627 24.2885 65.3754 23.2385 65.7172 22.2122C67.2641 22.4647 68.684 22.845 70.1219 23.2067Z" fill="#8F7ECE"/>
<path id="Vector_14" fill-rule="evenodd" clip-rule="evenodd" d="M74.383 24.343C74.1182 25.2155 73.8363 26.0739 73.5369 26.9163C72.5199 26.6129 71.4764 26.3331 70.3926 26.0954C70.6396 25.2379 70.8707 24.3665 71.0855 23.4827C72.2455 23.711 73.2561 24.0838 74.383 24.343Z" fill="#8F7ECE"/>
<path id="Vector_15" fill-rule="evenodd" clip-rule="evenodd" d="M87.9605 24.005C87.6253 25.1527 87.212 26.2355 86.8983 27.4019C86.0409 27.1765 85.3507 26.7867 84.5054 26.5501C84.7974 25.4101 84.9853 24.1825 85.313 23.0724C86.2015 23.3777 87.0608 23.7111 87.9605 24.005Z" fill="#8F7ECE"/>
<path id="Vector_16" fill-rule="evenodd" clip-rule="evenodd" d="M75.3468 24.62C76.5001 24.8528 77.5097 25.2266 78.5935 25.5272C78.3494 26.4307 78.0498 27.2882 77.8544 28.2311C76.7095 27.9436 75.7142 27.5079 74.5525 27.2356C74.7373 26.2983 75.1459 25.545 75.3468 24.62Z" fill="#8F7ECE"/>
<path id="Vector_17" fill-rule="evenodd" clip-rule="evenodd" d="M88.8267 24.3308C89.6841 24.6181 91.3558 25.1441 91.8009 25.8841C92.4095 26.8947 91.5605 28.1597 91.489 29.25C90.2278 28.8085 89.0792 28.2572 87.8188 27.8167C88.1589 26.6582 88.5581 25.55 88.8267 24.3308Z" fill="#8F7ECE"/>
<path id="Vector_18" fill-rule="evenodd" clip-rule="evenodd" d="M69.1166 26.783C68.9495 27.9099 68.5766 28.8679 68.3455 29.9414C66.7922 29.7244 65.1918 29.5545 63.5588 29.4164C63.835 28.2914 64.1233 27.1775 64.5262 26.1576C66.1846 26.2402 67.5811 26.5793 69.1166 26.783Z" fill="#8F7ECE"/>
<path id="Vector_19" fill-rule="evenodd" clip-rule="evenodd" d="M79.5611 25.8494C80.8279 26.2533 82.0667 26.6843 83.3251 27.0974C83.0706 28.0367 82.8152 28.9748 82.5898 29.9374C81.2843 29.5412 80.1095 29.0152 78.823 28.5992C78.9996 27.6253 79.3169 26.7679 79.5611 25.8494Z" fill="#8F7ECE"/>
<path id="Vector_20" fill-rule="evenodd" clip-rule="evenodd" d="M73.2739 27.833C72.9481 28.7994 72.6784 29.8137 72.3432 30.7725C71.3854 30.5197 70.3758 30.318 69.3567 30.1264C69.6196 29.0783 69.8836 28.0311 70.1803 27.0104C71.2463 27.2508 72.2981 27.5053 73.2739 27.833Z" fill="#8F7ECE"/>
<path id="Vector_21" fill-rule="evenodd" clip-rule="evenodd" d="M84.2424 27.4675C85.0764 27.7003 85.7789 28.0611 86.5846 28.3212C86.316 29.2773 86.007 30.1996 85.699 31.1226C84.9646 30.8851 84.2781 30.6033 83.5596 30.3507C83.7127 29.3271 84.0818 28.4837 84.2424 27.4675Z" fill="#8F7ECE"/>
<path id="Vector_22" fill-rule="evenodd" clip-rule="evenodd" d="M77.5412 29.1516C77.3186 30.1301 77.0088 31.0373 76.758 31.9934C75.6066 31.6797 74.5041 31.3182 73.3555 31.0026C73.6438 30.0334 73.9574 29.0848 74.2383 28.11C75.3729 28.4237 76.4453 28.7994 77.5412 29.1516Z" fill="#8F7ECE"/>
<path id="Vector_23" fill-rule="evenodd" clip-rule="evenodd" d="M87.5062 28.7363C88.8153 29.1449 89.9433 29.7328 91.2261 30.1676C90.9425 31.1104 90.6325 32.0318 90.3911 33.0113C89.1835 32.4713 87.9466 31.9604 86.6675 31.4898C86.9267 30.5564 87.2864 29.7047 87.5062 28.7363Z" fill="#8F7ECE"/>
<path id="Vector_24" fill-rule="evenodd" clip-rule="evenodd" d="M82.2792 30.9029C82.0783 31.8411 81.7824 32.7023 81.5392 33.6066C80.3296 33.1144 79.0572 32.6853 77.7244 32.3154C77.9855 31.3827 78.2644 30.4652 78.5105 29.5187C79.8214 29.9263 81.0744 30.3902 82.2792 30.9029Z" fill="#8F7ECE"/>
<path id="Vector_25" fill-rule="evenodd" clip-rule="evenodd" d="M68.032 30.8606C67.7455 32.1219 67.3803 33.3182 67.0318 34.527C65.534 34.2716 64.0416 34.0104 62.3916 33.9053C62.6461 32.7192 62.9644 31.5866 63.249 30.4259C63.2443 30.3479 63.2818 30.3075 63.3439 30.286C65.0023 30.3835 66.4975 30.6419 68.032 30.8606Z" fill="#8F7ECE"/>
<path id="Vector_26" fill-rule="evenodd" clip-rule="evenodd" d="M72.0775 31.6439C71.7225 32.8639 71.3393 34.0594 71.0266 35.3133C70.0357 35.1086 69.0412 34.9094 68.042 34.7123C68.382 33.4951 68.751 32.3025 69.0432 31.0459C70.1316 31.1707 71.052 31.459 72.0775 31.6439Z" fill="#8F7ECE"/>
<path id="Vector_27" fill-rule="evenodd" clip-rule="evenodd" d="M83.248 31.2703C84.0068 31.4656 84.6211 31.8037 85.3836 31.9962C85.1863 33.0125 84.7957 33.8671 84.5496 34.841C83.8725 34.563 83.2301 34.2521 82.5088 34.0203C82.71 33.0658 83.0293 32.2093 83.248 31.2703Z" fill="#8F7ECE"/>
<path id="Vector_28" fill-rule="evenodd" clip-rule="evenodd" d="M76.4943 32.9108C76.1572 34.0876 75.8266 35.268 75.4875 36.4419C74.2939 36.1686 73.2119 35.7874 71.9893 35.545C72.3498 34.3448 72.7019 33.1389 73.042 31.9208C74.2545 32.1905 75.3383 32.5868 76.4943 32.9108Z" fill="#8F7ECE"/>
<path id="Vector_29" fill-rule="evenodd" clip-rule="evenodd" d="M90.1289 33.9288C89.8941 35.0587 89.5437 36.0925 89.3137 37.2261C88.0262 36.5904 86.7545 35.9396 85.5195 35.253C85.7271 34.2472 86.1104 33.3861 86.3535 32.4093C87.6928 32.8366 88.8939 33.4001 90.1289 33.9288Z" fill="#8F7ECE"/>
<path id="Vector_30" fill-rule="evenodd" clip-rule="evenodd" d="M81.2763 34.5242C80.9306 35.7367 80.5335 36.9049 80.1718 38.1043C78.9208 37.6846 77.7798 37.1567 76.4565 36.8092C76.7749 35.6033 77.128 34.4266 77.4604 33.233C78.8233 33.574 80.064 34.036 81.2763 34.5242Z" fill="#8F7ECE"/>
<path id="Vector_31" fill-rule="evenodd" clip-rule="evenodd" d="M66.7695 35.4456C66.4736 36.5819 66.1018 37.6563 65.8051 38.7936C64.2695 38.5438 62.9068 38.1241 61.3545 37.8911C61.6521 36.8571 61.8898 35.7743 62.1754 34.73C63.7549 34.9206 65.2857 35.1601 66.7695 35.4456Z" fill="#8F7ECE"/>
<path id="Vector_32" fill-rule="evenodd" clip-rule="evenodd" d="M82.196 34.9395C82.9699 35.1367 83.5822 35.4926 84.2865 35.7584C83.9193 36.9529 83.5257 38.125 83.2337 39.3816C82.4863 39.1271 81.7892 38.8219 81.1394 38.4727C81.4484 37.2592 81.9001 36.1631 82.196 34.9395Z" fill="#8F7ECE"/>
<path id="Vector_33" fill-rule="evenodd" clip-rule="evenodd" d="M70.7129 36.1875C70.4688 37.397 70.0979 38.5015 69.8564 39.7121C68.7557 39.5673 67.8232 39.2603 66.7695 39.0707C67.1133 37.9287 67.4551 36.7857 67.7801 35.6296C68.7943 35.7798 69.7072 36.0296 70.7129 36.1875Z" fill="#8F7ECE"/>
<path id="Vector_34" fill-rule="evenodd" clip-rule="evenodd" d="M75.1754 37.3605C74.8842 38.5316 74.4786 39.607 74.1629 40.7564C73.0229 40.5103 71.91 40.238 70.8186 39.9441C71.137 38.7974 71.4084 37.6103 71.7268 36.4626C72.9543 36.6861 74.0409 37.0458 75.1754 37.3605Z" fill="#8F7ECE"/>
<path id="Vector_35" fill-rule="evenodd" clip-rule="evenodd" d="M85.2095 36.2185C86.5056 36.8599 87.8202 37.4845 89.0046 38.2357C88.7679 39.4218 88.4712 40.5591 88.2485 41.7556C86.8614 41.1404 85.4931 40.5066 84.1558 39.8416C84.4581 38.5935 84.8433 37.414 85.2095 36.2185Z" fill="#8F7ECE"/>
<path id="Vector_36" fill-rule="evenodd" clip-rule="evenodd" d="M79.8586 39.0238C79.5901 40.1253 79.1909 41.1199 78.9393 42.2337C77.6245 41.8937 76.4618 41.4027 75.1292 41.0786C75.4729 39.9376 75.8043 38.7863 76.1913 37.6818C77.4395 38.1025 78.6717 38.5419 79.8586 39.0238Z" fill="#8F7ECE"/>
<path id="Vector_37" fill-rule="evenodd" clip-rule="evenodd" d="M65.4925 39.713C65.1517 40.9142 64.8013 42.1077 64.4378 43.2911C63.0667 42.9896 61.7114 42.6722 60.1919 42.5163C60.5507 41.2851 60.7817 39.9488 61.1901 38.7589C62.6845 39.0171 64.0255 39.4267 65.4925 39.713Z" fill="#8F7ECE"/>
<path id="Vector_38" fill-rule="evenodd" clip-rule="evenodd" d="M69.593 40.6296C69.3545 41.8871 69.0333 43.0761 68.7938 44.3335C67.7063 44.0367 66.6008 43.755 65.4504 43.5203C65.7959 42.3228 66.1333 41.1179 66.5051 39.9421C67.5034 40.2013 68.5327 40.4296 69.593 40.6296Z" fill="#8F7ECE"/>
<path id="Vector_39" fill-rule="evenodd" clip-rule="evenodd" d="M80.8288 39.4369C81.5547 39.7271 82.3079 39.9937 82.9249 40.392C82.6901 41.4484 82.4018 42.4619 82.151 43.5052C81.3696 43.2217 80.6586 42.8685 79.8567 42.6037C80.1891 41.5547 80.4868 40.4785 80.8288 39.4369Z" fill="#8F7ECE"/>
<path id="Vector_40" fill-rule="evenodd" clip-rule="evenodd" d="M73.8499 41.6759C73.5409 42.9474 73.1426 44.1448 72.8008 45.3901C71.809 45.1243 70.853 44.822 69.8088 44.6077C70.0108 43.3202 70.3338 42.1321 70.6081 40.9048C71.7311 41.1198 72.7838 41.4044 73.8499 41.6759Z" fill="#8F7ECE"/>
<path id="Vector_41" fill-rule="evenodd" clip-rule="evenodd" d="M83.8949 40.8043C85.2914 41.426 86.6381 42.0965 88.0365 42.7164C87.8205 43.803 87.5576 44.851 87.3182 45.9188C85.9 45.2697 84.4773 44.6266 83.1211 43.9174C83.3475 42.8545 83.6244 41.8319 83.8949 40.8043Z" fill="#8F7ECE"/>
<path id="Vector_42" fill-rule="evenodd" clip-rule="evenodd" d="M74.8642 41.9509C76.1235 42.3455 77.3819 42.7425 78.6263 43.1539C78.3192 44.4273 77.9605 45.6576 77.6806 46.9537C76.4062 46.5263 75.1308 46.099 73.8169 45.7103C74.096 44.3984 74.5065 43.1972 74.8642 41.9509Z" fill="#8F7ECE"/>
<path id="Vector_43" fill-rule="evenodd" clip-rule="evenodd" d="M64.1743 44.2087C63.8549 45.3403 63.4858 46.4308 63.161 47.5587C62.0792 47.2347 60.4178 46.9528 59.935 45.9716C59.5942 45.2794 59.8749 44.3122 59.9829 43.5224C59.9809 43.4772 59.9792 43.4313 59.9772 43.3872C61.5409 43.4997 62.8059 43.9044 64.1743 44.2087Z" fill="#8F7ECE"/>
<path id="Vector_44" fill-rule="evenodd" clip-rule="evenodd" d="M79.5941 43.5212C80.3961 43.8011 81.1615 44.1167 81.8904 44.4679C81.6631 45.7349 81.3092 46.8957 81.1438 48.2142C80.2609 47.9673 79.5322 47.5691 78.6494 47.322C78.935 46.0306 79.2617 44.7742 79.5941 43.5212Z" fill="#8F7ECE"/>
<path id="Vector_45" fill-rule="evenodd" clip-rule="evenodd" d="M68.582 45.2484C68.3914 46.473 68.0757 47.5943 67.8777 48.8125C66.5863 48.542 65.3683 48.1992 64.1267 47.8808C64.4722 46.7265 64.8246 45.5781 65.1878 44.4388C66.3835 44.6445 67.4748 44.9545 68.582 45.2484Z" fill="#8F7ECE"/>
<path id="Vector_46" fill-rule="evenodd" clip-rule="evenodd" d="M82.8629 44.9261C84.2959 45.5431 85.7245 46.1638 87.0083 46.9283C86.7801 48.1078 86.3874 49.1494 86.2504 50.4041C84.8276 49.8566 83.5325 49.1804 82.0657 48.6742C82.3049 47.4037 82.5661 46.15 82.8629 44.9261Z" fill="#8F7ECE"/>
<path id="Vector_47" fill-rule="evenodd" clip-rule="evenodd" d="M72.5878 46.3048C72.2667 47.4656 72.0207 48.6874 71.7332 49.8755C70.7658 49.6173 69.7902 49.3665 68.8416 49.0894C69.1027 47.9089 69.3337 46.7031 69.5966 45.5234C70.64 45.7386 71.5951 46.04 72.5878 46.3048Z" fill="#8F7ECE"/>
<path id="Vector_48" fill-rule="evenodd" clip-rule="evenodd" d="M77.4701 47.9146C77.2861 49.1007 76.9678 50.1761 76.8127 51.3866C75.4152 51.0316 74.1164 50.58 72.75 50.1958C72.934 48.9355 73.2787 47.8105 73.5549 46.6271C74.9025 47.0157 76.2268 47.4251 77.4701 47.9146Z" fill="#8F7ECE"/>
<path id="Vector_49" fill-rule="evenodd" clip-rule="evenodd" d="M78.4385 48.2817C79.3664 48.4845 80.0697 48.9081 80.9328 49.1749C80.777 50.3272 80.5121 51.3876 80.3713 52.5521C79.5834 52.3989 78.6762 51.9567 77.7803 51.7538C77.9389 50.547 78.2535 49.4679 78.4385 48.2817Z" fill="#8F7ECE"/>
<path id="Vector_50" fill-rule="evenodd" clip-rule="evenodd" d="M81.9056 49.6331C83.3292 50.1648 84.7099 50.7403 85.9917 51.4108C85.787 52.396 85.6499 53.5681 84.6356 53.7784C84.0159 53.9081 83.3735 53.6638 82.8185 53.4919C82.2728 53.3228 81.745 53.1632 81.3403 52.9191C81.4989 51.7997 81.731 50.7394 81.9056 49.6331Z" fill="#8F7ECE"/>
</g>
</g>
<g id="Group_10">
<g id="Group_11" opacity="0.94">
<g id="Group_12" opacity="0.94">
<path id="Vector_51" opacity="0.94" fill-rule="evenodd" clip-rule="evenodd" d="M61.0335 19.8249C60.7894 20.1526 60.4175 19.8719 60.1931 19.792C59.4286 19.5198 58.6698 19.0379 57.8913 18.7026C56.8188 18.2397 55.6833 17.8622 54.5386 17.4442C52.3456 16.645 50.0562 15.7846 47.7054 15.084C43.4905 13.8274 38.8897 12.9973 34.5556 11.8243C34.0231 11.6795 33.3835 11.5829 32.9966 11.1508C33.0784 10.7452 33.4925 10.794 33.8229 10.7893C34.439 10.7809 35.1509 10.9846 35.8685 11.12C37.7579 11.476 39.6983 12.0092 41.4075 12.4432C43.9206 13.0809 46.3661 13.7241 48.745 14.2952C52.5354 15.2044 56.1782 16.0514 58.8878 17.7963C59.3114 18.0686 59.7339 18.4049 60.1397 18.7176C60.4907 18.9889 61.0853 19.2922 61.0335 19.8249Z" fill="#8F7ECE"/>
<path id="Vector_52" opacity="0.94" fill-rule="evenodd" clip-rule="evenodd" d="M59.1281 21.8712C58.5272 22.0317 57.8942 21.7247 57.3664 21.5143C53.6455 20.0323 49.611 18.5081 45.4479 17.261C41.9299 16.2073 38.103 15.3292 34.4674 14.2323C33.92 14.0671 33.2766 13.8641 32.7301 13.6528C32.253 13.4688 31.5825 13.2903 31.6012 12.6329C32.2567 12.3089 33.3387 12.6272 34.3379 12.8132C38.8166 13.6434 43.2006 14.8878 47.0305 16.1368C50.4789 17.261 53.5838 18.5589 56.6246 20.0296C57.0848 20.2522 57.5891 20.5217 58.0615 20.8007C58.4557 21.0344 59.1412 21.2579 59.1281 21.8712Z" fill="#8F7ECE"/>
</g>
<g id="Group_13" opacity="0.94">
<g id="Group_14" opacity="0.94">
<path id="Vector_53" opacity="0.94" fill-rule="evenodd" clip-rule="evenodd" d="M50.5913 47.4394C49.8128 47.2441 49.0203 47.0534 48.221 46.8618C45.8421 46.2917 43.3966 45.6476 40.8835 45.0099C39.1751 44.5759 37.2332 44.0425 35.3435 43.6876C34.6269 43.5515 33.915 43.3485 33.298 43.3569C32.9683 43.3607 32.5542 43.3128 32.4724 43.7185C32.8593 44.1505 33.499 44.2462 34.0314 44.3909C38.3656 45.564 42.9654 46.394 47.1802 47.6517C48.1673 47.9446 49.1421 48.2677 50.1039 48.6011C50.2486 48.2159 50.4101 47.829 50.5913 47.4394Z" fill="#8F7ECE"/>
<path id="Vector_54" opacity="0.94" fill-rule="evenodd" clip-rule="evenodd" d="M49.703 49.8322C48.6661 49.4376 47.604 49.0611 46.5061 48.7032C42.6755 47.4542 38.2925 46.2099 33.8138 45.3796C32.8145 45.1946 31.7325 44.8763 31.077 45.1993C31.0583 45.8568 31.7288 46.0361 32.205 46.2202C32.7524 46.4316 33.3958 46.6343 33.9423 46.7987C37.5786 47.8956 41.4065 48.7738 44.9237 49.8275C46.4272 50.2782 47.9112 50.7675 49.3716 51.2755C49.4606 50.7845 49.5706 50.3056 49.703 49.8322Z" fill="#8F7ECE"/>
</g>
<g id="Group_15" opacity="0.94">
<path id="Vector_55" opacity="0.94" fill-rule="evenodd" clip-rule="evenodd" d="M49.7027 52.6618C48.9232 52.4665 48.1316 52.2778 47.3324 52.0853C44.9535 51.5144 42.507 50.871 39.9939 50.2323C38.2865 49.7993 36.3443 49.2659 34.4548 48.9101C33.7375 48.7749 33.0255 48.571 32.4093 48.5794C32.0787 48.5831 31.6646 48.5353 31.5837 48.9409C31.9707 49.373 32.6103 49.4696 33.1427 49.6134C37.4759 50.7864 42.0767 51.6175 46.2915 52.8741C47.2787 53.1681 48.2535 53.4911 49.2152 53.8255C49.3599 53.4386 49.5214 53.0517 49.7027 52.6618Z" fill="#8F7ECE"/>
<path id="Vector_56" opacity="0.94" fill-rule="evenodd" clip-rule="evenodd" d="M48.8145 55.0548C47.7769 54.6612 46.7155 54.2847 45.6167 53.9269C41.7868 52.6778 37.404 51.4325 32.9241 50.6022C31.9259 50.4173 30.8431 50.0999 30.1884 50.4229C30.1696 51.0794 30.8401 51.2597 31.3163 51.4429C31.8638 51.6552 32.5061 51.8569 33.0538 52.0224C36.6901 53.1192 40.5171 53.9974 44.0351 55.0511C45.5386 55.5019 47.0216 55.9911 48.4829 56.4983C48.5724 56.0071 48.6812 55.528 48.8145 55.0548Z" fill="#8F7ECE"/>
</g>
</g>
<g id="Group_16" opacity="0.94">
<path id="Vector_57" opacity="0.94" fill-rule="evenodd" clip-rule="evenodd" d="M41.981 19.9685C42.194 19.081 43.4235 19.2642 44.3308 19.3374C46.2823 19.4952 47.83 19.7946 49.4321 20.4269C49.927 20.6222 51.3423 21.12 51.2089 21.688C51.0644 22.2985 49.1653 21.7499 48.8583 21.688C47.1481 21.3376 45.8784 20.979 44.1589 20.656C43.3681 20.5067 42.5116 20.4569 41.981 19.9685Z" fill="white"/>
<path id="Vector_58" opacity="0.94" fill-rule="evenodd" clip-rule="evenodd" d="M42.2673 21.6879C43.8912 21.4221 45.4669 21.9116 47.0814 22.3754C47.7398 22.5643 50.1957 23.0713 50.0623 23.8086C49.9402 24.4838 48.6386 24.112 47.9418 23.9795C46.2871 23.6659 45.0548 23.3596 43.4132 23.0057C42.7736 22.8676 41.5519 22.7596 41.5218 22.2038C41.4982 21.7416 41.8664 21.7528 42.2673 21.6879Z" fill="white"/>
<path id="Vector_59" opacity="0.94" fill-rule="evenodd" clip-rule="evenodd" d="M40.3557 25.0887C40.5698 24.2012 41.7983 24.3852 42.7055 24.4586C44.6571 24.6155 46.2047 24.9151 47.8069 25.5471C48.3018 25.7434 49.717 26.2403 49.5838 26.8084C49.4393 27.4198 47.5413 26.8713 47.234 26.8084C45.5239 26.459 44.2532 26.1002 42.5336 25.7762C41.7428 25.6278 40.8874 25.577 40.3557 25.0887Z" fill="white"/>
<path id="Vector_60" opacity="0.94" fill-rule="evenodd" clip-rule="evenodd" d="M40.6422 26.8083C42.266 26.5425 43.8408 27.0317 45.4562 27.4966C46.1144 27.6853 48.5685 28.1925 48.4361 28.9288C48.315 29.605 47.0133 29.2331 46.3156 29.1007C44.6609 28.787 43.4297 28.481 41.7881 28.1269C41.1476 27.9888 39.9258 27.8808 39.8967 27.3239C39.8721 26.8618 40.2412 26.8739 40.6422 26.8083Z" fill="white"/>
<path id="Vector_61" opacity="0.94" fill-rule="evenodd" clip-rule="evenodd" d="M39.7861 29.5017C41.9932 29.294 44.8744 30.0013 46.8373 30.7048C47.5924 30.9772 48.4705 31.3659 48.4414 31.7942C48.3869 32.6001 46.6938 32.0497 46.0916 31.9089C44.1484 31.4581 43.0506 31.1378 40.9912 30.7632C40.5244 30.6786 38.6594 30.5772 38.6979 29.9602C38.725 29.5317 39.2855 29.5487 39.7861 29.5017Z" fill="white"/>
</g>
<g id="Group_17" opacity="0.94">
<path id="Vector_62" opacity="0.94" fill-rule="evenodd" clip-rule="evenodd" d="M32.6608 16.8457C32.7313 16.8297 33.1904 16.7705 33.5209 16.7885C35.1514 16.8758 37.1375 17.353 38.7934 17.8196C39.4846 18.0149 40.0902 18.2102 40.0545 18.6225C40.0039 19.2047 38.7303 19.0077 37.9912 18.909C36.4754 18.7071 35.217 18.4817 33.75 18.1071C33.2561 17.9803 32.0426 17.7155 32.0305 17.3041C32.0201 16.9754 32.3996 16.9079 32.6608 16.8457Z" fill="white"/>
<path id="Vector_63" opacity="0.94" fill-rule="evenodd" clip-rule="evenodd" d="M30.3547 20.1112C30.568 19.2227 31.7973 19.4069 32.7045 19.4801C34.6561 19.6379 36.2028 19.9365 37.8049 20.5696C38.2999 20.7649 39.7151 21.2627 39.5819 21.8299C39.4381 22.4412 37.5393 21.8938 37.2321 21.8299C35.5219 21.4805 34.2522 21.1227 32.5327 20.7987C31.742 20.6502 30.8854 20.5996 30.3547 20.1112Z" fill="white"/>
<path id="Vector_64" opacity="0.94" fill-rule="evenodd" clip-rule="evenodd" d="M30.6402 21.8298C32.264 21.564 33.8398 22.0542 35.4542 22.5181C36.1126 22.7068 38.5675 23.214 38.4341 23.9513C38.313 24.6265 37.0113 24.2546 36.3144 24.1232C34.6597 23.8085 33.4275 23.5025 31.7859 23.1484C31.1462 23.0103 29.9236 22.9023 29.8945 22.3464C29.87 21.8833 30.2382 21.8954 30.6402 21.8298Z" fill="white"/>
<path id="Vector_65" opacity="0.94" fill-rule="evenodd" clip-rule="evenodd" d="M28.7283 25.2315C28.9423 24.344 30.1708 24.5279 31.0781 24.6012C33.0296 24.759 34.5773 25.0576 36.1794 25.6897C36.6744 25.885 38.0906 26.3828 37.9564 26.951C37.8119 27.5623 35.9138 27.0139 35.6066 26.951C33.8955 26.6018 32.6267 26.243 30.9062 25.919C30.1154 25.7705 29.2589 25.7207 28.7283 25.2315Z" fill="white"/>
<path id="Vector_66" opacity="0.94" fill-rule="evenodd" clip-rule="evenodd" d="M29.0147 26.9509C30.6386 26.6851 32.2153 27.1753 33.8298 27.6384C34.4882 27.8281 36.9431 28.3343 36.8097 29.0726C36.6886 29.7468 35.3868 29.3759 34.6892 29.2435C33.0345 28.9298 31.8032 28.6238 30.1616 28.2697C29.522 28.1306 28.2993 28.0236 28.2702 27.4667C28.2456 27.0044 28.6145 27.0165 29.0147 26.9509Z" fill="white"/>
</g>
<path id="Vector_67" opacity="0.94" fill-rule="evenodd" clip-rule="evenodd" d="M27.7509 30.1855C28.2514 30.0353 29.4489 30.24 30.0432 30.3573C31.4069 30.6278 32.7395 30.7472 34.0554 31.2167C34.4544 31.3605 35.2677 31.7868 35.4311 32.2487C35.6348 32.8273 35.4161 33.8923 35.2583 34.5985C34.9276 36.0843 34.5925 37.0694 34.1698 38.6679C34.0054 39.2878 33.7856 40.1847 33.3097 40.3884C32.672 40.6597 31.6323 40.3376 31.0745 40.2155C30.3608 40.0597 29.7005 39.8868 29.0112 39.7573C27.8936 39.547 25.6782 39.3901 25.2856 38.3241C25.0518 37.6901 25.388 36.8122 25.5729 36.089C25.9468 34.621 26.3788 33.4275 26.7186 31.9624C26.8964 31.1968 27.0532 30.3948 27.7509 30.1855Z" fill="#8F7ECE"/>
<path id="Vector_68" opacity="0.94" fill-rule="evenodd" clip-rule="evenodd" d="M39.3592 32.9831C39.8608 32.8329 41.0573 33.0366 41.6516 33.1559C43.0153 33.4255 44.3489 33.5448 45.6645 34.0143C46.0637 34.1581 46.876 34.5835 47.0395 35.0465C47.2432 35.6241 47.0254 36.6901 46.8676 37.3962C46.537 38.8809 46.2018 39.8671 45.7792 41.4655C45.6149 42.0854 45.395 42.9823 44.9188 43.185C44.2801 43.4563 43.2415 43.1352 42.6827 43.0132C41.969 42.8573 41.3086 42.6835 40.6204 42.5549C39.5018 42.3446 37.2864 42.1878 36.8948 41.1217C36.661 40.4878 36.9971 39.6098 37.1813 38.8866C37.5551 37.4178 37.9881 36.2251 38.327 34.76C38.5055 33.9936 38.6614 33.1924 39.3592 32.9831Z" fill="#8F7ECE"/>
</g>
<path id="Vector_69" d="M44.6923 60.0386C45.731 59.9635 47.2562 56.175 47.5578 55.5449C47.4451 57.5049 47.0488 61.0482 47.9175 61.3197C49.4541 61.7996 51.4984 52.6215 52.3156 49.4209C55.3048 37.7381 58.1091 25.7715 61.2101 14.4361C60.456 13.9111 59.6193 13.4613 58.7382 12.9814C57.9306 12.542 57.0769 12.1504 56.1914 11.7953C52.7277 25.3648 48.6746 38.6857 45.5322 52.2234C45.0087 54.4789 43.7099 60.1101 44.6923 60.0386Z" fill="#889922"/>
</g>
<g id="Group_18">
<g id="Group_19">
<path id="Vector_70" opacity="0.37" fill-rule="evenodd" clip-rule="evenodd" d="M57.898 37.2591C56.7166 36.3181 61.5418 21.5324 62.6379 21.4882C63.5582 21.4505 58.9574 38.1042 57.898 37.2591Z" fill="#8F7ECE"/>
<path id="Vector_71" opacity="0.37" fill-rule="evenodd" clip-rule="evenodd" d="M56.7898 39.5675C58.1328 39.1966 56.5851 46.0232 55.9033 47.9851C55.6064 48.8369 52.2727 62.5343 51.4668 62.4638C49.8928 62.3238 55.8609 39.823 56.7898 39.5675Z" fill="#8F7ECE"/>
</g>
<g id="Group_20">
<g id="Group_21">
<path id="Vector_72" fill-rule="evenodd" clip-rule="evenodd" d="M34.343 7.76807C35.9385 7.64131 34.8764 10.2888 34.4791 11.1235C34.1043 11.9114 33.6029 13.0939 32.767 12.8357C32.0203 12.6036 32.5152 11.0409 32.767 10.2333C33.1117 9.13077 33.2789 7.85167 34.343 7.76807Z" fill="white"/>
<path id="Vector_73" fill-rule="evenodd" clip-rule="evenodd" d="M37.8337 8.24715C38.4714 8.15614 39.3044 8.30067 39.2038 9.13739C39.0845 10.1272 36.8597 9.92918 37.0119 8.79559C37.0572 8.46122 37.1857 8.34012 37.8337 8.24715Z" fill="white"/>
</g>
<g id="Group_22">
<path id="Vector_74" fill-rule="evenodd" clip-rule="evenodd" d="M93.1066 24.5993C93.0963 26.0606 92.7394 27.4825 92.3093 28.676C91.9168 29.7608 91.4877 31.2071 90.2705 31.5122C89.6 30.8491 90.2019 29.2262 90.5363 27.7893C90.9164 26.1528 91.355 23.3305 93.1066 24.5993Z" fill="white"/>
<path id="Vector_75" fill-rule="evenodd" clip-rule="evenodd" d="M87.1683 33.1061C86.9599 31.8082 88.5357 29.977 89.0288 31.3348C89.3368 32.1791 88.0437 34.3983 87.1683 33.1061Z" fill="white"/>
</g>
<g id="Group_23">
<path id="Vector_76" fill-rule="evenodd" clip-rule="evenodd" d="M26.9251 43.554C26.8425 45.2858 26.572 46.5358 26.1269 48.1624C25.8386 49.2161 25.3943 51.576 24.1763 51.5311C22.3845 51.4635 23.9031 47.2721 24.2665 46.2137C24.5089 45.5028 24.832 44.9901 24.9757 44.618C25.2865 43.8114 25.2697 43.0169 26.1271 43.1116C26.6001 43.1633 26.6679 43.3061 26.9251 43.554Z" fill="white"/>
<path id="Vector_77" fill-rule="evenodd" clip-rule="evenodd" d="M29.141 48.4292C29.9806 49.2454 28.955 51.1517 28.1662 51.1763C26.64 51.2231 27.7117 49.3712 28.3437 48.6057C28.4404 48.4874 28.8095 48.3606 29.141 48.4292Z" fill="white"/>
<path id="Vector_78" fill-rule="evenodd" clip-rule="evenodd" d="M24.0891 52.4166C25.109 52.227 29.0619 52.7387 28.5199 54.4555C28.2353 55.358 26.4201 54.7711 25.5072 54.6311C24.5287 54.4836 22.8721 54.4762 22.9369 53.3032C22.9771 52.5782 23.6945 52.4899 24.0891 52.4166Z" fill="white"/>
</g>
</g>
</g>
</g>
</g>
</g>
</g>
<g id="Group_24">
<path id="Vector_79" fill-rule="evenodd" clip-rule="evenodd" d="M33.9124 32.2721C33.7198 32.4815 33.2343 32.227 32.8821 32.1575C31.7776 31.9378 30.5032 31.6663 29.4194 31.4475C28.8542 33.371 28.2032 35.6604 27.6821 37.7868C27.6052 38.0985 27.6042 38.5052 27.3177 38.71C27.0745 38.5345 27.1157 38.1522 27.1083 37.8761C27.0849 36.9679 27.1478 35.9161 27.0735 35.0145C26.8134 35.0737 26.8274 35.5856 26.4575 35.4616C26.4856 35.0934 26.8444 34.7647 27.0933 34.5591C27.4868 34.8596 27.3835 35.469 27.3919 35.9669C27.3995 36.4956 27.4351 37.0507 27.421 37.5382C28.0587 35.502 28.5188 33.1721 29.2017 31.2093C29.9745 31.1632 31.0218 31.535 31.9046 31.6413C32.3976 31.7014 33.0306 31.8798 33.5538 32.046C33.6673 32.0825 33.9565 32.0598 33.9124 32.2721Z" fill="white"/>
<path id="Vector_80" fill-rule="evenodd" clip-rule="evenodd" d="M31.0977 33.0543C30.9689 33.3726 30.7004 33.4562 30.4928 33.6431C30.5248 33.9455 30.907 34.1859 30.7463 34.4875C30.3801 34.4133 30.4205 34.0929 30.2992 33.8715C29.9762 33.9701 29.8982 34.4717 29.4775 34.4068C29.4896 34.034 29.9303 33.8603 30.135 33.601C30.1209 33.2892 29.825 33.1482 29.9246 32.767C30.2711 32.8402 30.2496 33.1379 30.3285 33.3728C30.6139 33.3455 30.7633 32.799 31.0977 33.0543Z" fill="white"/>
<path id="Vector_81" fill-rule="evenodd" clip-rule="evenodd" d="M33.7461 35.9582C33.5892 36.0342 33.4738 35.8493 33.4297 35.7432C33.0539 35.8944 32.9525 36.8692 33.0793 37.1764C33.284 37.2129 33.3525 37.1022 33.4689 37.2721C33.4135 37.5444 33.1516 37.4797 32.8838 37.4045C32.6922 37.1086 32.6555 36.211 32.974 35.7235C33.1976 35.3825 33.7875 35.345 33.7461 35.9582Z" fill="white"/>
<path id="Vector_82" fill-rule="evenodd" clip-rule="evenodd" d="M32.3672 35.7592C32.124 35.8541 31.6084 35.795 31.3369 35.6446C31.4373 35.344 32.3559 35.4389 32.3672 35.7592Z" fill="white"/>
<path id="Vector_83" fill-rule="evenodd" clip-rule="evenodd" d="M30.8817 35.6248C30.7098 35.8774 30.2018 35.6426 29.7969 35.5432C29.4137 35.4502 28.869 35.4201 28.7864 35.1572C28.9217 34.9516 29.2907 35.1432 29.5565 35.2078C30.0581 35.3309 30.6704 35.3647 30.8817 35.6248Z" fill="white"/>
<path id="Vector_84" fill-rule="evenodd" clip-rule="evenodd" d="M32.3266 36.301C32.1341 36.4823 31.5735 36.3479 31.3284 36.2409C31.302 35.9366 32.2862 36.0352 32.3266 36.301Z" fill="white"/>
<path id="Vector_85" fill-rule="evenodd" clip-rule="evenodd" d="M29.2239 36.0015C29.5517 36.1114 29.3921 36.5151 29.5527 36.7255C29.7874 36.6239 29.7958 36.1517 30.1687 36.2784C30.1536 36.6081 29.8025 36.8335 29.6409 37.1161C29.6577 37.4382 29.873 37.6411 29.7864 38.0261C29.4841 38.0806 29.4896 37.7106 29.4587 37.4851C29.2202 37.5179 29.2614 38.0128 28.9073 37.856C28.8763 37.5479 29.2023 37.3366 29.3263 37.0849C29.3142 36.7321 29.0136 36.3687 29.2239 36.0015Z" fill="white"/>
</g>
<g id="Group_25">
<path id="Vector_86" fill-rule="evenodd" clip-rule="evenodd" d="M40.3994 35.0879C40.3018 35.4203 40.0266 35.3433 39.8088 35.5273C38.9354 36.2664 38.5324 38.0244 38.9139 39.0951C38.9965 39.3271 39.1807 39.5412 39.1149 39.7863C38.6828 39.7779 38.5317 39.2004 38.45 38.818C38.1494 37.4111 38.943 35.4625 40.1611 34.974C40.282 34.9873 40.3526 35.0314 40.3994 35.0879Z" fill="white"/>
<path id="Vector_87" fill-rule="evenodd" clip-rule="evenodd" d="M44.6338 36.0964L44.7335 36.1218C45.1926 36.4871 45.6096 37.5156 45.5243 38.2949C45.4153 39.2884 44.9401 39.9919 44.4545 40.4304C44.3174 40.5554 44.1381 40.8785 43.9633 40.6822C43.768 40.4203 44.1512 40.2792 44.2536 40.1666C44.617 39.7712 45.0501 39.2978 45.1721 38.4207C45.2876 37.597 44.9016 36.8785 44.5963 36.2464L44.6338 36.0964Z" fill="white"/>
<path id="Vector_88" fill-rule="evenodd" clip-rule="evenodd" d="M44.2046 37.3765C44.1445 37.7033 44.0478 37.9711 43.8281 38.0302C44.2337 38.3205 44.3117 38.7947 43.9773 39.1365C43.8402 39.2783 43.6101 39.2529 43.3988 39.3111C43.241 39.3562 43.0871 39.514 42.947 39.4115C43.025 38.6798 43.3658 37.5699 43.5142 36.9369C43.8636 36.8552 44.1041 37.1716 44.2046 37.3765ZM43.6767 37.7795C43.7623 37.6838 43.8589 37.6056 43.8787 37.4029C43.8148 37.3841 43.8252 37.3203 43.7406 37.3146C43.7369 37.4582 43.5763 37.6966 43.6767 37.7795ZM43.3246 38.973C43.5837 38.9787 43.8101 38.9289 43.8523 38.5711C43.8146 38.4226 43.6072 38.3757 43.5011 38.2695L43.3246 38.973Z" fill="white"/>
<path id="Vector_89" fill-rule="evenodd" clip-rule="evenodd" d="M40.6383 36.2693C40.9219 36.582 40.5923 37.2638 40.7745 37.6385C40.5266 37.925 40.7303 38.5306 40.3716 38.6058C40.0448 38.5045 40.3659 38.0123 40.3227 37.739L39.9208 37.6385C39.6409 37.6695 39.7038 38.2742 39.3921 38.2527C39.146 37.9992 39.5235 37.5193 39.7077 37.2103C39.9462 36.8084 40.1706 36.4383 40.4872 36.2318L40.6383 36.2693ZM40.0477 37.3492L40.3483 37.4252C40.4038 37.1924 40.4366 36.9734 40.3991 36.7969C40.2675 36.9566 40.1331 37.1144 40.0477 37.3492Z" fill="white"/>
<path id="Vector_90" fill-rule="evenodd" clip-rule="evenodd" d="M42.1198 36.9604L42.27 36.9989C42.3114 37.1595 42.3132 37.3437 42.2325 37.5765C42.3509 37.7343 42.8064 37.6882 42.6589 38.0048C42.5405 38.0911 42.2513 37.8921 42.132 37.9784C42.0118 38.2105 42.1902 38.6894 41.855 38.6575C41.621 38.5552 41.8005 38.2048 41.8173 37.9542C41.8005 37.8208 41.4435 37.8931 41.5665 37.6771C41.5816 37.4892 41.7534 37.5616 41.9056 37.6019C41.9798 37.3933 41.9864 37.0722 42.1198 36.9604Z" fill="white"/>
</g>
</g>
<g id="Group_26">
<g id="Group_27">
<g id="Group_28">
<path id="Vector_91" d="M66.9632 8.77347C66.0691 8.68655 63.0785 9.12151 62.9908 10.0151C62.9021 10.9069 65.7506 11.9186 66.6435 12.0088C67.5367 12.0967 68.332 11.445 68.4213 10.5514C68.5095 9.65706 67.855 8.86272 66.9632 8.77347Z" fill="#EFAD1B"/>
<path id="Vector_92" d="M61.5874 9.87092L61.5864 9.88128C61.5592 10.1672 61.7653 10.4184 62.0512 10.45L63.2835 10.5701L63.3858 9.5262L62.1545 9.4051C61.8696 9.37639 61.6151 9.58538 61.5874 9.87092Z" fill="#FF5000"/>
<path id="Vector_93" d="M92.2446 12.6779C92.2048 13.1113 92.5208 13.4931 92.955 13.5343L94.4932 13.6785C94.9249 13.7193 95.3075 13.4037 95.3473 12.9712C95.3895 12.5388 95.0718 12.156 94.6417 12.1152L93.1001 11.9697C92.6686 11.9292 92.2846 12.2449 92.2446 12.6779Z" fill="#FF5000"/>
<path id="Vector_94" d="M93.8827 11.3293L93.5624 14.5651L84.7302 13.6926L85.0486 10.4586L93.8827 11.3293Z" fill="#4D3D87"/>
<path id="Vector_95" d="M84.1073 10.3644L83.7886 13.5997L66.646 12.0093L66.9644 8.77393L84.1073 10.3644Z" fill="#4D3D87"/>
<path id="Vector_96" d="M85.0488 10.4586L84.7297 13.6926L83.7891 13.6006L84.1084 10.3639L85.0488 10.4586Z" fill="#EFAD1B"/>
<path id="Vector_97" d="M93.9941 10.2113L93.565 14.5646L93.0945 14.5175L93.5226 10.1638L93.9941 10.2113Z" fill="#EFAD1B"/>
<path id="Vector_98" d="M93.9939 10.2114L93.9273 10.8847L84.6035 9.9624L84.6684 9.29053L93.9939 10.2114Z" fill="#EFAD1B"/>
</g>
<g id="Group_29">
<g id="Group_30">
<path id="Vector_99" fill-rule="evenodd" clip-rule="evenodd" d="M92.1619 12.3249C92.6879 11.7069 90.7373 11.303 90.5818 11.8878C90.3992 12.5716 91.7097 12.579 92.1074 12.3794C92.1322 12.3671 92.1435 12.3464 92.1619 12.3249Z" fill="white"/>
<path id="Vector_100" fill-rule="evenodd" clip-rule="evenodd" d="M89.7654 12.1807C90.1185 11.6266 88.4961 11.1956 88.4488 11.8731C88.414 12.3878 89.5222 12.5643 89.7654 12.1807Z" fill="white"/>
</g>
<g id="Group_31">
<path id="Vector_101" fill-rule="evenodd" clip-rule="evenodd" d="M66.6694 11.7544C67.1202 11.8581 67.8465 11.921 67.9364 11.5956C68.0524 11.1743 67.5635 11.1491 67.1926 11.0964C66.8227 11.0429 66.3616 10.9907 66.2924 11.3315C66.2166 11.706 66.4928 11.7126 66.6694 11.7544Z" fill="white"/>
<path id="Vector_102" fill-rule="evenodd" clip-rule="evenodd" d="M68.9869 11.2241C69.3156 11.3275 69.6721 11.2739 69.7148 10.979C69.7881 10.4737 68.6555 10.3028 68.609 10.8028C68.592 10.9931 68.7141 11.1388 68.9869 11.2241Z" fill="white"/>
</g>
</g>
</g>
<g id="Group_32">
<g id="Group_33">
<g id="Group_34">
<path id="Vector_103" fill-rule="evenodd" clip-rule="evenodd" d="M60.5097 60.6623C60.4431 61.5508 61.2628 62.0531 61.8085 62.4541C63.5468 63.7313 65.3312 64.9334 67.0987 66.2061C69.3874 67.8533 71.8122 69.4676 74.1507 71.208C76.3605 72.8506 78.9423 74.7485 80.6692 77.3406C81.5286 78.6311 82.3175 80.6041 82.8228 82.4477C83.0331 83.2148 83.1759 84.1719 83.3835 85.0688C83.5788 85.9131 83.8954 87.0682 84.5368 87.242C84.9398 87.3518 85.6243 87.0607 85.8583 86.8635C87.0575 85.851 85.9091 83.2346 85.0714 81.5039C83.9622 79.2115 82.6333 76.7293 81.1956 75.1318C80.2124 74.0387 79.0478 73.1324 77.9546 72.2459C75.7157 70.4295 73.5462 68.7279 71.221 67.0834C68.9511 65.4785 66.5628 64.05 64.1915 62.5436C63.63 62.1877 63.0167 61.7961 62.4316 61.4334C61.8771 61.0897 61.2976 60.3654 60.5097 60.6623Z" fill="#4D3D87"/>
<path id="Vector_104" fill-rule="evenodd" clip-rule="evenodd" d="M86.6876 77.6992C85.9024 78.1209 85.1108 77.5752 84.5229 77.2371C82.6532 76.1656 80.8294 75.0197 78.9511 73.9201C76.5177 72.4945 74.06 70.9309 71.5223 69.4959C69.1257 68.1416 66.345 66.5498 63.2749 66.0201C61.7477 65.7572 59.6235 65.8342 57.7341 66.1187C56.9479 66.2371 56.0145 66.4943 55.111 66.6672C54.2583 66.8307 53.0749 67.008 52.6561 66.4935C52.3923 66.1685 52.3809 65.4248 52.4675 65.1309C52.9069 63.6236 55.7647 63.616 57.6872 63.6809C60.2323 63.7664 63.0393 63.9768 65.0829 64.6443C66.4803 65.1016 67.7801 65.7986 69.0329 66.4391C71.6005 67.751 74.0356 69.0471 76.4803 70.5064C78.8667 71.9311 81.1393 73.5371 83.4778 75.0951C84.0302 75.4643 84.6376 75.8682 85.2059 76.2551C85.7429 76.6221 86.6397 76.8596 86.6876 77.6992Z" fill="#4D3D87"/>
<path id="Vector_105" d="M89.2348 75.7327C88.9897 75.2452 88.3172 74.7344 87.7828 74.3418C86.2653 73.2272 84.5258 72.2053 83.0158 71.27C81.1864 70.1373 79.8754 69.3739 77.8317 69.001C77.1912 68.8846 76.5328 68.9071 75.852 68.8047C75.3026 68.7211 74.6949 68.4121 74.1502 68.1905C73.7276 67.7819 73.1989 67.3518 72.9002 66.8842C72.5311 66.303 72.2852 65.6914 71.9178 65.1524C70.7504 63.4356 69.5221 62.5453 67.7451 61.3319C66.2772 60.3297 64.6395 59.1512 63.0063 58.2158C62.4305 57.8871 61.6924 57.4795 61.1459 57.4524C60.3871 57.4129 59.9635 58.0065 59.8367 58.3559C59.6696 58.817 59.8311 59.327 59.6639 59.8867C59.5408 60.301 59.1399 60.7658 58.8619 61.227C58.0768 62.5334 56.9949 63.9797 56.7639 65.6063C56.4981 67.4883 58.0158 68.5166 59.0319 69.3309C60.2949 70.3414 61.5871 71.0364 63.1922 71.6825C64.2178 72.0948 65.1842 72.5182 66.3233 72.3051C67.4061 72.1022 68.3791 71.2494 69.1858 70.5752C69.8084 70.0549 70.8086 68.9909 71.5289 68.8838C72.3506 68.7618 72.7565 69.1571 73.3153 69.4745C73.8319 69.8567 74.3576 70.067 74.5783 70.8682C74.7727 71.5707 74.2035 72.9155 73.9801 73.6959C73.6908 74.7055 73.3049 75.9405 73.5574 77.0129C73.824 78.1409 74.6035 78.8538 75.3953 79.6237C76.636 80.8295 77.794 81.7301 79.2299 82.4758C80.385 83.076 81.9412 84.0469 83.5537 83.0413C84.9465 82.1725 85.8321 80.5977 86.7082 79.3514C87.0182 78.909 87.2801 78.3549 87.6088 78.0733C88.053 77.6938 88.5846 77.6375 88.9387 77.2967C89.2076 77.0391 89.5785 76.4116 89.2348 75.7327ZM69.6012 67.8393C68.9588 68.585 68.2084 69.3297 67.2901 69.9551C66.6457 70.3946 66.0664 70.8313 65.0727 70.7834C64.4379 70.7524 63.708 70.343 63.1184 70.0256C61.9332 69.3899 60.8278 68.6459 59.8653 67.751C59.1985 67.1293 58.5805 66.6795 58.6059 65.4707C58.619 64.8463 58.8988 64.2207 59.1008 63.8207C59.5543 62.9182 60.1752 62.0457 60.808 61.2258C61.0608 60.9 61.517 60.1711 61.9547 60.05C61.9754 60.0444 61.9914 59.9881 62.0467 59.9955C63.0506 60.128 63.9063 60.65 64.6895 61.0821C66.608 62.1405 68.3906 63.4862 69.8387 65.2584C70.0969 65.5758 70.451 66.0707 70.452 66.4953C70.453 67.0053 69.9121 67.4785 69.6012 67.8393ZM84.2405 80.1823C83.9559 80.528 83.4975 81.0377 82.9322 81.3036C81.8371 81.8162 81.1752 81.4331 80.3373 81.0745C79.1285 80.5569 78.0008 79.8471 76.9395 79.0215C76.4108 78.6102 75.7403 78.1086 75.4557 77.5414C75.0096 76.6522 75.1741 75.945 75.3149 75.1776C75.5158 74.0854 75.8924 73.0983 76.3131 72.208C76.517 71.778 76.7311 71.0924 77.1987 70.8868C77.5875 70.7149 78.1819 70.8379 78.5774 70.9469C80.7854 71.5528 82.736 72.6373 84.4809 73.9643C85.1928 74.5043 86.0172 75.0752 86.5451 75.9403C86.5733 75.9881 86.5291 76.0248 86.5321 76.0453C86.5987 76.4952 86.118 77.2071 85.9217 77.5705C85.4295 78.4825 84.8819 79.402 84.2405 80.1823Z" fill="#4D3D87"/>
<path id="Vector_106" opacity="0.62" d="M69.8388 65.2585C68.3908 63.4864 66.6081 62.1405 64.6896 61.0821C63.9064 60.6501 63.0507 60.128 62.0468 59.9956C61.9913 59.9882 61.9755 60.0444 61.9548 60.0501C61.5171 60.1712 61.0607 60.9001 60.8081 61.2259C60.1751 62.0458 59.5544 62.9183 59.1009 63.8208C58.8989 64.2208 58.6191 64.8464 58.606 65.4708C58.5806 66.6794 59.1986 67.1294 59.8654 67.7511C60.8281 68.646 61.9333 69.3899 63.1185 70.0257C63.7083 70.3431 64.438 70.7526 65.0728 70.7835C66.0663 70.8313 66.6458 70.3946 67.2902 69.9552C68.2087 69.3298 68.9589 68.5851 69.6013 67.8393C69.9122 67.4788 70.4531 67.0054 70.4523 66.4954C70.4511 66.0708 70.097 65.5759 69.8388 65.2585Z" fill="white"/>
<path id="Vector_107" opacity="0.62" d="M86.5315 76.0453C86.5288 76.0246 86.5727 75.9881 86.5446 75.9402C86.0169 75.0752 85.1923 74.5043 84.4803 73.9642C82.7354 72.6373 80.7848 71.5525 78.5768 70.9469C78.1813 70.8379 77.587 70.7148 77.1981 70.8867C76.7305 71.0924 76.5163 71.7779 76.3126 72.208C75.8919 73.0984 75.5153 74.0853 75.3143 75.1775C75.1735 75.9447 75.009 76.6519 75.4551 77.5414C75.7397 78.1086 76.4102 78.6101 76.9389 79.0215C78.0001 79.847 79.128 80.557 80.3368 81.0744C81.1745 81.4332 81.8366 81.8164 82.9317 81.3035C83.4971 81.0377 83.9553 80.5277 84.2399 80.1822C84.8813 79.4017 85.4288 78.4824 85.921 77.5705C86.1173 77.207 86.5981 76.4953 86.5315 76.0453Z" fill="white"/>
</g>
</g>
<g id="Group_35">
<path id="Vector_108" fill-rule="evenodd" clip-rule="evenodd" d="M67.276 77.5228C67.1934 77.5866 67.1182 77.4392 67.0516 77.411C66.6965 77.2626 66.3096 77.6515 65.9133 77.9829C63.62 79.8987 61.6327 81.9075 59.5977 83.9484C58.6792 84.8687 57.8922 85.6605 56.9231 86.655C56.7381 86.8456 56.5381 87.0974 56.3239 87.3603C56.1106 87.6241 55.8637 87.887 55.8995 88.12C55.9342 88.338 56.1717 88.5698 56.3616 88.7446C56.7522 89.1062 57.0311 89.3503 57.4725 89.7111C57.6331 89.8415 57.9046 90.0501 58.0821 90.0191C58.346 89.973 58.6372 89.6218 58.8446 89.3991C59.47 88.7296 60.103 88.0224 60.7106 87.3819C62.3973 85.6023 64.1047 83.8517 66.0026 82.1444C66.4553 81.7378 66.953 81.362 67.4743 80.9011C67.6772 80.7208 67.9194 80.4794 68.1749 80.256C68.5477 79.9292 68.9469 79.7093 68.6868 79.1534C69.3657 78.2368 70.4581 77.1343 71.1962 76.1087C71.3192 75.9358 71.5069 75.7442 71.4694 75.5378C71.3342 74.8034 70.5247 75.3312 70.1161 75.5866C69.1122 76.2163 68.1083 76.9151 67.276 77.5228Z" fill="#889922"/>
<path id="Vector_109" fill-rule="evenodd" clip-rule="evenodd" d="M65.4712 81.0397C65.3314 80.3796 64.2439 81.0153 63.7534 81.3169C62.879 81.855 62.155 82.5104 61.5323 83.1491C60.8505 83.8487 60.3856 84.4516 59.9874 85.2632C59.855 85.5317 59.6747 85.8925 59.8306 86.1169C59.8991 86.2136 60.0155 86.2737 60.303 86.1507C60.7942 85.9413 61.1595 85.4641 61.4581 85.1909C62.5202 84.2198 63.4933 83.57 64.4831 82.5933C64.8671 82.2147 65.4438 81.6362 65.4974 81.1056C65.4993 81.0876 65.4749 81.0595 65.4712 81.0397Z" fill="#4D3D87"/>
<path id="Vector_110" d="M65.9133 77.9829C65.7893 78.0872 65.6672 78.1923 65.5452 78.2976C65.8823 78.6911 66.2297 79.0751 66.5764 79.4649C66.9446 79.8773 67.2836 80.3187 67.6518 80.7374C67.8133 80.5872 67.9909 80.4171 68.1749 80.2556C68.1881 80.2442 68.2002 80.2331 68.2133 80.2228C67.4799 79.4396 66.7389 78.6769 65.9989 77.9097C65.9708 77.9341 65.9426 77.9585 65.9133 77.9829Z" fill="#4D3D87"/>
<path id="Vector_111" d="M57.2973 86.2717C57.1752 86.3958 57.0512 86.5233 56.9227 86.6549C56.904 86.6747 56.8842 86.6971 56.8645 86.7168C57.6317 87.484 58.3549 88.3547 59.1381 89.0807C59.2753 88.9333 59.4124 88.7848 59.5495 88.6356C58.8151 87.8081 58.0637 87.0211 57.2973 86.2717Z" fill="#4D3D87"/>
</g>
<g id="Group_36">
<path id="Vector_112" fill-rule="evenodd" clip-rule="evenodd" d="M53.9403 80.1119C53.8399 80.1364 53.9092 80.2866 53.8897 80.3561C53.7863 80.727 53.2426 80.7899 52.7363 80.8961C49.811 81.5121 47.0039 81.8305 44.1414 82.1659C42.8502 82.318 41.741 82.4457 40.3604 82.5912C40.0965 82.6194 39.7744 82.6213 39.4354 82.625C39.0963 82.6297 38.7368 82.6618 38.576 82.4879C38.4276 82.3274 38.3911 81.9967 38.3713 81.7405C38.3291 81.2088 38.3094 80.8389 38.3 80.2688C38.2973 80.0612 38.302 79.7194 38.4362 79.5993C38.6344 79.4207 39.0907 79.4096 39.3932 79.3842C40.3071 79.3082 41.2537 79.2489 42.1327 79.1672C44.5754 78.9428 47.0069 78.6854 49.5227 78.2516C50.1219 78.1483 50.7248 77.9887 51.4104 77.8657C51.6781 77.8168 52.017 77.7764 52.3504 77.7145C52.8379 77.6235 53.2586 77.4459 53.5328 77.9944C54.6738 78.0282 56.216 77.8526 57.4781 77.908C57.6904 77.9174 57.9571 77.8893 58.0961 78.0471C58.5891 78.6078 57.6727 78.9168 57.219 79.0791C56.1031 79.477 54.9338 79.8338 53.9403 80.1119Z" fill="#EFAD1B"/>
<path id="Vector_113" fill-rule="evenodd" clip-rule="evenodd" d="M50.0608 79.3522C50.4939 79.8706 49.3208 80.3327 48.7798 80.5299C47.8173 80.8831 46.8536 81.0483 45.9671 81.1403C44.995 81.2436 44.2335 81.2352 43.3497 81.0463C43.0577 80.9834 42.6622 80.9016 42.5835 80.6407C42.5487 80.527 42.5741 80.3993 42.8483 80.2491C43.3169 79.9936 43.9181 80.0012 44.3181 79.9354C45.7372 79.7024 46.8509 79.3409 48.2306 79.1672C48.764 79.0997 49.5765 79.0047 50.0263 79.2903C50.0411 79.3004 50.0495 79.3381 50.0608 79.3522Z" fill="#4D3D87"/>
<path id="Vector_114" d="M52.7367 80.8961C52.5779 80.9299 52.4203 80.96 52.2605 80.9918C52.1609 80.4828 52.0736 79.9729 51.9826 79.4592C51.8867 78.9145 51.7486 78.3746 51.6482 77.827C51.866 77.7932 52.1093 77.7594 52.3507 77.7143C52.3685 77.7106 52.3845 77.7076 52.4005 77.7039C52.5611 78.7643 52.7021 79.819 52.8466 80.8744C52.8099 80.8811 52.7732 80.8895 52.7367 80.8961Z" fill="#4D3D87"/>
<path id="Vector_115" d="M40.8932 82.5348C40.7196 82.5536 40.542 82.5723 40.3598 82.5912C40.3327 82.594 40.3026 82.5959 40.2743 82.5987C40.1475 81.5215 39.9108 80.4143 39.8254 79.3493C40.0264 79.3342 40.2274 79.3192 40.4293 79.3032C40.6247 80.3918 40.7778 81.469 40.8932 82.5348Z" fill="#4D3D87"/>
</g>
</g>
<g id="Group_37">
<g id="Group_38">
<g id="Group_39">
<path id="Vector_116" fill-rule="evenodd" clip-rule="evenodd" d="M0.848041 40.9752C1.8041 40.0455 3.62031 39.2754 4.78124 38.6873C7.51328 37.3022 9.67226 35.9215 12.5394 34.8594C13.7162 34.4246 15.3006 34.0959 16.1654 34.7354C16.7101 35.1383 17.2228 36.0248 17.6184 36.7668C18.5172 38.4488 19.7238 41.2512 20.4207 42.767C21.7195 45.5891 22.9592 48.0045 24.2496 50.8229C25.4029 53.3453 26.5402 56.0248 27.8268 58.8442C28.3949 60.0895 29.0355 61.5178 29.5088 62.8608C29.9539 64.1229 30.5935 65.8086 30.0732 66.6764C29.7117 67.2783 28.8326 67.7441 28.1725 68.1057C27.3799 68.5395 26.7619 68.7311 26.1768 69.0119C24.6545 69.7416 23.6232 70.3108 22.1723 70.908C21.0312 71.3758 19.6619 71.8942 18.2269 72.3871C16.9365 72.8313 15.4019 73.3469 14.3164 72.7262C13.334 72.1654 12.3875 70.3426 11.7666 69.1387C9.82636 65.3793 8.42421 61.6039 6.59101 57.7074C5.23867 54.8356 4.12578 52.4389 3.00156 50.0666C2.45605 48.919 1.83515 47.6408 1.24726 46.2537C0.417963 44.2947 -0.811334 42.4576 0.752338 41.0471C0.782416 41.0201 0.819916 41.0024 0.848041 40.9752Z" fill="#8F7ECE"/>
<path id="Vector_117" fill-rule="evenodd" clip-rule="evenodd" d="M1.68017 41.3903C1.69326 41.3762 1.69228 41.3067 1.73935 41.2709C3.8581 39.6781 5.67724 39.0967 8.08428 37.8383C10.187 36.7385 13.1351 34.5908 14.9776 35.6295C15.9702 36.1893 16.8399 37.86 17.4917 39.1682C19.4733 43.1586 21.0735 46.3873 22.9405 50.468C24.5653 54.018 26.4802 58.0121 28.1763 61.7799C28.8497 63.275 29.2958 64.3127 28.4308 65.3824C28.0589 65.8408 27.3864 66.0662 26.8032 66.3826C24.044 67.8824 21.4435 68.9465 18.4976 70.4727C17.3144 71.086 16.0841 71.7217 15.1815 71.4061C14.1683 71.0492 13.1624 69.419 12.503 68.1389C11.1132 65.4473 10.4228 63.5596 9.00752 60.7254C6.47471 55.6475 3.85264 50.7819 1.76943 45.8598C1.05283 44.1617 0.382324 42.6807 1.58545 41.4617C1.61338 41.4334 1.65283 41.4184 1.68017 41.3903Z" fill="white"/>
<path id="Vector_118" opacity="0.26" d="M15.1815 71.406C16.0841 71.7217 17.3144 71.0857 18.4976 70.4727C21.4437 68.9465 24.044 67.8824 26.8032 66.3826C27.3864 66.0662 28.0589 65.8408 28.4308 65.3824C29.2497 64.3709 28.8929 63.3867 28.2815 62.0146C24.2601 63.8826 17.9087 66.7047 12.9614 68.9736C13.5851 70.0461 14.3804 71.1242 15.1815 71.406Z" fill="#8F7ECE"/>
<g id="Group_40">
<path id="Vector_119" opacity="0.26" d="M14.9775 35.6295C13.1349 34.5908 10.1869 36.7387 8.08416 37.8383C5.67713 39.0967 3.85799 39.6781 1.73924 41.2709C1.69237 41.3067 1.69315 41.376 1.68006 41.3902C1.65272 41.4184 1.61346 41.4334 1.58514 41.4617C0.831038 42.2252 0.813265 43.093 1.08182 44.0518C6.10057 41.5434 11.0808 39.3213 16.1099 36.75C15.757 36.2615 15.3785 35.8539 14.9775 35.6295Z" fill="#8F7ECE"/>
<path id="Vector_120" fill-rule="evenodd" clip-rule="evenodd" d="M10.0351 38.4535C10.0454 39.0808 6.97531 40.6351 6.35168 40.4793C6.04367 40.4033 6.04074 40.0218 6.18449 39.8623C6.77804 39.2039 10.0247 37.7623 10.0351 38.4535Z" fill="white"/>
</g>
</g>
<g id="Group_41">
<g id="Group_42">
<path id="Vector_121" fill-rule="evenodd" clip-rule="evenodd" d="M12.1618 64.6939C16.7317 61.9759 21.0911 60.264 25.4864 58.3837C25.6302 58.6074 25.6958 58.8158 25.7935 59.0298C21.3579 61.1101 16.9468 63.0708 12.4614 65.3849C12.3394 65.1812 12.2575 64.9849 12.1431 64.7829C12.096 64.7521 12.1206 64.631 12.1618 64.6939Z" fill="#889922"/>
<path id="Vector_122" fill-rule="evenodd" clip-rule="evenodd" d="M12.7524 65.8876C17.2294 63.5033 21.6265 61.4953 26.0132 59.5419C26.0761 59.7091 26.1427 59.8783 26.2339 60.0529C21.8556 62.1124 17.4417 64.3456 13.0419 66.5076C12.9065 66.2923 12.8062 66.0849 12.7524 65.8876Z" fill="#889922"/>
<path id="Vector_123" fill-rule="evenodd" clip-rule="evenodd" d="M13.3689 67.0634C17.75 64.8319 22.1742 62.4737 26.516 60.6003C26.5808 60.7929 26.7 60.9956 26.7441 61.1835C22.3283 63.6112 18.0927 65.1749 13.6412 67.7716C13.5144 67.5669 13.4523 67.3763 13.3687 67.179C13.3378 67.1337 13.3435 67.0972 13.3689 67.0634Z" fill="#889922"/>
</g>
<g id="Group_43">
<path id="Vector_124" fill-rule="evenodd" clip-rule="evenodd" d="M2.55055 45.2171C3.38082 44.5861 4.8111 44.03 6.032 43.4169C8.37887 42.2382 10.4111 41.0869 12.899 39.8886C13.6718 39.5158 15.6244 38.4884 16.2039 38.7429C16.6386 38.9326 17.0011 39.9554 17.2398 40.4173C17.932 41.7613 18.4343 42.7859 19.0992 44.0771C19.4082 44.6763 19.782 45.2746 19.6964 45.8587C18.7781 46.6495 17.4923 46.9941 16.2742 47.5408C13.6953 48.6988 11.6527 49.82 9.3236 51.0577C8.48864 51.5011 6.60563 52.829 5.90133 52.4411C5.46461 52.2017 5.10778 51.2898 4.82887 50.7187C4.22223 49.4753 3.67008 48.3915 3.15993 47.2148C2.9027 46.6203 2.65934 45.9169 2.51579 45.4662C2.48942 45.3787 2.5027 45.2951 2.55055 45.2171Z" fill="#FF5000"/>
<g id="Group_44">
<path id="Vector_125" d="M6.62815 49.5183C6.92209 49.1829 7.45276 48.9567 7.41897 48.5913C7.37287 48.0737 6.80373 47.8249 6.50061 47.4898C5.84319 46.7638 5.82346 45.5616 6.6049 45.1071C7.42092 44.63 8.45119 45.3335 8.65119 46.3224C8.75549 46.8304 8.58635 47.4306 8.92736 47.8192C9.12932 48.0466 9.47951 47.9704 9.83361 47.9142C10.136 47.8644 10.3811 47.8569 10.5953 47.9208C10.7662 47.2644 10.7184 46.5487 10.4065 45.8876C9.70022 44.3915 7.91584 43.7511 6.41897 44.4564C4.92483 45.1616 4.28342 46.948 4.98947 48.4431C5.29572 49.0929 5.80647 49.5814 6.40862 49.8677C6.45451 49.7493 6.52756 49.6339 6.62815 49.5183Z" fill="white"/>
<path id="Vector_126" d="M8.97593 49.8743C9.81089 49.4807 10.3781 48.7491 10.5951 47.921C10.381 47.8571 10.1359 47.8647 9.83335 47.9143C9.47925 47.9706 9.12906 48.0468 8.9271 47.8194C8.58628 47.4305 8.75523 46.8305 8.65093 46.3225C8.45093 45.3337 7.42066 44.6302 6.60464 45.1073C5.8232 45.5618 5.84292 46.7639 6.50034 47.4899C6.80366 47.8253 7.37281 48.0741 7.4187 48.5915C7.45249 48.9567 6.92183 49.1831 6.62788 49.5184C6.52749 49.6341 6.45425 49.7495 6.40816 49.8678C7.19253 50.2405 8.13062 50.2733 8.97593 49.8743Z" fill="#8F7ECE"/>
</g>
<g id="Group_45">
<path id="Vector_127" fill-rule="evenodd" clip-rule="evenodd" d="M17.7604 43.4816C17.5257 43.0683 17.0833 42.1996 17.0429 42.1263C15.8473 42.6881 11.5159 44.9457 11.5159 44.9457C11.438 44.831 11.8559 45.8388 12.085 46.2125C12.0852 46.2127 13.3333 45.6248 17.7604 43.4816Z" fill="white"/>
<path id="Vector_128" fill-rule="evenodd" clip-rule="evenodd" d="M16.1565 39.9907C11.7886 42.2419 14.7731 40.589 10.4155 42.8851C10.4155 42.8851 10.8259 43.7444 11.0663 44.119C11.0663 44.119 12.4169 43.3743 16.7847 41.2481C16.5698 40.8323 16.3622 40.4114 16.1565 39.9907Z" fill="white"/>
</g>
</g>
</g>
</g>
<g id="Group_46" opacity="0.58">
<g id="Group_47" opacity="0.58">
<path id="Vector_129" opacity="0.58" d="M22.1927 55.8576L22.0696 55.9149C21.97 55.9617 21.8696 56.0098 21.7691 56.0576C20.8187 54.4658 19.9452 52.826 19.1741 51.1797C19.145 51.1178 19.1169 51.0549 19.0886 50.9928L19.0388 50.8838L19.0876 50.7664C19.111 50.7102 19.1046 50.652 19.0689 50.6078C19.0275 50.5553 18.9571 50.5233 18.8802 50.5383C18.7046 50.1494 18.5345 49.7654 18.3769 49.3973C18.3468 49.3287 18.2819 49.2893 18.204 49.294C18.1421 49.2986 18.0829 49.3324 18.0491 49.3822C18.0181 49.4301 18.0134 49.4856 18.036 49.5391C18.2183 49.9654 18.4146 50.4088 18.637 50.8934L15.1679 59.1729L14.581 59.4498C14.5001 59.4883 14.4616 59.5709 14.4851 59.6537C14.5161 59.7598 14.6306 59.8172 14.7386 59.7654L14.7874 59.7428C14.8456 59.7147 14.9048 59.6863 14.964 59.6582L14.7874 60.0799C14.764 60.1363 14.7694 60.1945 14.8062 60.2395C14.8446 60.2883 14.9122 60.3174 14.98 60.3127C15.0495 60.307 15.1077 60.2656 15.1351 60.202L15.4601 59.4252L20.8433 56.8848C21.1015 56.7617 21.3589 56.6397 21.6171 56.5176C21.786 56.7955 21.9562 57.0727 22.1288 57.3486C22.1673 57.4078 22.2349 57.4406 22.3091 57.435C22.3767 57.4303 22.4405 57.3928 22.4696 57.341C22.496 57.2941 22.4931 57.2397 22.4612 57.1899C22.2874 56.9147 22.1194 56.6377 21.9503 56.3606C22.0837 56.2977 22.2171 56.2348 22.3485 56.1727C22.4302 56.1342 22.4689 56.0525 22.4452 55.9697C22.4144 55.8623 22.2989 55.8061 22.1927 55.8576ZM20.2028 56.1158C20.1851 56.1609 20.1851 56.2117 20.2056 56.2549C20.2112 56.2672 20.2189 56.2775 20.2263 56.285C20.2282 56.2953 20.231 56.3066 20.2366 56.3178L20.4179 56.6953L15.664 58.9389L18.2128 52.857C18.3763 52.4635 18.5415 52.0692 18.7058 51.6766L18.8456 51.3441C19.5405 52.8252 20.3023 54.2779 21.1108 55.665L21.123 55.6875L20.3003 56.0219C20.2554 56.0389 20.2216 56.0727 20.2028 56.1158ZM21.4368 56.2145L20.7521 56.5365L20.6226 56.2699C20.8507 56.1779 21.079 56.085 21.3044 55.993C21.3485 56.067 21.3927 56.1402 21.4368 56.2145Z" fill="#8F7ECE"/>
<path id="Vector_130" opacity="0.58" d="M23.016 52.3217C22.8695 52.1922 22.7211 52.0512 22.5484 51.8775C22.5635 51.8221 22.5494 51.7621 22.51 51.7227C22.4678 51.6766 22.401 51.6551 22.34 51.6662C22.1635 51.4783 21.9963 51.2877 21.8422 51.0971C21.768 51.0061 21.6215 51.0172 21.5492 51.1111C21.5219 51.1496 21.5098 51.1938 21.5172 51.2371C21.5098 51.2578 21.5059 51.2783 21.5078 51.3C21.5209 51.5912 21.5576 51.8889 21.6158 52.1848C21.5764 52.2139 21.5529 52.258 21.5483 52.3078C21.5445 52.3549 21.5604 52.4008 21.5934 52.4336C21.6158 52.458 21.6479 52.475 21.6807 52.4844C21.7539 52.7812 21.8488 53.0742 21.9623 53.3559C21.9914 53.4254 22.0572 53.4658 22.1332 53.4611C22.1951 53.4564 22.2543 53.4217 22.2881 53.3729C22.3201 53.3258 22.3256 53.2695 22.3041 53.216C22.1877 52.9277 22.0928 52.6281 22.0223 52.3229L22.2824 52.1246C22.4459 52.2881 22.5961 52.4299 22.7408 52.5576C22.8141 52.6234 22.9231 52.6328 22.9973 52.5736C23.0367 52.5426 23.0631 52.491 23.0639 52.4393C23.0658 52.3922 23.049 52.35 23.016 52.3217ZM21.9192 51.7451C21.9567 51.7855 21.9942 51.8268 22.0318 51.8672C22.0037 51.8898 21.9756 51.9113 21.9463 51.933C21.9361 51.8709 21.9268 51.808 21.9192 51.7451Z" fill="#8F7ECE"/>
<path id="Vector_131" opacity="0.58" d="M19.9831 58.8215C19.971 58.692 19.9173 58.5679 19.83 58.474C19.6648 58.2965 19.3829 58.2355 19.1322 58.3285C18.9997 58.3773 18.8861 58.4675 18.8212 58.5773C18.7818 58.6429 18.7847 58.7201 18.8279 58.7754C18.8288 58.8101 18.8409 58.8459 18.8626 58.8777L19.6384 59.9916C19.6722 60.0367 19.7314 60.0621 19.7982 60.0564C19.8179 60.0554 19.8376 60.0507 19.8564 60.0433C19.8902 60.0677 19.9314 60.0791 19.9755 60.0761C20.0122 60.0734 20.0488 60.0611 20.0816 60.0404C20.3634 59.8629 20.521 59.615 20.5136 59.3586C20.5074 59.091 20.3054 58.8215 19.9831 58.8215ZM19.3597 58.5726L19.3784 58.6328C19.3888 58.6328 19.3982 58.6338 19.4236 58.6365C19.4236 58.6365 19.4292 58.6365 19.4339 58.6375C19.4507 58.6431 19.4667 58.6478 19.4771 58.6506C19.479 58.6525 19.4902 58.659 19.4931 58.6609L19.5072 58.6683C19.5118 58.672 19.5175 58.6759 19.5222 58.6806C19.5222 58.6806 19.5259 58.6826 19.5288 58.6843C19.5402 58.6965 19.5523 58.7088 19.5693 58.7304C19.5702 58.7314 19.5702 58.7324 19.5712 58.7332C19.5722 58.7341 19.5722 58.7351 19.5732 58.7359L19.5825 58.7527C19.5882 58.764 19.5939 58.7754 19.6023 58.7959C19.6023 58.7978 19.6033 58.8006 19.605 58.8025C19.606 58.8062 19.607 58.8109 19.6087 58.8166C19.6115 58.8326 19.6134 58.8484 19.6144 58.8644C19.6144 58.8691 19.6144 58.8738 19.6154 58.8795C19.6154 58.8804 19.6154 58.8814 19.6154 58.8814L19.6107 58.9189C19.6087 58.9263 19.6087 58.934 19.6079 58.9386C19.6023 58.9556 19.5949 58.9705 19.5845 58.9941C19.5751 59.0054 19.5667 59.0166 19.5591 59.0289C19.5056 59.1115 19.5253 59.2148 19.6052 59.2674C19.6851 59.3218 19.8175 59.2984 19.8673 59.2213C19.871 59.2156 19.8747 59.2099 19.8794 59.2045C19.8841 59.2008 19.8908 59.1941 19.8992 59.1884L19.9253 59.1761C19.929 59.1752 19.9329 59.1752 19.9366 59.1742C19.945 59.1722 19.9544 59.1705 19.9667 59.1685C19.9761 59.1695 19.9835 59.1705 19.9931 59.1695C19.9995 59.1715 20.0072 59.1722 20.0128 59.1722C20.0232 59.1759 20.0335 59.1797 20.0466 59.1845L20.0626 59.1939C20.0663 59.1976 20.07 59.1986 20.074 59.2013C20.0769 59.2041 20.0796 59.208 20.0824 59.2117L20.0937 59.223C20.0984 59.2267 20.1021 59.2324 20.1058 59.2381C20.1105 59.2455 20.1134 59.2531 20.1189 59.2625C20.1245 59.2748 20.1292 59.2849 20.1312 59.2925L20.1368 59.3123C20.1396 59.3263 20.1415 59.3394 20.1415 59.3394C20.1415 59.3394 20.1443 59.3685 20.1443 59.3705C20.1443 59.3826 20.1433 59.3959 20.1423 59.407C20.1376 59.4511 20.1226 59.4933 20.1001 59.5338C20.0597 59.6033 19.9978 59.6672 19.9048 59.732C19.6654 59.3882 19.4249 59.0445 19.1855 58.7008C19.1939 58.6933 19.2042 58.6857 19.2136 58.6791C19.2156 58.6781 19.2183 58.6763 19.221 58.6744C19.2284 58.6697 19.237 58.666 19.2437 58.6621C19.2605 58.6554 19.2765 58.649 19.2935 58.6433C19.3009 58.6424 19.3085 58.6396 19.3273 58.6357L19.3263 58.631C19.3376 58.6347 19.3478 58.6338 19.3638 58.632L19.3597 58.5726Z" fill="#8F7ECE"/>
</g>
<g id="Group_48" opacity="0.58">
<path id="Vector_132" opacity="0.58" d="M10.7722 58.3088C10.1485 57.0174 9.4499 55.4586 8.63662 53.5465C8.98408 53.3793 9.35693 53.2018 9.73349 53.0225C10.2538 52.7756 10.7815 52.5248 11.2653 52.2901C11.3386 52.2553 11.4241 52.2233 11.5151 52.1897C11.7687 52.0967 12.0308 52.0008 12.0476 51.799C12.0485 51.7887 12.0456 51.7774 12.0411 51.768C12.0044 51.6994 11.9425 51.6647 11.8673 51.6703C11.7987 51.675 11.7321 51.7117 11.672 51.7436C11.6466 51.7567 11.6241 51.7699 11.6034 51.7774C11.0249 51.9858 10.5798 52.1793 10.2812 52.3512C10.0333 52.4949 9.74111 52.6291 9.45947 52.7588C9.01162 52.9635 8.54951 53.1758 8.24326 53.434C8.22353 53.45 8.21689 53.4754 8.22451 53.4979C8.54385 54.3694 8.9749 55.2907 9.39092 56.1821C9.66416 56.768 9.94502 57.3692 10.1948 57.9561C10.1112 57.8612 10.0259 57.7655 9.94131 57.6715C9.83232 57.5512 9.72334 57.4291 9.61826 57.3071C9.57041 57.2516 9.52256 57.1924 9.47451 57.1315C9.25556 56.8582 9.00674 56.5483 8.63017 56.5567C8.60303 56.5576 8.57568 56.5764 8.57002 56.6035C8.50615 56.8778 8.44228 57.2703 8.62724 57.5285C8.64326 57.552 8.67334 57.5596 8.70224 57.5512C8.93135 57.4723 8.90596 57.291 8.88721 57.1596C8.88056 57.1098 8.87314 57.0619 8.87783 57.0205C9.17451 57.3276 9.46943 57.6864 9.75596 58.0338C9.94385 58.2639 10.1392 58.5016 10.3278 58.7147C10.3495 58.7391 10.372 58.7645 10.3944 58.7916C10.5325 58.9569 10.7071 59.1625 10.956 59.1512H10.9579C10.9843 59.1493 11.0077 59.1325 11.0151 59.1071C11.0884 58.8742 10.9645 58.6563 10.8556 58.4639C10.8257 58.4121 10.7974 58.3596 10.7722 58.3088Z" fill="#8F7ECE"/>
<path id="Vector_133" opacity="0.58" d="M10.5769 53.6676C10.5685 53.6414 10.5431 53.6245 10.515 53.6245L10.4896 53.6264C10.2425 53.6442 10.2181 53.8434 10.2013 53.9899C10.1929 54.0631 10.1843 54.1326 10.1552 54.1832C10.1374 54.1701 10.1185 54.1561 10.1007 54.1418C9.99739 54.0649 9.88098 53.9776 9.72317 53.9897C9.66867 53.9934 9.61242 54.0084 9.55422 54.0366C9.52414 54.0506 9.51008 54.0854 9.52512 54.1135C9.61242 54.3024 9.75715 54.3596 9.88489 54.4104C9.96184 54.4422 10.0361 54.4713 10.0962 54.5278C10.0925 54.603 10.0728 54.6856 10.0511 54.7719C10.0032 54.9672 9.95051 55.1879 10.0905 55.3692C10.1038 55.3869 10.1253 55.3955 10.147 55.3936C10.1554 55.3926 10.1648 55.3908 10.1734 55.3862C10.3894 55.2705 10.395 55.0809 10.3988 54.9137C10.4017 54.8244 10.4044 54.7399 10.4364 54.6705C10.4683 54.6883 10.5003 54.709 10.5331 54.7307C10.6308 54.7936 10.7407 54.8658 10.8863 54.8555C10.9435 54.8508 11.0009 54.8338 11.0599 54.8057C11.0853 54.7936 11.0984 54.7682 11.0937 54.7418C11.0579 54.5465 10.8794 54.4864 10.7208 54.4338C10.6335 54.4047 10.5509 54.3766 10.4898 54.3305C10.5011 54.277 10.5189 54.2262 10.5366 54.1737C10.5864 54.0225 10.638 53.8659 10.5769 53.6676Z" fill="#8F7ECE"/>
<path id="Vector_134" opacity="0.58" d="M14.3244 55.0755C14.191 55.036 14.1252 55.0858 14.0689 55.1364C14.0482 55.1571 14.0267 55.1768 13.9957 55.1966C13.8388 55.0905 13.606 54.7749 13.5298 54.511C13.5025 54.419 13.497 54.3411 13.5129 54.2809C13.5597 54.2987 13.6226 54.3157 13.6865 54.311C13.7644 54.3053 13.8255 54.2659 13.8584 54.202C13.8687 54.1823 13.8668 54.1598 13.8545 54.1419C13.7164 53.9522 13.5709 53.9192 13.4742 53.9268C13.3802 53.9335 13.292 53.9803 13.2224 54.0565C13.1341 54.1542 13.089 54.2895 13.1004 54.42C13.1455 54.9075 13.6619 55.469 13.9634 55.563C13.9718 55.5657 13.9804 55.5667 13.9888 55.5657C13.9955 55.5647 14.0029 55.5637 14.0086 55.561C14.1607 55.5008 14.3326 55.4315 14.3824 55.3046C14.4068 55.2436 14.4002 55.1759 14.3617 55.1046C14.3545 55.0905 14.3414 55.0792 14.3244 55.0755Z" fill="#8F7ECE"/>
<path id="Vector_135" opacity="0.58" d="M11.9704 55.2012C11.9798 55.2256 12.0069 55.2416 12.0353 55.2397C12.0372 55.2387 12.039 55.2387 12.039 55.2387C12.3216 55.1936 12.7132 54.9608 12.8325 54.7672C12.8456 54.7455 12.8439 54.7184 12.8278 54.6996C12.7941 54.6612 12.7282 54.619 12.6071 54.6274C12.4062 54.6424 12.1366 54.7983 12.0183 54.9684C11.961 55.051 11.945 55.1317 11.9704 55.2012Z" fill="#8F7ECE"/>
<path id="Vector_136" opacity="0.58" d="M10.2317 56.2371C10.3885 56.2258 10.5791 56.1311 10.7633 56.0399C10.8366 56.0034 10.9088 55.9676 10.9774 55.9375C11.045 55.9084 11.1182 55.8813 11.1924 55.853C11.4901 55.7403 11.7973 55.6248 11.7803 55.3891C11.7784 55.3637 11.7586 55.3413 11.7315 55.3356C11.5192 55.2905 11.2178 55.4323 10.9059 55.5873C10.8008 55.6409 10.6936 55.6934 10.5885 55.7395C10.5434 55.7592 10.4899 55.7789 10.4364 55.7977C10.2288 55.8709 9.99301 55.9545 10.011 56.1518C10.0129 56.1696 10.0223 56.1856 10.0391 56.1959C10.0909 56.2285 10.1547 56.2426 10.2317 56.2371Z" fill="#8F7ECE"/>
<path id="Vector_137" opacity="0.58" d="M12.9086 55.0079C12.6983 55.0229 12.3395 55.2276 12.2616 55.4165C12.2325 55.485 12.2428 55.5489 12.2907 55.5958C12.3047 55.6099 12.3225 55.6155 12.3414 55.6145C12.3452 55.6145 12.3498 55.6136 12.3528 55.6126C12.5688 55.5581 13.0561 55.3561 13.0965 55.1054C13.1002 55.0856 13.0928 55.0659 13.0778 55.0518C13.0371 55.0181 12.9809 55.0022 12.9086 55.0079Z" fill="#8F7ECE"/>
<path id="Vector_138" opacity="0.58" d="M11.9406 57.0654C11.8644 57.0193 11.7931 56.9772 11.7302 56.9143C11.7199 56.8326 11.7246 56.7443 11.7312 56.6514C11.7416 56.4664 11.7529 56.2738 11.6355 56.1217C11.6187 56.1 11.5894 56.0879 11.5632 56.101C11.3201 56.1826 11.3435 56.3715 11.3603 56.5086C11.3679 56.5641 11.3744 56.6176 11.3679 56.6627C11.3209 56.6363 11.275 56.5942 11.2281 56.55C11.1369 56.4647 11.0345 56.3668 10.8816 56.3781C10.8515 56.3801 10.8195 56.3865 10.7876 56.3979C10.7585 56.4072 10.7416 56.4346 10.7464 56.4637C10.7832 56.7041 10.9785 56.8262 11.1511 56.9342C11.2384 56.9897 11.322 57.0422 11.3849 57.107C11.397 57.1736 11.3953 57.2479 11.3933 57.3268C11.3906 57.491 11.3867 57.6772 11.523 57.8094C11.5361 57.8225 11.5541 57.8291 11.5728 57.8272C11.5765 57.8272 11.5802 57.8262 11.5841 57.8262C11.8265 57.766 11.7955 57.5914 11.7757 57.4768C11.7673 57.4317 11.7617 57.3961 11.7626 57.367C11.8623 57.4619 11.9834 57.5736 12.1195 57.5633C12.1834 57.5586 12.2398 57.5295 12.2904 57.475C12.3074 57.4572 12.3111 57.4309 12.3007 57.4094C12.2044 57.2233 12.0712 57.1424 11.9406 57.0654Z" fill="#8F7ECE"/>
</g>
</g>
<g id="Group_49">
<path id="Vector_139" fill-rule="evenodd" clip-rule="evenodd" d="M20.2678 73.0411C19.786 73.2975 20.0584 73.7821 20.1467 74.0721C20.2668 74.4694 20.4707 74.8967 20.5908 75.2282C20.8584 75.9626 20.9563 76.7364 20.9656 77.4793C20.9834 78.8758 20.7375 80.3729 20.2237 81.8069C19.2358 84.569 16.8832 87.3573 17.628 90.3014C18.0664 92.035 19.4293 93.3967 20.8981 94.1133C22.2477 94.7717 23.6488 94.9885 25.1928 94.8795C26.6946 94.7735 28.2676 94.4842 29.7494 93.6727C31.4051 92.7674 32.7838 91.3108 33.6469 89.92C35.25 87.3354 35.5918 84.2766 35.0406 81.2836C34.7524 79.7256 34.2893 78.178 33.3182 76.6659C31.2793 73.4934 28.0947 70.8752 25.5112 69.2139C22.7557 67.4417 20.069 66.3223 17.2112 64.9549C15.3555 64.0665 13.0528 62.7874 12.2074 60.3305C12.0225 59.7905 11.8317 59.0383 11.9697 58.6465C12.1567 58.1188 12.8449 57.4567 13.5615 56.9749C14.6069 56.2706 15.8155 56.078 16.9246 56.0338C20.1553 55.9071 23.4047 56.6641 26.5461 56.7016C30.6014 56.7485 34.6996 56.4481 39.1268 52.9526C39.3465 52.7797 39.7326 52.6145 39.7053 52.236C39.4479 51.9872 39.1024 52.1946 38.8826 52.3139C38.5774 52.4811 38.261 52.7168 37.9998 52.9084C33.9381 55.8649 30.1795 56.0518 26.3723 55.9541C23.2412 55.8743 20.0293 55.1579 16.7772 55.3202C15.2379 55.3961 13.5408 55.9485 12.2016 57.4249C12.75 55.2536 15.5684 54.059 17.3537 53.6167C19.3709 53.1151 21.391 52.9321 23.2516 52.8579C25.2744 52.7762 27.0795 52.8465 29.0817 52.6719C29.9936 52.593 31.0303 52.4475 32.0541 52.0924C33.2336 51.6838 34.9438 50.8631 35.651 49.6694C35.759 49.4862 35.9506 49.2129 35.7891 48.9885C34.0957 50.9307 32.0879 51.5073 30.2537 51.852C28.4008 52.1985 26.5451 52.0239 24.7992 52.052C23.0412 52.0792 21.177 52.1083 19.324 52.4249C17.4373 52.7459 15.4473 53.0719 13.5776 54.3631C12.1867 55.3239 11.4701 56.5655 11.2053 57.744C10.933 58.9469 11.1254 60.2317 11.7557 61.4676C13.2358 64.3762 15.9996 65.3999 18.2264 66.4403C22.6686 68.5129 27.6807 70.7762 31.7237 75.8975C33.3672 77.9795 34.0321 80.0268 34.309 82.0686C34.5842 84.1001 34.3795 86.0768 33.7174 87.8368C33.0008 89.7442 31.4832 91.7286 29.3147 92.9251C27.366 93.9985 25.2192 94.2934 23.3436 94.051C21.6719 93.8377 19.0762 92.6469 18.4563 90.1659C17.9537 88.1524 19.076 86.3088 19.9655 84.5057C21.2399 81.9194 22.2625 78.8352 21.6127 75.9286C21.4492 75.1952 21.2371 74.4448 20.8061 73.6559C20.6867 73.4403 20.5955 73.0778 20.2678 73.0411Z" fill="#4D3D87"/>
<path id="Vector_140" fill-rule="evenodd" clip-rule="evenodd" d="M19.3431 73.7435C19.5873 74.2047 20.1574 74.3812 20.6195 74.1381C21.0797 73.8949 21.2562 73.3238 21.0131 72.8627L20.4673 71.8287C20.2242 71.3686 19.6531 71.192 19.192 71.4351C18.7299 71.6783 18.5552 72.2494 18.7974 72.7105L19.3431 73.7435Z" fill="#4D3D87"/>
<g id="Group_50">
<path id="Vector_141" fill-rule="evenodd" clip-rule="evenodd" d="M38.0914 47.9707C37.2715 48.675 36.4535 49.3803 35.6111 50.0791C35.3791 49.8668 35.1453 49.6668 34.9199 49.4301C35.8148 48.5154 37.4416 46.6361 39.1471 45.9084C39.8363 45.6135 40.876 45.5592 41.1137 46.5481C41.3307 47.4572 40.0195 48.8066 38.9471 48.5297C38.6061 48.4422 38.3975 48.2094 38.0914 47.9707Z" fill="#4D3D87"/>
<g id="Group_51">
<path id="Vector_142" fill-rule="evenodd" clip-rule="evenodd" d="M38.6329 47.5444C38.7042 47.3002 39.4181 46.6221 39.6548 46.9161C39.8126 47.1114 39.4849 47.3585 39.3054 47.5126C39.1683 47.6299 38.9148 47.9643 38.6941 47.8169C38.5738 47.7379 38.6124 47.612 38.6329 47.5444Z" fill="white"/>
<path id="Vector_143" fill-rule="evenodd" clip-rule="evenodd" d="M40.6999 47.0428C40.7384 47.3123 40.3552 47.5283 40.1872 47.3565C39.9796 47.1434 40.6294 46.5742 40.6999 47.0428Z" fill="white"/>
</g>
</g>
<g id="Group_52">
<path id="Vector_144" fill-rule="evenodd" clip-rule="evenodd" d="M41.0005 50.7186C40.1009 51.3159 39.2001 51.9131 38.2996 52.534C38.4423 52.8159 38.571 53.0948 38.7373 53.3754C39.8605 52.7621 42.1107 51.7057 43.2724 50.2612C43.7419 49.676 44.0763 48.6908 43.1888 48.1951C42.3736 47.7397 40.7189 48.6346 40.6955 49.7428C40.6869 50.0951 40.8533 50.359 41.0005 50.7186Z" fill="#4D3D87"/>
<g id="Group_53">
<path id="Vector_145" fill-rule="evenodd" clip-rule="evenodd" d="M41.5568 50.3139C41.8122 50.3112 42.6583 49.8067 42.4405 49.4997C42.295 49.295 41.9681 49.5438 41.771 49.6745C41.6208 49.7749 41.23 49.928 41.3126 50.1807C41.3558 50.3176 41.4882 50.3139 41.5568 50.3139Z" fill="white"/>
<path id="Vector_146" fill-rule="evenodd" clip-rule="evenodd" d="M42.5995 48.4592C42.3517 48.3493 42.0397 48.6602 42.1591 48.8678C42.3075 49.1258 43.0333 48.6536 42.5995 48.4592Z" fill="white"/>
</g>
</g>
</g>
</g>
</g>
</g>
</g>
<defs>
<clipPath id="clip0_320_58209">
<rect width="100" height="100" fill="white"/>
</clipPath>
</defs>
</svg>
