<svg width="100" height="100" viewBox="0 0 100 100" fill="none" xmlns="http://www.w3.org/2000/svg">
<g id="bagpack 1" clip-path="url(#clip0_320_58645)">
<g id="Group">
<g id="Group_2">
<g id="Group_3">
<g id="Group_4">
<g id="Group_5">
<path id="Vector" d="M90.7968 24.2619C90.4757 21.4297 90.0402 18.5656 89.5052 15.8668C89.2351 14.5051 89.0183 13.1853 88.6242 11.9332C88.2441 10.724 87.9109 9.47087 87.4548 8.43845C87.4318 8.4197 87.4103 8.37869 87.3914 8.35232C86.5408 7.14294 85.5902 5.00212 83.3996 5.12361C81.8152 5.21111 80.6564 7.03279 79.9357 8.41091C79.4726 9.29529 79.1271 10.2154 78.8253 11.1519C78.8876 11.1734 78.9617 11.1828 79.0541 11.1705C80.3587 13.0031 81.0759 15.865 81.6378 18.6849C82.6957 24.0004 83.0318 29.5806 83.3996 35.4744C83.9316 44.0418 84.782 53.672 83.6933 62.184C82.7433 69.6056 82.4171 73.2043 74.8318 77.597C81.0357 78.3963 87.7996 75.4427 89.4457 68.9947C90.1099 66.3945 90.6054 63.5564 90.914 60.7744C91.5632 54.9047 91.9119 48.9144 91.9119 42.4584C91.9111 36.1439 91.4531 30.051 90.7968 24.2619Z" fill="#4D3D87"/>
<g id="Group_6">
<path id="Vector_2" d="M83.3993 5.12336C85.5899 5.00187 86.5405 7.14269 87.3911 8.35207C87.41 8.37863 87.4315 8.41945 87.4545 8.4382C87.4731 8.45402 87.4915 8.45363 87.5085 8.41047C86.517 6.09894 85.8233 4.4757 84.4557 2.9507C83.4424 1.8216 82.0661 0.886637 80.5063 0.38859C80.1813 0.284879 79.2622 0.868473 78.9227 0.804801C78.4899 0.723746 78.6333 0.00851153 78.1833 0.000894343C77.2604 -0.014926 76.3082 0.133512 75.3559 0.485074C72.8055 1.42707 70.4635 3.87004 69.3088 6.64953C68.7264 8.05422 68.251 9.60285 67.8414 11.2874C67.4188 13.0265 66.9594 14.8829 67.1368 16.6882C67.326 18.6204 68.4178 19.8808 69.6022 20.9741C70.3709 21.6831 71.2803 22.5532 72.5969 22.5595C75.0008 22.5704 75.9618 20.2734 76.5887 18.4499C77.1581 16.797 77.6747 15.0849 78.1741 13.3423C78.3848 12.6075 78.5922 11.8751 78.8254 11.1517C79.127 10.2152 79.4727 9.29484 79.9358 8.41066C80.6563 7.03254 81.8151 5.21086 83.3993 5.12336Z" fill="#8F7ECE"/>
<path id="Vector_3" d="M74.1224 9.23286C74.8712 7.26626 75.8361 5.41274 77.1158 3.71392C78.0314 2.50024 79.2306 1.58364 80.3449 0.543799C80.3882 0.50376 80.4417 0.45044 80.4997 0.387354C79.756 0.150635 78.9703 0.013916 78.1638 0.00219727C77.2488 0.572119 76.4685 1.29438 75.7663 2.01157C72.4423 5.40669 70.8005 9.42818 69.6609 14.81C69.2914 16.5524 68.9915 17.9774 69.1324 20.035C69.1433 20.2024 69.1632 20.3893 69.1914 20.5829C69.3267 20.7157 69.4636 20.8463 69.6015 20.9743C69.9207 21.2684 70.2648 21.5899 70.6509 21.8663C70.7458 21.611 70.8148 21.2915 70.8937 20.9743C71.9001 16.918 72.8017 12.7002 74.1224 9.23286Z" fill="#EFAD1B"/>
</g>
</g>
<g id="Group_7">
<path id="Vector_4" fill-rule="evenodd" clip-rule="evenodd" d="M83.6296 8.10779C84.0237 7.75486 84.6245 8.27459 84.9212 8.63592C85.2753 9.06853 85.6415 9.85095 85.8603 10.5146C86.1194 11.3043 86.3583 12.1758 86.2704 12.8631C86.2165 13.2959 85.9237 13.6094 85.6841 13.626C84.9679 13.6761 84.4099 11.672 84.2161 11.1603C83.8353 10.1513 83.3958 9.15525 83.6296 8.10779Z" fill="white"/>
<path id="Vector_5" fill-rule="evenodd" clip-rule="evenodd" d="M86.446 16.2682C87.4335 15.8152 87.9419 19.0744 87.0333 19.0272C86.529 19.0012 85.7833 16.5723 86.446 16.2682Z" fill="white"/>
</g>
</g>
<g id="Group_8">
<g id="Group_9">
<path id="Vector_6" d="M13.669 24.2619C13.9907 21.4297 14.4252 18.5656 14.9612 15.8668C15.2303 14.5051 15.4481 13.1853 15.8413 11.9332C16.2213 10.724 16.5555 9.47087 17.0116 8.43845C17.0334 8.4197 17.0561 8.37869 17.075 8.35232C17.9241 7.14294 18.8762 5.00212 21.0668 5.12361C22.651 5.21111 23.8088 7.03279 24.5301 8.41091C24.993 9.29529 25.3393 10.2154 25.6409 11.1519C25.5774 11.1734 25.5036 11.1828 25.4112 11.1705C24.1065 13.0031 23.3893 15.865 22.8274 18.6849C21.769 24.0004 21.4329 29.5806 21.0668 35.4744C20.5334 44.0418 19.6842 53.672 20.7731 62.184C21.7215 69.6056 22.0483 73.2043 29.6332 77.597C23.4299 78.3963 16.667 75.4427 15.0194 68.9947C14.3555 66.3945 13.8596 63.5564 13.5524 60.7744C12.9032 54.9047 12.554 48.9144 12.554 42.4584C12.5538 36.1439 13.0118 30.0509 13.669 24.2619Z" fill="#4D3D87"/>
<g id="Group_10">
<path id="Vector_7" d="M21.0667 5.12329C18.8761 5.00181 17.9239 7.14263 17.0749 8.352C17.056 8.37857 17.0335 8.41939 17.0114 8.43814C16.9919 8.45396 16.9733 8.45357 16.9575 8.4104C17.9485 6.09888 18.6417 4.47564 20.0093 2.95064C21.0192 1.82544 22.3894 0.893019 23.9421 0.393801C24.3028 0.277785 25.3396 0.622121 25.7177 0.55591C26.1153 0.486183 25.8554 0.00883959 26.2675 0.00102709C27.1948 -0.016551 28.1519 0.131496 29.1091 0.485011C31.6604 1.427 34.0024 3.86997 35.1562 6.64947C35.7395 8.05415 36.2146 9.60279 36.6245 11.2874C37.046 13.0264 37.5056 14.8829 37.3278 16.6881C37.139 18.6204 36.0472 19.8807 34.8624 20.9741C34.0952 21.6831 33.1856 22.5532 31.869 22.5594C29.4645 22.5704 28.504 20.2733 27.8763 18.4499C27.3079 16.7969 26.7915 15.0848 26.2919 13.3422C26.0806 12.6075 25.8728 11.8751 25.6405 11.1516C25.339 10.2151 24.9927 9.29478 24.5298 8.4106C23.8089 7.03247 22.6511 5.21079 21.0667 5.12329Z" fill="#8F7ECE"/>
<path id="Vector_8" d="M30.3427 9.2328C29.5941 7.2662 28.6281 5.41268 27.3484 3.71386C26.433 2.50018 25.2337 1.58378 24.1189 0.543738C24.0769 0.503699 24.0236 0.450378 23.9656 0.387293C24.7084 0.150574 25.4939 0.013855 26.3005 0.00213623C27.215 0.572058 27.9968 1.29432 28.698 2.01151C32.022 5.40663 33.6648 9.42811 34.8035 14.81C35.173 16.5523 35.4728 17.9773 35.333 20.035C35.3211 20.2023 35.3009 20.3892 35.2726 20.5828C35.1377 20.7156 35.0019 20.8463 34.8625 20.9742C34.5433 21.2684 34.2007 21.5898 33.8136 21.8662C33.7197 21.6109 33.6498 21.2914 33.5709 20.9742C32.564 16.918 31.6625 12.7002 30.3427 9.2328Z" fill="#EFAD1B"/>
</g>
</g>
<g id="Group_11">
<path id="Vector_9" fill-rule="evenodd" clip-rule="evenodd" d="M20.8347 8.10779C20.4396 7.75486 19.8392 8.27459 19.5425 8.63592C19.1888 9.06853 18.8222 9.85096 18.6034 10.5146C18.3437 11.3043 18.105 12.1758 18.1929 12.8631C18.2478 13.2959 18.5405 13.6094 18.7802 13.626C19.4964 13.6761 20.0538 11.672 20.2472 11.1603C20.6288 10.1513 21.0679 9.15525 20.8347 8.10779Z" fill="white"/>
<path id="Vector_10" fill-rule="evenodd" clip-rule="evenodd" d="M18.0174 16.2682C17.0299 15.8152 16.5224 19.0744 17.43 19.0272C17.9343 19.0012 18.68 16.5723 18.0174 16.2682Z" fill="white"/>
</g>
</g>
<g id="Group_12">
<g id="Group_13">
<path id="Vector_11" fill-rule="evenodd" clip-rule="evenodd" d="M65.0079 16.818C64.926 17.0018 62.3602 15.9727 61.6094 15.9695C61.6178 14.8526 61.6713 11.5975 61.6004 10.5668C61.5375 9.64454 61.4545 8.61837 60.9756 8.20548C60.4137 7.72111 58.5256 7.65353 57.225 7.58009C54.2653 7.41271 51.8243 7.37208 48.6831 7.37208C47.1942 7.37208 45.6163 7.39728 44.8625 7.85802C43.6543 8.59747 43.2643 13.6225 42.7063 15.0647C41.5036 15.0647 40.3338 15.0303 39.234 14.9258C39.1895 12.3951 39.9543 7.93497 40.8344 6.46896C41.9403 4.6295 43.8801 3.93321 46.7887 3.72228C46.9538 3.71036 47.1221 4.67638 47.2934 4.66739C48.5606 4.60099 50.3502 4.68751 52.0854 4.80626C54.6957 4.98439 57.6667 3.84493 60.1184 4.25138C61.7315 4.51876 63.1196 5.03263 64.0323 6.05216C65.4444 7.63087 65.3909 13.9893 65.0079 16.818Z" fill="#4D3D87"/>
<path id="Vector_12" fill-rule="evenodd" clip-rule="evenodd" d="M47.4321 5.77498C47.9171 6.1451 49.1903 6.17166 50.28 6.12205C52.5186 6.0201 54.4296 6.05233 56.6003 6.05233C57.7155 6.05233 59.0282 6.12713 59.5167 5.77479C59.8952 5.50135 60.0497 4.85701 60.0726 4.2449C57.6298 3.84744 54.6794 4.00682 52.085 3.82986C50.3499 3.71131 48.5602 3.62459 47.2931 3.691C47.1167 3.70018 46.9434 3.7117 46.7735 3.7242C46.7188 4.41072 46.9591 5.41287 47.4321 5.77498Z" fill="#8F7ECE"/>
</g>
<g id="Group_14">
<g id="Group_15">
<g id="Group_16">
<path id="Vector_13" fill-rule="evenodd" clip-rule="evenodd" d="M52.1574 10.0145C57.3869 9.76544 62.2732 10.4981 66.2554 11.683C67.2503 11.9787 68.1984 12.3643 69.1193 12.7674C70.0302 13.166 70.9279 13.5838 71.7615 14.0467C73.4552 14.9865 74.8347 16.2764 75.9609 17.7174C76.5462 18.4674 77.0882 19.2238 77.5453 20.0809C78.8962 22.617 79.8148 25.6758 80.3539 29.0625C81.0646 33.5219 81.231 38.9541 81.0222 43.9078C80.9177 46.3662 80.6537 48.7826 80.4378 51.1936C80.2246 53.5746 79.9718 55.974 79.7695 58.3959C79.3605 63.3137 79.271 68.4203 78.3515 72.7172C78.1162 73.818 77.8085 74.8035 77.379 75.692C76.9455 76.5881 76.4765 77.3996 75.8212 78.0561C75.1439 78.7344 74.3443 79.1924 73.3744 79.558C72.8933 79.7393 72.4269 79.9336 71.9003 80.0584C71.3789 80.1818 70.8314 80.2611 70.2322 80.3361C66.8218 80.7652 62.9464 80.9484 59.0255 80.9484C57.7484 80.9484 56.4783 81.0594 55.2162 81.0594C53.938 81.0594 52.6285 81.0873 51.2953 81.0309C50.0251 80.9779 48.7195 80.9484 47.4294 80.9484C44.8527 80.9484 42.2869 80.815 39.8945 80.6143C38.6388 80.5088 37.4457 80.407 36.3343 80.2246C35.2236 80.0428 34.1992 79.7108 33.332 79.3076C31.506 78.459 30.481 76.9211 29.7164 75.0526C28.9482 73.1756 28.6515 70.8965 28.3822 68.5176C28.2484 67.3438 28.0964 66.1422 28.0205 64.9309C27.9416 63.6893 27.897 62.4445 27.8251 61.2043C27.6873 58.8193 27.3947 56.3479 27.1859 53.9744C26.7513 49.0287 26.2408 44.4545 26.24 39.2365C26.24 36.6873 26.4019 34.1594 26.6576 31.7879C26.9142 29.4131 27.3035 27.1561 27.8818 25.1414C28.4681 23.0953 29.1419 21.1727 30.1333 19.5244C31.6113 17.0678 33.5582 15.0522 36.1673 13.7402C37.021 13.3109 37.9031 12.8621 38.8371 12.4891C40.7105 11.7408 42.7619 11.1967 44.983 10.7649C47.1912 10.3356 49.5421 10.0141 52.1023 10.0141C52.1199 10.0145 52.1384 10.015 52.1574 10.0145Z" fill="#FF5000"/>
<path id="Vector_14" fill-rule="evenodd" clip-rule="evenodd" d="M52.1574 10.0145C57.3869 9.76544 62.2732 10.4981 66.2554 11.683C67.2503 11.9787 68.1984 12.3643 69.1193 12.7674C70.0302 13.166 70.9279 13.5838 71.7615 14.0467C73.4552 14.9865 74.8347 16.2764 75.9609 17.7174C76.5462 18.4674 77.0882 19.2238 77.5453 20.0809C78.8962 22.617 79.8148 25.6758 80.3539 29.0625C81.0646 33.5219 81.231 38.9541 81.0222 43.9078C80.9177 46.3662 80.6537 48.7826 80.4378 51.1936C80.2246 53.5746 79.9718 55.974 79.7695 58.3959C79.3605 63.3137 79.271 68.4203 78.3515 72.7172C78.1162 73.818 77.8085 74.8035 77.379 75.692C76.9455 76.5881 76.4765 77.3996 75.8212 78.0561C75.1439 78.7344 74.3443 79.1924 73.3744 79.558C72.8933 79.7393 72.4269 79.9336 71.9003 80.0584C71.3789 80.1818 70.8314 80.2611 70.2322 80.3361C66.8218 80.7652 62.9464 80.9484 59.0255 80.9484C57.7484 80.9484 56.4783 81.0594 55.2162 81.0594C53.938 81.0594 52.6285 81.0873 51.2953 81.0309C50.0251 80.9779 48.7195 80.9484 47.4294 80.9484C44.8527 80.9484 42.2869 80.815 39.8945 80.6143C38.6388 80.5088 37.4457 80.407 36.3343 80.2246C35.2236 80.0428 34.1992 79.7108 33.332 79.3076C31.506 78.459 30.481 76.9211 29.7164 75.0526C28.9482 73.1756 28.6515 70.8965 28.3822 68.5176C28.2484 67.3438 28.0964 66.1422 28.0205 64.9309C27.9416 63.6893 27.897 62.4445 27.8251 61.2043C27.6873 58.8193 27.3947 56.3479 27.1859 53.9744C26.7513 49.0287 26.2408 44.4545 26.24 39.2365C26.24 36.6873 26.4019 34.1594 26.6576 31.7879C26.9142 29.4131 27.3035 27.1561 27.8818 25.1414C28.4681 23.0953 29.1419 21.1727 30.1333 19.5244C31.6113 17.0678 33.5582 15.0522 36.1673 13.7402C37.021 13.3109 37.9031 12.8621 38.8371 12.4891C40.7105 11.7408 42.7619 11.1967 44.983 10.7649C47.1912 10.3356 49.5421 10.0141 52.1023 10.0141C52.1199 10.0145 52.1384 10.015 52.1574 10.0145Z" fill="#FF5000"/>
<path id="Vector_15" d="M74.8439 69.5082C74.6627 71.659 74.4174 73.7373 74.0072 75.6547C73.7715 76.7565 73.4652 77.741 73.0348 78.6295C72.81 79.094 72.5748 79.5356 72.3105 79.9442C72.6758 79.8299 73.0219 79.6899 73.3744 79.558C74.3443 79.1924 75.1441 78.7344 75.8213 78.0561C76.4766 77.3998 76.9455 76.5881 77.3791 75.692C77.8086 74.8035 78.1164 73.818 78.3516 72.7172C78.6268 71.4336 78.8256 70.0776 78.9834 68.6766C77.6506 68.6766 75.7625 69.0656 74.8439 69.5082Z" fill="#EFAD1B"/>
<path id="Vector_16" opacity="0.21" d="M75.8216 78.0562C76.4768 77.3999 76.9458 76.5882 77.3794 75.6921C77.8089 74.8037 78.1167 73.8181 78.3518 72.7173C79.2714 68.4205 79.3608 63.3138 79.7698 58.396C79.9722 55.9742 80.2249 53.5746 80.4382 51.1937C80.6538 48.7828 80.9181 46.3663 81.0226 43.9079C81.2313 38.9542 81.0649 33.522 80.3542 29.0626C79.8153 25.6759 78.8968 22.6169 77.5456 20.081C77.0886 19.224 76.5468 18.4675 75.9612 17.7175C74.8349 16.2765 73.4554 14.9867 71.7618 14.0468C70.9282 13.5839 70.0306 13.166 69.1196 12.7675C68.1985 12.3644 67.2507 11.9788 66.2558 11.6831C62.2735 10.4982 57.3872 9.76576 52.1577 10.0146C52.1388 10.0152 52.1202 10.0146 52.1028 10.0146C49.5425 10.0146 47.1915 10.3361 44.9835 10.7654C42.7624 11.1972 40.711 11.7413 38.8376 12.4896C37.9036 12.8626 37.0216 13.3115 36.1679 13.7408C34.8429 14.4074 33.689 15.2564 32.6802 16.2517C33.2661 15.9622 33.8675 15.6775 34.4933 15.4275C36.3663 14.6792 38.4177 14.1351 40.6388 13.7033C42.846 13.274 45.1974 12.9523 47.7571 12.9523C47.7761 12.9523 47.7946 12.9533 47.8136 12.9523C53.0431 12.7033 57.9294 13.4363 61.912 14.6208C62.9075 14.9167 63.8544 15.3023 64.7755 15.7054C65.686 16.1042 66.5837 16.5216 67.4177 16.9845C69.1104 17.9244 70.4909 19.2142 71.6163 20.655C72.2026 21.405 72.7446 22.1617 73.2017 23.0185C74.5528 25.5548 75.4712 28.6138 76.0103 32.0005C76.7204 36.4583 76.8858 41.891 76.677 46.8462C76.5735 49.3046 76.3095 51.7201 76.0936 54.131C75.88 56.5121 75.6276 58.9124 75.4259 61.3333C75.0169 66.2521 74.9268 71.3578 74.0079 75.6546C73.7722 76.7564 73.4659 77.741 73.0354 78.6294C72.8106 79.0939 72.5755 79.5355 72.3112 79.9441C72.6765 79.8298 73.0226 79.6898 73.3751 79.558C74.3446 79.1925 75.1442 78.7345 75.8216 78.0562Z" fill="black"/>
</g>
<path id="Vector_17" fill-rule="evenodd" clip-rule="evenodd" d="M47.8133 12.9521C53.0428 12.7031 57.9291 13.4361 61.9117 14.6207C62.9072 14.9166 63.8541 15.3021 64.7752 15.7053C65.6857 16.1041 66.5834 16.5215 67.4174 16.9844C69.1102 17.9242 70.4906 19.214 71.616 20.6549C72.2023 21.4049 72.7443 22.1615 73.2014 23.0183C74.5525 25.5547 75.4709 28.6137 76.01 32.0004C76.7201 36.4582 76.8855 41.8908 76.6768 46.8461C76.5732 49.3045 76.3092 51.7199 76.0934 54.1308C75.8797 56.5119 75.6273 58.9123 75.4256 61.3332C75.199 64.0572 75.0703 66.8385 74.8445 69.508C74.3 71.4515 73.9457 73.3869 73.5355 75.3043C73.2998 76.406 72.7414 77.2094 72.3107 78.098C71.8762 78.9941 71.618 79.658 70.9627 80.3133C70.2854 80.9916 69.7656 81.4226 68.7973 81.7883C68.3162 81.9705 68.1193 82.1613 67.5934 82.2851C67.0719 82.4096 66.4756 82.7773 65.8768 82.8517C64.868 82.9787 63.8299 83.5056 62.7504 83.591C60.1809 83.7943 57.442 83.8849 54.6809 83.8857C53.4043 83.8857 52.133 83.9961 50.8709 83.9971C49.5932 83.9971 48.2842 84.0256 46.951 83.9691C45.6803 83.9152 44.3748 83.8857 43.0852 83.8857C40.6418 83.8857 38.2082 83.7668 35.9221 83.5832C35.7973 83.5732 35.1457 82.9887 35.0217 82.9781C33.767 82.8726 33.1979 82.7244 32.0875 82.542C30.9746 82.3607 30.4539 82.1982 29.5869 81.7951C27.7613 80.9465 27.0047 79.5922 26.24 77.7246C25.4713 75.8467 24.7666 73.9174 24.4969 71.5394C24.424 70.8976 23.8857 70.1635 23.8172 69.5078C23.7605 68.9642 23.7105 68.417 23.6762 67.868C23.5973 66.6273 23.5527 65.3816 23.4809 64.1424C23.343 61.7564 23.0504 59.2861 22.8416 56.9115C22.4061 51.9658 21.8965 47.3926 21.8955 42.1742C21.8955 39.623 22.0568 37.0961 22.3131 34.724C22.5684 32.3506 22.9584 30.0939 23.5357 28.0789C24.123 26.0326 24.7975 24.1105 25.7883 22.4621C27.2668 20.0056 29.2137 17.9898 31.8229 16.6779C32.6764 16.2492 33.558 15.7998 34.4926 15.4267C36.3656 14.6785 38.417 14.1344 40.6381 13.7025C42.8453 13.2732 45.1967 12.9515 47.7564 12.9515C47.7758 12.9521 47.7941 12.9531 47.8133 12.9521Z" fill="#FF5000"/>
<g id="Group_17">
<path id="Vector_18" d="M29.2087 71.1979C27.8716 70.3623 26.0341 69.5256 23.8179 69.5082C23.8858 70.1645 23.9638 70.8149 24.0366 71.4561C24.3063 73.834 24.603 76.1131 25.3718 77.9912C26.1364 79.8586 27.1614 81.3967 28.987 82.2451C29.854 82.6482 30.878 82.9814 31.9907 83.1627C33.1011 83.3449 34.2942 83.4473 35.5489 83.5527C35.6718 83.5627 35.7981 83.5713 35.922 83.5813C35.555 80.1225 34.6669 77.5102 33.0466 75.1178C31.9878 73.5539 30.8515 72.2227 29.2087 71.1979Z" fill="#EFAD1B"/>
<path id="Vector_19" d="M67.5551 82.9961C68.0811 82.8723 68.5481 82.6779 69.0292 82.4957C69.9977 82.1301 70.7987 81.6721 71.476 80.9937C72.1313 80.3385 72.5993 79.5258 73.0338 78.6297C73.4643 77.7412 73.7706 76.7566 74.0063 75.6549C74.4165 73.7375 74.6616 71.6592 74.843 69.5094C72.6319 69.5289 70.7977 70.3644 69.4627 71.198C67.82 72.2228 66.6852 73.5541 65.6258 75.118C64.0041 77.5125 63.1159 80.1268 62.7493 83.5904C63.8282 83.5055 64.878 83.4012 65.887 83.2738C66.4858 83.1992 67.0336 83.1203 67.5551 82.9961Z" fill="#EFAD1B"/>
</g>
<g id="Group_18">
<g id="Group_19">
<g id="Group_20">
<path id="Vector_20" fill-rule="evenodd" clip-rule="evenodd" d="M34.7085 18.7527C33.662 18.1009 36.3737 16.4134 36.493 17.6214C36.5559 18.2515 35.3053 18.7078 34.7085 18.7527Z" fill="white"/>
<path id="Vector_21" fill-rule="evenodd" clip-rule="evenodd" d="M32.5588 18.7013C32.8161 18.6574 33.367 18.7064 33.4149 19.2291C33.4807 19.9119 32.3629 20.7166 31.9815 21.1193C31.5165 21.6097 30.8622 22.7422 30.1229 22.5597C29.0686 22.2998 30.3092 20.7752 30.7577 20.2687C30.9969 19.9998 31.2561 19.759 31.4688 19.541C31.8346 19.1685 32.0633 18.7861 32.5588 18.7013Z" fill="white"/>
</g>
<g id="Group_21">
<path id="Vector_22" fill-rule="evenodd" clip-rule="evenodd" d="M70.8968 29.8064C70.3308 29.3398 69.9269 28.1718 69.5991 27.0006C69.4577 26.498 69.245 25.6828 69.6796 25.5072C70.2011 25.2949 70.5901 26.1832 70.728 26.4996C71.1665 27.5076 71.4907 28.8117 71.4612 29.556C71.3814 29.7101 71.0966 29.8252 70.8968 29.8064Z" fill="white"/>
<path id="Vector_23" fill-rule="evenodd" clip-rule="evenodd" d="M68.2929 25.9945C67.3015 26.639 66.2765 24.2658 67.2146 23.9792C67.6226 23.8554 68.5466 24.8181 68.5951 25.4552C68.6111 25.6843 68.4642 25.882 68.2929 25.9945Z" fill="white"/>
<path id="Vector_24" fill-rule="evenodd" clip-rule="evenodd" d="M66.941 21.1404C66.6148 21.4045 66.0785 21.1162 65.6863 20.6519C65.3701 20.2785 64.9365 19.4213 65.458 19.2121C65.6882 19.1189 66.1482 19.2931 66.4843 19.6701C66.8785 20.1123 67.3595 20.7994 66.941 21.1404Z" fill="white"/>
</g>
</g>
<g id="Group_22">
<path id="Vector_25" d="M77.6523 33.882C77.2273 34.1293 76.4236 34.5763 76.1769 34.3506C76.0371 34.2217 76.2029 33.898 76.3613 33.6293C76.5506 33.3101 76.8414 32.9879 77.149 32.6468C77.6924 32.0426 78.2564 31.4179 78.4012 30.6521C78.475 30.2609 78.3447 30.0277 78.2238 29.9011C77.8492 29.5115 77.1016 29.6224 76.3088 29.7396C75.8508 29.8076 74.9967 29.9342 74.8713 29.7486C74.8574 29.7273 74.7363 29.5047 75.2644 28.597C75.3099 28.5191 75.3949 28.3949 75.4932 28.2521C76.0756 27.4029 76.6295 26.5189 76.4392 25.8656C76.3644 25.6119 76.1881 25.4205 75.9268 25.3092C75.5855 25.1638 75.1092 25.2713 74.5553 25.3951C74.1098 25.4949 73.4998 25.6316 73.3086 25.497C73.2941 25.4865 73.2592 25.4625 73.2476 25.3625C73.2213 25.1492 73.4564 24.7349 73.6133 24.4605C73.6732 24.3547 73.7285 24.2564 73.7705 24.1728C73.816 24.0812 73.8644 23.9884 73.9103 23.8959C74.1512 23.4261 74.3994 22.9396 74.5422 22.4111C74.758 21.6119 74.6375 21.067 74.1885 20.7933C73.6779 20.483 73.0053 20.7718 72.5133 20.983C72.4098 21.0275 72.3141 21.0689 72.2316 21.0982C72.1803 21.117 72.1182 21.142 72.0492 21.1697C71.6332 21.3383 71.3859 21.4008 71.3109 21.3547C71.2529 21.1949 71.5043 20.5791 71.5871 20.3767C71.6316 20.2681 71.6695 20.1742 71.6935 20.1058C71.724 20.0136 71.7725 19.9002 71.8244 19.775C72.0207 19.3078 72.2641 18.7254 72.1435 18.2845C72.0697 18.0166 71.9164 17.8836 71.8 17.8185C71.4828 17.6408 71.0953 17.7529 70.7851 17.8429L70.6777 17.8734C70.5269 17.9156 70.356 17.9828 70.1762 18.0537C69.825 18.1925 69.3451 18.382 69.0998 18.3091C68.8961 18.2488 68.8291 17.9486 68.891 17.3644C68.901 17.2668 68.9465 17.0732 68.9933 16.8681C69.1848 16.0474 69.4478 14.9234 68.9844 14.3777C68.9609 14.3498 68.9295 14.3215 68.8971 14.2933C68.8961 14.2879 68.8971 14.2841 68.8971 14.2781C68.8871 14.2718 68.8771 14.2699 68.8666 14.2646C68.8262 14.2431 68.7857 14.223 68.7482 14.2107C68.0695 13.9836 67.1234 14.6443 66.4316 15.1263C66.2594 15.247 66.0965 15.3605 66.0086 15.4066C65.4896 15.6806 65.1869 15.73 65.0541 15.5623C64.8963 15.3617 64.8943 14.8461 64.8924 14.4695C64.8914 14.2752 64.8914 14.0922 64.8738 13.9355L64.8619 13.8248C64.8305 13.5029 64.792 13.1023 64.5082 12.8736C64.4043 12.7894 64.2246 12.6963 63.9482 12.7273C63.4941 12.7789 63.0437 13.2211 62.682 13.5767C62.5855 13.6718 62.4976 13.758 62.4238 13.8213C62.3689 13.8689 62.2959 13.9388 62.2121 14.0201C62.0543 14.1722 61.5754 14.6347 61.406 14.64C61.3361 14.5877 61.3016 14.334 61.3037 13.8855C61.3037 13.8113 61.3047 13.7449 61.3027 13.6898C61.2998 13.6019 61.3017 13.498 61.3059 13.3849C61.3187 12.8502 61.3373 12.1181 60.8603 11.7597C60.4389 11.4435 59.8889 11.5343 59.2266 12.0314C58.7881 12.3601 58.4295 12.7711 58.0818 13.1685C58.0139 13.2472 57.9445 13.3252 57.8766 13.4019C57.8146 13.472 57.7437 13.5595 57.6678 13.6552C57.4709 13.9021 57.1744 14.2746 56.9666 14.3289C56.8687 14.3554 56.8332 14.3322 56.8187 14.3224C56.6225 14.1945 56.523 13.5775 56.4502 13.1269C56.3603 12.567 56.2824 12.0838 56.0217 11.8211C55.8213 11.6201 55.5781 11.5277 55.315 11.5523C54.6383 11.6183 54.0224 12.4593 53.4494 13.316C53.3531 13.4603 53.2701 13.5849 53.2143 13.6556C52.568 14.4832 52.3168 14.4539 52.2906 14.4486C52.0719 14.4009 51.873 13.5615 51.7656 13.1103C51.5803 12.3314 51.406 11.5959 50.9051 11.3924C50.7428 11.3267 50.4775 11.2927 50.142 11.5064C49.4846 11.9248 49.1141 12.6795 48.7545 13.4097C48.5521 13.822 48.3603 14.2115 48.1336 14.5054C47.9424 14.7525 47.7041 15.0267 47.5316 14.9441C47.208 14.7883 47.3678 13.7451 47.4357 13.2994C47.4578 13.1568 47.4762 13.0322 47.4851 12.9371C47.5027 12.7543 47.3687 12.5922 47.1855 12.5742C47.0012 12.5556 46.8404 12.6908 46.8238 12.8736C46.8148 12.959 46.7984 13.0709 46.7783 13.1992C46.6584 13.9853 46.4766 15.1736 47.2428 15.5429C47.9195 15.8691 48.4564 15.1736 48.6592 14.9115C48.9264 14.5646 49.1422 14.1265 49.351 13.7031C49.6691 13.0552 49.9988 12.3849 50.4982 12.0672C50.5916 12.0082 50.6422 12.0029 50.6551 12.0082C50.8379 12.0828 51.0137 12.822 51.1185 13.2638C51.3258 14.1365 51.5221 14.9607 52.1484 15.0978C52.6109 15.1992 53.1004 14.8806 53.7377 14.0654C53.8076 13.9752 53.8935 13.8474 54.0019 13.6853C54.2877 13.257 54.958 12.2549 55.3785 12.2138C55.425 12.2093 55.476 12.2158 55.5498 12.29C55.6607 12.4009 55.7371 12.8814 55.7945 13.2326C55.901 13.9002 56.0123 14.5904 56.4558 14.8793C56.5906 14.9672 56.8184 15.0549 57.1346 14.9722C57.5551 14.8625 57.9062 14.4228 58.1879 14.0697C58.2559 13.9845 58.3168 13.9064 58.3732 13.8441C58.4422 13.7654 58.5131 13.6861 58.582 13.606C58.9072 13.2345 59.2424 12.8498 59.6254 12.5631C60.0225 12.2648 60.3037 12.1732 60.4609 12.2914C60.6643 12.4439 60.6502 13.0004 60.6402 13.3685C60.6373 13.4959 60.6342 13.6138 60.6373 13.7127C60.6392 13.7607 60.6392 13.8183 60.6383 13.8826C60.6363 14.3476 60.6322 15.2131 61.326 15.2996C61.7541 15.3521 62.1875 14.9679 62.673 14.4984C62.7459 14.4283 62.809 14.367 62.8564 14.3265C62.9392 14.2549 63.0387 14.1582 63.148 14.0511C63.3902 13.8129 63.7963 13.414 64.023 13.3881C64.0695 13.3828 64.0879 13.3892 64.0898 13.3908C64.1568 13.4447 64.1863 13.7459 64.2002 13.8906L64.2131 14.0091C64.226 14.1302 64.2271 14.2963 64.2271 14.4722C64.2287 14.9982 64.2307 15.5943 64.5322 15.9752C65.0691 16.6539 66.0092 16.1584 66.3187 15.9953C66.4426 15.93 66.6055 15.8162 66.8113 15.672C67.1494 15.4365 68.059 14.6441 68.5121 14.8552C68.8248 15.3228 68.4393 16.3172 68.3457 16.7179C68.2887 16.9629 68.2443 17.157 68.2293 17.2955C68.1928 17.6429 68.0814 18.7006 68.91 18.947C69.3764 19.0853 69.9299 18.8662 70.4199 18.6726C70.5832 18.6082 70.7371 18.547 70.8555 18.5146L70.9699 18.4818C71.1098 18.4412 71.3994 18.3566 71.4744 18.399C71.4764 18.4004 71.4898 18.4158 71.5019 18.4603C71.5619 18.6806 71.3422 19.2056 71.2113 19.5193C71.1519 19.6601 71.099 19.7883 71.0635 19.8916C71.043 19.9513 71.01 20.0322 70.9721 20.1258C70.7164 20.7511 70.5205 21.2963 70.7273 21.6742C71.0654 22.2863 71.8676 21.9615 72.2992 21.7863C72.3586 21.7623 72.4115 21.7404 72.457 21.7242C72.5494 21.691 72.6588 21.6445 72.7752 21.5941C73.1139 21.449 73.6242 21.2295 73.842 21.3619C74.0107 21.464 74.0293 21.759 73.9004 22.2384C73.775 22.7 73.5437 23.1545 73.3189 23.5939C73.2705 23.6886 73.2226 23.7824 73.1752 23.8761C73.1377 23.9511 73.0883 24.0377 73.0344 24.1324C72.8115 24.525 72.5324 25.0134 72.5869 25.4461C72.6283 25.7701 72.7941 25.9486 72.9262 26.0412C73.3576 26.3451 74.0404 26.1926 74.7008 26.0447C75.0475 25.9668 75.5224 25.8603 75.6662 25.9215C75.7631 25.9621 75.7865 26.0076 75.8 26.0517C75.9183 26.4578 75.2355 27.4519 74.9449 27.8767C74.8346 28.0373 74.7482 28.1638 74.6896 28.2629C74.1697 29.1572 74.0549 29.7299 74.3211 30.1218C74.6812 30.6531 75.5183 30.5289 76.4064 30.3978C76.8559 30.3314 77.6066 30.2195 77.7445 30.3623C77.7545 30.3726 77.768 30.4215 77.7474 30.5293C77.6371 31.1117 77.1377 31.6664 76.6547 32.2015C76.3385 32.5527 76.0113 32.9148 75.7887 33.2924C75.6203 33.5775 75.1738 34.3334 75.7271 34.8412C76.2111 35.2838 76.9385 35.022 77.5601 34.6949C77.533 34.4209 77.5623 34.1396 77.6523 33.882Z" fill="white"/>
<path id="Vector_26" fill-rule="evenodd" clip-rule="evenodd" d="M77.5772 33.7171C78.1161 33.6546 78.5262 33.8685 78.5891 34.8355C78.6237 35.3744 78.3504 35.7636 78.3684 36.0388C78.3999 36.5244 78.735 37.0367 78.8284 37.5062C78.9073 37.8994 78.9012 38.4328 78.629 38.6505C78.2264 38.9728 77.5741 38.8439 77.3807 38.5007C77.1215 38.0388 77.1983 37.4904 77.2419 37.0837C77.2643 36.874 77.4061 36.3386 77.176 35.8921C77.0446 35.6388 76.8663 35.3992 76.7848 34.8582C76.6497 33.9789 77.1612 33.765 77.5772 33.7171Z" fill="#EFAD1B"/>
</g>
</g>
</g>
<g id="Group_23">
<path id="Vector_27" fill-rule="evenodd" clip-rule="evenodd" d="M47.1401 39.9435C50.3327 39.7912 53.5118 39.9201 56.3997 40.2492C57.8167 40.4111 59.2151 40.6059 60.4878 40.9449C61.7858 41.2885 62.9722 41.6307 64.0196 42.1676C65.6534 43.0053 66.9011 44.0486 67.829 45.5324C68.756 47.0158 69.2816 48.734 69.5251 50.9826C69.6815 52.4262 69.6794 53.9705 69.7474 55.5152C70.0306 61.9469 69.7948 68.1203 66.6052 71.3099C65.0608 72.8543 62.6054 73.7004 60.07 74.3133C58.0872 74.7933 56.0593 75.0435 53.7862 75.2033C51.5507 75.3601 49.1472 75.2871 46.8347 75.2871C45.3064 75.2871 43.8083 75.1213 42.3845 74.9529C39.5024 74.6107 36.9442 73.9849 34.7931 73.0064C33.6464 72.4846 32.6933 71.8951 31.9296 71.0869C31.1839 70.2988 30.5995 69.2648 30.1499 68.1121C29.2694 65.8515 29.0286 62.9961 28.9536 59.7699C28.9183 58.2346 28.9812 56.7961 29.0376 55.2922C29.096 53.7353 29.079 52.2109 29.2593 50.732C29.4366 49.2875 29.7872 48.0215 30.2327 46.9224C31.1323 44.7043 32.7771 43.1051 34.9317 42.0832C37.0655 41.0732 39.7546 40.5482 42.6071 40.2213C44.0355 40.0568 45.5134 40.0205 47.1401 39.9435Z" fill="#4D3D87"/>
<path id="Vector_28" opacity="0.21" fill-rule="evenodd" clip-rule="evenodd" d="M49.3654 49.1758C50.8632 49.1039 52.6408 49.1748 54.2037 49.1758C56.6236 49.1758 58.9146 49.2307 61.4056 49.2307C63.2168 49.2307 64.4029 49.3012 66.1336 49.342C66.6544 49.3549 66.9052 49.3699 67.2459 49.426C67.6025 49.485 67.9851 49.5953 68.0246 49.843C68.132 50.5197 66.9238 50.7336 66.2439 50.7881C65.3355 50.8619 64.3699 50.8439 63.5748 50.8439C61.7197 50.8439 59.9086 50.8164 58.2355 50.8164C56.4109 50.8164 54.6558 50.7494 53.007 50.8992C51.3578 51.0496 49.7753 51.2873 48.3918 51.7059C47.0861 52.101 45.7615 52.7277 44.2482 53.0125C40.9806 53.6293 37.6097 53.0164 34.5994 52.4281C33.9107 52.2943 33.0894 52.1889 32.3187 51.9842C31.7423 51.8303 30.6085 51.5377 30.5947 51.0101C30.5722 50.157 32.4896 50.0467 33.4033 49.9543C35.3697 49.7541 37.3605 49.6307 39.3824 49.5088C41.7548 49.3648 44.2908 49.2307 46.8066 49.2307C47.6367 49.2307 48.5068 49.2162 49.3654 49.1758Z" fill="black"/>
<path id="Vector_29" fill-rule="evenodd" clip-rule="evenodd" d="M67.5896 49.4094C68.1295 49.4524 68.4902 49.742 68.3642 50.7029C68.2937 51.2389 67.9502 51.568 67.9146 51.8412C67.8507 52.3236 68.0798 52.8916 68.081 53.3711C68.082 53.7713 67.9726 54.2947 67.6644 54.4555C67.206 54.6938 66.59 54.4404 66.4681 54.0658C66.3033 53.5635 66.4857 53.0395 66.607 52.6479C66.6699 52.4471 66.9136 51.9486 66.7734 51.4656C66.6939 51.1914 66.5656 50.9217 66.589 50.3748C66.6277 49.4869 67.1716 49.3754 67.5896 49.4094Z" fill="white"/>
<g id="Group_24">
<g id="Group_25">
<path id="Vector_30" d="M56.1096 42.0742C55.7215 41.6631 55.1202 41.4939 54.9233 40.9654C54.7241 40.4355 54.8245 39.4846 54.8514 38.7133C54.8848 37.7918 54.8604 36.9182 55.0821 36.1924C55.3997 35.1535 56.4196 34.7324 56.9311 33.9428C58.6579 31.2728 57.2977 27.6205 54.6629 27.226C52.4348 26.8924 50.6258 28.9646 50.4858 31.5207C50.3959 33.1881 51.2129 34.3295 52.1135 35.184C52.5176 35.5676 52.9786 35.7812 53.1928 36.3883C53.4331 37.0689 53.3631 37.9775 53.3571 38.8477C53.3491 39.7387 53.1364 40.6916 53.2202 41.5762C53.2772 42.191 53.6612 42.5617 53.7276 43.134C53.812 43.8791 53.6971 44.7119 53.5543 45.5738C54.0864 44.5434 54.6497 43.5195 55.253 42.8127C55.4653 42.5658 55.8268 42.3334 56.1096 42.0742ZM53.8065 34.251C52.378 34.1021 51.8706 32.6242 52.0024 31.2619C52.1493 29.7465 53.2981 28.2092 54.8483 28.793C57.1838 29.6742 56.3332 34.5143 53.8065 34.251Z" fill="#8F7ECE"/>
<path id="Vector_31" d="M56.4692 44.4427C55.8939 45.3398 55.3784 46.6599 54.9913 47.4426C54.5263 48.3826 53.9271 49.5927 53.2866 50.8785C53.855 50.8351 54.4355 50.8136 55.0269 50.8056C55.2456 49.8133 55.4644 48.8312 55.686 47.8793C55.9353 46.8107 56.314 45.5564 56.4692 44.4427Z" fill="#8F7ECE"/>
<path id="Vector_32" d="M64.4786 31.3019C64.2239 30.6178 63.5436 29.7953 62.6004 29.5152C60.8704 29.0012 59.5397 30.2476 58.7901 31.2463C57.2647 33.2767 56.2733 36.8578 56.3967 39.8037C56.4211 40.3842 56.6274 41.0857 56.4881 41.5478C56.4311 41.74 56.2854 41.9125 56.109 42.0742C55.8262 42.3334 55.4647 42.5658 55.253 42.8129C54.6497 43.5195 54.0862 44.5435 53.5544 45.574C53.4684 45.7398 53.3834 45.9062 53.2997 46.0711C52.7137 47.2238 52.1499 48.431 51.5526 49.6203C51.3018 50.1217 51.0436 50.6412 50.7874 51.1721C51.4286 51.0697 52.092 50.9879 52.7676 50.9228C52.8475 50.9148 52.9264 50.9068 53.0059 50.8994C53.0987 50.8914 53.1926 50.8853 53.286 50.8785C53.9264 49.593 54.5256 48.3826 54.9907 47.4426C55.3778 46.66 55.8932 45.3398 56.4686 44.4428C56.6924 44.0941 56.9247 43.8084 57.1624 43.6447C57.4491 43.4478 57.9901 43.4599 58.2012 43.1787C58.5249 42.3156 57.7192 41.0494 58.5143 40.542C58.7311 40.4041 58.9653 40.543 59.2196 40.532C60.7835 40.4662 61.7924 39.3039 62.8233 37.7435C64.0135 35.9428 65.2583 33.3949 64.4786 31.3019ZM55.6793 44.9521C55.6229 45.2924 55.3008 45.5221 54.9612 45.4656C54.6211 45.4088 54.3903 45.0865 54.4477 44.7453C54.5036 44.4053 54.8268 44.176 55.1659 44.2318C55.5071 44.2904 55.7374 44.6125 55.6793 44.9521ZM63.4288 33.3654C63.2418 34.8 62.4499 36.3037 61.5776 37.5355C60.7581 38.6939 59.3696 40.0344 58.1102 39.1314C56.7127 38.1269 58.7192 32.9111 60.2331 31.4232C60.6477 31.016 61.3284 30.5605 61.9047 30.6142C63.2088 30.7388 63.6016 32.0324 63.4288 33.3654Z" fill="#8F7ECE"/>
<path id="Vector_33" opacity="0.62" d="M64.4786 31.3019C64.2239 30.6178 63.5436 29.7953 62.6004 29.5152C60.8704 29.0012 59.5397 30.2476 58.7901 31.2463C57.2647 33.2767 56.2733 36.8578 56.3967 39.8037C56.4211 40.3842 56.6274 41.0857 56.4881 41.5478C56.4311 41.74 56.2854 41.9125 56.109 42.0742C55.8262 42.3334 55.4647 42.5658 55.253 42.8129C54.6497 43.5195 54.0862 44.5435 53.5544 45.574C53.4684 45.7398 53.3834 45.9062 53.2997 46.0711C52.7137 47.2238 52.1499 48.431 51.5526 49.6203C51.3018 50.1217 51.0436 50.6412 50.7874 51.1721C51.4286 51.0697 52.092 50.9879 52.7676 50.9228C52.8475 50.9148 52.9264 50.9068 53.0059 50.8994C53.0987 50.8914 53.1926 50.8853 53.286 50.8785C53.9264 49.593 54.5256 48.3826 54.9907 47.4426C55.3778 46.66 55.8932 45.3398 56.4686 44.4428C56.6924 44.0941 56.9247 43.8084 57.1624 43.6447C57.4491 43.4478 57.9901 43.4599 58.2012 43.1787C58.5249 42.3156 57.7192 41.0494 58.5143 40.542C58.7311 40.4041 58.9653 40.543 59.2196 40.532C60.7835 40.4662 61.7924 39.3039 62.8233 37.7435C64.0135 35.9428 65.2583 33.3949 64.4786 31.3019ZM55.6793 44.9521C55.6229 45.2924 55.3008 45.5221 54.9612 45.4656C54.6211 45.4088 54.3903 45.0865 54.4477 44.7453C54.5036 44.4053 54.8268 44.176 55.1659 44.2318C55.5071 44.2904 55.7374 44.6125 55.6793 44.9521ZM63.4288 33.3654C63.2418 34.8 62.4499 36.3037 61.5776 37.5355C60.7581 38.6939 59.3696 40.0344 58.1102 39.1314C56.7127 38.1269 58.7192 32.9111 60.2331 31.4232C60.6477 31.016 61.3284 30.5605 61.9047 30.6142C63.2088 30.7388 63.6016 32.0324 63.4288 33.3654Z" fill="white"/>
<path id="Vector_34" d="M54.9614 45.4656C55.3011 45.5221 55.6234 45.2924 55.6796 44.9521C55.7376 44.6125 55.5073 44.2904 55.1661 44.2318C54.8271 44.176 54.5038 44.4051 54.448 44.7453C54.3906 45.0865 54.6214 45.4088 54.9614 45.4656Z" fill="#4D3D87"/>
</g>
<g id="Group_26">
<g id="Group_27">
<path id="Vector_35" d="M61.6721 50.836L62.4672 47.7932L61.0156 47.475L60.1406 50.8254C60.6432 50.828 61.1537 50.8321 61.6721 50.836Z" fill="#B1BC00"/>
<path id="Vector_36" d="M60.4922 47.3606L59.712 47.1902C59.3768 48.3955 59.0627 49.6061 58.7581 50.8174C59.0336 50.8184 59.3069 50.8193 59.5887 50.8213L60.4922 47.3606Z" fill="#B1BC00"/>
<path id="Vector_37" d="M63.8325 48.1084C63.8335 48.1029 63.8306 48.0978 63.8325 48.092L62.9894 47.9066L62.2222 50.839C62.5228 50.841 62.8284 50.842 63.1331 50.842C63.3056 50.1828 63.4708 49.5285 63.6136 48.8951C63.6747 48.6197 63.8191 48.34 63.8325 48.1084Z" fill="#B1BC00"/>
</g>
<path id="Vector_38" d="M63.7892 47.7717C63.7821 47.6553 63.786 47.5409 63.7882 47.4327C63.8157 46.2848 63.8106 45.2729 63.6843 44.1217L61.9491 43.5727C62.0149 43.4922 62.0819 43.4084 62.1538 43.3235C61.4296 44.1782 60.994 44.8608 60.5187 45.6325C60.271 46.0266 59.9696 46.4086 59.8009 46.7913C59.753 46.8997 59.753 47.0405 59.7145 47.1825C59.7126 47.1844 59.7126 47.1874 59.7126 47.1905L60.4929 47.3608L59.5894 50.8215C59.7706 50.8225 59.9569 50.8235 60.1413 50.8256L61.0163 47.4752L62.4679 47.7934L61.6728 50.8362C61.8571 50.8372 62.0384 50.8381 62.2231 50.8391L62.9903 47.9067L63.8335 48.092C63.8331 47.9936 63.7946 47.8782 63.7892 47.7717Z" fill="#EFAD1B"/>
<path id="Vector_39" d="M63.6837 44.1215C63.6796 44.0859 63.6766 44.0525 63.6731 44.016C63.6317 43.6555 63.5637 42.8482 63.1981 42.665C62.929 42.5313 62.5124 42.9008 62.1532 43.3232C62.0813 43.4082 62.0143 43.492 61.9485 43.5725L63.6837 44.1215Z" fill="white"/>
</g>
<g id="Group_28">
<path id="Vector_40" d="M45.9848 31.1131C45.9938 30.6238 45.6022 30.217 45.1098 30.2096C44.6182 30.1998 44.2133 30.5904 44.2043 31.0821L44.1868 32.0303L45.9659 32.0557L45.9848 31.1131Z" fill="#EFAD1B"/>
<path id="Vector_41" d="M42.9256 43.1471L42.7219 53.2129C43.2323 53.1715 43.7418 53.1084 44.2483 53.0125C45.0149 52.8676 45.7333 52.6364 46.425 52.3906L46.6124 43.2014L42.9256 43.1471Z" fill="#B1BC00"/>
<path id="Vector_42" d="M42.925 43.1461L46.6126 43.2006L46.6251 42.1281L42.942 42.0752L42.925 43.1461Z" fill="white"/>
<g id="Group_29">
<path id="Vector_43" d="M45.9564 32.5942L44.1757 32.5678L43.0798 32.5518L43.0878 32.0175H43.0868L42.9429 42.0753L46.6251 42.1292L46.7649 32.6057L45.9564 32.5942ZM45.4663 38.1182C44.8819 38.0913 44.8249 36.8212 45.288 36.5979C45.9573 36.2702 46.236 38.1518 45.4663 38.1182ZM45.7226 35.7153C44.9284 35.8337 45.0882 34.3567 45.363 33.9346C45.381 33.9083 45.4054 33.8981 45.4319 33.8798C46.1956 33.3675 46.4003 35.6149 45.7226 35.7153Z" fill="#B1BC00"/>
<path id="Vector_44" d="M45.9663 32.0559V32.0574L44.1872 32.0319L43.0881 32.0164L43.0803 32.5508L44.176 32.5668L45.9567 32.5934L46.7653 32.6049L47.2717 32.6127L47.128 42.6942L47.8942 42.7067L48.0401 32.6238L48.0465 32.0869L45.9663 32.0559Z" fill="white"/>
<g id="Group_30">
<path id="Vector_45" d="M45.4311 33.8789C45.4047 33.8973 45.3801 33.9074 45.3621 33.9338C45.0873 34.3559 44.9275 35.8328 45.7217 35.7145C46.3994 35.6141 46.1947 33.3666 45.4311 33.8789Z" fill="white"/>
<path id="Vector_46" d="M45.2881 36.5971C44.825 36.8204 44.882 38.0905 45.4664 38.1174C46.2361 38.151 45.9574 36.2694 45.2881 36.5971Z" fill="white"/>
</g>
</g>
</g>
<g id="Group_31">
<path id="Vector_47" d="M42.8651 51.7289L41.4571 51.9742C41.3558 51.9918 41.2618 51.9258 41.2444 51.8264C41.2265 51.7269 41.2944 51.631 41.3919 51.6127L42.8015 51.3684C42.8765 51.3543 42.9483 51.3889 42.9868 51.4467L42.6712 49.6271C42.6616 49.7035 42.6052 49.7699 42.5237 49.7834L41.1142 50.0316C41.0157 50.0486 40.9214 49.9816 40.9024 49.8822C40.8854 49.7824 40.9519 49.6869 41.0532 49.6689L42.4603 49.4217C42.5421 49.4092 42.6181 49.4512 42.6536 49.5221L42.3325 47.6641C42.3296 47.7484 42.271 47.8244 42.1827 47.8404L40.7757 48.0867C40.6759 48.1057 40.5804 48.0383 40.563 47.9389C40.546 47.8385 40.612 47.7435 40.7112 47.7262L42.1202 47.4789C42.2081 47.4639 42.2892 47.5164 42.3196 47.5963L41.9915 45.7004C41.9995 45.7928 41.9386 45.8797 41.8437 45.8941L40.4347 46.1428C40.3343 46.1602 40.2403 46.0943 40.223 45.9939C40.206 45.8941 40.2714 45.8006 40.3718 45.7822L41.7788 45.5346C41.8743 45.518 41.962 45.5791 41.9866 45.6709L41.654 43.7414C41.6685 43.8398 41.6036 43.9342 41.5052 43.9521L40.0956 44.1994C39.9962 44.2174 39.9019 44.149 39.8829 44.0476C39.8653 43.9502 39.9333 43.8549 40.0308 43.8369L41.4407 43.5916C41.5401 43.5726 41.6341 43.6391 41.653 43.7385L38.5634 25.8896L31.2485 27.1551L35.6579 52.6314C38.0853 53.0855 40.7017 53.4611 43.2819 53.1564L43.0112 51.5896C42.994 51.659 42.9392 51.7141 42.8651 51.7289ZM32.8882 27.7949C33.2093 27.7979 33.2153 28.1705 33.3042 28.5641C33.3966 28.9779 33.4999 29.2037 33.2304 29.3805C32.4628 29.8814 31.9218 27.7816 32.8882 27.7949ZM34.1919 32.8609C33.6825 33.1602 33.4222 32.6326 33.2665 31.9574C33.1347 31.3881 32.9683 29.975 33.7101 30.2393C33.8688 30.2973 34.1575 30.9422 34.2845 31.2887C34.5319 31.9654 34.5624 32.6447 34.1919 32.8609ZM35.3671 29.658C35.3427 29.8105 35.2581 29.9098 35.1419 29.9807C34.4106 30.4111 34.2454 28.773 34.8017 28.6449C35.1298 28.5686 35.4235 29.2898 35.3671 29.658ZM37.1577 28.5033C37.1392 28.4049 37.2062 28.3094 37.3056 28.292L38.7126 28.0445C38.8146 28.0266 38.9089 28.0945 38.9265 28.1939C38.9425 28.2936 38.8765 28.3887 38.7776 28.4049L37.3681 28.6521C37.271 28.6689 37.1747 28.6031 37.1577 28.5033ZM37.4978 30.4467C37.4817 30.3473 37.5458 30.2537 37.6476 30.235L39.0546 29.9881C39.155 29.9699 39.2509 30.0385 39.2685 30.1375C39.2845 30.2371 39.2181 30.332 39.1187 30.348L37.7106 30.5957C37.6093 30.6127 37.5159 30.5477 37.4978 30.4467ZM37.8386 32.391C37.821 32.2916 37.888 32.1967 37.9864 32.1793L39.396 31.9311C39.4954 31.915 39.5897 31.9824 39.6077 32.0814C39.6241 32.1803 39.5603 32.2752 39.4589 32.2926L38.0519 32.5389C37.9513 32.5584 37.8554 32.4908 37.8386 32.391ZM38.1786 34.3344C38.1622 34.2346 38.2271 34.1381 38.3294 34.1211L39.7355 33.8738C39.8364 33.8574 39.9317 33.9223 39.9481 34.0248C39.9671 34.1232 39.9003 34.2182 39.7993 34.2361L38.3903 34.4838C38.2919 34.5004 38.1972 34.4328 38.1786 34.3344ZM38.5198 36.277C38.5028 36.1775 38.5708 36.0822 38.6687 36.0631L40.0776 35.8193C40.1761 35.8014 40.271 35.8672 40.2894 35.9646C40.3077 36.066 40.2399 36.1609 40.1405 36.1795L38.7325 36.4246C38.6327 36.4428 38.5372 36.3768 38.5198 36.277ZM38.8605 38.2189C38.8438 38.1205 38.9099 38.0236 39.0112 38.0072L40.4177 37.7615C40.5161 37.7445 40.6134 37.8096 40.6315 37.9103C40.646 38.0113 40.5821 38.1047 40.4827 38.1207L39.0712 38.3689C38.9728 38.3861 38.8784 38.3182 38.8605 38.2189ZM39.2036 40.1613C39.1841 40.0629 39.2521 39.9695 39.3505 39.9496L40.7595 39.7043C40.8589 39.6863 40.9528 39.7527 40.9712 39.8521C40.9882 39.9506 40.9222 40.0465 40.8233 40.0648L39.4134 40.3111C39.313 40.3291 39.2181 40.2611 39.2036 40.1613ZM39.5427 42.1057C39.5257 42.0072 39.5917 41.9123 39.6925 41.8939L41.0995 41.6473C41.1989 41.6297 41.2942 41.6976 41.3122 41.7951C41.3276 41.8971 41.2638 41.9904 41.1644 42.0084L39.7544 42.2566C39.6546 42.273 39.5601 42.2051 39.5427 42.1057Z" fill="#EFAD1B"/>
<g id="Group_32">
<path id="Vector_48" d="M38.9259 28.194C38.9083 28.0946 38.814 28.0266 38.712 28.0446L37.305 28.292C37.2056 28.3092 37.1386 28.4049 37.1571 28.5034C37.1741 28.603 37.2704 28.669 37.3675 28.6522L38.7771 28.4049C38.8761 28.3887 38.9419 28.2936 38.9259 28.194Z" fill="white"/>
<path id="Vector_49" d="M39.2678 30.1372C39.2502 30.0384 39.1543 29.9696 39.0539 29.9878L37.6469 30.2347C37.5449 30.2534 37.4811 30.347 37.4971 30.4464C37.515 30.5475 37.6084 30.6124 37.7098 30.5952L39.1178 30.3475C39.2174 30.3317 39.2838 30.2368 39.2678 30.1372Z" fill="white"/>
<path id="Vector_50" d="M39.6069 32.0815C39.5889 31.9825 39.4946 31.9151 39.3952 31.9311L37.9856 32.1794C37.8872 32.1967 37.8202 32.2917 37.8378 32.3911C37.8548 32.4909 37.9507 32.5585 38.051 32.5389L39.4581 32.2926C39.5594 32.2753 39.6235 32.1803 39.6069 32.0815Z" fill="white"/>
<path id="Vector_51" d="M39.9476 34.0248C39.9312 33.9225 39.8357 33.8575 39.735 33.8739L38.3289 34.1211C38.2266 34.1381 38.1615 34.2346 38.1781 34.3344C38.1967 34.4328 38.2914 34.5002 38.3898 34.4838L39.7988 34.2362C39.8998 34.2182 39.9668 34.1233 39.9476 34.0248Z" fill="white"/>
<path id="Vector_52" d="M40.2895 35.9647C40.2711 35.8672 40.176 35.8014 40.0778 35.8194L38.6688 36.0631C38.5709 36.0821 38.5029 36.1776 38.5199 36.277C38.5375 36.3768 38.6328 36.4428 38.7328 36.4248L40.1408 36.1797C40.2401 36.161 40.308 36.0662 40.2895 35.9647Z" fill="white"/>
<path id="Vector_53" d="M40.6316 37.9102C40.6136 37.8094 40.5161 37.7444 40.4177 37.7614L39.0112 38.0071C38.9099 38.0235 38.8439 38.1205 38.8605 38.2188C38.8784 38.3182 38.9728 38.386 39.0712 38.3686L40.4827 38.1203C40.5821 38.1045 40.646 38.0112 40.6316 37.9102Z" fill="white"/>
<path id="Vector_54" d="M40.9706 39.8522C40.9521 39.7528 40.8583 39.6864 40.7589 39.7044L39.3499 39.9497C39.2515 39.9696 39.1835 40.0629 39.2031 40.1614C39.2175 40.2612 39.3124 40.3292 39.4128 40.3112L40.8228 40.0649C40.9216 40.0465 40.9876 39.9506 40.9706 39.8522Z" fill="white"/>
<path id="Vector_55" d="M41.311 41.795C41.293 41.6975 41.1975 41.6297 41.0983 41.6471L39.6913 41.8938C39.5905 41.9122 39.5245 42.0073 39.5415 42.1055C39.5591 42.2049 39.6534 42.2727 39.7532 42.2563L41.1632 42.0081C41.2626 41.9905 41.3266 41.8969 41.311 41.795Z" fill="white"/>
<path id="Vector_56" d="M41.44 43.5916L40.03 43.8369C39.9326 43.8549 39.8646 43.9504 39.8822 44.0477C39.9011 44.149 39.9956 44.2176 40.0949 44.1994L41.5044 43.9522C41.6029 43.9342 41.6677 43.8399 41.6533 43.7414L41.6523 43.7385C41.6333 43.6391 41.5394 43.5727 41.44 43.5916Z" fill="white"/>
<path id="Vector_57" d="M41.7773 45.5346L40.3703 45.7822C40.2699 45.8008 40.2044 45.8941 40.2214 45.994C40.2388 46.0943 40.3328 46.1604 40.4332 46.1428L41.8421 45.8941C41.9371 45.8797 41.998 45.7928 41.99 45.7004L41.9849 45.6709C41.9607 45.5791 41.8728 45.518 41.7773 45.5346Z" fill="white"/>
<path id="Vector_58" d="M42.1204 47.479L40.7115 47.7262C40.612 47.7438 40.5462 47.8387 40.5632 47.9389C40.5806 48.0383 40.6761 48.1057 40.7759 48.0868L42.1829 47.8405C42.2712 47.8245 42.3298 47.7487 42.3327 47.6641L42.3199 47.5961C42.2892 47.5165 42.2083 47.4641 42.1204 47.479Z" fill="white"/>
<path id="Vector_59" d="M42.4601 49.4219L41.0531 49.6692C40.9517 49.6872 40.8853 49.7825 40.9023 49.8825C40.9213 49.9819 41.0156 50.0489 41.114 50.0319L42.5236 49.7837C42.605 49.7702 42.6615 49.7038 42.6711 49.6274L42.6535 49.5225C42.6179 49.4514 42.5422 49.4094 42.4601 49.4219Z" fill="white"/>
<path id="Vector_60" d="M42.8014 51.3684L41.3918 51.6127C41.2943 51.6313 41.2264 51.7272 41.2443 51.8264C41.2619 51.9258 41.3557 51.9918 41.457 51.9743L42.865 51.7289C42.9391 51.7139 42.994 51.659 43.0109 51.5895L42.9865 51.4467C42.9482 51.3889 42.8762 51.3545 42.8014 51.3684Z" fill="white"/>
</g>
<g id="Group_33">
<path id="Vector_61" d="M33.7095 30.2393C32.9677 29.975 33.1342 31.3881 33.266 31.9575C33.4218 32.6327 33.682 33.1602 34.1914 32.861C34.5621 32.6448 34.5316 31.9655 34.2838 31.2887C34.157 30.9424 33.8683 30.2973 33.7095 30.2393Z" fill="white"/>
<path id="Vector_62" d="M34.801 28.6447C34.2445 28.7729 34.41 30.4112 35.1412 29.9805C35.2576 29.9096 35.342 29.8104 35.3664 29.6578C35.4228 29.2899 35.1291 28.5686 34.801 28.6447Z" fill="white"/>
<path id="Vector_63" d="M33.304 28.5641C33.2151 28.1706 33.209 27.7979 32.8879 27.795C31.9215 27.7817 32.4624 29.8815 33.2301 29.3805C33.4997 29.2038 33.3961 28.978 33.304 28.5641Z" fill="white"/>
</g>
</g>
</g>
</g>
</g>
</g>
</g>
<g id="Group_34">
<g id="Group_35">
<path id="Vector_64" d="M45.1968 87.4804L49.5642 88.7976L52.3933 89.4794L49.6597 88.4824L45.2923 87.1638L45.1968 87.4804Z" fill="#8F7ECE"/>
<g id="Group_36">
<path id="Vector_65" d="M47.016 86.7363L43.209 85.5885L42.5947 87.6254L46.3861 88.7691C46.5064 89.299 46.8137 89.8105 47.2643 90.2365L48.5549 86.0199C47.948 86.1205 47.4111 86.3687 47.016 86.7363Z" fill="#FF5000"/>
<path id="Vector_66" d="M43.2252 84.6506C43.395 84.7016 43.4905 84.8799 43.4391 85.0486L42.494 88.1799C42.444 88.3486 42.2643 88.4441 42.0959 88.3926C41.9276 88.3416 41.8317 88.1633 41.8821 87.9945L42.827 84.8642C42.8788 84.6945 43.0569 84.599 43.2252 84.6506Z" fill="#FF5000"/>
</g>
</g>
<g id="Group_37">
<g id="Group_38">
<path id="Vector_67" fill-rule="evenodd" clip-rule="evenodd" d="M8.11944 84.1281C8.06905 84.1015 8.08741 84.0701 8.11144 84.0361C9.00792 83.7189 9.89366 83.2914 10.7905 82.9783C11.304 83.7191 12.1411 83.6896 12.6896 83.0482C13.3198 83.2176 15.8013 83.8385 16.4357 84.0541C15.9116 84.8726 14.9708 85.2289 14.2829 85.8986C12.8439 85.4428 9.56495 84.6689 8.11944 84.1281Z" fill="#8F7ECE"/>
<path id="Vector_68" opacity="0.62" fill-rule="evenodd" clip-rule="evenodd" d="M8.11944 84.1281C8.06905 84.1015 8.08741 84.0701 8.11144 84.0361C9.00792 83.7189 9.89366 83.2914 10.7905 82.9783C11.304 83.7191 12.1411 83.6896 12.6896 83.0482C13.3198 83.2176 15.8013 83.8385 16.4357 84.0541C15.9116 84.8726 14.9708 85.2289 14.2829 85.8986C12.8439 85.4428 9.56495 84.6689 8.11944 84.1281Z" fill="white"/>
</g>
<g id="Group_39">
<path id="Vector_69" fill-rule="evenodd" clip-rule="evenodd" d="M12.1595 84.5222C12.7005 83.3824 14.3341 82.5967 15.2597 82.5463C16.3284 82.4883 17.6767 83.0697 18.9202 83.4818C20.2298 83.9164 21.4191 84.256 22.5564 84.6131C24.9782 85.3709 27.1906 86.0162 29.8302 86.8742C32.424 87.7187 34.9228 88.6058 37.1169 89.2916C38.2632 89.6502 39.4654 90.1101 40.7679 90.5773C41.8929 90.9802 43.0663 91.3705 44.0532 92.0798C44.1943 92.1812 44.2253 92.763 44.3581 92.8783C46.0294 94.3308 46.5579 96.016 46.7269 97.7861C46.7859 98.3959 46.8005 98.9966 46.4583 99.3978C45.9853 99.9501 45.3486 99.5627 44.6513 99.3978C43.8902 99.2177 43.1255 99.4279 42.4349 99.1882C41.6181 98.9048 40.8152 98.5912 39.9421 98.274C38.9228 97.9035 37.9921 97.6896 37.1351 96.8394C36.5706 96.2785 36.4128 95.5818 35.8124 95.0064C34.9818 94.2062 33.8435 93.898 32.8445 93.506C31.8136 93.1029 30.8986 92.7994 29.9161 92.4711C25.8749 91.1179 22.2738 90.0078 18.264 88.5957C17.3505 88.2746 16.4599 88.0043 15.3351 87.5597C14.54 87.2445 13.0115 86.7586 12.4087 86.0959C12.1027 85.759 11.9103 85.0447 12.1595 84.5222Z" fill="#FF5000"/>
<path id="Vector_70" d="M46.8298 99.6361C47.1719 99.2351 47.1589 98.3934 47.0999 97.7836C46.9311 96.0135 46.136 93.8568 44.4647 92.4043C44.3583 92.3115 44.2469 92.2269 44.1346 92.1432C43.379 92.6695 43.4104 93.6035 43.2241 94.2994C42.7866 95.9342 42.3389 97.7383 42.436 99.1867C43.1268 99.4269 43.8264 99.6457 44.5878 99.826C45.2848 99.9908 46.3567 100.188 46.8298 99.6361Z" fill="#EFAD1B"/>
<g id="Group_40">
<g id="Group_41">
<path id="Vector_71" fill-rule="evenodd" clip-rule="evenodd" d="M13.3711 85.0416C13.3117 84.6285 14.3516 84.0027 14.8311 83.9062C15.6078 83.7494 17.1971 84.3588 18.1611 84.6355C21.4865 85.5875 24.9119 86.6613 28.226 87.6722C31.8117 88.766 34.718 89.6166 38.3092 90.9418C39.3791 91.3359 40.9643 91.8918 41.6602 92.8359C42.0752 93.4004 42.3174 94.9976 41.7066 95.6728C40.9594 96.4974 39.1732 95.9041 38.2893 95.3013C37.8018 94.9681 37.4111 94.4777 36.9412 94.0931C35.9906 93.3138 34.9539 92.9199 33.9318 92.5582C31.0988 91.5547 27.9123 90.5293 25.0752 89.5349C23.0768 88.8351 21.0945 88.1299 19.1355 87.3937C18.1695 87.0301 17.1676 86.709 16.1707 86.4004C15.2127 86.1029 14.059 85.9107 13.3711 85.0416Z" fill="#8F7ECE"/>
<path id="Vector_72" opacity="0.62" fill-rule="evenodd" clip-rule="evenodd" d="M13.3711 85.0416C13.3117 84.6285 14.3516 84.0027 14.8311 83.9062C15.6078 83.7494 17.1971 84.3588 18.1611 84.6355C21.4865 85.5875 24.9119 86.6613 28.226 87.6722C31.8117 88.766 34.718 89.6166 38.3092 90.9418C39.3791 91.3359 40.9643 91.8918 41.6602 92.8359C42.0752 93.4004 42.3174 94.9976 41.7066 95.6728C40.9594 96.4974 39.1732 95.9041 38.2893 95.3013C37.8018 94.9681 37.4111 94.4777 36.9412 94.0931C35.9906 93.3138 34.9539 92.9199 33.9318 92.5582C31.0988 91.5547 27.9123 90.5293 25.0752 89.5349C23.0768 88.8351 21.0945 88.1299 19.1355 87.3937C18.1695 87.0301 17.1676 86.709 16.1707 86.4004C15.2127 86.1029 14.059 85.9107 13.3711 85.0416Z" fill="white"/>
</g>
<g id="Group_42">
<path id="Vector_73" d="M17.2564 84.3559C17.14 84.3193 17.0226 84.283 16.9039 84.2465C16.1566 84.7684 15.4144 85.3568 14.6716 85.9361C14.7929 85.9836 14.9148 86.026 15.0392 86.0664C15.4222 85.7871 15.8048 85.4875 16.1849 85.1924C16.5425 84.9143 16.9072 84.6406 17.2564 84.3559Z" fill="#8F7ECE"/>
<path id="Vector_74" d="M20.2523 85.2455C20.1318 85.3385 20.0221 85.4582 19.9121 85.5381C19.3053 85.9785 18.6145 86.4881 18.0176 86.9965C18.1535 87.0418 18.2893 87.0869 18.4246 87.1353C19.1148 86.6014 19.7912 85.9147 20.476 85.3113C20.4012 85.2889 20.3271 85.2674 20.2523 85.2455Z" fill="#8F7ECE"/>
<path id="Vector_75" d="M24.2246 86.4447C23.3811 87.0191 22.4664 87.6478 21.6553 88.3197C21.7551 88.3562 21.8545 88.3926 21.9551 88.4281C22.8076 87.8392 23.6553 87.2004 24.4994 86.5297C24.4078 86.5021 24.316 86.473 24.2246 86.4447Z" fill="#8F7ECE"/>
<path id="Vector_76" d="M27.4172 87.4261C26.59 88.0371 25.7479 88.7693 25.0078 89.5115C25.0309 89.5189 25.0531 89.5279 25.0746 89.5349C25.1365 89.5574 25.202 89.5795 25.266 89.601C26.0672 88.9527 26.9117 88.2314 27.6725 87.5031C27.5875 87.4775 27.5025 87.4515 27.4172 87.4261Z" fill="#8F7ECE"/>
<path id="Vector_77" d="M30.7733 88.4481C29.9327 89.0469 29.1032 89.774 28.2844 90.6328C28.3788 90.6643 28.4723 90.6957 28.5672 90.7272C29.3823 90.0264 30.2305 89.2342 31.0131 88.5221C30.9333 88.4975 30.8534 88.4734 30.7733 88.4481Z" fill="#8F7ECE"/>
<path id="Vector_78" d="M34.0815 89.4824C33.2774 90.1062 32.2614 90.9055 31.4634 91.7047C31.5677 91.74 31.6712 91.7756 31.7751 91.81C32.6151 91.0857 33.4483 90.2701 34.2896 89.5498C34.2204 89.5279 34.1505 89.5045 34.0815 89.4824Z" fill="#8F7ECE"/>
<path id="Vector_79" d="M37.2166 90.5447C37.1178 90.5103 37.0193 90.4747 36.9219 90.4413C36.0742 91.1441 35.2172 91.9333 34.3955 92.7265C34.5273 92.7749 34.6592 92.8259 34.79 92.8783C34.8344 92.8337 34.8779 92.7894 34.9215 92.7468C35.6559 92.0162 36.4568 91.2384 37.2166 90.5447Z" fill="#8F7ECE"/>
<path id="Vector_80" d="M39.9403 91.5941C39.8633 91.5586 39.7854 91.5232 39.7075 91.4887C39.4897 91.7254 39.27 91.9666 39.0377 92.2029C38.402 92.8488 37.6858 93.5539 37.1633 94.2873C37.2442 94.3621 37.3252 94.4391 37.4045 94.516C38.2561 93.6221 39.0946 92.5666 39.9403 91.5941Z" fill="#8F7ECE"/>
<path id="Vector_81" d="M40.1521 96.0375C40.2425 96.0519 40.3324 96.0619 40.4212 96.0689C40.9677 95.4551 41.5166 94.7633 42.0585 94.1219C42.0525 94.048 42.0441 93.9762 42.0332 93.9041C41.4052 94.6035 40.781 95.3508 40.1521 96.0375Z" fill="#8F7ECE"/>
</g>
</g>
<g id="Group_43">
<path id="Vector_82" fill-rule="evenodd" clip-rule="evenodd" d="M40.7787 97.3595C41.2822 97.1831 42.1611 97.3724 43.0142 97.6097C43.3789 97.7126 43.9672 97.8859 43.9127 98.224C43.8478 98.6275 43.149 98.5351 42.8988 98.5017C42.1076 98.3943 41.1726 98.1046 40.7211 97.805C40.6562 97.6966 40.6927 97.4769 40.7787 97.3595Z" fill="white"/>
<path id="Vector_83" fill-rule="evenodd" clip-rule="evenodd" d="M43.1939 96.7716C43.1664 95.912 45.0295 96.1683 44.8541 96.8611C44.7781 97.1607 43.8316 97.3726 43.4156 97.1627C43.267 97.0869 43.199 96.9199 43.1939 96.7716Z" fill="white"/>
</g>
</g>
</g>
<path id="Vector_84" d="M14.3472 97.0453C14.6808 98.0388 15.7603 98.5736 16.7517 98.2396L21.3019 96.7113C21.4418 96.6658 21.5177 96.5125 21.4697 96.3736C21.4232 96.2322 21.2715 96.1568 21.1306 96.2048L16.5801 97.7332C15.8687 97.9718 15.0951 97.5873 14.8568 96.8761C14.617 96.1644 15.0017 95.3892 15.7129 95.1515L20.9697 93.3849C21.4677 93.2181 22.0076 93.4863 22.175 93.9847C22.3408 94.4816 22.0736 95.0226 21.5756 95.1878L17.2312 96.6484C16.9386 96.7478 16.6195 96.5884 16.5211 96.2957C16.4222 96.0019 16.582 95.6837 16.8736 95.5839L20.0892 94.505C20.2291 94.4585 20.3051 94.3068 20.2566 94.166C20.2101 94.0252 20.0593 93.9502 19.9185 93.9976L16.7035 95.0765C16.131 95.2709 15.8205 95.8927 16.0136 96.4671C16.2054 97.0394 16.8299 97.3492 17.4021 97.158L21.7465 95.6986C22.5236 95.4373 22.9437 94.5912 22.6824 93.8146C22.4211 93.0365 21.5765 92.6154 20.8004 92.8765L15.5424 94.6431C14.5502 94.9759 14.0152 96.0529 14.3472 97.0453Z" fill="#B1BC00"/>
<g id="Group_44">
<path id="Vector_85" d="M76.7982 91.6072C76.7099 91.6337 76.618 91.6316 76.534 91.6052C76.4041 91.5619 76.2937 91.4584 76.2492 91.3175L74.3207 85.0632C74.2762 84.9214 74.3101 84.7736 74.3935 84.6652C74.448 84.5963 74.523 84.5414 74.6103 84.5144L88.043 80.8334C88.2767 80.7605 88.5209 80.8924 88.5928 81.125L90.2611 86.5357C90.333 86.767 90.2041 87.0142 89.9715 87.0851L77.3023 91.4341L76.7982 91.6072Z" fill="#4D3D87"/>
<path id="Vector_86" d="M68.4162 91.4148L62.988 93.089L61.9011 91.9818L61.2947 91.3629L67.7839 89.3625L68.4162 91.4148Z" fill="#B1BC00"/>
<path id="Vector_87" d="M72.0645 94.0775L69.2174 94.9557C68.9268 95.0451 68.6151 94.8828 68.5256 94.589L67.8643 92.4498C67.7758 92.1582 67.4631 91.9912 67.1715 92.0832L65.3184 92.6535C65.0268 92.7445 64.7161 92.5816 64.6252 92.2879L64.1692 90.807C64.0797 90.5162 64.244 90.2051 64.5348 90.1142L66.3893 89.5428C66.6799 89.4529 66.8463 89.1447 66.7559 88.85L66.0946 86.7107C66.0057 86.4191 66.1705 86.1064 66.4612 86.017L69.3082 85.1389C69.6024 85.0484 69.9112 85.2148 70.0016 85.5055L72.4311 93.3836C72.5225 93.6785 72.3581 93.9867 72.0645 94.0775Z" fill="#4D3D87"/>
<path id="Vector_88" d="M71.9668 94.2144C71.8536 94.25 71.7331 94.2449 71.6272 94.2125C71.4594 94.1566 71.3174 94.0232 71.2606 93.8398L68.7772 85.7873C68.7213 85.605 68.7631 85.4146 68.8711 85.2728C68.9411 85.1863 69.0364 85.1154 69.1508 85.08L86.4489 80.339C86.7475 80.2457 87.0637 80.415 87.1555 80.7146L89.3042 87.6812C89.3971 87.982 89.2301 88.3002 88.9321 88.3916L72.6168 93.9906L71.9668 94.2144Z" fill="#B1BC00"/>
<g id="Group_45">
<g id="Group_46">
<path id="Vector_89" fill-rule="evenodd" clip-rule="evenodd" d="M83.2628 82.1621C83.7147 82.3729 84.5518 82.2785 85.3694 82.1357C85.718 82.0748 86.2819 81.967 86.262 81.6467C86.2395 81.2666 85.5792 81.2861 85.344 81.2951C84.5968 81.3217 83.6993 81.5059 83.2509 81.7426C83.1788 81.8371 83.1929 82.0459 83.2628 82.1621Z" fill="white"/>
<path id="Vector_90" fill-rule="evenodd" clip-rule="evenodd" d="M85.4589 82.935C85.3536 83.732 87.1126 83.6662 87.0132 83.0049C86.9696 82.7182 86.1062 82.4324 85.7007 82.5898C85.5548 82.6473 85.4769 82.7949 85.4589 82.935Z" fill="white"/>
</g>
<g id="Group_47">
<path id="Vector_91" fill-rule="evenodd" clip-rule="evenodd" d="M71.3648 89.2332C71.8418 89.5279 72.2684 90.3705 72.6391 91.2246C72.7965 91.5902 73.0426 92.1846 72.7314 92.3639C72.3594 92.5777 71.9719 91.9463 71.834 91.7205C71.3984 91.0033 71.0178 90.0482 70.9639 89.4805C71.0078 89.3564 71.2119 89.2412 71.3648 89.2332Z" fill="white"/>
<path id="Vector_92" fill-rule="evenodd" clip-rule="evenodd" d="M73.4419 90.8169C74.1257 90.2255 75.1472 91.9163 74.4664 92.231C74.1712 92.3669 73.372 91.7341 73.2681 91.2566C73.2316 91.0847 73.3236 90.9204 73.4419 90.8169Z" fill="white"/>
</g>
</g>
<g id="Group_48">
<g id="Group_49">
<path id="Vector_93" d="M61.81 97.346L61.1467 97.5273L57.2238 98.1687C56.9246 98.2621 56.609 98.0908 56.5156 97.7921L54.3674 90.8255C54.275 90.5263 54.4402 90.2078 54.741 90.1152L58.993 88.2122C59.1078 88.1777 59.2272 88.1818 59.3336 88.2154C59.5024 88.2708 59.6443 88.4037 59.6992 88.587L62.1836 96.6394C62.2395 96.8216 62.1981 97.013 62.0897 97.1539C62.0207 97.2415 61.9242 97.3105 61.81 97.346Z" fill="#4D3D87"/>
</g>
<g id="Group_50">
<path id="Vector_94" fill-rule="evenodd" clip-rule="evenodd" d="M57.0031 95.5695C56.5166 95.2994 55.8434 93.1396 56.5926 92.9562C57.2035 92.8074 57.7533 94.7269 57.4726 95.3203C57.3998 95.4746 57.3078 95.5455 57.0031 95.5695Z" fill="white"/>
<path id="Vector_95" fill-rule="evenodd" clip-rule="evenodd" d="M58.0879 92.6615C57.4516 93.0536 57.1578 91.9597 57.5426 91.733C58.0604 91.4269 58.6498 92.3154 58.0879 92.6615Z" fill="white"/>
<path id="Vector_96" fill-rule="evenodd" clip-rule="evenodd" d="M56.2062 92.0476C55.5414 92.2949 55.1079 90.6265 55.7421 90.4818C56.0093 90.4209 56.1238 90.5841 56.29 90.8929C56.5359 91.3478 56.6706 91.875 56.2062 92.0476Z" fill="white"/>
</g>
</g>
</g>
</g>
</g>
<g id="Group_51">
<g id="Group_52">
<path id="Vector_97" fill-rule="evenodd" clip-rule="evenodd" d="M64.9941 69.6859C65.0391 68.8897 65.8031 67.7857 66.6193 66.7459C66.9678 66.3008 67.5461 65.59 67.9785 65.8574C68.4998 66.1783 67.9719 67.0908 67.7828 67.4146C67.1813 68.4459 66.2475 69.5674 65.5748 70.0195C65.39 70.0484 65.1061 69.8723 64.9941 69.6859Z" fill="white"/>
<path id="Vector_98" fill-rule="evenodd" clip-rule="evenodd" d="M66.6613 64.9554C65.4591 64.5013 66.88 62.0789 67.7339 62.7167C68.1044 62.9947 67.8544 64.4218 67.3275 64.8742C67.1376 65.0353 66.8702 65.0333 66.6613 64.9554Z" fill="white"/>
<path id="Vector_99" fill-rule="evenodd" clip-rule="evenodd" d="M66.7606 58.4625C66.3196 58.3457 66.228 57.6912 66.3821 57.049C66.5059 56.5334 66.9793 55.6019 67.4969 55.9248C67.727 56.0676 67.8698 56.5816 67.7555 57.1181C67.6221 57.7484 67.3282 58.6105 66.7606 58.4625Z" fill="white"/>
</g>
<g id="Group_53">
<path id="Vector_100" fill-rule="evenodd" clip-rule="evenodd" d="M32.3617 60.289C31.0082 60.9105 31.1137 57.0546 32.4103 57.738C33.0871 58.0929 32.7142 59.6576 32.3617 60.289Z" fill="white"/>
<path id="Vector_101" fill-rule="evenodd" clip-rule="evenodd" d="M30.8791 62.4209C31.0049 62.1322 31.4217 61.6099 31.9812 61.9082C32.7119 62.297 32.7789 63.9587 32.9303 64.6123C33.1156 65.4078 33.8207 66.8207 33.1447 67.4445C32.1806 68.333 31.4709 66.0673 31.2582 65.2787C31.1467 64.8589 31.0767 64.4371 30.9992 64.0779C30.8668 63.4625 30.6347 62.9757 30.8791 62.4209Z" fill="white"/>
</g>
</g>
</g>
</g>
<defs>
<clipPath id="clip0_320_58645">
<rect width="100" height="100" fill="white"/>
</clipPath>
</defs>
</svg>
