<svg width="100" height="100" viewBox="0 0 100 100" fill="none" xmlns="http://www.w3.org/2000/svg">
<g id="books 1">
<g id="Group">
<g id="Group_2">
<g id="Group_3">
<g id="Group_4">
<g id="Group_5">
<path id="Vector" fill-rule="evenodd" clip-rule="evenodd" d="M90.7297 25.0624C84.0926 20.9845 77.8556 15.9195 72.1131 10.6007C71.3465 9.89132 70.1123 9.09738 70.4424 7.66867C71.5072 7.05109 73.1094 8.39914 74.0453 9.03644C76.9804 11.04 79.0029 12.8843 81.948 15.1935C84.5308 17.2196 87.1894 19.2128 89.7623 21.5446C90.7056 22.3993 91.7223 23.356 91.959 24.0857C92.031 24.3107 92.1348 25.2111 92.1348 25.355C92.1357 26.5845 91.4984 27.5925 91.0803 28.678C88.6918 34.8866 86.0822 40.4806 83.2656 46.3644C83.0648 46.7831 82.8047 47.3452 82.5623 47.8296C82.2951 48.3665 81.9138 48.8509 81.8603 49.1984C81.7787 49.7216 81.9443 50.5306 81.948 51.2513C81.9547 52.6646 82.3045 73.837 81.224 74.0878C79.0963 74.5806 80.1043 56.4316 80.1043 55.1482C80.1043 51.7782 80.4976 47.1882 81.4209 44.8995C84.1287 38.1849 87.9371 31.6948 90.7297 25.0624Z" fill="#FF5000"/>
</g>
</g>
<g id="Group_6" opacity="0.21">
<g id="Group_7" opacity="0.21">
<path id="Vector_2" opacity="0.21" fill-rule="evenodd" clip-rule="evenodd" d="M90.7297 25.0624C84.0926 20.9845 77.8556 15.9195 72.1131 10.6007C71.3465 9.89132 70.1123 9.09738 70.4424 7.66867C71.5072 7.05109 73.1094 8.39914 74.0453 9.03644C76.9804 11.04 79.0029 12.8843 81.948 15.1935C84.5308 17.2196 87.1894 19.2128 89.7623 21.5446C90.7056 22.3993 91.7223 23.356 91.959 24.0857C92.031 24.3107 92.1348 25.2111 92.1348 25.355C92.1357 26.5845 91.4984 27.5925 91.0803 28.678C88.6918 34.8866 86.0822 40.4806 83.2656 46.3644C83.0648 46.7831 82.8047 47.3452 82.5623 47.8296C82.2951 48.3665 81.9138 48.8509 81.8603 49.1984C81.7787 49.7216 81.9443 50.5306 81.948 51.2513C81.9547 52.6646 82.3045 73.837 81.224 74.0878C79.0963 74.5806 80.1043 56.4316 80.1043 55.1482C80.1043 51.7782 80.4976 47.1882 81.4209 44.8995C84.1287 38.1849 87.9371 31.6948 90.7297 25.0624Z" fill="black"/>
</g>
</g>
<g id="Group_8">
<path id="Vector_3" fill-rule="evenodd" clip-rule="evenodd" d="M93.5842 25.4411C93.5842 26.9444 92.4879 28.1653 91.1361 28.1653C89.7857 28.1653 88.6895 26.9444 88.6895 25.4411C88.6895 23.9378 89.7857 22.7173 91.1361 22.7173C92.4879 22.7175 93.5842 23.938 93.5842 25.4411Z" fill="#FF5000"/>
<path id="Vector_4" fill-rule="evenodd" clip-rule="evenodd" d="M92.3021 25.4411C92.3021 26.1591 91.7806 26.7386 91.1355 26.7386C90.4921 26.7386 89.9702 26.1591 89.9702 25.4411C89.9702 24.7247 90.4921 24.1437 91.1355 24.1437C91.7806 24.1439 92.3021 24.7247 92.3021 25.4411Z" fill="white"/>
</g>
<path id="Vector_5" fill-rule="evenodd" clip-rule="evenodd" d="M75.4949 0.0206335C77.5003 -0.138351 79.305 0.64329 80.5111 1.61165C81.6796 2.55032 82.6923 3.83099 82.849 5.46634C83.1191 8.31673 81.7982 10.4531 81.5826 13.1333C81.1033 19.0781 83.8581 22.673 86.9865 25.8691C89.3511 28.2829 91.7339 30.6245 91.5159 35.0857C91.4507 36.4085 91.0902 37.674 90.6878 38.7314C89.0161 43.1253 85.8728 46.1437 84.1632 50.5869C83.8701 51.3474 83.2122 66.3718 83.0726 67.8671C83.0261 68.366 83.0003 69.2208 82.9755 69.9626C82.9544 70.6468 82.9822 71.4546 82.1968 71.471C81.2753 71.4888 81.4363 70.5632 81.4667 69.9626C81.5314 68.6876 81.8925 53.9312 82.1181 52.7794C82.7267 49.6669 84.3687 46.9009 85.8663 44.4697C87.0452 42.5622 88.3425 40.612 89.1783 38.5222C90.0533 36.3363 90.3458 33.3681 89.2771 31.0644C88.3613 29.0927 86.6118 27.4859 85.0884 25.8691C82.1302 22.7322 79.3947 18.6974 80.121 12.7142C80.272 11.4736 80.5833 10.2238 80.9007 8.98587C81.1976 7.82356 81.5712 6.39485 81.2421 5.04759C80.8816 3.58274 79.624 2.43626 78.222 1.77942C76.9064 1.16321 75.0222 1.11087 73.5964 1.86341C73.1884 2.07825 72.8412 2.4304 72.4753 2.74309C72.058 3.10169 71.4503 3.42298 71.064 3.03665C70.6654 2.63938 71.1775 2.20618 71.5015 1.9052C72.5476 0.936259 73.6419 0.166923 75.4949 0.0206335Z" fill="#4D3D87"/>
</g>
<path id="Vector_6" fill-rule="evenodd" clip-rule="evenodd" d="M94.329 75.5765C94.2028 74.6378 94.1418 73.3089 93.5952 72.6628C92.603 71.4882 90.8108 72.0482 89.4038 71.3794C88.6114 71.0015 88.2432 69.4158 87.2032 68.9318C86.6268 68.662 86.0209 68.748 85.4223 68.6974C84.6899 68.6341 83.9125 68.604 83.1116 68.588C83.1116 68.5853 83.1116 68.5829 83.1125 68.58C82.986 68.581 82.8557 68.58 82.7266 68.58C82.0477 68.5716 81.3522 68.5726 80.6508 68.5757C79.9508 68.5724 79.2559 68.5716 78.5768 68.58C78.4483 68.58 78.319 68.581 78.1918 68.58C78.1928 68.5827 78.1928 68.5853 78.1928 68.588C77.3901 68.604 76.6131 68.6339 75.8821 68.6974C75.2838 68.748 74.676 68.6622 74.1002 68.9318C73.0598 69.4158 72.6926 71.0015 71.8997 71.3794C70.4924 72.048 68.6999 71.4882 67.7073 72.6628C67.1606 73.3089 67.1006 74.6378 66.9749 75.5765C71.7456 75.698 89.5584 75.698 94.329 75.5765Z" fill="#FF5000"/>
<g id="Group_9">
<g id="Group_10">
<g id="Group_11">
<path id="Vector_7" fill-rule="evenodd" clip-rule="evenodd" d="M67.6927 27.1626C61.7753 23.8761 56.4739 19.9481 51.6081 15.5767C49.9983 14.1306 48.4247 12.6357 47.019 10.987C50.262 8.23702 54.0065 5.75929 59.3786 5.26124C65.3968 4.7046 69.246 8.10128 70.5106 12.5765C71.2202 15.0921 71.0091 18.2567 70.3737 20.7105C69.7356 23.1751 68.8345 25.2358 67.6927 27.1626Z" fill="#FF5000"/>
<path id="Vector_8" opacity="0.21" d="M70.5114 12.5767C69.5698 9.24424 67.192 6.50908 63.554 5.56104C65.2672 6.8917 66.4456 8.76689 67.0444 10.8862C67.7547 13.4009 67.5438 16.5665 66.9084 19.0192C66.2979 21.3745 65.4446 23.3599 64.3745 25.2134C65.4586 25.8853 66.5651 26.536 67.6932 27.1626C68.835 25.2358 69.7362 23.1751 70.3745 20.7106C71.0098 18.2567 71.2209 15.0923 70.5114 12.5767Z" fill="black"/>
</g>
<g id="Group_12">
<path id="Vector_9" fill-rule="evenodd" clip-rule="evenodd" d="M67.6927 27.1627C67.4302 27.5707 66.4126 26.8349 65.9212 26.5718C62.4608 24.7263 59.4218 22.2215 56.4247 19.8929C53.8294 17.8767 51.3335 15.7465 48.8821 13.5314C48.4999 13.1863 48.0864 12.7849 47.701 12.3959C47.3391 12.031 46.7473 11.3234 47.0192 10.9873C47.203 10.7603 48.079 11.3427 48.6548 11.7144C50.03 12.6021 51.5741 13.4769 52.835 14.3957C54.6628 15.7256 56.3512 17.1279 57.969 18.439C60.5686 20.5443 63.0153 22.5146 65.5116 24.6632C65.9022 25.0004 66.3454 25.3492 66.7391 25.7093C67.0944 26.0345 67.9575 26.7519 67.6927 27.1627Z" fill="#8F7ECE"/>
<path id="Vector_10" d="M57.9687 18.4389C56.8986 17.5719 55.7949 16.6637 54.6424 15.7633C53.9306 16.1182 53.2515 16.4953 52.7494 16.9112C52.5689 17.0608 52.4109 17.2151 52.2824 17.3748C50.6469 19.4244 50.9799 22.4112 53.0289 24.0487C55.0779 25.6856 58.0666 25.3522 59.7041 23.3032C59.8373 23.1348 59.9578 22.9379 60.0666 22.7176C60.3488 22.1465 60.5523 21.4244 60.7281 20.676C59.8218 19.9379 58.9056 19.1981 57.9687 18.4389Z" fill="#EFAD1B"/>
</g>
<g id="Group_13">
<g id="Group_14">
<path id="Vector_11" fill-rule="evenodd" clip-rule="evenodd" d="M57.9286 7.24286C57.4456 6.54833 59.6124 6.22215 59.3607 7.01493C59.2294 7.42958 58.3183 7.37743 57.9286 7.24286Z" fill="white"/>
<path id="Vector_12" fill-rule="evenodd" clip-rule="evenodd" d="M56.5876 6.62678C56.762 6.66897 57.095 6.84846 56.9839 7.19182C56.8403 7.63967 55.9173 7.84299 55.5665 7.99417C55.1403 8.176 54.4206 8.71253 54.0042 8.39651C53.4106 7.94592 54.6067 7.32229 55.0264 7.12542C55.2505 7.02093 55.479 6.93968 55.6731 6.85999C56.0044 6.72385 56.2528 6.54612 56.5876 6.62678Z" fill="white"/>
</g>
<g id="Group_15">
<path id="Vector_13" fill-rule="evenodd" clip-rule="evenodd" d="M65.6014 22.7676C65.5461 22.251 65.9201 21.4594 66.3348 20.7045C66.5115 20.3805 66.8084 19.862 67.115 19.9881C67.484 20.1391 67.2416 20.7819 67.1545 21.0108C66.877 21.7376 66.3953 22.5596 66.0113 22.9211C65.8946 22.9594 65.6938 22.876 65.6014 22.7676Z" fill="white"/>
<path id="Vector_14" fill-rule="evenodd" clip-rule="evenodd" d="M66.1709 19.5478C65.3504 19.3828 66.0072 17.6742 66.6235 17.9935C66.8907 18.1328 66.8823 19.0775 66.591 19.4256C66.4865 19.5482 66.3135 19.5763 66.1709 19.5478Z" fill="white"/>
<path id="Vector_15" fill-rule="evenodd" clip-rule="evenodd" d="M67.8911 16.4207C67.5962 16.3926 67.4673 15.9814 67.4988 15.5518C67.5242 15.2063 67.7294 14.5572 68.0956 14.7105C68.2593 14.7781 68.4066 15.0928 68.3888 15.4504C68.3704 15.8697 68.2743 16.4559 67.8911 16.4207Z" fill="white"/>
</g>
</g>
</g>
<g id="Group_16">
<path id="Vector_16" fill-rule="evenodd" clip-rule="evenodd" d="M73.009 4.3526C72.7717 2.94069 70.5299 1.85065 69.0111 1.98991C67.5744 2.12213 66.6475 2.93385 65.6937 3.85338C65.1119 4.41334 64.4766 5.02272 63.9213 5.62526C63.8861 5.66315 63.8557 5.69616 63.8252 5.72565C64.3959 5.83581 64.7789 6.20299 64.9711 6.66022C65.4957 7.10182 65.9797 7.60924 66.4439 8.0651C67.2635 8.8651 67.9242 9.7985 68.6717 10.6624C68.7973 10.8083 68.893 10.9606 68.9629 11.1149C69.3201 11.0366 69.6986 10.4393 70.0109 10.0327C70.4033 9.52057 70.7068 9.1192 70.9647 8.761C71.6197 7.84752 72.227 7.09088 72.6912 6.08034C72.8729 5.68288 73.1219 5.02409 73.009 4.3526ZM66.148 6.21608C65.9066 6.46178 65.5746 6.81901 65.1478 6.67038C64.9842 6.336 65.3143 5.98424 65.5576 5.67116C66.0711 5.00631 67.1701 3.77409 67.874 3.48893C68.0119 3.43405 68.1516 3.45182 68.283 3.58034C68.26 3.96959 67.95 4.30104 67.6926 4.57956C67.174 5.14127 66.7078 5.64401 66.148 6.21608ZM66.7389 7.98756C66.5189 7.5571 66.9879 7.1319 67.2836 6.76139C68.0619 5.78561 69.3533 4.55709 70.2377 3.85338C70.3652 3.75065 70.6268 3.80319 70.7371 3.94381C70.6818 4.461 70.2818 4.8526 69.9648 5.21647C69.3258 5.9526 68.6014 6.52799 67.874 7.21588C67.5514 7.52135 67.2537 8.04245 66.7389 7.98756ZM69.9193 8.03288C69.7281 8.23913 69.4912 8.46706 69.284 8.66881C69.0656 8.88209 68.8324 9.13346 68.5104 9.16862C68.2332 8.76452 68.7514 8.26784 69.0553 7.89694C69.5447 7.3028 69.9852 6.73502 70.6012 6.30651C70.777 6.26725 70.7619 6.41823 70.874 6.44245C70.7133 7.0737 70.309 7.61061 69.9193 8.03288Z" fill="#FF5000"/>
<path id="Vector_17" opacity="0.21" fill-rule="evenodd" clip-rule="evenodd" d="M73.009 4.3526C72.7717 2.94069 70.5299 1.85065 69.0111 1.98991C67.5744 2.12213 66.6475 2.93385 65.6937 3.85338C65.1119 4.41334 64.4766 5.02272 63.9213 5.62526C63.8861 5.66315 63.8557 5.69616 63.8252 5.72565C64.3959 5.83581 64.7789 6.20299 64.9711 6.66022C65.4957 7.10182 65.9797 7.60924 66.4439 8.0651C67.2635 8.8651 67.9242 9.7985 68.6717 10.6624C68.7973 10.8083 68.893 10.9606 68.9629 11.1149C69.3201 11.0366 69.6986 10.4393 70.0109 10.0327C70.4033 9.52057 70.7068 9.1192 70.9647 8.761C71.6197 7.84752 72.227 7.09088 72.6912 6.08034C72.8729 5.68288 73.1219 5.02409 73.009 4.3526ZM66.148 6.21608C65.9066 6.46178 65.5746 6.81901 65.1478 6.67038C64.9842 6.336 65.3143 5.98424 65.5576 5.67116C66.0711 5.00631 67.1701 3.77409 67.874 3.48893C68.0119 3.43405 68.1516 3.45182 68.283 3.58034C68.26 3.96959 67.95 4.30104 67.6926 4.57956C67.174 5.14127 66.7078 5.64401 66.148 6.21608ZM66.7389 7.98756C66.5189 7.5571 66.9879 7.1319 67.2836 6.76139C68.0619 5.78561 69.3533 4.55709 70.2377 3.85338C70.3652 3.75065 70.6268 3.80319 70.7371 3.94381C70.6818 4.461 70.2818 4.8526 69.9648 5.21647C69.3258 5.9526 68.6014 6.52799 67.874 7.21588C67.5514 7.52135 67.2537 8.04245 66.7389 7.98756ZM69.9193 8.03288C69.7281 8.23913 69.4912 8.46706 69.284 8.66881C69.0656 8.88209 68.8324 9.13346 68.5104 9.16862C68.2332 8.76452 68.7514 8.26784 69.0553 7.89694C69.5447 7.3028 69.9852 6.73502 70.6012 6.30651C70.777 6.26725 70.7619 6.41823 70.874 6.44245C70.7133 7.0737 70.309 7.61061 69.9193 8.03288Z" fill="black"/>
</g>
</g>
</g>
<g id="Group_17">
<g id="Group_18">
<path id="Vector_18" fill-rule="evenodd" clip-rule="evenodd" d="M18.0254 33.3646C18.1784 33.3707 18.3485 33.1953 18.4 33.7402C18.4483 34.2447 18.1707 34.9115 18.0784 35.4006C17.912 36.2867 17.6694 37.4937 17.6498 37.5973C17.3301 39.3303 17.1079 40.7783 16.8997 42.0982C16.3707 45.448 16.0209 48.4002 15.6688 51.3668C15.1043 56.1074 14.912 60.9402 14.7038 66.1543C14.6344 67.8765 14.7 69.7906 14.1682 70.8685C13.9118 71.3877 13.3079 72.0605 12.7747 72.2082C12.1979 72.3681 11.2047 72.2062 10.6852 72.1011C10.1967 72.0023 9.48344 71.831 8.97094 71.7252C7.88872 71.5049 6.24008 71.2418 5.80923 70.1726C5.54985 69.5289 5.70747 68.3392 5.86274 67.4404C6.29555 64.9369 7.16899 62.29 7.79184 60.1537C8.70669 57.014 9.66313 54.0031 10.6315 50.7238C11.5946 47.4627 12.478 44.1617 13.4707 41.2414C13.9313 39.8873 14.4709 38.316 15.1321 36.74C15.6643 35.4707 16.5973 33.8502 17.8649 33.3644C17.9008 33.3506 17.9862 33.3637 18.0254 33.3646Z" fill="#8F7ECE"/>
<g id="Group_19">
<g id="Group_20">
<g id="Group_21">
<path id="Vector_19" fill-rule="evenodd" clip-rule="evenodd" d="M34.0449 31.4901C36.8311 31.3569 40.1588 31.3747 43.0459 31.4901C45.9469 31.6063 48.8045 31.5567 51.7795 31.7573C54.4658 31.9387 57.2242 32.2225 60.0301 32.5081C62.6531 32.7745 65.6016 33.1153 67.3166 34.1684C68.5498 34.9256 69.0684 35.9493 69.46 37.544C70.4451 41.562 70.6336 48.2555 70.9065 52.5457C71.0156 54.2727 71.0926 56.07 71.1736 57.7959C71.2563 59.5299 71.4418 61.2676 71.4418 62.9926C71.4408 66.475 71.9305 70.4866 70.7445 73.012C70.3994 73.7473 69.9469 74.2803 68.9768 74.6194C67.3422 75.1905 64.7195 74.8079 62.6547 74.6194C56.261 74.0366 49.1881 73.9649 42.51 74.4045C38.0029 74.7024 33.8242 74.7122 29.2758 75.1018C27.3092 75.2696 24.9652 75.5065 22.7395 75.5303C18.9996 75.5692 15.4604 75.3165 14.4889 72.6368C14.0504 71.4274 13.8924 69.6686 13.7922 67.9754C13.4973 62.9897 13.7303 57.0995 13.9535 52.3846C14.2428 46.2534 14.368 40.4907 15.882 35.5612C16.193 34.5498 16.5971 33.4803 17.4889 32.9364C18.3272 32.4262 19.6481 32.1772 21.0791 32.0248C23.7758 31.7393 26.7776 31.6858 29.5981 31.5967C31.0553 31.551 32.5291 31.5614 34.0449 31.4901Z" fill="white"/>
<path id="Vector_20" fill-rule="evenodd" clip-rule="evenodd" d="M34.0449 31.4901C36.8311 31.3569 40.1588 31.3747 43.0459 31.4901C45.9469 31.6063 48.8045 31.5567 51.7795 31.7573C54.4658 31.9387 57.2242 32.2225 60.0301 32.5081C62.6531 32.7745 65.6016 33.1153 67.3166 34.1684C68.5498 34.9256 69.0684 35.9493 69.46 37.544C70.4451 41.562 70.6336 48.2555 70.9065 52.5457C71.0156 54.2727 71.0926 56.07 71.1736 57.7959C71.2563 59.5299 71.4418 61.2676 71.4418 62.9926C71.4408 66.475 71.9305 70.4866 70.7445 73.012C70.3994 73.7473 69.9469 74.2803 68.9768 74.6194C67.3422 75.1905 64.7195 74.8079 62.6547 74.6194C56.261 74.0366 49.1881 73.9649 42.51 74.4045C38.0029 74.7024 33.8242 74.7122 29.2758 75.1018C27.3092 75.2696 24.9652 75.5065 22.7395 75.5303C18.9996 75.5692 15.4604 75.3165 14.4889 72.6368C14.0504 71.4274 13.8924 69.6686 13.7922 67.9754C13.4973 62.9897 13.7303 57.0995 13.9535 52.3846C14.2428 46.2534 14.368 40.4907 15.882 35.5612C16.193 34.5498 16.5971 33.4803 17.4889 32.9364C18.3272 32.4262 19.6481 32.1772 21.0791 32.0248C23.7758 31.7393 26.7776 31.6858 29.5981 31.5967C31.0553 31.551 32.5291 31.5614 34.0449 31.4901Z" fill="#8F7ECE"/>
<path id="Vector_21" opacity="0.57" fill-rule="evenodd" clip-rule="evenodd" d="M34.0449 31.4901C36.8311 31.3569 40.1588 31.3747 43.0459 31.4901C45.9469 31.6063 48.8045 31.5567 51.7795 31.7573C54.4658 31.9387 57.2242 32.2225 60.0301 32.5081C62.6531 32.7745 65.6016 33.1153 67.3166 34.1684C68.5498 34.9256 69.0684 35.9493 69.46 37.544C70.4451 41.562 70.6336 48.2555 70.9065 52.5457C71.0156 54.2727 71.0926 56.07 71.1736 57.7959C71.2563 59.5299 71.4418 61.2676 71.4418 62.9926C71.4408 66.475 71.9305 70.4866 70.7445 73.012C70.3994 73.7473 69.9469 74.2803 68.9768 74.6194C67.3422 75.1905 64.7195 74.8079 62.6547 74.6194C56.261 74.0366 49.1881 73.9649 42.51 74.4045C38.0029 74.7024 33.8242 74.7122 29.2758 75.1018C27.3092 75.2696 24.9652 75.5065 22.7395 75.5303C18.9996 75.5692 15.4604 75.3165 14.4889 72.6368C14.0504 71.4274 13.8924 69.6686 13.7922 67.9754C13.4973 62.9897 13.7303 57.0995 13.9535 52.3846C14.2428 46.2534 14.368 40.4907 15.882 35.5612C16.193 34.5498 16.5971 33.4803 17.4889 32.9364C18.3272 32.4262 19.6481 32.1772 21.0791 32.0248C23.7758 31.7393 26.7776 31.6858 29.5981 31.5967C31.0553 31.551 32.5291 31.5614 34.0449 31.4901Z" fill="white"/>
<g id="Group_22" opacity="0.78">
<path id="Vector_22" opacity="0.78" fill-rule="evenodd" clip-rule="evenodd" d="M59.2267 38.4012C59.3519 39.9008 59.3988 41.4785 59.3867 43.1164C57.9335 43.1981 56.4341 43.235 54.9402 43.2774C55.0048 41.5875 54.7709 39.9098 54.8863 38.3479C56.3285 38.3698 57.8679 38.2952 59.2267 38.4012Z" fill="white"/>
<path id="Vector_23" opacity="0.78" fill-rule="evenodd" clip-rule="evenodd" d="M53.3862 38.4012C53.3926 40.0565 53.3575 41.752 53.4401 43.3303C51.6352 43.3832 49.7747 43.3801 48.0295 43.4916C48.0647 41.8481 48.1036 40.2084 48.0821 38.5086C49.8743 38.4949 51.5594 38.3781 53.3862 38.4012Z" fill="#B1BC00"/>
<path id="Vector_24" opacity="0.78" fill-rule="evenodd" clip-rule="evenodd" d="M60.6196 38.562C63.6749 38.5597 65.6372 40.1159 66.0312 42.9552C64.3259 42.9833 62.6593 43.0489 60.9417 43.063C60.8964 41.5007 60.8269 39.9626 60.6196 38.562Z" fill="white"/>
<path id="Vector_25" opacity="0.78" fill-rule="evenodd" clip-rule="evenodd" d="M46.6354 38.562C46.5815 40.2229 46.5528 41.9081 46.475 43.545C44.2651 43.6032 42.1143 43.72 39.9387 43.8122C39.9508 42.1622 40.069 40.4005 39.9387 38.7763C42.1418 38.6774 44.4 38.6306 46.6354 38.562Z" fill="white"/>
<path id="Vector_26" opacity="0.78" fill-rule="evenodd" clip-rule="evenodd" d="M38.4927 38.8297C38.5728 40.3929 38.3722 42.1373 38.4388 43.8666C36.6884 43.9914 34.8597 44.0373 33.0818 44.1343C33.0818 42.4023 33.0818 40.6691 33.0818 38.9371C34.8486 38.9009 36.8507 38.8133 38.4927 38.8297Z" fill="white"/>
<path id="Vector_27" opacity="0.78" fill-rule="evenodd" clip-rule="evenodd" d="M24.9376 38.9906C24.8456 40.7742 24.8847 42.6888 24.7772 44.456C22.6938 44.4457 20.6435 44.4654 18.6685 44.5625C18.9142 42.9383 19.1364 41.2797 20.0085 40.2228C21.0104 39.0084 22.7772 39.0562 24.9376 38.9906Z" fill="white"/>
<path id="Vector_28" opacity="0.78" fill-rule="evenodd" clip-rule="evenodd" d="M31.6339 38.9906C31.6189 40.7443 31.4886 42.3812 31.5265 44.1873C29.8142 44.2793 28.0779 44.3466 26.3289 44.4015C26.4259 42.5888 26.3064 40.7183 26.3834 38.9906C28.3212 39.0084 29.6646 38.9933 31.6339 38.9906Z" fill="white"/>
<path id="Vector_29" opacity="0.78" fill-rule="evenodd" clip-rule="evenodd" d="M66.9408 48.7423C64.9146 48.7513 62.8351 48.7081 60.8869 48.7952C60.8474 47.3454 60.9732 46.0593 60.9408 44.6165C62.5965 44.4257 64.5584 44.637 65.9767 44.5097C66.3363 44.4773 66.3392 44.4107 66.4588 44.8304C66.7613 45.8917 66.7724 47.7144 66.9408 48.7423Z" fill="white"/>
<path id="Vector_30" opacity="0.78" fill-rule="evenodd" clip-rule="evenodd" d="M59.3865 44.6704C59.3523 46.0292 59.4558 47.5251 59.333 48.7952C57.9113 48.8736 56.4099 48.8726 54.94 48.9031C54.9752 47.5452 54.8687 46.0466 54.9935 44.7767C56.5187 44.8026 57.8804 44.6634 59.3865 44.6704Z" fill="white"/>
<path id="Vector_31" opacity="0.78" fill-rule="evenodd" clip-rule="evenodd" d="M53.3324 44.8301C53.5293 45.0002 53.4399 45.434 53.4399 45.7945C53.4399 46.7553 53.4399 47.8932 53.4399 48.9027C51.5211 48.877 49.7486 48.9975 47.8145 48.9557C47.8688 47.6348 47.9199 46.3115 47.9752 44.9912C49.7313 44.907 51.5895 44.9277 53.3324 44.8301Z" fill="white"/>
<path id="Vector_32" opacity="0.78" fill-rule="evenodd" clip-rule="evenodd" d="M46.4212 45.0446C46.4526 46.4334 46.295 47.6334 46.3138 49.0096C44.1573 49.1037 41.93 49.1264 39.8307 49.2781C39.8022 47.9278 39.9255 46.7293 39.8847 45.3666C41.9985 45.194 44.2657 45.1748 46.4212 45.0446Z" fill="white"/>
<path id="Vector_33" opacity="0.78" fill-rule="evenodd" clip-rule="evenodd" d="M38.3843 45.4197C38.3284 46.704 38.3702 48.0849 38.2769 49.3312C36.5532 49.4296 34.8099 49.5066 33.0806 49.599C33.0806 48.2771 33.0806 46.9558 33.0806 45.6349C34.8968 45.6115 36.5823 45.4576 38.3843 45.4197Z" fill="#FF5000"/>
<path id="Vector_34" opacity="0.78" fill-rule="evenodd" clip-rule="evenodd" d="M31.5275 45.7417C31.5275 47.0448 31.5275 48.3483 31.5275 49.6522C29.697 49.7151 27.8626 49.7737 26.116 49.9204C26.1455 48.5569 26.1933 47.2116 26.2767 45.9024C28.0994 45.9214 29.7273 45.7454 31.5275 45.7417Z" fill="white"/>
<path id="Vector_35" opacity="0.78" fill-rule="evenodd" clip-rule="evenodd" d="M18.5076 45.9554C20.5965 45.9277 22.6863 46.1023 24.7232 45.9554C24.6961 47.3209 24.6352 48.6539 24.5619 49.9744C22.4889 50.1507 20.2523 50.1642 18.1328 50.2957C18.3496 48.94 18.1699 47.1886 18.5076 45.9554Z" fill="white"/>
<path id="Vector_36" opacity="0.78" fill-rule="evenodd" clip-rule="evenodd" d="M67.0483 50.2427C67.27 51.6446 67.2784 53.2628 67.369 54.7962C65.1895 54.9196 62.9343 54.9683 60.7802 55.1179C60.7491 53.48 60.8743 51.9974 60.8337 50.3497C62.8428 50.2511 64.9354 50.236 67.0483 50.2427Z" fill="white"/>
<path id="Vector_37" opacity="0.78" fill-rule="evenodd" clip-rule="evenodd" d="M59.3326 50.3494C59.3102 51.9512 59.251 53.5182 59.2791 55.1711C57.8377 55.2662 56.3771 55.3404 54.8855 55.3854C54.8517 53.673 54.931 52.0726 54.9394 50.4023C56.4621 50.4433 57.835 50.334 59.3326 50.3494Z" fill="#FF5000"/>
<path id="Vector_38" opacity="0.78" fill-rule="evenodd" clip-rule="evenodd" d="M53.3865 50.4026C53.3517 52.0823 53.4578 53.903 53.333 55.493C51.3693 55.5104 49.5302 55.6538 47.6003 55.7063C47.6191 53.9391 47.6847 52.2186 47.7617 50.5104C49.5736 50.411 51.5884 50.5161 53.3865 50.4026Z" fill="white"/>
<path id="Vector_39" opacity="0.78" fill-rule="evenodd" clip-rule="evenodd" d="M46.2064 50.5634C46.2017 52.3264 46.0615 53.9544 46.099 55.7606C44.0808 55.9022 41.9132 55.8958 39.8847 56.028C39.7595 54.3844 39.866 52.5108 39.8308 50.7778C41.9494 50.7003 44.0164 50.57 46.2064 50.5634Z" fill="white"/>
<path id="Vector_40" opacity="0.78" fill-rule="evenodd" clip-rule="evenodd" d="M38.2249 50.8307C38.3224 52.5192 38.2708 54.3572 38.3319 56.0822C36.5698 56.1231 34.8659 56.2238 33.1343 56.2965C33.0108 54.6703 33.1159 52.8141 33.0813 51.0992C34.8249 51.0393 36.5556 50.967 38.2249 50.8307Z" fill="white"/>
<path id="Vector_41" opacity="0.78" fill-rule="evenodd" clip-rule="evenodd" d="M31.366 51.1527C31.6545 51.1654 31.5203 51.5631 31.5269 51.6886C31.5955 53.1424 31.5353 54.8711 31.5805 56.3496C29.7049 56.4213 27.8517 56.5146 25.9008 56.5109C25.858 54.7531 25.9961 53.1771 26.0082 51.4746C27.6758 51.2478 29.6193 51.2994 31.366 51.1527Z" fill="white"/>
<path id="Vector_42" opacity="0.78" fill-rule="evenodd" clip-rule="evenodd" d="M24.5075 51.528C24.4178 53.1696 24.402 54.8862 24.3475 56.5639C22.2375 56.6512 19.9582 56.569 17.9176 56.7246C17.9073 55.0174 17.9571 53.3707 18.0254 51.7422C20.2331 51.7172 22.3891 51.6412 24.5075 51.528Z" fill="white"/>
<path id="Vector_43" opacity="0.78" fill-rule="evenodd" clip-rule="evenodd" d="M67.4238 56.3495C67.5537 58.1665 67.5312 60.1352 67.5303 62.0817C65.3166 62.0817 63.1012 62.0817 60.8875 62.0817C60.834 60.2784 60.7533 58.5016 60.7807 56.6176C63.0076 56.5413 65.151 56.3809 67.4238 56.3495Z" fill="white"/>
<path id="Vector_44" opacity="0.78" fill-rule="evenodd" clip-rule="evenodd" d="M59.2269 56.7246C59.3306 58.4596 59.24 60.3891 59.3869 62.0818C57.9404 62.0818 56.4933 62.0818 55.0478 62.0818C54.9812 60.3807 54.9128 58.6809 54.8865 56.9395C56.3019 56.8371 57.758 56.7742 59.2269 56.7246Z" fill="white"/>
<path id="Vector_45" opacity="0.78" fill-rule="evenodd" clip-rule="evenodd" d="M53.3858 56.9928C53.375 58.7539 53.4444 60.4344 53.5471 62.0817C51.5524 62.0703 49.6764 62.1758 47.6535 62.1365C47.593 60.5877 47.5443 58.7465 47.6535 57.2067C49.6098 57.1823 51.4563 57.0449 53.3858 56.9928Z" fill="white"/>
<path id="Vector_46" opacity="0.78" fill-rule="evenodd" clip-rule="evenodd" d="M46.0467 57.3145C46.0116 58.9748 46.1381 60.4725 46.0993 62.1365C44.0928 62.1064 42.1061 62.0582 40.0459 62.0816C40.0309 60.525 39.9432 59.0412 39.885 57.5287C41.9532 57.4711 43.9737 57.367 46.0467 57.3145Z" fill="#B1BC00"/>
<path id="Vector_47" opacity="0.78" fill-rule="evenodd" clip-rule="evenodd" d="M38.384 57.5819C38.407 59.1128 38.4951 60.5796 38.5449 62.0819C36.8371 62.178 35.0133 62.1583 33.3476 62.2975C33.3185 60.7731 33.1648 59.3721 33.1867 57.7962C34.9465 57.7524 36.6552 57.6573 38.384 57.5819Z" fill="white"/>
<path id="Vector_48" opacity="0.78" fill-rule="evenodd" clip-rule="evenodd" d="M31.5801 57.8505C31.7719 59.2473 31.7133 60.8946 31.8479 62.3495C29.8893 62.4456 27.8664 62.4764 25.9004 62.5647C25.8568 61.0905 25.8301 59.5995 25.8478 58.0637C27.7459 57.9813 29.7393 57.9911 31.5801 57.8505Z" fill="white"/>
<path id="Vector_49" opacity="0.78" fill-rule="evenodd" clip-rule="evenodd" d="M24.3478 58.1176C24.3478 59.6186 24.3478 61.118 24.3478 62.6176C22.1117 62.6682 19.9361 62.778 17.8115 62.9397C17.6873 61.404 17.7937 59.6378 17.9179 58.171C19.9593 58.0522 22.2181 58.1497 24.3478 58.1176Z" fill="white"/>
<path id="Vector_50" opacity="0.78" fill-rule="evenodd" clip-rule="evenodd" d="M46.1536 63.6371C46.1643 65.4655 46.2202 67.2487 46.3145 68.9938C44.3874 69.0674 42.394 69.0741 40.4749 69.1551C40.3229 67.3776 40.2054 65.567 40.1538 63.6891C40.1927 63.6395 40.2509 63.608 40.3138 63.5826C42.1858 63.6746 44.2024 63.6235 46.1536 63.6371Z" fill="white"/>
<path id="Vector_51" opacity="0.78" fill-rule="evenodd" clip-rule="evenodd" d="M59.4407 63.6371C59.4852 65.2713 59.4692 66.9658 59.5472 68.5656C58.1854 68.5787 56.8327 68.6018 55.5296 68.6721C55.3946 67.0403 55.2407 65.425 55.1544 63.7436C55.152 63.6522 55.1938 63.6043 55.2612 63.5826C56.6376 63.6178 58.1536 63.5119 59.4407 63.6371Z" fill="white"/>
<path id="Vector_52" opacity="0.78" fill-rule="evenodd" clip-rule="evenodd" d="M38.599 63.6371C38.6957 65.5053 38.825 67.3401 38.9201 69.208C37.1932 69.2492 35.5287 69.3529 33.8842 69.4758C33.7037 67.6209 33.5592 65.7297 33.4561 63.7969C35.1602 63.7342 36.8197 63.6244 38.599 63.6371Z" fill="white"/>
<path id="Vector_53" opacity="0.78" fill-rule="evenodd" clip-rule="evenodd" d="M53.6007 63.6371C53.7547 65.3222 53.8324 67.0834 54.0293 68.7265C51.906 68.7457 49.9461 68.9291 47.8146 68.9408C47.7668 67.2209 47.6556 65.2773 47.7072 63.6371C49.6715 63.6371 51.6361 63.6371 53.6007 63.6371Z" fill="white"/>
<path id="Vector_54" opacity="0.78" fill-rule="evenodd" clip-rule="evenodd" d="M60.9942 63.6371C63.1554 63.6371 65.3161 63.6371 67.4773 63.6371C67.428 65.1515 67.353 66.3295 66.7804 67.1726C65.7722 68.6519 63.4587 68.4099 61.0481 68.5119C61.097 66.8551 60.9056 65.1525 60.9942 63.6371Z" fill="white"/>
<path id="Vector_55" opacity="0.78" fill-rule="evenodd" clip-rule="evenodd" d="M31.7942 63.8501C32.084 63.9294 31.9387 64.3144 31.9555 64.4939C32.0985 66.0618 32.2143 67.9009 32.3297 69.5302C30.3401 69.7187 28.27 69.8261 26.1688 69.9054C25.986 68.0523 25.9747 66.0257 25.9006 64.0657C27.8823 64.0105 29.8915 63.9823 31.7942 63.8501Z" fill="white"/>
<path id="Vector_56" opacity="0.78" fill-rule="evenodd" clip-rule="evenodd" d="M24.4013 64.1187C24.4023 66.1354 24.5265 68.0298 24.6152 69.9583C22.7078 69.7567 20.9982 69.6245 19.8474 68.7265C18.6363 67.7808 18.1111 66.2638 17.865 64.3329C20.0964 64.3151 22.2412 64.2091 24.4013 64.1187Z" fill="white"/>
</g>
</g>
<g id="Group_23">
<path id="Vector_57" fill-rule="evenodd" clip-rule="evenodd" d="M19.8895 40.9969C18.4729 41.0016 20.0808 37.7053 20.9356 38.8066C21.3815 39.3807 20.4438 40.5881 19.8895 40.9969Z" fill="#8F7ECE"/>
</g>
<g id="Group_24">
<path id="Vector_58" fill-rule="evenodd" clip-rule="evenodd" d="M67.3866 44.9706C66.9219 44.4139 66.7432 43.2057 66.6391 42.0077C66.5936 41.4942 66.536 40.6633 66.9903 40.5715C67.5352 40.4618 67.7518 41.3954 67.8272 41.7284C68.0692 42.7876 68.1456 44.1141 67.9801 44.8311C67.8749 44.9661 67.576 45.0264 67.3866 44.9706Z" fill="#8F7ECE"/>
<path id="Vector_59" fill-rule="evenodd" clip-rule="evenodd" d="M65.5532 40.7919C64.4737 41.2365 63.9116 38.7439 64.876 38.6361C65.2942 38.5915 66.0159 39.6949 65.9475 40.3236C65.9204 40.5482 65.7413 40.7136 65.5532 40.7919Z" fill="#8F7ECE"/>
</g>
</g>
<g id="Group_25">
<path id="Vector_60" fill-rule="evenodd" clip-rule="evenodd" d="M20.842 35.8451C20.7416 34.9781 21.2156 34.4371 21.543 33.9029C21.9242 33.2826 22.4166 32.4507 22.2439 31.2597C22.2018 30.9578 22.0545 30.5544 21.8131 30.5035C21.2082 30.3759 21.0113 31.2293 20.8955 31.8525C20.7773 32.4959 20.8346 33.4894 20.3027 33.4716C19.915 33.458 19.8133 32.7623 19.817 32.1765C19.8244 30.6939 20.6736 28.7935 22.2988 29.3162C23.2553 29.6248 23.8955 31.4136 23.8092 32.9857C23.766 33.78 23.541 34.5453 23.1621 35.1974C22.6848 36.0214 21.5754 36.9334 20.842 35.8451Z" fill="#4D3D87"/>
<path id="Vector_61" fill-rule="evenodd" clip-rule="evenodd" d="M29.6141 35.177C29.3618 34.4943 29.8251 33.8049 30.0989 33.1809C30.5106 32.2449 31.1266 30.9484 30.4774 29.8354C29.9817 29.9131 29.8472 30.3502 29.6681 30.7525C29.5054 31.1178 29.4659 31.7025 29.0206 31.7781C28.6829 31.5361 29.0397 30.9965 29.1823 30.5369C29.422 29.765 29.9231 28.3889 31.0706 28.9174C31.8096 29.2588 32.0778 30.8455 31.9878 32.1016C31.9343 32.849 31.6708 33.7971 31.2868 34.3678C30.9186 34.9135 30.2979 35.4654 29.6141 35.177Z" fill="#4D3D87"/>
<path id="Vector_62" fill-rule="evenodd" clip-rule="evenodd" d="M26.1066 29.8892C25.6691 30.0027 25.5563 30.4467 25.4057 30.8603C25.2564 31.2697 25.2473 31.8103 24.9199 32.047C24.4711 31.9701 24.6221 31.0689 24.7033 30.6445C24.8764 29.7504 25.7691 28.2232 26.9699 29.0803C27.6424 29.5599 27.7971 30.9531 27.7258 31.9396C27.6527 32.9572 27.2715 34.1674 26.7543 34.799C26.585 35.0068 26.218 35.3443 25.9984 35.3926C25.5027 35.5033 24.9875 35.2584 24.9744 34.9617C24.9496 34.4258 25.5564 33.8256 25.7842 33.3422C26.1307 32.6031 26.4402 31.7644 26.4307 30.8603C26.4279 30.5912 26.4195 30.151 26.1066 29.8892Z" fill="#4D3D87"/>
<path id="Vector_63" fill-rule="evenodd" clip-rule="evenodd" d="M34.2003 34.7568C34.1009 33.8908 34.574 33.3482 34.9023 32.8146C35.2836 32.1933 35.775 31.3625 35.6033 30.1715C35.5611 29.8695 35.4138 29.4662 35.1724 29.4152C34.5675 29.2877 34.3697 30.141 34.2548 30.7642C34.1367 31.4072 34.1939 32.4011 33.6611 32.3834C33.2734 32.3697 33.1726 31.674 33.1753 31.0883C33.1837 29.6056 34.0326 27.7053 35.6582 28.2279C36.6148 28.5365 37.2539 30.3254 37.1685 31.8974C37.1254 32.6918 36.8994 33.457 36.5214 34.1092C36.0431 34.9332 34.9336 35.8451 34.2003 34.7568Z" fill="#4D3D87"/>
<path id="Vector_64" fill-rule="evenodd" clip-rule="evenodd" d="M57.4226 35.0874C57.3228 34.22 57.7955 33.6794 58.1242 33.1448C58.5048 32.5245 58.9962 31.6926 58.8252 30.5007C58.7826 30.2001 58.6353 29.7973 58.3943 29.7458C57.789 29.6182 57.5919 30.4712 57.4771 31.0954C57.358 31.7368 57.4162 32.7319 56.8826 32.7135C56.4959 32.7005 56.3939 32.0046 56.3978 31.419C56.4052 29.9364 57.2545 28.0354 58.8796 28.5583C59.8363 28.8669 60.4763 30.6561 60.3904 32.2268C60.3468 33.0221 60.1222 33.7878 59.7429 34.4401C59.2654 35.2624 58.156 36.1758 57.4226 35.0874Z" fill="#4D3D87"/>
<path id="Vector_65" fill-rule="evenodd" clip-rule="evenodd" d="M47.8513 34.8296C47.7515 33.9616 48.2249 33.421 48.5523 32.887C48.9335 32.2663 49.4249 31.4352 49.2536 30.2438C49.2109 29.9419 49.0638 29.5382 48.8222 29.488C48.2173 29.3604 48.0194 30.2134 47.9046 30.837C47.7864 31.4794 47.8446 32.4729 47.312 32.4556C46.9241 32.4425 46.8224 31.7466 46.8263 31.1608C46.8339 29.6776 47.6829 27.7764 49.3081 28.3001C50.2648 28.6091 50.9038 30.3979 50.8189 31.9702C50.7753 32.764 50.5497 33.5288 50.1712 34.1819C49.6931 35.0059 48.5851 35.9179 47.8513 34.8296Z" fill="#4D3D87"/>
<path id="Vector_66" fill-rule="evenodd" clip-rule="evenodd" d="M43.1028 34.9185C42.8524 34.2359 43.3147 33.547 43.5895 32.9228C44.0003 31.9868 44.6163 30.6894 43.9679 29.5767C43.4714 29.655 43.3382 30.0919 43.1577 30.4939C42.995 30.8597 42.956 31.4439 42.5101 31.5194C42.1724 31.2775 42.5294 30.7378 42.6718 30.2788C42.9124 29.5066 43.4118 28.1318 44.561 28.6603C45.2991 29.0003 45.5683 30.5874 45.4776 31.8437C45.4237 32.5911 45.1612 33.5392 44.7763 34.1093C44.4083 34.655 43.7874 35.2073 43.1028 34.9185Z" fill="#4D3D87"/>
<path id="Vector_67" fill-rule="evenodd" clip-rule="evenodd" d="M39.5957 29.6315C39.1582 29.7444 39.0447 30.1886 38.8947 30.6026C38.7457 31.0134 38.7363 31.5522 38.409 31.789C37.9601 31.712 38.1113 30.8114 38.1933 30.3864C38.3664 29.4927 39.2582 27.9651 40.4599 28.8222C41.1324 29.3018 41.2861 30.695 41.2148 31.6815C41.1425 32.6995 40.7613 33.9097 40.2431 34.5409C40.0738 34.7485 39.7076 35.0862 39.4883 35.1354C38.9918 35.2456 38.4763 35.0009 38.4633 34.703C38.4384 34.1675 39.0447 33.5679 39.272 33.0839C39.6195 32.3464 39.9289 31.5065 39.9195 30.6024C39.9168 30.3335 39.9084 29.8936 39.5957 29.6315Z" fill="#4D3D87"/>
<path id="Vector_68" fill-rule="evenodd" clip-rule="evenodd" d="M62.0752 36.4684C61.8234 35.7865 62.2857 35.0969 62.5605 34.4723C62.9713 33.5373 63.5873 32.2395 62.9379 31.1277C62.4432 31.2051 62.3076 31.6416 62.1285 32.0444C61.9658 32.4092 61.9277 32.9938 61.4809 33.0697C61.1432 32.8278 61.501 32.2871 61.6426 31.8281C61.8822 31.0559 62.3834 29.6811 63.5318 30.2096C64.2699 30.5496 64.5381 32.1367 64.4486 33.3924C64.3947 34.1399 64.132 35.0893 63.7473 35.659C63.3791 36.2043 62.7578 36.7572 62.0752 36.4684Z" fill="#4D3D87"/>
<path id="Vector_69" fill-rule="evenodd" clip-rule="evenodd" d="M53.3474 29.4222C52.9095 29.5353 52.796 29.9788 52.646 30.3939C52.497 30.8036 52.488 31.3433 52.1603 31.5806C51.7121 31.5036 51.8626 30.6025 51.9441 30.178C52.1171 29.2839 53.0099 27.7558 54.2113 28.6134C54.8837 29.0931 55.0365 30.4861 54.9662 31.4732C54.8931 32.4911 54.5132 33.7009 53.9951 34.3325C53.8257 34.5394 53.4582 34.8773 53.2392 34.9267C52.7427 35.0359 52.2277 34.7911 52.2152 34.4943C52.1904 33.9593 52.7962 33.3591 53.0246 32.8751C53.3714 32.1366 53.6806 31.2978 53.6712 30.3937C53.6681 30.1245 53.6595 29.6847 53.3474 29.4222Z" fill="#4D3D87"/>
</g>
</g>
</g>
<g id="Group_26">
<g id="Group_27">
<g id="Group_28">
<g id="Group_29">
<path id="Vector_70" fill-rule="evenodd" clip-rule="evenodd" d="M87.461 80.7333C87.4197 81.6378 86.761 82.5624 86.7088 83.6399C86.6694 84.438 86.7735 85.3561 87.0614 86.1719C87.6147 87.7442 89.1733 88.2956 89.758 89.5044C83.5563 92.269 76.6528 94.6093 69.6287 97.1596C67.5928 97.8977 64.1254 99.1993 62.2004 98.4917C60.2947 97.7907 58.7649 93.8079 60.2094 91.687C61.1209 90.351 63.7905 89.1831 66.1903 88.3399C70.7117 86.7555 76.2485 85.2874 80.4442 83.5952C82.984 82.5717 85.2864 81.5848 87.461 80.7333Z" fill="#8F7ECE"/>
<path id="Vector_71" opacity="0.81" fill-rule="evenodd" clip-rule="evenodd" d="M87.461 80.7333C87.4197 81.6378 86.761 82.5624 86.7088 83.6399C86.6694 84.438 86.7735 85.3561 87.0614 86.1719C87.6147 87.7442 89.1733 88.2956 89.758 89.5044C83.5563 92.269 76.6528 94.6093 69.6287 97.1596C67.5928 97.8977 64.1254 99.1993 62.2004 98.4917C60.2947 97.7907 58.7649 93.8079 60.2094 91.687C61.1209 90.351 63.7905 89.1831 66.1903 88.3399C70.7117 86.7555 76.2485 85.2874 80.4442 83.5952C82.984 82.5717 85.2864 81.5848 87.461 80.7333Z" fill="white"/>
<g id="Group_30">
<path id="Vector_72" fill-rule="evenodd" clip-rule="evenodd" d="M82.3329 85.8977C82.3995 86.6971 62.9578 93.6254 62.624 92.7955C62.3886 92.2198 67.3824 90.7436 72.2386 89.0762C77.3228 87.3301 82.2913 85.41 82.3329 85.8977Z" fill="#8F7ECE"/>
<path id="Vector_73" fill-rule="evenodd" clip-rule="evenodd" d="M86.6253 86.6853C86.6919 87.4824 67.2501 94.4113 66.9124 93.5814C66.6797 93.0066 71.6745 91.5308 76.5299 89.8631C81.6169 88.1154 86.5835 86.1959 86.6253 86.6853Z" fill="#8F7ECE"/>
</g>
</g>
<g id="Group_31">
<path id="Vector_74" fill-rule="evenodd" clip-rule="evenodd" d="M61.8937 91.4027C60.5747 92.898 60.8761 96.2332 62.6585 97.1738C70.4849 94.6609 78.5132 91.7408 86.7694 89.4693C87.786 89.1908 89.6991 88.1929 90.1806 89.4693C90.6796 90.7798 88.4753 91.1531 87.5103 91.5418C80.9312 94.1966 73.7167 97.2244 65.9445 99.0304C64.5552 99.3549 62.8939 99.8279 61.729 99.6662C60.8068 99.539 59.6419 98.5914 58.7394 97.9246C54.3374 94.6855 49.6948 90.6552 45.7298 86.9201C44.2214 85.5007 41.929 83.6154 41.1843 81.8931C39.6552 78.3545 42.1839 76.8797 45.0564 75.4533C47.12 74.4287 49.2562 73.7517 51.1183 73.0974C55.848 71.439 59.3892 69.8011 63.1032 68.4005C65.9081 67.3404 69.28 69.7379 71.4032 70.6939C76.0294 72.7781 79.1265 74.1722 83.7173 76.7763C84.907 77.4543 88.8423 79.6154 88.6144 80.9232C88.3734 82.3164 83.8589 83.2916 82.3177 83.8664C75.4353 86.431 68.6857 88.9802 61.8937 91.4027Z" fill="#4D3D87"/>
<path id="Vector_75" opacity="0.21" fill-rule="evenodd" clip-rule="evenodd" d="M58.886 92.2315C57.4432 93.0915 42.2645 79.6286 42.8028 78.9145C43.1546 78.4432 46.3809 81.5534 50.118 84.6548C54.451 88.2497 59.3262 91.97 58.886 92.2315Z" fill="black"/>
</g>
</g>
<g id="Group_32">
<g id="Group_33">
<path id="Vector_76" fill-rule="evenodd" clip-rule="evenodd" d="M45.7642 75.3941C46.0196 74.1782 46.904 73.6015 47.2224 72.4279C47.4376 71.6345 47.3729 70.4679 47.5507 69.5568C48.6479 69.5802 49.745 71.1722 50.6136 72.1447C52.4269 74.1708 53.6605 75.7857 55.6522 77.9823C56.3856 78.7931 57.646 80.3286 58.4202 80.4544C60.1556 80.738 63.0224 79.2591 64.8122 78.6411C69.0823 77.1675 72.2366 75.9554 76.9944 74.6378C79.6687 73.8964 83.3255 73.1904 83.9304 75.9075C84.5028 78.4804 81.886 79.8726 79.7979 80.9472C77.6151 82.0712 75.2735 83.0755 73.3587 83.9023C71.2979 84.7927 69.2544 85.8116 66.6272 86.7396C64.4644 87.5054 61.2968 88.8566 59.0927 88.5074C57.8458 88.3109 56.2239 86.6046 55.2989 85.6945C51.7819 82.2253 49.2321 78.8995 45.7642 75.3941Z" fill="#8F7ECE"/>
<path id="Vector_77" opacity="0.81" fill-rule="evenodd" clip-rule="evenodd" d="M45.7642 75.3941C46.0196 74.1782 46.904 73.6015 47.2224 72.4279C47.4376 71.6345 47.3729 70.4679 47.5507 69.5568C48.6479 69.5802 49.745 71.1722 50.6136 72.1447C52.4269 74.1708 53.6605 75.7857 55.6522 77.9823C56.3856 78.7931 57.646 80.3286 58.4202 80.4544C60.1556 80.738 63.0224 79.2591 64.8122 78.6411C69.0823 77.1675 72.2366 75.9554 76.9944 74.6378C79.6687 73.8964 83.3255 73.1904 83.9304 75.9075C84.5028 78.4804 81.886 79.8726 79.7979 80.9472C77.6151 82.0712 75.2735 83.0755 73.3587 83.9023C71.2979 84.7927 69.2544 85.8116 66.6272 86.7396C64.4644 87.5054 61.2968 88.8566 59.0927 88.5074C57.8458 88.3109 56.2239 86.6046 55.2989 85.6945C51.7819 82.2253 49.2321 78.8995 45.7642 75.3941Z" fill="white"/>
<g id="Group_34">
<path id="Vector_78" fill-rule="evenodd" clip-rule="evenodd" d="M45.2429 74.3283C45.8866 73.7572 52.8634 81.3523 55.9112 84.5047C57.0273 85.6591 58.1296 87.5853 59.3136 87.7767C60.8679 88.0285 64.6337 86.3209 65.978 85.799C70.3552 84.1052 73.7345 82.7132 77.9269 80.6763C79.387 79.966 82.6622 78.7187 83.0712 77.5455C83.3118 76.8459 83.322 75.6498 82.8827 75.2853C82.0308 74.5753 78.6368 75.8123 76.7136 76.3685C71.686 77.8207 67.1261 79.6691 62.0577 81.4332C61.0126 81.7966 59.7851 82.3179 58.9978 82.256C57.7478 82.1599 56.6093 80.43 55.6298 79.4084C52.5595 76.2091 46.9562 70.5697 47.246 69.2957C47.5597 67.9128 62.7608 62.9388 69.0005 62.3607C69.7267 62.2921 71.1706 62.1084 72.2874 62.5127C75.6202 63.7224 79.4573 68.2416 81.8458 71.3865C82.7517 72.5808 83.9892 74.0062 84.2952 75.1677C85.1556 78.4416 83.5655 79.2439 81.4579 80.3808C76.3259 83.1502 71.5819 84.9783 65.8128 87.2341C64.9415 87.575 63.7036 88.1138 62.5065 88.5082C61.2864 88.9082 59.7833 89.4127 58.7259 89.25C57.5733 89.0718 56.0864 86.9654 55.1829 85.9875C52.8132 83.4254 44.7126 74.8013 45.2429 74.3283Z" fill="#EFAD1B"/>
<path id="Vector_79" opacity="0.12" fill-rule="evenodd" clip-rule="evenodd" d="M79.129 73.1322C78.897 73.6386 77.6866 72.4312 77.0448 71.7504C75.8192 70.4412 73.1966 68.1863 71.8646 66.5611C71.0755 65.6013 69.5632 63.8312 70.0349 63.4406C70.4058 63.1359 71.6192 64.5355 72.255 65.2271C73.5946 66.6849 76.2157 69.1367 77.6333 70.6433C78.1946 71.241 79.4249 72.4875 79.129 73.1322Z" fill="white"/>
</g>
<g id="Group_35">
<path id="Vector_80" d="M56.831 83.2246C57.5986 83.9082 58.3384 84.6135 59.106 85.2381C59.3966 85.466 59.7249 85.7018 59.964 85.7998C60.0222 85.8246 60.0662 85.8219 60.0306 85.8158C59.9785 85.8248 60.0718 85.807 60.0888 85.8018L60.2042 85.7694C60.3753 85.7168 60.5587 85.6549 60.7392 85.5912C61.4707 85.3395 62.213 85.0727 62.9499 84.7918C64.4345 84.2625 65.9199 83.7223 67.4298 83.2399C68.3956 82.9281 69.3664 82.6256 70.3501 82.3588C70.9025 82.2074 71.0915 82.4676 70.6197 82.7176C69.6814 83.2123 68.7257 83.6676 67.7626 84.1008C66.3169 84.76 64.8451 85.3475 63.3523 85.9031C62.5994 86.1619 61.8509 86.4293 61.073 86.6543C60.8761 86.7092 60.6824 86.7641 60.4681 86.81L60.2941 86.8424C60.2115 86.8561 60.2087 86.8649 60.0564 86.8695C59.8251 86.8656 59.6742 86.8039 59.5542 86.7467C59.0732 86.5067 58.7974 86.2135 58.4921 85.9229C57.7373 85.1526 57.0896 84.3264 56.4783 83.4766C56.1601 83.0348 56.4109 82.8473 56.831 83.2246Z" fill="#8F7ECE"/>
<path id="Vector_81" fill-rule="evenodd" clip-rule="evenodd" d="M81.5141 76.0877C81.5807 76.8867 62.1379 83.8146 61.8041 82.9855C61.5697 82.4107 66.5633 80.9332 71.4197 79.2662C76.5039 77.5195 81.4713 75.6 81.5141 76.0877Z" fill="#8F7ECE"/>
</g>
</g>
<g id="Group_36">
<path id="Vector_82" fill-rule="evenodd" clip-rule="evenodd" d="M57.614 76.5939C57.7242 77.2514 58.458 78.0996 59.2302 78.89C59.5603 79.2268 60.1042 79.766 60.4404 79.5039C60.8427 79.1916 60.3226 78.4816 60.1365 78.2281C59.5447 77.4277 58.666 76.5799 58.0681 76.2648C57.9113 76.2582 57.691 76.4295 57.614 76.5939Z" fill="white"/>
<path id="Vector_83" fill-rule="evenodd" clip-rule="evenodd" d="M58.4206 79.5899C57.464 80.0746 58.8628 81.9582 59.5142 81.3506C59.796 81.0875 59.4603 79.9236 58.981 79.5965C58.8089 79.4791 58.587 79.5055 58.4206 79.5899Z" fill="white"/>
</g>
</g>
</g>
<g id="Group_37">
<g id="Group_38">
<path id="Vector_84" fill-rule="evenodd" clip-rule="evenodd" d="M47.9133 73.0694C47.6325 72.9218 47.6376 72.3831 47.6526 72.0401C47.7116 70.6794 48.7756 70.1679 50.0032 69.3923C51.6434 68.3552 53.2934 67.4304 54.9079 66.5329C55.9559 65.9501 57.3489 65.045 58.8635 64.9194C60.7129 64.7671 62.4711 65.0138 64.2047 65.2378C68.4094 65.7812 72.2243 66.5011 76.2989 67.3909C77.1194 67.57 78.31 67.6671 78.4071 68.1511C78.5922 69.0767 77.2184 68.9585 76.2981 68.7929C75.6467 68.6761 74.5749 68.4458 73.8627 68.294C69.6098 67.3821 65.8366 66.7612 61.362 66.1731C60.1475 66.0147 58.9293 65.8304 57.8083 66.2927C56.9487 66.6462 56.145 67.419 55.3227 68.0167C53.6881 69.2048 52.1249 70.4105 50.5391 71.6253C49.776 72.2085 49.0372 73.036 47.9133 73.0694Z" fill="#4D3D87"/>
<path id="Vector_85" fill-rule="evenodd" clip-rule="evenodd" d="M75.4158 78.9062C75.9995 79.1186 76.4796 77.7016 76.513 77.3768C76.5997 76.5275 74.5417 73.4635 73.6443 71.9572C73.0615 70.9781 72.3482 69.5701 71.1642 68.7457C69.7181 67.7381 68.1568 67.1008 66.6257 66.4584C62.9134 64.8984 59.438 63.6699 55.6657 62.4568C54.9062 62.2131 53.882 61.7248 53.5722 62.0762C52.9781 62.7476 54.1634 63.3064 54.9976 63.608C55.5888 63.8236 56.5786 64.1473 57.2366 64.3615C61.164 65.6416 64.5599 66.9307 68.5144 68.5834C69.5876 69.0316 70.6755 69.4617 71.3755 70.3756C71.9124 71.0769 72.2046 72.0949 72.5952 72.9775C73.3704 74.734 74.4124 78.5404 75.4158 78.9062Z" fill="#4D3D87"/>
<path id="Vector_86" fill-rule="evenodd" clip-rule="evenodd" d="M58.9862 58.4928C61.9899 58.217 64.642 59.7692 65.2155 62.5108C65.6272 64.4787 64.6836 66.1334 63.7604 67.1678C62.2778 68.8291 59.5811 70.2405 57.0073 70.4266C53.6153 70.6746 50.8067 68.9824 50.953 65.4793C51.0223 63.8006 52.1045 62.3983 53.0489 61.4041C54.2332 60.1569 55.4875 59.2908 57.2989 58.7844C57.8069 58.6414 58.3043 58.5561 58.9862 58.4928ZM55.3776 61.2297C54.4135 61.8561 53.2426 62.9563 52.8161 64.0244C51.6026 67.0619 54.3047 68.7819 57.1243 68.5647C59.8967 68.3514 62.5579 66.5752 63.4688 64.6639C63.6717 64.2385 63.8954 63.6322 63.8772 62.9182C63.8157 60.6613 61.5069 59.6711 59.336 59.8897C57.6479 60.0612 56.4997 60.4996 55.3776 61.2297Z" fill="#4D3D87"/>
<path id="Vector_87" fill-rule="evenodd" clip-rule="evenodd" d="M74.1446 61.0867C77.1493 60.8096 79.8015 62.3621 80.3739 65.1027C80.7864 67.0717 79.8421 68.7264 78.9188 69.7601C77.4362 71.4219 74.7396 72.8332 72.1657 73.0205C68.7737 73.2672 65.9659 71.5764 66.1124 68.0717C66.1818 66.3935 67.2632 64.992 68.2079 63.9965C69.3919 62.7492 70.647 61.8836 72.4575 61.3773C72.9653 61.2353 73.4628 61.149 74.1446 61.0867ZM70.536 63.8226C69.5726 64.449 68.4011 65.5486 67.9745 66.6172C66.762 69.6547 69.4632 71.375 72.2827 71.157C75.0548 70.9437 77.7163 69.168 78.6278 67.2568C78.8314 66.8314 79.054 66.2252 79.0358 65.5107C78.9759 63.2553 76.6665 62.264 74.4946 62.4836C72.806 62.6543 71.6581 63.0931 70.536 63.8226Z" fill="#4D3D87"/>
<path id="Vector_88" opacity="0.6" fill-rule="evenodd" clip-rule="evenodd" d="M55.3764 61.2297C54.4124 61.8561 53.2415 62.9563 52.8149 64.0245C51.6014 67.062 54.3036 68.7819 57.1231 68.5647C59.8956 68.3514 62.5567 66.5752 63.4676 64.6639C63.6706 64.2385 63.8942 63.6323 63.876 62.9182C63.8145 60.6614 61.5057 59.6711 59.3348 59.8897C57.6467 60.0612 56.4985 60.4997 55.3764 61.2297Z" fill="white"/>
<path id="Vector_89" opacity="0.6" fill-rule="evenodd" clip-rule="evenodd" d="M70.5358 63.8226C69.5723 64.449 68.4008 65.5486 67.9742 66.6171C66.7617 69.6547 69.4629 71.375 72.2824 71.157C75.0545 70.9437 77.716 69.1679 78.6276 67.2568C78.8311 66.8314 79.0537 66.2252 79.0356 65.5107C78.9756 63.2552 76.6662 62.264 74.4944 62.4835C72.8057 62.6543 71.6578 63.0931 70.5358 63.8226Z" fill="white"/>
</g>
<g id="Group_39">
<path id="Vector_90" fill-rule="evenodd" clip-rule="evenodd" d="M75.1185 62.2145C75.4603 62.7364 74.3931 62.992 73.8398 63.1153C73.2597 63.2458 72.6605 63.4149 72.555 63.059C72.5007 62.877 72.6825 62.744 72.8261 62.6081C73.1693 62.278 74.5966 61.9604 74.9316 62.0668C74.9935 62.087 75.0816 62.1543 75.1185 62.2145Z" fill="white"/>
<path id="Vector_91" fill-rule="evenodd" clip-rule="evenodd" d="M73.4268 64.0399C73.8262 64.6682 72.1865 65.0481 72.0811 64.452C71.992 63.9479 73.2115 63.6989 73.4268 64.0399Z" fill="white"/>
<path id="Vector_92" fill-rule="evenodd" clip-rule="evenodd" d="M71.6885 63.3022C71.7462 63.3895 71.7883 63.5171 71.7491 63.6323C71.6266 63.9821 70.1782 64.5368 70.047 63.886C69.994 63.6235 70.4202 63.3598 70.8432 63.2141C71.1807 63.096 71.538 63.0721 71.6885 63.3022Z" fill="white"/>
</g>
<g id="Group_40">
<path id="Vector_93" fill-rule="evenodd" clip-rule="evenodd" d="M59.0113 67.7121C58.8289 68.6129 61.1302 68.0053 60.5371 67.3225C60.2277 66.9666 59.3416 67.4115 59.0113 67.7121Z" fill="white"/>
<path id="Vector_94" fill-rule="evenodd" clip-rule="evenodd" d="M57.9402 68.9038C58.0955 68.786 58.351 68.4626 58.0926 68.1687C57.7559 67.7841 56.7486 67.9778 56.3342 67.9792C55.8311 67.9812 54.8824 67.7563 54.6035 68.2501C54.2055 68.954 55.6666 69.0612 56.1695 69.0778C56.4377 69.0859 56.7012 69.0685 56.9277 69.0642C57.3166 69.0566 57.6416 69.1278 57.9402 68.9038Z" fill="white"/>
</g>
</g>
</g>
<g id="Group_41">
<path id="Vector_95" fill-rule="evenodd" clip-rule="evenodd" d="M26.0207 51.571C25.5775 49.851 25.8088 47.2895 24.5981 45.3637C24.3215 44.9225 23.8385 44.4077 23.4412 44.5905C22.8078 44.8817 23.1613 46.8337 23.2129 47.3805C23.3193 48.4768 23.4609 49.3602 23.6434 50.3637C23.1586 49.426 22.7928 48.2153 22.1383 46.9882C21.6746 46.1208 20.6951 44.361 19.9541 44.6456C18.9254 45.0399 20.09 47.9251 20.4098 48.8259C20.8717 50.1237 21.6182 51.9778 22.5498 53.4973C23.4764 55.0104 25.2402 56.8944 26.6836 55.2178C27.0127 54.8333 27.3367 54.2219 27.5951 53.6971C28.1043 52.6594 28.3838 51.6321 28.59 50.494C28.6908 49.9341 28.8287 49.3161 28.7936 48.8079C28.7594 48.2897 28.6205 47.7286 28.0639 47.563C27.1881 47.8723 26.8936 48.7079 26.6262 49.3673C26.3373 50.0753 26.168 50.8432 25.9951 51.5241C26.0037 51.5405 26.0123 51.5565 26.0207 51.571Z" fill="#FF5000"/>
<g id="Group_42">
<g id="Group_43">
<g id="Group_44">
<path id="Vector_96" fill-rule="evenodd" clip-rule="evenodd" d="M36.9072 74.7085C36.8988 76.1579 36.864 77.7118 36.7538 79.1105C36.7197 79.5835 36.7398 80.0933 36.6038 80.4769C36.3632 81.1568 35.4312 81.7808 35.1367 82.6023C34.7982 83.5456 34.8896 84.8933 34.8324 86.1448C34.7732 87.4122 34.7513 88.6614 34.6808 89.8388C34.5279 92.354 34.8665 95.0528 34.1228 96.9237C34.1201 96.9298 34.0857 97.0011 34.0736 97.0245C33.0673 98.8612 29.6659 99.5157 27.1911 99.8073C23.2277 100.274 18.247 100.057 16.9702 97.2773C16.7503 96.7985 16.665 96.1368 16.5652 95.5054C16.0658 92.3642 15.9456 88.9915 15.5523 85.7401C15.4753 85.0935 15.3859 84.445 15.3005 83.8163C15.2138 83.1814 15.1294 82.5466 14.9466 82.0462C14.6433 81.2243 13.8292 80.8698 13.5283 80.1234C12.9749 78.7444 13.2437 76.3825 13.2257 74.5568C13.7964 73.9921 14.5044 73.5636 15.2499 73.1398C17.4097 71.915 20.1804 71.2698 23.4978 71.1155C26.1175 70.9946 29.0786 71.3593 31.3415 71.8245C33.771 72.3247 35.974 73.1194 36.9072 74.7085Z" fill="#4D3D87"/>
<path id="Vector_97" fill-rule="evenodd" clip-rule="evenodd" d="M35.459 75.8142C35.521 76.2427 35.0628 76.4322 34.7725 76.6011C30.4671 79.107 22.1465 79.0675 16.1565 77.5732C15.794 77.4828 15.3434 77.38 15.1114 77.0818C15.0569 76.8408 15.2895 76.8451 15.426 76.738C15.7313 76.499 16.0801 76.1425 16.4684 75.9123C17.5876 75.2531 19.0641 74.7203 20.5721 74.3851C24.9512 73.4103 31.5227 73.5271 35.0563 75.699C35.1577 75.9662 35.4192 75.5896 35.459 75.8142Z" fill="#EFAD1B"/>
<g id="Group_45">
<path id="Vector_98" fill-rule="evenodd" clip-rule="evenodd" d="M24.61 71.0156C27.2157 70.8908 29.834 71.1066 31.9983 71.6219C33.0899 71.883 33.8893 72.0551 35.0334 72.5836C35.9327 72.9973 36.9948 73.7408 37.1082 74.5061C37.2746 75.6262 36.3932 76.5764 35.642 77.0879C34.7717 77.6797 33.7317 77.9881 32.7569 78.2512C30.569 78.8373 27.9131 78.9598 25.4192 78.9598C23.0854 78.9598 20.2899 78.9022 17.9811 78.3525C17.0475 78.1293 16.0178 77.7365 15.0477 77.2389C14.169 76.7887 13.1778 76.0479 13.0737 75.2147C12.8036 73.0953 16.0625 72.3389 17.6276 71.9258C19.8311 71.3438 21.9032 71.1441 24.61 71.0156ZM16.312 76.4295C18.8412 77.3008 22.0254 77.4816 25.2688 77.5934C28.7481 77.7139 31.559 77.1762 33.9207 76.1764C34.4403 75.9565 35.9289 75.4318 35.8938 74.7594C35.8643 74.1893 34.4553 73.6016 33.82 73.3428C31.2916 72.3127 27.9893 72.0135 24.4584 72.1779C21.5991 72.3152 18.2704 72.8551 16.1092 73.7473C15.353 74.0586 14.5459 74.4697 14.2364 75.1637C14.6629 75.8565 15.5102 76.1533 16.312 76.4295Z" fill="#8F7ECE"/>
</g>
</g>
<path id="Vector_99" opacity="0.21" fill-rule="evenodd" clip-rule="evenodd" d="M16.4133 82.5026C20.0163 83.0737 22.7323 83.2571 26.0276 83.1081C29.6639 82.9435 35.0336 81.7427 35.0336 81.7427C35.0336 81.7427 31.9145 83.8931 26.0782 84.1204C22.426 84.2634 18.8782 83.8329 16.4133 82.5026Z" fill="black"/>
<g id="Group_46">
<path id="Vector_100" fill-rule="evenodd" clip-rule="evenodd" d="M19.4372 94.9919C18.7316 95.1791 18.8478 97.6355 19.7415 97.4011C20.3671 97.2384 20.0745 95.1921 19.4372 94.9919Z" fill="white"/>
<path id="Vector_101" fill-rule="evenodd" clip-rule="evenodd" d="M18.5201 93.4306C19.1062 93.3974 19.0158 92.7756 19.0355 92.2892C19.0529 91.8588 19.1748 91.3268 19.1631 90.9525C19.15 90.4588 19.0187 89.8379 18.659 89.6611C18.2398 90.0268 18.1695 90.8291 18.115 91.4588C18.0619 92.0779 17.9789 92.9242 18.5201 93.4306Z" fill="white"/>
<path id="Vector_102" fill-rule="evenodd" clip-rule="evenodd" d="M18.2791 87.5197C18.8666 86.942 18.7766 86.0234 18.801 85.163C18.6824 85.1556 18.5844 85.1058 18.5104 85.0154C18.0766 85.1349 17.9276 85.8294 17.8713 86.2773C17.8154 86.7306 17.717 87.4564 18.2791 87.5197Z" fill="white"/>
<path id="Vector_103" fill-rule="evenodd" clip-rule="evenodd" d="M21.0133 90.4254C21.5606 90.1037 21.6637 88.7135 20.95 88.5043C20.2387 88.7355 20.2983 90.2375 21.0133 90.4254Z" fill="white"/>
</g>
</g>
<g id="Group_47">
<g id="Group_48">
<path id="Vector_104" fill-rule="evenodd" clip-rule="evenodd" d="M21.1599 73.769C21.3099 74.4793 21.4648 75.1879 21.6289 75.8944H28.5929C28.8828 75.4991 29.0806 74.6026 29.2822 73.9518C29.9344 71.8503 30.5496 69.7835 30.814 67.6114C31.0062 66.0176 30.9537 64.5344 30.8586 63.1006C30.7539 61.543 30.5078 59.7016 29.8775 58.2913C29.2717 56.9278 28.2439 55.6729 27.3385 55.2889C26.1986 54.8055 23.8935 55.212 22.409 55.8764C20.8119 56.5915 19.8056 57.6171 19.3711 58.7217C18.8595 60.0196 18.9252 61.8469 19.0888 63.4829C19.4254 66.8592 20.4439 70.3747 21.1599 73.769Z" fill="#B1BC00"/>
<g id="Group_49">
<path id="Vector_105" opacity="0.21" d="M21.8424 75.0398C21.8766 75.3259 21.9201 75.6099 21.9629 75.8944H22.9672C22.7121 73.7501 22.3844 71.5726 22.1551 69.4148C21.9506 67.4899 21.75 65.5487 21.6604 63.556C21.574 61.6771 21.342 59.5929 21.8488 57.9372C22.1106 57.0839 22.6123 56.3759 23.0469 55.6255C22.8232 55.7038 22.6084 55.7882 22.4096 55.8763C22.327 55.9134 22.2529 55.9546 22.1732 55.9925C21.8994 56.4239 21.6359 56.8702 21.4482 57.3036C20.7553 58.896 20.8229 61.1823 20.8721 63.0091C20.9785 66.9466 21.3557 70.9735 21.8424 75.0398Z" fill="black"/>
<path id="Vector_106" opacity="0.21" d="M24.395 75.8945H25.3454C25.3922 73.0732 25.2667 70.182 25.2075 67.2885C25.1667 65.2207 24.8282 63.0181 24.7475 60.8054C24.7114 59.7945 24.7977 58.7043 24.8473 57.6592C24.8891 56.8066 24.9729 55.951 24.9612 55.1595C24.7967 55.1824 24.6307 55.2111 24.4641 55.2435C23.6749 59.0472 24.1987 63.0877 24.3071 67.106C24.3842 70.0166 24.2915 72.9396 24.395 75.8945Z" fill="black"/>
<path id="Vector_107" opacity="0.21" d="M26.9201 60.3655C27.8102 65.7503 27.3238 70.8642 26.8498 75.8948H27.7225C27.865 74.9753 27.9746 74.0112 28.0535 73.1575C28.2402 71.1595 28.2561 69.0542 28.3059 67.0792C28.3578 65.0349 28.2617 62.9317 27.874 60.7626C27.5373 58.8743 26.8705 57.0315 26.2934 55.0839C26.1035 55.0755 25.9037 55.0763 25.6982 55.0862C25.7297 55.2331 25.7658 55.377 25.7936 55.5144C26.1164 57.0712 26.6557 58.7714 26.9201 60.3655Z" fill="black"/>
</g>
</g>
<g id="Group_50">
<g id="Group_51">
<path id="Vector_108" fill-rule="evenodd" clip-rule="evenodd" d="M19.9114 59.2638C20.1167 59.9836 20.8225 60.1787 21.2731 60.5332C21.35 60.8056 20.9135 60.9298 21.0944 61.2345C21.2862 61.3882 21.6059 61.1281 21.8901 60.9898C22.3504 61.0123 22.7918 61.749 23.2983 61.2021C23.2672 60.8021 22.8487 60.6213 22.6053 60.4834C22.77 60.0824 23.3434 59.7996 22.9899 59.2464C22.5416 59.2029 22.3194 59.7505 21.9643 59.9798C21.2256 59.9123 20.7356 59.0505 19.9114 59.2638Z" fill="white"/>
<path id="Vector_109" fill-rule="evenodd" clip-rule="evenodd" d="M27.8318 60.1003C27.5425 59.8757 27.3253 59.4185 26.9216 59.5577C26.9455 59.6046 26.8828 59.6263 26.8513 59.6568C26.8958 60.0605 27.2771 60.4079 27.5044 60.6406C27.4566 60.9445 26.8246 61.079 26.9394 61.4288C27.1316 61.3669 27.3224 61.3073 27.5396 61.1671C27.6611 61.4925 27.4482 61.8919 27.3951 62.2751C27.3408 62.6765 27.3074 63.1019 27.374 63.5003C27.6384 63.2978 27.7867 62.8589 27.8847 62.4982C27.9892 62.1114 28.032 61.688 28.1263 61.3376C28.5455 61.6429 29.0904 62.0888 29.4841 62.4874C29.605 62.6107 29.6267 62.8911 29.8541 62.8335C30.2066 62.615 29.8414 62.1935 29.7152 61.9984C29.3945 61.507 28.7451 61.0156 28.4498 60.6775C28.7367 60.3652 29.4269 60.1679 29.0828 59.6712C28.907 59.6491 28.6158 59.8583 28.5064 59.9808C28.4816 59.47 28.8783 59.0829 28.7169 58.5333C27.9837 58.7718 28.1345 59.6046 27.8318 60.1003Z" fill="white"/>
<path id="Vector_110" fill-rule="evenodd" clip-rule="evenodd" d="M23.9206 64.0812C23.6313 64.4878 23.9946 65.0824 24.2704 65.6515C23.9718 65.631 23.7794 65.2652 23.4399 65.371C23.5341 65.8601 24.0278 66.1212 24.3341 66.3451C24.2229 66.6296 23.6913 66.7929 23.771 67.1333C24.0485 67.0962 24.3946 66.8398 24.706 66.6915C25.2269 67.4118 25.6485 68.4503 26.1899 69.1081C26.4755 68.6492 25.9493 67.9533 25.7394 67.349C26.1989 67.4066 26.4896 68.0134 27.0556 67.7329C26.929 66.9031 25.8923 66.8837 25.4026 66.3773C25.6597 66.0697 26.3222 65.8784 26.3526 65.5033C26.3091 65.4249 26.2683 65.3466 26.2251 65.2693C25.8247 65.2107 25.4806 65.6632 25.0511 65.8386C24.7364 65.2712 24.5396 64.1445 23.9206 64.0812Z" fill="white"/>
<path id="Vector_111" fill-rule="evenodd" clip-rule="evenodd" d="M24.5239 72.6705C24.4396 73.0307 23.8511 73.243 24.0851 73.6941C24.3823 73.7096 24.5497 73.3932 24.8521 73.2815C25.169 73.8512 25.6052 74.7426 25.9446 75.3305H26.0929C26.2214 74.7518 25.7698 74.0063 25.6282 73.3498C25.9991 73.3986 26.2509 73.8291 26.7245 73.5506C26.844 72.9748 26.0855 72.8553 25.7337 72.627C25.9579 72.2373 26.8815 71.9307 26.678 71.5123C26.4239 70.9881 25.6376 71.8129 25.2138 72.1176C24.8372 71.7983 24.8171 70.5885 24.1874 70.6678C23.928 70.9764 24.1612 71.4279 24.336 71.8621C24.0374 71.9676 23.8751 71.6319 23.5591 71.7945C23.6644 72.2869 24.1882 72.4955 24.5239 72.6705Z" fill="white"/>
</g>
<g id="Group_52">
<path id="Vector_112" fill-rule="evenodd" clip-rule="evenodd" d="M19.9114 59.2638C20.1167 59.9836 20.8225 60.1787 21.2731 60.5332C21.35 60.8056 20.9135 60.9298 21.0944 61.2345C21.2862 61.3882 21.6059 61.1281 21.8901 60.9898C22.3504 61.0123 22.7918 61.749 23.2983 61.2021C23.2672 60.8021 22.8487 60.6213 22.6053 60.4834C22.77 60.0824 23.3434 59.7996 22.9899 59.2464C22.5416 59.2029 22.3194 59.7505 21.9643 59.9798C21.2256 59.9123 20.7356 59.0505 19.9114 59.2638Z" fill="#B1BC00"/>
<path id="Vector_113" fill-rule="evenodd" clip-rule="evenodd" d="M27.8318 60.1003C27.5425 59.8757 27.3253 59.4185 26.9216 59.5577C26.9455 59.6046 26.8828 59.6263 26.8513 59.6568C26.8958 60.0605 27.2771 60.4079 27.5044 60.6406C27.4566 60.9445 26.8246 61.079 26.9394 61.4288C27.1316 61.3669 27.3224 61.3073 27.5396 61.1671C27.6611 61.4925 27.4482 61.8919 27.3951 62.2751C27.3408 62.6765 27.3074 63.1019 27.374 63.5003C27.6384 63.2978 27.7867 62.8589 27.8847 62.4982C27.9892 62.1114 28.032 61.688 28.1263 61.3376C28.5455 61.6429 29.0904 62.0888 29.4841 62.4874C29.605 62.6107 29.6267 62.8911 29.8541 62.8335C30.2066 62.615 29.8414 62.1935 29.7152 61.9984C29.3945 61.507 28.7451 61.0156 28.4498 60.6775C28.7367 60.3652 29.4269 60.1679 29.0828 59.6712C28.907 59.6491 28.6158 59.8583 28.5064 59.9808C28.4816 59.47 28.8783 59.0829 28.7169 58.5333C27.9837 58.7718 28.1345 59.6046 27.8318 60.1003Z" fill="#B1BC00"/>
<path id="Vector_114" fill-rule="evenodd" clip-rule="evenodd" d="M23.9206 64.0812C23.6313 64.4878 23.9946 65.0824 24.2704 65.6515C23.9718 65.631 23.7794 65.2652 23.4399 65.371C23.5341 65.8601 24.0278 66.1212 24.3341 66.3451C24.2229 66.6296 23.6913 66.7929 23.771 67.1333C24.0485 67.0962 24.3946 66.8398 24.706 66.6915C25.2269 67.4118 25.6485 68.4503 26.1899 69.1081C26.4755 68.6492 25.9493 67.9533 25.7394 67.349C26.1989 67.4066 26.4896 68.0134 27.0556 67.7329C26.929 66.9031 25.8923 66.8837 25.4026 66.3773C25.6597 66.0697 26.3222 65.8784 26.3526 65.5033C26.3091 65.4249 26.2683 65.3466 26.2251 65.2693C25.8247 65.2107 25.4806 65.6632 25.0511 65.8386C24.7364 65.2712 24.5396 64.1445 23.9206 64.0812Z" fill="#B1BC00"/>
<path id="Vector_115" fill-rule="evenodd" clip-rule="evenodd" d="M24.5239 72.6705C24.4396 73.0307 23.8511 73.243 24.0851 73.6941C24.3823 73.7096 24.5497 73.3932 24.8521 73.2815C25.169 73.8512 25.6052 74.7426 25.9446 75.3305H26.0929C26.2214 74.7518 25.7698 74.0063 25.6282 73.3498C25.9991 73.3986 26.2509 73.8291 26.7245 73.5506C26.844 72.9748 26.0855 72.8553 25.7337 72.627C25.9579 72.2373 26.8815 71.9307 26.678 71.5123C26.4239 70.9881 25.6376 71.8129 25.2138 72.1176C24.8372 71.7983 24.8171 70.5885 24.1874 70.6678C23.928 70.9764 24.1612 71.4279 24.336 71.8621C24.0374 71.9676 23.8751 71.6319 23.5591 71.7945C23.6644 72.2869 24.1882 72.4955 24.5239 72.6705Z" fill="#B1BC00"/>
</g>
<g id="Group_53" opacity="0.21">
<path id="Vector_116" opacity="0.21" fill-rule="evenodd" clip-rule="evenodd" d="M19.9114 59.2638C20.1167 59.9836 20.8225 60.1787 21.2731 60.5332C21.35 60.8056 20.9135 60.9298 21.0944 61.2345C21.2862 61.3882 21.6059 61.1281 21.8901 60.9898C22.3504 61.0123 22.7918 61.749 23.2983 61.2021C23.2672 60.8021 22.8487 60.6213 22.6053 60.4834C22.77 60.0824 23.3434 59.7996 22.9899 59.2464C22.5416 59.2029 22.3194 59.7505 21.9643 59.9798C21.2256 59.9123 20.7356 59.0505 19.9114 59.2638Z" fill="black"/>
<path id="Vector_117" opacity="0.21" fill-rule="evenodd" clip-rule="evenodd" d="M27.8318 60.1003C27.5425 59.8757 27.3253 59.4185 26.9216 59.5577C26.9455 59.6046 26.8828 59.6263 26.8513 59.6568C26.8958 60.0605 27.2771 60.4079 27.5044 60.6406C27.4566 60.9445 26.8246 61.079 26.9394 61.4288C27.1316 61.3669 27.3224 61.3073 27.5396 61.1671C27.6611 61.4925 27.4482 61.8919 27.3951 62.2751C27.3408 62.6765 27.3074 63.1019 27.374 63.5003C27.6384 63.2978 27.7867 62.8589 27.8847 62.4982C27.9892 62.1114 28.032 61.688 28.1263 61.3376C28.5455 61.6429 29.0904 62.0888 29.4841 62.4874C29.605 62.6107 29.6267 62.8911 29.8541 62.8335C30.2066 62.615 29.8414 62.1935 29.7152 61.9984C29.3945 61.507 28.7451 61.0156 28.4498 60.6775C28.7367 60.3652 29.4269 60.1679 29.0828 59.6712C28.907 59.6491 28.6158 59.8583 28.5064 59.9808C28.4816 59.47 28.8783 59.0829 28.7169 58.5333C27.9837 58.7718 28.1345 59.6046 27.8318 60.1003Z" fill="black"/>
<path id="Vector_118" opacity="0.21" fill-rule="evenodd" clip-rule="evenodd" d="M23.9206 64.0812C23.6313 64.4878 23.9946 65.0824 24.2704 65.6515C23.9718 65.631 23.7794 65.2652 23.4399 65.371C23.5341 65.8601 24.0278 66.1212 24.3341 66.3451C24.2229 66.6296 23.6913 66.7929 23.771 67.1333C24.0485 67.0962 24.3946 66.8398 24.706 66.6915C25.2269 67.4118 25.6485 68.4503 26.1899 69.1081C26.4755 68.6492 25.9493 67.9533 25.7394 67.349C26.1989 67.4066 26.4896 68.0134 27.0556 67.7329C26.929 66.9031 25.8923 66.8837 25.4026 66.3773C25.6597 66.0697 26.3222 65.8784 26.3526 65.5033C26.3091 65.4249 26.2683 65.3466 26.2251 65.2693C25.8247 65.2107 25.4806 65.6632 25.0511 65.8386C24.7364 65.2712 24.5396 64.1445 23.9206 64.0812Z" fill="black"/>
<path id="Vector_119" opacity="0.21" fill-rule="evenodd" clip-rule="evenodd" d="M24.5239 72.6705C24.4396 73.0307 23.8511 73.243 24.0851 73.6941C24.3823 73.7096 24.5497 73.3932 24.8521 73.2815C25.169 73.8512 25.6052 74.7426 25.9446 75.3305H26.0929C26.2214 74.7518 25.7698 74.0063 25.6282 73.3498C25.9991 73.3986 26.2509 73.8291 26.7245 73.5506C26.844 72.9748 26.0855 72.8553 25.7337 72.627C25.9579 72.2373 26.8815 71.9307 26.678 71.5123C26.4239 70.9881 25.6376 71.8129 25.2138 72.1176C24.8372 71.7983 24.8171 70.5885 24.1874 70.6678C23.928 70.9764 24.1612 71.4279 24.336 71.8621C24.0374 71.9676 23.8751 71.6319 23.5591 71.7945C23.6644 72.2869 24.1882 72.4955 24.5239 72.6705Z" fill="black"/>
</g>
<g id="Group_54" opacity="0.21">
<path id="Vector_120" opacity="0.21" fill-rule="evenodd" clip-rule="evenodd" d="M19.9114 59.2638C20.1167 59.9836 20.8225 60.1787 21.2731 60.5332C21.35 60.8056 20.9135 60.9298 21.0944 61.2345C21.2862 61.3882 21.6059 61.1281 21.8901 60.9898C22.3504 61.0123 22.7918 61.749 23.2983 61.2021C23.2672 60.8021 22.8487 60.6213 22.6053 60.4834C22.77 60.0824 23.3434 59.7996 22.9899 59.2464C22.5416 59.2029 22.3194 59.7505 21.9643 59.9798C21.2256 59.9123 20.7356 59.0505 19.9114 59.2638Z" fill="black"/>
<path id="Vector_121" opacity="0.21" fill-rule="evenodd" clip-rule="evenodd" d="M27.8318 60.1003C27.5425 59.8757 27.3253 59.4185 26.9216 59.5577C26.9455 59.6046 26.8828 59.6263 26.8513 59.6568C26.8958 60.0605 27.2771 60.4079 27.5044 60.6406C27.4566 60.9445 26.8246 61.079 26.9394 61.4288C27.1316 61.3669 27.3224 61.3073 27.5396 61.1671C27.6611 61.4925 27.4482 61.8919 27.3951 62.2751C27.3408 62.6765 27.3074 63.1019 27.374 63.5003C27.6384 63.2978 27.7867 62.8589 27.8847 62.4982C27.9892 62.1114 28.032 61.688 28.1263 61.3376C28.5455 61.6429 29.0904 62.0888 29.4841 62.4874C29.605 62.6107 29.6267 62.8911 29.8541 62.8335C30.2066 62.615 29.8414 62.1935 29.7152 61.9984C29.3945 61.507 28.7451 61.0156 28.4498 60.6775C28.7367 60.3652 29.4269 60.1679 29.0828 59.6712C28.907 59.6491 28.6158 59.8583 28.5064 59.9808C28.4816 59.47 28.8783 59.0829 28.7169 58.5333C27.9837 58.7718 28.1345 59.6046 27.8318 60.1003Z" fill="black"/>
<path id="Vector_122" opacity="0.21" fill-rule="evenodd" clip-rule="evenodd" d="M23.9206 64.0812C23.6313 64.4878 23.9946 65.0824 24.2704 65.6515C23.9718 65.631 23.7794 65.2652 23.4399 65.371C23.5341 65.8601 24.0278 66.1212 24.3341 66.3451C24.2229 66.6296 23.6913 66.7929 23.771 67.1333C24.0485 67.0962 24.3946 66.8398 24.706 66.6915C25.2269 67.4118 25.6485 68.4503 26.1899 69.1081C26.4755 68.6492 25.9493 67.9533 25.7394 67.349C26.1989 67.4066 26.4896 68.0134 27.0556 67.7329C26.929 66.9031 25.8923 66.8837 25.4026 66.3773C25.6597 66.0697 26.3222 65.8784 26.3526 65.5033C26.3091 65.4249 26.2683 65.3466 26.2251 65.2693C25.8247 65.2107 25.4806 65.6632 25.0511 65.8386C24.7364 65.2712 24.5396 64.1445 23.9206 64.0812Z" fill="black"/>
<path id="Vector_123" opacity="0.21" fill-rule="evenodd" clip-rule="evenodd" d="M24.5239 72.6705C24.4396 73.0307 23.8511 73.243 24.0851 73.6941C24.3823 73.7096 24.5497 73.3932 24.8521 73.2815C25.169 73.8512 25.6052 74.7426 25.9446 75.3305H26.0929C26.2214 74.7518 25.7698 74.0063 25.6282 73.3498C25.9991 73.3986 26.2509 73.8291 26.7245 73.5506C26.844 72.9748 26.0855 72.8553 25.7337 72.627C25.9579 72.2373 26.8815 71.9307 26.678 71.5123C26.4239 70.9881 25.6376 71.8129 25.2138 72.1176C24.8372 71.7983 24.8171 70.5885 24.1874 70.6678C23.928 70.9764 24.1612 71.4279 24.336 71.8621C24.0374 71.9676 23.8751 71.6319 23.5591 71.7945C23.6644 72.2869 24.1882 72.4955 24.5239 72.6705Z" fill="black"/>
</g>
</g>
</g>
</g>
</g>
</g>
</g>
</g>
</svg>
