<svg width="100" height="100" viewBox="0 0 100 100" fill="none" xmlns="http://www.w3.org/2000/svg">
<g id="biology 1">
<g id="Group">
<g id="Group_2">
<g id="Group_3">
<path id="Vector" d="M86.0119 91.1695L85.9196 91.844C85.7864 92.8148 84.8912 93.4943 83.9203 93.3615L33.885 86.4998C32.9141 86.3666 32.2348 85.4711 32.368 84.5002L32.4604 83.8262L86.0119 91.1695Z" fill="#8F7ECE"/>
<path id="Vector_2" d="M37.1674 49.4965C37.301 48.525 38.1961 47.8459 39.168 47.9793L89.2024 54.8404C90.1729 54.9736 90.8531 55.8689 90.7193 56.8402L86.0115 91.1697L32.46 83.8262L37.1674 49.4965Z" fill="#8F7ECE"/>
<path id="Vector_3" opacity="0.75" d="M84.63 90.9736L89.1644 57.9068C89.291 56.9861 88.6472 56.1367 87.7259 56.0105L40.2746 49.5033C39.3533 49.3773 38.5048 50.0214 38.3792 50.9425L33.8445 84.0093L84.63 90.9736Z" fill="white"/>
</g>
<g id="Group_4">
<path id="Vector_4" fill-rule="evenodd" clip-rule="evenodd" d="M84.9079 86.8869C84.3471 87.5078 84.0876 88.8947 83.9151 90.2731C83.8411 90.8627 83.7376 91.819 84.2575 91.9453C84.8821 92.0969 85.1733 91.0285 85.2747 90.6463C85.5997 89.4363 85.7469 87.9094 85.5872 87.0731C85.4719 86.9127 85.1305 86.8319 84.9079 86.8869Z" fill="white"/>
<path id="Vector_5" fill-rule="evenodd" clip-rule="evenodd" d="M82.5926 90.0252C81.3658 89.4635 80.609 92.3157 81.7152 92.4815C82.1961 92.5528 83.077 91.31 83.0246 90.5828C83.0041 90.3225 82.8053 90.1229 82.5926 90.0252Z" fill="white"/>
</g>
<g id="Group_5">
<path id="Vector_6" fill-rule="evenodd" clip-rule="evenodd" d="M60.0105 53.066C60.0105 64.1088 68.9628 73.0606 80.0054 73.0606C91.047 73.0606 99.9996 64.109 99.9996 53.066C99.9996 42.0235 91.0472 33.0715 80.0054 33.0715C68.9628 33.0715 60.0105 42.0235 60.0105 53.066Z" fill="#EFAD1B"/>
<g id="Group_6">
<g id="Group_7">
<path id="Vector_7" d="M85.2867 67.3016C85.533 66.4411 85.7289 65.5934 86.4263 65.0825C86.6625 64.91 87.0812 64.7698 87.4435 64.6883C88.2191 64.5143 89.0002 64.5452 89.8277 64.5434C90.6691 64.5417 91.5578 64.4739 92.0881 64.0872C92.4592 63.8169 92.6412 63.3782 92.7513 62.884C92.8734 62.3421 92.8773 61.6948 92.6687 61.163C92.63 61.0641 92.5763 60.9592 92.5234 60.8307C92.4787 60.721 92.4408 60.6161 92.3787 60.4784C92.3306 60.3725 92.2943 60.3143 92.2539 60.1674C92.2224 60.052 92.183 59.8426 92.2131 59.6903C92.3099 59.1926 92.9304 59.0118 92.9384 58.4876C92.9402 58.3614 92.9381 58.2698 92.8758 58.1971C92.8388 58.153 92.7093 58.0686 92.6894 57.969C92.6556 57.7907 92.9162 57.5762 92.9384 57.3471C92.981 56.9067 92.5402 56.6696 92.5232 56.2272C92.5117 55.9051 92.6715 55.6401 92.8966 55.46C92.9287 55.434 92.9828 55.4284 93.0218 55.3977C93.0547 55.3708 93.072 55.3147 93.1043 55.294C93.1847 55.243 93.289 55.2194 93.3742 55.1694C93.6646 54.9987 93.9824 54.7483 94.1201 54.4643C94.2937 54.1081 94.2275 53.612 94.0168 53.2409C93.9711 53.161 93.8881 53.0747 93.8299 52.9921C93.6674 52.7588 93.4752 52.5338 93.2701 52.3075C92.7506 51.734 92.1685 51.1981 91.6314 50.6282C91.4254 50.4085 91.2398 50.2087 91.0508 49.9643C90.9043 49.7745 90.6968 49.5657 90.5748 49.3212C90.5593 49.2917 90.5531 49.2204 90.533 49.176C90.3611 48.7952 90.414 48.1911 90.4496 47.7452C90.4914 47.2221 90.5789 46.7243 90.4914 46.1282C90.3945 45.4641 90.0429 44.8006 89.7238 44.2612C89.5547 43.9741 89.3824 43.7036 89.2056 43.4522C88.3252 42.2044 87.1541 40.9178 86.0326 40.0508C85.8457 39.9067 85.6601 39.7756 85.4527 39.6364C85.2636 39.5098 85.0922 39.3946 84.8916 39.2837C84.6158 39.1309 84.3463 38.9702 84.0418 38.8272C83.0246 38.3514 81.9041 37.9768 80.6822 37.7905C80.322 37.7362 79.9586 37.7044 79.5826 37.6663C79.2162 37.629 78.8398 37.578 78.4629 37.5626C78.2111 37.5522 77.9771 37.5856 77.7379 37.5836C76.0543 37.5657 74.5422 37.9178 73.3199 38.4751C73.1484 38.5534 72.9869 38.6424 72.8222 38.7237C72.3117 38.9764 71.8375 39.2178 71.35 39.5116C70.8687 39.8022 70.5002 40.1354 70.1058 40.5069C69.8537 40.7456 69.6162 40.9989 69.38 41.2743C69.266 41.4075 69.1468 41.5487 69.0697 41.71C68.9476 41.7862 68.8953 41.9254 68.8203 42.0419C68.747 42.1559 68.6591 42.2587 68.5922 42.3737C68.5277 42.4833 68.4892 42.6108 68.4265 42.7262C68.2923 42.971 68.1744 43.1997 68.0527 43.4932C68.0193 43.5756 67.9658 43.6651 67.9289 43.7631C67.9173 43.7924 67.9373 43.8235 67.9289 43.8458C67.8271 44.1112 67.7347 44.3764 67.6589 44.6547C67.5488 45.0631 67.4564 45.4569 67.389 45.9204C67.3521 46.1794 67.306 46.5049 67.2851 46.8534C67.2677 47.1577 67.2629 47.4801 67.2652 47.8282C67.2746 49.1665 67.5023 50.5016 67.8256 51.6854C67.8632 51.8245 67.9271 51.9602 67.9703 52.1003C68.5136 53.8848 69.2875 55.2565 70.231 56.6003C70.3824 56.8161 70.5675 57.0137 70.7287 57.2225C70.8908 57.4335 71.0502 57.6469 71.205 57.8655C71.5199 58.3079 71.8289 58.7534 72.0974 59.2342C72.3656 59.7165 72.6129 60.2327 72.7812 60.7899C72.8714 61.0887 72.9681 61.4085 72.989 61.7227C73.0662 62.9171 71.5164 67.868 70.6879 70.7592C73.4703 72.2282 76.6402 73.0606 80.006 73.0606C81.2394 73.0606 82.447 72.9483 83.6187 72.7341C84.1394 71.0579 84.6927 69.2643 84.8507 68.7327C84.9892 68.2653 85.1472 67.7852 85.2867 67.3016Z" fill="white"/>
<g id="Group_8">
<path id="Vector_8" opacity="0.67" d="M80.3055 66.057C80.1702 65.3797 79.8016 64.8732 79.6987 64.1908C79.5938 63.5031 79.8176 62.9287 80.0969 62.5113C80.8481 61.3885 82.3555 61.1385 83.9151 60.8518C84.4278 60.7578 85.0321 60.6098 85.643 60.6031C86.2557 60.5959 87.0403 60.5879 87.2954 60.9141C87.5094 61.1873 87.4348 61.8539 87.5042 62.366C87.5516 62.7164 87.6911 63.382 88.0932 63.382C88.3934 63.382 88.4977 63.0371 88.5297 62.7805C88.567 62.4893 88.5684 62.0859 88.5684 61.7644C88.5684 61.0271 88.6799 60.2076 88.5297 59.7527C88.2264 58.8334 86.9745 58.7846 85.7762 58.9228C84.1645 59.109 82.9565 59.5879 81.5975 60.0428C81.2778 60.15 80.9444 60.2748 80.5911 60.375C80.2719 60.4656 79.8243 60.5805 79.4706 60.5617C79.2215 60.548 78.8454 60.4234 78.7682 60.1262C78.6911 59.8359 78.8387 59.4723 78.9387 59.2342C79.4883 57.9213 80.6885 57.5129 82.1292 57.1814C83.2827 56.9156 84.484 56.8437 85.8333 56.9531C87.401 57.0801 88.8385 57.3797 90.3729 57.2432C90.7133 57.2129 90.9993 57.082 91.0376 56.8697C91.1077 56.483 90.6872 56.0355 90.5061 55.7918C90.2512 55.4488 90.0374 55.1664 89.8028 54.8998C89.2807 54.3064 88.779 53.7594 88.3026 53.2205C87.7893 52.6387 87.2481 52.1285 86.5165 51.851C85.7674 51.5666 84.8161 51.5711 83.801 51.5195C83.0542 51.4814 81.6432 51.4041 81.0844 51.7271C80.6301 51.9889 80.3944 52.6309 80.2684 53.2613C80.1756 53.7252 80.1411 54.2314 79.9829 54.6508C79.6624 55.5045 78.9249 55.9777 78.1977 56.4344C77.6875 56.7547 77.0629 57.1008 76.7348 57.6373C76.225 58.4723 76.2989 59.7941 76.242 61.1418C76.1319 63.7191 76.068 66.3537 75.576 68.5045C75.3571 69.4672 74.6233 71.1391 74.2659 72.2228C75.7417 72.6644 77.2879 72.9406 78.8854 73.0289C79.3426 71.4348 79.8112 69.4303 80.1538 68.0687C80.3104 67.449 80.4471 66.7633 80.3055 66.057Z" fill="#CAD309"/>
<g id="Group_9">
<path id="Vector_9" opacity="0.29" fill-rule="evenodd" clip-rule="evenodd" d="M83.0466 52.5563C82.6323 52.7208 82.4237 53.2583 82.2386 53.6762C82.0409 54.121 81.8466 54.5872 81.6366 54.9413C81.2181 55.6493 80.5564 56.3173 79.8333 56.8696C79.1745 57.3725 78.4259 57.9262 77.5931 58.3632C77.2196 58.5589 76.731 58.7891 76.2243 58.8606C75.7128 58.9329 75.1196 58.8333 74.7308 58.5083C74.1648 58.0348 74.2603 56.9887 74.5444 56.2891C74.9302 55.3386 75.5611 54.6788 76.2245 54.0288C76.5269 53.7323 76.9669 53.3516 77.0335 52.8673C77.07 52.6009 77.0042 52.3284 76.971 52.1001C76.9323 51.8317 76.8911 51.5665 76.9511 51.312C77.122 50.5716 78.0122 50.1274 78.6515 49.8805C79.3737 49.6016 80.1903 49.4374 80.9739 49.3003C81.7673 49.1608 82.7032 49.1313 83.6698 49.0925C84.6652 49.053 85.6943 49.2243 86.2417 48.8026C86.7198 48.4339 86.6648 47.6171 86.5112 46.9356C86.354 46.2407 86.1782 45.7151 86.1378 44.8622C86.1152 44.3817 86.1821 43.8073 86.5525 43.9495C86.9493 44.101 87.4111 44.5302 87.7552 44.9032C88.2515 45.4421 88.7853 45.977 89.0413 46.7079C89.3548 47.6034 89.1239 48.996 89.2478 49.9841C89.298 50.3778 89.3872 50.8456 89.3109 51.1872C89.2034 51.6649 88.9171 52.1548 88.3773 52.286C87.6933 52.5944 83.7224 52.2884 83.0466 52.5563Z" fill="#8F7ECE"/>
<path id="Vector_10" opacity="0.41" fill-rule="evenodd" clip-rule="evenodd" d="M91.1839 61.3707C91.1724 61.3674 91.1662 61.3514 91.1427 61.3502C90.708 61.325 90.7445 61.9307 90.6441 62.1176C90.5295 62.3328 90.0914 62.368 89.7316 62.3871C88.9041 62.4315 88.33 62.4076 87.43 62.4076C87.1082 62.4076 86.5705 62.3188 86.4343 62.532C86.3357 62.6865 86.4441 62.9922 86.4755 63.0924C86.6447 63.6145 87.015 63.667 87.7408 63.694C88.0525 63.7051 88.3884 63.7301 88.6953 63.7559C89.3728 63.8129 90.0992 63.9131 90.623 63.8592C90.932 63.8281 91.1851 63.6963 91.2664 63.5067C91.3689 63.2682 91.2789 62.9572 91.3076 62.5528C91.3324 62.2141 91.4269 62.0022 91.4115 61.7858C91.3965 61.5735 91.3365 61.4162 91.1839 61.3707Z" fill="#FF5000"/>
<path id="Vector_11" opacity="0.41" fill-rule="evenodd" clip-rule="evenodd" d="M77.7906 39.9446C78.8975 39.9446 79.9252 40.1324 80.8189 40.4008C81.6682 40.6559 82.574 41.0213 83.2656 41.4377C83.9467 41.8475 84.6656 42.4227 84.9869 43.2C85.3824 44.1586 85.0978 45.3592 84.6756 46.0205C84.1246 46.8838 82.7566 47.0551 81.648 47.3067C80.8303 47.492 80.0129 47.7051 79.2426 47.8873C78.823 47.9862 78.4395 48.0694 78.0807 48.1987C77.0324 48.5752 76.0756 49.2268 75.5922 50.1895C75.3543 50.6625 75.248 51.1432 75.0318 51.5791C74.6478 52.3557 73.9547 53.3116 72.8342 53.3209C72.2549 53.3254 71.8012 53.1075 71.3615 52.8235C70.5842 52.3202 70.0535 51.5686 69.6824 50.5828C69.3219 49.6301 69.0955 48.5217 69.2668 47.1825C69.3955 46.1803 69.7961 45.0385 70.2422 44.2373C70.7443 43.335 71.2158 42.6282 71.9217 41.9766C73.2047 40.7926 75.2297 39.8244 77.7484 39.9446C77.7631 39.9451 77.7773 39.9446 77.7906 39.9446ZM83.2658 41.7282C83.2428 41.7252 83.3178 41.776 83.3484 41.7903C83.4057 41.816 83.3533 41.7371 83.2658 41.7282Z" fill="#FF5000"/>
</g>
</g>
</g>
<g id="Group_10">
<g id="Group_11">
<path id="Vector_12" fill-rule="evenodd" clip-rule="evenodd" d="M62.5085 49.0803C62.8322 49.6782 62.7726 50.8231 62.6449 51.9444C62.5915 52.4233 62.4904 53.1989 62.057 53.1993C61.5349 53.1991 61.5081 52.3008 61.5001 51.9799C61.4753 50.9622 61.6503 49.7278 61.9367 49.0993C62.0587 48.9944 62.3437 48.9952 62.5085 49.0803Z" fill="white"/>
<path id="Vector_13" fill-rule="evenodd" clip-rule="evenodd" d="M63.7367 52.0005C64.8124 51.7915 64.8671 54.188 63.9605 54.1079C63.5671 54.0714 63.1089 52.9224 63.2888 52.3589C63.3558 52.1563 63.5497 52.0376 63.7367 52.0005Z" fill="white"/>
<path id="Vector_14" fill-rule="evenodd" clip-rule="evenodd" d="M62.8883 58.1581C63.2604 58.044 63.6199 58.4786 63.7963 59.0142C63.9365 59.4448 64.0107 60.3329 63.4887 60.3308C63.2592 60.3308 62.9244 60.0204 62.7682 59.579C62.5824 59.0622 62.4088 58.3036 62.8883 58.1581Z" fill="white"/>
</g>
<g id="Group_12">
<path id="Vector_15" fill-rule="evenodd" clip-rule="evenodd" d="M95.2215 44.6548C96.352 44.6024 94.9352 42.036 94.2981 42.9497C93.9651 43.4258 94.7629 44.3514 95.2215 44.6548Z" fill="white"/>
<path id="Vector_16" fill-rule="evenodd" clip-rule="evenodd" d="M96.9664 45.5769C96.7798 45.4265 96.3173 45.2185 96.0433 45.6155C95.6845 46.1329 96.2195 47.2776 96.3457 47.772C96.4974 48.3731 96.5144 49.5731 97.1888 49.7583C98.1496 50.0218 97.8394 48.2452 97.706 47.6388C97.6359 47.3163 97.5351 47.0071 97.4626 46.7374C97.3371 46.2757 97.3246 45.8665 96.9664 45.5769Z" fill="white"/>
</g>
</g>
</g>
</g>
<g id="Group_13">
<g id="Group_14">
<path id="Vector_17" fill-rule="evenodd" clip-rule="evenodd" d="M81.4469 84.0658C81.3095 84.8916 81.0343 86.1647 80.831 87.2029C80.731 87.7217 80.709 88.4481 80.0988 88.2877C79.6562 88.1709 79.7205 87.7215 79.7742 87.3924C79.9051 86.5764 80.0738 85.8936 80.2422 85.0522C80.3256 84.6361 80.4824 84.1799 80.4504 83.8953C80.414 83.5764 80.1404 83.4045 80.049 83.1037C79.8111 82.3176 79.848 81.4834 79.8715 80.4871C79.8802 80.1184 79.7435 77.8586 80.584 78.0936C81.0205 78.215 80.8902 78.8182 80.8588 79.3098C80.7828 80.5119 80.7838 81.4117 80.9898 82.5426C81.0945 83.1233 81.1119 83.3061 81.5935 82.8065C82.2097 82.1678 82.6914 81.1125 83.1363 80.0719C83.3627 79.5406 83.5324 78.6565 84.0748 78.7539C84.85 78.8936 84.4043 79.6399 84.0859 80.3965C83.4226 81.9803 82.651 83.5756 81.4469 84.0658Z" fill="white"/>
<path id="Vector_18" fill-rule="evenodd" clip-rule="evenodd" d="M63.4353 76.4512C63.7568 78.7135 62.5793 82.2381 60.8451 83.1754C60.5902 83.3137 60.225 83.4245 59.8853 83.3729C59.2193 83.2713 58.8047 82.7518 58.6564 82.3139C58.1197 80.7364 58.6537 77.7536 59.6367 75.4442C59.916 74.7879 60.3303 73.7034 60.7635 73.5661C60.9057 73.5204 61.1182 73.5948 61.3029 73.6026C61.5285 73.6116 61.6644 73.5862 61.8064 73.6282C62.7078 73.8981 63.0228 74.8352 63.2383 75.4911C63.8314 75.3155 64.382 74.1118 64.9871 73.9088C65.2291 73.8276 65.5572 74.0493 65.5416 74.303C65.5264 74.5657 65.2609 74.7583 65.0803 74.9567C64.5572 75.5321 64.0191 76.0719 63.4353 76.4512ZM61.2926 74.4637C60.8379 75.2776 61.5553 76.0872 62.4332 75.9686C62.3187 75.35 62.1074 74.4936 61.2926 74.4637ZM60.4508 75.7555C60.4605 75.7167 60.4131 75.7135 60.4051 75.7815C60.168 76.3247 59.9842 76.9772 59.792 77.6495C59.4373 78.8928 59.2633 80.0467 59.3459 81.1366C59.3805 81.592 59.4617 82.3413 59.906 82.475C60.4957 82.6528 61.1008 81.8274 61.3902 81.4067C62.2471 80.16 62.7301 78.2006 62.5791 76.8356C61.7025 77.0151 60.6924 76.386 60.4508 75.7555Z" fill="white"/>
<path id="Vector_19" fill-rule="evenodd" clip-rule="evenodd" d="M73.0082 78.8335C73.2574 80.7874 72.0422 83.7266 70.756 84.7901C70.1775 85.2676 69.0174 85.5862 68.4308 84.6758C67.7933 83.6862 68.0472 81.6424 68.6181 79.6215C68.848 78.8061 69.1912 78.0848 69.4644 77.3493C69.7015 76.7094 69.7992 76.2272 70.2529 75.9639C70.58 75.7739 71.2191 75.7126 71.675 75.9381C72.3041 76.2495 72.6593 77.2282 72.847 77.8844C73.2603 77.8495 74.1656 76.4948 74.658 76.6335C74.8467 76.6866 74.9795 76.8889 74.975 77.0381C74.9613 77.4581 74.3396 77.8327 74.0506 78.071C73.6476 78.4038 73.3617 78.5844 73.0082 78.8335ZM71.799 77.4274C71.684 77.1905 71.4531 76.8159 71.291 76.7319C70.7209 76.437 70.3644 76.9481 70.3783 77.453C70.3937 78.069 71.4033 78.5126 72.0375 78.2417C71.9929 78.0268 71.9361 77.7085 71.799 77.4274ZM69.8635 78.5635C69.6549 78.9631 69.5318 79.6323 69.3965 80.1979C69.1216 81.3505 68.8744 82.2796 68.9556 83.2538C68.9881 83.6528 69.0631 84.3126 69.4488 84.4163C69.9047 84.5395 70.5078 83.8108 70.7914 83.4255C71.5773 82.3583 72.249 80.4835 72.1718 79.1446C71.4525 79.3151 70.3488 79.0333 69.8943 78.4544C69.8843 78.4905 69.8738 78.5268 69.8635 78.5635Z" fill="white"/>
<path id="Vector_20" fill-rule="evenodd" clip-rule="evenodd" d="M78.7054 79.2438C78.0119 79.0526 78.1603 78.6057 77.6679 78.4756C77.0925 78.3246 76.5998 79.0006 76.2459 79.602C75.5418 80.7993 74.9832 82.4327 74.9273 83.9393C74.9043 84.5559 74.9336 85.5561 75.4095 85.6879C75.6916 85.7658 75.9277 85.4489 76.1212 85.2627C76.3556 85.0352 76.5314 84.8584 76.666 84.5934C76.1572 84.4909 75.3359 84.5741 75.5041 83.9864C75.6045 83.6328 76.0515 83.7067 76.4378 83.7426C76.9564 83.7912 77.5255 83.8395 77.8283 84.1006C78.2988 84.5065 77.9517 85.9469 77.8486 86.7783C77.7824 87.309 77.7785 87.9284 77.2724 87.8313C76.7933 87.7393 76.9084 87.0873 76.9412 86.7934C76.998 86.2805 77.0685 86.0004 77.1582 85.4811C76.5761 86.2619 75.2851 87.1668 74.4548 86.0047C73.4373 84.5803 74.5214 79.4811 76.3808 78.0297C76.7564 77.7366 77.4437 77.434 78.1763 77.7961C78.4789 77.9459 79.4943 78.9672 78.7054 79.2438Z" fill="white"/>
<path id="Vector_21" fill-rule="evenodd" clip-rule="evenodd" d="M66.7448 74.7649C66.6963 75.5404 66.3461 76.2955 66.1641 77.0735C65.6336 79.3317 64.8877 81.7154 64.7571 83.7826C65.4147 84.1756 67.0217 83.9531 66.8434 84.7328C66.7621 85.0854 66.4887 85.0922 65.9092 84.9764C65.1717 84.8285 64.4006 84.766 64.0512 84.3278C63.743 83.9399 63.9696 82.8758 64.109 82.0654C64.4637 80.0035 65.0059 77.8559 65.7442 75.6574C65.9528 75.0342 66.1342 74.1361 66.7448 74.7649Z" fill="white"/>
<path id="Vector_22" fill-rule="evenodd" clip-rule="evenodd" d="M53.5715 77.561C54.2829 78.0864 55.0434 79.0649 54.3801 80.228C53.993 80.9077 52.4172 82.2536 51.5786 81.7842C51.0147 81.4692 51.393 80.3319 51.5838 79.4287C52.0536 77.2086 52.6094 75.0159 53.3069 72.5744C53.5524 71.7143 53.4889 71.268 54.2875 71.4795C56.1371 71.9699 57.2106 73.1045 56.4928 74.8991C55.9334 76.2971 54.5086 76.9313 53.5715 77.561ZM55.6782 74.5875C56.1274 73.4756 55.5508 72.6842 54.1944 72.3563C53.7774 73.8514 53.5293 75.2518 53.0938 76.7561C53.7815 76.4192 55.2213 75.7205 55.6782 74.5875ZM52.1387 80.9231C52.6377 80.7789 53.4073 80.3266 53.6539 79.7452C54.0131 78.8989 53.3112 78.4756 52.803 78.0485C52.5362 79.0313 52.3635 79.9629 52.1387 80.9231Z" fill="white"/>
<path id="Vector_23" fill-rule="evenodd" clip-rule="evenodd" d="M58.4124 72.8549C59.0181 72.8531 58.7136 73.5621 58.5688 74.2352C58.0267 76.7459 57.4708 79.3326 56.7991 81.9402C56.6743 82.4234 56.5439 82.7707 56.1607 82.6613C55.7757 82.5518 55.8583 82.1594 55.9839 81.6291C56.6196 78.9576 57.1632 76.5447 57.7997 73.8979C57.9298 73.3606 58.0337 72.8561 58.4124 72.8549Z" fill="white"/>
</g>
<g id="Group_15">
<path id="Vector_24" d="M58.8487 70.1866C58.7971 70.1866 58.7452 70.1741 58.6955 70.1479C56.5262 68.9696 55.0696 67.0205 54.8 64.9352C54.6633 63.8801 54.8741 62.8905 55.3786 62.2032C55.2338 60.1153 56.7079 57.5412 57.8698 56.3114C57.9911 56.1824 58.1934 56.1774 58.3221 56.2983C58.4504 56.4198 58.4571 56.6227 58.335 56.751C57.3903 57.7528 56.1582 59.8213 56.0209 61.5912C56.3694 61.3619 56.7805 61.2178 57.2375 61.168C58.085 61.075 59.3055 61.316 59.9848 62.0643C60.4034 62.5246 60.5526 63.1075 60.419 63.7487C60.3098 64.2752 59.9887 64.6746 59.492 64.9037C58.6969 65.2705 57.6321 65.1065 56.9911 64.7557C56.3069 64.3815 55.8354 63.8522 55.5827 63.1772C55.4096 63.6602 55.3557 64.2395 55.4344 64.853C55.6786 66.7352 57.011 68.5047 59.0014 69.585C59.1577 69.6696 59.2149 69.8641 59.1297 70.0194C59.0721 70.1262 58.9627 70.1866 58.8487 70.1866ZM56.0436 62.403C56.045 62.4116 56.0463 62.4205 56.0475 62.4299C56.1713 63.2135 56.5922 63.8076 57.2983 64.1936C57.7872 64.461 58.628 64.5973 59.2233 64.3221C59.5332 64.1791 59.725 63.9426 59.7924 63.618C59.8838 63.1793 59.7883 62.8016 59.5104 62.4948C59.0055 61.9387 58.02 61.727 57.3069 61.8049C56.7864 61.8618 56.362 62.0629 56.0436 62.403Z" fill="white"/>
<path id="Vector_25" d="M58.0108 58.8487C58.0065 58.8487 58.0014 58.8485 57.9965 58.8485C57.8194 58.8405 57.6822 58.6907 57.691 58.5137L57.759 57.028L56.2588 57.6733C56.0963 57.7434 55.908 57.668 55.8383 57.5059C55.7682 57.343 55.8432 57.1549 56.0057 57.085L57.9752 56.237C58.076 56.1938 58.1928 56.2049 58.2838 56.2678C58.3752 56.3309 58.4268 56.4354 58.4215 56.546L58.3305 58.5428C58.3229 58.7145 58.1813 58.8487 58.0108 58.8487Z" fill="white"/>
</g>
<g id="Group_16">
<path id="Vector_26" d="M65.2627 72.869C65.2446 72.8676 65.2264 72.8649 65.2086 72.86C65.0137 72.8127 64.8946 72.6164 64.9422 72.4227C64.995 72.2047 65.0332 71.978 65.0528 71.7487C65.1864 70.2342 64.5352 68.8872 63.6307 68.8084C62.2899 68.6895 61.3762 67.0528 61.5506 65.0825C61.5924 64.6053 62.3143 64.6686 62.2711 65.1457C62.1375 66.6606 62.7889 68.0067 63.6946 68.0866C65.034 68.2047 65.9483 69.8409 65.7743 71.8123C65.7512 72.0778 65.7067 72.3415 65.6455 72.5952C65.6024 72.7702 65.4377 72.8846 65.2627 72.869Z" fill="white"/>
<path id="Vector_27" d="M60.9833 72.1971C60.8431 70.0731 62.0435 67.9407 63.6942 68.0866C64.5985 68.1666 65.4755 66.9549 65.6087 65.4401C65.6509 64.9637 66.3724 65.0268 66.3306 65.504C66.1565 67.4752 64.9698 68.9268 63.6304 68.8084C62.7251 68.7276 61.8481 69.9399 61.7151 71.4539C61.6938 71.6875 61.6911 71.9209 61.7067 72.1491C61.7372 72.6276 61.0163 72.6746 60.9833 72.1971Z" fill="white"/>
<g id="Group_17">
<path id="Vector_28" d="M62.5617 69.736C62.5551 69.8246 62.6225 69.9018 62.7104 69.9072L64.2992 70.0252C64.3867 70.0313 64.4639 69.9651 64.4711 69.8762C64.4777 69.7879 64.4098 69.7112 64.3223 69.7047L62.7342 69.5875C62.6461 69.5803 62.5684 69.6469 62.5617 69.736Z" fill="white"/>
<path id="Vector_29" d="M62.3617 70.8078L64.5106 70.9658C64.5994 70.9729 64.6766 70.9068 64.6824 70.8176C64.6895 70.7297 64.6231 70.6529 64.5346 70.6461L62.3858 70.4879C62.2969 70.4813 62.2207 70.5479 62.2139 70.6361C62.2069 70.724 62.2735 70.8018 62.3617 70.8078Z" fill="white"/>
<path id="Vector_30" d="M64.6809 71.5695L62.105 71.3793C62.0165 71.3729 61.9393 71.4393 61.9331 71.5276C61.9264 71.6166 61.9926 71.6924 62.0813 71.6998L64.6573 71.8893C64.7452 71.8961 64.8223 71.8297 64.8296 71.741C64.836 71.6522 64.7688 71.576 64.6809 71.5695Z" fill="white"/>
<path id="Vector_31" d="M63.0583 67.3032L64.4162 67.4034C64.5048 67.4104 64.5818 67.3436 64.5878 67.2555C64.5949 67.1668 64.5283 67.0897 64.439 67.0832L63.0818 66.983C62.9931 66.9764 62.9162 67.043 62.9095 67.1315C62.9039 67.2196 62.9701 67.2967 63.0583 67.3032Z" fill="white"/>
<path id="Vector_32" d="M64.8954 66.3518C64.902 66.2633 64.8354 66.1862 64.7467 66.1801L62.91 66.0446C62.8212 66.0379 62.7448 66.1045 62.7385 66.1928C62.7315 66.2815 62.7981 66.3578 62.8864 66.3641L64.7241 66.5002C64.812 66.5066 64.8887 66.4408 64.8954 66.3518Z" fill="white"/>
<path id="Vector_33" d="M62.7718 65.4436L64.973 65.6067C65.0618 65.6129 65.139 65.5465 65.1452 65.4578C65.1523 65.3694 65.0863 65.292 64.997 65.286L62.7952 65.1239C62.7073 65.117 62.6296 65.1834 62.623 65.2715C62.6167 65.3602 62.6829 65.4369 62.7718 65.4436Z" fill="white"/>
</g>
</g>
</g>
</g>
<g id="Group_18">
<g id="Group_19">
<g id="Group_20">
<g id="Group_21">
<path id="Vector_34" fill-rule="evenodd" clip-rule="evenodd" d="M39.3962 18.966C39.2222 19.558 37.733 23.1623 37.1058 24.65C36.5576 25.9506 34.5662 29.3203 34.2595 29.7014C34.0859 29.8787 33.9216 30.0492 33.7947 30.1731C33.5656 30.3961 33.3263 30.6281 33.1031 30.8393C32.8921 31.0391 32.1953 31.691 32.4304 31.9439C32.6244 32.1533 33.2212 31.4551 33.4423 31.3408C33.2714 31.6994 33.0982 32.3092 33.0894 32.9434C33.0877 33.1107 33.0632 33.4619 33.2271 33.4822C33.4509 33.509 33.4824 33.2297 33.525 33.1033C33.5822 32.926 33.6464 32.7998 33.6675 32.6436C33.7093 32.8695 33.6529 33.3869 33.746 33.6447C33.7757 33.7277 33.85 33.817 33.9334 33.8106C34.1293 33.7949 34.122 33.5197 34.1572 33.3361C34.2025 33.0885 34.2521 32.927 34.2806 32.7566C34.2789 32.7488 34.2789 32.7402 34.2789 32.7342C34.2796 32.7397 34.2806 32.7463 34.2806 32.752C34.2806 32.7529 34.2806 32.7549 34.2806 32.7566C34.297 32.9459 34.2548 33.4875 34.3371 33.7393C34.3695 33.84 34.4427 33.9486 34.5511 33.9369C34.7785 33.9113 34.7691 33.4561 34.7918 33.2967C34.8287 33.0188 34.8734 32.8262 34.8978 32.5887C34.9525 32.775 34.9023 33.3334 34.9875 33.6607C35.0212 33.7973 35.0918 33.9465 35.2312 33.9254C35.4066 33.899 35.447 33.5221 35.4652 33.3947C35.5539 32.7848 35.6574 32.1041 35.8359 31.626C35.973 31.2617 36.1359 30.9387 36.3388 30.6262C37.3222 29.359 39.1031 26.6809 39.7877 25.2688C40.4945 23.8104 42.0591 20.6039 42.4173 19.3949C41.8662 19.4584 39.8976 19.0467 39.3962 18.966Z" fill="#FCD2C0"/>
<path id="Vector_35" opacity="0.13" d="M37.972 25.0016C37.9908 24.9086 37.5808 24.648 37.1919 24.4437C37.1623 24.5154 37.1324 24.5859 37.1058 24.6502C37.0716 24.7303 37.033 24.8182 36.988 24.9121C37.4113 25.0508 37.9542 25.0945 37.972 25.0016Z" fill="black"/>
</g>
<path id="Vector_36" d="M43.178 13.8496C42.0854 13.9133 41.4301 14.944 40.994 15.5953C39.8077 17.3672 39.1276 19.1672 38.3391 21.1321L41.9024 22.7912C42.5311 21.7506 43.126 20.6936 43.6276 19.619C43.9083 19.0166 44.2034 18.3399 44.4227 17.6022C44.6266 16.9067 44.7792 16.0699 44.6075 15.2502C44.4379 14.4389 43.912 13.807 43.178 13.8496Z" fill="#B1BC00"/>
</g>
<g id="Group_22">
<g id="Group_23">
<path id="Vector_37" fill-rule="evenodd" clip-rule="evenodd" d="M55.9158 48.5906L59.3803 48.51L59.2217 44.1646L55.7588 44.2459L55.9158 48.5906Z" fill="#FCD2C0"/>
<g id="Group_24">
<path id="Vector_38" fill-rule="evenodd" clip-rule="evenodd" d="M55.3646 48.2845C54.5116 48.5054 53.7259 48.7662 53.1011 49.2754C52.912 49.4273 52.6398 49.6394 52.6669 49.9C52.7021 50.2468 53.3236 50.3425 53.847 50.4009C54.9462 50.5222 55.9732 50.5533 57.1263 50.5369C58.0581 50.5242 58.8999 50.439 59.2236 49.9025C59.4611 49.508 59.5255 49.0027 59.6005 48.4949C59.6747 47.9875 59.6929 47.4853 59.6316 46.8822C58.8519 46.758 57.8091 46.6873 56.7919 46.705C56.8351 46.1056 56.4896 45.8808 55.8525 45.8254C55.6341 45.806 55.2665 45.8232 55.1683 45.931C54.9695 46.1513 55.263 47.9236 55.3646 48.2845Z" fill="#FF5000"/>
<g id="Group_25">
<path id="Vector_39" d="M54.5521 46.6029C54.6546 46.5573 54.7665 46.5695 54.8663 46.6384C55.2339 46.8921 55.456 47.9724 55.4132 48.1906C55.4073 48.2195 55.3853 48.2448 55.356 48.2556C55.3263 48.2665 55.2911 48.262 55.264 48.2441C54.9884 48.063 54.3956 47.3366 54.3628 46.924C54.3548 46.8116 54.3855 46.7259 54.4566 46.6656C54.4859 46.6392 54.5183 46.6185 54.5521 46.6029ZM55.2189 47.973C55.1745 47.6226 54.9902 46.9427 54.7523 46.7784C54.6995 46.7413 54.6671 46.7486 54.6382 46.7609C54.6218 46.7691 54.6054 46.7804 54.5866 46.7945C54.5618 46.8167 54.5521 46.8566 54.5556 46.914C54.5782 47.1898 54.9437 47.7054 55.2189 47.973Z" fill="#4D3D87"/>
<path id="Vector_40" d="M53.8285 47.1439C53.9155 47.105 54.0248 47.1087 54.1553 47.1552C54.6121 47.3177 55.2727 47.9894 55.3567 48.1816C55.3709 48.2095 55.3651 48.241 55.3469 48.2652C55.3274 48.2902 55.2953 48.3037 55.2633 48.3003C54.9268 48.2794 54.0106 47.9439 53.744 47.6056C53.6711 47.5148 53.6457 47.4255 53.6701 47.3418C53.6967 47.2453 53.7514 47.1796 53.8285 47.1439ZM55.0657 48.0894C54.8547 47.8468 54.4067 47.4314 54.0879 47.3177C54.0108 47.2902 53.9516 47.2845 53.9143 47.3021C53.8895 47.3144 53.869 47.3429 53.853 47.3882C53.8459 47.4193 53.8592 47.4587 53.8969 47.5064C54.0768 47.7322 54.6784 47.9935 55.0657 48.0894Z" fill="#4D3D87"/>
<path id="Vector_41" d="M53.8413 48.3427L55.2509 48.1278L55.2851 48.3007L53.8759 48.5151L53.8413 48.3427Z" fill="#4D3D87"/>
</g>
<g id="Group_26">
<path id="Vector_42" d="M53.7616 49.3023C54.678 49.6768 55.7843 49.5127 56.3763 48.9855C56.8997 48.5201 57.0525 47.8154 57.1128 46.9531C57.1167 46.8799 57.1247 46.7932 57.1306 46.7025C57.0165 46.7025 56.905 46.7031 56.7923 46.7047C56.7995 46.6164 56.7968 46.5371 56.7853 46.4637C56.7898 46.515 56.7942 46.5654 56.7923 46.6154C56.7525 47.7176 56.4851 49.1635 54.8624 49.1758C54.4419 49.1789 54.0944 49.0869 53.8315 48.9674C53.7855 48.9465 53.7405 48.9172 53.6962 48.8857C53.5763 48.9496 53.4595 49.017 53.3481 49.0922C53.4784 49.1838 53.6435 49.2543 53.7616 49.3023Z" fill="white"/>
<path id="Vector_43" d="M59.4058 48.515C58.3031 48.3795 57.74 48.9884 57.4857 49.7552C57.4275 49.9332 57.2756 50.358 57.3654 50.5312C57.4595 50.5281 57.5523 50.5244 57.6433 50.5189C57.7203 50.3941 57.734 50.1613 57.7824 49.9806C58.023 49.0683 58.4355 48.7156 59.3838 48.8287C59.4382 48.8349 59.4908 48.855 59.5431 48.8744C59.5617 48.765 59.5773 48.6545 59.5941 48.5437C59.5293 48.5299 59.4636 48.5218 59.4058 48.515Z" fill="white"/>
</g>
<path id="Vector_44" d="M59.1118 50.0465C58.7321 50.4545 57.9667 50.5242 57.1258 50.5369C55.9729 50.5533 54.9459 50.5223 53.8465 50.401C53.3782 50.3498 52.8329 50.2662 52.6975 50.0008L59.1118 50.0465Z" fill="#4D3D87"/>
</g>
</g>
<g id="Group_27">
<path id="Vector_45" fill-rule="evenodd" clip-rule="evenodd" d="M54.5801 29.0476C55.6301 35.326 55.1426 38.5871 55.46 44.5627C55.6775 44.6955 59.0752 44.8 59.834 44.8402C60.9457 38.4103 60.9049 34.5947 60.2867 27.4519C58.2832 28.2877 56.3258 28.6674 54.5801 29.0476Z" fill="#8F7ECE"/>
<path id="Vector_46" opacity="0.13" fill-rule="evenodd" clip-rule="evenodd" d="M54.5801 29.0476C55.6301 35.326 55.1426 38.5871 55.46 44.5627C55.6775 44.6955 59.0752 44.8 59.834 44.8402C60.9457 38.4103 60.9049 34.5947 60.2867 27.4519C58.2832 28.2877 56.3258 28.6674 54.5801 29.0476Z" fill="black"/>
<g id="Group_28">
<path id="Vector_47" fill-rule="evenodd" clip-rule="evenodd" d="M59.5267 33.2008C59.4681 33.4537 59.7376 34.026 59.9985 33.9437C60.2677 33.8588 59.9634 33.2877 59.773 33.1205C59.7015 33.0957 59.5847 33.1328 59.5267 33.2008Z" fill="white"/>
<path id="Vector_48" fill-rule="evenodd" clip-rule="evenodd" d="M59.4776 34.6355C59.0909 34.6189 59.3405 35.1654 59.5171 35.5049C59.637 35.7353 59.802 35.9951 59.9718 35.9098C60.2098 35.7918 59.7608 34.7814 59.5612 34.6519C59.5425 34.64 59.5007 34.6369 59.4776 34.6355Z" fill="white"/>
</g>
</g>
</g>
</g>
<g id="Group_29">
<g id="Group_30">
<g id="Group_31">
<g id="Group_32">
<path id="Vector_49" fill-rule="evenodd" clip-rule="evenodd" d="M31.3655 50.178C31.1098 50.1823 30.8922 50.3315 30.5526 50.4958C30.5321 50.5054 29.8475 50.8891 29.8032 50.8759C29.7352 50.8559 29.3369 49.9054 29.2828 49.7882C28.4664 48.0194 27.6557 46.1722 26.6838 44.4729C26.5809 44.2931 26.4766 44.1054 26.37 43.9173C26.2834 43.5386 26.1223 43.0261 26.0428 42.7175C25.9723 42.4477 25.8998 42.1643 25.8364 41.9036C25.7774 41.6565 25.5868 40.8452 25.26 40.8835C24.9914 40.9153 25.2702 41.6786 25.2543 41.8895C25.0434 41.5919 24.6266 41.1665 24.108 40.8442C23.9717 40.7595 23.6944 40.5673 23.5957 40.6718C23.4612 40.8147 23.676 40.9755 23.76 41.0684C23.8764 41.1972 23.9496 41.3038 24.0694 41.397C23.8612 41.3138 23.462 41.0151 23.2036 40.9518C23.1198 40.9315 23.01 40.9391 22.9737 41.0007C22.8897 41.1442 23.1198 41.2768 23.2537 41.3925C23.4354 41.5487 23.5424 41.6626 23.6698 41.7677C23.676 41.7708 23.6844 41.7755 23.6889 41.7782C23.684 41.7751 23.6791 41.7729 23.6729 41.7706C23.6719 41.7696 23.6711 41.7688 23.6698 41.7675C23.5077 41.6848 23.0801 41.3864 22.8321 41.3173C22.7317 41.2893 22.6061 41.2862 22.5621 41.3675C22.4702 41.5389 22.8502 41.7593 22.9715 41.855C23.1811 42.0192 23.3174 42.147 23.502 42.2821C23.3204 42.2274 22.8844 41.9141 22.5731 41.8091C22.4426 41.7663 22.285 41.7399 22.2338 41.8473C22.1676 41.9837 22.4584 42.2001 22.5536 42.2763C23.0131 42.6419 23.5233 43.0534 23.8278 43.4171C24.0866 43.7243 24.2877 44.0274 24.4547 44.3639C24.9918 46.7665 25.61 49.4671 26.3469 51.8725C26.485 52.3216 26.6332 52.8218 26.8317 53.3247C27.1211 54.0599 27.5051 55.0827 28.6586 55.0081C29.2944 54.9665 29.9772 54.646 30.6125 54.3954C31.2541 54.1417 31.9108 53.903 32.4258 53.5706C32.1104 52.4202 31.6594 51.3393 31.3655 50.178Z" fill="#FCD2C0"/>
<path id="Vector_50" opacity="0.13" fill-rule="evenodd" clip-rule="evenodd" d="M31.3655 50.178C31.1098 50.1823 30.8922 50.3315 30.5526 50.4958C30.5321 50.5054 29.8475 50.8891 29.8032 50.8759C29.7352 50.8559 29.3369 49.9054 29.2828 49.7882C28.4664 48.0194 27.6557 46.1722 26.6838 44.4729C26.5809 44.2931 26.4766 44.1054 26.37 43.9173C26.2834 43.5386 26.1223 43.0261 26.0428 42.7175C25.9723 42.4477 25.8998 42.1643 25.8364 41.9036C25.7774 41.6565 25.5868 40.8452 25.26 40.8835C24.9914 40.9153 25.2702 41.6786 25.2543 41.8895C25.0434 41.5919 24.6266 41.1665 24.108 40.8442C23.9717 40.7595 23.6944 40.5673 23.5957 40.6718C23.4612 40.8147 23.676 40.9755 23.76 41.0684C23.8764 41.1972 23.9496 41.3038 24.0694 41.397C23.8612 41.3138 23.462 41.0151 23.2036 40.9518C23.1198 40.9315 23.01 40.9391 22.9737 41.0007C22.8897 41.1442 23.1198 41.2768 23.2537 41.3925C23.4354 41.5487 23.5424 41.6626 23.6698 41.7677C23.676 41.7708 23.6844 41.7755 23.6889 41.7782C23.684 41.7751 23.6791 41.7729 23.6729 41.7706C23.6719 41.7696 23.6711 41.7688 23.6698 41.7675C23.5077 41.6848 23.0801 41.3864 22.8321 41.3173C22.7317 41.2893 22.6061 41.2862 22.5621 41.3675C22.4702 41.5389 22.8502 41.7593 22.9715 41.855C23.1811 42.0192 23.3174 42.147 23.502 42.2821C23.3204 42.2274 22.8844 41.9141 22.5731 41.8091C22.4426 41.7663 22.285 41.7399 22.2338 41.8473C22.1676 41.9837 22.4584 42.2001 22.5536 42.2763C23.0131 42.6419 23.5233 43.0534 23.8278 43.4171C24.0866 43.7243 24.2877 44.0274 24.4547 44.3639C24.9918 46.7665 25.61 49.4671 26.3469 51.8725C26.485 52.3216 26.6332 52.8218 26.8317 53.3247C27.1211 54.0599 27.5051 55.0827 28.6586 55.0081C29.2944 54.9665 29.9772 54.646 30.6125 54.3954C31.2541 54.1417 31.9108 53.903 32.4258 53.5706C32.1104 52.4202 31.6594 51.3393 31.3655 50.178Z" fill="black"/>
<g id="Group_33">
<path id="Vector_51" opacity="0.13" fill-rule="evenodd" clip-rule="evenodd" d="M23.5054 42.5808C23.4796 42.53 23.4649 42.405 23.4716 42.3245C23.5116 41.8563 23.9716 41.3628 24.2997 41.2743C24.0462 41.4556 23.6528 41.829 23.5054 42.5808Z" fill="white"/>
</g>
<path id="Vector_52" opacity="0.13" fill-rule="evenodd" clip-rule="evenodd" d="M25.274 41.8606C24.9693 42.2686 24.8758 42.6585 24.8664 43.0405C24.6236 42.7308 24.9232 41.9843 25.274 41.8606Z" fill="white"/>
</g>
<path id="Vector_53" opacity="0.13" fill-rule="evenodd" clip-rule="evenodd" d="M29.3732 49.9928C29.1862 50.4219 28.6575 51.7684 28.8439 51.9952C28.9909 52.1768 29.8091 51.0635 29.8038 50.8759L29.3732 49.9928Z" fill="black"/>
</g>
<path id="Vector_54" fill-rule="evenodd" clip-rule="evenodd" d="M30.8547 50.3077C31.0305 51.0155 31.1958 51.7286 31.5668 52.338C32.7749 51.9188 33.9653 51.4622 35.052 50.8026C35.4387 49.9946 36.0016 49.5325 36.5707 49.0817C36.0319 48.5804 35.2073 48.7862 34.5932 48.9311C33.354 49.2247 31.8374 49.7583 30.8547 50.3077Z" fill="#EFAD1B"/>
</g>
<g id="Group_34">
<g id="Group_35">
<path id="Vector_55" fill-rule="evenodd" clip-rule="evenodd" d="M29.7586 31.3356C35.8486 32.6028 40.877 35.7936 44.4143 39.6473C48.2129 43.7852 50.8652 48.629 52.1555 54.7473C52.8174 57.8897 52.9805 61.969 52.6629 65.3432C52.0195 72.1829 49.7131 77.4739 46.699 82.2204C45.7334 83.7403 44.3389 85.5926 43.0189 87.1059C42.634 87.546 42.0146 88.4544 41.623 88.5651C40.9064 88.768 39.7016 88.5567 38.7039 88.5651C32.4762 88.619 25.3838 88.6221 19.0984 88.3747C18.068 83.1534 17.7758 77.8081 15.7375 73.7821C14.1805 70.7092 12.0201 68.6397 9.45488 66.6124C9.05 66.2915 8.63848 65.9573 8.18594 65.661C7.7873 65.3995 7.12656 65.2286 6.98047 64.6456C8.36563 64.7057 9.69844 65.1901 11.0416 65.534C13.7162 66.2186 16.4049 66.8227 19.1629 67.4374C20.5096 67.7374 21.8205 68.2405 23.1605 68.4528C29.6057 69.4731 34.434 66.3985 37.1822 62.7423C38.6779 60.7524 39.676 58.4223 39.9738 55.4458C40.2664 52.5194 39.5312 49.4536 38.3236 47.1979C36.0297 42.9108 31.8824 40.0837 26.0154 39.4573C27.2434 36.73 28.5203 34.0522 29.7586 31.3356Z" fill="#8F7ECE"/>
<path id="Vector_56" fill-rule="evenodd" clip-rule="evenodd" d="M1.779 59.2524C1.72529 59.2559 2.28154 59.2296 2.47646 59.2524C4.23994 59.4575 6.09482 60.0839 7.93252 60.5214C11.7938 61.4397 14.4683 62.2175 18.4019 63.3764C20.2985 63.9356 22.2653 64.4758 22.7169 65.7243C23.1577 66.9442 22.4079 68.2577 21.6366 68.5794C20.8265 68.9174 19.4052 68.5889 18.4649 68.3889C15.3567 67.7274 12.7874 66.8915 10.0272 65.9782C7.4042 65.11 4.40967 64.4803 1.90557 63.2497C0.851464 62.7317 -0.507911 61.8698 0.192284 60.2046C0.422167 59.6571 0.980761 59.3089 1.779 59.2524Z" fill="#4D3D87"/>
<g id="Group_36">
<path id="Vector_57" opacity="0.46" fill-rule="evenodd" clip-rule="evenodd" d="M42.1305 88.2478C35.3395 88.2304 28.1971 88.2597 21.32 87.8667C21.1295 84.3015 21.352 79.9497 22.2085 76.8911C22.7874 74.819 23.6036 72.421 26.3961 73.0841C28.22 73.5169 29.7975 75.0265 31.0278 76.2565C34.219 79.4477 37.2337 83.0419 40.3547 86.2811C40.6797 86.6194 40.9922 86.9821 41.3057 87.2962C41.6042 87.5946 42.0254 87.8245 42.1305 88.2478Z" fill="white"/>
<g id="Group_37">
<path id="Vector_58" d="M41.6231 88.6284C42.0147 88.5175 42.634 87.6091 43.0189 87.1688C44.3389 85.6557 45.7334 83.8034 46.699 82.2833C49.7133 77.5372 52.0197 72.2464 52.6629 65.4063C52.9803 62.0321 52.8174 57.9526 52.1555 54.8106C50.8652 48.6919 48.2131 43.8481 44.4143 39.7098C40.8772 35.8563 35.8486 32.6657 29.7586 31.3987C29.6125 31.7194 29.4643 32.0384 29.3164 32.3581C29.391 32.3772 29.4572 32.3956 29.5043 32.4136C30.6986 32.8673 31.8561 33.5632 33.0584 34.1901C34.2266 34.8003 35.451 35.4079 36.5477 36.0934C43.1004 40.1905 47.9156 46.5915 48.6664 56.3333C49.2055 63.3405 47.7248 69.6684 45.6838 74.6063C44.0891 78.4651 42.016 81.747 39.7834 84.8848C39.1094 85.8317 37.6256 87.529 38.0621 88.6331C38.2762 88.6317 38.4932 88.6298 38.7041 88.6282C39.7016 88.6196 40.9066 88.8307 41.6231 88.6284Z" fill="#4D3D87"/>
<g id="Group_38">
<g id="Group_39">
<path id="Vector_59" fill-rule="evenodd" clip-rule="evenodd" d="M47.8399 54.9135C49.1047 55.1969 48.3163 51.9345 47.336 52.7512C46.8247 53.1768 47.4252 54.4401 47.8399 54.9135Z" fill="white"/>
<path id="Vector_60" fill-rule="evenodd" clip-rule="evenodd" d="M49.4889 56.459C49.3292 56.2364 48.8803 55.8674 48.4581 56.2229C47.9057 56.6862 48.1499 58.1126 48.1397 58.696C48.1264 59.4059 47.7823 60.7362 48.4704 61.1444C49.452 61.7262 49.6456 59.6702 49.6829 58.96C49.7024 58.5827 49.685 58.2112 49.6868 57.8909C49.6879 57.3434 49.7979 56.8874 49.4889 56.459Z" fill="white"/>
</g>
<g id="Group_40">
<path id="Vector_61" fill-rule="evenodd" clip-rule="evenodd" d="M28.3779 74.3956C28.6939 73.6387 29.815 72.8276 30.9637 72.0985C31.4557 71.7866 32.2592 71.2936 32.5887 71.7008C32.983 72.1909 32.159 72.8956 31.8641 73.1471C30.9281 73.9403 29.6357 74.7108 28.8281 74.919C28.6381 74.8833 28.4232 74.6155 28.3779 74.3956Z" fill="white"/>
<path id="Vector_62" fill-rule="evenodd" clip-rule="evenodd" d="M30.1898 71.0301C29.1794 70.1776 31.388 68.3126 31.9999 69.2245C32.2628 69.6212 31.5323 70.9219 30.8659 71.1801C30.6249 71.2706 30.3659 71.1778 30.1898 71.0301Z" fill="white"/>
<path id="Vector_63" fill-rule="evenodd" clip-rule="evenodd" d="M36.6157 67.1643C36.2258 66.9026 36.3618 66.2348 36.7319 65.6645C37.0297 65.2059 37.8073 64.4637 38.2006 64.9546C38.3756 65.1712 38.337 65.7206 38.0413 66.2024C37.6963 66.7678 37.1157 67.5045 36.6157 67.1643Z" fill="white"/>
</g>
</g>
</g>
</g>
</g>
<g id="Group_41">
<g id="Group_42">
<path id="Vector_64" fill-rule="evenodd" clip-rule="evenodd" d="M20.6218 48.9645C20.2347 49.7866 19.9034 50.6188 19.4169 51.5657C18.7271 52.9069 17.955 54.1907 15.9272 53.5325C15.0126 53.2358 13.579 52.5188 13.2624 51.7561C12.6343 50.244 14.1083 48.0325 14.5942 46.8071C14.6245 46.7311 14.5573 46.6167 14.6573 46.6167C16.6952 47.3501 18.7101 48.1059 20.6218 48.9645Z" fill="#4D3D87"/>
<g id="Group_43">
<path id="Vector_65" fill-rule="evenodd" clip-rule="evenodd" d="M31.3453 25.6252C30.1004 25.6157 29.0836 25.0575 28.1727 24.61C27.2615 24.1627 26.241 23.8348 25.6357 23.0239C26.1449 21.3483 27.1627 19.7411 28.11 17.9481C28.5205 17.1696 28.9531 16.3362 29.4418 15.5368C30.0158 14.5993 30.6063 13.6303 31.4717 13.1895C31.8574 12.993 32.5611 13.0881 33.059 13.2528C34.1857 13.6264 36.0008 14.4834 36.1033 15.6643C36.1881 16.6211 35.5283 17.6436 35.1514 18.392C34.3242 20.0387 33.5549 21.7221 32.7406 23.3413C32.315 24.1879 31.9275 25.036 31.3453 25.6252Z" fill="#4D3D87"/>
<path id="Vector_66" fill-rule="evenodd" clip-rule="evenodd" d="M32.3004 15.0479C31.7313 16.3752 31.2131 17.403 30.52 18.7092C30.2608 19.1987 29.9477 19.7457 29.569 20.4223C29.4047 20.7145 28.8733 21.9364 28.3627 21.8817C27.6825 21.8094 28.0537 20.7319 28.3627 20.042C28.6789 19.3379 28.9909 18.8754 29.3141 18.2653C29.6932 17.5496 29.9686 16.9625 30.2664 16.4889C30.6319 15.9082 30.9071 15.3733 31.2813 14.8393C31.9918 13.8254 32.6969 14.1229 32.3004 15.0479Z" fill="white"/>
</g>
</g>
<g id="Group_44">
<g id="Group_45">
<g id="Group_46">
<path id="Vector_67" fill-rule="evenodd" clip-rule="evenodd" d="M24.6196 22.0721C25.6477 21.8656 26.8981 22.3248 27.7919 22.6432C29.7831 23.353 32.6708 24.2342 33.2483 26.26C33.5729 27.3971 33.0161 28.9071 32.6143 29.8764C31.3139 33.0112 29.9477 35.6572 28.3628 38.6319C26.9157 41.3487 25.8268 44.6321 24.2391 47.5147C23.7126 48.4692 22.9583 49.5227 22.144 49.7352C21.1624 49.9918 20.1835 49.6256 19.4171 49.3547C18.6028 49.0668 17.9598 48.7862 17.1319 48.4662C15.668 47.8992 13.752 47.3545 13.2626 45.928C12.5251 43.7799 14.2069 40.4805 14.8479 39.0125C15.7985 36.8389 16.646 34.8033 17.5766 32.9217C18.7215 30.6063 19.4503 29.2254 20.5589 27.0205C21.0192 26.1043 21.4938 25.0881 22.1438 24.1658C22.7585 23.2969 23.4901 22.2989 24.6196 22.0721Z" fill="#8F7ECE"/>
<path id="Vector_68" opacity="0.46" fill-rule="evenodd" clip-rule="evenodd" d="M24.6196 22.0721C25.6477 21.8656 26.8981 22.3248 27.7919 22.6432C29.7831 23.353 32.6708 24.2342 33.2483 26.26C33.5729 27.3971 33.0161 28.9071 32.6143 29.8764C31.3139 33.0112 29.9477 35.6572 28.3628 38.6319C26.9157 41.3487 25.8268 44.6321 24.2391 47.5147C23.7126 48.4692 22.9583 49.5227 22.144 49.7352C21.1624 49.9918 20.1835 49.6256 19.4171 49.3547C18.6028 49.0668 17.9598 48.7862 17.1319 48.4662C15.668 47.8992 13.752 47.3545 13.2626 45.928C12.5251 43.7799 14.2069 40.4805 14.8479 39.0125C15.7985 36.8389 16.646 34.8033 17.5766 32.9217C18.7215 30.6063 19.4503 29.2254 20.5589 27.0205C21.0192 26.1043 21.4938 25.0881 22.1438 24.1658C22.7585 23.2969 23.4901 22.2989 24.6196 22.0721Z" fill="white"/>
</g>
<path id="Vector_69" fill-rule="evenodd" clip-rule="evenodd" d="M25.5596 24.2293C25.9339 24.7 25.5374 25.2131 25.3696 25.6252C24.0825 28.7781 22.4159 31.6889 20.9276 34.7615C19.6659 37.3685 18.6087 40.0994 17.3745 42.8828C17.0548 43.6062 16.6575 45.1174 15.7885 45.1668C14.4756 45.2426 14.644 43.4226 15.0272 42.5025C16.1965 39.6967 17.6999 37.1637 19.0883 34.5713C20.5798 31.7848 21.6856 29.3037 23.2116 26.6404C23.6969 25.7941 24.353 24.7312 24.9253 24.2932C25.021 24.2187 25.3487 24.0646 25.5596 24.2293Z" fill="white"/>
</g>
<g id="Group_47">
<path id="Vector_70" fill-rule="evenodd" clip-rule="evenodd" d="M23.2548 43.5923C22.6829 44.0393 22.2523 45.1843 21.898 46.3348C21.7474 46.827 21.5144 47.6274 21.9396 47.8132C22.4493 48.036 22.8585 47.1682 23.0038 46.8577C23.462 45.8739 23.8163 44.5917 23.807 43.8548C23.7304 43.7009 23.4515 43.5803 23.2548 43.5923Z" fill="white"/>
<path id="Vector_71" fill-rule="evenodd" clip-rule="evenodd" d="M20.8066 45.9243C19.8449 45.2616 18.7697 47.5813 19.6904 47.8889C20.0896 48.0225 21.0285 47.0942 21.092 46.4653C21.1138 46.2391 20.974 46.0395 20.8066 45.9243Z" fill="white"/>
</g>
</g>
</g>
<g id="Group_48">
<path id="Vector_72" fill-rule="evenodd" clip-rule="evenodd" d="M17.0717 85.9037C17.003 85.9295 17.7231 85.6776 17.9895 85.6311C20.387 85.2143 23.07 85.3145 25.6575 85.1729C31.0913 84.876 34.9108 84.8555 40.5352 84.8463C43.2469 84.842 46.0428 84.7858 47.1235 86.2518C48.1784 87.684 47.7045 89.7035 46.8176 90.4262C45.884 91.1871 43.886 91.3086 42.5719 91.4121C38.2272 91.7541 34.5231 91.6565 30.5375 91.5313C26.7504 91.4118 22.5682 91.7512 18.7958 91.11C17.2102 90.8395 15.0854 90.2358 15.3575 87.7729C15.4454 86.9647 16.0438 86.2887 17.0717 85.9037Z" fill="#4D3D87"/>
<g id="Group_49">
<path id="Vector_73" fill-rule="evenodd" clip-rule="evenodd" d="M19.7781 87.7016C20.4351 87.393 21.6517 87.5256 22.8363 87.7282C23.3441 87.8147 24.1646 87.9692 24.1374 88.4321C24.1064 88.9881 23.1474 88.9606 22.806 88.9502C21.7193 88.9153 20.4162 88.6534 19.7638 88.3116C19.6605 88.1756 19.6777 87.8719 19.7781 87.7016Z" fill="#8F7ECE"/>
<path id="Vector_74" fill-rule="evenodd" clip-rule="evenodd" d="M24.2893 86.9858C24.1313 85.827 26.6867 85.9151 26.5465 86.8743C26.4844 87.2914 25.2332 87.7108 24.6424 87.4842C24.4315 87.4018 24.3174 87.187 24.2893 86.9858Z" fill="white"/>
<path id="Vector_75" fill-rule="evenodd" clip-rule="evenodd" d="M43.0509 89.0282C42.9523 88.625 43.437 88.268 44.0179 88.1129C44.4855 87.9885 45.4351 87.9637 45.4013 88.5188C45.387 88.7643 45.0368 89.1018 44.5577 89.2424C43.9946 89.408 43.1775 89.5479 43.0509 89.0282Z" fill="#8F7ECE"/>
</g>
</g>
</g>
<g id="Group_50">
<g id="Group_51">
<g id="Group_52">
<g id="Group_53">
<path id="Vector_76" fill-rule="evenodd" clip-rule="evenodd" d="M37.9887 66.7774C38.1473 68.133 37.3136 70.0305 36.5171 71.1602C36.344 71.4061 36.0837 71.6139 35.9598 71.8557C35.7845 72.2016 35.6952 72.6637 35.571 73.0453C35.1979 74.1832 34.7962 75.2403 34.3136 76.328C37.5989 76.4448 41.3005 78.3793 43.677 80.0153C43.3475 81.0182 43.1296 81.9653 42.7811 82.977C40.4889 82.8807 37.9001 82.3276 35.2438 81.6436C32.4446 80.9231 28.7466 79.9541 28.6259 77.6119C28.5927 76.9549 28.7733 76.1307 28.9659 75.3455C29.5319 73.0375 30.5251 70.2336 31.4114 68.0996C30.7823 68.3028 30.1762 68.6121 29.5462 68.8785C27.6878 69.6668 25.7266 70.4356 23.754 71.0426C24.8936 74.2584 24.5456 78.2287 23.8475 82.3758C22.9329 82.4371 22.0122 82.4873 21.0891 82.5332C20.5155 79.6037 19.9264 76.7196 19.645 73.5381C19.5561 72.5293 19.4292 71.3295 19.7702 70.2506C20.5102 67.9096 22.6206 66.7393 24.221 65.9285C26.0294 65.0123 27.7733 64.2156 29.6163 63.5252C29.6505 63.5022 29.6934 63.4946 29.7376 63.4916C32.5243 64.5682 35.2657 65.668 37.9887 66.7774Z" fill="#CAD309"/>
<g id="Group_54">
<path id="Vector_77" opacity="0.18" d="M34.3137 76.3278C34.7963 75.2401 35.1981 74.183 35.5711 73.0452C35.6953 72.6635 35.7846 72.2014 35.96 71.8555C36.0838 71.6137 36.344 71.4059 36.5172 71.16C37.3137 70.0303 38.1475 68.133 37.9889 66.7772C37.7322 66.6725 37.4738 66.5684 37.2168 66.4641C37.2 66.5942 37.1871 66.7248 37.1649 66.8364C36.9643 67.8338 36.7608 68.5764 36.1664 69.3266C35.8539 69.7215 35.5471 69.91 35.1502 70.4203C34.2645 71.5571 34.1068 73.161 33.5697 74.8041C33.2391 75.8145 32.5424 77.4192 33.1129 77.7635C33.3721 77.9207 33.6381 77.8045 33.849 77.7485C34.7951 77.4953 35.7834 77.5323 37.0928 77.8961C39.3947 78.5358 41.4828 79.434 43.2289 80.4903C43.3182 80.5442 43.4049 80.5895 43.4879 80.6266C43.5486 80.4243 43.61 80.2215 43.6776 80.0151C41.3004 78.3791 37.599 76.4446 34.3137 76.3278Z" fill="black"/>
<path id="Vector_78" opacity="0.18" d="M31.6947 67.6789C31.8603 67.36 32.2404 66.8992 32.0734 66.6328C31.9705 66.468 31.7515 66.4695 31.6435 66.4916C30.8791 66.6521 30.1172 66.9482 29.3508 67.241C27.4914 67.9506 25.6746 68.7834 23.9453 69.7873C23.5799 69.9992 23.1471 70.2025 22.9699 70.5291C22.5103 71.3768 22.8726 72.2143 22.9828 72.8375C23.3771 75.0688 23.4139 77.3129 23.274 79.8822C23.2531 80.2607 23.2078 80.8033 23.1935 81.3557C23.1847 81.6897 23.174 82.1369 23.3693 82.4037C23.5291 82.3938 23.6881 82.3852 23.8471 82.3744C24.5451 78.2275 24.8931 74.2572 23.7535 71.0412C25.7262 70.4342 27.6871 69.6654 29.5457 68.8771C30.1758 68.6105 30.7816 68.3014 31.4109 68.0982C31.3226 68.3107 31.2328 68.5318 31.1435 68.7568C31.1488 68.7535 31.1551 68.7508 31.1613 68.7475C31.3303 68.4705 31.4625 68.1268 31.6947 67.6789Z" fill="black"/>
</g>
</g>
<g id="Group_55">
<g id="Group_56">
<path id="Vector_79" fill-rule="evenodd" clip-rule="evenodd" d="M29.5866 78.4753C29.3487 78.4245 29.3571 78.2286 29.287 78.0477C29.2168 77.8661 28.9756 77.2034 29.5036 77.387C29.7606 77.4762 30.0403 78.3305 29.5866 78.4753Z" fill="white"/>
<path id="Vector_80" opacity="0.18" fill-rule="evenodd" clip-rule="evenodd" d="M30.7114 79.2825C30.453 79.4926 29.8669 79.0733 30.1929 78.7467C30.504 78.767 30.8765 78.935 30.7114 79.2825Z" fill="black"/>
<path id="Vector_81" fill-rule="evenodd" clip-rule="evenodd" d="M36.8835 68.0256C37.1694 68.2467 36.8835 68.8705 36.6259 69.258C36.4644 69.5024 36.2472 69.7262 36.0132 69.569C35.9755 68.9537 36.5669 68.6811 36.72 68.0817C36.7454 68.0418 36.7946 68.0479 36.8177 68.0036C36.8396 68.0116 36.8614 68.0182 36.8835 68.0256Z" fill="white"/>
<path id="Vector_82" fill-rule="evenodd" clip-rule="evenodd" d="M35.7076 69.9442C35.7337 70.3473 35.3124 71.0281 34.9529 70.5756C35.0941 70.1467 35.3431 69.9309 35.7076 69.9442Z" fill="white"/>
<path id="Vector_83" fill-rule="evenodd" clip-rule="evenodd" d="M34.1027 74.1747C34.3408 74.5338 33.8997 75.8118 33.4181 75.5963C33.1206 75.4629 33.3474 75.1317 33.4679 74.7715C33.5746 74.4553 33.6234 73.9372 34.1027 74.1747Z" fill="white"/>
</g>
<g id="Group_57">
<path id="Vector_84" fill-rule="evenodd" clip-rule="evenodd" d="M24.6461 69.5426C24.5227 69.8504 24.2311 70.0166 24.0006 70.1725C23.7907 70.3154 23.5163 70.5793 23.178 70.4518C23.1754 70.3983 23.1532 70.3541 23.1116 70.3201C23.1897 70.1119 23.392 69.8602 23.6141 69.6799C23.9229 69.4283 24.402 69.0201 24.6461 69.5426Z" fill="white"/>
<path id="Vector_85" opacity="0.18" fill-rule="evenodd" clip-rule="evenodd" d="M21.1085 69.8473C21.747 69.8821 20.8124 71.1492 20.4993 71.0383C20.0107 70.8641 20.8417 69.8328 21.1085 69.8473Z" fill="black"/>
<path id="Vector_86" fill-rule="evenodd" clip-rule="evenodd" d="M22.7538 71.1904C23.203 70.8426 23.2866 72.2317 22.7581 72.0699C22.4355 71.9707 22.6618 71.4604 22.7538 71.1904Z" fill="white"/>
<path id="Vector_87" fill-rule="evenodd" clip-rule="evenodd" d="M27.7879 65.0842C27.76 65.4055 27.4527 65.4342 27.2418 65.5272C26.7984 65.7211 26.4387 65.8695 25.9689 66.0619C25.782 66.1383 25.5312 66.3518 25.3213 66.1422C25.3771 65.8004 25.875 65.5363 26.2844 65.3234C26.6373 65.1393 27.3578 64.8213 27.6234 64.9201C27.6906 64.9461 27.7373 65.0275 27.7879 65.0842Z" fill="white"/>
</g>
</g>
</g>
<g id="Group_58">
<g id="Group_59">
<path id="Vector_88" fill-rule="evenodd" clip-rule="evenodd" d="M20.1616 83.9694C19.4139 84.2393 18.7294 84.5405 18.2165 85.061C18.062 85.2164 17.8378 85.4346 17.8897 85.6756C17.9591 85.9959 18.53 86.0399 19.0095 86.0553C20.0177 86.0877 20.9518 86.0408 21.9938 85.9412C22.8352 85.859 23.5886 85.7199 23.8253 85.1946C23.9985 84.8098 24.0034 84.3334 24.0184 83.8534C24.0317 83.3752 23.9944 82.9061 23.8768 82.3473C23.1575 82.2895 22.2057 82.3008 21.287 82.3914C21.2643 81.8301 20.9264 81.6455 20.344 81.6403C20.1446 81.6385 19.8143 81.6823 19.7366 81.7903C19.5796 82.0088 20.0319 83.6414 20.1616 83.9694Z" fill="#FF5000"/>
<path id="Vector_89" d="M21.1514 84.55C20.6701 85.0848 19.6863 85.3192 18.817 85.0381C18.7051 85.0016 18.5492 84.9475 18.4219 84.8721C18.5146 84.7934 18.6137 84.7223 18.7148 84.6541C18.7584 84.6803 18.802 84.7041 18.8453 84.7203C19.0961 84.8123 19.4201 84.8731 19.7994 84.8387C21.1789 84.7155 21.3756 83.5596 21.277 82.3092C21.2742 82.2659 21.2658 82.2219 21.2564 82.178C21.2732 82.2428 21.2836 82.3129 21.2871 82.3916C21.3889 82.3819 21.4908 82.3731 21.593 82.3651C21.5979 82.45 21.6006 82.5315 21.6031 82.6002C21.6393 83.4078 21.5758 84.0772 21.1514 84.55Z" fill="white"/>
<path id="Vector_90" d="M23.8431 83.8875C23.8969 83.8897 23.9564 83.8926 24.0164 83.901C24.0136 84.0055 24.0111 84.1094 24.0056 84.2121C23.9554 84.1987 23.9056 84.1834 23.8564 84.1813C22.9467 84.1446 22.617 84.736 22.5277 85.3733C22.5037 85.5457 22.5135 85.7621 22.457 85.8844C22.3748 85.8961 22.2918 85.9072 22.2076 85.9172C22.1095 85.7615 22.2019 85.3551 22.2365 85.1844C22.3844 84.4518 22.8304 83.8422 23.8431 83.8875Z" fill="white"/>
<path id="Vector_91" d="M23.7382 85.3375C23.438 85.7454 22.7524 85.8668 21.9933 85.9413C20.9513 86.0409 20.0171 86.0877 19.0089 86.0553C18.58 86.0413 18.0788 86.0049 17.9282 85.7672L23.7382 85.3375Z" fill="white"/>
</g>
<g id="Group_60">
<path id="Vector_92" d="M19.2456 82.4615C19.3367 82.4115 19.4388 82.4156 19.5361 82.4717C19.8952 82.6818 20.2105 83.6713 20.1945 83.8791C20.1927 83.9063 20.1753 83.9313 20.1497 83.9438C20.1244 83.9559 20.0929 83.9545 20.0663 83.9398C19.7968 83.7914 19.1851 83.1578 19.1119 82.775C19.091 82.6705 19.1109 82.5875 19.1677 82.5274C19.1923 82.5006 19.2185 82.4785 19.2456 82.4615ZM19.9954 83.6904C19.9191 83.3672 19.6812 82.7473 19.448 82.6106C19.396 82.5801 19.3671 82.5893 19.3423 82.6031C19.33 82.6111 19.3144 82.6227 19.2988 82.6379C19.2792 82.6604 19.2734 82.6986 19.2845 82.752C19.3331 83.008 19.7175 83.4611 19.9954 83.6904Z" fill="white"/>
<path id="Vector_93" d="M18.6514 83.0195C18.7256 82.9768 18.825 82.9725 18.9481 83.0062C19.3782 83.1238 20.0469 83.7006 20.1446 83.8748C20.1592 83.9006 20.1586 83.9307 20.1436 83.9529C20.1282 83.9783 20.1018 83.9932 20.0717 83.9932C19.7655 83.9973 18.8993 83.7533 18.6241 83.4576C18.5471 83.3764 18.5161 83.2955 18.5286 83.2154C18.543 83.124 18.5838 83.058 18.6514 83.0195ZM19.8706 83.8104C19.6534 83.5988 19.2041 83.2447 18.9045 83.1627C18.8321 83.1428 18.778 83.141 18.7465 83.1603C18.7239 83.1734 18.7075 83.2021 18.6999 83.2461C18.6967 83.275 18.7135 83.3105 18.7514 83.3518C18.9381 83.5494 19.509 83.7498 19.8706 83.8104Z" fill="white"/>
<path id="Vector_94" d="M18.7893 84.1363L20.0426 83.8318L20.0918 83.9903L18.8381 84.2953L18.7893 84.1363Z" fill="white"/>
</g>
</g>
<g id="Group_61">
<g id="Group_62">
<path id="Vector_95" fill-rule="evenodd" clip-rule="evenodd" d="M43.7554 84.2018C43.7297 84.9963 43.7572 85.743 44.0502 86.4125C44.1381 86.6135 44.2566 86.9028 44.5004 86.9438C44.8242 86.9985 45.0758 86.4832 45.2675 86.0436C45.6707 85.1182 45.973 84.233 46.2652 83.2285C46.5 82.4158 46.6502 81.6645 46.2488 81.2504C45.9552 80.9473 45.515 80.7672 45.0744 80.5758C44.6349 80.3865 44.1855 80.2471 43.6222 80.1496C43.3035 80.7969 42.9611 81.6856 42.7058 82.5725C42.1757 82.3858 41.8797 82.6313 41.6593 83.1703C41.584 83.3549 41.5017 83.6787 41.5742 83.7901C41.7191 84.0172 43.4035 84.2006 43.7554 84.2018Z" fill="#FF5000"/>
<path id="Vector_96" d="M44.6606 83.4973C44.9797 84.1418 44.8342 85.1426 44.2512 85.8461C44.1758 85.9364 44.0678 86.0615 43.9502 86.1518C43.9125 86.0367 43.8822 85.9186 43.8561 85.7992C43.8969 85.7684 43.9352 85.7373 43.9662 85.702C44.1443 85.5028 44.3205 85.2254 44.4297 84.8596C44.8252 83.5322 43.8236 82.9223 42.6258 82.5516C42.5846 82.5383 42.54 82.5293 42.4961 82.5215C42.5627 82.5307 42.6311 82.5461 42.7057 82.5723C42.7346 82.4738 42.7643 82.376 42.7945 82.2777C42.8754 82.3053 42.9518 82.3328 43.017 82.3559C43.7807 82.6213 44.3783 82.9279 44.6606 83.4973Z" fill="white"/>
<path id="Vector_97" d="M45.0417 80.7506C45.0634 80.7018 45.0882 80.6469 45.1181 80.5949C45.2144 80.6359 45.3095 80.6773 45.4036 80.7197C45.3722 80.7607 45.3397 80.802 45.3202 80.8471C44.9485 81.6779 45.3761 82.2041 45.9364 82.5225C46.087 82.6082 46.2917 82.6795 46.3839 82.7775C46.3647 82.8576 46.3448 82.9389 46.3222 83.0211C46.1415 83.0545 45.7978 82.8191 45.6522 82.7238C45.0261 82.3148 44.6253 81.6742 45.0417 80.7506Z" fill="white"/>
<path id="Vector_98" d="M46.3502 81.3842C46.618 81.8143 46.4775 82.4961 46.2654 83.2287C45.9732 84.2332 45.6709 85.1186 45.2678 86.0438C45.0965 86.4371 44.8771 86.8891 44.6006 86.9412L46.3502 81.3842Z" fill="white"/>
</g>
<g id="Group_63">
<path id="Vector_99" d="M42.0165 84.4938C42.0036 84.3912 42.0454 84.2977 42.1332 84.2283C42.4614 83.9727 43.4975 84.0459 43.684 84.1369C43.7088 84.1488 43.7258 84.174 43.7272 84.2027C43.7289 84.2309 43.717 84.26 43.6934 84.2789C43.4555 84.474 42.6403 84.8086 42.2581 84.7352C42.1528 84.715 42.0836 84.6666 42.0485 84.5918C42.0327 84.5584 42.0217 84.5256 42.0165 84.4938ZM43.4358 84.2518C43.1073 84.2031 42.443 84.1949 42.2295 84.3611C42.1821 84.3977 42.1793 84.4283 42.1842 84.4563C42.1864 84.4715 42.1913 84.4897 42.2002 84.5092C42.2135 84.5369 42.2469 84.5553 42.2997 84.5656C42.5557 84.6154 43.1196 84.4258 43.4358 84.2518Z" fill="white"/>
<path id="Vector_100" d="M42.3153 85.2532C42.3015 85.1682 42.3348 85.0746 42.412 84.9733C42.6806 84.6162 43.4638 84.2086 43.6622 84.1819C43.6915 84.1782 43.719 84.1897 43.7341 84.2125C43.7519 84.2356 43.7554 84.2659 43.7446 84.2946C43.6354 84.5803 43.0876 85.2942 42.712 85.4412C42.6073 85.4823 42.5206 85.4817 42.4515 85.4397C42.3718 85.3932 42.3251 85.3303 42.3153 85.2532ZM43.5007 84.4139C43.2241 84.5364 42.7282 84.8235 42.5413 85.0711C42.496 85.1309 42.4747 85.1815 42.4806 85.217C42.4845 85.243 42.505 85.2686 42.5431 85.2922C42.5692 85.3057 42.6079 85.3032 42.6599 85.283C42.913 85.1832 43.3102 84.7258 43.5007 84.4139Z" fill="white"/>
<path id="Vector_101" d="M43.4033 85.5375L43.5844 84.2611L43.7492 84.2742L43.5689 85.5514L43.4033 85.5375Z" fill="white"/>
</g>
</g>
</g>
<g id="Group_64">
<g id="Group_65">
<g id="Group_66">
<path id="Vector_102" fill-rule="evenodd" clip-rule="evenodd" d="M38.2638 67.4553C38.6669 66.9363 39.4519 65.3449 39.7236 64.6819C40.2195 63.4709 40.5191 62.0406 40.7482 60.7344C41.1837 58.2408 41.4927 55.7686 41.1921 53.6533C40.938 51.8604 40.3236 49.8736 38.5695 48.9334C37.749 48.493 36.7666 48.6465 36.1796 48.9918C34.9525 49.7135 34.2044 51.4197 33.4914 53.3502C32.7876 55.2555 29.3339 62.1133 28.8279 63.8283L38.2638 67.4553Z" fill="#EFAD1B"/>
<path id="Vector_103" opacity="0.18" d="M38.3719 63.4364C38.866 61.7786 39.4557 59.9807 39.7922 58.2805C40.3229 55.6053 40.6113 52.8323 40.2305 50.578C40.5 51.0391 40.7016 51.5438 40.8551 52.0624C40.8586 52.0737 40.8617 52.085 40.8652 52.0966C40.8981 52.2085 40.9279 52.321 40.9559 52.4344C40.9629 52.4581 40.9688 52.4815 40.974 52.5055C40.9994 52.6071 41.0225 52.7091 41.0438 52.8112C41.05 52.8403 41.0563 52.869 41.0619 52.8985C41.0822 52.9975 41.1 53.0969 41.1188 53.1962C41.1231 53.2245 41.1289 53.253 41.1338 53.2809C41.1555 53.4057 41.1742 53.53 41.192 53.6534C41.4926 55.7686 41.1836 58.2409 40.748 60.7344C40.5189 62.0407 40.2193 63.471 39.7234 64.6819C39.4518 65.345 38.6668 66.9364 38.2637 67.4553L36.6738 66.844C36.7205 66.7866 36.7658 66.7278 36.8154 66.6743C37.5469 65.8596 38.0197 64.6161 38.3719 63.4364Z" fill="black"/>
</g>
<g id="Group_67">
<path id="Vector_104" opacity="0.18" fill-rule="evenodd" clip-rule="evenodd" d="M33.0149 56.4439C32.8081 56.5658 32.5763 57.133 32.881 57.2029C33.1028 57.2541 33.5272 56.5465 33.0149 56.4439Z" fill="black"/>
<path id="Vector_105" opacity="0.18" fill-rule="evenodd" clip-rule="evenodd" d="M32.5618 57.5953C32.3215 57.8129 31.9096 58.5451 32.0979 58.8966C32.5407 59.1379 32.7874 57.8564 32.6649 57.6295C32.6305 57.6181 32.5956 57.6066 32.5618 57.5953Z" fill="black"/>
<path id="Vector_106" fill-rule="evenodd" clip-rule="evenodd" d="M38.8564 61.4914C38.6486 61.5705 38.5531 62.0267 38.5732 62.2398C38.6419 62.2623 38.7109 62.2847 38.7804 62.3078C38.9314 62.1611 39.2306 61.5519 38.8564 61.4914Z" fill="white"/>
<path id="Vector_107" fill-rule="evenodd" clip-rule="evenodd" d="M38.986 64.3637C39.3577 64.3182 39.6639 63.2681 39.2905 63.2013C38.9522 63.1406 38.76 64.1691 38.986 64.3637Z" fill="white"/>
<path id="Vector_108" fill-rule="evenodd" clip-rule="evenodd" d="M38.3708 62.9763C38.0409 63.0816 37.5042 64.6355 37.9317 64.7828C38.3286 64.9195 38.7265 63.5553 38.6931 63.1582C38.6345 63.073 38.5284 63.0121 38.3708 62.9763Z" fill="white"/>
</g>
</g>
<g id="Group_68">
<g id="Group_69">
<path id="Vector_109" fill-rule="evenodd" clip-rule="evenodd" d="M36.8762 48.2485L36.9048 49.5486C36.9048 49.5486 36.3036 49.0889 36.3426 48.901C36.4491 48.3856 36.8762 48.2485 36.8762 48.2485Z" fill="#EFAD1B"/>
<path id="Vector_110" opacity="0.18" fill-rule="evenodd" clip-rule="evenodd" d="M36.8762 48.2485L36.9048 49.5486C36.9048 49.5486 36.3036 49.0889 36.3426 48.901C36.4491 48.3856 36.8762 48.2485 36.8762 48.2485Z" fill="black"/>
</g>
<g id="Group_70">
<path id="Vector_111" fill-rule="evenodd" clip-rule="evenodd" d="M36.8762 47.9852C36.8762 47.9852 36.7572 49.302 36.8043 49.402C37.0889 50.0114 39.4322 50.4555 39.4992 49.2598C39.4992 49.2598 39.5711 48.4868 39.6234 48.1405C39.7508 47.3114 39.8707 46.7932 40.284 46.1837C40.5375 45.8087 40.7914 45.3698 40.9385 44.8555C41.3127 43.5399 40.6037 42.2645 39.6988 41.829C39.3564 41.6647 38.6621 41.4835 38.1965 41.5548C37.7418 41.6243 36.9766 41.7569 36.5812 42.0928C35.9871 42.5987 35.9707 43.3823 35.7687 44.4536C35.6582 45.0397 35.493 45.6559 35.4357 46.0975C35.2783 47.3186 35.866 47.8262 36.8762 47.9852Z" fill="#FCD2C0"/>
<g id="Group_71">
<path id="Vector_112" fill-rule="evenodd" clip-rule="evenodd" d="M34.7837 39.9016C34.5333 40.5065 34.8671 40.9879 35.205 41.2991C35.077 41.3594 34.7196 41.1123 34.7126 41.2993C34.6891 41.9489 35.0044 42.2516 35.5272 42.3924C36.6051 42.6825 38.4091 42.2268 38.3512 43.5996C38.3313 44.0791 38.0694 44.6475 38.3624 44.7682C38.6571 44.8881 38.8391 44.2 39.2214 44.2811C39.4118 44.3217 39.5335 44.5235 39.5251 44.6993C39.501 45.2532 39.0432 45.3032 38.6905 45.2272C38.5387 45.6346 38.2821 46.2172 38.5089 46.5299C38.9714 47.0254 40.0508 47.3788 40.7274 46.6524C41.0897 46.2641 41.4747 45.2522 41.6069 44.658C41.7747 43.9039 41.4622 43.1588 40.7428 42.8823C41.0235 41.3399 38.8067 41.076 37.311 40.6565C36.5194 40.4352 35.7975 40.1342 35.2759 39.9012C35.1335 39.8385 34.8782 39.6735 34.7837 39.9016Z" fill="#FF5000"/>
<path id="Vector_113" fill-rule="evenodd" clip-rule="evenodd" d="M39.9549 42.0025C39.8696 42.29 39.2143 41.9422 39.1287 41.7647C38.8768 41.2387 40.0244 41.7652 39.9549 42.0025Z" fill="white"/>
<path id="Vector_114" fill-rule="evenodd" clip-rule="evenodd" d="M40.4665 42.6694C40.3333 42.793 40.0986 42.41 40.1087 42.2913C40.138 41.9387 40.5757 42.5672 40.4665 42.6694Z" fill="white"/>
</g>
<g id="Group_72">
<g id="Group_73">
<path id="Vector_115" fill-rule="evenodd" clip-rule="evenodd" d="M37.3227 44.2243C37.1937 44.0135 37.0484 43.8975 36.9082 43.8382L36.4854 43.9155L36.6104 44.2026C36.6475 44.2227 36.6885 44.242 36.7336 44.2596C37.0016 44.3635 37.3227 44.2243 37.3227 44.2243Z" fill="white"/>
<path id="Vector_116" fill-rule="evenodd" clip-rule="evenodd" d="M36.2786 43.8722C36.2786 43.8722 36.5764 43.6995 36.9086 43.8378C36.9122 43.8671 36.925 43.9253 36.9202 43.9561C36.8979 44.093 36.7758 44.193 36.6276 44.2106C36.3542 44.0688 36.2786 43.8722 36.2786 43.8722Z" fill="#4D3D87"/>
<path id="Vector_117" d="M37.5076 44.0225C37.2621 43.5198 36.6779 43.4073 36.4496 43.4334L36.4265 43.2362C36.7888 43.1946 37.4169 43.3842 37.6857 43.9356L37.5076 44.0225Z" fill="#FF5000"/>
<path id="Vector_118" fill-rule="evenodd" clip-rule="evenodd" d="M36.0361 43.7205C36.207 43.7391 35.8746 44.8863 35.6582 45.3129C35.4345 45.3197 35.1675 45.1975 35.1396 45.008C35.0832 44.6326 35.8736 43.7039 36.0361 43.7205Z" fill="#FCD2C0"/>
<path id="Vector_119" opacity="0.13" fill-rule="evenodd" clip-rule="evenodd" d="M36.0361 43.7205C36.207 43.7391 35.8746 44.8863 35.6582 45.3129C35.4345 45.3197 35.1675 45.1975 35.1396 45.008C35.0832 44.6326 35.8736 43.7039 36.0361 43.7205Z" fill="black"/>
<path id="Vector_120" fill-rule="evenodd" clip-rule="evenodd" d="M36.1776 45.759C36.1487 46.1846 35.4951 46.4502 35.4198 46.2885C35.3784 46.2002 35.3975 46.034 35.4637 45.9688C35.7252 45.9981 35.9344 45.969 36.1776 45.759Z" fill="#FCD2C0"/>
<path id="Vector_121" fill-rule="evenodd" clip-rule="evenodd" d="M36.1771 45.759C35.9964 45.9352 35.5863 45.894 35.4775 45.868C35.4406 45.26 35.8894 45.7902 36.1771 45.759Z" fill="#FCD2C0"/>
<path id="Vector_122" opacity="0.13" fill-rule="evenodd" clip-rule="evenodd" d="M36.1776 45.759C36.1487 46.1846 35.4951 46.4502 35.4198 46.2885C35.3784 46.2002 35.3975 46.034 35.4637 45.9688C35.7252 45.9981 35.9344 45.969 36.1776 45.759Z" fill="black"/>
<path id="Vector_123" opacity="0.13" fill-rule="evenodd" clip-rule="evenodd" d="M36.1771 45.759C35.9964 45.9352 35.5863 45.894 35.4775 45.868C35.4406 45.26 35.8894 45.7902 36.1771 45.759Z" fill="black"/>
<path id="Vector_124" opacity="0.13" d="M37.7686 45.4077C37.7464 45.7315 37.4663 45.9766 37.1423 45.954C36.819 45.9317 36.5749 45.6518 36.5966 45.3284C36.6182 45.0044 36.8989 44.7598 37.2225 44.7821C37.5458 44.8044 37.7907 45.0844 37.7686 45.4077Z" fill="black"/>
</g>
<path id="Vector_125" opacity="0.13" fill-rule="evenodd" clip-rule="evenodd" d="M36.8755 47.9852L36.8159 48.8989C38.1567 48.7637 38.6554 47.7125 38.6554 47.7125C38.6554 47.7125 37.7239 48.1842 36.8755 47.9852Z" fill="black"/>
</g>
</g>
<g id="Group_74">
<g id="Group_75">
<path id="Vector_126" fill-rule="evenodd" clip-rule="evenodd" d="M39.4731 48.6549C39.8919 48.7133 40.7993 49.0129 41.6718 49.3672C42.7333 49.7988 43.7421 50.3113 43.7526 50.5709C43.7837 51.2463 41.8116 54.061 41.4651 54.0494C41.0735 54.0367 40.8759 53.6555 40.813 53.3768C40.6905 52.8416 40.1476 51.974 38.8849 51.0272C37.9325 50.3147 36.9048 49.5484 36.9048 49.5484C36.9048 49.5484 37.5685 48.3549 39.4731 48.6549Z" fill="#EFAD1B"/>
</g>
<g id="Group_76" opacity="0.25">
<path id="Vector_127" opacity="0.25" fill-rule="evenodd" clip-rule="evenodd" d="M39.4731 48.6549C39.8919 48.7133 40.7993 49.0129 41.6718 49.3672C42.7333 49.7988 43.7421 50.3113 43.7526 50.5709C43.7837 51.2463 41.8116 54.061 41.4651 54.0494C41.0735 54.0367 40.8759 53.6555 40.813 53.3768C40.6905 52.8416 40.1476 51.974 38.8849 51.0272C37.9325 50.3147 36.9048 49.5484 36.9048 49.5484C36.9048 49.5484 37.5685 48.3549 39.4731 48.6549Z" fill="white"/>
</g>
</g>
</g>
<g id="Group_77">
<g id="Group_78">
<g id="Group_79">
<path id="Vector_128" fill-rule="evenodd" clip-rule="evenodd" d="M22.2625 44.5662C23.2588 44.9612 23.7933 45.8334 24.3851 46.6061C24.9494 47.341 25.499 48.0533 25.9871 48.8063C27.0256 50.4057 27.8601 52.0018 28.6799 53.4455C30.1113 52.717 31.5129 51.9289 32.9349 51.1832C33.1637 52.0406 33.4828 52.8826 33.7621 53.725C33.9291 54.2319 34.2678 54.6283 34.6945 54.9129C33.3551 55.6082 31.9912 56.2654 30.5437 56.7434C29.8187 56.9832 28.7812 57.3305 27.9683 57.2445C26.2199 57.0586 25.5002 55.4256 24.9453 54.3781C24.3836 53.3197 23.9451 52.2283 23.5521 51.1725C23.1877 50.1961 22.7725 49.0567 22.3316 47.9125C22.0363 47.1479 21.6889 46.2789 21.4023 45.4537C21.1588 44.7534 21.5254 44.2752 22.2625 44.5662Z" fill="#FCD2C0"/>
<path id="Vector_129" fill-rule="evenodd" clip-rule="evenodd" d="M20.9187 44.1405C20.7615 44.0747 20.2788 43.7549 20.0085 43.6881C19.9038 43.6622 19.7718 43.662 19.7306 43.7475C19.6427 43.9268 20.0462 44.1444 20.1755 44.2395C20.4015 44.4047 20.5476 44.5325 20.7456 44.6676C20.5552 44.6157 20.09 44.3032 19.7622 44.2036C19.6242 44.1626 19.4599 44.1397 19.4115 44.2522C19.3484 44.3946 19.6587 44.6106 19.7622 44.6866C20.2542 45.0522 20.8007 45.4637 21.1337 45.8311C21.516 46.254 21.79 46.67 22.0146 47.1797C22.0693 47.3024 22.1335 47.5883 22.2542 47.6452C22.3128 47.6719 22.4771 47.6458 22.5367 47.6262C22.741 47.5596 22.9503 47.4088 23.2218 47.2331C23.3251 47.1663 23.4304 47.1042 23.5494 47.0014C23.6449 46.9184 23.8234 46.795 23.849 46.7395C23.8902 46.652 23.8329 46.426 23.7956 46.2922C23.6896 45.9028 23.4968 45.3686 23.4001 45.0487C23.3158 44.7713 23.2279 44.4799 23.1519 44.2129C23.0786 43.959 22.846 43.1256 22.5085 43.1737C22.2329 43.2141 22.5538 43.9958 22.5468 44.2139C22.3156 43.9122 21.8644 43.4838 21.3113 43.1641C21.1673 43.0807 20.8708 42.8895 20.7736 42.9999C20.6404 43.1514 20.8699 43.3118 20.9605 43.4053C21.087 43.5352 21.1679 43.6442 21.2956 43.7364C21.0767 43.6565 20.6497 43.3588 20.3792 43.3006C20.291 43.2817 20.1777 43.2922 20.1413 43.3571C20.0601 43.5079 20.3052 43.6383 20.449 43.7545C20.646 43.9124 20.7632 44.0276 20.9015 44.1344C20.9072 44.1358 20.9126 44.1381 20.9187 44.1405Z" fill="#FCD2C0"/>
</g>
<g id="Group_80">
<path id="Vector_130" opacity="0.13" fill-rule="evenodd" clip-rule="evenodd" d="M28.1799 52.5449C28.3033 52.2418 27.4203 54.3758 27.6609 54.4607C28.0463 54.5961 28.6816 53.4455 28.6816 53.4455L28.1799 52.5449Z" fill="black"/>
<path id="Vector_131" fill-rule="evenodd" clip-rule="evenodd" d="M27.6046 56.65C27.3716 55.7408 28.8597 56.4178 28.7958 56.3447C29.2679 56.8822 27.6806 56.9473 27.6046 56.65Z" fill="white"/>
<path id="Vector_132" fill-rule="evenodd" clip-rule="evenodd" d="M26.8946 55.7231C27.0428 55.6529 27.3754 56.2678 27.2436 56.3649C27.1116 56.4623 26.475 55.9227 26.8946 55.7231Z" fill="white"/>
</g>
</g>
<path id="Vector_133" fill-rule="evenodd" clip-rule="evenodd" d="M30.9023 52.0817C31.3197 53.5311 32.0217 54.8365 32.751 56.1285C33.8143 55.7569 34.9269 55.2785 35.9484 54.5365C36.9314 53.8229 37.9689 52.9078 38.3912 51.5129C38.6248 50.7418 38.5701 49.7709 37.5766 49.5633C36.99 49.4412 36.2926 49.6654 35.7283 49.8377C34.075 50.3432 32.2271 51.2166 30.9023 52.0817Z" fill="#EFAD1B"/>
<path id="Vector_134" opacity="0.18" fill-rule="evenodd" clip-rule="evenodd" d="M30.9023 52.0817C31.3197 53.5311 32.0217 54.8365 32.751 56.1285C33.8143 55.7569 34.9269 55.2785 35.9484 54.5365C36.9314 53.8229 37.9689 52.9078 38.3912 51.5129C38.6248 50.7418 38.5701 49.7709 37.5766 49.5633C36.99 49.4412 36.2926 49.6654 35.7283 49.8377C34.075 50.3432 32.2271 51.2166 30.9023 52.0817Z" fill="black"/>
</g>
</g>
</g>
</g>
<g id="Group_81">
<g id="Group_82">
<g id="Group_83">
<g id="Group_84">
<path id="Vector_135" d="M51.3135 32.6118L48.9727 35.1552L52.112 38.0446L54.4529 35.5012L51.3135 32.6118Z" fill="#FCD2C0"/>
<g id="Group_85">
<path id="Vector_136" fill-rule="evenodd" clip-rule="evenodd" d="M51.5163 38.226C51.0794 38.9912 50.7177 39.736 50.6403 40.5373C50.6163 40.7772 50.5741 41.1194 50.7749 41.2801C51.0427 41.495 51.5394 41.1145 51.9421 40.7789C52.7864 40.0731 53.5204 39.3563 54.3067 38.5174C54.9431 37.8393 55.4659 37.1764 55.3151 36.5733C55.2054 36.1303 54.897 35.735 54.5946 35.3291C54.2917 34.9258 53.9548 34.5659 53.4927 34.1926C52.8667 34.667 52.0942 35.3676 51.4024 36.1104C51.0153 35.6641 50.6185 35.7573 50.1384 36.1766C49.9745 36.3201 49.7321 36.5963 49.7392 36.7412C49.7552 37.0369 51.1944 38.05 51.5163 38.226Z" fill="#FF5000"/>
<g id="Group_86">
<path id="Vector_137" d="M49.7809 37.6483C49.8208 37.5426 49.9061 37.4715 50.0237 37.4473C50.4553 37.3582 51.3614 37.945 51.4844 38.1268C51.4999 38.1506 51.5026 38.1842 51.4901 38.2127C51.4759 38.2418 51.4483 38.2633 51.4182 38.2704C51.1008 38.3432 50.1858 38.2672 49.8741 38.0043C49.7893 37.9342 49.7506 37.8522 49.7583 37.7598C49.7604 37.7209 49.7684 37.6829 49.7809 37.6483ZM51.1975 38.1166C50.9231 37.9059 50.3206 37.5688 50.0419 37.6249C49.9797 37.6377 49.962 37.6661 49.9508 37.6952C49.945 37.7135 49.9411 37.7309 49.9383 37.7555C49.9366 37.7891 49.9575 37.8237 50.0001 37.861C50.2071 38.0352 50.8198 38.1305 51.1975 38.1166Z" fill="#4D3D87"/>
<path id="Vector_138" d="M49.6589 38.5413C49.6913 38.452 49.769 38.377 49.8928 38.3145C50.3221 38.0993 51.2474 38.0884 51.4405 38.1614C51.4688 38.1706 51.488 38.196 51.4911 38.2257C51.4946 38.2571 51.4831 38.2886 51.4577 38.3104C51.2104 38.5366 50.3425 38.9639 49.9223 38.921C49.8073 38.91 49.7274 38.8673 49.687 38.7927C49.6376 38.7061 49.6296 38.6218 49.6589 38.5413ZM51.1737 38.3065C50.8579 38.2905 50.2583 38.3261 49.9581 38.4749C49.887 38.5108 49.8417 38.5501 49.8284 38.5889C49.8194 38.6153 49.8243 38.6501 49.8458 38.6923C49.8622 38.7186 49.8987 38.737 49.9591 38.7419C50.2401 38.7694 50.8386 38.5178 51.1737 38.3065Z" fill="#4D3D87"/>
<path id="Vector_139" d="M50.5029 39.3596L51.3287 38.1992L51.4734 38.2944L50.6467 39.4545L50.5029 39.3596Z" fill="#4D3D87"/>
</g>
<g id="Group_87">
<path id="Vector_140" d="M51.1164 40.0817C52.0109 39.6819 52.664 38.7739 52.7054 37.9846C52.7609 36.9494 52.4466 36.7926 51.798 36.0508C51.7505 35.9971 51.6947 35.9319 51.6351 35.8656C51.557 35.9465 51.4792 36.0278 51.4029 36.11C51.3451 36.0436 51.2878 35.991 51.2296 35.9479C51.2687 35.9803 51.3074 36.0131 51.3402 36.0492C52.2402 37.0074 52.8382 38.1006 51.7908 39.2039C51.5013 39.508 51.1966 39.6934 50.9312 39.7994C50.8837 39.818 50.8335 39.8295 50.7812 39.8397C50.7429 39.9699 50.7083 40.1008 50.6843 40.2328C50.8375 40.203 51.0013 40.1326 51.1164 40.0817Z" fill="white"/>
<path id="Vector_141" d="M54.4741 35.4846C53.6159 36.1823 53.6519 37.008 54.0093 37.7194C54.0927 37.8852 54.2845 38.287 54.4675 38.343C54.53 38.2737 54.5923 38.2041 54.6505 38.1348C54.6177 37.9936 54.4653 37.8225 54.3716 37.6637C53.9681 36.9721 54.0751 36.211 54.6784 35.7164C54.7193 35.6826 54.7691 35.6582 54.8196 35.6334C54.7558 35.5455 54.6909 35.458 54.6237 35.3694C54.5704 35.4061 54.5185 35.4477 54.4741 35.4846Z" fill="white"/>
</g>
<path id="Vector_142" d="M55.3388 36.7525C55.3605 37.3076 54.8792 37.9057 54.307 38.5174C53.5208 39.3563 52.7869 40.0731 51.9423 40.7789C51.5804 41.0797 51.1458 41.4135 50.8669 41.327L55.3388 36.7525Z" fill="#4D3D87"/>
</g>
</g>
<g id="Group_88">
<path id="Vector_143" fill-rule="evenodd" clip-rule="evenodd" d="M51.8378 32.7336C51.8343 32.7403 49.3343 35.1752 49.086 35.4557C48.9315 35.3405 45.9845 32.852 44.7081 31.6266C43.8987 30.8508 42.6357 29.6072 42.8136 28.2576C43.0099 26.775 45.7007 25.8248 47.5185 25.4469C49.4214 25.0506 51.1907 24.9795 52.9382 24.803C52.595 24.443 52.246 24.0944 51.9095 23.7168C53.4585 22.1651 55.0204 20.6207 56.6946 19.1248C57.7206 19.2789 58.9198 19.7617 59.997 20.4143C61.0362 21.0455 62.0081 21.8178 62.5831 23.074C63.0204 24.0317 63.048 24.9643 62.7564 25.6182C61.8728 27.5998 58.6073 28.583 56.0784 29.1076C53.4493 29.653 50.6108 29.3188 48.2978 29.411C49.1776 30.2074 51.761 32.6569 51.8378 32.7336Z" fill="#8F7ECE"/>
<g id="Group_89">
<g id="Group_90">
<path id="Vector_144" fill-rule="evenodd" clip-rule="evenodd" d="M44.7817 30.4772C44.6014 30.6092 44.3733 30.3477 44.2422 30.093C44.1118 29.8397 44.003 29.5589 44.1198 29.4813C44.3049 29.3592 44.4702 29.718 44.5797 29.9155C44.6708 30.0792 44.9708 30.3383 44.7817 30.4772Z" fill="white"/>
<path id="Vector_145" fill-rule="evenodd" clip-rule="evenodd" d="M43.5689 29.5631C43.3469 29.7204 43.0703 29.0159 43.2644 28.9221C43.5369 28.7905 43.8121 29.3907 43.5689 29.5631Z" fill="white"/>
<path id="Vector_146" fill-rule="evenodd" clip-rule="evenodd" d="M43.8597 28.9104C43.6675 28.8809 43.5107 28.4409 43.4601 28.1612C43.4433 28.0621 43.4071 28.0375 43.5116 28.0047C43.6737 27.9543 43.7599 28.2371 43.8517 28.4268C43.9484 28.6219 44.1021 28.8186 43.8597 28.9104Z" fill="white"/>
</g>
<g id="Group_91">
<path id="Vector_147" opacity="0.13" d="M46.8778 28.2993C47.0417 28.1612 48.3692 28.8725 49.087 29.3953C48.8206 29.3953 48.5587 29.4006 48.3038 29.411C48.0303 29.2184 47.7635 29.0334 47.5003 28.8532C47.278 28.7024 46.8126 28.3545 46.8778 28.2993Z" fill="black"/>
<path id="Vector_148" opacity="0.13" d="M55.4883 24.5605C55.5137 24.7145 54.9122 24.7332 54.6315 24.7477C54.0219 24.7771 53.4194 24.8031 52.8272 24.8139C52.8645 24.8104 52.9018 24.8068 52.9385 24.8027C52.7206 24.574 52.5008 24.3492 52.2815 24.1184C53.0465 24.1221 53.9432 24.2176 54.6333 24.3002C54.9426 24.3373 55.4657 24.4295 55.4883 24.5605Z" fill="black"/>
</g>
<g id="Group_92">
<path id="Vector_149" fill-rule="evenodd" clip-rule="evenodd" d="M61.8947 25.1383C61.9369 25.0969 61.477 25.9051 61.8326 25.9953C62.0879 26.06 62.2012 25.4182 62.1297 25.1957C62.0856 25.1404 61.9739 25.1135 61.8947 25.1383Z" fill="white"/>
<path id="Vector_150" fill-rule="evenodd" clip-rule="evenodd" d="M62.0128 23.8449C61.9009 24.0258 62.1486 24.9834 62.4851 24.8402C62.7054 24.7473 62.4994 23.9764 62.2462 23.7914C62.1806 23.776 62.1029 23.7932 62.0128 23.8449Z" fill="white"/>
</g>
</g>
</g>
</g>
<g id="Group_93">
<g id="Group_94">
<g id="Group_95">
<path id="Vector_151" fill-rule="evenodd" clip-rule="evenodd" d="M39.6933 10.0574C39.9823 9.72971 40.4144 9.50647 40.7419 9.68714C41.8509 10.2971 40.8821 11.6252 40.9585 11.733C41.5792 12.6022 42.6407 13.8117 42.9849 14.3032C43.3192 14.7848 41.6366 16.7489 40.6952 15.9928C40.6952 15.9928 40.0075 15.2834 39.6702 14.9803C39.2005 15.2758 38.488 15.51 37.9124 15.2791C37.5985 15.1508 37.1413 14.7744 36.8823 14.3811C36.7376 14.1614 36.6005 13.8268 36.4437 13.4676C36.1821 12.8621 35.6835 12.5246 35.4691 11.9129C35.3439 11.552 35.4554 10.9973 35.4509 10.7791C35.4402 10.3143 35.687 9.73831 36.2292 9.29339C37.0163 8.64983 38.2999 8.551 39.0862 9.17854C39.438 9.45823 39.5657 9.73069 39.6933 10.0574Z" fill="#FCD2C0"/>
<path id="Vector_152" opacity="0.13" fill-rule="evenodd" clip-rule="evenodd" d="M40.603 13.3379C40.8876 13.765 41.0243 15.0043 40.2808 15.5699L39.6704 14.9802C40.3083 14.4672 40.461 13.9076 40.603 13.3379Z" fill="black"/>
<path id="Vector_153" d="M42.8563 9.92189C42.9522 9.5756 42.9596 9.15939 42.6792 8.73927C42.5264 8.51134 42.229 8.23556 42.003 8.14532C41.7118 8.03146 41.3233 8.03321 41.0356 7.93087C40.7096 7.81642 40.4464 7.44376 40.1694 7.15821C39.6223 6.59864 38.8432 6.46427 38.2057 6.81525C37.8259 7.02618 37.668 7.27853 37.4473 7.53985C37.0634 7.32814 36.6788 7.31173 36.2714 7.53614C35.5512 7.93321 35.612 8.50392 35.3071 8.95489C35.0958 9.27149 34.5214 9.56075 34.2637 9.84708C34.0231 10.115 33.8038 10.3881 33.6991 10.7246C33.5634 11.1641 33.7647 11.8084 34.0973 12.2065C34.7432 12.9781 34.4845 13.266 34.9147 13.9082C35.6841 15.0559 36.4882 14.2401 36.8274 14.2893C36.796 14.2359 36.7387 14.0953 36.7093 14.0361C36.5397 13.6899 36.3692 13.1899 36.1481 12.8201C35.9718 12.5221 35.7427 12.2824 35.6136 11.9522C36.5579 11.2387 36.7745 10.3934 36.7755 9.50939C37.2163 9.45138 37.5925 9.44923 37.9161 9.85685C38.1075 10.0998 38.2184 10.4275 38.4305 10.6858C38.5829 10.8709 38.7596 10.9859 38.9257 11.0506C38.9887 11.0746 39.1509 11.1395 39.1739 11.0567C39.2046 10.9438 38.9608 10.9025 38.837 10.8238C38.4339 10.5717 38.278 9.89259 37.9317 9.54943C38.2884 9.73653 38.3854 10.2635 38.7065 10.5399C38.8868 10.6943 39.1362 10.7195 39.3667 10.7902C39.6212 10.8697 39.8005 11.0141 40.0034 11.1676C40.0044 10.8574 40.0278 10.4856 40.3661 10.3199C40.5229 10.242 40.7036 10.3051 40.8024 10.4369C41.0249 10.7328 40.9276 11.3981 40.4938 11.5582C40.3757 11.7656 40.7007 11.7717 41.0253 11.8496C43.0294 12.3324 42.6214 10.5539 42.6632 10.4094C42.712 10.2406 42.8091 10.0902 42.8563 9.92189ZM35.5085 11.7381L35.4569 11.6168C35.5124 11.5766 35.571 11.5268 35.6204 11.4818C36.0747 11.0594 36.4054 10.5147 36.5675 10.0082C36.5139 10.5664 36.205 11.2801 35.5085 11.7381Z" fill="#FF5000"/>
<g id="Group_96">
<g id="Group_97">
<g id="Group_98">
<g id="Group_99">
<path id="Vector_154" fill-rule="evenodd" clip-rule="evenodd" d="M38.5915 11.5442C38.3477 11.4836 38.1598 11.5035 38.0163 11.5612L37.8538 11.9045L38.061 12.0346C38.102 12.0229 38.1452 12.0076 38.1901 11.9883C38.4584 11.8735 38.5915 11.5442 38.5915 11.5442Z" fill="white"/>
<path id="Vector_155" fill-rule="evenodd" clip-rule="evenodd" d="M37.5891 12.0332C37.5891 12.0332 37.6791 11.6967 38.0167 11.5617C38.0403 11.5795 38.0917 11.6123 38.109 11.6379C38.1913 11.7518 38.1735 11.911 38.0784 12.0289C37.7813 12.1213 37.5891 12.0332 37.5891 12.0332Z" fill="#4D3D87"/>
</g>
<path id="Vector_156" d="M38.4804 11.2309C37.9255 11.1305 37.4841 11.5375 37.3677 11.7385L37.1892 11.636C37.3734 11.3166 37.9058 10.9158 38.5181 11.0282L38.4804 11.2309Z" fill="#FF5000"/>
<path id="Vector_157" opacity="0.13" d="M37.8943 14.0973C38.4208 13.8938 38.5861 13.3166 38.5806 13.085L38.7861 13.0797C38.7945 13.4483 38.549 14.0674 37.9683 14.2891L37.8943 14.0973Z" fill="black"/>
</g>
<g id="Group_100">
<g id="Group_101">
<path id="Vector_158" fill-rule="evenodd" clip-rule="evenodd" d="M36.9188 12.3666C36.6916 12.3102 36.5168 12.329 36.3834 12.3827L36.2529 12.7002L36.443 12.8168C36.476 12.8067 36.5104 12.7942 36.5459 12.7788C36.7949 12.6715 36.9188 12.3666 36.9188 12.3666Z" fill="white"/>
<path id="Vector_159" fill-rule="evenodd" clip-rule="evenodd" d="M35.9871 12.8204C35.9871 12.8204 36.0714 12.5083 36.3835 12.3823C36.407 12.3987 36.4546 12.4294 36.471 12.4534C36.547 12.5589 36.5306 12.7063 36.4431 12.8163C36.1673 12.9003 35.9871 12.8204 35.9871 12.8204Z" fill="#4D3D87"/>
</g>
<path id="Vector_160" d="M36.8147 12.0823C36.3024 11.9893 35.8971 12.3655 35.7901 12.5503L35.6116 12.4485C35.7834 12.1491 36.2815 11.7762 36.8512 11.8797L36.8147 12.0823Z" fill="#FF5000"/>
</g>
<path id="Vector_161" opacity="0.13" fill-rule="evenodd" clip-rule="evenodd" d="M37.9847 13.4113C36.9471 13.9353 37.183 12.7572 37.1283 12.2395C37.1256 12.2088 37.1025 12.1631 37.1283 12.1338C37.2748 11.9703 37.8676 12.9859 37.9847 13.4113Z" fill="black"/>
<path id="Vector_162" opacity="0.13" fill-rule="evenodd" clip-rule="evenodd" d="M39.5242 11.7848C39.6779 11.9393 39.6779 12.1901 39.5238 12.3425C39.3693 12.4968 39.1207 12.4958 38.9672 12.3419C38.8127 12.188 38.8144 11.9399 38.9679 11.7854C39.1215 11.6315 39.3707 11.6315 39.5242 11.7848Z" fill="black"/>
</g>
</g>
</g>
<g id="Group_102">
<g id="Group_103">
<path id="Vector_163" fill-rule="evenodd" clip-rule="evenodd" d="M39.0234 7.36016C39.2613 7.16719 38.5412 6.83379 38.5484 7.13536C38.5519 7.29356 38.8738 7.36739 39.0234 7.36016Z" fill="white"/>
<path id="Vector_164" fill-rule="evenodd" clip-rule="evenodd" d="M39.5522 7.28128C39.4869 7.27874 39.3528 7.30764 39.3563 7.43792C39.3621 7.60823 39.6617 7.77249 39.7692 7.86018C39.8985 7.96721 40.0946 8.2262 40.2713 8.15882C40.5235 8.06194 40.1701 7.72405 40.044 7.61331C39.9774 7.55354 39.9063 7.50237 39.8473 7.4553C39.7449 7.37425 39.6778 7.28694 39.5522 7.28128Z" fill="white"/>
</g>
<g id="Group_104">
<path id="Vector_165" fill-rule="evenodd" clip-rule="evenodd" d="M42.0446 8.76503C42.2831 8.57187 41.563 8.23867 41.5706 8.54042C41.5741 8.69804 41.8964 8.77226 42.0446 8.76503Z" fill="white"/>
</g>
</g>
</g>
<g id="Group_105">
<g id="Group_106">
<path id="Vector_166" d="M56.1421 18.1295C54.439 17.308 50.414 15.3357 50.1528 15.1812C49.0694 14.5369 47.8911 13.8425 46.6573 13.3795C45.3667 12.8957 43.9491 12.633 42.3423 13.2279C42.2864 13.2478 42.2335 13.2703 42.1788 13.2929C42.4278 14.4539 41.8269 15.5236 40.7222 16.0062C40.9233 16.5609 40.6444 21.3785 42.0542 22.1343C43.454 22.8855 45.4337 21.9509 46.0812 22.1703C46.4909 22.3093 49.289 23.7105 50.7788 24.2931C51.5843 24.6084 52.0513 24.3617 52.3052 24.1875C53.7663 23.1898 55.8835 20.9052 56.6409 19.1015C56.7485 18.8439 56.9023 18.4966 56.1421 18.1295Z" fill="#CAD309"/>
<g id="Group_107">
<g id="Group_108">
<path id="Vector_167" fill-rule="evenodd" clip-rule="evenodd" d="M51.7414 24.0503C51.7735 24.3205 51.0221 24.2324 51.0311 24.0169C51.0399 23.7951 51.7143 23.8415 51.7414 24.0503Z" fill="white"/>
<path id="Vector_168" fill-rule="evenodd" clip-rule="evenodd" d="M51.3001 23.4869C51.1847 23.6414 50.7826 23.6496 50.5117 23.5621C50.4161 23.5303 50.3185 23.4738 50.3376 23.366C50.3704 23.1986 50.6599 23.2566 50.8712 23.2642C51.0888 23.272 51.3343 23.2293 51.3001 23.4869Z" fill="white"/>
</g>
</g>
</g>
<g id="Group_109">
<path id="Vector_169" fill-rule="evenodd" clip-rule="evenodd" d="M45.749 13.7401C46.0291 13.4477 45.028 13.1301 45.0875 13.5252C45.1186 13.7313 45.5545 13.7744 45.749 13.7401Z" fill="white"/>
<path id="Vector_170" fill-rule="evenodd" clip-rule="evenodd" d="M46.4289 13.549C46.3427 13.5559 46.1714 13.6168 46.1984 13.7867C46.2326 14.0094 46.6552 14.1752 46.8089 14.2729C46.9972 14.3912 47.2982 14.699 47.5193 14.5803C47.8339 14.4113 47.3146 14.027 47.1298 13.9022C47.0318 13.8358 46.9297 13.7801 46.8439 13.7283C46.6966 13.6391 46.5933 13.5354 46.4289 13.549Z" fill="white"/>
</g>
</g>
<g id="Group_110">
<path id="Vector_171" fill-rule="evenodd" clip-rule="evenodd" d="M42.0612 20.1812C41.908 20.7795 40.5508 24.4355 39.9789 25.9459C39.4785 27.2658 37.6129 30.7051 37.3192 31.098C37.1532 31.281 36.9946 31.4576 36.8717 31.5855C36.6506 31.817 36.4201 32.0582 36.2045 32.2773C36.0012 32.4844 35.3285 33.1615 35.5731 33.4057C35.776 33.6074 36.3455 32.8885 36.5627 32.7666C36.4047 33.1309 36.2537 33.7461 36.2688 34.3801C36.2723 34.5475 36.2608 34.899 36.4256 34.9135C36.6506 34.9328 36.6725 34.6519 36.7092 34.5238C36.7612 34.3451 36.8198 34.2162 36.8348 34.0592C36.8846 34.2832 36.8473 34.8035 36.9498 35.057C36.9826 35.1389 37.0604 35.2248 37.1438 35.215C37.3387 35.1932 37.3205 34.9185 37.3485 34.7338C37.3854 34.4838 37.4301 34.3211 37.4514 34.1498C37.45 34.1422 37.4492 34.1346 37.4489 34.1273C37.4496 34.134 37.4506 34.1398 37.4524 34.1455C37.4524 34.1471 37.4514 34.1484 37.4514 34.1496C37.475 34.3379 37.4532 34.8808 37.5434 35.1297C37.5801 35.2295 37.6571 35.3353 37.7649 35.3189C37.9918 35.2855 37.966 34.8312 37.9824 34.6709C38.009 34.3912 38.0473 34.1967 38.0623 33.9592C38.1244 34.1434 38.0948 34.7037 38.191 35.0273C38.2309 35.1621 38.3055 35.3088 38.4446 35.283C38.6172 35.2498 38.6453 34.8717 38.66 34.7439C38.7258 34.1309 38.8043 33.4471 38.9651 32.9627C39.0885 32.5939 39.2395 32.2648 39.4317 31.9443C40.3666 30.6424 42.0485 27.9008 42.6815 26.4648C43.335 24.9814 44.7797 21.7209 45.0949 20.4992C44.5461 20.584 42.5643 20.2439 42.0612 20.1812Z" fill="#FCD2C0"/>
<g id="Group_111">
<g id="Group_112">
<path id="Vector_172" d="M44.1698 14.2442C43.0413 14.3854 42.4799 15.5166 42.1026 16.2325C41.2653 17.8194 40.7768 19.403 40.3049 21.0823L44.4198 22.5311C44.7416 21.7891 45.0395 21.0409 45.2957 20.2881C45.5192 19.6344 45.7495 18.9026 45.8899 18.1092C46.0231 17.3639 46.087 16.4717 45.8145 15.6203C45.5454 14.778 44.9264 14.1483 44.1698 14.2442Z" fill="#B1BC00"/>
</g>
<g id="Group_113">
<g id="Group_114">
<path id="Vector_173" fill-rule="evenodd" clip-rule="evenodd" d="M43.1505 16.3942C42.95 16.524 42.6878 17.0973 42.9169 17.203C43.1544 17.3104 43.3933 16.7176 43.3693 16.492C43.3361 16.4315 43.2332 16.3867 43.1505 16.3942Z" fill="white"/>
<path id="Vector_174" fill-rule="evenodd" clip-rule="evenodd" d="M42.1235 17.3409C41.8709 17.095 41.6936 17.6047 41.5991 17.9364C41.5348 18.16 41.4833 18.4303 41.6514 18.4774C41.8885 18.5446 42.2241 17.6092 42.1696 17.4028C42.1649 17.3846 42.1385 17.3561 42.1235 17.3409Z" fill="white"/>
</g>
<path id="Vector_175" fill-rule="evenodd" clip-rule="evenodd" d="M43.0581 15.3934C42.8531 15.4469 42.362 16.2901 42.7017 16.4139C42.9238 16.4946 43.3134 15.8127 43.2624 15.5116C43.2265 15.4576 43.1589 15.4178 43.0581 15.3934Z" fill="white"/>
</g>
</g>
</g>
</g>
</g>
<g id="Group_115">
<path id="Vector_176" fill-rule="evenodd" clip-rule="evenodd" d="M57.5726 19.3226C55.8841 21.0801 54.4407 22.9142 52.837 24.6975L52.3091 24.1932C53.6202 22.4525 55.127 20.7734 56.6538 19.101C56.654 19.101 57.589 19.306 57.5726 19.3226Z" fill="#EFAD1B"/>
<path id="Vector_177" d="M55.0906 22.6645L54.4753 23.3984C54.2964 23.6113 53.9781 23.6395 53.765 23.4607L53.3335 23.0994C53.1212 22.9201 53.0925 22.6016 53.2714 22.3881L53.8872 21.6547C54.0662 21.4418 54.3845 21.4137 54.5972 21.5922L55.0292 21.9543C55.2415 22.133 55.2691 22.452 55.0906 22.6645ZM53.5669 22.6355C53.524 22.6861 53.53 22.7617 53.5808 22.8035L54.0128 23.166C54.063 23.2078 54.1386 23.2014 54.1802 23.1512L54.7964 22.4168C54.8386 22.3666 54.832 22.2914 54.781 22.2492L54.3503 21.8871C54.2997 21.8449 54.2238 21.8514 54.1826 21.902L53.5669 22.6355Z" fill="white"/>
</g>
</g>
</g>
</g>
</g>
</svg>
