<svg width="34" height="34" viewBox="0 0 34 34" fill="none" xmlns="http://www.w3.org/2000/svg">
<circle cx="17" cy="17" r="17" fill="#2F89CE"/>
<path d="M7.94849 17.3182L11.8569 18.7755L13.3805 23.6775C13.4467 24.0088 13.8442 24.075 14.1091 23.8763L16.2952 22.0877C16.4939 21.889 16.8251 21.889 17.0901 22.0877L20.9985 24.9362C21.2634 25.1349 21.6609 25.0024 21.7272 24.6712L24.6419 10.7601C24.7081 10.4288 24.3769 10.0976 24.0457 10.2301L7.94849 16.457C7.55103 16.5895 7.55103 17.1857 7.94849 17.3182ZM13.1817 18.0468L20.866 13.3436C20.9985 13.2773 21.131 13.476 20.9985 13.5423L14.7053 19.438C14.5066 19.6367 14.3079 19.9017 14.3079 20.2329L14.1091 21.8227C14.1091 22.0215 13.7779 22.0877 13.7117 21.8227L12.9168 18.908C12.718 18.5768 12.8505 18.1793 13.1817 18.0468Z" fill="white"/>
</svg>
