<svg width="45" height="40" viewBox="0 0 45 40" fill="none" xmlns="http://www.w3.org/2000/svg">
<path d="M0 20C0 8.95431 8.95431 0 20 0H45V40H20C8.9543 40 0 31.0457 0 20Z" fill="#F8F8F8"/>
<g clip-path="url(#clip0_3962_429)">
<path d="M18.3333 16.6668H21.6666V13.3335H18.3333V16.6668ZM23.3333 26.6668H26.6666V23.3335H23.3333V26.6668ZM18.3333 26.6668H21.6666V23.3335H18.3333V26.6668ZM18.3333 21.6668H21.6666V18.3335H18.3333V21.6668ZM23.3333 21.6668H26.6666V18.3335H23.3333V21.6668ZM28.3333 13.3335V16.6668H31.6666V13.3335H28.3333ZM23.3333 16.6668H26.6666V13.3335H23.3333V16.6668ZM28.3333 21.6668H31.6666V18.3335H28.3333V21.6668ZM28.3333 26.6668H31.6666V23.3335H28.3333V26.6668Z" fill="#323232"/>
</g>
<defs>
<clipPath id="clip0_3962_429">
<rect width="20" height="20" fill="white" transform="translate(15 10)"/>
</clipPath>
</defs>
</svg>
