<svg width="45" height="40" viewBox="0 0 45 40" fill="none" xmlns="http://www.w3.org/2000/svg">
<path d="M0 20C0 8.95431 8.95431 0 20 0H45V40H20C8.9543 40 0 31.0457 0 20Z" fill="#F8F8F8"/>
<g clip-path="url(#clip0_3962_431)">
<path d="M21.169 18.9917C22.369 21.35 24.3023 23.275 26.6607 24.4833L28.494 22.65C28.719 22.425 29.0523 22.35 29.344 22.45C30.2773 22.7583 31.2857 22.925 32.319 22.925C32.7773 22.925 33.1523 23.3 33.1523 23.7583V26.6667C33.1523 27.125 32.7773 27.5 32.319 27.5C24.494 27.5 18.1523 21.1583 18.1523 13.3333C18.1523 12.875 18.5273 12.5 18.9857 12.5H21.9023C22.3607 12.5 22.7357 12.875 22.7357 13.3333C22.7357 14.375 22.9023 15.375 23.2107 16.3083C23.3023 16.6 23.2357 16.925 23.0023 17.1583L21.169 18.9917Z" fill="#323232"/>
</g>
<defs>
<clipPath id="clip0_3962_431">
<rect width="20" height="20" fill="white" transform="translate(15.6523 10)"/>
</clipPath>
</defs>
</svg>
