<svg width="45" height="40" viewBox="0 0 45 40" fill="none" xmlns="http://www.w3.org/2000/svg">
<path d="M0 20C0 8.95431 8.95431 0 20 0H45V40H20C8.9543 40 0 31.0457 0 20Z" fill="#F8F8F8"/>
<g clip-path="url(#clip0_3962_430)">
<path d="M25.1913 20.0002C27.033 20.0002 28.5247 18.5085 28.5247 16.6668C28.5247 14.8252 27.033 13.3335 25.1913 13.3335C23.3497 13.3335 21.858 14.8252 21.858 16.6668C21.858 18.5085 23.3497 20.0002 25.1913 20.0002ZM25.1913 21.6668C22.9663 21.6668 18.5247 22.7835 18.5247 25.0002V26.6668H31.858V25.0002C31.858 22.7835 27.4163 21.6668 25.1913 21.6668Z" fill="#323232"/>
</g>
<defs>
<clipPath id="clip0_3962_430">
<rect width="20" height="20" fill="white" transform="translate(15.1914 10)"/>
</clipPath>
</defs>
</svg>
