<svg width="40" height="51" viewBox="0 0 40 51" fill="none" xmlns="http://www.w3.org/2000/svg">
<path d="M19.3108 37.8114C19.0462 37.0616 19.0994 36.3652 19.2581 35.7761H4.76128C3.86189 35.7761 3.12123 35.0263 3.12123 34.1158V4.87303C3.12123 3.96259 3.86192 3.21282 4.76128 3.21282H19.0464C19.4697 3.21282 19.8399 3.58791 19.8399 4.01604L19.8403 9.42562C19.8403 10.6574 20.8456 11.6751 22.0624 11.6751H27.406C27.8293 11.6751 28.1995 12.0502 28.1995 12.4783V23.8326C28.57 23.672 29.0461 23.5648 29.5222 23.5648C30.2101 23.5648 30.7921 23.7788 31.321 24.0467L31.3213 11.7828C31.3213 10.4973 30.8452 9.26558 29.9458 8.35509L23.0677 1.39242C22.1683 0.481977 20.9516 0 19.6816 0H4.76153C2.16894 0 0 2.14214 0 4.82005V34.0629C0 36.6873 2.11613 38.8829 4.76153 38.8829H19.9461C19.6819 38.6151 19.47 38.2403 19.3113 37.8119L19.3108 37.8114Z" fill="#243976"/>
<path d="M6.66652 30.5273C6.66652 31.3843 7.35443 32.0803 8.20066 32.0803H19.1526C19.1526 31.759 19.2054 31.4377 19.3113 31.0626C19.6818 29.9915 20.4226 29.3485 21.1101 28.9204H8.20054C7.35392 28.9738 6.66602 29.6702 6.66602 30.5273H6.66652Z" fill="#243976"/>
<path d="M24.6543 23.7254C24.6543 22.8683 23.9664 22.1724 23.1202 22.1724H8.20016C7.35354 22.1724 6.66602 22.8687 6.66602 23.7254C6.66602 24.5824 7.35393 25.2784 8.20016 25.2784H23.0673C23.9667 25.2787 24.6546 24.5824 24.6546 23.7254H24.6543Z" fill="#243976"/>
<path d="M23.0673 15.3169H8.20016C7.35354 15.3169 6.66602 16.0133 6.66602 16.8699C6.66602 17.7269 7.35393 18.4229 8.20016 18.4229H23.0673C23.9139 18.4229 24.6014 17.7265 24.6014 16.8699C24.6546 16.0129 23.9667 15.3169 23.0673 15.3169Z" fill="#243976"/>
<path d="M8.20016 11.6747H15.131C15.9776 11.6747 16.6652 10.9784 16.6652 10.1217C16.6652 9.26471 15.9772 8.56873 15.131 8.56873L8.20016 8.56836C7.35354 8.56836 6.66602 9.26473 6.66602 10.1214C6.66565 10.9784 7.35356 11.6747 8.20016 11.6747V11.6747Z" fill="#243976"/>
<path d="M26.5065 43.81C26.136 43.8634 25.7658 43.9707 25.3425 43.9707C24.549 43.9707 23.8084 43.7566 23.2264 43.2743C22.6444 42.8458 22.327 42.3104 22.0624 41.8281L19.1524 47.184C18.835 47.7197 19.3111 48.4157 19.8931 48.3622L22.5385 48.1482L23.7553 50.5582C24.0726 51.1473 24.8665 51.1473 25.1308 50.5582L28.0935 45.0952C27.4591 44.7204 26.8771 44.1851 26.5066 43.8099L26.5065 43.81Z" fill="#243976"/>
<path d="M39.8926 47.184L36.9826 41.8281C36.7711 42.3639 36.4006 42.8458 35.8186 43.2743C35.2366 43.7028 34.4959 43.9707 33.7025 43.9707C33.2792 43.9707 32.8559 43.9172 32.5385 43.81C32.168 44.2385 31.6391 44.7739 30.8984 45.0955L33.8612 50.5585C34.1786 51.0943 34.9724 51.0943 35.2367 50.5585L36.4535 48.1485L39.0989 48.3626C39.7872 48.4156 40.2105 47.7193 39.8927 47.1839L39.8926 47.184Z" fill="#243976"/>
<path d="M31.6383 41.0787C32.379 40.8108 33.6489 41.5606 34.2837 41.0787C34.9185 40.5967 34.6011 39.1506 35.0772 38.508C35.5532 37.8654 36.9818 37.7047 37.2465 36.955C37.4579 36.2052 36.3999 35.2409 36.3999 34.4377C36.3999 33.6345 37.4579 32.6168 37.2465 31.9205C36.9819 31.1707 35.5532 31.01 35.0772 30.3675C34.6011 29.7249 34.9185 28.2787 34.2837 27.7968C33.6489 27.3148 32.379 28.0647 31.6383 27.7968C30.8976 27.5827 30.3156 26.1899 29.5222 26.1899C28.7287 26.1899 28.1466 27.5289 27.406 27.7968C26.6653 28.0647 25.3954 27.3148 24.7606 27.7968C24.1258 28.2787 24.4432 29.7249 23.9672 30.3675C23.4911 31.0101 22.0625 31.1707 21.7978 31.9205C21.586 32.6699 22.6441 33.6342 22.6441 34.4373C22.6441 35.2406 21.586 36.2582 21.7975 36.9546C22.0621 37.7044 23.4907 37.865 23.9668 38.5076C24.4429 39.1501 24.1255 40.5963 24.7603 41.0783C25.395 41.5602 26.6649 40.8104 27.4057 41.0783C28.1464 41.2923 28.7284 42.6851 29.5218 42.6851C30.3688 42.6317 30.9508 41.2927 31.6383 41.0787H31.6383ZM29.7336 37.3297C29.6277 37.2763 29.469 37.2763 29.3631 37.3297L27.723 38.2935C27.2997 38.5614 26.7709 38.1329 26.8764 37.651L27.2469 35.7762C27.2469 35.669 27.2469 35.5084 27.141 35.4011L25.7124 34.1156C25.3419 33.7943 25.5537 33.1518 26.0298 33.0979L27.9345 32.8839C28.0404 32.8839 28.1991 32.7766 28.2519 32.6698L29.0453 30.9024C29.2568 30.4204 29.892 30.4204 30.1034 30.9024L30.8969 32.6698C30.9497 32.777 31.0556 32.8839 31.2143 32.8839L33.119 33.0979C33.595 33.1514 33.8069 33.7943 33.4364 34.1156L32.0077 35.4011C31.9018 35.5084 31.849 35.6152 31.9018 35.7762L32.2724 37.651C32.3783 38.1329 31.849 38.5614 31.4257 38.2935L29.7336 37.3297Z" fill="#243976"/>
</svg>
