<svg width="100" height="100" viewBox="0 0 100 100" fill="none" xmlns="http://www.w3.org/2000/svg">
<g clip-path="url(#clip0_320_59101)">
<path fill-rule="evenodd" clip-rule="evenodd" d="M81.8764 65.6541C81.6973 67.141 82.2162 69.1992 81.5283 70.1238C80.9541 70.8969 79.1734 70.8088 77.4061 70.8801C74.2363 71.0063 71.2154 71.2988 68.0588 71.2854C63.3695 71.267 58.5744 70.9379 53.8344 70.9379C50.7051 70.9379 47.5889 71.1117 44.3133 71.1117C37.932 71.1108 31.5387 71.1117 24.9799 71.1117C21.9906 71.1117 18.5938 70.9899 15.3424 71.1117C13.9768 71.1633 12.176 71.0934 10.5819 70.9957C8.96838 70.8961 7.52287 70.5582 6.98186 69.7764C6.3883 68.9201 6.54475 66.8742 6.69104 65.6541C12.7647 65.7957 18.874 65.5381 25.1537 65.5381C27.1672 65.5381 29.2361 65.5155 31.2506 65.4217C35.0215 65.2459 39.975 65.3643 44.1387 65.3635C48.4035 65.3635 52.6682 65.4578 56.7953 65.4805C65.3051 65.5262 73.6627 65.9969 81.8764 65.6541Z" fill="#8F7ECE"/>
<path fill-rule="evenodd" clip-rule="evenodd" d="M29.0429 43.1279C32.4283 42.9666 36.4812 43.1736 40.0158 43.244C43.5787 43.3143 47.2398 43.2059 50.9308 43.1858C56.2945 43.1572 61.7795 42.9922 67.1875 43.3018C67.9693 43.3465 68.9025 43.3912 69.858 43.4188C70.9386 43.4481 71.9441 43.3682 72.5285 43.5926C74.1959 44.2322 74.9318 46.5848 75.7218 48.2949C77.8152 52.8297 79.7853 57.2701 81.4115 62.3459C81.7316 63.3418 82.1185 64.8441 81.7599 65.7703C80.9888 67.7588 76.7049 67.4541 73.5742 67.4541C66.9326 67.4541 60.4968 67.3135 54.0666 67.5705C50.7601 67.7024 47.6025 67.3539 44.4869 67.2799C42.8908 67.2424 41.3181 67.4272 39.7845 67.5129C38.1701 67.602 36.5537 67.5957 34.907 67.5707C31.8379 67.5246 28.5599 67.3969 25.2117 67.3959C22.133 67.3959 18.7939 67.4541 15.4 67.4541C12.5547 67.4541 7.45915 67.8242 6.74958 65.7703C6.42321 64.8264 6.8568 63.3457 7.15524 62.4027C8.65759 57.6557 10.7369 52.7926 12.8453 48.2949C13.5453 46.8024 14.5564 43.9608 16.2707 43.4766C17.0568 43.2531 18.3168 43.4121 19.4056 43.3596C22.59 43.2098 25.8443 43.2801 29.0429 43.1279Z" fill="#4D3D87"/>
<path fill-rule="evenodd" clip-rule="evenodd" d="M38.2747 46.0309C38.0969 47.0336 37.8733 47.99 37.6942 48.9916C36.6897 49.1096 35.4809 49.0229 34.385 49.0498C34.5928 47.9996 34.9159 47.0637 35.1981 46.0885C36.2579 46.1041 37.1854 45.9861 38.2747 46.0309Z" fill="#8F7ECE"/>
<path fill-rule="evenodd" clip-rule="evenodd" d="M41.7581 46.1469C41.5415 47.0908 41.3119 48.0223 41.1203 48.9916C40.2496 48.9916 39.3783 48.9916 38.5076 48.9916C38.6736 47.9576 38.9466 47.0307 39.1458 46.0309C39.9423 46.1442 40.9759 46.0203 41.7581 46.1469Z" fill="#8F7ECE"/>
<path fill-rule="evenodd" clip-rule="evenodd" d="M34.3269 46.0887C34.0304 47.051 33.8123 48.0906 33.5138 49.05C32.347 49.0461 30.889 49.0549 29.9138 49.05C30.3052 48.1432 30.6402 47.1818 30.9593 46.2047C32.0867 46.1705 33.2072 46.1297 34.3269 46.0887Z" fill="#8F7ECE"/>
<path fill-rule="evenodd" clip-rule="evenodd" d="M45.3583 46.2047C45.3977 47.1328 45.4959 48.0025 45.5315 48.933C44.2752 48.8959 43.1454 48.9855 41.9329 48.9918C42.1196 47.9978 42.3792 47.0775 42.629 46.1471C43.569 46.1363 44.3854 46.2484 45.3583 46.2047Z" fill="#8F7ECE"/>
<path fill-rule="evenodd" clip-rule="evenodd" d="M29.9736 46.2047C30.181 46.2985 29.9365 46.6635 29.8572 46.9008C29.6208 47.6084 29.3488 48.4604 29.0441 49.1078C27.7666 49.1078 26.4896 49.1078 25.2126 49.1078C25.5314 48.111 25.9558 47.2199 26.316 46.2625C27.523 46.2313 28.8597 46.3299 29.9736 46.2047Z" fill="#8F7ECE"/>
<path fill-rule="evenodd" clip-rule="evenodd" d="M48.7833 46.2625C48.8872 47.0881 48.8872 48.0166 48.9565 48.8752C47.9019 48.8353 47.3085 48.9474 46.3442 48.933C46.2104 48.1199 46.237 47.1447 46.1704 46.2625C46.8362 46.2398 47.9313 46.2799 48.7833 46.2625Z" fill="#8F7ECE"/>
<path fill-rule="evenodd" clip-rule="evenodd" d="M25.3866 46.2625C25.0747 47.2474 24.6934 48.1638 24.3411 49.1078C23.4303 49.0707 22.37 49.1838 21.5551 49.05C21.3766 48.9865 21.6731 48.6783 21.7872 48.4685C22.1145 47.8678 22.5135 47.0595 22.7157 46.3207C23.6139 46.3092 24.4413 46.2263 25.3866 46.2625Z" fill="#8F7ECE"/>
<path fill-rule="evenodd" clip-rule="evenodd" d="M49.5959 46.3207C50.409 46.3207 51.2219 46.3207 52.0344 46.3207C52.2227 47.1582 52.369 48.0377 52.5571 48.8752C51.6094 48.8752 50.6606 48.8752 49.7118 48.8752C49.6692 48.0281 49.6885 47.1193 49.5959 46.3207Z" fill="#8F7ECE"/>
<path fill-rule="evenodd" clip-rule="evenodd" d="M21.7279 46.3795C21.767 46.3795 21.8059 46.3795 21.8439 46.3795C21.4877 47.3388 21.0223 48.1894 20.5664 49.05C19.6957 49.05 18.8248 49.05 17.9541 49.05C18.0803 48.6273 18.2713 48.2215 18.4764 47.8306C18.6588 47.4826 18.8553 47.0051 19.1734 46.7857C19.8 46.3529 20.7547 46.6047 21.7279 46.3795Z" fill="#8F7ECE"/>
<path fill-rule="evenodd" clip-rule="evenodd" d="M52.9062 46.3795C53.8197 46.4137 54.875 46.3072 55.6922 46.4363C55.7871 47.349 56.0639 48.0781 56.2154 48.933C55.3254 48.8551 54.3381 48.8752 53.3701 48.8752C53.1766 48.082 53.0398 47.2324 52.9062 46.3795Z" fill="#8F7ECE"/>
<path fill-rule="evenodd" clip-rule="evenodd" d="M56.5049 46.4363C57.6129 46.3939 58.5424 46.5287 59.6404 46.4955C59.8219 47.3975 60.142 48.1609 60.2787 49.1078C59.2568 48.9879 58.1137 48.9898 57.0281 48.933C56.8359 48.1182 56.665 47.2824 56.5049 46.4363Z" fill="#8F7ECE"/>
<path fill-rule="evenodd" clip-rule="evenodd" d="M63.7618 46.4955C64.1257 47.3701 64.4058 48.3289 64.6917 49.2826C63.4815 49.234 62.2358 49.2209 61.0917 49.1078C60.9483 48.2066 60.6839 47.425 60.5112 46.5533C61.6173 46.557 62.7315 46.5676 63.7618 46.4955Z" fill="#8F7ECE"/>
<path fill-rule="evenodd" clip-rule="evenodd" d="M64.6919 46.4955C66.3593 46.6149 67.9583 46.2332 68.9302 46.9008C69.6706 47.4119 69.8626 48.5682 70.2649 49.5141C68.7589 49.3947 67.1704 49.3576 65.5626 49.3393C65.2435 48.4213 64.972 47.4524 64.6919 46.4955Z" fill="#8F7ECE"/>
<path fill-rule="evenodd" clip-rule="evenodd" d="M48.7836 49.7471C48.8698 50.7049 49.0075 51.6117 49.1899 52.4754C48.0491 52.5125 47.0834 52.3748 45.9383 52.4172C45.8516 51.4973 45.7059 50.6367 45.5315 49.8039C46.5016 49.6709 47.718 49.784 48.7836 49.7471Z" fill="#8F7ECE"/>
<path fill-rule="evenodd" clip-rule="evenodd" d="M49.5378 49.7471C50.3888 49.7471 51.2404 49.7471 52.0923 49.7471C52.3773 50.6424 52.5974 51.6018 52.847 52.533C51.8607 52.532 50.8509 52.5551 49.9441 52.4752C49.8939 51.4809 49.6441 50.6851 49.5378 49.7471Z" fill="#8F7ECE"/>
<path fill-rule="evenodd" clip-rule="evenodd" d="M52.9062 49.8037C53.9705 49.669 55.2859 49.785 56.4471 49.7469C56.8004 50.6705 57.0492 51.6993 57.4338 52.5907C56.2594 52.7592 55.001 52.5082 53.7188 52.5907C53.4598 51.6498 53.2195 50.6909 52.9062 49.8037Z" fill="#8F7ECE"/>
<path fill-rule="evenodd" clip-rule="evenodd" d="M20.1601 49.8625C19.916 50.7982 19.5179 51.5814 19.1734 52.417C18.3214 52.417 17.4699 52.417 16.6189 52.417C16.938 51.5361 17.3029 50.701 17.6056 49.8037C18.4966 49.7849 19.2445 49.9072 20.1601 49.8625Z" fill="#8F7ECE"/>
<path fill-rule="evenodd" clip-rule="evenodd" d="M44.7774 49.8037C44.8914 50.6576 45.0205 51.4961 45.1248 52.3592C43.9643 52.3592 42.8028 52.3592 41.6418 52.3592C41.6342 51.4408 41.7227 50.6205 41.8166 49.8037C42.8028 49.8037 43.7897 49.8037 44.7774 49.8037Z" fill="#8F7ECE"/>
<path fill-rule="evenodd" clip-rule="evenodd" d="M57.3181 49.8037C58.6058 49.8143 59.8 49.9158 61.0337 49.9785C61.2931 50.9389 61.6076 51.8438 61.8468 52.8238C60.6425 52.8084 59.506 52.7262 58.3056 52.7069C57.9978 51.7182 57.6054 50.8131 57.3181 49.8037Z" fill="#8F7ECE"/>
<path fill-rule="evenodd" clip-rule="evenodd" d="M33.282 49.8625C33.0578 50.7799 32.7693 51.6328 32.4691 52.4752C31.2839 52.4512 30.1683 52.4959 29.0437 52.533C29.2382 51.5852 29.5736 50.7789 29.8568 49.9207C31.0624 49.9654 32.0892 49.8303 33.282 49.8625Z" fill="#8F7ECE"/>
<path fill-rule="evenodd" clip-rule="evenodd" d="M37.6366 49.8625C37.5866 50.741 37.4413 51.5256 37.3458 52.3592C35.9672 52.3154 34.743 52.4266 33.3987 52.417C33.57 51.5834 33.8809 50.8873 34.0364 50.0367C34.0686 49.9529 34.1274 49.8951 34.2102 49.8625C35.3532 49.8625 36.4944 49.8625 37.6366 49.8625Z" fill="#8F7ECE"/>
<path fill-rule="evenodd" clip-rule="evenodd" d="M41.0042 49.8625C40.9957 50.7447 40.7972 51.4359 40.8294 52.3592C39.9394 52.3592 39.049 52.3592 38.1589 52.3592C38.2865 51.5568 38.3197 50.6625 38.4498 49.8625C39.3007 49.8625 40.1523 49.8625 41.0042 49.8625Z" fill="#8F7ECE"/>
<path fill-rule="evenodd" clip-rule="evenodd" d="M24.2824 49.9207C23.9984 50.7982 23.6 51.5607 23.3535 52.4752C22.2893 52.4371 21.2283 52.3934 20.1025 52.417C20.3711 51.5635 20.7451 50.815 20.9732 49.9207C22.0764 49.9207 23.1791 49.9207 24.2824 49.9207Z" fill="#8F7ECE"/>
<path fill-rule="evenodd" clip-rule="evenodd" d="M28.9856 49.9207C28.7487 50.8443 28.4042 51.6621 28.1144 52.533C26.8214 52.5104 25.428 52.5875 24.2251 52.4752C24.4802 51.5891 24.8401 50.8064 25.0958 49.9207C26.6464 49.9939 27.0034 49.9266 28.9856 49.9207Z" fill="#8F7ECE"/>
<path fill-rule="evenodd" clip-rule="evenodd" d="M61.8462 50.0945C62.8556 49.9568 64.023 50.1629 65.0978 50.1533C65.4482 51.0592 65.7038 52.0623 66.0263 52.9977C64.9298 52.9529 63.8521 52.8894 62.7169 52.8816C62.4661 51.9121 62.1774 50.982 61.8462 50.0945Z" fill="#8F7ECE"/>
<path fill-rule="evenodd" clip-rule="evenodd" d="M66.0269 50.1533C67.5132 50.2732 69.1677 50.2246 70.6142 50.3853C70.9339 51.2455 71.1163 52.2433 71.369 53.1724C70.1214 53.181 68.4829 53.0775 67.1298 52.9976C66.8202 52.6765 66.6575 52.1711 66.4915 51.7201C66.3187 51.2523 66.2142 50.7642 66.0271 50.3271C66.0269 50.2691 66.0269 50.2109 66.0269 50.1533Z" fill="#8F7ECE"/>
<path fill-rule="evenodd" clip-rule="evenodd" d="M51.9772 53.4037C52.1501 53.5678 52.2776 53.9328 52.3834 54.2168C52.6799 55.0115 52.9211 55.9963 53.1377 56.9461C46.345 56.8604 39.5516 56.927 32.8176 57.1777C33.0694 55.8617 33.3323 54.5578 33.6307 53.2879C39.7653 53.0799 45.5348 53.2131 51.9772 53.4037Z" fill="#8F7ECE"/>
<path fill-rule="evenodd" clip-rule="evenodd" d="M19.3476 53.2291C18.8802 54.7564 18.308 56.176 17.7808 57.6422C16.8171 57.5416 15.7707 57.5232 15.4001 56.8291C15.4175 55.3172 15.9369 54.3078 16.3869 53.2291C17.3746 53.2291 18.3609 53.2291 19.3476 53.2291Z" fill="#8F7ECE"/>
<path fill-rule="evenodd" clip-rule="evenodd" d="M20.335 53.2291C21.1518 53.3224 22.104 53.2797 23.0049 53.2879C22.7295 54.8123 22.2969 56.1799 21.9016 57.5844C20.9061 57.6715 19.7866 57.6363 18.7092 57.6422C18.8805 56.9451 19.2151 56.2463 19.4639 55.4939C19.728 54.6963 19.8459 53.8076 20.335 53.2291Z" fill="#8F7ECE"/>
<path fill-rule="evenodd" clip-rule="evenodd" d="M32.8167 53.2877C32.516 54.6119 32.2347 55.9563 31.8876 57.2358C30.4634 57.244 29.1093 57.3209 27.7654 57.4106C28.097 55.9602 28.6404 54.724 29.0429 53.3461C30.358 53.384 31.5458 53.2946 32.8167 53.2877Z" fill="#8F7ECE"/>
<path fill-rule="evenodd" clip-rule="evenodd" d="M28.1734 53.3461C27.785 54.7762 27.2738 56.0859 26.7805 57.4105C25.543 57.5473 24.1402 57.518 22.832 57.5844C23.1084 56.1957 23.5367 54.9596 23.7615 53.5199C23.7586 53.4213 23.8043 53.3697 23.8775 53.3461C25.3094 53.3461 26.7414 53.3461 28.1734 53.3461Z" fill="#8F7ECE"/>
<path fill-rule="evenodd" clip-rule="evenodd" d="M52.9062 53.4037C54.6098 53.384 56.1568 53.5197 57.841 53.5197C58.2391 54.6885 58.5707 55.925 58.8859 57.1775C57.26 57.1394 55.7389 56.9961 54.0672 57.0037C53.7264 55.757 53.3533 54.5436 52.9062 53.4037Z" fill="#8F7ECE"/>
<path fill-rule="evenodd" clip-rule="evenodd" d="M58.7126 53.5785C60.1154 53.568 61.366 53.7103 62.7763 53.6945C63.1142 54.9822 63.4951 56.226 63.8796 57.4684C62.5005 57.3953 61.1378 57.3072 59.7574 57.2359C59.4761 55.9496 59.0496 54.8084 58.7126 53.5785Z" fill="#8F7ECE"/>
<path fill-rule="evenodd" clip-rule="evenodd" d="M63.5879 53.8105C64.5795 53.6898 65.7664 53.8769 66.8395 53.8684C67.4522 55.0164 67.6924 56.5379 68.1748 57.8168C67.1303 57.8928 65.9717 57.5805 64.8078 57.5844C64.398 56.3299 63.9889 55.074 63.5879 53.8105Z" fill="#8F7ECE"/>
<path fill-rule="evenodd" clip-rule="evenodd" d="M67.7686 53.8684C68.985 53.9877 70.3496 53.9574 71.5424 54.1008C71.6584 54.6168 71.8793 55.2166 72.0068 55.8428C72.1311 56.4512 72.3039 57.3219 72.0647 57.758C71.6117 58.5879 69.9963 58.0002 69.0457 57.9904C68.7174 56.5186 68.1787 55.2584 67.7686 53.8684Z" fill="#8F7ECE"/>
<path opacity="0.75" fill-rule="evenodd" clip-rule="evenodd" d="M36.1261 58.8613C37.1904 58.6727 39.0306 58.8035 40.4808 58.8035C43.3915 58.8035 46.0601 58.9195 48.8982 58.9195C50.0322 58.9195 52.0462 58.6115 52.8466 59.0934C53.6322 59.566 53.9132 61.2232 54.0657 62.5195C54.0956 62.7707 54.2179 63.5709 54.0079 63.8543C53.7023 64.2648 52.3849 64.0598 51.6273 64.0281C46.396 63.8178 41.8882 63.9125 36.2413 63.9125C35.63 63.9125 34.2501 64.1002 33.9775 63.5641C33.6906 63.001 34.2538 61.9779 34.4997 61.1844C34.8739 59.9762 34.9111 59.077 36.1261 58.8613Z" fill="white"/>
<path fill-rule="evenodd" clip-rule="evenodd" d="M19.3793 62.6029C19.4487 61.942 19.5627 60.5606 20.2987 60.8508C20.7299 61.0197 20.6803 62.0037 20.625 62.6611C20.5567 63.4793 20.4846 64.226 20.2467 64.886C20.136 65.1906 19.92 65.4539 19.7034 65.4424C19.2866 65.4188 19.0299 64.8336 18.8479 64.5221C18.3854 63.7369 18.1106 63.2961 17.6662 62.4233C17.5022 62.1008 17.2084 61.5203 17.4905 61.1834C17.552 61.1102 17.7451 61.0381 17.8582 61.0467C18.2741 61.076 18.5485 61.4766 18.7719 61.7475C19.0356 62.0686 19.2121 62.316 19.3793 62.6029Z" fill="#FF5000"/>
<path fill-rule="evenodd" clip-rule="evenodd" d="M13.9364 61.3428C13.3372 60.8166 12.4761 59.9781 11.7247 59.7152C11.5264 59.6459 11.1534 59.5621 10.9089 59.7826C10.7573 59.9213 10.7554 60.2443 10.8132 60.4662C10.9614 61.0322 11.3575 61.5469 11.721 61.9897C12.0647 62.4074 12.4503 62.7568 12.8198 63.0723C13.1177 63.327 13.5735 63.7086 14.0077 63.9516C14.3706 64.1557 15.1042 64.482 15.5335 64.1938C16.0255 63.8631 15.9003 62.9061 15.8358 62.2516C15.7454 61.3332 15.5229 59.968 14.8366 58.9963C14.6561 58.7412 14.3759 58.4836 14.1122 58.5795C13.6718 58.7393 13.7382 59.5113 13.7411 59.8482C13.7442 60.3703 13.7747 60.8107 13.9364 61.3428Z" fill="#FF5000"/>
<path fill-rule="evenodd" clip-rule="evenodd" d="M8.31175 66.6293C8.94867 66.4449 10.0278 66.7434 11.0694 67.0987C11.5157 67.2502 12.2342 67.5088 12.1422 67.9227C12.034 68.4203 11.1719 68.2573 10.8643 68.1971C9.88812 68.0084 8.74828 67.5828 8.20824 67.1781C8.13421 67.0395 8.19574 66.767 8.31175 66.6293Z" fill="white"/>
<path fill-rule="evenodd" clip-rule="evenodd" d="M13.3396 66.069C13.3661 65 15.661 65.45 15.3954 66.2971C15.2798 66.6643 14.088 66.8608 13.5874 66.5705C13.4079 66.4662 13.3349 66.2543 13.3396 66.069Z" fill="white"/>
<path fill-rule="evenodd" clip-rule="evenodd" d="M15.7017 67.633C15.6719 67.2541 16.1609 67.0024 16.7088 66.9467C17.1486 66.902 18.0117 67.018 17.8996 67.5147C17.8523 67.7352 17.4855 67.9883 17.0316 68.0465C16.4998 68.1149 15.7412 68.1201 15.7017 67.633Z" fill="white"/>
<path fill-rule="evenodd" clip-rule="evenodd" d="M21.0907 4.36778C25.5038 4.15704 30.0732 4.45352 34.4439 4.36778C38.7616 4.28262 43.1669 4.24844 47.5646 4.4252C51.5314 4.58555 56.0238 4.71543 60.5696 4.71543C63.32 4.71543 67.207 4.43633 70.3238 4.48301C72.1259 4.51153 73.2591 4.66446 73.8068 5.76094C74.2495 6.64415 74.1505 8.2129 74.0974 10.1152C74.0546 11.6402 74.0695 13.4457 74.0396 14.8758C73.9726 18.0104 73.8654 20.9846 73.8654 24.3397C73.8644 27.5229 73.8837 30.6082 73.8066 33.8029C73.7238 37.2705 74.3433 42.3152 72.2398 43.5565C71.6015 43.9324 70.1997 43.9627 68.9304 43.9627C67.6577 43.9627 66.3595 43.8818 65.3298 43.8467C58.0427 43.5955 50.6515 43.6143 43.3841 43.6143C38.6736 43.6152 33.9839 43.3828 28.8116 43.3828C25.307 43.3828 21.4364 43.5262 18.0708 42.976C16.9484 42.7932 15.6804 42.3969 15.2843 41.699C14.762 40.7768 14.6017 39.2326 14.4714 37.6922C13.822 30.0432 14.239 22.3541 14.239 14.1205C14.239 12.6326 14.3454 10.8984 14.4138 9.47598C14.4909 7.86153 14.446 6.12481 15.1099 5.41251C15.6202 4.86563 16.7167 4.72325 17.7814 4.60001C18.9491 4.46348 20.1015 4.41446 21.0907 4.36778Z" fill="#8F7ECE"/>
<path fill-rule="evenodd" clip-rule="evenodd" d="M19.4655 6.283C21.4313 6.0496 23.993 6.33925 26.1422 6.39902C28.3358 6.45976 30.5086 6.55781 32.6444 6.63144C37 6.78163 41.4428 6.70175 45.8809 6.51503C50.3301 6.32773 54.4508 6.22519 59.118 6.22519C61.2002 6.22519 63.4227 6.283 65.7948 6.283C66.885 6.283 68.0594 6.19003 69.0463 6.283C70.0731 6.38027 70.9987 6.71327 71.3694 7.32792C71.842 8.11484 71.7168 10.0475 71.7168 11.2172C71.7168 12.7719 71.659 14.0822 71.659 15.34C71.659 18.2656 71.8332 20.9002 71.8332 23.5846C71.8332 26.5189 71.8573 28.9396 71.9493 31.8869C71.9911 33.2299 71.9075 34.6461 71.9493 35.9504C71.9903 37.2328 72.0442 39.2039 71.543 39.9572C71.1334 40.5705 70.1225 40.9656 68.9885 40.9435C65.751 40.881 61.9946 41.2088 58.7127 41.0596C54.0393 40.8478 49.3967 41.1174 45.1262 41.1183C40.2954 41.1183 36.0127 41.2266 31.1922 41.0596C28.0037 40.9494 24.2145 41.165 20.9164 40.9435C19.7323 40.8641 18.5073 40.8594 17.9557 40.4213C17.3116 39.9086 17.134 38.2248 17.0272 36.8795C16.687 32.6185 16.8674 28.1969 17.085 23.9332C17.2303 21.0859 17.2303 18.4141 17.3756 15.3402C17.4364 14.057 17.4334 12.6504 17.4334 11.1019C17.4334 8.8578 17.1455 6.35527 19.3487 6.2832C19.3866 6.28202 19.4276 6.28788 19.4655 6.283Z" fill="#4D3D87"/>
<path opacity="0.75" fill-rule="evenodd" clip-rule="evenodd" d="M25.1774 23.9721C25.3647 24.9482 25.5643 26.1988 25.7073 27.3506C25.8157 28.2035 26.1112 29.056 25.8022 29.6818C25.2875 29.664 24.9604 29.1615 24.6413 28.8607C23.6516 27.9254 22.5604 27.0051 21.55 26.025C22.2768 24.9994 23.4292 24.276 25.1774 23.9721Z" fill="white"/>
<path fill-rule="evenodd" clip-rule="evenodd" d="M24.7524 29.8103C23.1823 30.1006 21.371 30.2041 19.8272 30.2498C19.5788 28.8812 20.1622 27.7332 20.827 26.8635C20.8602 26.8576 20.8925 26.8519 20.9257 26.8467C21.5476 27.3429 22.2134 27.8396 22.8684 28.35C23.5116 28.8502 24.2886 29.2189 24.7524 29.8103Z" fill="#8F7ECE"/>
<path fill-rule="evenodd" clip-rule="evenodd" d="M26.5509 24.4029C29.0655 24.3928 31.2157 25.7068 32.3227 27.4836C32.6972 28.0828 32.9856 28.8256 33.0429 29.7951C33.2306 32.9402 30.1097 36.0892 26.7608 36.5441C24.1534 36.8974 21.8809 35.6195 20.7974 33.7658C20.422 33.1256 20.0147 32.3203 20.0706 31.4096C20.5466 31.193 21.1306 31.1597 21.6956 31.1039C22.7858 30.9947 23.9036 30.8512 25.0087 30.6207C25.4665 30.5254 26.3118 30.4844 26.538 30.2803C26.7171 30.1189 26.6944 29.3594 26.6876 28.9662C26.6649 27.5322 26.4122 25.7763 26.4319 24.557C26.4483 24.4887 26.4884 24.4371 26.5509 24.4029Z" fill="#EFAD1B"/>
<path fill-rule="evenodd" clip-rule="evenodd" d="M34.1673 28.5826C33.998 28.1343 34.0113 27.4648 34.0239 26.7972C34.0341 26.2187 33.9099 25.3984 34.2241 25.1515C34.6771 24.8761 35.5999 25.0384 36.2939 25.0638C38.1558 25.1328 39.9376 25.0918 41.9833 25.0556C43.1488 25.0345 44.4806 25.0783 45.7792 25.0648C46.3468 25.0595 47.0769 25.0605 47.679 25.0927C48.2736 25.125 49.0388 25.1828 49.2583 25.4865C49.5611 25.9072 49.47 26.7726 49.4187 27.4086C49.3777 27.8865 49.3513 28.8472 49.0818 29.0716C48.7837 29.3195 47.6898 29.2474 47.1597 29.233C44.0251 29.1429 40.9066 29.0062 37.731 28.9461C37.1032 28.9349 36.4439 28.9359 35.8306 28.9185C35.2392 28.9025 34.6077 28.9806 34.1673 28.5826Z" fill="#B1BC00"/>
<path fill-rule="evenodd" clip-rule="evenodd" d="M42.9125 30.284C42.9356 30.2738 42.9438 30.233 42.9973 30.2261C44.0682 30.0808 44.7758 30.3445 46.0711 30.3773C46.6877 30.3912 48.6559 30.2955 48.9467 30.7845C49.1459 31.1195 48.9973 31.8718 48.9625 32.3093C48.9192 32.8537 48.8715 33.2716 48.8354 33.8074C48.7815 34.616 48.8617 36.2146 48.2664 36.5183C47.8533 36.73 47.1936 36.5574 46.6957 36.54C46.1297 36.5203 45.6381 36.5154 45.1203 36.5164C44.1471 36.5193 42.6721 36.6617 42.3178 35.9599C42.1459 35.6201 42.2162 35.0074 42.2563 34.4412C42.2895 33.9724 42.3178 33.4584 42.344 32.9963C42.3732 32.4615 42.3578 32.115 42.3795 31.5099C42.3979 31.0132 42.5024 30.4548 42.9125 30.284Z" fill="#8F7ECE"/>
<path opacity="0.75" fill-rule="evenodd" clip-rule="evenodd" d="M41.3615 30.8338C41.3273 31.0668 41.2971 31.3021 41.3205 31.5793C38.8705 31.5937 36.5639 31.4199 34.1277 31.4162C34.0883 31.2131 34.0795 30.7037 34.1908 30.4828C36.5678 30.6168 39.0326 30.6373 41.3615 30.8338Z" fill="white"/>
<path opacity="0.75" fill-rule="evenodd" clip-rule="evenodd" d="M41.1673 32.5252C41.2334 32.6859 41.1789 33.0695 41.1255 33.2709C38.6841 33.3287 36.4097 33.1664 33.9919 33.192C34.0406 32.9431 33.9857 32.6158 34.0718 32.3953C36.4449 32.4285 38.714 32.5964 41.1673 32.5252Z" fill="white"/>
<path opacity="0.75" fill-rule="evenodd" clip-rule="evenodd" d="M41.0603 34.5291C41.0281 34.791 41.0271 35.0769 40.9805 35.3258C38.7017 35.1861 36.3826 35.1015 33.9687 35.1375C33.9461 34.7928 33.948 34.4683 33.9803 34.1642C36.3416 34.2842 38.643 34.4814 41.0603 34.5291Z" fill="white"/>
<path fill-rule="evenodd" clip-rule="evenodd" d="M53.2263 28.8053C53.0574 28.3572 53.0718 27.6877 53.0839 27.0205C53.0945 26.4418 52.9702 25.6217 53.2847 25.3748C53.7367 25.1 54.6599 25.2617 55.354 25.2871C57.216 25.3555 58.9988 25.3144 61.0441 25.2785C62.2095 25.2578 63.5417 25.3016 64.8386 25.2891C65.4066 25.2822 66.1378 25.2832 66.739 25.3154C67.3345 25.3477 68.0988 25.4059 68.3183 25.7096C68.622 26.1303 68.531 26.9953 68.4787 27.6316C68.4392 28.1092 68.4113 29.0703 68.1417 29.2947C67.8443 29.5422 66.7497 29.4709 66.2206 29.456C63.0851 29.3666 59.9665 29.2299 56.7906 29.1691C56.1628 29.1576 55.5048 29.1586 54.8906 29.1418C54.2988 29.1256 53.6671 29.2035 53.2263 28.8053Z" fill="#B1BC00"/>
<path fill-rule="evenodd" clip-rule="evenodd" d="M61.9712 30.5074C61.9942 30.4969 62.004 30.4568 62.0559 30.4496C63.1278 30.3043 63.8354 30.5689 65.1298 30.6002C65.746 30.6156 67.7145 30.5199 68.0053 31.009C68.2046 31.343 68.0553 32.0949 68.0218 32.5338C67.978 33.0767 67.9303 33.4945 67.8942 34.0303C67.8403 34.8404 67.9206 36.4375 67.3253 36.7418C66.9124 36.9535 66.2534 36.7803 65.7555 36.7635C65.1886 36.7447 64.6966 36.7389 64.1792 36.7398C63.2059 36.7428 61.7309 36.8851 61.3772 36.1834C61.205 35.8441 61.2753 35.2308 61.3151 34.6646C61.3493 34.1953 61.3782 33.6816 61.4028 33.2191C61.4321 32.6847 61.4167 32.3383 61.4399 31.7332C61.4565 31.2377 61.561 30.6793 61.9712 30.5074Z" fill="#8F7ECE"/>
<path opacity="0.75" fill-rule="evenodd" clip-rule="evenodd" d="M60.42 31.0582C60.3858 31.2897 60.3556 31.5266 60.3792 31.8027C57.9292 31.8166 55.6225 31.643 53.1868 31.6395C53.1477 31.4359 53.1382 30.9271 53.2493 30.7057C55.6272 30.8396 58.0917 30.8607 60.42 31.0582Z" fill="white"/>
<path opacity="0.75" fill-rule="evenodd" clip-rule="evenodd" d="M60.226 32.7487C60.2924 32.909 60.2375 33.2926 60.1856 33.4947C57.7426 33.552 55.4694 33.3893 53.051 33.4153C53.1 33.1674 53.0452 32.8387 53.1303 32.6186C55.504 32.652 57.7721 32.8207 60.226 32.7487Z" fill="white"/>
<path opacity="0.75" fill-rule="evenodd" clip-rule="evenodd" d="M60.1195 34.7519C60.0867 35.0142 60.0867 35.3002 60.0397 35.549C57.7604 35.4103 55.4414 35.3258 53.0283 35.3607C53.0047 35.016 53.0076 34.6912 53.0389 34.3885C55.4006 34.5074 57.7014 34.7059 60.1195 34.7519Z" fill="white"/>
<path fill-rule="evenodd" clip-rule="evenodd" d="M29.7029 11.9765C29.4883 11.3508 29.4012 10.4502 29.6687 10.0078C30.1088 9.71424 31.0695 9.84373 31.7539 9.79881C33.6428 9.67264 35.5324 9.62986 37.4232 9.53748C43.6703 9.22986 49.7305 9.27186 55.7482 9.50818C56.7582 9.54803 58.6951 9.38787 59.1176 9.90428C59.5666 10.4539 59.4545 12.0265 59.1811 12.2715C58.8586 12.5594 58.0234 12.4957 57.3 12.492C55.5728 12.4814 53.207 12.492 51.7275 12.4805C49.1133 12.4597 46.8086 12.3 44.4424 12.251C40.733 12.173 37.0305 12.156 33.249 12.2365C32.6354 12.25 32.0027 12.264 31.3789 12.2519C30.8264 12.2412 30.176 12.3486 29.7029 11.9765Z" fill="#EFAD1B"/>
<path opacity="0.75" fill-rule="evenodd" clip-rule="evenodd" d="M55.9108 14.3894C51.7419 14.372 47.5642 14.3759 43.3987 14.3332C35.6364 14.2508 27.522 14.2879 19.2446 14.6941L19.4155 15.9513C23.2038 15.8195 26.9308 15.6105 30.5862 15.5267C39.2737 15.3285 47.5114 15.5488 55.7655 15.6205C59.9259 15.6556 64.1093 15.6103 68.2845 15.7259C68.3831 15.2933 68.5247 14.8812 68.4944 14.3863C64.2151 14.6103 60.0782 14.4072 55.9108 14.3894Z" fill="white"/>
<path opacity="0.75" fill-rule="evenodd" clip-rule="evenodd" d="M19.7126 16.867C28.1612 16.8252 60.1772 17.6988 68.5282 17.7935C68.5397 18.1916 68.4892 18.5468 68.4667 18.9209C64.4802 18.6652 36.3294 18.2422 32.1851 18.1271C28.0657 18.0131 23.8798 18.0871 19.7022 17.9865C19.6853 17.598 19.6251 17.1822 19.7126 16.867Z" fill="white"/>
<path opacity="0.75" fill-rule="evenodd" clip-rule="evenodd" d="M68.5079 20.5334C68.4708 21.0138 68.4679 21.5172 68.5161 22.0564C61.8831 21.7387 26.6956 21.0605 19.8696 21.0056C19.8479 20.5277 19.844 20.0631 19.77 19.5496C26.6349 19.5668 61.7999 20.298 68.5079 20.5334Z" fill="white"/>
<path fill-rule="evenodd" clip-rule="evenodd" d="M71.6033 8.03027C72.1322 8.13867 71.9764 9.32852 71.8522 10.0713C71.7607 10.6211 71.5537 11.2164 71.158 11.0533C70.9443 10.9672 70.8684 10.5836 70.8254 10.2986C70.7238 9.63477 70.799 8.48301 71.0771 8.22344C71.2063 8.10254 71.4219 7.99473 71.6033 8.03027Z" fill="white"/>
<path fill-rule="evenodd" clip-rule="evenodd" d="M71.5043 12.7721C71.7863 13.1976 71.7357 14.2889 71.0672 14.0674C70.4367 13.8586 70.9801 11.9793 71.5043 12.7721Z" fill="white"/>
<path fill-rule="evenodd" clip-rule="evenodd" d="M16.9581 32.2033C17.4991 32.6582 17.8077 35.516 16.8296 35.5611C16.0319 35.5953 15.8173 33.0678 16.313 32.3973C16.4411 32.2244 16.5739 32.157 16.9581 32.2033Z" fill="white"/>
<path fill-rule="evenodd" clip-rule="evenodd" d="M17.0878 36.7861C17.9763 36.6426 18.1064 38.8279 17.2814 38.8525C16.9327 38.8631 16.8314 38.6316 16.6993 38.207C16.5062 37.5804 16.4657 36.8867 17.0878 36.7861Z" fill="white"/>
<path fill-rule="evenodd" clip-rule="evenodd" d="M97.9361 56.4594L97.2703 55.1098L61.1571 81.7707L38.4057 72.8547L37.0358 73.9186C37.0358 73.9186 37.1561 75.4854 37.0358 75.4854C36.9139 75.4854 55.1278 83.4537 55.1278 83.4537L60.6321 85.1168L62.6879 84.6633L98.3608 59.1032C97.5828 58.4985 97.4414 57.2854 97.9361 56.4594Z" fill="#8F7ECE"/>
<path fill-rule="evenodd" clip-rule="evenodd" d="M37.8174 73.5574C37.6067 74.0826 37.5315 74.7426 37.353 75.299C39.4075 75.8213 41.3616 76.5553 43.275 77.3313C47.9186 79.2143 52.4914 81.1879 57.1508 83.2533C58.5356 83.8676 59.7983 84.8826 61.6205 84.3566C62.3916 84.1348 63.2948 83.4166 64.1172 82.8477C69.5006 79.1254 75.1407 75.2592 80.3739 71.4676C86.0721 67.3395 91.6297 63.0025 97.6754 59.1604C98.0524 58.9197 98.5034 58.5297 99.0108 58.6371C99.0039 59.182 98.5188 59.5236 98.1977 59.8563C95.9555 62.1836 93.0819 64.0979 90.4182 66.0686C84.2791 70.6086 78.244 75.0066 71.7819 79.4803C69.4782 81.0746 67.0338 82.6654 64.5241 84.2408C63.7053 84.7545 62.7719 85.3297 61.9114 85.5756C60.5231 85.9727 58.9828 85.3498 57.6731 84.9369C54.2907 83.8713 51.3553 82.6244 48.2102 81.2219C46.4455 80.4344 44.1086 79.3633 42.2293 78.4348C41.3215 77.9852 40.3825 77.4869 39.2696 76.9836C38.4311 76.6039 36.8305 76.0281 36.5981 75.2988C36.0623 73.6209 37.66 72.7986 38.7459 72.1065C41.1903 70.5498 43.6461 68.5242 45.9455 66.9393C51.0272 63.435 55.8455 60.4117 60.7504 57.0109C64.7508 54.2379 68.8828 51.5621 72.7688 48.4188C73.1116 48.1416 73.5342 47.792 73.9297 47.4899C74.3678 47.1549 74.9699 46.6113 75.4393 46.6192C75.6815 46.6231 75.9356 46.6641 76.1965 46.7281C76.3672 46.7701 76.227 47.1656 76.4018 47.2233C76.5619 47.2762 77.0368 46.9904 77.1977 47.0502C77.6672 47.2246 78.136 47.4156 78.5748 47.5481C79.3791 47.7908 80.1709 48.0336 80.9532 48.2775C81.141 48.3361 80.9399 48.5567 81.1268 48.6152C81.22 48.6445 81.7016 48.5121 81.7946 48.5414C82.95 48.9063 84.0869 49.2746 85.2153 49.6512C85.3866 49.7084 85.3858 49.9424 85.5567 50C85.7453 50.0635 86.1059 49.9506 86.2944 50.0147C88.7621 50.8537 91.2039 51.7383 93.7268 52.7149C94.3385 52.9514 95.0082 53.2053 95.7002 53.4758C95.8721 53.543 95.8327 53.7463 96.0067 53.8156C96.094 53.8504 96.3944 53.7502 96.4821 53.7854C97.0159 53.9998 97.5543 54.2236 98.0821 54.4565C98.5711 54.6731 99.1676 55.01 99.1844 55.3272C99.2219 55.9938 97.3784 56.8656 96.9205 57.1857C94.5653 58.8295 91.991 60.6414 89.7215 62.2361C86.3102 64.6338 83.4237 66.8609 80.3743 69.2031C77.2719 71.5867 74.2774 73.8897 71.143 76.3445C69.2325 77.8416 66.5221 79.9373 64.06 81.5129C63.1824 82.0732 62.1037 82.9049 60.9832 82.8477C60.0981 82.8023 58.9832 82.0463 58.1379 81.6275C55.4401 80.2942 52.5047 79.0533 49.6035 77.9707C47.5645 77.2102 45.5752 76.5156 43.6237 75.8225C41.6409 75.1184 39.6153 74.5563 37.8174 73.5574Z" fill="#FF5000"/>
<path d="M44.048 72.6477C44.5634 72.3246 45.0689 71.9867 45.5388 71.6801C45.7765 71.4461 45.8142 71.2051 45.6644 71.0145C45.4867 70.7912 45.2529 70.7715 45.03 70.9072C44.4943 71.2336 43.9671 71.5758 43.4429 71.9205C43.2826 72.025 43.2115 72.194 43.2691 72.3842C43.3986 72.809 43.882 72.7512 44.048 72.6477Z" fill="white"/>
<path d="M46.6169 68.7818C46.8378 68.6764 47.8356 67.7932 47.98 67.6637C48.4999 67.1959 47.9454 66.5252 47.4149 66.9354C46.9653 67.2828 46.538 67.6602 46.1009 68.0246C45.6725 68.4637 46.046 69.0533 46.6169 68.7818Z" fill="white"/>
<path d="M53.008 71.208C53.4855 70.9707 53.8836 70.6164 54.2547 70.3196C54.5064 70.0268 54.5281 69.7838 54.3533 69.5916C54.1732 69.3971 53.9287 69.3783 53.667 69.5893C53.3002 69.8854 52.9242 70.1664 52.5281 70.4221C52.0004 70.7617 52.4312 71.4957 53.008 71.208Z" fill="white"/>
<path d="M51.0882 68.3973C51.5148 68.119 51.9123 67.7961 52.257 67.5404C52.4919 67.2838 52.563 67.0678 52.3898 66.8406C52.2156 66.61 51.9691 66.609 51.7564 66.7539C51.3501 67.0326 50.9617 67.3344 50.5732 67.6354C50.2958 67.851 50.2343 68.0656 50.3603 68.2891C50.491 68.5205 50.7898 68.5918 51.0882 68.3973Z" fill="white"/>
<path d="M48.4681 72.7344C48.873 72.4623 49.2517 72.1519 49.6021 71.8871C49.8302 71.6392 49.8577 71.4029 49.7027 71.2176C49.5202 71.001 49.2849 70.9803 49.072 71.1301C48.6734 71.4111 48.2908 71.7174 47.9105 72.023C47.4273 72.4133 47.9077 73.1092 48.4681 72.7344Z" fill="white"/>
<path d="M55.792 67.1627C55.4959 67.3533 55.4114 67.5641 55.5307 67.7932C55.8446 68.3944 56.57 67.8283 57.0989 67.4182C57.2973 67.2065 57.3647 67.0047 57.2221 66.792C56.9204 66.344 56.5073 66.7029 55.792 67.1627Z" fill="white"/>
<path d="M51.4894 63.8606C52.0054 63.5385 52.5103 63.1996 52.9806 62.893C53.2179 62.6596 53.256 62.418 53.1058 62.2274C53.0894 62.2072 53.0726 62.1902 53.0558 62.1738C52.2919 62.6774 51.5255 63.1848 50.7563 63.6953C50.9261 64.0068 51.3372 63.9549 51.4894 63.8606Z" fill="white"/>
<path d="M60.4469 62.4209C60.9245 62.1836 61.3225 61.8293 61.6936 61.5323C61.9454 61.2397 61.967 60.9965 61.7918 60.8059C61.6133 60.61 61.3682 60.5912 61.1059 60.802C60.7395 61.0981 60.3631 61.3791 59.9674 61.6346C59.4395 61.9746 59.8704 62.7088 60.4469 62.4209Z" fill="white"/>
<path d="M57.8002 59.5019C57.9301 59.7345 58.2288 59.8047 58.5276 59.6103C58.9541 59.3322 59.3516 59.0092 59.6967 58.7545C59.9311 58.4974 60.0024 58.2818 59.8295 58.0537C59.7342 57.9285 59.6178 57.8722 59.4969 57.8699C58.9622 58.2353 58.4278 58.5982 57.894 58.9568C57.7223 59.1361 57.695 59.3166 57.8002 59.5019Z" fill="white"/>
<path d="M55.9084 63.9473C56.3127 63.6758 56.692 63.3648 57.0424 63.101C57.2691 62.8522 57.2974 62.6158 57.1426 62.4315C56.9607 62.2139 56.7248 62.1932 56.5111 62.3434C56.1134 62.6244 55.7308 62.9301 55.3509 63.2367C54.8677 63.6262 55.348 64.3232 55.9084 63.9473Z" fill="white"/>
<path d="M64.5392 58.6312C64.7376 58.4193 64.8054 58.2182 64.6628 58.0064C64.3605 57.5574 63.9485 57.917 63.2323 58.3756C62.9362 58.5666 62.8517 58.7775 62.9714 59.0062C63.2849 59.6074 64.0103 59.0414 64.5392 58.6312Z" fill="white"/>
<path d="M57.1562 77.3524C56.6208 77.6787 56.0933 78.0205 55.5697 78.3656C55.4089 78.4711 55.3386 78.64 55.3955 78.8287C55.525 79.2541 56.0082 79.1965 56.1744 79.093C56.6904 78.7709 57.1953 78.432 57.6656 78.125C57.9029 77.8916 57.9408 77.6504 57.7908 77.4594C57.613 77.2373 57.3804 77.2162 57.1562 77.3524Z" fill="white"/>
<path d="M59.3481 74.5793C59.569 74.4738 60.5668 73.5906 60.7112 73.4615C61.2311 72.9941 60.6766 72.3226 60.1465 72.7332C59.6965 73.0807 59.269 73.4576 58.8321 73.8221C58.4037 74.2611 58.7772 74.8517 59.3481 74.5793Z" fill="white"/>
<path d="M65.1333 77.6532C65.6108 77.4159 66.0098 77.0616 66.3799 76.7641C66.6317 76.4719 66.6534 76.2287 66.4792 76.0377C66.2997 75.8424 66.0545 75.8231 65.7922 76.0338C65.4258 76.3303 65.0495 76.6114 64.6538 76.8666C64.1258 77.2071 64.5565 77.941 65.1333 77.6532Z" fill="white"/>
<path d="M63.2132 74.8432C63.6398 74.5641 64.0372 74.241 64.3823 73.9869C64.6177 73.7303 64.688 73.5127 64.5151 73.2861C64.3403 73.0551 64.0944 73.0541 63.8817 73.2004C63.4765 73.4775 63.0866 73.7799 62.6985 74.0818C62.4224 74.2965 62.3593 74.5121 62.4858 74.735C62.6157 74.9668 62.9151 75.0371 63.2132 74.8432Z" fill="white"/>
<path d="M61.1961 77.5752C60.7984 77.8572 60.4158 78.1619 60.0361 78.4692C59.5527 78.858 60.0332 79.5551 60.5935 79.1791C60.9978 78.9086 61.3771 78.5971 61.7275 78.3328C61.9552 78.0844 61.9836 77.8486 61.8277 77.6637C61.6457 77.4463 61.4107 77.425 61.1961 77.5752Z" fill="white"/>
<path d="M53.0809 74.7746C52.6356 75.1155 53.0862 75.8172 53.5772 75.525C53.9979 75.2752 54.395 74.9817 54.7397 74.7481C55.2356 74.182 54.6694 73.694 54.2425 73.9664C53.8444 74.2194 53.455 74.4879 53.0809 74.7746Z" fill="white"/>
<path d="M67.9186 73.608C67.6227 73.7986 67.5379 74.0094 67.6576 74.2387C67.9711 74.8395 68.6975 74.2738 69.2264 73.8631C69.4242 73.6524 69.4926 73.45 69.349 73.2373C69.0469 72.7891 68.635 73.1492 67.9186 73.608Z" fill="white"/>
<path d="M69.2674 76.8594C68.971 77.049 68.8868 77.26 69.0061 77.4891C69.0909 77.6504 69.2049 77.7264 69.3368 77.7442C69.8403 77.3586 70.3206 76.9865 70.7649 76.6399C70.7534 76.5893 70.7317 76.5393 70.6975 76.4887C70.3958 76.0397 69.9833 76.3998 69.2674 76.8594Z" fill="white"/>
<path d="M64.9249 80.4656C64.6284 80.6559 64.544 80.8666 64.6639 81.0953C64.6669 81.101 64.6702 81.1049 64.6741 81.1107C65.2059 80.7584 65.745 80.3873 66.2817 80.0066C65.9868 79.7053 65.5848 80.0426 64.9249 80.4656Z" fill="white"/>
<path d="M82.362 67.307C82.0597 66.858 81.6478 67.2176 80.9315 67.6771C80.6355 67.8674 80.5509 68.0781 80.6706 68.3068C80.8005 68.5557 81.0019 68.6033 81.2298 68.5451C81.6294 68.2385 82.0274 67.9328 82.4255 67.6291C82.4521 67.5226 82.4356 67.4154 82.362 67.307Z" fill="white"/>
<path d="M57.3898 70.9297C57.8624 70.5975 58.572 70.0772 58.2013 69.6403C58.0255 69.4323 57.7542 69.4303 57.4654 69.659C57.2347 69.8414 57.0028 70.0297 56.8034 70.2444C56.4011 70.6789 56.9458 71.243 57.3898 70.9297Z" fill="white"/>
<path d="M63.615 70.3059C64.1304 69.9838 64.6355 69.6459 65.1058 69.3383C65.3431 69.1043 65.382 68.8633 65.231 68.6737C65.0535 68.4504 64.8209 68.4297 64.5971 68.5663C64.0613 68.8916 63.5342 69.2338 63.0099 69.5786C62.8492 69.6838 62.7789 69.853 62.8361 70.0416C62.9652 70.4672 63.4484 70.4094 63.615 70.3059Z" fill="white"/>
<path d="M67.5871 63.9463C67.1371 64.2938 66.7096 64.6707 66.2721 65.0355C65.8445 65.474 66.2176 66.0646 66.7885 65.7922C67.0094 65.6867 68.0078 64.8035 68.1521 64.6744C68.6715 64.2072 68.117 63.5367 67.5871 63.9463Z" fill="white"/>
<path d="M72.7745 69.6051C73.252 69.3678 73.6495 69.0135 74.0211 68.7151C74.2729 68.4239 74.2946 68.1807 74.119 67.9887C73.9405 67.7942 73.6954 67.7741 73.4336 67.9858C73.0668 68.2813 72.6909 68.5623 72.2938 68.819C71.7665 69.1588 72.1979 69.8928 72.7745 69.6051Z" fill="white"/>
<path d="M71.9558 64.4988C71.781 64.2692 71.5351 64.2674 71.3224 64.4131C70.9161 64.6908 70.5276 64.9936 70.1392 65.2944C69.8628 65.509 69.7997 65.7246 69.9263 65.9481C70.0561 66.1795 70.3556 66.2508 70.6536 66.0559C71.0802 65.7768 71.4786 65.4541 71.8228 65.1996C72.0583 64.9432 72.1286 64.7266 71.9558 64.4988Z" fill="white"/>
<path d="M68.638 68.7893C68.2389 69.0703 67.8561 69.3756 67.4764 69.6822C66.9932 70.0727 67.4735 70.7686 68.0339 70.3922C68.4387 70.1217 68.8175 69.8104 69.1678 69.5465C69.3956 69.2977 69.4239 69.0623 69.2684 68.877C69.0862 68.6592 68.8518 68.6385 68.638 68.7893Z" fill="white"/>
<path d="M60.5213 65.9877C60.076 66.3289 60.5271 67.0309 61.0172 66.7391C61.4389 66.4883 61.8355 66.1948 62.1801 65.9612C62.6758 65.3951 62.1097 64.9071 61.6828 65.1799C61.2847 65.4332 60.8953 65.7024 60.5213 65.9877Z" fill="white"/>
<path d="M61.791 81.5637C61.4887 81.1145 61.0768 81.4746 60.3606 81.9338C60.0645 82.1238 59.9803 82.3357 60.0996 82.5635C60.116 82.5963 60.1348 82.6227 60.1526 82.6482C60.3258 82.7137 60.4957 82.768 60.66 82.8023C60.9821 82.7215 61.3588 82.4287 61.6674 82.1897C61.8662 81.9775 61.9336 81.7754 61.791 81.5637Z" fill="white"/>
<path d="M64.8299 62.1428C65.3026 61.8115 66.0122 61.2903 65.643 60.8533C65.4659 60.6453 65.1944 60.6445 64.9055 60.8727C64.6749 61.0551 64.4434 61.2428 64.2442 61.4574C63.8411 61.8924 64.3866 62.4561 64.8299 62.1428Z" fill="white"/>
<path d="M45.47 75.0693C45.2952 74.8383 45.0493 74.8363 44.8366 74.9826C44.4399 75.2535 44.0606 75.5486 43.6819 75.8433C44.0333 75.9676 44.3876 76.0931 44.7428 76.2183C44.9536 76.0603 45.154 75.9049 45.3374 75.7691C45.5725 75.5127 45.6428 75.2961 45.47 75.0693Z" fill="white"/>
<path d="M48.6108 76.0209C48.9246 76.6227 49.651 76.057 50.1799 75.6463C50.3772 75.4346 50.4445 75.2324 50.3022 75.0205C50.0004 74.5715 49.5879 74.9315 48.8721 75.3912C48.5762 75.5811 48.4914 75.7918 48.6108 76.0209Z" fill="white"/>
<path d="M39.8568 73.283C40.3285 72.9504 41.038 72.4291 40.6687 71.9936C40.4925 71.7856 40.2201 71.7836 39.9312 72.0113C39.7007 72.1947 39.4691 72.382 39.2699 72.5971C38.8671 73.0313 39.4124 73.5955 39.8568 73.283Z" fill="white"/>
<path d="M51.2828 77.8688C51.106 77.6608 50.8347 77.6588 50.5459 77.8875C50.4226 77.9842 50.299 78.0854 50.1804 78.1899C50.5117 78.3151 50.8427 78.443 51.1744 78.5725C51.3767 78.3406 51.4734 78.0936 51.2828 77.8688Z" fill="white"/>
<path d="M73.0704 72.6543C72.6204 73.0018 72.1928 73.3777 71.7563 73.7426C71.3278 74.1811 71.701 74.7717 72.2717 74.5002C72.4932 74.3938 73.492 73.5106 73.6354 73.3824C74.1549 72.9143 73.6012 72.2443 73.0704 72.6543Z" fill="white"/>
<path d="M76.5555 69.6637C76.3245 69.8461 76.093 70.0344 75.8932 70.249C75.4909 70.6836 76.0358 71.2479 76.4805 70.9344C76.9522 70.6027 77.6618 70.0815 77.2921 69.6449C77.1157 69.4371 76.8438 69.4352 76.5555 69.6637Z" fill="white"/>
<path d="M85.214 50.0314C85.4372 50.4604 85.871 50.2943 86.2937 50.015C85.9345 49.8937 85.574 49.7738 85.214 49.6531C85.1456 49.773 85.1447 49.899 85.214 50.0314Z" fill="white"/>
<path d="M66.7088 54.9267C67.1857 54.6885 67.5844 54.3342 67.9555 54.0367C68.2063 53.7451 68.2293 53.5019 68.0531 53.3103C67.874 53.1144 67.6301 53.0957 67.3676 53.3064C67.0014 53.6023 66.6254 53.8836 66.2283 54.139C65.7004 54.4801 66.1316 55.2142 66.7088 54.9267Z" fill="white"/>
<path d="M71.3023 51.2383C71.5006 51.0274 71.5689 50.8252 71.4256 50.6135C71.1238 50.1645 70.7113 50.5245 69.9955 50.9836C69.6994 51.1737 69.6146 51.3856 69.7342 51.6133C70.0488 52.2143 70.7742 51.6483 71.3023 51.2383Z" fill="white"/>
<path d="M70.3771 62.9139C70.8931 62.5914 71.398 62.2529 71.8693 61.9463C72.1056 61.7127 72.1447 61.4707 71.9935 61.2805C71.8167 61.0572 71.5833 61.0373 71.3601 61.1731C70.8234 61.4988 70.2972 61.8416 69.7726 62.1854C69.6119 62.2908 69.5416 62.4598 69.5994 62.6498C69.7277 63.0756 70.2111 63.0172 70.3771 62.9139Z" fill="white"/>
<path d="M73.5502 58.3992C73.7711 58.2947 74.77 57.411 74.9133 57.2824C75.4332 56.8145 74.8795 56.144 74.3483 56.5541C73.8987 56.9016 73.4713 57.2785 73.0342 57.6424C72.6059 58.0811 72.9793 58.6721 73.5502 58.3992Z" fill="white"/>
<path d="M79.3364 61.4746C79.814 61.236 80.212 60.8826 80.5821 60.5856C80.8339 60.293 80.8566 60.0498 80.6814 59.8582C80.5019 59.6633 80.2577 59.6436 79.9954 59.8553C79.629 60.1514 79.2517 60.4315 78.856 60.6879C78.3278 61.028 78.7587 61.7619 79.3364 61.4746Z" fill="white"/>
<path d="M78.7181 57.1059C78.5433 56.8762 78.2974 56.8742 78.0847 57.0217C77.6788 57.2979 77.2905 57.6008 76.9015 57.9031C76.6253 58.1172 76.5632 58.332 76.6888 58.5553C76.8196 58.7867 77.1181 58.858 77.4161 58.6635C77.8427 58.3854 78.2411 58.0613 78.5862 57.8067C78.8206 57.5506 78.8909 57.334 78.7181 57.1059Z" fill="white"/>
<path d="M74.7968 63.0004C75.202 62.7289 75.58 62.418 75.9313 62.1533C76.1585 61.9055 76.187 61.6691 76.0319 61.4838C75.8499 61.2672 75.6141 61.2455 75.4003 61.3967C75.0016 61.6777 74.619 61.9834 74.2393 62.2891C73.7561 62.6793 74.2366 63.3754 74.7968 63.0004Z" fill="white"/>
<path d="M67.7797 59.3461C68.2014 59.0957 68.5975 58.8031 68.9422 58.5697C69.4389 58.0037 68.8719 57.5146 68.4449 57.7871C68.0469 58.0408 67.6574 58.3094 67.283 58.5963C66.8377 58.9359 67.2887 59.6387 67.7797 59.3461Z" fill="white"/>
<path d="M82.1208 57.4287C81.8247 57.6197 81.7401 57.8307 81.8598 58.0584C82.1741 58.6606 82.8995 58.0945 83.4286 57.6834C83.6258 57.4727 83.6944 57.2713 83.5512 57.0586C83.2501 56.6096 82.837 56.9692 82.1208 57.4287Z" fill="white"/>
<path d="M71.5934 54.7512C72.0657 54.4186 72.776 53.8973 72.4055 53.4608C72.2298 53.2533 71.9575 53.2518 71.6686 53.4795C71.4382 53.6619 71.2061 53.8502 71.0069 54.0653C70.6044 54.5002 71.1491 55.0635 71.5934 54.7512Z" fill="white"/>
<path d="M77.817 54.1274C78.3324 53.8043 78.8375 53.466 79.3088 53.1594C79.5451 52.926 79.5841 52.6838 79.433 52.4938C79.2554 52.2709 79.0228 52.2508 78.7986 52.3865C78.2634 52.7133 77.7373 53.0551 77.2121 53.3998C77.0513 53.5043 76.981 53.6733 77.0383 53.8635C77.1681 54.2885 77.6515 54.2307 77.817 54.1274Z" fill="white"/>
<path d="M80.2239 50.0676C80.4454 49.9621 81.4436 49.0789 81.5872 48.9498C81.7305 48.8203 81.7903 48.676 81.7932 48.543C81.5141 48.4549 81.2339 48.3664 80.9518 48.2791C80.5282 48.6104 80.1219 48.9647 79.7075 49.3102C79.2805 49.7494 79.6536 50.3391 80.2239 50.0676Z" fill="white"/>
<path d="M86.2752 53.1828C86.7518 52.9445 87.1504 52.5912 87.5209 52.2941C87.7727 52.0016 87.7953 51.7584 87.6195 51.5678C87.44 51.3719 87.1949 51.3522 86.9342 51.5639C86.5674 51.86 86.1914 52.141 85.7943 52.3957C85.2662 52.7365 85.6975 53.4707 86.2752 53.1828Z" fill="white"/>
<path d="M82.236 54.2135C82.6419 53.942 83.0196 53.6314 83.3706 53.3662C83.5977 53.1183 83.6263 52.882 83.4706 52.6967C83.2891 52.4805 83.0538 52.4594 82.8401 52.6096C82.4411 52.8906 82.0585 53.1963 81.6786 53.5019C81.1954 53.8924 81.6757 54.5883 82.236 54.2135Z" fill="white"/>
<path d="M75.664 50.5596C76.0856 50.3098 76.4817 50.0162 76.8265 49.7826C77.3232 49.2166 76.7571 48.7285 76.3288 49.001C75.9308 49.2537 75.5413 49.5223 75.1673 49.8092C74.722 50.1498 75.173 50.8518 75.664 50.5596Z" fill="white"/>
<path d="M75.9934 65.384C75.6921 64.9354 75.2792 65.2955 74.563 65.7551C74.2669 65.9453 74.1821 66.1561 74.302 66.3848C74.6153 66.986 75.3417 66.4199 75.8698 66.0098C76.0684 65.799 76.1358 65.5969 75.9934 65.384Z" fill="white"/>
<path d="M76.3335 47.8764C76.6448 47.6572 77.0579 47.3551 77.1975 47.0504C76.8764 46.9305 76.5559 46.8203 76.2431 46.7408C76.0698 46.8815 75.8985 47.0277 75.7464 47.1908C75.3438 47.6256 75.8888 48.1889 76.3335 47.8764Z" fill="white"/>
<path d="M94.5371 54.3727C94.0539 54.7621 94.5348 55.459 95.0951 55.0832C95.4994 54.8127 95.8783 54.5014 96.2287 54.2371C96.3832 54.0682 96.4434 53.9059 96.4197 53.7606C96.1781 53.6647 95.9398 53.5703 95.7025 53.4775C95.7006 53.4785 95.6996 53.4795 95.6977 53.4805C95.3002 53.7613 94.917 54.0662 94.5371 54.3727Z" fill="white"/>
<path d="M90.8144 54.468C91.2361 54.2172 91.6318 53.9246 91.9763 53.691C92.473 53.125 91.9062 52.636 91.4791 52.9084C91.081 53.1621 90.6916 53.4307 90.3176 53.7176C89.8724 54.0588 90.3234 54.7602 90.8144 54.468Z" fill="white"/>
<path d="M79.5605 64.8492C79.11 65.1979 78.683 65.5736 78.2459 65.9385C77.8176 66.377 78.191 66.9676 78.7613 66.6951C78.9828 66.5899 79.982 65.7065 80.1254 65.5775C80.6445 65.1107 80.091 64.4402 79.5605 64.8492Z" fill="white"/>
<path d="M83.2417 63.6574C83.0102 63.8398 82.7796 64.0275 82.5798 64.2422C82.1772 64.6773 82.7214 65.2404 83.1655 64.9281C83.6378 64.5955 84.3481 64.0752 83.9776 63.6387C83.8018 63.4309 83.5303 63.4289 83.2417 63.6574Z" fill="white"/>
<path d="M87.8833 58.4373C88.4027 57.9705 87.8488 57.3 87.3183 57.71C86.8687 58.0574 86.8109 58.2246 86.3744 58.5895C85.9468 59.0279 86.3199 59.6186 86.8908 59.3471C87.1113 59.2406 87.74 58.5668 87.8833 58.4373Z" fill="white"/>
<path d="M90.7941 58.975C91.2207 58.6967 91.6197 58.3739 91.9632 58.1182C92.1986 57.8621 92.2689 57.6455 92.0961 57.4184C91.9215 57.1877 91.6763 57.1867 91.4627 57.3323C91.0564 57.6096 90.6679 57.9123 90.2795 58.2137C90.0031 58.4293 89.9406 58.6436 90.0668 58.8678C90.1982 59.0991 90.4961 59.1694 90.7941 58.975Z" fill="white"/>
<path d="M88.1744 63.3119C88.5793 63.0414 88.958 62.7299 89.3084 62.4656C89.5362 62.2168 89.5641 61.9805 89.409 61.7951C89.2266 61.5785 88.9922 61.5578 88.7786 61.708C88.3799 61.9891 87.9969 62.2947 87.617 62.6004C87.1338 62.9918 87.6143 63.6869 88.1744 63.3119Z" fill="white"/>
<path d="M83.4955 61.6699C83.9171 61.4191 84.3132 61.1266 84.658 60.8932C85.1546 60.3272 84.5886 59.8381 84.1603 60.1113C83.7626 60.3641 83.3728 60.6332 82.9998 60.9195C82.5544 61.2609 83.0044 61.9627 83.4955 61.6699Z" fill="white"/>
<path d="M95.4999 57.7412C95.2053 57.9295 95.1212 58.1373 95.2352 58.364C95.7715 57.9881 96.3034 57.616 96.8247 57.2521C96.5327 57.0033 96.1362 57.332 95.4999 57.7412Z" fill="white"/>
<path d="M86.7871 55.2108C86.3832 55.6455 86.9287 56.2086 87.3738 55.8963C87.8451 55.5637 88.5551 55.0434 88.185 54.6068C88.0092 54.3988 87.7379 54.3969 87.449 54.6256C87.2174 54.8078 86.9863 54.9951 86.7871 55.2108Z" fill="white"/>
<path fill-rule="evenodd" clip-rule="evenodd" d="M73.5245 51.4303C74.1352 51.2998 75.1909 51.6324 75.9053 51.8943C79.4751 53.209 82.2032 54.4918 85.6012 56.0172C86.1794 56.2772 86.9639 56.5838 87.5174 56.8879C88.0758 57.1945 88.8489 57.7822 88.8526 58.2819C88.8594 59.0973 87.0264 60.0955 86.4719 60.4879C84.1215 62.1485 82.1104 63.5723 79.5635 65.0746C79.0534 65.3744 78.5133 65.7504 77.9954 65.7717C77.3735 65.7953 76.6881 65.3953 76.0214 65.0746C74.1639 64.1797 72.6452 63.3244 70.7385 62.461C69.0587 61.7014 67.1212 60.8287 65.3966 59.8486C64.9161 59.5762 64.0407 59.1049 64.0036 58.6295C63.9428 57.8488 65.602 56.9174 66.0936 56.5404C67.5944 55.3867 69.2161 54.0572 70.7964 52.9983C71.6085 52.4547 72.4391 51.8262 73.409 51.4883C73.4374 51.4783 73.4657 51.4432 73.5245 51.4303Z" fill="#4D3D87"/>
<path fill-rule="evenodd" clip-rule="evenodd" d="M92.2338 71.3523C89.8861 71.9492 87.6273 72.5428 85.6215 73.4572C82.8826 74.7053 80.5267 76.3824 78.3426 78.042C73.7361 81.5414 69.724 85.4981 65.1314 88.8768C62.8461 90.5586 60.4461 92.1484 57.4924 93.0318C54.5658 93.9068 51.1519 94.392 47.19 94.0623C43.3166 93.7408 39.8076 92.8637 37.0109 91.4684C34.2767 90.1047 31.9789 88.3291 31.3002 85.0857C35.8182 84.8633 40.2349 83.9762 43.2082 81.6566C44.2898 80.8133 45.8484 79.0049 45.1918 77.2498C44.4549 75.2816 41.3631 75.052 39.083 75.3639C37.3926 75.5979 35.9937 76.1754 34.824 76.7814C32.2103 78.1355 30.1689 79.8963 29.5932 83.5396C23.9392 83.5156 18.549 82.7801 14.2531 81.2869C9.87323 79.7648 6.3951 77.4279 3.91034 74.3439C2.62753 72.7551 1.65624 70.9428 1.5869 68.5109C1.50702 65.6975 2.61268 63.6709 3.94315 62.1451C5.02909 60.8988 6.30663 59.9361 7.77284 59.1953C7.77284 59.1953 8.6951 57.1664 8.69706 57.152C8.28944 57.2135 7.58417 57.4572 7.12694 57.6949C5.14706 58.7207 3.48983 60.0443 2.18632 61.7396C0.796277 63.55 -0.152551 66.0887 0.0203001 68.7713C0.189245 71.3783 1.10096 73.3225 2.45214 75.0621C5.02538 78.3762 8.62792 80.9096 13.3396 82.6006C17.9957 84.2703 23.5549 85.1609 29.7008 85.1445C30.582 90.0316 34.8685 92.799 39.8476 94.3104C43.9578 95.5576 48.7666 95.9639 52.8369 95.558C54.1851 95.4242 55.4601 95.0959 56.7738 94.9611C58.0767 94.8264 59.4592 94.6647 60.8879 94.6275C63.8285 94.55 66.9986 94.8582 69.7953 94.718C71.2043 94.6467 72.5684 94.4613 73.868 94.2818C78.2752 93.6695 82.7422 92.4941 86.382 90.7568C87.0135 90.4555 87.6879 90.1639 87.6777 89.6262C87.6537 88.2793 85.4404 89.5525 85.0822 89.6955C82.1629 90.8623 79.1203 91.7494 76.0328 92.3314C71.6801 93.1508 66.7967 93.3424 61.6242 93.0496C67.2974 89.8482 71.8244 85.423 76.8603 81.2984C80.5004 78.315 84.2703 75.2922 89.3783 73.7889C90.1408 73.5647 90.9365 73.3291 91.8822 73.0639C92.4978 72.8916 94.0383 72.8039 94.0758 71.9135C94.1236 70.8232 92.8859 71.1854 92.2338 71.3523ZM34.8685 78.5293C36.6703 77.4611 38.9767 76.691 41.2969 76.8061C42.3289 76.8576 43.5832 77.2283 43.7383 77.9186C43.9896 79.0363 42.442 80.2574 41.8494 80.6906C39.1398 82.6705 35.3357 83.2033 31.2924 83.4916C31.5486 81.0443 33.1025 79.5752 34.8685 78.5293Z" fill="#8F7ECE"/>
<path opacity="0.75" fill-rule="evenodd" clip-rule="evenodd" d="M92.2338 71.3523C89.8861 71.9492 87.6273 72.5428 85.6215 73.4572C82.8826 74.7053 80.5267 76.3824 78.3426 78.042C73.7361 81.5414 69.724 85.4981 65.1314 88.8768C62.8461 90.5586 60.4461 92.1484 57.4924 93.0318C54.5658 93.9068 51.1519 94.392 47.19 94.0623C43.3166 93.7408 39.8076 92.8637 37.0109 91.4684C34.2767 90.1047 31.9789 88.3291 31.3002 85.0857C35.8182 84.8633 40.2349 83.9762 43.2082 81.6566C44.2898 80.8133 45.8484 79.0049 45.1918 77.2498C44.4549 75.2816 41.3631 75.052 39.083 75.3639C37.3926 75.5979 35.9937 76.1754 34.824 76.7814C32.2103 78.1355 30.1689 79.8963 29.5932 83.5396C23.9392 83.5156 18.549 82.7801 14.2531 81.2869C9.87323 79.7648 6.3951 77.4279 3.91034 74.3439C2.62753 72.7551 1.65624 70.9428 1.5869 68.5109C1.50702 65.6975 2.61268 63.6709 3.94315 62.1451C5.02909 60.8988 6.30663 59.9361 7.77284 59.1953C7.77284 59.1953 8.6951 57.1664 8.69706 57.152C8.34764 57.191 7.58417 57.4572 7.12694 57.6949C5.14706 58.7207 3.48983 60.0443 2.18632 61.7396C0.796277 63.55 -0.152551 66.0887 0.0203001 68.7713C0.189245 71.3783 1.10096 73.3225 2.45214 75.0621C5.02538 78.3762 8.62792 80.9096 13.3396 82.6006C17.9957 84.2703 23.5549 85.1609 29.7008 85.1445C30.582 90.0316 34.8685 92.799 39.8476 94.3104C43.9578 95.5576 48.7666 95.9639 52.8369 95.558C54.1851 95.4242 55.4601 95.0959 56.7738 94.9611C58.0767 94.8264 59.4592 94.6647 60.8879 94.6275C63.8285 94.55 66.9986 94.8582 69.7953 94.718C71.2043 94.6467 72.5684 94.4613 73.868 94.2818C78.2752 93.6695 82.7422 92.4941 86.382 90.7568C87.0135 90.4555 87.6879 90.1639 87.6777 89.6262C87.6537 88.2793 85.4404 89.5525 85.0822 89.6955C82.1629 90.8623 79.1203 91.7494 76.0328 92.3314C71.6801 93.1508 66.7967 93.3424 61.6242 93.0496C67.2974 89.8482 71.8244 85.423 76.8603 81.2984C80.5004 78.315 84.2703 75.2922 89.3783 73.7889C90.1408 73.5647 90.9365 73.3291 91.8822 73.0639C92.4978 72.8916 94.0383 72.8039 94.0758 71.9135C94.1236 70.8232 92.8859 71.1854 92.2338 71.3523ZM34.8685 78.5293C36.6703 77.4611 38.9767 76.691 41.2969 76.8061C42.3289 76.8576 43.5832 77.2283 43.7383 77.9186C43.9896 79.0363 42.442 80.2574 41.8494 80.6906C39.1398 82.6705 35.3357 83.2033 31.2924 83.4916C31.5486 81.0443 33.1025 79.5752 34.8685 78.5293Z" fill="white"/>
<path fill-rule="evenodd" clip-rule="evenodd" d="M90.6772 86.7252C88.9457 87.607 87.2139 88.4889 85.4775 89.4131C85.6734 89.9436 85.8463 90.4691 86.0863 91.0064C88.2182 90.1414 92.4537 88.7152 94.8277 86.3734C95.7881 85.4275 96.5875 83.7352 95.1031 82.6656C93.7395 81.6852 90.6002 82.9447 90.3305 84.9188C90.2432 85.5469 90.4881 86.0527 90.6772 86.7252Z" fill="#8F7ECE"/>
<path fill-rule="evenodd" clip-rule="evenodd" d="M91.7531 86.1152C92.209 86.1619 93.8254 85.4359 93.4974 84.8426C93.2789 84.4478 92.6459 84.8248 92.2666 85.0158C91.976 85.164 91.248 85.3586 91.3429 85.8269C91.3922 86.0816 91.6275 86.1023 91.7531 86.1152Z" fill="white"/>
<path fill-rule="evenodd" clip-rule="evenodd" d="M93.9976 83.0178C93.5749 82.7689 92.9564 83.2599 93.1259 83.6555C93.3396 84.1476 94.7298 83.4539 93.9976 83.0178Z" fill="white"/>
<path fill-rule="evenodd" clip-rule="evenodd" d="M93.9345 72.7555C92.0542 73.2422 90.1731 73.7287 88.2618 74.1875C88.0548 73.66 87.8372 73.1518 87.6606 72.5918C89.8306 71.8266 93.948 70.0859 97.2775 70.2654C98.6228 70.34 100.344 71.076 99.9403 72.8594C99.5693 74.4975 96.3837 75.6353 94.8732 74.3371C94.3937 73.9242 94.2398 73.3855 93.9345 72.7555Z" fill="#8F7ECE"/>
<path fill-rule="evenodd" clip-rule="evenodd" d="M95.1447 72.4979C95.4543 72.1604 97.1467 71.6334 97.2953 72.2951C97.3945 72.735 96.6685 72.8736 96.2576 72.9805C95.9424 73.06 95.2689 73.3988 95.0287 72.9853C94.8986 72.7621 95.0609 72.5922 95.1447 72.4979Z" fill="white"/>
<path fill-rule="evenodd" clip-rule="evenodd" d="M98.8794 73.331C98.7297 73.7951 97.9383 73.8385 97.8055 73.4293C97.6366 72.9205 99.1397 72.5187 98.8794 73.331Z" fill="white"/>
<path fill-rule="evenodd" clip-rule="evenodd" d="M10.2808 72.6707C10.1349 73.1723 10.0599 73.682 9.84042 74.176C9.24218 74.0195 8.71698 73.8227 8.01718 73.5443C7.66386 73.4039 6.26698 72.9691 6.64589 72.5172C6.90409 72.2057 9.68925 72.4908 10.2808 72.6707Z" fill="#8F7ECE"/>
<path d="M29.8113 79.9857C31.5389 80.3486 33.2516 80.7344 35.0172 81.0428C35.1443 81.0644 35.283 81.0904 35.4283 81.116C36.1504 80.2299 35.9699 79.2396 35.7182 78.2394C33.9227 77.7037 32.0676 77.3297 30.248 76.8662C28.8857 76.5197 27.5158 76.198 26.1508 75.876C25.991 76.9215 25.8287 77.966 25.4375 78.9842C26.8928 79.3431 28.3518 79.681 29.8113 79.9857Z" fill="#B1BC00"/>
<path d="M8.92627 73.9016C9.74131 74.4647 11.2425 74.9398 12.4815 75.3326C13.6604 75.709 14.8624 76.0869 15.9204 76.3926C18.7218 77.2047 21.5704 78.008 24.4374 78.7363C24.4138 78.7209 24.3874 78.7098 24.3618 78.6945C24.6501 77.6746 24.8282 76.6416 25.0415 75.6139C24.4575 75.4742 23.8737 75.3336 23.2933 75.1873C19.8198 74.3174 16.294 73.5758 12.861 72.8639C11.7067 72.6246 10.4962 72.3176 9.32158 72.4812C9.11162 72.9451 8.97393 73.4191 8.92627 73.9016Z" fill="#B1BC00"/>
<path d="M35.8873 79.8227C35.9596 79.451 36.401 79.2186 36.8711 79.3043L38.6973 79.6365C39.1686 79.7223 39.491 80.0943 39.417 80.4668C39.3448 80.8379 38.9043 81.0715 38.433 80.9861L36.6073 80.6535C36.1362 80.5672 35.8141 80.1957 35.8873 79.8227Z" fill="#4D3D87"/>
<path fill-rule="evenodd" clip-rule="evenodd" d="M24.3711 74.5047C24.8197 74.3299 25.344 74.4846 25.7979 74.5523C28.0588 74.8826 30.3342 75.3441 32.7402 75.9602C33.1629 76.0676 33.5629 76.1758 34.1342 76.3611C34.9852 76.6375 35.7914 76.9918 35.6215 77.7609C35.5834 77.9367 35.44 78.3107 35.0857 78.2678C34.6555 78.2168 34.741 77.5187 34.4981 77.3021C34.2949 77.1178 33.7092 77.0428 33.2537 76.9176C32.0301 76.5768 30.8268 76.2283 29.5811 75.951C27.7424 75.5395 25.9959 75.2815 24.6828 74.8102C24.5527 74.7647 24.3504 74.7602 24.3711 74.5047Z" fill="#4D3D87"/>
<path d="M24.4366 78.7363C24.7702 78.8191 25.1038 78.9014 25.4368 78.9842C25.8282 77.9662 25.9903 76.9215 26.1501 75.876C25.7794 75.7885 25.4112 75.7023 25.0405 75.6137C24.8272 76.6414 24.6491 77.6744 24.3608 78.6943C24.3866 78.7098 24.4132 78.7209 24.4366 78.7363Z" fill="#4D3D87"/>
<path d="M35.4282 81.116C35.9581 81.2098 36.5536 81.2928 36.8159 81.1328C36.9333 81.0615 37.0845 80.7549 37.1673 80.5754C37.4489 79.9719 37.471 79.2738 37.188 78.7226C36.7038 78.5441 36.2128 78.3867 35.7181 78.2394C35.9698 79.2396 36.1503 80.2299 35.4282 81.116Z" fill="#4D3D87"/>
<path fill-rule="evenodd" clip-rule="evenodd" d="M33.4979 79.1686C33.7938 79.7116 32.0277 79.4989 32.0389 79.0684C32.0523 78.5655 33.1729 78.8854 33.4631 79.117C33.4824 79.1325 33.4871 79.1483 33.4979 79.1686Z" fill="white"/>
<path fill-rule="evenodd" clip-rule="evenodd" d="M31.4134 78.6698C31.5775 79.1285 30.0849 79.0145 30.2134 78.5498C30.3101 78.1977 31.3001 78.3536 31.4134 78.6698Z" fill="white"/>
<path fill-rule="evenodd" clip-rule="evenodd" d="M11.5755 73.234C11.9847 73.2758 12.622 73.4135 12.6181 73.6547C12.6138 73.9633 12.1892 73.8598 11.8595 73.803C11.5302 73.7471 11.1226 73.6682 11.1489 73.4233C11.1769 73.1545 11.4151 73.217 11.5755 73.234Z" fill="white"/>
<path fill-rule="evenodd" clip-rule="evenodd" d="M13.4243 74.1619C13.731 74.1748 14.0212 74.2977 13.9847 74.5084C13.9216 74.8627 12.9122 74.6961 12.997 74.3514C13.029 74.2197 13.1697 74.1514 13.4243 74.1619Z" fill="white"/>
</g>
<defs>
<clipPath id="clip0_320_59101">
<rect width="100" height="100" fill="white"/>
</clipPath>
</defs>
</svg>
