<svg width="21" height="20" viewBox="0 0 21 20" fill="none" xmlns="http://www.w3.org/2000/svg">
<g clip-path="url(#clip0_320_56832)">
<path d="M6.16901 8.99167C7.36901 11.35 9.30234 13.275 11.6607 14.4833L13.494 12.65C13.719 12.425 14.0523 12.35 14.344 12.45C15.2773 12.7583 16.2857 12.925 17.319 12.925C17.7773 12.925 18.1523 13.3 18.1523 13.7583V16.6667C18.1523 17.125 17.7773 17.5 17.319 17.5C9.49401 17.5 3.15234 11.1583 3.15234 3.33333C3.15234 2.875 3.52734 2.5 3.98568 2.5H6.90234C7.36068 2.5 7.73568 2.875 7.73568 3.33333C7.73568 4.375 7.90234 5.375 8.21068 6.30833C8.30234 6.6 8.23568 6.925 8.00234 7.15833L6.16901 8.99167Z" fill="#323232"/>
</g>
<defs>
<clipPath id="clip0_320_56832">
<rect width="20" height="20" fill="white" transform="translate(0.652344)"/>
</clipPath>
</defs>
</svg>
